<?xml version="1.0"?>
<!DOCTYPE multimedia-project>
<multimedia-project version="1.0" creator="Linux MultiMedia Studio (LMMS)" creatorversion="0.4.15" type="song">
  <head mastervol="100" masterpitch="0">
    <bpm value="138" id="7345865"/>
    <timesig_numerator value="4" id="3597656"/>
    <timesig_denominator value="4" id="1142032"/>
  </head>
  <song>
    <trackcontainer width="1650" x="0" y="35" maximized="0" height="411" visible="0" type="song" minimized="0">
      <track muted="0" type="0" name="Ch1">
        <instrumenttrack pan="-100" fxch="0" pitch="0" basenote="57" vol="25">
          <instrument name="tripleoscillator">
            <tripleoscillator phoffset2="0" userwavefile0="" finer0="0" userwavefile1="" finer1="0" userwavefile2="" finer2="0" coarse0="0" coarse1="0" coarse2="0" finel0="0" finel1="0" modalgo1="2" modalgo2="2" finel2="0" pan0="0" modalgo3="2" pan1="0" stphdetun0="0" pan2="0" stphdetun1="0" wavetype0="3" stphdetun2="0" wavetype1="0" wavetype2="0" vol0="99" vol1="0" phoffset0="0" phoffset1="0" vol2="0"/>
          </instrument>
          <eldata fres="0.5" ftype="0" fcut="14000" fwet="0">
            <elvol lspd_denominator="4" pdel="0" userwavefile="" dec="0.5" lamt="0" syncmode="0" latt="0" rel="0.1" sus="0.5" amt="0" x100="0" att="0" lpdel="0" hold="0.5" lshp="0" lspd="0.1" ctlenvamt="0" lspd_numerator="4"/>
            <elcut lspd_denominator="4" pdel="0" userwavefile="" dec="0.5" lamt="0" syncmode="0" latt="0" rel="0.1" sus="0.5" amt="0" x100="0" att="0" lpdel="0" hold="0.5" lshp="0" lspd="0.1" ctlenvamt="0" lspd_numerator="4"/>
            <elres lspd_denominator="4" pdel="0" userwavefile="" dec="0.5" lamt="0" syncmode="0" latt="0" rel="0.1" sus="0.5" amt="0" x100="0" att="0" lpdel="0" hold="0.5" lshp="0" lspd="0.1" ctlenvamt="0" lspd_numerator="4"/>
          </eldata>
          <chordcreator chord="0" chordrange="1" chord-enabled="0"/>
          <arpeggiator arptime="100" arprange="1" arptime_denominator="4" syncmode="0" arpmode="0" arp-enabled="0" arp="0" arptime_numerator="4" arpdir="0" arpgate="100"/>
          <midiport inputcontroller="0" fixedoutputvelocity="-1" inputchannel="0" outputcontroller="0" writable="0" outputchannel="1" fixedinputvelocity="-1" fixedoutputnote="-1" outputprogram="1" readable="0"/>
          <fxchain numofeffects="0" enabled="0"/>
        </instrumenttrack>
        <pattern steps="16" muted="0" type="1" name="" pos="0" len="192" frozen="0">
          <note pan="0" key="58" vol="100" pos="0" len="5"/>
          <note pan="0" key="46" vol="100" pos="6" len="5"/>
        </pattern>
        <pattern steps="16" muted="0" type="1" name="" pos="192" len="384" frozen="0">
          <note pan="0" key="58" vol="100" pos="168" len="5"/>
          <note pan="0" key="46" vol="100" pos="174" len="5"/>
          <note pan="0" key="58" vol="100" pos="192" len="5"/>
          <note pan="0" key="46" vol="100" pos="198" len="5"/>
        </pattern>
        <pattern steps="16" muted="0" type="1" name="" pos="768" len="192" frozen="0">
          <note pan="0" key="58" vol="100" pos="0" len="5"/>
          <note pan="0" key="46" vol="100" pos="6" len="5"/>
        </pattern>
        <pattern steps="16" muted="0" type="1" name="" pos="960" len="22848" frozen="0">
          <note pan="0" key="58" vol="100" pos="144" len="5"/>
          <note pan="0" key="46" vol="100" pos="150" len="5"/>
          <note pan="0" key="58" vol="100" pos="168" len="5"/>
          <note pan="0" key="46" vol="100" pos="174" len="5"/>
          <note pan="0" key="58" vol="100" pos="192" len="5"/>
          <note pan="0" key="46" vol="100" pos="198" len="5"/>
          <note pan="0" key="58" vol="100" pos="384" len="5"/>
          <note pan="0" key="46" vol="100" pos="390" len="5"/>
          <note pan="0" key="58" vol="100" pos="432" len="5"/>
          <note pan="0" key="46" vol="100" pos="438" len="5"/>
          <note pan="0" key="46" vol="100" pos="480" len="5"/>
          <note pan="0" key="46" vol="100" pos="492" len="5"/>
          <note pan="0" key="46" vol="100" pos="504" len="5"/>
          <note pan="0" key="46" vol="100" pos="516" len="5"/>
          <note pan="0" key="58" vol="100" pos="528" len="23"/>
          <note pan="0" key="58" vol="100" pos="576" len="11"/>
          <note pan="0" key="46" vol="100" pos="588" len="5"/>
          <note pan="0" key="34" vol="100" pos="594" len="5"/>
          <note pan="0" key="58" vol="100" pos="600" len="5"/>
          <note pan="0" key="34" vol="100" pos="606" len="5"/>
          <note pan="0" key="70" vol="100" pos="612" len="11"/>
          <note pan="0" key="46" vol="100" pos="624" len="5"/>
          <note pan="0" key="34" vol="100" pos="630" len="5"/>
          <note pan="0" key="70" vol="100" pos="636" len="5"/>
          <note pan="0" key="34" vol="100" pos="642" len="5"/>
          <note pan="0" key="68" vol="100" pos="648" len="5"/>
          <note pan="0" key="32" vol="100" pos="654" len="5"/>
          <note pan="0" key="70" vol="100" pos="660" len="5"/>
          <note pan="0" key="34" vol="100" pos="666" len="5"/>
          <note pan="0" key="58" vol="100" pos="672" len="11"/>
          <note pan="0" key="46" vol="100" pos="684" len="5"/>
          <note pan="0" key="34" vol="100" pos="690" len="5"/>
          <note pan="0" key="58" vol="100" pos="696" len="5"/>
          <note pan="0" key="34" vol="100" pos="702" len="5"/>
          <note pan="0" key="70" vol="100" pos="708" len="11"/>
          <note pan="0" key="46" vol="100" pos="720" len="5"/>
          <note pan="0" key="34" vol="100" pos="726" len="5"/>
          <note pan="0" key="70" vol="100" pos="732" len="5"/>
          <note pan="0" key="34" vol="100" pos="738" len="5"/>
          <note pan="0" key="68" vol="100" pos="744" len="5"/>
          <note pan="0" key="32" vol="100" pos="750" len="5"/>
          <note pan="0" key="70" vol="100" pos="756" len="5"/>
          <note pan="0" key="34" vol="100" pos="762" len="5"/>
          <note pan="0" key="58" vol="100" pos="768" len="11"/>
          <note pan="0" key="46" vol="100" pos="780" len="5"/>
          <note pan="0" key="34" vol="100" pos="786" len="5"/>
          <note pan="0" key="58" vol="100" pos="792" len="5"/>
          <note pan="0" key="34" vol="100" pos="798" len="5"/>
          <note pan="0" key="70" vol="100" pos="804" len="11"/>
          <note pan="0" key="46" vol="100" pos="816" len="5"/>
          <note pan="0" key="34" vol="100" pos="822" len="5"/>
          <note pan="0" key="70" vol="100" pos="828" len="5"/>
          <note pan="0" key="34" vol="100" pos="834" len="5"/>
          <note pan="0" key="68" vol="100" pos="840" len="5"/>
          <note pan="0" key="32" vol="100" pos="846" len="5"/>
          <note pan="0" key="70" vol="100" pos="852" len="5"/>
          <note pan="0" key="34" vol="100" pos="858" len="5"/>
          <note pan="0" key="61" vol="100" pos="864" len="11"/>
          <note pan="0" key="42" vol="100" pos="876" len="5"/>
          <note pan="0" key="54" vol="100" pos="882" len="5"/>
          <note pan="0" key="70" vol="100" pos="888" len="5"/>
          <note pan="0" key="54" vol="100" pos="894" len="5"/>
          <note pan="0" key="73" vol="100" pos="900" len="5"/>
          <note pan="0" key="54" vol="100" pos="906" len="5"/>
          <note pan="0" key="63" vol="100" pos="912" len="11"/>
          <note pan="0" key="44" vol="100" pos="924" len="5"/>
          <note pan="0" key="56" vol="100" pos="930" len="5"/>
          <note pan="0" key="73" vol="100" pos="936" len="5"/>
          <note pan="0" key="56" vol="100" pos="942" len="5"/>
          <note pan="0" key="75" vol="100" pos="948" len="5"/>
          <note pan="0" key="56" vol="100" pos="954" len="5"/>
          <note pan="0" key="58" vol="100" pos="960" len="11"/>
          <note pan="0" key="46" vol="100" pos="972" len="5"/>
          <note pan="0" key="34" vol="100" pos="978" len="5"/>
          <note pan="0" key="58" vol="100" pos="984" len="5"/>
          <note pan="0" key="34" vol="100" pos="990" len="5"/>
          <note pan="0" key="70" vol="100" pos="996" len="11"/>
          <note pan="0" key="46" vol="100" pos="1008" len="5"/>
          <note pan="0" key="34" vol="100" pos="1014" len="5"/>
          <note pan="0" key="70" vol="100" pos="1020" len="5"/>
          <note pan="0" key="34" vol="100" pos="1026" len="5"/>
          <note pan="0" key="68" vol="100" pos="1032" len="5"/>
          <note pan="0" key="32" vol="100" pos="1038" len="5"/>
          <note pan="0" key="70" vol="100" pos="1044" len="5"/>
          <note pan="0" key="34" vol="100" pos="1050" len="5"/>
          <note pan="0" key="58" vol="100" pos="1056" len="11"/>
          <note pan="0" key="46" vol="100" pos="1068" len="5"/>
          <note pan="0" key="34" vol="100" pos="1074" len="5"/>
          <note pan="0" key="58" vol="100" pos="1080" len="5"/>
          <note pan="0" key="34" vol="100" pos="1086" len="5"/>
          <note pan="0" key="70" vol="100" pos="1092" len="11"/>
          <note pan="0" key="46" vol="100" pos="1104" len="5"/>
          <note pan="0" key="34" vol="100" pos="1110" len="5"/>
          <note pan="0" key="70" vol="100" pos="1116" len="5"/>
          <note pan="0" key="34" vol="100" pos="1122" len="5"/>
          <note pan="0" key="68" vol="100" pos="1128" len="5"/>
          <note pan="0" key="32" vol="100" pos="1134" len="5"/>
          <note pan="0" key="70" vol="100" pos="1140" len="5"/>
          <note pan="0" key="34" vol="100" pos="1146" len="5"/>
          <note pan="0" key="58" vol="100" pos="1152" len="11"/>
          <note pan="0" key="46" vol="100" pos="1164" len="5"/>
          <note pan="0" key="34" vol="100" pos="1170" len="5"/>
          <note pan="0" key="58" vol="100" pos="1176" len="5"/>
          <note pan="0" key="34" vol="100" pos="1182" len="5"/>
          <note pan="0" key="70" vol="100" pos="1188" len="11"/>
          <note pan="0" key="46" vol="100" pos="1200" len="5"/>
          <note pan="0" key="34" vol="100" pos="1206" len="5"/>
          <note pan="0" key="70" vol="100" pos="1212" len="5"/>
          <note pan="0" key="34" vol="100" pos="1218" len="5"/>
          <note pan="0" key="68" vol="100" pos="1224" len="5"/>
          <note pan="0" key="32" vol="100" pos="1230" len="5"/>
          <note pan="0" key="70" vol="100" pos="1236" len="5"/>
          <note pan="0" key="34" vol="100" pos="1242" len="5"/>
          <note pan="0" key="63" vol="100" pos="1248" len="11"/>
          <note pan="0" key="42" vol="100" pos="1260" len="5"/>
          <note pan="0" key="54" vol="100" pos="1266" len="5"/>
          <note pan="0" key="73" vol="100" pos="1272" len="5"/>
          <note pan="0" key="54" vol="100" pos="1278" len="5"/>
          <note pan="0" key="75" vol="100" pos="1284" len="5"/>
          <note pan="0" key="54" vol="100" pos="1290" len="5"/>
          <note pan="0" key="61" vol="100" pos="1296" len="11"/>
          <note pan="0" key="44" vol="100" pos="1308" len="5"/>
          <note pan="0" key="56" vol="100" pos="1314" len="5"/>
          <note pan="0" key="70" vol="100" pos="1320" len="5"/>
          <note pan="0" key="56" vol="100" pos="1326" len="5"/>
          <note pan="0" key="73" vol="100" pos="1332" len="5"/>
          <note pan="0" key="56" vol="100" pos="1338" len="5"/>
          <note pan="0" key="58" vol="100" pos="1344" len="11"/>
          <note pan="0" key="46" vol="100" pos="1356" len="5"/>
          <note pan="0" key="34" vol="100" pos="1362" len="5"/>
          <note pan="0" key="58" vol="100" pos="1368" len="5"/>
          <note pan="0" key="34" vol="100" pos="1374" len="5"/>
          <note pan="0" key="70" vol="100" pos="1380" len="11"/>
          <note pan="0" key="46" vol="100" pos="1392" len="5"/>
          <note pan="0" key="34" vol="100" pos="1398" len="5"/>
          <note pan="0" key="70" vol="100" pos="1404" len="5"/>
          <note pan="0" key="34" vol="100" pos="1410" len="5"/>
          <note pan="0" key="68" vol="100" pos="1416" len="5"/>
          <note pan="0" key="32" vol="100" pos="1422" len="5"/>
          <note pan="0" key="70" vol="100" pos="1428" len="5"/>
          <note pan="0" key="34" vol="100" pos="1434" len="5"/>
          <note pan="0" key="58" vol="100" pos="1440" len="11"/>
          <note pan="0" key="46" vol="100" pos="1452" len="5"/>
          <note pan="0" key="34" vol="100" pos="1458" len="5"/>
          <note pan="0" key="58" vol="100" pos="1464" len="5"/>
          <note pan="0" key="34" vol="100" pos="1470" len="5"/>
          <note pan="0" key="70" vol="100" pos="1476" len="11"/>
          <note pan="0" key="46" vol="100" pos="1488" len="5"/>
          <note pan="0" key="34" vol="100" pos="1494" len="5"/>
          <note pan="0" key="70" vol="100" pos="1500" len="5"/>
          <note pan="0" key="34" vol="100" pos="1506" len="5"/>
          <note pan="0" key="68" vol="100" pos="1512" len="5"/>
          <note pan="0" key="32" vol="100" pos="1518" len="5"/>
          <note pan="0" key="70" vol="100" pos="1524" len="5"/>
          <note pan="0" key="34" vol="100" pos="1530" len="5"/>
          <note pan="0" key="58" vol="100" pos="1536" len="11"/>
          <note pan="0" key="46" vol="100" pos="1548" len="5"/>
          <note pan="0" key="34" vol="100" pos="1554" len="5"/>
          <note pan="0" key="58" vol="100" pos="1560" len="5"/>
          <note pan="0" key="34" vol="100" pos="1566" len="5"/>
          <note pan="0" key="70" vol="100" pos="1572" len="11"/>
          <note pan="0" key="46" vol="100" pos="1584" len="5"/>
          <note pan="0" key="34" vol="100" pos="1590" len="5"/>
          <note pan="0" key="70" vol="100" pos="1596" len="5"/>
          <note pan="0" key="34" vol="100" pos="1602" len="5"/>
          <note pan="0" key="68" vol="100" pos="1608" len="5"/>
          <note pan="0" key="32" vol="100" pos="1614" len="5"/>
          <note pan="0" key="70" vol="100" pos="1620" len="5"/>
          <note pan="0" key="34" vol="100" pos="1626" len="5"/>
          <note pan="0" key="61" vol="100" pos="1632" len="11"/>
          <note pan="0" key="42" vol="100" pos="1644" len="5"/>
          <note pan="0" key="54" vol="100" pos="1650" len="5"/>
          <note pan="0" key="70" vol="100" pos="1656" len="5"/>
          <note pan="0" key="54" vol="100" pos="1662" len="5"/>
          <note pan="0" key="73" vol="100" pos="1668" len="5"/>
          <note pan="0" key="54" vol="100" pos="1674" len="5"/>
          <note pan="0" key="63" vol="100" pos="1680" len="11"/>
          <note pan="0" key="44" vol="100" pos="1692" len="5"/>
          <note pan="0" key="56" vol="100" pos="1698" len="5"/>
          <note pan="0" key="73" vol="100" pos="1704" len="5"/>
          <note pan="0" key="56" vol="100" pos="1710" len="5"/>
          <note pan="0" key="75" vol="100" pos="1716" len="5"/>
          <note pan="0" key="56" vol="100" pos="1722" len="5"/>
          <note pan="0" key="58" vol="100" pos="1728" len="11"/>
          <note pan="0" key="46" vol="100" pos="1740" len="5"/>
          <note pan="0" key="34" vol="100" pos="1746" len="5"/>
          <note pan="0" key="58" vol="100" pos="1752" len="5"/>
          <note pan="0" key="34" vol="100" pos="1758" len="5"/>
          <note pan="0" key="70" vol="100" pos="1764" len="11"/>
          <note pan="0" key="46" vol="100" pos="1776" len="5"/>
          <note pan="0" key="34" vol="100" pos="1782" len="5"/>
          <note pan="0" key="70" vol="100" pos="1788" len="5"/>
          <note pan="0" key="34" vol="100" pos="1794" len="5"/>
          <note pan="0" key="68" vol="100" pos="1800" len="5"/>
          <note pan="0" key="32" vol="100" pos="1806" len="5"/>
          <note pan="0" key="70" vol="100" pos="1812" len="5"/>
          <note pan="0" key="34" vol="100" pos="1818" len="5"/>
          <note pan="0" key="58" vol="100" pos="1824" len="11"/>
          <note pan="0" key="46" vol="100" pos="1836" len="5"/>
          <note pan="0" key="34" vol="100" pos="1842" len="5"/>
          <note pan="0" key="58" vol="100" pos="1848" len="5"/>
          <note pan="0" key="34" vol="100" pos="1854" len="5"/>
          <note pan="0" key="70" vol="100" pos="1860" len="11"/>
          <note pan="0" key="46" vol="100" pos="1872" len="5"/>
          <note pan="0" key="34" vol="100" pos="1878" len="5"/>
          <note pan="0" key="70" vol="100" pos="1884" len="5"/>
          <note pan="0" key="34" vol="100" pos="1890" len="5"/>
          <note pan="0" key="68" vol="100" pos="1896" len="5"/>
          <note pan="0" key="32" vol="100" pos="1902" len="5"/>
          <note pan="0" key="70" vol="100" pos="1908" len="5"/>
          <note pan="0" key="34" vol="100" pos="1914" len="5"/>
          <note pan="0" key="58" vol="100" pos="1920" len="11"/>
          <note pan="0" key="46" vol="100" pos="1932" len="5"/>
          <note pan="0" key="34" vol="100" pos="1938" len="5"/>
          <note pan="0" key="58" vol="100" pos="1944" len="5"/>
          <note pan="0" key="34" vol="100" pos="1950" len="5"/>
          <note pan="0" key="70" vol="100" pos="1956" len="11"/>
          <note pan="0" key="46" vol="100" pos="1968" len="5"/>
          <note pan="0" key="34" vol="100" pos="1974" len="5"/>
          <note pan="0" key="70" vol="100" pos="1980" len="5"/>
          <note pan="0" key="34" vol="100" pos="1986" len="5"/>
          <note pan="0" key="68" vol="100" pos="1992" len="5"/>
          <note pan="0" key="32" vol="100" pos="1998" len="5"/>
          <note pan="0" key="70" vol="100" pos="2004" len="5"/>
          <note pan="0" key="34" vol="100" pos="2010" len="5"/>
          <note pan="0" key="63" vol="100" pos="2016" len="11"/>
          <note pan="0" key="61" vol="100" pos="2034" len="11"/>
          <note pan="0" key="63" vol="100" pos="2046" len="11"/>
          <note pan="0" key="61" vol="100" pos="2064" len="11"/>
          <note pan="0" key="58" vol="100" pos="2082" len="11"/>
          <note pan="0" key="61" vol="100" pos="2100" len="11"/>
          <note pan="0" key="70" vol="100" pos="2112" len="5"/>
          <note pan="0" key="58" vol="100" pos="2118" len="17"/>
          <note pan="0" key="72" vol="100" pos="2136" len="5"/>
          <note pan="0" key="60" vol="100" pos="2142" len="17"/>
          <note pan="0" key="73" vol="100" pos="2160" len="5"/>
          <note pan="0" key="61" vol="100" pos="2166" len="17"/>
          <note pan="0" key="75" vol="100" pos="2184" len="5"/>
          <note pan="0" key="63" vol="100" pos="2190" len="17"/>
          <note pan="0" key="77" vol="100" pos="2208" len="5"/>
          <note pan="0" key="65" vol="100" pos="2214" len="23"/>
          <note pan="0" key="58" vol="100" pos="2238" len="5"/>
          <note pan="0" key="53" vol="100" pos="2244" len="5"/>
          <note pan="0" key="46" vol="100" pos="2250" len="5"/>
          <note pan="0" key="82" vol="100" pos="2256" len="5"/>
          <note pan="0" key="70" vol="100" pos="2262" len="17"/>
          <note pan="0" key="80" vol="100" pos="2280" len="5"/>
          <note pan="0" key="68" vol="100" pos="2286" len="17"/>
          <note pan="0" key="77" vol="100" pos="2304" len="5"/>
          <note pan="0" key="65" vol="100" pos="2310" len="41"/>
          <note pan="0" key="70" vol="100" pos="2352" len="5"/>
          <note pan="0" key="58" vol="100" pos="2358" len="41"/>
          <note pan="0" key="77" vol="100" pos="2400" len="5"/>
          <note pan="0" key="65" vol="100" pos="2406" len="17"/>
          <note pan="0" key="75" vol="100" pos="2424" len="5"/>
          <note pan="0" key="65" vol="100" pos="2430" len="5"/>
          <note pan="0" key="63" vol="100" pos="2436" len="11"/>
          <note pan="0" key="73" vol="100" pos="2448" len="5"/>
          <note pan="0" key="61" vol="100" pos="2454" len="17"/>
          <note pan="0" key="72" vol="100" pos="2472" len="5"/>
          <note pan="0" key="60" vol="100" pos="2478" len="17"/>
          <note pan="0" key="70" vol="100" pos="2496" len="5"/>
          <note pan="0" key="58" vol="100" pos="2502" len="17"/>
          <note pan="0" key="72" vol="100" pos="2520" len="5"/>
          <note pan="0" key="60" vol="100" pos="2526" len="17"/>
          <note pan="0" key="73" vol="100" pos="2544" len="5"/>
          <note pan="0" key="61" vol="100" pos="2550" len="17"/>
          <note pan="0" key="75" vol="100" pos="2568" len="5"/>
          <note pan="0" key="63" vol="100" pos="2574" len="17"/>
          <note pan="0" key="77" vol="100" pos="2592" len="5"/>
          <note pan="0" key="65" vol="100" pos="2598" len="23"/>
          <note pan="0" key="61" vol="100" pos="2622" len="5"/>
          <note pan="0" key="58" vol="100" pos="2628" len="5"/>
          <note pan="0" key="54" vol="100" pos="2634" len="5"/>
          <note pan="0" key="75" vol="100" pos="2640" len="5"/>
          <note pan="0" key="63" vol="100" pos="2646" len="17"/>
          <note pan="0" key="73" vol="100" pos="2664" len="5"/>
          <note pan="0" key="61" vol="100" pos="2670" len="17"/>
          <note pan="0" key="72" vol="100" pos="2688" len="5"/>
          <note pan="0" key="60" vol="100" pos="2694" len="17"/>
          <note pan="0" key="70" vol="100" pos="2712" len="5"/>
          <note pan="0" key="61" vol="100" pos="2718" len="5"/>
          <note pan="0" key="60" vol="100" pos="2724" len="5"/>
          <note pan="0" key="58" vol="100" pos="2730" len="5"/>
          <note pan="0" key="72" vol="100" pos="2736" len="5"/>
          <note pan="0" key="60" vol="100" pos="2742" len="17"/>
          <note pan="0" key="73" vol="100" pos="2760" len="5"/>
          <note pan="0" key="61" vol="100" pos="2766" len="17"/>
          <note pan="0" key="72" vol="100" pos="2784" len="5"/>
          <note pan="0" key="60" vol="100" pos="2790" len="17"/>
          <note pan="0" key="70" vol="100" pos="2808" len="5"/>
          <note pan="0" key="58" vol="100" pos="2814" len="17"/>
          <note pan="0" key="69" vol="100" pos="2832" len="5"/>
          <note pan="0" key="57" vol="100" pos="2838" len="17"/>
          <note pan="0" key="72" vol="100" pos="2856" len="5"/>
          <note pan="0" key="60" vol="100" pos="2862" len="17"/>
          <note pan="0" key="70" vol="100" pos="2880" len="5"/>
          <note pan="0" key="58" vol="100" pos="2886" len="17"/>
          <note pan="0" key="72" vol="100" pos="2904" len="5"/>
          <note pan="0" key="60" vol="100" pos="2910" len="17"/>
          <note pan="0" key="73" vol="100" pos="2928" len="5"/>
          <note pan="0" key="61" vol="100" pos="2934" len="17"/>
          <note pan="0" key="75" vol="100" pos="2952" len="5"/>
          <note pan="0" key="63" vol="100" pos="2958" len="17"/>
          <note pan="0" key="77" vol="100" pos="2976" len="5"/>
          <note pan="0" key="65" vol="100" pos="2982" len="23"/>
          <note pan="0" key="58" vol="100" pos="3006" len="5"/>
          <note pan="0" key="53" vol="100" pos="3012" len="5"/>
          <note pan="0" key="46" vol="100" pos="3018" len="5"/>
          <note pan="0" key="82" vol="100" pos="3024" len="5"/>
          <note pan="0" key="70" vol="100" pos="3030" len="17"/>
          <note pan="0" key="80" vol="100" pos="3048" len="5"/>
          <note pan="0" key="68" vol="100" pos="3054" len="17"/>
          <note pan="0" key="77" vol="100" pos="3072" len="5"/>
          <note pan="0" key="65" vol="100" pos="3078" len="41"/>
          <note pan="0" key="70" vol="100" pos="3120" len="5"/>
          <note pan="0" key="58" vol="100" pos="3126" len="41"/>
          <note pan="0" key="77" vol="100" pos="3168" len="5"/>
          <note pan="0" key="65" vol="100" pos="3174" len="17"/>
          <note pan="0" key="75" vol="100" pos="3192" len="5"/>
          <note pan="0" key="65" vol="100" pos="3198" len="5"/>
          <note pan="0" key="63" vol="100" pos="3204" len="11"/>
          <note pan="0" key="73" vol="100" pos="3216" len="5"/>
          <note pan="0" key="61" vol="100" pos="3222" len="17"/>
          <note pan="0" key="72" vol="100" pos="3240" len="5"/>
          <note pan="0" key="60" vol="100" pos="3246" len="17"/>
          <note pan="0" key="70" vol="100" pos="3264" len="5"/>
          <note pan="0" key="58" vol="100" pos="3270" len="17"/>
          <note pan="0" key="72" vol="100" pos="3288" len="5"/>
          <note pan="0" key="60" vol="100" pos="3294" len="17"/>
          <note pan="0" key="73" vol="100" pos="3312" len="5"/>
          <note pan="0" key="61" vol="100" pos="3318" len="17"/>
          <note pan="0" key="75" vol="100" pos="3336" len="5"/>
          <note pan="0" key="63" vol="100" pos="3342" len="17"/>
          <note pan="0" key="77" vol="100" pos="3360" len="5"/>
          <note pan="0" key="65" vol="100" pos="3366" len="23"/>
          <note pan="0" key="61" vol="100" pos="3390" len="5"/>
          <note pan="0" key="58" vol="100" pos="3396" len="5"/>
          <note pan="0" key="54" vol="100" pos="3402" len="5"/>
          <note pan="0" key="75" vol="100" pos="3408" len="5"/>
          <note pan="0" key="63" vol="100" pos="3414" len="17"/>
          <note pan="0" key="73" vol="100" pos="3432" len="5"/>
          <note pan="0" key="61" vol="100" pos="3438" len="17"/>
          <note pan="0" key="72" vol="100" pos="3456" len="5"/>
          <note pan="0" key="60" vol="100" pos="3462" len="41"/>
          <note pan="0" key="73" vol="100" pos="3504" len="5"/>
          <note pan="0" key="61" vol="100" pos="3510" len="41"/>
          <note pan="0" key="75" vol="100" pos="3552" len="5"/>
          <note pan="0" key="63" vol="100" pos="3558" len="41"/>
          <note pan="0" key="77" vol="100" pos="3600" len="5"/>
          <note pan="0" key="65" vol="100" pos="3606" len="41"/>
          <note pan="0" key="70" vol="100" pos="3648" len="5"/>
          <note pan="0" key="58" vol="100" pos="3654" len="17"/>
          <note pan="0" key="72" vol="100" pos="3672" len="5"/>
          <note pan="0" key="60" vol="100" pos="3678" len="17"/>
          <note pan="0" key="73" vol="100" pos="3696" len="5"/>
          <note pan="0" key="61" vol="100" pos="3702" len="17"/>
          <note pan="0" key="75" vol="100" pos="3720" len="5"/>
          <note pan="0" key="63" vol="100" pos="3726" len="17"/>
          <note pan="0" key="77" vol="100" pos="3744" len="5"/>
          <note pan="0" key="65" vol="100" pos="3750" len="23"/>
          <note pan="0" key="58" vol="100" pos="3774" len="5"/>
          <note pan="0" key="53" vol="100" pos="3780" len="5"/>
          <note pan="0" key="49" vol="100" pos="3786" len="5"/>
          <note pan="0" key="82" vol="100" pos="3792" len="5"/>
          <note pan="0" key="70" vol="100" pos="3798" len="17"/>
          <note pan="0" key="80" vol="100" pos="3816" len="5"/>
          <note pan="0" key="68" vol="100" pos="3822" len="17"/>
          <note pan="0" key="77" vol="100" pos="3840" len="5"/>
          <note pan="0" key="65" vol="100" pos="3846" len="41"/>
          <note pan="0" key="70" vol="100" pos="3888" len="5"/>
          <note pan="0" key="58" vol="100" pos="3894" len="41"/>
          <note pan="0" key="77" vol="100" pos="3936" len="5"/>
          <note pan="0" key="65" vol="100" pos="3942" len="17"/>
          <note pan="0" key="75" vol="100" pos="3960" len="5"/>
          <note pan="0" key="65" vol="100" pos="3966" len="5"/>
          <note pan="0" key="63" vol="100" pos="3972" len="11"/>
          <note pan="0" key="73" vol="100" pos="3984" len="5"/>
          <note pan="0" key="61" vol="100" pos="3990" len="17"/>
          <note pan="0" key="72" vol="100" pos="4008" len="5"/>
          <note pan="0" key="60" vol="100" pos="4014" len="17"/>
          <note pan="0" key="70" vol="100" pos="4032" len="5"/>
          <note pan="0" key="58" vol="100" pos="4038" len="17"/>
          <note pan="0" key="72" vol="100" pos="4056" len="5"/>
          <note pan="0" key="60" vol="100" pos="4062" len="17"/>
          <note pan="0" key="73" vol="100" pos="4080" len="5"/>
          <note pan="0" key="61" vol="100" pos="4086" len="17"/>
          <note pan="0" key="75" vol="100" pos="4104" len="5"/>
          <note pan="0" key="63" vol="100" pos="4110" len="17"/>
          <note pan="0" key="77" vol="100" pos="4128" len="5"/>
          <note pan="0" key="65" vol="100" pos="4134" len="23"/>
          <note pan="0" key="61" vol="100" pos="4158" len="5"/>
          <note pan="0" key="58" vol="100" pos="4164" len="5"/>
          <note pan="0" key="54" vol="100" pos="4170" len="5"/>
          <note pan="0" key="75" vol="100" pos="4176" len="5"/>
          <note pan="0" key="63" vol="100" pos="4182" len="17"/>
          <note pan="0" key="73" vol="100" pos="4200" len="5"/>
          <note pan="0" key="61" vol="100" pos="4206" len="17"/>
          <note pan="0" key="72" vol="100" pos="4224" len="5"/>
          <note pan="0" key="60" vol="100" pos="4230" len="17"/>
          <note pan="0" key="70" vol="100" pos="4248" len="5"/>
          <note pan="0" key="61" vol="100" pos="4254" len="5"/>
          <note pan="0" key="60" vol="100" pos="4260" len="5"/>
          <note pan="0" key="58" vol="100" pos="4266" len="5"/>
          <note pan="0" key="72" vol="100" pos="4272" len="5"/>
          <note pan="0" key="60" vol="100" pos="4278" len="17"/>
          <note pan="0" key="73" vol="100" pos="4296" len="5"/>
          <note pan="0" key="61" vol="100" pos="4302" len="17"/>
          <note pan="0" key="72" vol="100" pos="4320" len="5"/>
          <note pan="0" key="60" vol="100" pos="4326" len="17"/>
          <note pan="0" key="70" vol="100" pos="4344" len="5"/>
          <note pan="0" key="58" vol="100" pos="4350" len="17"/>
          <note pan="0" key="69" vol="100" pos="4368" len="5"/>
          <note pan="0" key="57" vol="100" pos="4374" len="17"/>
          <note pan="0" key="72" vol="100" pos="4392" len="5"/>
          <note pan="0" key="60" vol="100" pos="4398" len="17"/>
          <note pan="0" key="70" vol="100" pos="4416" len="5"/>
          <note pan="0" key="58" vol="100" pos="4422" len="17"/>
          <note pan="0" key="72" vol="100" pos="4440" len="5"/>
          <note pan="0" key="60" vol="100" pos="4446" len="17"/>
          <note pan="0" key="73" vol="100" pos="4464" len="5"/>
          <note pan="0" key="61" vol="100" pos="4470" len="17"/>
          <note pan="0" key="75" vol="100" pos="4488" len="5"/>
          <note pan="0" key="63" vol="100" pos="4494" len="17"/>
          <note pan="0" key="77" vol="100" pos="4512" len="5"/>
          <note pan="0" key="65" vol="100" pos="4518" len="41"/>
          <note pan="0" key="82" vol="100" pos="4560" len="5"/>
          <note pan="0" key="70" vol="100" pos="4566" len="17"/>
          <note pan="0" key="80" vol="100" pos="4584" len="5"/>
          <note pan="0" key="68" vol="100" pos="4590" len="17"/>
          <note pan="0" key="77" vol="100" pos="4608" len="5"/>
          <note pan="0" key="65" vol="100" pos="4614" len="41"/>
          <note pan="0" key="70" vol="100" pos="4656" len="5"/>
          <note pan="0" key="58" vol="100" pos="4662" len="41"/>
          <note pan="0" key="77" vol="100" pos="4704" len="5"/>
          <note pan="0" key="65" vol="100" pos="4710" len="17"/>
          <note pan="0" key="75" vol="100" pos="4728" len="5"/>
          <note pan="0" key="65" vol="100" pos="4734" len="5"/>
          <note pan="0" key="63" vol="100" pos="4740" len="11"/>
          <note pan="0" key="73" vol="100" pos="4752" len="5"/>
          <note pan="0" key="61" vol="100" pos="4758" len="17"/>
          <note pan="0" key="72" vol="100" pos="4776" len="5"/>
          <note pan="0" key="60" vol="100" pos="4782" len="17"/>
          <note pan="0" key="70" vol="100" pos="4800" len="5"/>
          <note pan="0" key="58" vol="100" pos="4806" len="17"/>
          <note pan="0" key="72" vol="100" pos="4824" len="5"/>
          <note pan="0" key="60" vol="100" pos="4830" len="17"/>
          <note pan="0" key="73" vol="100" pos="4848" len="5"/>
          <note pan="0" key="61" vol="100" pos="4854" len="17"/>
          <note pan="0" key="75" vol="100" pos="4872" len="5"/>
          <note pan="0" key="63" vol="100" pos="4878" len="17"/>
          <note pan="0" key="77" vol="100" pos="4896" len="5"/>
          <note pan="0" key="65" vol="100" pos="4902" len="23"/>
          <note pan="0" key="61" vol="100" pos="4926" len="5"/>
          <note pan="0" key="58" vol="100" pos="4932" len="5"/>
          <note pan="0" key="54" vol="100" pos="4938" len="5"/>
          <note pan="0" key="75" vol="100" pos="4944" len="5"/>
          <note pan="0" key="63" vol="100" pos="4950" len="17"/>
          <note pan="0" key="73" vol="100" pos="4968" len="5"/>
          <note pan="0" key="61" vol="100" pos="4974" len="17"/>
          <note pan="0" key="72" vol="100" pos="4992" len="5"/>
          <note pan="0" key="60" vol="100" pos="4998" len="41"/>
          <note pan="0" key="73" vol="100" pos="5040" len="5"/>
          <note pan="0" key="61" vol="100" pos="5046" len="41"/>
          <note pan="0" key="75" vol="100" pos="5088" len="5"/>
          <note pan="0" key="63" vol="100" pos="5094" len="41"/>
          <note pan="0" key="77" vol="100" pos="5136" len="5"/>
          <note pan="0" key="65" vol="100" pos="5142" len="41"/>
          <note pan="0" key="80" vol="100" pos="5184" len="23"/>
          <note pan="0" key="82" vol="100" pos="5208" len="23"/>
          <note pan="0" key="77" vol="100" pos="5232" len="23"/>
          <note pan="0" key="75" vol="100" pos="5256" len="23"/>
          <note pan="0" key="77" vol="100" pos="5280" len="47"/>
          <note pan="0" key="75" vol="100" pos="5328" len="23"/>
          <note pan="0" key="77" vol="100" pos="5352" len="23"/>
          <note pan="0" key="80" vol="100" pos="5376" len="23"/>
          <note pan="0" key="82" vol="100" pos="5400" len="23"/>
          <note pan="0" key="77" vol="100" pos="5424" len="23"/>
          <note pan="0" key="75" vol="100" pos="5448" len="23"/>
          <note pan="0" key="77" vol="100" pos="5472" len="47"/>
          <note pan="0" key="70" vol="100" pos="5520" len="23"/>
          <note pan="0" key="77" vol="100" pos="5544" len="23"/>
          <note pan="0" key="75" vol="100" pos="5568" len="23"/>
          <note pan="0" key="73" vol="100" pos="5592" len="23"/>
          <note pan="0" key="72" vol="100" pos="5616" len="23"/>
          <note pan="0" key="68" vol="100" pos="5640" len="23"/>
          <note pan="0" key="70" vol="100" pos="5664" len="41"/>
          <note pan="0" key="70" vol="100" pos="5712" len="23"/>
          <note pan="0" key="73" vol="100" pos="5736" len="23"/>
          <note pan="0" key="72" vol="100" pos="5760" len="23"/>
          <note pan="0" key="73" vol="100" pos="5784" len="23"/>
          <note pan="0" key="75" vol="100" pos="5808" len="23"/>
          <note pan="0" key="77" vol="100" pos="5832" len="23"/>
          <note pan="0" key="70" vol="100" pos="5856" len="47"/>
          <note pan="0" key="77" vol="100" pos="5904" len="23"/>
          <note pan="0" key="80" vol="100" pos="5928" len="23"/>
          <note pan="0" key="80" vol="100" pos="5952" len="23"/>
          <note pan="0" key="82" vol="100" pos="5976" len="23"/>
          <note pan="0" key="77" vol="100" pos="6000" len="23"/>
          <note pan="0" key="75" vol="100" pos="6024" len="23"/>
          <note pan="0" key="77" vol="100" pos="6048" len="47"/>
          <note pan="0" key="75" vol="100" pos="6096" len="23"/>
          <note pan="0" key="77" vol="100" pos="6120" len="23"/>
          <note pan="0" key="80" vol="100" pos="6144" len="23"/>
          <note pan="0" key="82" vol="100" pos="6168" len="23"/>
          <note pan="0" key="77" vol="100" pos="6192" len="23"/>
          <note pan="0" key="75" vol="100" pos="6216" len="23"/>
          <note pan="0" key="77" vol="100" pos="6240" len="47"/>
          <note pan="0" key="70" vol="100" pos="6288" len="23"/>
          <note pan="0" key="77" vol="100" pos="6312" len="23"/>
          <note pan="0" key="75" vol="100" pos="6336" len="23"/>
          <note pan="0" key="73" vol="100" pos="6360" len="23"/>
          <note pan="0" key="72" vol="100" pos="6384" len="23"/>
          <note pan="0" key="68" vol="100" pos="6408" len="23"/>
          <note pan="0" key="70" vol="100" pos="6432" len="41"/>
          <note pan="0" key="70" vol="100" pos="6480" len="23"/>
          <note pan="0" key="73" vol="100" pos="6504" len="23"/>
          <note pan="0" key="72" vol="100" pos="6528" len="23"/>
          <note pan="0" key="73" vol="100" pos="6552" len="23"/>
          <note pan="0" key="75" vol="100" pos="6576" len="23"/>
          <note pan="0" key="77" vol="100" pos="6600" len="23"/>
          <note pan="0" key="70" vol="100" pos="6624" len="47"/>
          <note pan="0" key="77" vol="100" pos="6672" len="23"/>
          <note pan="0" key="80" vol="100" pos="6696" len="23"/>
          <note pan="0" key="80" vol="100" pos="6720" len="23"/>
          <note pan="0" key="82" vol="100" pos="6744" len="23"/>
          <note pan="0" key="77" vol="100" pos="6768" len="23"/>
          <note pan="0" key="75" vol="100" pos="6792" len="23"/>
          <note pan="0" key="77" vol="100" pos="6816" len="47"/>
          <note pan="0" key="75" vol="100" pos="6864" len="23"/>
          <note pan="0" key="77" vol="100" pos="6888" len="23"/>
          <note pan="0" key="80" vol="100" pos="6912" len="23"/>
          <note pan="0" key="82" vol="100" pos="6936" len="23"/>
          <note pan="0" key="77" vol="100" pos="6960" len="23"/>
          <note pan="0" key="75" vol="100" pos="6984" len="23"/>
          <note pan="0" key="77" vol="100" pos="7008" len="47"/>
          <note pan="0" key="70" vol="100" pos="7056" len="23"/>
          <note pan="0" key="77" vol="100" pos="7080" len="23"/>
          <note pan="0" key="75" vol="100" pos="7104" len="23"/>
          <note pan="0" key="73" vol="100" pos="7128" len="23"/>
          <note pan="0" key="72" vol="100" pos="7152" len="23"/>
          <note pan="0" key="68" vol="100" pos="7176" len="23"/>
          <note pan="0" key="70" vol="100" pos="7200" len="41"/>
          <note pan="0" key="70" vol="100" pos="7248" len="23"/>
          <note pan="0" key="73" vol="100" pos="7272" len="23"/>
          <note pan="0" key="72" vol="100" pos="7296" len="23"/>
          <note pan="0" key="73" vol="100" pos="7320" len="23"/>
          <note pan="0" key="75" vol="100" pos="7344" len="23"/>
          <note pan="0" key="77" vol="100" pos="7368" len="23"/>
          <note pan="0" key="70" vol="100" pos="7392" len="47"/>
          <note pan="0" key="77" vol="100" pos="7440" len="23"/>
          <note pan="0" key="80" vol="100" pos="7464" len="23"/>
          <note pan="0" key="80" vol="100" pos="7488" len="23"/>
          <note pan="0" key="82" vol="100" pos="7512" len="23"/>
          <note pan="0" key="77" vol="100" pos="7536" len="23"/>
          <note pan="0" key="75" vol="100" pos="7560" len="23"/>
          <note pan="0" key="77" vol="100" pos="7584" len="47"/>
          <note pan="0" key="75" vol="100" pos="7632" len="23"/>
          <note pan="0" key="77" vol="100" pos="7656" len="23"/>
          <note pan="0" key="80" vol="100" pos="7680" len="23"/>
          <note pan="0" key="82" vol="100" pos="7704" len="23"/>
          <note pan="0" key="77" vol="100" pos="7728" len="23"/>
          <note pan="0" key="75" vol="100" pos="7752" len="23"/>
          <note pan="0" key="77" vol="100" pos="7776" len="47"/>
          <note pan="0" key="82" vol="100" pos="7824" len="23"/>
          <note pan="0" key="84" vol="100" pos="7848" len="23"/>
          <note pan="0" key="85" vol="100" pos="7872" len="23"/>
          <note pan="0" key="84" vol="100" pos="7896" len="23"/>
          <note pan="0" key="82" vol="100" pos="7920" len="23"/>
          <note pan="0" key="80" vol="100" pos="7944" len="23"/>
          <note pan="0" key="77" vol="100" pos="7968" len="47"/>
          <note pan="0" key="75" vol="100" pos="8016" len="23"/>
          <note pan="0" key="77" vol="100" pos="8040" len="23"/>
          <note pan="0" key="75" vol="100" pos="8064" len="23"/>
          <note pan="0" key="73" vol="100" pos="8088" len="23"/>
          <note pan="0" key="72" vol="100" pos="8112" len="23"/>
          <note pan="0" key="68" vol="100" pos="8136" len="23"/>
          <note pan="0" key="70" vol="100" pos="8160" len="47"/>
          <note pan="0" key="77" vol="100" pos="8208" len="5"/>
          <note pan="0" key="65" vol="100" pos="8214" len="17"/>
          <note pan="0" key="80" vol="100" pos="8232" len="5"/>
          <note pan="0" key="68" vol="100" pos="8238" len="17"/>
          <note pan="0" key="80" vol="100" pos="8256" len="5"/>
          <note pan="0" key="68" vol="100" pos="8262" len="17"/>
          <note pan="0" key="82" vol="100" pos="8280" len="5"/>
          <note pan="0" key="70" vol="100" pos="8286" len="17"/>
          <note pan="0" key="77" vol="100" pos="8304" len="5"/>
          <note pan="0" key="65" vol="100" pos="8310" len="17"/>
          <note pan="0" key="75" vol="100" pos="8328" len="5"/>
          <note pan="0" key="63" vol="100" pos="8334" len="17"/>
          <note pan="0" key="77" vol="100" pos="8352" len="5"/>
          <note pan="0" key="65" vol="100" pos="8358" len="41"/>
          <note pan="0" key="75" vol="100" pos="8400" len="5"/>
          <note pan="0" key="63" vol="100" pos="8406" len="17"/>
          <note pan="0" key="77" vol="100" pos="8424" len="5"/>
          <note pan="0" key="65" vol="100" pos="8430" len="17"/>
          <note pan="0" key="80" vol="100" pos="8448" len="5"/>
          <note pan="0" key="68" vol="100" pos="8454" len="17"/>
          <note pan="0" key="82" vol="100" pos="8472" len="5"/>
          <note pan="0" key="70" vol="100" pos="8478" len="17"/>
          <note pan="0" key="77" vol="100" pos="8496" len="5"/>
          <note pan="0" key="65" vol="100" pos="8502" len="17"/>
          <note pan="0" key="75" vol="100" pos="8520" len="5"/>
          <note pan="0" key="63" vol="100" pos="8526" len="17"/>
          <note pan="0" key="77" vol="100" pos="8544" len="5"/>
          <note pan="0" key="65" vol="100" pos="8550" len="41"/>
          <note pan="0" key="70" vol="100" pos="8592" len="5"/>
          <note pan="0" key="58" vol="100" pos="8598" len="17"/>
          <note pan="0" key="77" vol="100" pos="8616" len="5"/>
          <note pan="0" key="65" vol="100" pos="8622" len="17"/>
          <note pan="0" key="75" vol="100" pos="8640" len="5"/>
          <note pan="0" key="63" vol="100" pos="8646" len="17"/>
          <note pan="0" key="73" vol="100" pos="8664" len="5"/>
          <note pan="0" key="61" vol="100" pos="8670" len="17"/>
          <note pan="0" key="72" vol="100" pos="8688" len="5"/>
          <note pan="0" key="60" vol="100" pos="8694" len="17"/>
          <note pan="0" key="68" vol="100" pos="8712" len="5"/>
          <note pan="0" key="56" vol="100" pos="8718" len="17"/>
          <note pan="0" key="70" vol="100" pos="8736" len="5"/>
          <note pan="0" key="58" vol="100" pos="8742" len="41"/>
          <note pan="0" key="70" vol="100" pos="8784" len="5"/>
          <note pan="0" key="58" vol="100" pos="8790" len="17"/>
          <note pan="0" key="73" vol="100" pos="8808" len="5"/>
          <note pan="0" key="61" vol="100" pos="8814" len="17"/>
          <note pan="0" key="72" vol="100" pos="8832" len="5"/>
          <note pan="0" key="60" vol="100" pos="8838" len="17"/>
          <note pan="0" key="73" vol="100" pos="8856" len="5"/>
          <note pan="0" key="61" vol="100" pos="8862" len="17"/>
          <note pan="0" key="75" vol="100" pos="8880" len="5"/>
          <note pan="0" key="63" vol="100" pos="8886" len="17"/>
          <note pan="0" key="77" vol="100" pos="8904" len="5"/>
          <note pan="0" key="65" vol="100" pos="8910" len="17"/>
          <note pan="0" key="70" vol="100" pos="8928" len="5"/>
          <note pan="0" key="58" vol="100" pos="8934" len="41"/>
          <note pan="0" key="77" vol="100" pos="8976" len="5"/>
          <note pan="0" key="65" vol="100" pos="8982" len="17"/>
          <note pan="0" key="80" vol="100" pos="9000" len="5"/>
          <note pan="0" key="68" vol="100" pos="9006" len="17"/>
          <note pan="0" key="80" vol="100" pos="9024" len="5"/>
          <note pan="0" key="68" vol="100" pos="9030" len="17"/>
          <note pan="0" key="82" vol="100" pos="9048" len="5"/>
          <note pan="0" key="70" vol="100" pos="9054" len="17"/>
          <note pan="0" key="77" vol="100" pos="9072" len="5"/>
          <note pan="0" key="65" vol="100" pos="9078" len="17"/>
          <note pan="0" key="75" vol="100" pos="9096" len="5"/>
          <note pan="0" key="63" vol="100" pos="9102" len="17"/>
          <note pan="0" key="77" vol="100" pos="9120" len="5"/>
          <note pan="0" key="65" vol="100" pos="9126" len="41"/>
          <note pan="0" key="75" vol="100" pos="9168" len="5"/>
          <note pan="0" key="63" vol="100" pos="9174" len="17"/>
          <note pan="0" key="77" vol="100" pos="9192" len="5"/>
          <note pan="0" key="65" vol="100" pos="9198" len="17"/>
          <note pan="0" key="80" vol="100" pos="9216" len="5"/>
          <note pan="0" key="68" vol="100" pos="9222" len="17"/>
          <note pan="0" key="82" vol="100" pos="9240" len="5"/>
          <note pan="0" key="70" vol="100" pos="9246" len="17"/>
          <note pan="0" key="77" vol="100" pos="9264" len="5"/>
          <note pan="0" key="65" vol="100" pos="9270" len="17"/>
          <note pan="0" key="75" vol="100" pos="9288" len="5"/>
          <note pan="0" key="63" vol="100" pos="9294" len="17"/>
          <note pan="0" key="77" vol="100" pos="9312" len="5"/>
          <note pan="0" key="65" vol="100" pos="9318" len="41"/>
          <note pan="0" key="70" vol="100" pos="9360" len="5"/>
          <note pan="0" key="58" vol="100" pos="9366" len="17"/>
          <note pan="0" key="77" vol="100" pos="9384" len="5"/>
          <note pan="0" key="65" vol="100" pos="9390" len="17"/>
          <note pan="0" key="75" vol="100" pos="9408" len="5"/>
          <note pan="0" key="63" vol="100" pos="9414" len="17"/>
          <note pan="0" key="73" vol="100" pos="9432" len="5"/>
          <note pan="0" key="61" vol="100" pos="9438" len="17"/>
          <note pan="0" key="72" vol="100" pos="9456" len="5"/>
          <note pan="0" key="60" vol="100" pos="9462" len="17"/>
          <note pan="0" key="68" vol="100" pos="9480" len="5"/>
          <note pan="0" key="56" vol="100" pos="9486" len="17"/>
          <note pan="0" key="70" vol="100" pos="9504" len="5"/>
          <note pan="0" key="58" vol="100" pos="9510" len="41"/>
          <note pan="0" key="70" vol="100" pos="9552" len="5"/>
          <note pan="0" key="58" vol="100" pos="9558" len="17"/>
          <note pan="0" key="73" vol="100" pos="9576" len="5"/>
          <note pan="0" key="61" vol="100" pos="9582" len="17"/>
          <note pan="0" key="72" vol="100" pos="9600" len="5"/>
          <note pan="0" key="60" vol="100" pos="9606" len="17"/>
          <note pan="0" key="73" vol="100" pos="9624" len="5"/>
          <note pan="0" key="61" vol="100" pos="9630" len="17"/>
          <note pan="0" key="75" vol="100" pos="9648" len="5"/>
          <note pan="0" key="63" vol="100" pos="9654" len="17"/>
          <note pan="0" key="77" vol="100" pos="9672" len="5"/>
          <note pan="0" key="65" vol="100" pos="9678" len="17"/>
          <note pan="0" key="70" vol="100" pos="9696" len="5"/>
          <note pan="0" key="58" vol="100" pos="9702" len="41"/>
          <note pan="0" key="77" vol="100" pos="9744" len="5"/>
          <note pan="0" key="65" vol="100" pos="9750" len="17"/>
          <note pan="0" key="80" vol="100" pos="9768" len="5"/>
          <note pan="0" key="68" vol="100" pos="9774" len="17"/>
          <note pan="0" key="80" vol="100" pos="9792" len="5"/>
          <note pan="0" key="68" vol="100" pos="9798" len="17"/>
          <note pan="0" key="82" vol="100" pos="9816" len="5"/>
          <note pan="0" key="70" vol="100" pos="9822" len="17"/>
          <note pan="0" key="77" vol="100" pos="9840" len="5"/>
          <note pan="0" key="65" vol="100" pos="9846" len="17"/>
          <note pan="0" key="75" vol="100" pos="9864" len="5"/>
          <note pan="0" key="63" vol="100" pos="9870" len="17"/>
          <note pan="0" key="77" vol="100" pos="9888" len="5"/>
          <note pan="0" key="65" vol="100" pos="9894" len="41"/>
          <note pan="0" key="75" vol="100" pos="9936" len="5"/>
          <note pan="0" key="63" vol="100" pos="9942" len="17"/>
          <note pan="0" key="77" vol="100" pos="9960" len="5"/>
          <note pan="0" key="65" vol="100" pos="9966" len="17"/>
          <note pan="0" key="80" vol="100" pos="9984" len="5"/>
          <note pan="0" key="68" vol="100" pos="9990" len="17"/>
          <note pan="0" key="82" vol="100" pos="10008" len="5"/>
          <note pan="0" key="70" vol="100" pos="10014" len="17"/>
          <note pan="0" key="77" vol="100" pos="10032" len="5"/>
          <note pan="0" key="65" vol="100" pos="10038" len="17"/>
          <note pan="0" key="75" vol="100" pos="10056" len="5"/>
          <note pan="0" key="63" vol="100" pos="10062" len="17"/>
          <note pan="0" key="77" vol="100" pos="10080" len="5"/>
          <note pan="0" key="65" vol="100" pos="10086" len="41"/>
          <note pan="0" key="70" vol="100" pos="10128" len="5"/>
          <note pan="0" key="58" vol="100" pos="10134" len="17"/>
          <note pan="0" key="77" vol="100" pos="10152" len="5"/>
          <note pan="0" key="65" vol="100" pos="10158" len="17"/>
          <note pan="0" key="75" vol="100" pos="10176" len="5"/>
          <note pan="0" key="63" vol="100" pos="10182" len="17"/>
          <note pan="0" key="73" vol="100" pos="10200" len="5"/>
          <note pan="0" key="61" vol="100" pos="10206" len="17"/>
          <note pan="0" key="72" vol="100" pos="10224" len="5"/>
          <note pan="0" key="60" vol="100" pos="10230" len="17"/>
          <note pan="0" key="68" vol="100" pos="10248" len="5"/>
          <note pan="0" key="56" vol="100" pos="10254" len="17"/>
          <note pan="0" key="70" vol="100" pos="10272" len="5"/>
          <note pan="0" key="58" vol="100" pos="10278" len="41"/>
          <note pan="0" key="70" vol="100" pos="10320" len="5"/>
          <note pan="0" key="58" vol="100" pos="10326" len="17"/>
          <note pan="0" key="73" vol="100" pos="10344" len="5"/>
          <note pan="0" key="61" vol="100" pos="10350" len="17"/>
          <note pan="0" key="72" vol="100" pos="10368" len="5"/>
          <note pan="0" key="60" vol="100" pos="10374" len="17"/>
          <note pan="0" key="73" vol="100" pos="10392" len="5"/>
          <note pan="0" key="61" vol="100" pos="10398" len="17"/>
          <note pan="0" key="75" vol="100" pos="10416" len="5"/>
          <note pan="0" key="63" vol="100" pos="10422" len="17"/>
          <note pan="0" key="77" vol="100" pos="10440" len="5"/>
          <note pan="0" key="65" vol="100" pos="10446" len="17"/>
          <note pan="0" key="70" vol="100" pos="10464" len="5"/>
          <note pan="0" key="58" vol="100" pos="10470" len="41"/>
          <note pan="0" key="77" vol="100" pos="10512" len="5"/>
          <note pan="0" key="65" vol="100" pos="10518" len="17"/>
          <note pan="0" key="80" vol="100" pos="10536" len="5"/>
          <note pan="0" key="68" vol="100" pos="10542" len="17"/>
          <note pan="0" key="80" vol="100" pos="10560" len="5"/>
          <note pan="0" key="68" vol="100" pos="10566" len="17"/>
          <note pan="0" key="82" vol="100" pos="10584" len="5"/>
          <note pan="0" key="70" vol="100" pos="10590" len="17"/>
          <note pan="0" key="77" vol="100" pos="10608" len="5"/>
          <note pan="0" key="65" vol="100" pos="10614" len="17"/>
          <note pan="0" key="75" vol="100" pos="10632" len="5"/>
          <note pan="0" key="63" vol="100" pos="10638" len="17"/>
          <note pan="0" key="77" vol="100" pos="10656" len="5"/>
          <note pan="0" key="65" vol="100" pos="10662" len="41"/>
          <note pan="0" key="75" vol="100" pos="10704" len="5"/>
          <note pan="0" key="63" vol="100" pos="10710" len="17"/>
          <note pan="0" key="77" vol="100" pos="10728" len="5"/>
          <note pan="0" key="65" vol="100" pos="10734" len="17"/>
          <note pan="0" key="80" vol="100" pos="10752" len="5"/>
          <note pan="0" key="68" vol="100" pos="10758" len="17"/>
          <note pan="0" key="82" vol="100" pos="10776" len="5"/>
          <note pan="0" key="70" vol="100" pos="10782" len="17"/>
          <note pan="0" key="77" vol="100" pos="10800" len="5"/>
          <note pan="0" key="65" vol="100" pos="10806" len="17"/>
          <note pan="0" key="75" vol="100" pos="10824" len="5"/>
          <note pan="0" key="63" vol="100" pos="10830" len="17"/>
          <note pan="0" key="77" vol="100" pos="10848" len="5"/>
          <note pan="0" key="65" vol="100" pos="10854" len="41"/>
          <note pan="0" key="82" vol="100" pos="10896" len="5"/>
          <note pan="0" key="70" vol="100" pos="10902" len="17"/>
          <note pan="0" key="84" vol="100" pos="10920" len="5"/>
          <note pan="0" key="72" vol="100" pos="10926" len="17"/>
          <note pan="0" key="85" vol="100" pos="10944" len="5"/>
          <note pan="0" key="73" vol="100" pos="10950" len="17"/>
          <note pan="0" key="84" vol="100" pos="10968" len="5"/>
          <note pan="0" key="72" vol="100" pos="10974" len="17"/>
          <note pan="0" key="82" vol="100" pos="10992" len="5"/>
          <note pan="0" key="70" vol="100" pos="10998" len="17"/>
          <note pan="0" key="80" vol="100" pos="11016" len="5"/>
          <note pan="0" key="68" vol="100" pos="11022" len="17"/>
          <note pan="0" key="77" vol="100" pos="11040" len="5"/>
          <note pan="0" key="65" vol="100" pos="11046" len="41"/>
          <note pan="0" key="75" vol="100" pos="11088" len="5"/>
          <note pan="0" key="63" vol="100" pos="11094" len="17"/>
          <note pan="0" key="77" vol="100" pos="11112" len="5"/>
          <note pan="0" key="65" vol="100" pos="11118" len="17"/>
          <note pan="0" key="75" vol="100" pos="11136" len="5"/>
          <note pan="0" key="63" vol="100" pos="11142" len="17"/>
          <note pan="0" key="73" vol="100" pos="11160" len="5"/>
          <note pan="0" key="61" vol="100" pos="11166" len="17"/>
          <note pan="0" key="72" vol="100" pos="11184" len="5"/>
          <note pan="0" key="60" vol="100" pos="11190" len="17"/>
          <note pan="0" key="68" vol="100" pos="11208" len="5"/>
          <note pan="0" key="56" vol="100" pos="11214" len="17"/>
          <note pan="0" key="39" vol="100" pos="11232" len="47"/>
          <note pan="0" key="37" vol="100" pos="11280" len="17"/>
          <note pan="0" key="37" vol="100" pos="11304" len="5"/>
          <note pan="0" key="37" vol="100" pos="11316" len="5"/>
          <note pan="0" key="58" vol="100" pos="11328" len="11"/>
          <note pan="0" key="46" vol="100" pos="11340" len="5"/>
          <note pan="0" key="34" vol="100" pos="11346" len="5"/>
          <note pan="0" key="58" vol="100" pos="11352" len="5"/>
          <note pan="0" key="34" vol="100" pos="11358" len="5"/>
          <note pan="0" key="70" vol="100" pos="11364" len="11"/>
          <note pan="0" key="46" vol="100" pos="11376" len="5"/>
          <note pan="0" key="34" vol="100" pos="11382" len="5"/>
          <note pan="0" key="70" vol="100" pos="11388" len="5"/>
          <note pan="0" key="34" vol="100" pos="11394" len="5"/>
          <note pan="0" key="68" vol="100" pos="11400" len="5"/>
          <note pan="0" key="32" vol="100" pos="11406" len="5"/>
          <note pan="0" key="70" vol="100" pos="11412" len="5"/>
          <note pan="0" key="34" vol="100" pos="11418" len="5"/>
          <note pan="0" key="58" vol="100" pos="11424" len="11"/>
          <note pan="0" key="46" vol="100" pos="11436" len="5"/>
          <note pan="0" key="34" vol="100" pos="11442" len="5"/>
          <note pan="0" key="58" vol="100" pos="11448" len="5"/>
          <note pan="0" key="34" vol="100" pos="11454" len="5"/>
          <note pan="0" key="70" vol="100" pos="11460" len="11"/>
          <note pan="0" key="46" vol="100" pos="11472" len="5"/>
          <note pan="0" key="34" vol="100" pos="11478" len="5"/>
          <note pan="0" key="70" vol="100" pos="11484" len="5"/>
          <note pan="0" key="34" vol="100" pos="11490" len="5"/>
          <note pan="0" key="68" vol="100" pos="11496" len="5"/>
          <note pan="0" key="32" vol="100" pos="11502" len="5"/>
          <note pan="0" key="70" vol="100" pos="11508" len="5"/>
          <note pan="0" key="34" vol="100" pos="11514" len="5"/>
          <note pan="0" key="58" vol="100" pos="11520" len="11"/>
          <note pan="0" key="46" vol="100" pos="11532" len="5"/>
          <note pan="0" key="34" vol="100" pos="11538" len="5"/>
          <note pan="0" key="58" vol="100" pos="11544" len="5"/>
          <note pan="0" key="34" vol="100" pos="11550" len="5"/>
          <note pan="0" key="70" vol="100" pos="11556" len="11"/>
          <note pan="0" key="46" vol="100" pos="11568" len="5"/>
          <note pan="0" key="34" vol="100" pos="11574" len="5"/>
          <note pan="0" key="70" vol="100" pos="11580" len="5"/>
          <note pan="0" key="34" vol="100" pos="11586" len="5"/>
          <note pan="0" key="68" vol="100" pos="11592" len="5"/>
          <note pan="0" key="32" vol="100" pos="11598" len="5"/>
          <note pan="0" key="70" vol="100" pos="11604" len="5"/>
          <note pan="0" key="34" vol="100" pos="11610" len="5"/>
          <note pan="0" key="61" vol="100" pos="11616" len="11"/>
          <note pan="0" key="42" vol="100" pos="11628" len="5"/>
          <note pan="0" key="54" vol="100" pos="11634" len="5"/>
          <note pan="0" key="70" vol="100" pos="11640" len="5"/>
          <note pan="0" key="54" vol="100" pos="11646" len="5"/>
          <note pan="0" key="73" vol="100" pos="11652" len="5"/>
          <note pan="0" key="54" vol="100" pos="11658" len="5"/>
          <note pan="0" key="63" vol="100" pos="11664" len="11"/>
          <note pan="0" key="44" vol="100" pos="11676" len="5"/>
          <note pan="0" key="56" vol="100" pos="11682" len="5"/>
          <note pan="0" key="73" vol="100" pos="11688" len="5"/>
          <note pan="0" key="56" vol="100" pos="11694" len="5"/>
          <note pan="0" key="75" vol="100" pos="11700" len="5"/>
          <note pan="0" key="56" vol="100" pos="11706" len="5"/>
          <note pan="0" key="58" vol="100" pos="11712" len="11"/>
          <note pan="0" key="46" vol="100" pos="11724" len="5"/>
          <note pan="0" key="34" vol="100" pos="11730" len="5"/>
          <note pan="0" key="58" vol="100" pos="11736" len="5"/>
          <note pan="0" key="34" vol="100" pos="11742" len="5"/>
          <note pan="0" key="70" vol="100" pos="11748" len="11"/>
          <note pan="0" key="46" vol="100" pos="11760" len="5"/>
          <note pan="0" key="34" vol="100" pos="11766" len="5"/>
          <note pan="0" key="70" vol="100" pos="11772" len="5"/>
          <note pan="0" key="34" vol="100" pos="11778" len="5"/>
          <note pan="0" key="68" vol="100" pos="11784" len="5"/>
          <note pan="0" key="32" vol="100" pos="11790" len="5"/>
          <note pan="0" key="70" vol="100" pos="11796" len="5"/>
          <note pan="0" key="34" vol="100" pos="11802" len="5"/>
          <note pan="0" key="58" vol="100" pos="11808" len="11"/>
          <note pan="0" key="46" vol="100" pos="11820" len="5"/>
          <note pan="0" key="34" vol="100" pos="11826" len="5"/>
          <note pan="0" key="58" vol="100" pos="11832" len="5"/>
          <note pan="0" key="34" vol="100" pos="11838" len="5"/>
          <note pan="0" key="70" vol="100" pos="11844" len="11"/>
          <note pan="0" key="46" vol="100" pos="11856" len="5"/>
          <note pan="0" key="34" vol="100" pos="11862" len="5"/>
          <note pan="0" key="70" vol="100" pos="11868" len="5"/>
          <note pan="0" key="34" vol="100" pos="11874" len="5"/>
          <note pan="0" key="68" vol="100" pos="11880" len="5"/>
          <note pan="0" key="32" vol="100" pos="11886" len="5"/>
          <note pan="0" key="70" vol="100" pos="11892" len="5"/>
          <note pan="0" key="34" vol="100" pos="11898" len="5"/>
          <note pan="0" key="58" vol="100" pos="11904" len="11"/>
          <note pan="0" key="46" vol="100" pos="11916" len="5"/>
          <note pan="0" key="34" vol="100" pos="11922" len="5"/>
          <note pan="0" key="58" vol="100" pos="11928" len="5"/>
          <note pan="0" key="34" vol="100" pos="11934" len="5"/>
          <note pan="0" key="70" vol="100" pos="11940" len="11"/>
          <note pan="0" key="46" vol="100" pos="11952" len="5"/>
          <note pan="0" key="34" vol="100" pos="11958" len="5"/>
          <note pan="0" key="70" vol="100" pos="11964" len="5"/>
          <note pan="0" key="34" vol="100" pos="11970" len="5"/>
          <note pan="0" key="68" vol="100" pos="11976" len="5"/>
          <note pan="0" key="32" vol="100" pos="11982" len="5"/>
          <note pan="0" key="70" vol="100" pos="11988" len="5"/>
          <note pan="0" key="34" vol="100" pos="11994" len="5"/>
          <note pan="0" key="63" vol="100" pos="12000" len="11"/>
          <note pan="0" key="42" vol="100" pos="12012" len="5"/>
          <note pan="0" key="54" vol="100" pos="12018" len="5"/>
          <note pan="0" key="73" vol="100" pos="12024" len="5"/>
          <note pan="0" key="54" vol="100" pos="12030" len="5"/>
          <note pan="0" key="75" vol="100" pos="12036" len="5"/>
          <note pan="0" key="54" vol="100" pos="12042" len="5"/>
          <note pan="0" key="61" vol="100" pos="12048" len="11"/>
          <note pan="0" key="44" vol="100" pos="12060" len="5"/>
          <note pan="0" key="56" vol="100" pos="12066" len="5"/>
          <note pan="0" key="70" vol="100" pos="12072" len="5"/>
          <note pan="0" key="56" vol="100" pos="12078" len="5"/>
          <note pan="0" key="73" vol="100" pos="12084" len="5"/>
          <note pan="0" key="56" vol="100" pos="12090" len="5"/>
          <note pan="0" key="58" vol="100" pos="12096" len="11"/>
          <note pan="0" key="46" vol="100" pos="12108" len="5"/>
          <note pan="0" key="34" vol="100" pos="12114" len="5"/>
          <note pan="0" key="58" vol="100" pos="12120" len="5"/>
          <note pan="0" key="34" vol="100" pos="12126" len="5"/>
          <note pan="0" key="70" vol="100" pos="12132" len="11"/>
          <note pan="0" key="46" vol="100" pos="12144" len="5"/>
          <note pan="0" key="34" vol="100" pos="12150" len="5"/>
          <note pan="0" key="70" vol="100" pos="12156" len="5"/>
          <note pan="0" key="34" vol="100" pos="12162" len="5"/>
          <note pan="0" key="68" vol="100" pos="12168" len="5"/>
          <note pan="0" key="32" vol="100" pos="12174" len="5"/>
          <note pan="0" key="70" vol="100" pos="12180" len="5"/>
          <note pan="0" key="34" vol="100" pos="12186" len="5"/>
          <note pan="0" key="58" vol="100" pos="12192" len="11"/>
          <note pan="0" key="46" vol="100" pos="12204" len="5"/>
          <note pan="0" key="34" vol="100" pos="12210" len="5"/>
          <note pan="0" key="58" vol="100" pos="12216" len="5"/>
          <note pan="0" key="34" vol="100" pos="12222" len="5"/>
          <note pan="0" key="70" vol="100" pos="12228" len="11"/>
          <note pan="0" key="46" vol="100" pos="12240" len="5"/>
          <note pan="0" key="34" vol="100" pos="12246" len="5"/>
          <note pan="0" key="70" vol="100" pos="12252" len="5"/>
          <note pan="0" key="34" vol="100" pos="12258" len="5"/>
          <note pan="0" key="68" vol="100" pos="12264" len="5"/>
          <note pan="0" key="32" vol="100" pos="12270" len="5"/>
          <note pan="0" key="70" vol="100" pos="12276" len="5"/>
          <note pan="0" key="34" vol="100" pos="12282" len="5"/>
          <note pan="0" key="58" vol="100" pos="12288" len="11"/>
          <note pan="0" key="46" vol="100" pos="12300" len="5"/>
          <note pan="0" key="34" vol="100" pos="12306" len="5"/>
          <note pan="0" key="58" vol="100" pos="12312" len="5"/>
          <note pan="0" key="34" vol="100" pos="12318" len="5"/>
          <note pan="0" key="70" vol="100" pos="12324" len="11"/>
          <note pan="0" key="46" vol="100" pos="12336" len="5"/>
          <note pan="0" key="34" vol="100" pos="12342" len="5"/>
          <note pan="0" key="70" vol="100" pos="12348" len="5"/>
          <note pan="0" key="34" vol="100" pos="12354" len="5"/>
          <note pan="0" key="68" vol="100" pos="12360" len="5"/>
          <note pan="0" key="32" vol="100" pos="12366" len="5"/>
          <note pan="0" key="70" vol="100" pos="12372" len="5"/>
          <note pan="0" key="34" vol="100" pos="12378" len="5"/>
          <note pan="0" key="61" vol="100" pos="12384" len="11"/>
          <note pan="0" key="42" vol="100" pos="12396" len="5"/>
          <note pan="0" key="54" vol="100" pos="12402" len="5"/>
          <note pan="0" key="70" vol="100" pos="12408" len="5"/>
          <note pan="0" key="54" vol="100" pos="12414" len="5"/>
          <note pan="0" key="73" vol="100" pos="12420" len="5"/>
          <note pan="0" key="54" vol="100" pos="12426" len="5"/>
          <note pan="0" key="63" vol="100" pos="12432" len="11"/>
          <note pan="0" key="44" vol="100" pos="12444" len="5"/>
          <note pan="0" key="56" vol="100" pos="12450" len="5"/>
          <note pan="0" key="73" vol="100" pos="12456" len="5"/>
          <note pan="0" key="56" vol="100" pos="12462" len="5"/>
          <note pan="0" key="75" vol="100" pos="12468" len="5"/>
          <note pan="0" key="56" vol="100" pos="12474" len="5"/>
          <note pan="0" key="58" vol="100" pos="12480" len="11"/>
          <note pan="0" key="46" vol="100" pos="12492" len="5"/>
          <note pan="0" key="34" vol="100" pos="12498" len="5"/>
          <note pan="0" key="58" vol="100" pos="12504" len="5"/>
          <note pan="0" key="34" vol="100" pos="12510" len="5"/>
          <note pan="0" key="70" vol="100" pos="12516" len="11"/>
          <note pan="0" key="46" vol="100" pos="12528" len="5"/>
          <note pan="0" key="34" vol="100" pos="12534" len="5"/>
          <note pan="0" key="70" vol="100" pos="12540" len="5"/>
          <note pan="0" key="34" vol="100" pos="12546" len="5"/>
          <note pan="0" key="68" vol="100" pos="12552" len="5"/>
          <note pan="0" key="32" vol="100" pos="12558" len="5"/>
          <note pan="0" key="70" vol="100" pos="12564" len="5"/>
          <note pan="0" key="34" vol="100" pos="12570" len="5"/>
          <note pan="0" key="58" vol="100" pos="12576" len="11"/>
          <note pan="0" key="46" vol="100" pos="12588" len="5"/>
          <note pan="0" key="34" vol="100" pos="12594" len="5"/>
          <note pan="0" key="58" vol="100" pos="12600" len="5"/>
          <note pan="0" key="34" vol="100" pos="12606" len="5"/>
          <note pan="0" key="70" vol="100" pos="12612" len="11"/>
          <note pan="0" key="46" vol="100" pos="12624" len="5"/>
          <note pan="0" key="34" vol="100" pos="12630" len="5"/>
          <note pan="0" key="70" vol="100" pos="12636" len="5"/>
          <note pan="0" key="34" vol="100" pos="12642" len="5"/>
          <note pan="0" key="68" vol="100" pos="12648" len="5"/>
          <note pan="0" key="32" vol="100" pos="12654" len="5"/>
          <note pan="0" key="70" vol="100" pos="12660" len="5"/>
          <note pan="0" key="34" vol="100" pos="12666" len="5"/>
          <note pan="0" key="58" vol="100" pos="12672" len="11"/>
          <note pan="0" key="46" vol="100" pos="12684" len="5"/>
          <note pan="0" key="34" vol="100" pos="12690" len="5"/>
          <note pan="0" key="58" vol="100" pos="12696" len="5"/>
          <note pan="0" key="34" vol="100" pos="12702" len="5"/>
          <note pan="0" key="70" vol="100" pos="12708" len="11"/>
          <note pan="0" key="46" vol="100" pos="12720" len="5"/>
          <note pan="0" key="34" vol="100" pos="12726" len="5"/>
          <note pan="0" key="70" vol="100" pos="12732" len="5"/>
          <note pan="0" key="34" vol="100" pos="12738" len="5"/>
          <note pan="0" key="68" vol="100" pos="12744" len="5"/>
          <note pan="0" key="32" vol="100" pos="12750" len="5"/>
          <note pan="0" key="70" vol="100" pos="12756" len="5"/>
          <note pan="0" key="34" vol="100" pos="12762" len="5"/>
          <note pan="0" key="75" vol="100" pos="12768" len="11"/>
          <note pan="0" key="73" vol="100" pos="12786" len="11"/>
          <note pan="0" key="75" vol="100" pos="12798" len="11"/>
          <note pan="0" key="73" vol="100" pos="12816" len="11"/>
          <note pan="0" key="70" vol="100" pos="12834" len="11"/>
          <note pan="0" key="73" vol="100" pos="12852" len="11"/>
          <note pan="0" key="70" vol="100" pos="12864" len="5"/>
          <note pan="0" key="58" vol="100" pos="12870" len="17"/>
          <note pan="0" key="72" vol="100" pos="12888" len="5"/>
          <note pan="0" key="60" vol="100" pos="12894" len="17"/>
          <note pan="0" key="73" vol="100" pos="12912" len="5"/>
          <note pan="0" key="61" vol="100" pos="12918" len="17"/>
          <note pan="0" key="75" vol="100" pos="12936" len="5"/>
          <note pan="0" key="63" vol="100" pos="12942" len="17"/>
          <note pan="0" key="77" vol="100" pos="12960" len="5"/>
          <note pan="0" key="65" vol="100" pos="12966" len="23"/>
          <note pan="0" key="58" vol="100" pos="12990" len="5"/>
          <note pan="0" key="53" vol="100" pos="12996" len="5"/>
          <note pan="0" key="46" vol="100" pos="13002" len="5"/>
          <note pan="0" key="82" vol="100" pos="13008" len="5"/>
          <note pan="0" key="70" vol="100" pos="13014" len="17"/>
          <note pan="0" key="80" vol="100" pos="13032" len="5"/>
          <note pan="0" key="68" vol="100" pos="13038" len="17"/>
          <note pan="0" key="77" vol="100" pos="13056" len="5"/>
          <note pan="0" key="65" vol="100" pos="13062" len="41"/>
          <note pan="0" key="70" vol="100" pos="13104" len="5"/>
          <note pan="0" key="58" vol="100" pos="13110" len="41"/>
          <note pan="0" key="77" vol="100" pos="13152" len="5"/>
          <note pan="0" key="65" vol="100" pos="13158" len="17"/>
          <note pan="0" key="75" vol="100" pos="13176" len="5"/>
          <note pan="0" key="65" vol="100" pos="13182" len="5"/>
          <note pan="0" key="63" vol="100" pos="13188" len="11"/>
          <note pan="0" key="73" vol="100" pos="13200" len="5"/>
          <note pan="0" key="61" vol="100" pos="13206" len="17"/>
          <note pan="0" key="72" vol="100" pos="13224" len="5"/>
          <note pan="0" key="60" vol="100" pos="13230" len="17"/>
          <note pan="0" key="70" vol="100" pos="13248" len="5"/>
          <note pan="0" key="58" vol="100" pos="13254" len="17"/>
          <note pan="0" key="72" vol="100" pos="13272" len="5"/>
          <note pan="0" key="60" vol="100" pos="13278" len="17"/>
          <note pan="0" key="73" vol="100" pos="13296" len="5"/>
          <note pan="0" key="61" vol="100" pos="13302" len="17"/>
          <note pan="0" key="75" vol="100" pos="13320" len="5"/>
          <note pan="0" key="63" vol="100" pos="13326" len="17"/>
          <note pan="0" key="77" vol="100" pos="13344" len="5"/>
          <note pan="0" key="65" vol="100" pos="13350" len="23"/>
          <note pan="0" key="61" vol="100" pos="13374" len="5"/>
          <note pan="0" key="58" vol="100" pos="13380" len="5"/>
          <note pan="0" key="54" vol="100" pos="13386" len="5"/>
          <note pan="0" key="75" vol="100" pos="13392" len="5"/>
          <note pan="0" key="63" vol="100" pos="13398" len="17"/>
          <note pan="0" key="73" vol="100" pos="13416" len="5"/>
          <note pan="0" key="61" vol="100" pos="13422" len="17"/>
          <note pan="0" key="72" vol="100" pos="13440" len="5"/>
          <note pan="0" key="60" vol="100" pos="13446" len="17"/>
          <note pan="0" key="70" vol="100" pos="13464" len="5"/>
          <note pan="0" key="61" vol="100" pos="13470" len="5"/>
          <note pan="0" key="60" vol="100" pos="13476" len="5"/>
          <note pan="0" key="58" vol="100" pos="13482" len="5"/>
          <note pan="0" key="72" vol="100" pos="13488" len="5"/>
          <note pan="0" key="60" vol="100" pos="13494" len="17"/>
          <note pan="0" key="73" vol="100" pos="13512" len="5"/>
          <note pan="0" key="61" vol="100" pos="13518" len="17"/>
          <note pan="0" key="72" vol="100" pos="13536" len="5"/>
          <note pan="0" key="60" vol="100" pos="13542" len="17"/>
          <note pan="0" key="70" vol="100" pos="13560" len="5"/>
          <note pan="0" key="58" vol="100" pos="13566" len="17"/>
          <note pan="0" key="69" vol="100" pos="13584" len="5"/>
          <note pan="0" key="57" vol="100" pos="13590" len="17"/>
          <note pan="0" key="72" vol="100" pos="13608" len="5"/>
          <note pan="0" key="60" vol="100" pos="13614" len="17"/>
          <note pan="0" key="70" vol="100" pos="13632" len="5"/>
          <note pan="0" key="58" vol="100" pos="13638" len="17"/>
          <note pan="0" key="72" vol="100" pos="13656" len="5"/>
          <note pan="0" key="60" vol="100" pos="13662" len="17"/>
          <note pan="0" key="73" vol="100" pos="13680" len="5"/>
          <note pan="0" key="61" vol="100" pos="13686" len="17"/>
          <note pan="0" key="75" vol="100" pos="13704" len="5"/>
          <note pan="0" key="63" vol="100" pos="13710" len="17"/>
          <note pan="0" key="77" vol="100" pos="13728" len="5"/>
          <note pan="0" key="65" vol="100" pos="13734" len="23"/>
          <note pan="0" key="58" vol="100" pos="13758" len="5"/>
          <note pan="0" key="53" vol="100" pos="13764" len="5"/>
          <note pan="0" key="46" vol="100" pos="13770" len="5"/>
          <note pan="0" key="82" vol="100" pos="13776" len="5"/>
          <note pan="0" key="70" vol="100" pos="13782" len="17"/>
          <note pan="0" key="80" vol="100" pos="13800" len="5"/>
          <note pan="0" key="68" vol="100" pos="13806" len="17"/>
          <note pan="0" key="77" vol="100" pos="13824" len="5"/>
          <note pan="0" key="65" vol="100" pos="13830" len="41"/>
          <note pan="0" key="70" vol="100" pos="13872" len="5"/>
          <note pan="0" key="58" vol="100" pos="13878" len="41"/>
          <note pan="0" key="77" vol="100" pos="13920" len="5"/>
          <note pan="0" key="65" vol="100" pos="13926" len="17"/>
          <note pan="0" key="75" vol="100" pos="13944" len="5"/>
          <note pan="0" key="65" vol="100" pos="13950" len="5"/>
          <note pan="0" key="63" vol="100" pos="13956" len="11"/>
          <note pan="0" key="73" vol="100" pos="13968" len="5"/>
          <note pan="0" key="61" vol="100" pos="13974" len="17"/>
          <note pan="0" key="72" vol="100" pos="13992" len="5"/>
          <note pan="0" key="60" vol="100" pos="13998" len="17"/>
          <note pan="0" key="70" vol="100" pos="14016" len="5"/>
          <note pan="0" key="58" vol="100" pos="14022" len="17"/>
          <note pan="0" key="72" vol="100" pos="14040" len="5"/>
          <note pan="0" key="60" vol="100" pos="14046" len="17"/>
          <note pan="0" key="73" vol="100" pos="14064" len="5"/>
          <note pan="0" key="61" vol="100" pos="14070" len="17"/>
          <note pan="0" key="75" vol="100" pos="14088" len="5"/>
          <note pan="0" key="63" vol="100" pos="14094" len="17"/>
          <note pan="0" key="77" vol="100" pos="14112" len="5"/>
          <note pan="0" key="65" vol="100" pos="14118" len="23"/>
          <note pan="0" key="61" vol="100" pos="14142" len="5"/>
          <note pan="0" key="58" vol="100" pos="14148" len="5"/>
          <note pan="0" key="54" vol="100" pos="14154" len="5"/>
          <note pan="0" key="75" vol="100" pos="14160" len="5"/>
          <note pan="0" key="63" vol="100" pos="14166" len="17"/>
          <note pan="0" key="73" vol="100" pos="14184" len="5"/>
          <note pan="0" key="61" vol="100" pos="14190" len="17"/>
          <note pan="0" key="72" vol="100" pos="14208" len="5"/>
          <note pan="0" key="60" vol="100" pos="14214" len="41"/>
          <note pan="0" key="73" vol="100" pos="14256" len="5"/>
          <note pan="0" key="61" vol="100" pos="14262" len="41"/>
          <note pan="0" key="75" vol="100" pos="14304" len="5"/>
          <note pan="0" key="63" vol="100" pos="14310" len="41"/>
          <note pan="0" key="77" vol="100" pos="14352" len="5"/>
          <note pan="0" key="65" vol="100" pos="14358" len="41"/>
          <note pan="0" key="70" vol="100" pos="14400" len="5"/>
          <note pan="0" key="58" vol="100" pos="14406" len="17"/>
          <note pan="0" key="72" vol="100" pos="14424" len="5"/>
          <note pan="0" key="60" vol="100" pos="14430" len="17"/>
          <note pan="0" key="73" vol="100" pos="14448" len="5"/>
          <note pan="0" key="61" vol="100" pos="14454" len="17"/>
          <note pan="0" key="75" vol="100" pos="14472" len="5"/>
          <note pan="0" key="63" vol="100" pos="14478" len="17"/>
          <note pan="0" key="77" vol="100" pos="14496" len="5"/>
          <note pan="0" key="65" vol="100" pos="14502" len="23"/>
          <note pan="0" key="58" vol="100" pos="14526" len="5"/>
          <note pan="0" key="53" vol="100" pos="14532" len="5"/>
          <note pan="0" key="49" vol="100" pos="14538" len="5"/>
          <note pan="0" key="82" vol="100" pos="14544" len="5"/>
          <note pan="0" key="70" vol="100" pos="14550" len="17"/>
          <note pan="0" key="80" vol="100" pos="14568" len="5"/>
          <note pan="0" key="68" vol="100" pos="14574" len="17"/>
          <note pan="0" key="77" vol="100" pos="14592" len="5"/>
          <note pan="0" key="65" vol="100" pos="14598" len="41"/>
          <note pan="0" key="70" vol="100" pos="14640" len="5"/>
          <note pan="0" key="58" vol="100" pos="14646" len="41"/>
          <note pan="0" key="77" vol="100" pos="14688" len="5"/>
          <note pan="0" key="65" vol="100" pos="14694" len="17"/>
          <note pan="0" key="75" vol="100" pos="14712" len="5"/>
          <note pan="0" key="65" vol="100" pos="14718" len="5"/>
          <note pan="0" key="63" vol="100" pos="14724" len="11"/>
          <note pan="0" key="73" vol="100" pos="14736" len="5"/>
          <note pan="0" key="61" vol="100" pos="14742" len="17"/>
          <note pan="0" key="72" vol="100" pos="14760" len="5"/>
          <note pan="0" key="60" vol="100" pos="14766" len="17"/>
          <note pan="0" key="70" vol="100" pos="14784" len="5"/>
          <note pan="0" key="58" vol="100" pos="14790" len="17"/>
          <note pan="0" key="72" vol="100" pos="14808" len="5"/>
          <note pan="0" key="60" vol="100" pos="14814" len="17"/>
          <note pan="0" key="73" vol="100" pos="14832" len="5"/>
          <note pan="0" key="61" vol="100" pos="14838" len="17"/>
          <note pan="0" key="75" vol="100" pos="14856" len="5"/>
          <note pan="0" key="63" vol="100" pos="14862" len="17"/>
          <note pan="0" key="77" vol="100" pos="14880" len="5"/>
          <note pan="0" key="65" vol="100" pos="14886" len="23"/>
          <note pan="0" key="61" vol="100" pos="14910" len="5"/>
          <note pan="0" key="58" vol="100" pos="14916" len="5"/>
          <note pan="0" key="54" vol="100" pos="14922" len="5"/>
          <note pan="0" key="75" vol="100" pos="14928" len="5"/>
          <note pan="0" key="63" vol="100" pos="14934" len="17"/>
          <note pan="0" key="73" vol="100" pos="14952" len="5"/>
          <note pan="0" key="61" vol="100" pos="14958" len="17"/>
          <note pan="0" key="72" vol="100" pos="14976" len="5"/>
          <note pan="0" key="60" vol="100" pos="14982" len="17"/>
          <note pan="0" key="70" vol="100" pos="15000" len="5"/>
          <note pan="0" key="61" vol="100" pos="15006" len="5"/>
          <note pan="0" key="60" vol="100" pos="15012" len="5"/>
          <note pan="0" key="58" vol="100" pos="15018" len="5"/>
          <note pan="0" key="72" vol="100" pos="15024" len="5"/>
          <note pan="0" key="60" vol="100" pos="15030" len="17"/>
          <note pan="0" key="73" vol="100" pos="15048" len="5"/>
          <note pan="0" key="61" vol="100" pos="15054" len="17"/>
          <note pan="0" key="72" vol="100" pos="15072" len="5"/>
          <note pan="0" key="60" vol="100" pos="15078" len="17"/>
          <note pan="0" key="70" vol="100" pos="15096" len="5"/>
          <note pan="0" key="58" vol="100" pos="15102" len="17"/>
          <note pan="0" key="69" vol="100" pos="15120" len="5"/>
          <note pan="0" key="57" vol="100" pos="15126" len="17"/>
          <note pan="0" key="72" vol="100" pos="15144" len="5"/>
          <note pan="0" key="60" vol="100" pos="15150" len="17"/>
          <note pan="0" key="70" vol="100" pos="15168" len="5"/>
          <note pan="0" key="58" vol="100" pos="15174" len="17"/>
          <note pan="0" key="72" vol="100" pos="15192" len="5"/>
          <note pan="0" key="60" vol="100" pos="15198" len="17"/>
          <note pan="0" key="73" vol="100" pos="15216" len="5"/>
          <note pan="0" key="61" vol="100" pos="15222" len="17"/>
          <note pan="0" key="75" vol="100" pos="15240" len="5"/>
          <note pan="0" key="63" vol="100" pos="15246" len="17"/>
          <note pan="0" key="77" vol="100" pos="15264" len="5"/>
          <note pan="0" key="65" vol="100" pos="15270" len="41"/>
          <note pan="0" key="82" vol="100" pos="15312" len="5"/>
          <note pan="0" key="70" vol="100" pos="15318" len="17"/>
          <note pan="0" key="80" vol="100" pos="15336" len="5"/>
          <note pan="0" key="68" vol="100" pos="15342" len="17"/>
          <note pan="0" key="77" vol="100" pos="15360" len="5"/>
          <note pan="0" key="65" vol="100" pos="15366" len="41"/>
          <note pan="0" key="70" vol="100" pos="15408" len="5"/>
          <note pan="0" key="58" vol="100" pos="15414" len="41"/>
          <note pan="0" key="77" vol="100" pos="15456" len="5"/>
          <note pan="0" key="65" vol="100" pos="15462" len="17"/>
          <note pan="0" key="75" vol="100" pos="15480" len="5"/>
          <note pan="0" key="65" vol="100" pos="15486" len="5"/>
          <note pan="0" key="63" vol="100" pos="15492" len="11"/>
          <note pan="0" key="73" vol="100" pos="15504" len="5"/>
          <note pan="0" key="61" vol="100" pos="15510" len="17"/>
          <note pan="0" key="72" vol="100" pos="15528" len="5"/>
          <note pan="0" key="60" vol="100" pos="15534" len="17"/>
          <note pan="0" key="70" vol="100" pos="15552" len="5"/>
          <note pan="0" key="58" vol="100" pos="15558" len="17"/>
          <note pan="0" key="72" vol="100" pos="15576" len="5"/>
          <note pan="0" key="60" vol="100" pos="15582" len="17"/>
          <note pan="0" key="73" vol="100" pos="15600" len="5"/>
          <note pan="0" key="61" vol="100" pos="15606" len="17"/>
          <note pan="0" key="75" vol="100" pos="15624" len="5"/>
          <note pan="0" key="63" vol="100" pos="15630" len="17"/>
          <note pan="0" key="77" vol="100" pos="15648" len="5"/>
          <note pan="0" key="65" vol="100" pos="15654" len="23"/>
          <note pan="0" key="61" vol="100" pos="15678" len="5"/>
          <note pan="0" key="58" vol="100" pos="15684" len="5"/>
          <note pan="0" key="54" vol="100" pos="15690" len="5"/>
          <note pan="0" key="75" vol="100" pos="15696" len="5"/>
          <note pan="0" key="63" vol="100" pos="15702" len="17"/>
          <note pan="0" key="73" vol="100" pos="15720" len="5"/>
          <note pan="0" key="61" vol="100" pos="15726" len="17"/>
          <note pan="0" key="72" vol="100" pos="15744" len="5"/>
          <note pan="0" key="60" vol="100" pos="15750" len="41"/>
          <note pan="0" key="73" vol="100" pos="15792" len="5"/>
          <note pan="0" key="61" vol="100" pos="15798" len="41"/>
          <note pan="0" key="75" vol="100" pos="15840" len="5"/>
          <note pan="0" key="63" vol="100" pos="15846" len="41"/>
          <note pan="0" key="77" vol="100" pos="15888" len="5"/>
          <note pan="0" key="65" vol="100" pos="15894" len="41"/>
          <note pan="0" key="80" vol="100" pos="15936" len="23"/>
          <note pan="0" key="82" vol="100" pos="15960" len="23"/>
          <note pan="0" key="77" vol="100" pos="15984" len="23"/>
          <note pan="0" key="75" vol="100" pos="16008" len="23"/>
          <note pan="0" key="77" vol="100" pos="16032" len="47"/>
          <note pan="0" key="75" vol="100" pos="16080" len="23"/>
          <note pan="0" key="77" vol="100" pos="16104" len="23"/>
          <note pan="0" key="80" vol="100" pos="16128" len="23"/>
          <note pan="0" key="82" vol="100" pos="16152" len="23"/>
          <note pan="0" key="77" vol="100" pos="16176" len="23"/>
          <note pan="0" key="75" vol="100" pos="16200" len="23"/>
          <note pan="0" key="77" vol="100" pos="16224" len="47"/>
          <note pan="0" key="70" vol="100" pos="16272" len="23"/>
          <note pan="0" key="77" vol="100" pos="16296" len="23"/>
          <note pan="0" key="75" vol="100" pos="16320" len="23"/>
          <note pan="0" key="73" vol="100" pos="16344" len="23"/>
          <note pan="0" key="72" vol="100" pos="16368" len="23"/>
          <note pan="0" key="68" vol="100" pos="16392" len="23"/>
          <note pan="0" key="70" vol="100" pos="16416" len="41"/>
          <note pan="0" key="70" vol="100" pos="16464" len="23"/>
          <note pan="0" key="73" vol="100" pos="16488" len="23"/>
          <note pan="0" key="72" vol="100" pos="16512" len="23"/>
          <note pan="0" key="73" vol="100" pos="16536" len="23"/>
          <note pan="0" key="75" vol="100" pos="16560" len="23"/>
          <note pan="0" key="77" vol="100" pos="16584" len="23"/>
          <note pan="0" key="70" vol="100" pos="16608" len="47"/>
          <note pan="0" key="77" vol="100" pos="16656" len="23"/>
          <note pan="0" key="80" vol="100" pos="16680" len="23"/>
          <note pan="0" key="80" vol="100" pos="16704" len="23"/>
          <note pan="0" key="82" vol="100" pos="16728" len="23"/>
          <note pan="0" key="77" vol="100" pos="16752" len="23"/>
          <note pan="0" key="75" vol="100" pos="16776" len="23"/>
          <note pan="0" key="77" vol="100" pos="16800" len="47"/>
          <note pan="0" key="75" vol="100" pos="16848" len="23"/>
          <note pan="0" key="77" vol="100" pos="16872" len="23"/>
          <note pan="0" key="80" vol="100" pos="16896" len="23"/>
          <note pan="0" key="82" vol="100" pos="16920" len="23"/>
          <note pan="0" key="77" vol="100" pos="16944" len="23"/>
          <note pan="0" key="75" vol="100" pos="16968" len="23"/>
          <note pan="0" key="77" vol="100" pos="16992" len="47"/>
          <note pan="0" key="70" vol="100" pos="17040" len="23"/>
          <note pan="0" key="77" vol="100" pos="17064" len="23"/>
          <note pan="0" key="75" vol="100" pos="17088" len="23"/>
          <note pan="0" key="73" vol="100" pos="17112" len="23"/>
          <note pan="0" key="72" vol="100" pos="17136" len="23"/>
          <note pan="0" key="68" vol="100" pos="17160" len="23"/>
          <note pan="0" key="70" vol="100" pos="17184" len="41"/>
          <note pan="0" key="70" vol="100" pos="17232" len="23"/>
          <note pan="0" key="73" vol="100" pos="17256" len="23"/>
          <note pan="0" key="72" vol="100" pos="17280" len="23"/>
          <note pan="0" key="73" vol="100" pos="17304" len="23"/>
          <note pan="0" key="75" vol="100" pos="17328" len="23"/>
          <note pan="0" key="77" vol="100" pos="17352" len="23"/>
          <note pan="0" key="70" vol="100" pos="17376" len="47"/>
          <note pan="0" key="77" vol="100" pos="17424" len="23"/>
          <note pan="0" key="80" vol="100" pos="17448" len="23"/>
          <note pan="0" key="80" vol="100" pos="17472" len="23"/>
          <note pan="0" key="82" vol="100" pos="17496" len="23"/>
          <note pan="0" key="77" vol="100" pos="17520" len="23"/>
          <note pan="0" key="75" vol="100" pos="17544" len="23"/>
          <note pan="0" key="77" vol="100" pos="17568" len="47"/>
          <note pan="0" key="75" vol="100" pos="17616" len="23"/>
          <note pan="0" key="77" vol="100" pos="17640" len="23"/>
          <note pan="0" key="80" vol="100" pos="17664" len="23"/>
          <note pan="0" key="82" vol="100" pos="17688" len="23"/>
          <note pan="0" key="77" vol="100" pos="17712" len="23"/>
          <note pan="0" key="75" vol="100" pos="17736" len="23"/>
          <note pan="0" key="77" vol="100" pos="17760" len="47"/>
          <note pan="0" key="70" vol="100" pos="17808" len="23"/>
          <note pan="0" key="77" vol="100" pos="17832" len="23"/>
          <note pan="0" key="75" vol="100" pos="17856" len="23"/>
          <note pan="0" key="73" vol="100" pos="17880" len="23"/>
          <note pan="0" key="72" vol="100" pos="17904" len="23"/>
          <note pan="0" key="68" vol="100" pos="17928" len="23"/>
          <note pan="0" key="70" vol="100" pos="17952" len="41"/>
          <note pan="0" key="70" vol="100" pos="18000" len="23"/>
          <note pan="0" key="73" vol="100" pos="18024" len="23"/>
          <note pan="0" key="72" vol="100" pos="18048" len="23"/>
          <note pan="0" key="73" vol="100" pos="18072" len="23"/>
          <note pan="0" key="75" vol="100" pos="18096" len="23"/>
          <note pan="0" key="77" vol="100" pos="18120" len="23"/>
          <note pan="0" key="70" vol="100" pos="18144" len="47"/>
          <note pan="0" key="77" vol="100" pos="18192" len="23"/>
          <note pan="0" key="80" vol="100" pos="18216" len="23"/>
          <note pan="0" key="80" vol="100" pos="18240" len="23"/>
          <note pan="0" key="82" vol="100" pos="18264" len="23"/>
          <note pan="0" key="77" vol="100" pos="18288" len="23"/>
          <note pan="0" key="75" vol="100" pos="18312" len="23"/>
          <note pan="0" key="77" vol="100" pos="18336" len="47"/>
          <note pan="0" key="75" vol="100" pos="18384" len="23"/>
          <note pan="0" key="77" vol="100" pos="18408" len="23"/>
          <note pan="0" key="80" vol="100" pos="18432" len="23"/>
          <note pan="0" key="82" vol="100" pos="18456" len="23"/>
          <note pan="0" key="77" vol="100" pos="18480" len="23"/>
          <note pan="0" key="75" vol="100" pos="18504" len="23"/>
          <note pan="0" key="77" vol="100" pos="18528" len="47"/>
          <note pan="0" key="82" vol="100" pos="18576" len="23"/>
          <note pan="0" key="84" vol="100" pos="18600" len="23"/>
          <note pan="0" key="85" vol="100" pos="18624" len="23"/>
          <note pan="0" key="84" vol="100" pos="18648" len="23"/>
          <note pan="0" key="82" vol="100" pos="18672" len="23"/>
          <note pan="0" key="80" vol="100" pos="18696" len="23"/>
          <note pan="0" key="77" vol="100" pos="18720" len="47"/>
          <note pan="0" key="75" vol="100" pos="18768" len="23"/>
          <note pan="0" key="77" vol="100" pos="18792" len="23"/>
          <note pan="0" key="75" vol="100" pos="18816" len="23"/>
          <note pan="0" key="73" vol="100" pos="18840" len="23"/>
          <note pan="0" key="72" vol="100" pos="18864" len="23"/>
          <note pan="0" key="68" vol="100" pos="18888" len="23"/>
          <note pan="0" key="70" vol="100" pos="18912" len="47"/>
          <note pan="0" key="78" vol="100" pos="18960" len="5"/>
          <note pan="0" key="66" vol="100" pos="18966" len="17"/>
          <note pan="0" key="81" vol="100" pos="18984" len="5"/>
          <note pan="0" key="69" vol="100" pos="18990" len="17"/>
          <note pan="0" key="81" vol="100" pos="19008" len="5"/>
          <note pan="0" key="69" vol="100" pos="19014" len="17"/>
          <note pan="0" key="83" vol="100" pos="19032" len="5"/>
          <note pan="0" key="71" vol="100" pos="19038" len="17"/>
          <note pan="0" key="78" vol="100" pos="19056" len="5"/>
          <note pan="0" key="66" vol="100" pos="19062" len="17"/>
          <note pan="0" key="76" vol="100" pos="19080" len="5"/>
          <note pan="0" key="64" vol="100" pos="19086" len="17"/>
          <note pan="0" key="78" vol="100" pos="19104" len="5"/>
          <note pan="0" key="66" vol="100" pos="19110" len="41"/>
          <note pan="0" key="76" vol="100" pos="19152" len="5"/>
          <note pan="0" key="64" vol="100" pos="19158" len="17"/>
          <note pan="0" key="78" vol="100" pos="19176" len="5"/>
          <note pan="0" key="66" vol="100" pos="19182" len="17"/>
          <note pan="0" key="81" vol="100" pos="19200" len="5"/>
          <note pan="0" key="69" vol="100" pos="19206" len="17"/>
          <note pan="0" key="83" vol="100" pos="19224" len="5"/>
          <note pan="0" key="71" vol="100" pos="19230" len="17"/>
          <note pan="0" key="78" vol="100" pos="19248" len="5"/>
          <note pan="0" key="66" vol="100" pos="19254" len="17"/>
          <note pan="0" key="76" vol="100" pos="19272" len="5"/>
          <note pan="0" key="64" vol="100" pos="19278" len="17"/>
          <note pan="0" key="78" vol="100" pos="19296" len="5"/>
          <note pan="0" key="66" vol="100" pos="19302" len="41"/>
          <note pan="0" key="71" vol="100" pos="19344" len="5"/>
          <note pan="0" key="59" vol="100" pos="19350" len="17"/>
          <note pan="0" key="78" vol="100" pos="19368" len="5"/>
          <note pan="0" key="66" vol="100" pos="19374" len="17"/>
          <note pan="0" key="76" vol="100" pos="19392" len="5"/>
          <note pan="0" key="64" vol="100" pos="19398" len="17"/>
          <note pan="0" key="74" vol="100" pos="19416" len="5"/>
          <note pan="0" key="62" vol="100" pos="19422" len="17"/>
          <note pan="0" key="73" vol="100" pos="19440" len="5"/>
          <note pan="0" key="61" vol="100" pos="19446" len="17"/>
          <note pan="0" key="69" vol="100" pos="19464" len="5"/>
          <note pan="0" key="57" vol="100" pos="19470" len="17"/>
          <note pan="0" key="71" vol="100" pos="19488" len="5"/>
          <note pan="0" key="59" vol="100" pos="19494" len="41"/>
          <note pan="0" key="71" vol="100" pos="19536" len="5"/>
          <note pan="0" key="59" vol="100" pos="19542" len="17"/>
          <note pan="0" key="74" vol="100" pos="19560" len="5"/>
          <note pan="0" key="62" vol="100" pos="19566" len="17"/>
          <note pan="0" key="73" vol="100" pos="19584" len="5"/>
          <note pan="0" key="61" vol="100" pos="19590" len="17"/>
          <note pan="0" key="74" vol="100" pos="19608" len="5"/>
          <note pan="0" key="62" vol="100" pos="19614" len="17"/>
          <note pan="0" key="76" vol="100" pos="19632" len="5"/>
          <note pan="0" key="64" vol="100" pos="19638" len="17"/>
          <note pan="0" key="78" vol="100" pos="19656" len="5"/>
          <note pan="0" key="66" vol="100" pos="19662" len="17"/>
          <note pan="0" key="71" vol="100" pos="19680" len="5"/>
          <note pan="0" key="59" vol="100" pos="19686" len="41"/>
          <note pan="0" key="78" vol="100" pos="19728" len="5"/>
          <note pan="0" key="66" vol="100" pos="19734" len="17"/>
          <note pan="0" key="81" vol="100" pos="19752" len="5"/>
          <note pan="0" key="69" vol="100" pos="19758" len="17"/>
          <note pan="0" key="81" vol="100" pos="19776" len="5"/>
          <note pan="0" key="69" vol="100" pos="19782" len="17"/>
          <note pan="0" key="83" vol="100" pos="19800" len="5"/>
          <note pan="0" key="71" vol="100" pos="19806" len="17"/>
          <note pan="0" key="78" vol="100" pos="19824" len="5"/>
          <note pan="0" key="66" vol="100" pos="19830" len="17"/>
          <note pan="0" key="76" vol="100" pos="19848" len="5"/>
          <note pan="0" key="64" vol="100" pos="19854" len="17"/>
          <note pan="0" key="78" vol="100" pos="19872" len="5"/>
          <note pan="0" key="66" vol="100" pos="19878" len="41"/>
          <note pan="0" key="76" vol="100" pos="19920" len="5"/>
          <note pan="0" key="64" vol="100" pos="19926" len="17"/>
          <note pan="0" key="78" vol="100" pos="19944" len="5"/>
          <note pan="0" key="66" vol="100" pos="19950" len="17"/>
          <note pan="0" key="81" vol="100" pos="19968" len="5"/>
          <note pan="0" key="69" vol="100" pos="19974" len="17"/>
          <note pan="0" key="83" vol="100" pos="19992" len="5"/>
          <note pan="0" key="71" vol="100" pos="19998" len="17"/>
          <note pan="0" key="78" vol="100" pos="20016" len="5"/>
          <note pan="0" key="66" vol="100" pos="20022" len="17"/>
          <note pan="0" key="76" vol="100" pos="20040" len="5"/>
          <note pan="0" key="64" vol="100" pos="20046" len="17"/>
          <note pan="0" key="78" vol="100" pos="20064" len="5"/>
          <note pan="0" key="66" vol="100" pos="20070" len="41"/>
          <note pan="0" key="71" vol="100" pos="20112" len="5"/>
          <note pan="0" key="59" vol="100" pos="20118" len="17"/>
          <note pan="0" key="78" vol="100" pos="20136" len="5"/>
          <note pan="0" key="66" vol="100" pos="20142" len="17"/>
          <note pan="0" key="76" vol="100" pos="20160" len="5"/>
          <note pan="0" key="64" vol="100" pos="20166" len="17"/>
          <note pan="0" key="74" vol="100" pos="20184" len="5"/>
          <note pan="0" key="62" vol="100" pos="20190" len="17"/>
          <note pan="0" key="73" vol="100" pos="20208" len="5"/>
          <note pan="0" key="61" vol="100" pos="20214" len="17"/>
          <note pan="0" key="69" vol="100" pos="20232" len="5"/>
          <note pan="0" key="57" vol="100" pos="20238" len="17"/>
          <note pan="0" key="71" vol="100" pos="20256" len="5"/>
          <note pan="0" key="59" vol="100" pos="20262" len="41"/>
          <note pan="0" key="71" vol="100" pos="20304" len="5"/>
          <note pan="0" key="59" vol="100" pos="20310" len="17"/>
          <note pan="0" key="74" vol="100" pos="20328" len="5"/>
          <note pan="0" key="62" vol="100" pos="20334" len="17"/>
          <note pan="0" key="73" vol="100" pos="20352" len="5"/>
          <note pan="0" key="61" vol="100" pos="20358" len="17"/>
          <note pan="0" key="74" vol="100" pos="20376" len="5"/>
          <note pan="0" key="62" vol="100" pos="20382" len="17"/>
          <note pan="0" key="76" vol="100" pos="20400" len="5"/>
          <note pan="0" key="64" vol="100" pos="20406" len="17"/>
          <note pan="0" key="78" vol="100" pos="20424" len="5"/>
          <note pan="0" key="66" vol="100" pos="20430" len="17"/>
          <note pan="0" key="71" vol="100" pos="20448" len="5"/>
          <note pan="0" key="59" vol="100" pos="20454" len="41"/>
          <note pan="0" key="78" vol="100" pos="20496" len="5"/>
          <note pan="0" key="66" vol="100" pos="20502" len="17"/>
          <note pan="0" key="81" vol="100" pos="20520" len="5"/>
          <note pan="0" key="69" vol="100" pos="20526" len="17"/>
          <note pan="0" key="81" vol="100" pos="20544" len="5"/>
          <note pan="0" key="69" vol="100" pos="20550" len="17"/>
          <note pan="0" key="83" vol="100" pos="20568" len="5"/>
          <note pan="0" key="71" vol="100" pos="20574" len="17"/>
          <note pan="0" key="78" vol="100" pos="20592" len="5"/>
          <note pan="0" key="66" vol="100" pos="20598" len="17"/>
          <note pan="0" key="76" vol="100" pos="20616" len="5"/>
          <note pan="0" key="64" vol="100" pos="20622" len="17"/>
          <note pan="0" key="78" vol="100" pos="20640" len="5"/>
          <note pan="0" key="66" vol="100" pos="20646" len="41"/>
          <note pan="0" key="76" vol="100" pos="20688" len="5"/>
          <note pan="0" key="64" vol="100" pos="20694" len="17"/>
          <note pan="0" key="78" vol="100" pos="20712" len="5"/>
          <note pan="0" key="66" vol="100" pos="20718" len="17"/>
          <note pan="0" key="81" vol="100" pos="20736" len="5"/>
          <note pan="0" key="69" vol="100" pos="20742" len="17"/>
          <note pan="0" key="83" vol="100" pos="20760" len="5"/>
          <note pan="0" key="71" vol="100" pos="20766" len="17"/>
          <note pan="0" key="78" vol="100" pos="20784" len="5"/>
          <note pan="0" key="66" vol="100" pos="20790" len="17"/>
          <note pan="0" key="76" vol="100" pos="20808" len="5"/>
          <note pan="0" key="64" vol="100" pos="20814" len="17"/>
          <note pan="0" key="78" vol="100" pos="20832" len="5"/>
          <note pan="0" key="66" vol="100" pos="20838" len="41"/>
          <note pan="0" key="71" vol="100" pos="20880" len="5"/>
          <note pan="0" key="59" vol="100" pos="20886" len="17"/>
          <note pan="0" key="78" vol="100" pos="20904" len="5"/>
          <note pan="0" key="66" vol="100" pos="20910" len="17"/>
          <note pan="0" key="76" vol="100" pos="20928" len="5"/>
          <note pan="0" key="64" vol="100" pos="20934" len="17"/>
          <note pan="0" key="74" vol="100" pos="20952" len="5"/>
          <note pan="0" key="62" vol="100" pos="20958" len="17"/>
          <note pan="0" key="73" vol="100" pos="20976" len="5"/>
          <note pan="0" key="61" vol="100" pos="20982" len="17"/>
          <note pan="0" key="69" vol="100" pos="21000" len="5"/>
          <note pan="0" key="57" vol="100" pos="21006" len="17"/>
          <note pan="0" key="71" vol="100" pos="21024" len="5"/>
          <note pan="0" key="59" vol="100" pos="21030" len="41"/>
          <note pan="0" key="71" vol="100" pos="21072" len="5"/>
          <note pan="0" key="59" vol="100" pos="21078" len="17"/>
          <note pan="0" key="74" vol="100" pos="21096" len="5"/>
          <note pan="0" key="62" vol="100" pos="21102" len="17"/>
          <note pan="0" key="73" vol="100" pos="21120" len="5"/>
          <note pan="0" key="61" vol="100" pos="21126" len="17"/>
          <note pan="0" key="74" vol="100" pos="21144" len="5"/>
          <note pan="0" key="62" vol="100" pos="21150" len="17"/>
          <note pan="0" key="76" vol="100" pos="21168" len="5"/>
          <note pan="0" key="64" vol="100" pos="21174" len="17"/>
          <note pan="0" key="78" vol="100" pos="21192" len="5"/>
          <note pan="0" key="66" vol="100" pos="21198" len="17"/>
          <note pan="0" key="71" vol="100" pos="21216" len="5"/>
          <note pan="0" key="59" vol="100" pos="21222" len="41"/>
          <note pan="0" key="78" vol="100" pos="21264" len="5"/>
          <note pan="0" key="66" vol="100" pos="21270" len="17"/>
          <note pan="0" key="81" vol="100" pos="21288" len="5"/>
          <note pan="0" key="69" vol="100" pos="21294" len="17"/>
          <note pan="0" key="81" vol="100" pos="21312" len="5"/>
          <note pan="0" key="69" vol="100" pos="21318" len="17"/>
          <note pan="0" key="83" vol="100" pos="21336" len="5"/>
          <note pan="0" key="71" vol="100" pos="21342" len="17"/>
          <note pan="0" key="78" vol="100" pos="21360" len="5"/>
          <note pan="0" key="66" vol="100" pos="21366" len="17"/>
          <note pan="0" key="76" vol="100" pos="21384" len="5"/>
          <note pan="0" key="64" vol="100" pos="21390" len="17"/>
          <note pan="0" key="78" vol="100" pos="21408" len="5"/>
          <note pan="0" key="66" vol="100" pos="21414" len="41"/>
          <note pan="0" key="76" vol="100" pos="21456" len="5"/>
          <note pan="0" key="64" vol="100" pos="21462" len="17"/>
          <note pan="0" key="78" vol="100" pos="21480" len="5"/>
          <note pan="0" key="66" vol="100" pos="21486" len="17"/>
          <note pan="0" key="81" vol="100" pos="21504" len="5"/>
          <note pan="0" key="69" vol="100" pos="21510" len="17"/>
          <note pan="0" key="83" vol="100" pos="21528" len="5"/>
          <note pan="0" key="71" vol="100" pos="21534" len="17"/>
          <note pan="0" key="78" vol="100" pos="21552" len="5"/>
          <note pan="0" key="66" vol="100" pos="21558" len="17"/>
          <note pan="0" key="76" vol="100" pos="21576" len="5"/>
          <note pan="0" key="64" vol="100" pos="21582" len="17"/>
          <note pan="0" key="78" vol="100" pos="21600" len="5"/>
          <note pan="0" key="66" vol="100" pos="21606" len="41"/>
          <note pan="0" key="83" vol="100" pos="21648" len="5"/>
          <note pan="0" key="71" vol="100" pos="21654" len="17"/>
          <note pan="0" key="85" vol="100" pos="21672" len="5"/>
          <note pan="0" key="73" vol="100" pos="21678" len="17"/>
          <note pan="0" key="86" vol="100" pos="21696" len="5"/>
          <note pan="0" key="74" vol="100" pos="21702" len="17"/>
          <note pan="0" key="85" vol="100" pos="21720" len="5"/>
          <note pan="0" key="73" vol="100" pos="21726" len="17"/>
          <note pan="0" key="83" vol="100" pos="21744" len="5"/>
          <note pan="0" key="71" vol="100" pos="21750" len="17"/>
          <note pan="0" key="81" vol="100" pos="21768" len="5"/>
          <note pan="0" key="69" vol="100" pos="21774" len="17"/>
          <note pan="0" key="78" vol="100" pos="21792" len="5"/>
          <note pan="0" key="66" vol="100" pos="21798" len="41"/>
          <note pan="0" key="76" vol="100" pos="21840" len="5"/>
          <note pan="0" key="64" vol="100" pos="21846" len="17"/>
          <note pan="0" key="78" vol="100" pos="21864" len="5"/>
          <note pan="0" key="66" vol="100" pos="21870" len="17"/>
          <note pan="0" key="76" vol="100" pos="21888" len="5"/>
          <note pan="0" key="64" vol="100" pos="21894" len="17"/>
          <note pan="0" key="74" vol="100" pos="21912" len="5"/>
          <note pan="0" key="62" vol="100" pos="21918" len="17"/>
          <note pan="0" key="73" vol="100" pos="21936" len="5"/>
          <note pan="0" key="61" vol="100" pos="21942" len="17"/>
          <note pan="0" key="69" vol="100" pos="21960" len="5"/>
          <note pan="0" key="57" vol="100" pos="21966" len="17"/>
          <note pan="0" key="71" vol="100" pos="21984" len="5"/>
          <note pan="0" key="59" vol="100" pos="21990" len="77"/>
          <note pan="0" key="47" vol="100" pos="22122" len="5"/>
          <note pan="0" key="49" vol="100" pos="22128" len="5"/>
          <note pan="0" key="47" vol="100" pos="22158" len="5"/>
          <note pan="0" key="49" vol="100" pos="22164" len="5"/>
          <note pan="0" key="47" vol="100" pos="22182" len="5"/>
          <note pan="0" key="49" vol="100" pos="22188" len="5"/>
          <note pan="0" key="47" vol="100" pos="22218" len="5"/>
          <note pan="0" key="49" vol="100" pos="22224" len="5"/>
          <note pan="0" key="47" vol="100" pos="22254" len="5"/>
          <note pan="0" key="49" vol="100" pos="22260" len="5"/>
          <note pan="0" key="47" vol="100" pos="22278" len="5"/>
          <note pan="0" key="49" vol="100" pos="22284" len="5"/>
          <note pan="0" key="47" vol="100" pos="22314" len="5"/>
          <note pan="0" key="49" vol="100" pos="22320" len="5"/>
          <note pan="0" key="47" vol="100" pos="22350" len="5"/>
          <note pan="0" key="49" vol="100" pos="22356" len="5"/>
          <note pan="0" key="47" vol="100" pos="22374" len="5"/>
          <note pan="0" key="49" vol="100" pos="22380" len="5"/>
          <note pan="0" key="47" vol="100" pos="22410" len="5"/>
          <note pan="0" key="49" vol="100" pos="22416" len="5"/>
          <note pan="0" key="47" vol="100" pos="22446" len="5"/>
          <note pan="0" key="49" vol="100" pos="22452" len="5"/>
          <note pan="0" key="47" vol="100" pos="22470" len="5"/>
          <note pan="0" key="49" vol="100" pos="22476" len="5"/>
          <note pan="0" key="47" vol="100" pos="22506" len="5"/>
          <note pan="0" key="49" vol="100" pos="22512" len="5"/>
          <note pan="0" key="47" vol="100" pos="22542" len="5"/>
          <note pan="0" key="49" vol="100" pos="22548" len="5"/>
          <note pan="0" key="47" vol="100" pos="22566" len="5"/>
          <note pan="0" key="49" vol="100" pos="22572" len="5"/>
          <note pan="0" key="47" vol="100" pos="22602" len="5"/>
          <note pan="0" key="49" vol="100" pos="22608" len="5"/>
          <note pan="0" key="47" vol="100" pos="22638" len="5"/>
          <note pan="0" key="49" vol="100" pos="22644" len="5"/>
          <note pan="0" key="47" vol="100" pos="22662" len="5"/>
          <note pan="0" key="49" vol="100" pos="22668" len="5"/>
          <note pan="0" key="47" vol="100" pos="22698" len="5"/>
          <note pan="0" key="49" vol="100" pos="22704" len="5"/>
          <note pan="0" key="47" vol="100" pos="22734" len="5"/>
          <note pan="0" key="49" vol="100" pos="22740" len="5"/>
          <note pan="0" key="47" vol="100" pos="22758" len="5"/>
          <note pan="0" key="49" vol="100" pos="22764" len="5"/>
          <note pan="0" key="47" vol="100" pos="22794" len="5"/>
          <note pan="0" key="49" vol="100" pos="22800" len="5"/>
          <note pan="0" key="47" vol="100" pos="22830" len="5"/>
          <note pan="0" key="49" vol="100" pos="22836" len="5"/>
        </pattern>
      </track>
      <track muted="0" type="0" name="Ch2">
        <instrumenttrack pan="-100" fxch="0" pitch="0" basenote="57" vol="25">
          <instrument name="tripleoscillator">
            <tripleoscillator phoffset2="0" userwavefile0="" finer0="0" userwavefile1="" finer1="0" userwavefile2="" finer2="0" coarse0="0" coarse1="0" coarse2="0" finel0="0" finel1="0" modalgo1="2" modalgo2="2" finel2="0" pan0="0" modalgo3="2" pan1="0" stphdetun0="0" pan2="0" stphdetun1="0" wavetype0="3" stphdetun2="0" wavetype1="0" wavetype2="0" vol0="99" vol1="0" phoffset0="0" phoffset1="0" vol2="0"/>
          </instrument>
          <eldata fres="0.5" ftype="0" fcut="14000" fwet="0">
            <elvol lspd_denominator="4" pdel="0" userwavefile="" dec="0.5" lamt="0" syncmode="0" latt="0" rel="0.1" sus="0.5" amt="0" x100="0" att="0" lpdel="0" hold="0.5" lshp="0" lspd="0.1" ctlenvamt="0" lspd_numerator="4"/>
            <elcut lspd_denominator="4" pdel="0" userwavefile="" dec="0.5" lamt="0" syncmode="0" latt="0" rel="0.1" sus="0.5" amt="0" x100="0" att="0" lpdel="0" hold="0.5" lshp="0" lspd="0.1" ctlenvamt="0" lspd_numerator="4"/>
            <elres lspd_denominator="4" pdel="0" userwavefile="" dec="0.5" lamt="0" syncmode="0" latt="0" rel="0.1" sus="0.5" amt="0" x100="0" att="0" lpdel="0" hold="0.5" lshp="0" lspd="0.1" ctlenvamt="0" lspd_numerator="4"/>
          </eldata>
          <chordcreator chord="0" chordrange="1" chord-enabled="0"/>
          <arpeggiator arptime="100" arprange="1" arptime_denominator="4" syncmode="0" arpmode="0" arp-enabled="0" arp="0" arptime_numerator="4" arpdir="0" arpgate="100"/>
          <midiport inputcontroller="0" fixedoutputvelocity="-1" inputchannel="0" outputcontroller="0" writable="0" outputchannel="1" fixedinputvelocity="-1" fixedoutputnote="-1" outputprogram="1" readable="0"/>
          <fxchain numofeffects="0" enabled="0"/>
        </instrumenttrack>
        <pattern steps="16" muted="0" type="1" name="Ch2" pos="0" len="23808" frozen="0">
          <note pan="0" key="46" vol="100" pos="0" len="5"/>
          <note pan="0" key="34" vol="100" pos="6" len="5"/>
          <note pan="0" key="46" vol="100" pos="48" len="5"/>
          <note pan="0" key="34" vol="100" pos="54" len="5"/>
          <note pan="0" key="46" vol="100" pos="96" len="5"/>
          <note pan="0" key="34" vol="100" pos="102" len="5"/>
          <note pan="0" key="46" vol="100" pos="144" len="5"/>
          <note pan="0" key="34" vol="100" pos="150" len="5"/>
          <note pan="0" key="46" vol="100" pos="156" len="5"/>
          <note pan="0" key="34" vol="100" pos="162" len="5"/>
          <note pan="0" key="46" vol="100" pos="168" len="5"/>
          <note pan="0" key="34" vol="100" pos="174" len="5"/>
          <note pan="0" key="46" vol="100" pos="180" len="5"/>
          <note pan="0" key="34" vol="100" pos="186" len="5"/>
          <note pan="0" key="46" vol="100" pos="192" len="5"/>
          <note pan="0" key="34" vol="100" pos="198" len="5"/>
          <note pan="0" key="46" vol="100" pos="240" len="5"/>
          <note pan="0" key="34" vol="100" pos="246" len="5"/>
          <note pan="0" key="46" vol="100" pos="288" len="5"/>
          <note pan="0" key="34" vol="100" pos="294" len="5"/>
          <note pan="0" key="46" vol="100" pos="336" len="5"/>
          <note pan="0" key="34" vol="100" pos="342" len="5"/>
          <note pan="0" key="46" vol="100" pos="360" len="5"/>
          <note pan="0" key="34" vol="100" pos="366" len="5"/>
          <note pan="0" key="46" vol="100" pos="384" len="5"/>
          <note pan="0" key="34" vol="100" pos="390" len="5"/>
          <note pan="0" key="46" vol="100" pos="432" len="5"/>
          <note pan="0" key="34" vol="100" pos="438" len="5"/>
          <note pan="0" key="46" vol="100" pos="480" len="5"/>
          <note pan="0" key="34" vol="100" pos="486" len="5"/>
          <note pan="0" key="46" vol="100" pos="528" len="5"/>
          <note pan="0" key="34" vol="100" pos="534" len="5"/>
          <note pan="0" key="46" vol="100" pos="540" len="5"/>
          <note pan="0" key="34" vol="100" pos="546" len="5"/>
          <note pan="0" key="46" vol="100" pos="552" len="5"/>
          <note pan="0" key="34" vol="100" pos="558" len="5"/>
          <note pan="0" key="46" vol="100" pos="564" len="5"/>
          <note pan="0" key="34" vol="100" pos="570" len="5"/>
          <note pan="0" key="46" vol="100" pos="576" len="5"/>
          <note pan="0" key="34" vol="100" pos="582" len="5"/>
          <note pan="0" key="46" vol="100" pos="624" len="5"/>
          <note pan="0" key="34" vol="100" pos="630" len="5"/>
          <note pan="0" key="46" vol="100" pos="672" len="5"/>
          <note pan="0" key="34" vol="100" pos="678" len="5"/>
          <note pan="0" key="46" vol="100" pos="720" len="5"/>
          <note pan="0" key="34" vol="100" pos="726" len="5"/>
          <note pan="0" key="46" vol="100" pos="744" len="5"/>
          <note pan="0" key="34" vol="100" pos="750" len="5"/>
          <note pan="0" key="46" vol="100" pos="768" len="5"/>
          <note pan="0" key="34" vol="100" pos="774" len="5"/>
          <note pan="0" key="46" vol="100" pos="816" len="5"/>
          <note pan="0" key="34" vol="100" pos="822" len="5"/>
          <note pan="0" key="46" vol="100" pos="864" len="5"/>
          <note pan="0" key="34" vol="100" pos="870" len="5"/>
          <note pan="0" key="46" vol="100" pos="912" len="5"/>
          <note pan="0" key="34" vol="100" pos="918" len="5"/>
          <note pan="0" key="46" vol="100" pos="924" len="5"/>
          <note pan="0" key="34" vol="100" pos="930" len="5"/>
          <note pan="0" key="46" vol="100" pos="936" len="5"/>
          <note pan="0" key="34" vol="100" pos="942" len="5"/>
          <note pan="0" key="46" vol="100" pos="948" len="5"/>
          <note pan="0" key="34" vol="100" pos="954" len="5"/>
          <note pan="0" key="46" vol="100" pos="960" len="5"/>
          <note pan="0" key="34" vol="100" pos="966" len="5"/>
          <note pan="0" key="46" vol="100" pos="1008" len="5"/>
          <note pan="0" key="34" vol="100" pos="1014" len="5"/>
          <note pan="0" key="46" vol="100" pos="1056" len="5"/>
          <note pan="0" key="34" vol="100" pos="1062" len="5"/>
          <note pan="0" key="46" vol="100" pos="1104" len="5"/>
          <note pan="0" key="34" vol="100" pos="1110" len="5"/>
          <note pan="0" key="46" vol="100" pos="1128" len="5"/>
          <note pan="0" key="34" vol="100" pos="1134" len="5"/>
          <note pan="0" key="46" vol="100" pos="1152" len="5"/>
          <note pan="0" key="34" vol="100" pos="1158" len="5"/>
          <note pan="0" key="46" vol="100" pos="1200" len="5"/>
          <note pan="0" key="34" vol="100" pos="1206" len="5"/>
          <note pan="0" key="46" vol="100" pos="1248" len="5"/>
          <note pan="0" key="34" vol="100" pos="1254" len="5"/>
          <note pan="0" key="46" vol="100" pos="1296" len="5"/>
          <note pan="0" key="34" vol="100" pos="1302" len="5"/>
          <note pan="0" key="46" vol="100" pos="1308" len="5"/>
          <note pan="0" key="34" vol="100" pos="1314" len="5"/>
          <note pan="0" key="46" vol="100" pos="1320" len="5"/>
          <note pan="0" key="34" vol="100" pos="1326" len="5"/>
          <note pan="0" key="46" vol="100" pos="1332" len="5"/>
          <note pan="0" key="34" vol="100" pos="1338" len="5"/>
          <note pan="0" key="46" vol="100" pos="1344" len="5"/>
          <note pan="0" key="34" vol="100" pos="1350" len="5"/>
          <note pan="0" key="46" vol="100" pos="1392" len="5"/>
          <note pan="0" key="34" vol="100" pos="1398" len="5"/>
          <note pan="0" key="46" vol="100" pos="1440" len="5"/>
          <note pan="0" key="34" vol="100" pos="1446" len="5"/>
          <note pan="0" key="46" vol="100" pos="1488" len="5"/>
          <note pan="0" key="34" vol="100" pos="1494" len="5"/>
          <note pan="0" key="46" vol="100" pos="1536" len="5"/>
          <note pan="0" key="34" vol="100" pos="1542" len="11"/>
          <note pan="0" key="46" vol="100" pos="1560" len="17"/>
          <note pan="0" key="58" vol="100" pos="1584" len="5"/>
          <note pan="0" key="34" vol="100" pos="1590" len="11"/>
          <note pan="0" key="58" vol="100" pos="1608" len="17"/>
          <note pan="0" key="46" vol="100" pos="1632" len="5"/>
          <note pan="0" key="34" vol="100" pos="1638" len="11"/>
          <note pan="0" key="46" vol="100" pos="1656" len="17"/>
          <note pan="0" key="58" vol="100" pos="1680" len="5"/>
          <note pan="0" key="34" vol="100" pos="1686" len="11"/>
          <note pan="0" key="58" vol="100" pos="1704" len="17"/>
          <note pan="0" key="46" vol="100" pos="1728" len="5"/>
          <note pan="0" key="34" vol="100" pos="1734" len="11"/>
          <note pan="0" key="46" vol="100" pos="1752" len="17"/>
          <note pan="0" key="58" vol="100" pos="1776" len="5"/>
          <note pan="0" key="34" vol="100" pos="1782" len="11"/>
          <note pan="0" key="58" vol="100" pos="1800" len="17"/>
          <note pan="0" key="42" vol="100" pos="1824" len="5"/>
          <note pan="0" key="30" vol="100" pos="1830" len="11"/>
          <note pan="0" key="42" vol="100" pos="1848" len="17"/>
          <note pan="0" key="56" vol="100" pos="1872" len="5"/>
          <note pan="0" key="32" vol="100" pos="1878" len="11"/>
          <note pan="0" key="44" vol="100" pos="1896" len="17"/>
          <note pan="0" key="46" vol="100" pos="1920" len="5"/>
          <note pan="0" key="34" vol="100" pos="1926" len="11"/>
          <note pan="0" key="46" vol="100" pos="1944" len="17"/>
          <note pan="0" key="58" vol="100" pos="1968" len="5"/>
          <note pan="0" key="34" vol="100" pos="1974" len="11"/>
          <note pan="0" key="58" vol="100" pos="1992" len="17"/>
          <note pan="0" key="46" vol="100" pos="2016" len="5"/>
          <note pan="0" key="34" vol="100" pos="2022" len="11"/>
          <note pan="0" key="46" vol="100" pos="2040" len="17"/>
          <note pan="0" key="58" vol="100" pos="2064" len="5"/>
          <note pan="0" key="34" vol="100" pos="2070" len="11"/>
          <note pan="0" key="58" vol="100" pos="2088" len="17"/>
          <note pan="0" key="46" vol="100" pos="2112" len="5"/>
          <note pan="0" key="34" vol="100" pos="2118" len="11"/>
          <note pan="0" key="46" vol="100" pos="2136" len="17"/>
          <note pan="0" key="58" vol="100" pos="2160" len="5"/>
          <note pan="0" key="34" vol="100" pos="2166" len="11"/>
          <note pan="0" key="58" vol="100" pos="2184" len="17"/>
          <note pan="0" key="42" vol="100" pos="2208" len="5"/>
          <note pan="0" key="30" vol="100" pos="2214" len="11"/>
          <note pan="0" key="42" vol="100" pos="2232" len="17"/>
          <note pan="0" key="56" vol="100" pos="2256" len="5"/>
          <note pan="0" key="32" vol="100" pos="2262" len="11"/>
          <note pan="0" key="44" vol="100" pos="2280" len="17"/>
          <note pan="0" key="46" vol="100" pos="2304" len="5"/>
          <note pan="0" key="34" vol="100" pos="2310" len="11"/>
          <note pan="0" key="46" vol="100" pos="2328" len="17"/>
          <note pan="0" key="58" vol="100" pos="2352" len="5"/>
          <note pan="0" key="34" vol="100" pos="2358" len="11"/>
          <note pan="0" key="58" vol="100" pos="2376" len="17"/>
          <note pan="0" key="46" vol="100" pos="2400" len="5"/>
          <note pan="0" key="34" vol="100" pos="2406" len="11"/>
          <note pan="0" key="46" vol="100" pos="2424" len="17"/>
          <note pan="0" key="58" vol="100" pos="2448" len="5"/>
          <note pan="0" key="34" vol="100" pos="2454" len="11"/>
          <note pan="0" key="58" vol="100" pos="2472" len="17"/>
          <note pan="0" key="46" vol="100" pos="2496" len="5"/>
          <note pan="0" key="34" vol="100" pos="2502" len="11"/>
          <note pan="0" key="46" vol="100" pos="2520" len="17"/>
          <note pan="0" key="58" vol="100" pos="2544" len="5"/>
          <note pan="0" key="34" vol="100" pos="2550" len="11"/>
          <note pan="0" key="58" vol="100" pos="2568" len="17"/>
          <note pan="0" key="42" vol="100" pos="2592" len="5"/>
          <note pan="0" key="30" vol="100" pos="2598" len="11"/>
          <note pan="0" key="42" vol="100" pos="2616" len="17"/>
          <note pan="0" key="56" vol="100" pos="2640" len="5"/>
          <note pan="0" key="32" vol="100" pos="2646" len="11"/>
          <note pan="0" key="44" vol="100" pos="2664" len="17"/>
          <note pan="0" key="46" vol="100" pos="2688" len="5"/>
          <note pan="0" key="34" vol="100" pos="2694" len="11"/>
          <note pan="0" key="46" vol="100" pos="2712" len="17"/>
          <note pan="0" key="58" vol="100" pos="2736" len="5"/>
          <note pan="0" key="34" vol="100" pos="2742" len="11"/>
          <note pan="0" key="58" vol="100" pos="2760" len="17"/>
          <note pan="0" key="46" vol="100" pos="2784" len="5"/>
          <note pan="0" key="34" vol="100" pos="2790" len="11"/>
          <note pan="0" key="46" vol="100" pos="2808" len="17"/>
          <note pan="0" key="58" vol="100" pos="2832" len="5"/>
          <note pan="0" key="34" vol="100" pos="2838" len="11"/>
          <note pan="0" key="58" vol="100" pos="2856" len="17"/>
          <note pan="0" key="46" vol="100" pos="2880" len="5"/>
          <note pan="0" key="34" vol="100" pos="2886" len="11"/>
          <note pan="0" key="46" vol="100" pos="2904" len="17"/>
          <note pan="0" key="58" vol="100" pos="2928" len="5"/>
          <note pan="0" key="34" vol="100" pos="2934" len="11"/>
          <note pan="0" key="58" vol="100" pos="2952" len="17"/>
          <note pan="0" key="51" vol="100" pos="2976" len="11"/>
          <note pan="0" key="49" vol="100" pos="2994" len="11"/>
          <note pan="0" key="51" vol="100" pos="3006" len="11"/>
          <note pan="0" key="49" vol="100" pos="3024" len="11"/>
          <note pan="0" key="46" vol="100" pos="3042" len="11"/>
          <note pan="0" key="49" vol="100" pos="3060" len="11"/>
          <note pan="0" key="34" vol="100" pos="3072" len="5"/>
          <note pan="0" key="46" vol="100" pos="3078" len="5"/>
          <note pan="0" key="34" vol="100" pos="3084" len="5"/>
          <note pan="0" key="46" vol="100" pos="3096" len="11"/>
          <note pan="0" key="34" vol="100" pos="3108" len="5"/>
          <note pan="0" key="34" vol="100" pos="3120" len="5"/>
          <note pan="0" key="46" vol="100" pos="3126" len="5"/>
          <note pan="0" key="34" vol="100" pos="3132" len="5"/>
          <note pan="0" key="46" vol="100" pos="3144" len="11"/>
          <note pan="0" key="34" vol="100" pos="3156" len="5"/>
          <note pan="0" key="34" vol="100" pos="3168" len="5"/>
          <note pan="0" key="46" vol="100" pos="3174" len="5"/>
          <note pan="0" key="34" vol="100" pos="3180" len="5"/>
          <note pan="0" key="46" vol="100" pos="3192" len="11"/>
          <note pan="0" key="34" vol="100" pos="3204" len="5"/>
          <note pan="0" key="34" vol="100" pos="3216" len="5"/>
          <note pan="0" key="46" vol="100" pos="3222" len="5"/>
          <note pan="0" key="34" vol="100" pos="3228" len="5"/>
          <note pan="0" key="46" vol="100" pos="3240" len="11"/>
          <note pan="0" key="34" vol="100" pos="3252" len="5"/>
          <note pan="0" key="34" vol="100" pos="3264" len="5"/>
          <note pan="0" key="46" vol="100" pos="3270" len="5"/>
          <note pan="0" key="34" vol="100" pos="3276" len="5"/>
          <note pan="0" key="46" vol="100" pos="3288" len="11"/>
          <note pan="0" key="34" vol="100" pos="3300" len="5"/>
          <note pan="0" key="34" vol="100" pos="3312" len="5"/>
          <note pan="0" key="46" vol="100" pos="3318" len="5"/>
          <note pan="0" key="34" vol="100" pos="3324" len="5"/>
          <note pan="0" key="46" vol="100" pos="3336" len="11"/>
          <note pan="0" key="34" vol="100" pos="3348" len="5"/>
          <note pan="0" key="34" vol="100" pos="3360" len="5"/>
          <note pan="0" key="46" vol="100" pos="3366" len="5"/>
          <note pan="0" key="34" vol="100" pos="3372" len="5"/>
          <note pan="0" key="46" vol="100" pos="3384" len="11"/>
          <note pan="0" key="34" vol="100" pos="3396" len="5"/>
          <note pan="0" key="34" vol="100" pos="3408" len="5"/>
          <note pan="0" key="46" vol="100" pos="3414" len="5"/>
          <note pan="0" key="34" vol="100" pos="3420" len="5"/>
          <note pan="0" key="46" vol="100" pos="3432" len="11"/>
          <note pan="0" key="34" vol="100" pos="3444" len="5"/>
          <note pan="0" key="30" vol="100" pos="3456" len="5"/>
          <note pan="0" key="42" vol="100" pos="3462" len="5"/>
          <note pan="0" key="30" vol="100" pos="3468" len="5"/>
          <note pan="0" key="42" vol="100" pos="3480" len="11"/>
          <note pan="0" key="30" vol="100" pos="3492" len="5"/>
          <note pan="0" key="30" vol="100" pos="3504" len="5"/>
          <note pan="0" key="42" vol="100" pos="3510" len="5"/>
          <note pan="0" key="30" vol="100" pos="3516" len="5"/>
          <note pan="0" key="42" vol="100" pos="3528" len="11"/>
          <note pan="0" key="30" vol="100" pos="3540" len="5"/>
          <note pan="0" key="30" vol="100" pos="3552" len="5"/>
          <note pan="0" key="42" vol="100" pos="3558" len="5"/>
          <note pan="0" key="30" vol="100" pos="3564" len="5"/>
          <note pan="0" key="42" vol="100" pos="3576" len="11"/>
          <note pan="0" key="30" vol="100" pos="3588" len="5"/>
          <note pan="0" key="30" vol="100" pos="3600" len="5"/>
          <note pan="0" key="42" vol="100" pos="3606" len="5"/>
          <note pan="0" key="30" vol="100" pos="3612" len="5"/>
          <note pan="0" key="42" vol="100" pos="3624" len="11"/>
          <note pan="0" key="30" vol="100" pos="3636" len="5"/>
          <note pan="0" key="32" vol="100" pos="3648" len="5"/>
          <note pan="0" key="44" vol="100" pos="3654" len="5"/>
          <note pan="0" key="32" vol="100" pos="3660" len="5"/>
          <note pan="0" key="44" vol="100" pos="3672" len="11"/>
          <note pan="0" key="32" vol="100" pos="3684" len="5"/>
          <note pan="0" key="32" vol="100" pos="3696" len="5"/>
          <note pan="0" key="44" vol="100" pos="3702" len="5"/>
          <note pan="0" key="32" vol="100" pos="3708" len="5"/>
          <note pan="0" key="44" vol="100" pos="3720" len="11"/>
          <note pan="0" key="32" vol="100" pos="3732" len="5"/>
          <note pan="0" key="29" vol="100" pos="3744" len="5"/>
          <note pan="0" key="41" vol="100" pos="3750" len="5"/>
          <note pan="0" key="29" vol="100" pos="3756" len="5"/>
          <note pan="0" key="41" vol="100" pos="3768" len="11"/>
          <note pan="0" key="29" vol="100" pos="3780" len="5"/>
          <note pan="0" key="29" vol="100" pos="3792" len="5"/>
          <note pan="0" key="41" vol="100" pos="3798" len="5"/>
          <note pan="0" key="29" vol="100" pos="3804" len="5"/>
          <note pan="0" key="41" vol="100" pos="3816" len="11"/>
          <note pan="0" key="29" vol="100" pos="3828" len="5"/>
          <note pan="0" key="34" vol="100" pos="3840" len="5"/>
          <note pan="0" key="46" vol="100" pos="3846" len="5"/>
          <note pan="0" key="34" vol="100" pos="3852" len="5"/>
          <note pan="0" key="46" vol="100" pos="3864" len="11"/>
          <note pan="0" key="34" vol="100" pos="3876" len="5"/>
          <note pan="0" key="34" vol="100" pos="3888" len="5"/>
          <note pan="0" key="46" vol="100" pos="3894" len="5"/>
          <note pan="0" key="34" vol="100" pos="3900" len="5"/>
          <note pan="0" key="46" vol="100" pos="3912" len="11"/>
          <note pan="0" key="34" vol="100" pos="3924" len="5"/>
          <note pan="0" key="34" vol="100" pos="3936" len="5"/>
          <note pan="0" key="46" vol="100" pos="3942" len="5"/>
          <note pan="0" key="34" vol="100" pos="3948" len="5"/>
          <note pan="0" key="46" vol="100" pos="3960" len="11"/>
          <note pan="0" key="34" vol="100" pos="3972" len="5"/>
          <note pan="0" key="34" vol="100" pos="3984" len="5"/>
          <note pan="0" key="46" vol="100" pos="3990" len="5"/>
          <note pan="0" key="34" vol="100" pos="3996" len="5"/>
          <note pan="0" key="46" vol="100" pos="4008" len="11"/>
          <note pan="0" key="34" vol="100" pos="4020" len="5"/>
          <note pan="0" key="34" vol="100" pos="4032" len="5"/>
          <note pan="0" key="46" vol="100" pos="4038" len="5"/>
          <note pan="0" key="34" vol="100" pos="4044" len="5"/>
          <note pan="0" key="46" vol="100" pos="4056" len="11"/>
          <note pan="0" key="34" vol="100" pos="4068" len="5"/>
          <note pan="0" key="34" vol="100" pos="4080" len="5"/>
          <note pan="0" key="46" vol="100" pos="4086" len="5"/>
          <note pan="0" key="34" vol="100" pos="4092" len="5"/>
          <note pan="0" key="46" vol="100" pos="4104" len="11"/>
          <note pan="0" key="34" vol="100" pos="4116" len="5"/>
          <note pan="0" key="34" vol="100" pos="4128" len="5"/>
          <note pan="0" key="46" vol="100" pos="4134" len="5"/>
          <note pan="0" key="34" vol="100" pos="4140" len="5"/>
          <note pan="0" key="46" vol="100" pos="4152" len="11"/>
          <note pan="0" key="34" vol="100" pos="4164" len="5"/>
          <note pan="0" key="34" vol="100" pos="4176" len="5"/>
          <note pan="0" key="46" vol="100" pos="4182" len="5"/>
          <note pan="0" key="34" vol="100" pos="4188" len="5"/>
          <note pan="0" key="46" vol="100" pos="4200" len="11"/>
          <note pan="0" key="34" vol="100" pos="4212" len="5"/>
          <note pan="0" key="30" vol="100" pos="4224" len="5"/>
          <note pan="0" key="42" vol="100" pos="4230" len="5"/>
          <note pan="0" key="30" vol="100" pos="4236" len="5"/>
          <note pan="0" key="42" vol="100" pos="4248" len="11"/>
          <note pan="0" key="30" vol="100" pos="4260" len="5"/>
          <note pan="0" key="30" vol="100" pos="4272" len="5"/>
          <note pan="0" key="42" vol="100" pos="4278" len="5"/>
          <note pan="0" key="30" vol="100" pos="4284" len="5"/>
          <note pan="0" key="42" vol="100" pos="4296" len="11"/>
          <note pan="0" key="30" vol="100" pos="4308" len="5"/>
          <note pan="0" key="30" vol="100" pos="4320" len="5"/>
          <note pan="0" key="42" vol="100" pos="4326" len="5"/>
          <note pan="0" key="30" vol="100" pos="4332" len="5"/>
          <note pan="0" key="42" vol="100" pos="4344" len="11"/>
          <note pan="0" key="30" vol="100" pos="4356" len="5"/>
          <note pan="0" key="30" vol="100" pos="4368" len="5"/>
          <note pan="0" key="42" vol="100" pos="4374" len="5"/>
          <note pan="0" key="30" vol="100" pos="4380" len="5"/>
          <note pan="0" key="42" vol="100" pos="4392" len="11"/>
          <note pan="0" key="30" vol="100" pos="4404" len="5"/>
          <note pan="0" key="32" vol="100" pos="4416" len="23"/>
          <note pan="0" key="44" vol="100" pos="4440" len="23"/>
          <note pan="0" key="56" vol="100" pos="4464" len="23"/>
          <note pan="0" key="44" vol="100" pos="4488" len="23"/>
          <note pan="0" key="41" vol="100" pos="4512" len="23"/>
          <note pan="0" key="53" vol="100" pos="4536" len="23"/>
          <note pan="0" key="57" vol="100" pos="4560" len="23"/>
          <note pan="0" key="60" vol="100" pos="4584" len="23"/>
          <note pan="0" key="34" vol="100" pos="4608" len="5"/>
          <note pan="0" key="46" vol="100" pos="4614" len="5"/>
          <note pan="0" key="34" vol="100" pos="4620" len="5"/>
          <note pan="0" key="46" vol="100" pos="4632" len="11"/>
          <note pan="0" key="34" vol="100" pos="4644" len="5"/>
          <note pan="0" key="34" vol="100" pos="4656" len="5"/>
          <note pan="0" key="46" vol="100" pos="4662" len="5"/>
          <note pan="0" key="34" vol="100" pos="4668" len="5"/>
          <note pan="0" key="46" vol="100" pos="4680" len="11"/>
          <note pan="0" key="34" vol="100" pos="4692" len="5"/>
          <note pan="0" key="34" vol="100" pos="4704" len="5"/>
          <note pan="0" key="46" vol="100" pos="4710" len="5"/>
          <note pan="0" key="34" vol="100" pos="4716" len="5"/>
          <note pan="0" key="46" vol="100" pos="4728" len="11"/>
          <note pan="0" key="34" vol="100" pos="4740" len="5"/>
          <note pan="0" key="34" vol="100" pos="4752" len="5"/>
          <note pan="0" key="46" vol="100" pos="4758" len="5"/>
          <note pan="0" key="34" vol="100" pos="4764" len="5"/>
          <note pan="0" key="46" vol="100" pos="4776" len="11"/>
          <note pan="0" key="34" vol="100" pos="4788" len="5"/>
          <note pan="0" key="34" vol="100" pos="4800" len="5"/>
          <note pan="0" key="46" vol="100" pos="4806" len="5"/>
          <note pan="0" key="34" vol="100" pos="4812" len="5"/>
          <note pan="0" key="46" vol="100" pos="4824" len="11"/>
          <note pan="0" key="34" vol="100" pos="4836" len="5"/>
          <note pan="0" key="34" vol="100" pos="4848" len="5"/>
          <note pan="0" key="46" vol="100" pos="4854" len="5"/>
          <note pan="0" key="34" vol="100" pos="4860" len="5"/>
          <note pan="0" key="46" vol="100" pos="4872" len="11"/>
          <note pan="0" key="34" vol="100" pos="4884" len="5"/>
          <note pan="0" key="34" vol="100" pos="4896" len="5"/>
          <note pan="0" key="46" vol="100" pos="4902" len="5"/>
          <note pan="0" key="34" vol="100" pos="4908" len="5"/>
          <note pan="0" key="46" vol="100" pos="4920" len="11"/>
          <note pan="0" key="34" vol="100" pos="4932" len="5"/>
          <note pan="0" key="34" vol="100" pos="4944" len="5"/>
          <note pan="0" key="46" vol="100" pos="4950" len="5"/>
          <note pan="0" key="34" vol="100" pos="4956" len="5"/>
          <note pan="0" key="46" vol="100" pos="4968" len="11"/>
          <note pan="0" key="34" vol="100" pos="4980" len="5"/>
          <note pan="0" key="30" vol="100" pos="4992" len="5"/>
          <note pan="0" key="42" vol="100" pos="4998" len="5"/>
          <note pan="0" key="30" vol="100" pos="5004" len="5"/>
          <note pan="0" key="42" vol="100" pos="5016" len="11"/>
          <note pan="0" key="30" vol="100" pos="5028" len="5"/>
          <note pan="0" key="30" vol="100" pos="5040" len="5"/>
          <note pan="0" key="42" vol="100" pos="5046" len="5"/>
          <note pan="0" key="30" vol="100" pos="5052" len="5"/>
          <note pan="0" key="42" vol="100" pos="5064" len="11"/>
          <note pan="0" key="30" vol="100" pos="5076" len="5"/>
          <note pan="0" key="30" vol="100" pos="5088" len="5"/>
          <note pan="0" key="42" vol="100" pos="5094" len="5"/>
          <note pan="0" key="30" vol="100" pos="5100" len="5"/>
          <note pan="0" key="42" vol="100" pos="5112" len="11"/>
          <note pan="0" key="30" vol="100" pos="5124" len="5"/>
          <note pan="0" key="30" vol="100" pos="5136" len="5"/>
          <note pan="0" key="42" vol="100" pos="5142" len="5"/>
          <note pan="0" key="30" vol="100" pos="5148" len="5"/>
          <note pan="0" key="42" vol="100" pos="5160" len="11"/>
          <note pan="0" key="30" vol="100" pos="5172" len="5"/>
          <note pan="0" key="32" vol="100" pos="5184" len="5"/>
          <note pan="0" key="44" vol="100" pos="5190" len="5"/>
          <note pan="0" key="32" vol="100" pos="5196" len="5"/>
          <note pan="0" key="44" vol="100" pos="5208" len="11"/>
          <note pan="0" key="32" vol="100" pos="5220" len="5"/>
          <note pan="0" key="32" vol="100" pos="5232" len="5"/>
          <note pan="0" key="44" vol="100" pos="5238" len="5"/>
          <note pan="0" key="32" vol="100" pos="5244" len="5"/>
          <note pan="0" key="44" vol="100" pos="5256" len="11"/>
          <note pan="0" key="32" vol="100" pos="5268" len="5"/>
          <note pan="0" key="29" vol="100" pos="5280" len="5"/>
          <note pan="0" key="41" vol="100" pos="5286" len="5"/>
          <note pan="0" key="29" vol="100" pos="5292" len="5"/>
          <note pan="0" key="41" vol="100" pos="5304" len="11"/>
          <note pan="0" key="29" vol="100" pos="5316" len="5"/>
          <note pan="0" key="29" vol="100" pos="5328" len="5"/>
          <note pan="0" key="41" vol="100" pos="5334" len="5"/>
          <note pan="0" key="29" vol="100" pos="5340" len="5"/>
          <note pan="0" key="41" vol="100" pos="5352" len="11"/>
          <note pan="0" key="29" vol="100" pos="5364" len="5"/>
          <note pan="0" key="34" vol="100" pos="5376" len="5"/>
          <note pan="0" key="46" vol="100" pos="5382" len="5"/>
          <note pan="0" key="34" vol="100" pos="5388" len="5"/>
          <note pan="0" key="46" vol="100" pos="5400" len="11"/>
          <note pan="0" key="34" vol="100" pos="5412" len="5"/>
          <note pan="0" key="34" vol="100" pos="5424" len="5"/>
          <note pan="0" key="46" vol="100" pos="5430" len="5"/>
          <note pan="0" key="34" vol="100" pos="5436" len="5"/>
          <note pan="0" key="46" vol="100" pos="5448" len="11"/>
          <note pan="0" key="34" vol="100" pos="5460" len="5"/>
          <note pan="0" key="34" vol="100" pos="5472" len="5"/>
          <note pan="0" key="46" vol="100" pos="5478" len="5"/>
          <note pan="0" key="34" vol="100" pos="5484" len="5"/>
          <note pan="0" key="46" vol="100" pos="5496" len="11"/>
          <note pan="0" key="34" vol="100" pos="5508" len="5"/>
          <note pan="0" key="34" vol="100" pos="5520" len="5"/>
          <note pan="0" key="46" vol="100" pos="5526" len="5"/>
          <note pan="0" key="34" vol="100" pos="5532" len="5"/>
          <note pan="0" key="46" vol="100" pos="5544" len="11"/>
          <note pan="0" key="34" vol="100" pos="5556" len="5"/>
          <note pan="0" key="34" vol="100" pos="5568" len="5"/>
          <note pan="0" key="46" vol="100" pos="5574" len="5"/>
          <note pan="0" key="34" vol="100" pos="5580" len="5"/>
          <note pan="0" key="46" vol="100" pos="5592" len="11"/>
          <note pan="0" key="34" vol="100" pos="5604" len="5"/>
          <note pan="0" key="34" vol="100" pos="5616" len="5"/>
          <note pan="0" key="46" vol="100" pos="5622" len="5"/>
          <note pan="0" key="34" vol="100" pos="5628" len="5"/>
          <note pan="0" key="46" vol="100" pos="5640" len="11"/>
          <note pan="0" key="34" vol="100" pos="5652" len="5"/>
          <note pan="0" key="34" vol="100" pos="5664" len="5"/>
          <note pan="0" key="46" vol="100" pos="5670" len="5"/>
          <note pan="0" key="34" vol="100" pos="5676" len="5"/>
          <note pan="0" key="46" vol="100" pos="5688" len="11"/>
          <note pan="0" key="34" vol="100" pos="5700" len="5"/>
          <note pan="0" key="34" vol="100" pos="5712" len="5"/>
          <note pan="0" key="46" vol="100" pos="5718" len="5"/>
          <note pan="0" key="34" vol="100" pos="5724" len="5"/>
          <note pan="0" key="46" vol="100" pos="5736" len="11"/>
          <note pan="0" key="34" vol="100" pos="5748" len="5"/>
          <note pan="0" key="30" vol="100" pos="5760" len="5"/>
          <note pan="0" key="42" vol="100" pos="5766" len="5"/>
          <note pan="0" key="30" vol="100" pos="5772" len="5"/>
          <note pan="0" key="42" vol="100" pos="5784" len="11"/>
          <note pan="0" key="30" vol="100" pos="5796" len="5"/>
          <note pan="0" key="30" vol="100" pos="5808" len="5"/>
          <note pan="0" key="42" vol="100" pos="5814" len="5"/>
          <note pan="0" key="30" vol="100" pos="5820" len="5"/>
          <note pan="0" key="42" vol="100" pos="5832" len="11"/>
          <note pan="0" key="30" vol="100" pos="5844" len="5"/>
          <note pan="0" key="30" vol="100" pos="5856" len="5"/>
          <note pan="0" key="42" vol="100" pos="5862" len="5"/>
          <note pan="0" key="30" vol="100" pos="5868" len="5"/>
          <note pan="0" key="42" vol="100" pos="5880" len="11"/>
          <note pan="0" key="30" vol="100" pos="5892" len="5"/>
          <note pan="0" key="30" vol="100" pos="5904" len="5"/>
          <note pan="0" key="42" vol="100" pos="5910" len="5"/>
          <note pan="0" key="30" vol="100" pos="5916" len="5"/>
          <note pan="0" key="42" vol="100" pos="5928" len="11"/>
          <note pan="0" key="30" vol="100" pos="5940" len="5"/>
          <note pan="0" key="32" vol="100" pos="5952" len="23"/>
          <note pan="0" key="44" vol="100" pos="5976" len="23"/>
          <note pan="0" key="56" vol="100" pos="6000" len="23"/>
          <note pan="0" key="44" vol="100" pos="6024" len="23"/>
          <note pan="0" key="41" vol="100" pos="6048" len="23"/>
          <note pan="0" key="53" vol="100" pos="6072" len="23"/>
          <note pan="0" key="57" vol="100" pos="6096" len="23"/>
          <note pan="0" key="60" vol="100" pos="6120" len="23"/>
          <note pan="0" key="42" vol="100" pos="6144" len="5"/>
          <note pan="0" key="30" vol="100" pos="6150" len="5"/>
          <note pan="0" key="42" vol="100" pos="6156" len="5"/>
          <note pan="0" key="54" vol="100" pos="6168" len="11"/>
          <note pan="0" key="42" vol="100" pos="6180" len="5"/>
          <note pan="0" key="42" vol="100" pos="6192" len="5"/>
          <note pan="0" key="30" vol="100" pos="6198" len="5"/>
          <note pan="0" key="42" vol="100" pos="6204" len="5"/>
          <note pan="0" key="54" vol="100" pos="6216" len="11"/>
          <note pan="0" key="42" vol="100" pos="6228" len="5"/>
          <note pan="0" key="42" vol="100" pos="6240" len="5"/>
          <note pan="0" key="30" vol="100" pos="6246" len="5"/>
          <note pan="0" key="42" vol="100" pos="6252" len="5"/>
          <note pan="0" key="54" vol="100" pos="6264" len="11"/>
          <note pan="0" key="42" vol="100" pos="6276" len="5"/>
          <note pan="0" key="42" vol="100" pos="6288" len="5"/>
          <note pan="0" key="30" vol="100" pos="6294" len="5"/>
          <note pan="0" key="42" vol="100" pos="6300" len="5"/>
          <note pan="0" key="54" vol="100" pos="6312" len="11"/>
          <note pan="0" key="42" vol="100" pos="6324" len="5"/>
          <note pan="0" key="44" vol="100" pos="6336" len="5"/>
          <note pan="0" key="32" vol="100" pos="6342" len="5"/>
          <note pan="0" key="44" vol="100" pos="6348" len="5"/>
          <note pan="0" key="56" vol="100" pos="6360" len="11"/>
          <note pan="0" key="44" vol="100" pos="6372" len="5"/>
          <note pan="0" key="44" vol="100" pos="6384" len="5"/>
          <note pan="0" key="32" vol="100" pos="6390" len="5"/>
          <note pan="0" key="44" vol="100" pos="6396" len="5"/>
          <note pan="0" key="56" vol="100" pos="6408" len="11"/>
          <note pan="0" key="44" vol="100" pos="6420" len="5"/>
          <note pan="0" key="44" vol="100" pos="6432" len="5"/>
          <note pan="0" key="32" vol="100" pos="6438" len="5"/>
          <note pan="0" key="44" vol="100" pos="6444" len="5"/>
          <note pan="0" key="56" vol="100" pos="6456" len="11"/>
          <note pan="0" key="44" vol="100" pos="6468" len="5"/>
          <note pan="0" key="41" vol="100" pos="6480" len="5"/>
          <note pan="0" key="29" vol="100" pos="6486" len="5"/>
          <note pan="0" key="41" vol="100" pos="6492" len="5"/>
          <note pan="0" key="53" vol="100" pos="6504" len="11"/>
          <note pan="0" key="41" vol="100" pos="6516" len="5"/>
          <note pan="0" key="46" vol="100" pos="6528" len="5"/>
          <note pan="0" key="34" vol="100" pos="6534" len="5"/>
          <note pan="0" key="46" vol="100" pos="6540" len="5"/>
          <note pan="0" key="58" vol="100" pos="6552" len="11"/>
          <note pan="0" key="46" vol="100" pos="6564" len="5"/>
          <note pan="0" key="46" vol="100" pos="6576" len="5"/>
          <note pan="0" key="34" vol="100" pos="6582" len="5"/>
          <note pan="0" key="46" vol="100" pos="6588" len="5"/>
          <note pan="0" key="58" vol="100" pos="6600" len="11"/>
          <note pan="0" key="46" vol="100" pos="6612" len="5"/>
          <note pan="0" key="46" vol="100" pos="6624" len="5"/>
          <note pan="0" key="34" vol="100" pos="6630" len="5"/>
          <note pan="0" key="46" vol="100" pos="6636" len="5"/>
          <note pan="0" key="58" vol="100" pos="6648" len="11"/>
          <note pan="0" key="46" vol="100" pos="6660" len="5"/>
          <note pan="0" key="46" vol="100" pos="6672" len="5"/>
          <note pan="0" key="34" vol="100" pos="6678" len="5"/>
          <note pan="0" key="46" vol="100" pos="6684" len="5"/>
          <note pan="0" key="58" vol="100" pos="6696" len="11"/>
          <note pan="0" key="46" vol="100" pos="6708" len="5"/>
          <note pan="0" key="46" vol="100" pos="6720" len="5"/>
          <note pan="0" key="34" vol="100" pos="6726" len="5"/>
          <note pan="0" key="46" vol="100" pos="6732" len="5"/>
          <note pan="0" key="58" vol="100" pos="6744" len="11"/>
          <note pan="0" key="46" vol="100" pos="6756" len="5"/>
          <note pan="0" key="46" vol="100" pos="6768" len="5"/>
          <note pan="0" key="34" vol="100" pos="6774" len="5"/>
          <note pan="0" key="46" vol="100" pos="6780" len="5"/>
          <note pan="0" key="58" vol="100" pos="6792" len="11"/>
          <note pan="0" key="46" vol="100" pos="6804" len="5"/>
          <note pan="0" key="41" vol="100" pos="6816" len="5"/>
          <note pan="0" key="29" vol="100" pos="6822" len="5"/>
          <note pan="0" key="41" vol="100" pos="6828" len="5"/>
          <note pan="0" key="53" vol="100" pos="6840" len="11"/>
          <note pan="0" key="41" vol="100" pos="6852" len="5"/>
          <note pan="0" key="41" vol="100" pos="6864" len="5"/>
          <note pan="0" key="29" vol="100" pos="6870" len="5"/>
          <note pan="0" key="41" vol="100" pos="6876" len="5"/>
          <note pan="0" key="53" vol="100" pos="6888" len="11"/>
          <note pan="0" key="41" vol="100" pos="6900" len="5"/>
          <note pan="0" key="42" vol="100" pos="6912" len="5"/>
          <note pan="0" key="30" vol="100" pos="6918" len="5"/>
          <note pan="0" key="42" vol="100" pos="6924" len="5"/>
          <note pan="0" key="54" vol="100" pos="6936" len="11"/>
          <note pan="0" key="42" vol="100" pos="6948" len="5"/>
          <note pan="0" key="42" vol="100" pos="6960" len="5"/>
          <note pan="0" key="30" vol="100" pos="6966" len="5"/>
          <note pan="0" key="42" vol="100" pos="6972" len="5"/>
          <note pan="0" key="54" vol="100" pos="6984" len="11"/>
          <note pan="0" key="42" vol="100" pos="6996" len="5"/>
          <note pan="0" key="42" vol="100" pos="7008" len="5"/>
          <note pan="0" key="30" vol="100" pos="7014" len="5"/>
          <note pan="0" key="42" vol="100" pos="7020" len="5"/>
          <note pan="0" key="54" vol="100" pos="7032" len="11"/>
          <note pan="0" key="42" vol="100" pos="7044" len="5"/>
          <note pan="0" key="42" vol="100" pos="7056" len="5"/>
          <note pan="0" key="30" vol="100" pos="7062" len="5"/>
          <note pan="0" key="42" vol="100" pos="7068" len="5"/>
          <note pan="0" key="54" vol="100" pos="7080" len="11"/>
          <note pan="0" key="42" vol="100" pos="7092" len="5"/>
          <note pan="0" key="44" vol="100" pos="7104" len="5"/>
          <note pan="0" key="32" vol="100" pos="7110" len="5"/>
          <note pan="0" key="44" vol="100" pos="7116" len="5"/>
          <note pan="0" key="56" vol="100" pos="7128" len="11"/>
          <note pan="0" key="44" vol="100" pos="7140" len="5"/>
          <note pan="0" key="44" vol="100" pos="7152" len="5"/>
          <note pan="0" key="32" vol="100" pos="7158" len="5"/>
          <note pan="0" key="44" vol="100" pos="7164" len="5"/>
          <note pan="0" key="56" vol="100" pos="7176" len="11"/>
          <note pan="0" key="44" vol="100" pos="7188" len="5"/>
          <note pan="0" key="45" vol="100" pos="7200" len="5"/>
          <note pan="0" key="33" vol="100" pos="7206" len="5"/>
          <note pan="0" key="45" vol="100" pos="7212" len="5"/>
          <note pan="0" key="57" vol="100" pos="7224" len="11"/>
          <note pan="0" key="45" vol="100" pos="7236" len="5"/>
          <note pan="0" key="45" vol="100" pos="7248" len="5"/>
          <note pan="0" key="33" vol="100" pos="7254" len="5"/>
          <note pan="0" key="45" vol="100" pos="7260" len="5"/>
          <note pan="0" key="57" vol="100" pos="7272" len="11"/>
          <note pan="0" key="45" vol="100" pos="7284" len="5"/>
          <note pan="0" key="46" vol="100" pos="7296" len="5"/>
          <note pan="0" key="34" vol="100" pos="7302" len="5"/>
          <note pan="0" key="46" vol="100" pos="7308" len="5"/>
          <note pan="0" key="58" vol="100" pos="7320" len="11"/>
          <note pan="0" key="46" vol="100" pos="7332" len="5"/>
          <note pan="0" key="46" vol="100" pos="7344" len="5"/>
          <note pan="0" key="34" vol="100" pos="7350" len="5"/>
          <note pan="0" key="46" vol="100" pos="7356" len="5"/>
          <note pan="0" key="58" vol="100" pos="7368" len="11"/>
          <note pan="0" key="46" vol="100" pos="7380" len="5"/>
          <note pan="0" key="46" vol="100" pos="7392" len="5"/>
          <note pan="0" key="34" vol="100" pos="7398" len="5"/>
          <note pan="0" key="46" vol="100" pos="7404" len="5"/>
          <note pan="0" key="58" vol="100" pos="7416" len="11"/>
          <note pan="0" key="46" vol="100" pos="7428" len="5"/>
          <note pan="0" key="46" vol="100" pos="7440" len="5"/>
          <note pan="0" key="34" vol="100" pos="7446" len="5"/>
          <note pan="0" key="46" vol="100" pos="7452" len="5"/>
          <note pan="0" key="58" vol="100" pos="7464" len="11"/>
          <note pan="0" key="46" vol="100" pos="7476" len="5"/>
          <note pan="0" key="44" vol="100" pos="7488" len="5"/>
          <note pan="0" key="32" vol="100" pos="7494" len="5"/>
          <note pan="0" key="44" vol="100" pos="7500" len="5"/>
          <note pan="0" key="56" vol="100" pos="7512" len="11"/>
          <note pan="0" key="44" vol="100" pos="7524" len="5"/>
          <note pan="0" key="44" vol="100" pos="7536" len="5"/>
          <note pan="0" key="32" vol="100" pos="7542" len="5"/>
          <note pan="0" key="44" vol="100" pos="7548" len="5"/>
          <note pan="0" key="56" vol="100" pos="7560" len="11"/>
          <note pan="0" key="44" vol="100" pos="7572" len="5"/>
          <note pan="0" key="49" vol="100" pos="7584" len="5"/>
          <note pan="0" key="37" vol="100" pos="7590" len="5"/>
          <note pan="0" key="49" vol="100" pos="7596" len="5"/>
          <note pan="0" key="61" vol="100" pos="7608" len="11"/>
          <note pan="0" key="49" vol="100" pos="7620" len="5"/>
          <note pan="0" key="49" vol="100" pos="7632" len="5"/>
          <note pan="0" key="37" vol="100" pos="7638" len="5"/>
          <note pan="0" key="49" vol="100" pos="7644" len="5"/>
          <note pan="0" key="61" vol="100" pos="7656" len="11"/>
          <note pan="0" key="49" vol="100" pos="7668" len="5"/>
          <note pan="0" key="42" vol="100" pos="7680" len="5"/>
          <note pan="0" key="30" vol="100" pos="7686" len="5"/>
          <note pan="0" key="42" vol="100" pos="7692" len="5"/>
          <note pan="0" key="54" vol="100" pos="7704" len="11"/>
          <note pan="0" key="42" vol="100" pos="7716" len="5"/>
          <note pan="0" key="42" vol="100" pos="7728" len="5"/>
          <note pan="0" key="30" vol="100" pos="7734" len="5"/>
          <note pan="0" key="42" vol="100" pos="7740" len="5"/>
          <note pan="0" key="54" vol="100" pos="7752" len="11"/>
          <note pan="0" key="42" vol="100" pos="7764" len="5"/>
          <note pan="0" key="42" vol="100" pos="7776" len="5"/>
          <note pan="0" key="30" vol="100" pos="7782" len="5"/>
          <note pan="0" key="42" vol="100" pos="7788" len="5"/>
          <note pan="0" key="54" vol="100" pos="7800" len="11"/>
          <note pan="0" key="42" vol="100" pos="7812" len="5"/>
          <note pan="0" key="42" vol="100" pos="7824" len="5"/>
          <note pan="0" key="30" vol="100" pos="7830" len="5"/>
          <note pan="0" key="42" vol="100" pos="7836" len="5"/>
          <note pan="0" key="54" vol="100" pos="7848" len="11"/>
          <note pan="0" key="42" vol="100" pos="7860" len="5"/>
          <note pan="0" key="44" vol="100" pos="7872" len="5"/>
          <note pan="0" key="32" vol="100" pos="7878" len="5"/>
          <note pan="0" key="44" vol="100" pos="7884" len="5"/>
          <note pan="0" key="56" vol="100" pos="7896" len="11"/>
          <note pan="0" key="44" vol="100" pos="7908" len="5"/>
          <note pan="0" key="44" vol="100" pos="7920" len="5"/>
          <note pan="0" key="32" vol="100" pos="7926" len="5"/>
          <note pan="0" key="44" vol="100" pos="7932" len="5"/>
          <note pan="0" key="56" vol="100" pos="7944" len="11"/>
          <note pan="0" key="44" vol="100" pos="7956" len="5"/>
          <note pan="0" key="44" vol="100" pos="7968" len="5"/>
          <note pan="0" key="32" vol="100" pos="7974" len="5"/>
          <note pan="0" key="44" vol="100" pos="7980" len="5"/>
          <note pan="0" key="56" vol="100" pos="7992" len="11"/>
          <note pan="0" key="44" vol="100" pos="8004" len="5"/>
          <note pan="0" key="44" vol="100" pos="8016" len="5"/>
          <note pan="0" key="32" vol="100" pos="8022" len="5"/>
          <note pan="0" key="44" vol="100" pos="8028" len="5"/>
          <note pan="0" key="56" vol="100" pos="8040" len="11"/>
          <note pan="0" key="44" vol="100" pos="8052" len="5"/>
          <note pan="0" key="46" vol="100" pos="8064" len="5"/>
          <note pan="0" key="34" vol="100" pos="8070" len="5"/>
          <note pan="0" key="46" vol="100" pos="8076" len="5"/>
          <note pan="0" key="58" vol="100" pos="8088" len="11"/>
          <note pan="0" key="46" vol="100" pos="8100" len="5"/>
          <note pan="0" key="46" vol="100" pos="8112" len="5"/>
          <note pan="0" key="34" vol="100" pos="8118" len="5"/>
          <note pan="0" key="46" vol="100" pos="8124" len="5"/>
          <note pan="0" key="58" vol="100" pos="8136" len="11"/>
          <note pan="0" key="46" vol="100" pos="8148" len="5"/>
          <note pan="0" key="46" vol="100" pos="8160" len="5"/>
          <note pan="0" key="34" vol="100" pos="8166" len="5"/>
          <note pan="0" key="46" vol="100" pos="8172" len="5"/>
          <note pan="0" key="58" vol="100" pos="8184" len="11"/>
          <note pan="0" key="46" vol="100" pos="8196" len="5"/>
          <note pan="0" key="46" vol="100" pos="8208" len="5"/>
          <note pan="0" key="34" vol="100" pos="8214" len="5"/>
          <note pan="0" key="46" vol="100" pos="8220" len="5"/>
          <note pan="0" key="58" vol="100" pos="8232" len="11"/>
          <note pan="0" key="46" vol="100" pos="8244" len="5"/>
          <note pan="0" key="46" vol="100" pos="8256" len="5"/>
          <note pan="0" key="34" vol="100" pos="8262" len="5"/>
          <note pan="0" key="46" vol="100" pos="8268" len="5"/>
          <note pan="0" key="58" vol="100" pos="8280" len="11"/>
          <note pan="0" key="46" vol="100" pos="8292" len="5"/>
          <note pan="0" key="46" vol="100" pos="8304" len="5"/>
          <note pan="0" key="34" vol="100" pos="8310" len="5"/>
          <note pan="0" key="46" vol="100" pos="8316" len="5"/>
          <note pan="0" key="58" vol="100" pos="8328" len="11"/>
          <note pan="0" key="46" vol="100" pos="8340" len="5"/>
          <note pan="0" key="41" vol="100" pos="8352" len="5"/>
          <note pan="0" key="29" vol="100" pos="8358" len="5"/>
          <note pan="0" key="41" vol="100" pos="8364" len="5"/>
          <note pan="0" key="53" vol="100" pos="8376" len="11"/>
          <note pan="0" key="41" vol="100" pos="8388" len="5"/>
          <note pan="0" key="41" vol="100" pos="8400" len="5"/>
          <note pan="0" key="29" vol="100" pos="8406" len="5"/>
          <note pan="0" key="41" vol="100" pos="8412" len="5"/>
          <note pan="0" key="53" vol="100" pos="8424" len="11"/>
          <note pan="0" key="41" vol="100" pos="8436" len="5"/>
          <note pan="0" key="42" vol="100" pos="8448" len="23"/>
          <note pan="0" key="54" vol="100" pos="8472" len="23"/>
          <note pan="0" key="49" vol="100" pos="8496" len="23"/>
          <note pan="0" key="54" vol="100" pos="8520" len="23"/>
          <note pan="0" key="42" vol="100" pos="8544" len="23"/>
          <note pan="0" key="54" vol="100" pos="8568" len="23"/>
          <note pan="0" key="49" vol="100" pos="8592" len="23"/>
          <note pan="0" key="54" vol="100" pos="8616" len="23"/>
          <note pan="0" key="44" vol="100" pos="8640" len="23"/>
          <note pan="0" key="56" vol="100" pos="8664" len="23"/>
          <note pan="0" key="51" vol="100" pos="8688" len="23"/>
          <note pan="0" key="56" vol="100" pos="8712" len="23"/>
          <note pan="0" key="41" vol="100" pos="8736" len="23"/>
          <note pan="0" key="53" vol="100" pos="8760" len="23"/>
          <note pan="0" key="48" vol="100" pos="8784" len="23"/>
          <note pan="0" key="53" vol="100" pos="8808" len="23"/>
          <note pan="0" key="46" vol="100" pos="8832" len="23"/>
          <note pan="0" key="58" vol="100" pos="8856" len="23"/>
          <note pan="0" key="53" vol="100" pos="8880" len="17"/>
          <note pan="0" key="58" vol="100" pos="8904" len="17"/>
          <note pan="0" key="46" vol="100" pos="8928" len="11"/>
          <note pan="0" key="58" vol="100" pos="8952" len="11"/>
          <note pan="0" key="53" vol="100" pos="8976" len="5"/>
          <note pan="0" key="53" vol="100" pos="8988" len="5"/>
          <note pan="0" key="58" vol="100" pos="9000" len="5"/>
          <note pan="0" key="58" vol="100" pos="9012" len="5"/>
          <note pan="0" key="46" vol="100" pos="9024" len="5"/>
          <note pan="0" key="46" vol="100" pos="9036" len="5"/>
          <note pan="0" key="58" vol="100" pos="9048" len="5"/>
          <note pan="0" key="58" vol="100" pos="9060" len="5"/>
          <note pan="0" key="53" vol="100" pos="9072" len="5"/>
          <note pan="0" key="53" vol="100" pos="9084" len="5"/>
          <note pan="0" key="58" vol="100" pos="9096" len="5"/>
          <note pan="0" key="58" vol="100" pos="9108" len="5"/>
          <note pan="0" key="46" vol="100" pos="9120" len="5"/>
          <note pan="0" key="46" vol="100" pos="9132" len="5"/>
          <note pan="0" key="58" vol="100" pos="9144" len="5"/>
          <note pan="0" key="58" vol="100" pos="9156" len="5"/>
          <note pan="0" key="53" vol="100" pos="9168" len="5"/>
          <note pan="0" key="53" vol="100" pos="9180" len="5"/>
          <note pan="0" key="58" vol="100" pos="9192" len="5"/>
          <note pan="0" key="58" vol="100" pos="9204" len="5"/>
          <note pan="0" key="58" vol="100" pos="9216" len="5"/>
          <note pan="0" key="49" vol="100" pos="9222" len="5"/>
          <note pan="0" key="42" vol="100" pos="9228" len="5"/>
          <note pan="0" key="58" vol="100" pos="9234" len="5"/>
          <note pan="0" key="49" vol="100" pos="9240" len="5"/>
          <note pan="0" key="42" vol="100" pos="9246" len="5"/>
          <note pan="0" key="58" vol="100" pos="9252" len="5"/>
          <note pan="0" key="49" vol="100" pos="9258" len="5"/>
          <note pan="0" key="42" vol="100" pos="9264" len="5"/>
          <note pan="0" key="58" vol="100" pos="9270" len="5"/>
          <note pan="0" key="49" vol="100" pos="9276" len="5"/>
          <note pan="0" key="42" vol="100" pos="9282" len="5"/>
          <note pan="0" key="58" vol="100" pos="9288" len="5"/>
          <note pan="0" key="49" vol="100" pos="9294" len="5"/>
          <note pan="0" key="42" vol="100" pos="9300" len="5"/>
          <note pan="0" key="58" vol="100" pos="9306" len="5"/>
          <note pan="0" key="49" vol="100" pos="9312" len="5"/>
          <note pan="0" key="42" vol="100" pos="9318" len="5"/>
          <note pan="0" key="58" vol="100" pos="9324" len="5"/>
          <note pan="0" key="49" vol="100" pos="9330" len="5"/>
          <note pan="0" key="42" vol="100" pos="9336" len="5"/>
          <note pan="0" key="58" vol="100" pos="9342" len="5"/>
          <note pan="0" key="49" vol="100" pos="9348" len="5"/>
          <note pan="0" key="42" vol="100" pos="9354" len="5"/>
          <note pan="0" key="58" vol="100" pos="9360" len="5"/>
          <note pan="0" key="49" vol="100" pos="9366" len="5"/>
          <note pan="0" key="42" vol="100" pos="9372" len="5"/>
          <note pan="0" key="58" vol="100" pos="9378" len="5"/>
          <note pan="0" key="49" vol="100" pos="9384" len="5"/>
          <note pan="0" key="42" vol="100" pos="9390" len="5"/>
          <note pan="0" key="58" vol="100" pos="9396" len="5"/>
          <note pan="0" key="49" vol="100" pos="9402" len="5"/>
          <note pan="0" key="60" vol="100" pos="9408" len="5"/>
          <note pan="0" key="51" vol="100" pos="9414" len="5"/>
          <note pan="0" key="44" vol="100" pos="9420" len="5"/>
          <note pan="0" key="60" vol="100" pos="9426" len="5"/>
          <note pan="0" key="51" vol="100" pos="9432" len="5"/>
          <note pan="0" key="44" vol="100" pos="9438" len="5"/>
          <note pan="0" key="60" vol="100" pos="9444" len="5"/>
          <note pan="0" key="51" vol="100" pos="9450" len="5"/>
          <note pan="0" key="44" vol="100" pos="9456" len="5"/>
          <note pan="0" key="60" vol="100" pos="9462" len="5"/>
          <note pan="0" key="51" vol="100" pos="9468" len="5"/>
          <note pan="0" key="44" vol="100" pos="9474" len="5"/>
          <note pan="0" key="60" vol="100" pos="9480" len="5"/>
          <note pan="0" key="51" vol="100" pos="9486" len="5"/>
          <note pan="0" key="44" vol="100" pos="9492" len="5"/>
          <note pan="0" key="60" vol="100" pos="9498" len="5"/>
          <note pan="0" key="51" vol="100" pos="9504" len="5"/>
          <note pan="0" key="44" vol="100" pos="9510" len="5"/>
          <note pan="0" key="60" vol="100" pos="9516" len="5"/>
          <note pan="0" key="51" vol="100" pos="9522" len="5"/>
          <note pan="0" key="44" vol="100" pos="9528" len="5"/>
          <note pan="0" key="60" vol="100" pos="9534" len="5"/>
          <note pan="0" key="51" vol="100" pos="9540" len="5"/>
          <note pan="0" key="44" vol="100" pos="9546" len="5"/>
          <note pan="0" key="60" vol="100" pos="9552" len="5"/>
          <note pan="0" key="51" vol="100" pos="9558" len="5"/>
          <note pan="0" key="44" vol="100" pos="9564" len="5"/>
          <note pan="0" key="60" vol="100" pos="9570" len="5"/>
          <note pan="0" key="51" vol="100" pos="9576" len="5"/>
          <note pan="0" key="44" vol="100" pos="9582" len="5"/>
          <note pan="0" key="60" vol="100" pos="9588" len="5"/>
          <note pan="0" key="51" vol="100" pos="9594" len="5"/>
          <note pan="0" key="61" vol="100" pos="9600" len="5"/>
          <note pan="0" key="53" vol="100" pos="9606" len="5"/>
          <note pan="0" key="46" vol="100" pos="9612" len="5"/>
          <note pan="0" key="61" vol="100" pos="9618" len="5"/>
          <note pan="0" key="53" vol="100" pos="9624" len="5"/>
          <note pan="0" key="46" vol="100" pos="9630" len="5"/>
          <note pan="0" key="61" vol="100" pos="9636" len="5"/>
          <note pan="0" key="53" vol="100" pos="9642" len="5"/>
          <note pan="0" key="46" vol="100" pos="9648" len="5"/>
          <note pan="0" key="61" vol="100" pos="9654" len="5"/>
          <note pan="0" key="53" vol="100" pos="9660" len="5"/>
          <note pan="0" key="46" vol="100" pos="9666" len="5"/>
          <note pan="0" key="61" vol="100" pos="9672" len="5"/>
          <note pan="0" key="53" vol="100" pos="9678" len="5"/>
          <note pan="0" key="46" vol="100" pos="9684" len="5"/>
          <note pan="0" key="61" vol="100" pos="9690" len="5"/>
          <note pan="0" key="53" vol="100" pos="9696" len="5"/>
          <note pan="0" key="46" vol="100" pos="9702" len="5"/>
          <note pan="0" key="61" vol="100" pos="9708" len="5"/>
          <note pan="0" key="53" vol="100" pos="9714" len="5"/>
          <note pan="0" key="46" vol="100" pos="9720" len="5"/>
          <note pan="0" key="61" vol="100" pos="9726" len="5"/>
          <note pan="0" key="53" vol="100" pos="9732" len="5"/>
          <note pan="0" key="46" vol="100" pos="9738" len="5"/>
          <note pan="0" key="61" vol="100" pos="9744" len="5"/>
          <note pan="0" key="53" vol="100" pos="9750" len="5"/>
          <note pan="0" key="46" vol="100" pos="9756" len="5"/>
          <note pan="0" key="61" vol="100" pos="9762" len="5"/>
          <note pan="0" key="53" vol="100" pos="9768" len="5"/>
          <note pan="0" key="46" vol="100" pos="9774" len="5"/>
          <note pan="0" key="61" vol="100" pos="9780" len="5"/>
          <note pan="0" key="53" vol="100" pos="9786" len="5"/>
          <note pan="0" key="56" vol="100" pos="9792" len="5"/>
          <note pan="0" key="48" vol="100" pos="9798" len="5"/>
          <note pan="0" key="65" vol="100" pos="9804" len="5"/>
          <note pan="0" key="56" vol="100" pos="9810" len="5"/>
          <note pan="0" key="48" vol="100" pos="9816" len="5"/>
          <note pan="0" key="65" vol="100" pos="9822" len="5"/>
          <note pan="0" key="56" vol="100" pos="9828" len="5"/>
          <note pan="0" key="48" vol="100" pos="9834" len="5"/>
          <note pan="0" key="65" vol="100" pos="9840" len="5"/>
          <note pan="0" key="56" vol="100" pos="9846" len="5"/>
          <note pan="0" key="48" vol="100" pos="9852" len="5"/>
          <note pan="0" key="65" vol="100" pos="9858" len="5"/>
          <note pan="0" key="56" vol="100" pos="9864" len="5"/>
          <note pan="0" key="48" vol="100" pos="9870" len="5"/>
          <note pan="0" key="65" vol="100" pos="9876" len="5"/>
          <note pan="0" key="56" vol="100" pos="9882" len="5"/>
          <note pan="0" key="48" vol="100" pos="9888" len="5"/>
          <note pan="0" key="65" vol="100" pos="9894" len="5"/>
          <note pan="0" key="56" vol="100" pos="9900" len="5"/>
          <note pan="0" key="48" vol="100" pos="9906" len="5"/>
          <note pan="0" key="65" vol="100" pos="9912" len="5"/>
          <note pan="0" key="56" vol="100" pos="9918" len="5"/>
          <note pan="0" key="48" vol="100" pos="9924" len="5"/>
          <note pan="0" key="65" vol="100" pos="9930" len="5"/>
          <note pan="0" key="56" vol="100" pos="9936" len="5"/>
          <note pan="0" key="48" vol="100" pos="9942" len="5"/>
          <note pan="0" key="65" vol="100" pos="9948" len="5"/>
          <note pan="0" key="56" vol="100" pos="9954" len="5"/>
          <note pan="0" key="48" vol="100" pos="9960" len="5"/>
          <note pan="0" key="65" vol="100" pos="9966" len="5"/>
          <note pan="0" key="56" vol="100" pos="9972" len="5"/>
          <note pan="0" key="48" vol="100" pos="9978" len="5"/>
          <note pan="0" key="66" vol="100" pos="9984" len="5"/>
          <note pan="0" key="58" vol="100" pos="9990" len="5"/>
          <note pan="0" key="49" vol="100" pos="9996" len="5"/>
          <note pan="0" key="66" vol="100" pos="10002" len="5"/>
          <note pan="0" key="58" vol="100" pos="10008" len="5"/>
          <note pan="0" key="49" vol="100" pos="10014" len="5"/>
          <note pan="0" key="66" vol="100" pos="10020" len="5"/>
          <note pan="0" key="58" vol="100" pos="10026" len="5"/>
          <note pan="0" key="49" vol="100" pos="10032" len="5"/>
          <note pan="0" key="66" vol="100" pos="10038" len="5"/>
          <note pan="0" key="58" vol="100" pos="10044" len="5"/>
          <note pan="0" key="49" vol="100" pos="10050" len="5"/>
          <note pan="0" key="66" vol="100" pos="10056" len="5"/>
          <note pan="0" key="58" vol="100" pos="10062" len="5"/>
          <note pan="0" key="49" vol="100" pos="10068" len="5"/>
          <note pan="0" key="66" vol="100" pos="10074" len="5"/>
          <note pan="0" key="58" vol="100" pos="10080" len="5"/>
          <note pan="0" key="49" vol="100" pos="10086" len="5"/>
          <note pan="0" key="66" vol="100" pos="10092" len="5"/>
          <note pan="0" key="58" vol="100" pos="10098" len="5"/>
          <note pan="0" key="49" vol="100" pos="10104" len="5"/>
          <note pan="0" key="66" vol="100" pos="10110" len="5"/>
          <note pan="0" key="58" vol="100" pos="10116" len="5"/>
          <note pan="0" key="49" vol="100" pos="10122" len="5"/>
          <note pan="0" key="66" vol="100" pos="10128" len="5"/>
          <note pan="0" key="58" vol="100" pos="10134" len="5"/>
          <note pan="0" key="49" vol="100" pos="10140" len="5"/>
          <note pan="0" key="66" vol="100" pos="10146" len="5"/>
          <note pan="0" key="58" vol="100" pos="10152" len="5"/>
          <note pan="0" key="49" vol="100" pos="10158" len="5"/>
          <note pan="0" key="66" vol="100" pos="10164" len="5"/>
          <note pan="0" key="58" vol="100" pos="10170" len="5"/>
          <note pan="0" key="68" vol="100" pos="10176" len="5"/>
          <note pan="0" key="60" vol="100" pos="10182" len="5"/>
          <note pan="0" key="51" vol="100" pos="10188" len="5"/>
          <note pan="0" key="68" vol="100" pos="10194" len="5"/>
          <note pan="0" key="60" vol="100" pos="10200" len="5"/>
          <note pan="0" key="51" vol="100" pos="10206" len="5"/>
          <note pan="0" key="68" vol="100" pos="10212" len="5"/>
          <note pan="0" key="60" vol="100" pos="10218" len="5"/>
          <note pan="0" key="51" vol="100" pos="10224" len="5"/>
          <note pan="0" key="68" vol="100" pos="10230" len="5"/>
          <note pan="0" key="60" vol="100" pos="10236" len="5"/>
          <note pan="0" key="51" vol="100" pos="10242" len="5"/>
          <note pan="0" key="68" vol="100" pos="10248" len="5"/>
          <note pan="0" key="60" vol="100" pos="10254" len="5"/>
          <note pan="0" key="51" vol="100" pos="10260" len="5"/>
          <note pan="0" key="68" vol="100" pos="10266" len="5"/>
          <note pan="0" key="60" vol="100" pos="10272" len="5"/>
          <note pan="0" key="51" vol="100" pos="10278" len="5"/>
          <note pan="0" key="68" vol="100" pos="10284" len="5"/>
          <note pan="0" key="60" vol="100" pos="10290" len="5"/>
          <note pan="0" key="51" vol="100" pos="10296" len="5"/>
          <note pan="0" key="68" vol="100" pos="10302" len="5"/>
          <note pan="0" key="60" vol="100" pos="10308" len="5"/>
          <note pan="0" key="51" vol="100" pos="10314" len="5"/>
          <note pan="0" key="68" vol="100" pos="10320" len="5"/>
          <note pan="0" key="60" vol="100" pos="10326" len="5"/>
          <note pan="0" key="51" vol="100" pos="10332" len="5"/>
          <note pan="0" key="68" vol="100" pos="10338" len="5"/>
          <note pan="0" key="60" vol="100" pos="10344" len="5"/>
          <note pan="0" key="51" vol="100" pos="10350" len="5"/>
          <note pan="0" key="68" vol="100" pos="10356" len="5"/>
          <note pan="0" key="60" vol="100" pos="10362" len="5"/>
          <note pan="0" key="70" vol="100" pos="10368" len="5"/>
          <note pan="0" key="61" vol="100" pos="10374" len="5"/>
          <note pan="0" key="53" vol="100" pos="10380" len="5"/>
          <note pan="0" key="70" vol="100" pos="10386" len="5"/>
          <note pan="0" key="61" vol="100" pos="10392" len="5"/>
          <note pan="0" key="53" vol="100" pos="10398" len="5"/>
          <note pan="0" key="70" vol="100" pos="10404" len="5"/>
          <note pan="0" key="61" vol="100" pos="10410" len="5"/>
          <note pan="0" key="53" vol="100" pos="10416" len="5"/>
          <note pan="0" key="70" vol="100" pos="10422" len="5"/>
          <note pan="0" key="61" vol="100" pos="10428" len="5"/>
          <note pan="0" key="53" vol="100" pos="10434" len="5"/>
          <note pan="0" key="70" vol="100" pos="10440" len="5"/>
          <note pan="0" key="61" vol="100" pos="10446" len="5"/>
          <note pan="0" key="53" vol="100" pos="10452" len="5"/>
          <note pan="0" key="70" vol="100" pos="10458" len="5"/>
          <note pan="0" key="61" vol="100" pos="10464" len="5"/>
          <note pan="0" key="53" vol="100" pos="10470" len="5"/>
          <note pan="0" key="70" vol="100" pos="10476" len="5"/>
          <note pan="0" key="61" vol="100" pos="10482" len="5"/>
          <note pan="0" key="53" vol="100" pos="10488" len="5"/>
          <note pan="0" key="70" vol="100" pos="10494" len="5"/>
          <note pan="0" key="61" vol="100" pos="10500" len="5"/>
          <note pan="0" key="53" vol="100" pos="10506" len="5"/>
          <note pan="0" key="70" vol="100" pos="10512" len="5"/>
          <note pan="0" key="61" vol="100" pos="10518" len="5"/>
          <note pan="0" key="53" vol="100" pos="10524" len="5"/>
          <note pan="0" key="70" vol="100" pos="10530" len="5"/>
          <note pan="0" key="61" vol="100" pos="10536" len="5"/>
          <note pan="0" key="53" vol="100" pos="10542" len="5"/>
          <note pan="0" key="70" vol="100" pos="10548" len="5"/>
          <note pan="0" key="61" vol="100" pos="10554" len="5"/>
          <note pan="0" key="72" vol="100" pos="10560" len="5"/>
          <note pan="0" key="65" vol="100" pos="10566" len="5"/>
          <note pan="0" key="56" vol="100" pos="10572" len="5"/>
          <note pan="0" key="72" vol="100" pos="10578" len="5"/>
          <note pan="0" key="65" vol="100" pos="10584" len="5"/>
          <note pan="0" key="56" vol="100" pos="10590" len="5"/>
          <note pan="0" key="72" vol="100" pos="10596" len="5"/>
          <note pan="0" key="65" vol="100" pos="10602" len="5"/>
          <note pan="0" key="56" vol="100" pos="10608" len="5"/>
          <note pan="0" key="72" vol="100" pos="10614" len="5"/>
          <note pan="0" key="65" vol="100" pos="10620" len="5"/>
          <note pan="0" key="56" vol="100" pos="10626" len="5"/>
          <note pan="0" key="72" vol="100" pos="10632" len="5"/>
          <note pan="0" key="65" vol="100" pos="10638" len="5"/>
          <note pan="0" key="56" vol="100" pos="10644" len="5"/>
          <note pan="0" key="72" vol="100" pos="10650" len="5"/>
          <note pan="0" key="68" vol="100" pos="10656" len="5"/>
          <note pan="0" key="60" vol="100" pos="10662" len="5"/>
          <note pan="0" key="51" vol="100" pos="10668" len="5"/>
          <note pan="0" key="68" vol="100" pos="10674" len="5"/>
          <note pan="0" key="60" vol="100" pos="10680" len="5"/>
          <note pan="0" key="51" vol="100" pos="10686" len="5"/>
          <note pan="0" key="68" vol="100" pos="10692" len="5"/>
          <note pan="0" key="60" vol="100" pos="10698" len="5"/>
          <note pan="0" key="51" vol="100" pos="10704" len="5"/>
          <note pan="0" key="68" vol="100" pos="10710" len="5"/>
          <note pan="0" key="60" vol="100" pos="10716" len="5"/>
          <note pan="0" key="51" vol="100" pos="10722" len="5"/>
          <note pan="0" key="68" vol="100" pos="10728" len="5"/>
          <note pan="0" key="60" vol="100" pos="10734" len="5"/>
          <note pan="0" key="51" vol="100" pos="10740" len="5"/>
          <note pan="0" key="68" vol="100" pos="10746" len="5"/>
          <note pan="0" key="58" vol="100" pos="10752" len="5"/>
          <note pan="0" key="49" vol="100" pos="10758" len="5"/>
          <note pan="0" key="42" vol="100" pos="10764" len="5"/>
          <note pan="0" key="58" vol="100" pos="10770" len="5"/>
          <note pan="0" key="49" vol="100" pos="10776" len="5"/>
          <note pan="0" key="42" vol="100" pos="10782" len="5"/>
          <note pan="0" key="58" vol="100" pos="10788" len="5"/>
          <note pan="0" key="49" vol="100" pos="10794" len="5"/>
          <note pan="0" key="42" vol="100" pos="10800" len="5"/>
          <note pan="0" key="58" vol="100" pos="10806" len="5"/>
          <note pan="0" key="49" vol="100" pos="10812" len="5"/>
          <note pan="0" key="42" vol="100" pos="10818" len="5"/>
          <note pan="0" key="58" vol="100" pos="10824" len="5"/>
          <note pan="0" key="49" vol="100" pos="10830" len="5"/>
          <note pan="0" key="42" vol="100" pos="10836" len="5"/>
          <note pan="0" key="58" vol="100" pos="10842" len="5"/>
          <note pan="0" key="49" vol="100" pos="10848" len="5"/>
          <note pan="0" key="42" vol="100" pos="10854" len="5"/>
          <note pan="0" key="58" vol="100" pos="10860" len="5"/>
          <note pan="0" key="49" vol="100" pos="10866" len="5"/>
          <note pan="0" key="42" vol="100" pos="10872" len="5"/>
          <note pan="0" key="58" vol="100" pos="10878" len="5"/>
          <note pan="0" key="49" vol="100" pos="10884" len="5"/>
          <note pan="0" key="42" vol="100" pos="10890" len="5"/>
          <note pan="0" key="58" vol="100" pos="10896" len="5"/>
          <note pan="0" key="49" vol="100" pos="10902" len="5"/>
          <note pan="0" key="42" vol="100" pos="10908" len="5"/>
          <note pan="0" key="58" vol="100" pos="10914" len="5"/>
          <note pan="0" key="49" vol="100" pos="10920" len="5"/>
          <note pan="0" key="42" vol="100" pos="10926" len="5"/>
          <note pan="0" key="58" vol="100" pos="10932" len="5"/>
          <note pan="0" key="49" vol="100" pos="10938" len="5"/>
          <note pan="0" key="60" vol="100" pos="10944" len="5"/>
          <note pan="0" key="51" vol="100" pos="10950" len="5"/>
          <note pan="0" key="44" vol="100" pos="10956" len="5"/>
          <note pan="0" key="60" vol="100" pos="10962" len="5"/>
          <note pan="0" key="51" vol="100" pos="10968" len="5"/>
          <note pan="0" key="44" vol="100" pos="10974" len="5"/>
          <note pan="0" key="60" vol="100" pos="10980" len="5"/>
          <note pan="0" key="51" vol="100" pos="10986" len="5"/>
          <note pan="0" key="44" vol="100" pos="10992" len="5"/>
          <note pan="0" key="60" vol="100" pos="10998" len="5"/>
          <note pan="0" key="51" vol="100" pos="11004" len="5"/>
          <note pan="0" key="44" vol="100" pos="11010" len="5"/>
          <note pan="0" key="60" vol="100" pos="11016" len="5"/>
          <note pan="0" key="51" vol="100" pos="11022" len="5"/>
          <note pan="0" key="44" vol="100" pos="11028" len="5"/>
          <note pan="0" key="60" vol="100" pos="11034" len="5"/>
          <note pan="0" key="51" vol="100" pos="11040" len="5"/>
          <note pan="0" key="44" vol="100" pos="11046" len="5"/>
          <note pan="0" key="60" vol="100" pos="11052" len="5"/>
          <note pan="0" key="51" vol="100" pos="11058" len="5"/>
          <note pan="0" key="44" vol="100" pos="11064" len="5"/>
          <note pan="0" key="60" vol="100" pos="11070" len="5"/>
          <note pan="0" key="51" vol="100" pos="11076" len="5"/>
          <note pan="0" key="44" vol="100" pos="11082" len="5"/>
          <note pan="0" key="60" vol="100" pos="11088" len="5"/>
          <note pan="0" key="51" vol="100" pos="11094" len="5"/>
          <note pan="0" key="44" vol="100" pos="11100" len="5"/>
          <note pan="0" key="60" vol="100" pos="11106" len="5"/>
          <note pan="0" key="51" vol="100" pos="11112" len="5"/>
          <note pan="0" key="44" vol="100" pos="11118" len="5"/>
          <note pan="0" key="60" vol="100" pos="11124" len="5"/>
          <note pan="0" key="51" vol="100" pos="11130" len="5"/>
          <note pan="0" key="61" vol="100" pos="11136" len="5"/>
          <note pan="0" key="53" vol="100" pos="11142" len="5"/>
          <note pan="0" key="46" vol="100" pos="11148" len="5"/>
          <note pan="0" key="61" vol="100" pos="11154" len="5"/>
          <note pan="0" key="53" vol="100" pos="11160" len="5"/>
          <note pan="0" key="46" vol="100" pos="11166" len="5"/>
          <note pan="0" key="61" vol="100" pos="11172" len="5"/>
          <note pan="0" key="53" vol="100" pos="11178" len="5"/>
          <note pan="0" key="46" vol="100" pos="11184" len="5"/>
          <note pan="0" key="61" vol="100" pos="11190" len="5"/>
          <note pan="0" key="53" vol="100" pos="11196" len="5"/>
          <note pan="0" key="46" vol="100" pos="11202" len="5"/>
          <note pan="0" key="61" vol="100" pos="11208" len="5"/>
          <note pan="0" key="53" vol="100" pos="11214" len="5"/>
          <note pan="0" key="46" vol="100" pos="11220" len="5"/>
          <note pan="0" key="61" vol="100" pos="11226" len="5"/>
          <note pan="0" key="53" vol="100" pos="11232" len="5"/>
          <note pan="0" key="46" vol="100" pos="11238" len="5"/>
          <note pan="0" key="61" vol="100" pos="11244" len="5"/>
          <note pan="0" key="53" vol="100" pos="11250" len="5"/>
          <note pan="0" key="46" vol="100" pos="11256" len="5"/>
          <note pan="0" key="61" vol="100" pos="11262" len="5"/>
          <note pan="0" key="53" vol="100" pos="11268" len="5"/>
          <note pan="0" key="46" vol="100" pos="11274" len="5"/>
          <note pan="0" key="61" vol="100" pos="11280" len="5"/>
          <note pan="0" key="53" vol="100" pos="11286" len="5"/>
          <note pan="0" key="46" vol="100" pos="11292" len="5"/>
          <note pan="0" key="61" vol="100" pos="11298" len="5"/>
          <note pan="0" key="53" vol="100" pos="11304" len="5"/>
          <note pan="0" key="46" vol="100" pos="11310" len="5"/>
          <note pan="0" key="61" vol="100" pos="11316" len="5"/>
          <note pan="0" key="53" vol="100" pos="11322" len="5"/>
          <note pan="0" key="56" vol="100" pos="11328" len="5"/>
          <note pan="0" key="48" vol="100" pos="11334" len="5"/>
          <note pan="0" key="65" vol="100" pos="11340" len="5"/>
          <note pan="0" key="56" vol="100" pos="11346" len="5"/>
          <note pan="0" key="48" vol="100" pos="11352" len="5"/>
          <note pan="0" key="65" vol="100" pos="11358" len="5"/>
          <note pan="0" key="56" vol="100" pos="11364" len="5"/>
          <note pan="0" key="48" vol="100" pos="11370" len="5"/>
          <note pan="0" key="65" vol="100" pos="11376" len="5"/>
          <note pan="0" key="56" vol="100" pos="11382" len="5"/>
          <note pan="0" key="48" vol="100" pos="11388" len="5"/>
          <note pan="0" key="65" vol="100" pos="11394" len="5"/>
          <note pan="0" key="56" vol="100" pos="11400" len="5"/>
          <note pan="0" key="48" vol="100" pos="11406" len="5"/>
          <note pan="0" key="65" vol="100" pos="11412" len="5"/>
          <note pan="0" key="56" vol="100" pos="11418" len="5"/>
          <note pan="0" key="48" vol="100" pos="11424" len="5"/>
          <note pan="0" key="65" vol="100" pos="11430" len="5"/>
          <note pan="0" key="56" vol="100" pos="11436" len="5"/>
          <note pan="0" key="48" vol="100" pos="11442" len="5"/>
          <note pan="0" key="65" vol="100" pos="11448" len="5"/>
          <note pan="0" key="56" vol="100" pos="11454" len="5"/>
          <note pan="0" key="48" vol="100" pos="11460" len="5"/>
          <note pan="0" key="65" vol="100" pos="11466" len="5"/>
          <note pan="0" key="56" vol="100" pos="11472" len="5"/>
          <note pan="0" key="48" vol="100" pos="11478" len="5"/>
          <note pan="0" key="65" vol="100" pos="11484" len="5"/>
          <note pan="0" key="56" vol="100" pos="11490" len="5"/>
          <note pan="0" key="48" vol="100" pos="11496" len="5"/>
          <note pan="0" key="65" vol="100" pos="11502" len="5"/>
          <note pan="0" key="56" vol="100" pos="11508" len="5"/>
          <note pan="0" key="48" vol="100" pos="11514" len="5"/>
          <note pan="0" key="66" vol="100" pos="11520" len="5"/>
          <note pan="0" key="58" vol="100" pos="11526" len="5"/>
          <note pan="0" key="49" vol="100" pos="11532" len="5"/>
          <note pan="0" key="66" vol="100" pos="11538" len="5"/>
          <note pan="0" key="58" vol="100" pos="11544" len="5"/>
          <note pan="0" key="49" vol="100" pos="11550" len="5"/>
          <note pan="0" key="66" vol="100" pos="11556" len="5"/>
          <note pan="0" key="58" vol="100" pos="11562" len="5"/>
          <note pan="0" key="49" vol="100" pos="11568" len="5"/>
          <note pan="0" key="66" vol="100" pos="11574" len="5"/>
          <note pan="0" key="58" vol="100" pos="11580" len="5"/>
          <note pan="0" key="49" vol="100" pos="11586" len="5"/>
          <note pan="0" key="66" vol="100" pos="11592" len="5"/>
          <note pan="0" key="58" vol="100" pos="11598" len="5"/>
          <note pan="0" key="49" vol="100" pos="11604" len="5"/>
          <note pan="0" key="66" vol="100" pos="11610" len="5"/>
          <note pan="0" key="58" vol="100" pos="11616" len="5"/>
          <note pan="0" key="49" vol="100" pos="11622" len="5"/>
          <note pan="0" key="66" vol="100" pos="11628" len="5"/>
          <note pan="0" key="58" vol="100" pos="11634" len="5"/>
          <note pan="0" key="49" vol="100" pos="11640" len="5"/>
          <note pan="0" key="66" vol="100" pos="11646" len="5"/>
          <note pan="0" key="58" vol="100" pos="11652" len="5"/>
          <note pan="0" key="49" vol="100" pos="11658" len="5"/>
          <note pan="0" key="66" vol="100" pos="11664" len="5"/>
          <note pan="0" key="58" vol="100" pos="11670" len="5"/>
          <note pan="0" key="49" vol="100" pos="11676" len="5"/>
          <note pan="0" key="66" vol="100" pos="11682" len="5"/>
          <note pan="0" key="58" vol="100" pos="11688" len="5"/>
          <note pan="0" key="49" vol="100" pos="11694" len="5"/>
          <note pan="0" key="66" vol="100" pos="11700" len="5"/>
          <note pan="0" key="58" vol="100" pos="11706" len="5"/>
          <note pan="0" key="68" vol="100" pos="11712" len="5"/>
          <note pan="0" key="60" vol="100" pos="11718" len="5"/>
          <note pan="0" key="51" vol="100" pos="11724" len="5"/>
          <note pan="0" key="68" vol="100" pos="11730" len="5"/>
          <note pan="0" key="60" vol="100" pos="11736" len="5"/>
          <note pan="0" key="51" vol="100" pos="11742" len="5"/>
          <note pan="0" key="68" vol="100" pos="11748" len="5"/>
          <note pan="0" key="60" vol="100" pos="11754" len="5"/>
          <note pan="0" key="51" vol="100" pos="11760" len="5"/>
          <note pan="0" key="68" vol="100" pos="11766" len="5"/>
          <note pan="0" key="60" vol="100" pos="11772" len="5"/>
          <note pan="0" key="51" vol="100" pos="11778" len="5"/>
          <note pan="0" key="68" vol="100" pos="11784" len="5"/>
          <note pan="0" key="60" vol="100" pos="11790" len="5"/>
          <note pan="0" key="51" vol="100" pos="11796" len="5"/>
          <note pan="0" key="68" vol="100" pos="11802" len="5"/>
          <note pan="0" key="60" vol="100" pos="11808" len="5"/>
          <note pan="0" key="51" vol="100" pos="11814" len="5"/>
          <note pan="0" key="68" vol="100" pos="11820" len="5"/>
          <note pan="0" key="60" vol="100" pos="11826" len="5"/>
          <note pan="0" key="51" vol="100" pos="11832" len="5"/>
          <note pan="0" key="68" vol="100" pos="11838" len="5"/>
          <note pan="0" key="60" vol="100" pos="11844" len="5"/>
          <note pan="0" key="51" vol="100" pos="11850" len="5"/>
          <note pan="0" key="68" vol="100" pos="11856" len="5"/>
          <note pan="0" key="60" vol="100" pos="11862" len="5"/>
          <note pan="0" key="51" vol="100" pos="11868" len="5"/>
          <note pan="0" key="68" vol="100" pos="11874" len="5"/>
          <note pan="0" key="60" vol="100" pos="11880" len="5"/>
          <note pan="0" key="51" vol="100" pos="11886" len="5"/>
          <note pan="0" key="68" vol="100" pos="11892" len="5"/>
          <note pan="0" key="60" vol="100" pos="11898" len="5"/>
          <note pan="0" key="70" vol="100" pos="11904" len="5"/>
          <note pan="0" key="61" vol="100" pos="11910" len="5"/>
          <note pan="0" key="53" vol="100" pos="11916" len="5"/>
          <note pan="0" key="70" vol="100" pos="11922" len="5"/>
          <note pan="0" key="61" vol="100" pos="11928" len="5"/>
          <note pan="0" key="53" vol="100" pos="11934" len="5"/>
          <note pan="0" key="70" vol="100" pos="11940" len="5"/>
          <note pan="0" key="61" vol="100" pos="11946" len="5"/>
          <note pan="0" key="53" vol="100" pos="11952" len="5"/>
          <note pan="0" key="70" vol="100" pos="11958" len="5"/>
          <note pan="0" key="61" vol="100" pos="11964" len="5"/>
          <note pan="0" key="53" vol="100" pos="11970" len="5"/>
          <note pan="0" key="70" vol="100" pos="11976" len="5"/>
          <note pan="0" key="61" vol="100" pos="11982" len="5"/>
          <note pan="0" key="53" vol="100" pos="11988" len="5"/>
          <note pan="0" key="70" vol="100" pos="11994" len="5"/>
          <note pan="0" key="61" vol="100" pos="12000" len="5"/>
          <note pan="0" key="53" vol="100" pos="12006" len="5"/>
          <note pan="0" key="70" vol="100" pos="12012" len="5"/>
          <note pan="0" key="61" vol="100" pos="12018" len="5"/>
          <note pan="0" key="53" vol="100" pos="12024" len="5"/>
          <note pan="0" key="70" vol="100" pos="12030" len="5"/>
          <note pan="0" key="61" vol="100" pos="12036" len="5"/>
          <note pan="0" key="53" vol="100" pos="12042" len="5"/>
          <note pan="0" key="70" vol="100" pos="12048" len="5"/>
          <note pan="0" key="61" vol="100" pos="12054" len="5"/>
          <note pan="0" key="53" vol="100" pos="12060" len="5"/>
          <note pan="0" key="70" vol="100" pos="12066" len="5"/>
          <note pan="0" key="61" vol="100" pos="12072" len="5"/>
          <note pan="0" key="53" vol="100" pos="12078" len="5"/>
          <note pan="0" key="70" vol="100" pos="12084" len="5"/>
          <note pan="0" key="61" vol="100" pos="12090" len="5"/>
          <note pan="0" key="58" vol="100" pos="12096" len="29"/>
          <note pan="0" key="53" vol="100" pos="12126" len="5"/>
          <note pan="0" key="49" vol="100" pos="12132" len="5"/>
          <note pan="0" key="41" vol="100" pos="12138" len="5"/>
          <note pan="0" key="46" vol="100" pos="12144" len="29"/>
          <note pan="0" key="41" vol="100" pos="12174" len="5"/>
          <note pan="0" key="37" vol="100" pos="12180" len="5"/>
          <note pan="0" key="34" vol="100" pos="12186" len="5"/>
          <note pan="0" key="39" vol="100" pos="12192" len="47"/>
          <note pan="0" key="41" vol="100" pos="12240" len="17"/>
          <note pan="0" key="41" vol="100" pos="12264" len="5"/>
          <note pan="0" key="41" vol="100" pos="12276" len="5"/>
          <note pan="0" key="46" vol="100" pos="12288" len="5"/>
          <note pan="0" key="34" vol="100" pos="12294" len="11"/>
          <note pan="0" key="46" vol="100" pos="12312" len="17"/>
          <note pan="0" key="58" vol="100" pos="12336" len="5"/>
          <note pan="0" key="34" vol="100" pos="12342" len="11"/>
          <note pan="0" key="58" vol="100" pos="12360" len="17"/>
          <note pan="0" key="46" vol="100" pos="12384" len="5"/>
          <note pan="0" key="34" vol="100" pos="12390" len="11"/>
          <note pan="0" key="46" vol="100" pos="12408" len="17"/>
          <note pan="0" key="58" vol="100" pos="12432" len="5"/>
          <note pan="0" key="34" vol="100" pos="12438" len="11"/>
          <note pan="0" key="58" vol="100" pos="12456" len="17"/>
          <note pan="0" key="46" vol="100" pos="12480" len="5"/>
          <note pan="0" key="34" vol="100" pos="12486" len="11"/>
          <note pan="0" key="46" vol="100" pos="12504" len="17"/>
          <note pan="0" key="58" vol="100" pos="12528" len="5"/>
          <note pan="0" key="34" vol="100" pos="12534" len="11"/>
          <note pan="0" key="58" vol="100" pos="12552" len="17"/>
          <note pan="0" key="42" vol="100" pos="12576" len="5"/>
          <note pan="0" key="30" vol="100" pos="12582" len="11"/>
          <note pan="0" key="42" vol="100" pos="12600" len="17"/>
          <note pan="0" key="56" vol="100" pos="12624" len="5"/>
          <note pan="0" key="32" vol="100" pos="12630" len="11"/>
          <note pan="0" key="44" vol="100" pos="12648" len="17"/>
          <note pan="0" key="46" vol="100" pos="12672" len="5"/>
          <note pan="0" key="34" vol="100" pos="12678" len="11"/>
          <note pan="0" key="46" vol="100" pos="12696" len="17"/>
          <note pan="0" key="58" vol="100" pos="12720" len="5"/>
          <note pan="0" key="34" vol="100" pos="12726" len="11"/>
          <note pan="0" key="58" vol="100" pos="12744" len="17"/>
          <note pan="0" key="46" vol="100" pos="12768" len="5"/>
          <note pan="0" key="34" vol="100" pos="12774" len="11"/>
          <note pan="0" key="46" vol="100" pos="12792" len="17"/>
          <note pan="0" key="58" vol="100" pos="12816" len="5"/>
          <note pan="0" key="34" vol="100" pos="12822" len="11"/>
          <note pan="0" key="58" vol="100" pos="12840" len="17"/>
          <note pan="0" key="46" vol="100" pos="12864" len="5"/>
          <note pan="0" key="34" vol="100" pos="12870" len="11"/>
          <note pan="0" key="46" vol="100" pos="12888" len="17"/>
          <note pan="0" key="58" vol="100" pos="12912" len="5"/>
          <note pan="0" key="34" vol="100" pos="12918" len="11"/>
          <note pan="0" key="58" vol="100" pos="12936" len="17"/>
          <note pan="0" key="42" vol="100" pos="12960" len="5"/>
          <note pan="0" key="30" vol="100" pos="12966" len="11"/>
          <note pan="0" key="42" vol="100" pos="12984" len="17"/>
          <note pan="0" key="56" vol="100" pos="13008" len="5"/>
          <note pan="0" key="32" vol="100" pos="13014" len="11"/>
          <note pan="0" key="44" vol="100" pos="13032" len="17"/>
          <note pan="0" key="46" vol="100" pos="13056" len="5"/>
          <note pan="0" key="34" vol="100" pos="13062" len="11"/>
          <note pan="0" key="46" vol="100" pos="13080" len="17"/>
          <note pan="0" key="58" vol="100" pos="13104" len="5"/>
          <note pan="0" key="34" vol="100" pos="13110" len="11"/>
          <note pan="0" key="58" vol="100" pos="13128" len="17"/>
          <note pan="0" key="46" vol="100" pos="13152" len="5"/>
          <note pan="0" key="34" vol="100" pos="13158" len="11"/>
          <note pan="0" key="46" vol="100" pos="13176" len="17"/>
          <note pan="0" key="58" vol="100" pos="13200" len="5"/>
          <note pan="0" key="34" vol="100" pos="13206" len="11"/>
          <note pan="0" key="58" vol="100" pos="13224" len="17"/>
          <note pan="0" key="46" vol="100" pos="13248" len="5"/>
          <note pan="0" key="34" vol="100" pos="13254" len="11"/>
          <note pan="0" key="46" vol="100" pos="13272" len="17"/>
          <note pan="0" key="58" vol="100" pos="13296" len="5"/>
          <note pan="0" key="34" vol="100" pos="13302" len="11"/>
          <note pan="0" key="58" vol="100" pos="13320" len="17"/>
          <note pan="0" key="42" vol="100" pos="13344" len="5"/>
          <note pan="0" key="30" vol="100" pos="13350" len="11"/>
          <note pan="0" key="42" vol="100" pos="13368" len="17"/>
          <note pan="0" key="56" vol="100" pos="13392" len="5"/>
          <note pan="0" key="32" vol="100" pos="13398" len="11"/>
          <note pan="0" key="44" vol="100" pos="13416" len="17"/>
          <note pan="0" key="46" vol="100" pos="13440" len="5"/>
          <note pan="0" key="34" vol="100" pos="13446" len="11"/>
          <note pan="0" key="46" vol="100" pos="13464" len="17"/>
          <note pan="0" key="58" vol="100" pos="13488" len="5"/>
          <note pan="0" key="34" vol="100" pos="13494" len="11"/>
          <note pan="0" key="58" vol="100" pos="13512" len="17"/>
          <note pan="0" key="46" vol="100" pos="13536" len="5"/>
          <note pan="0" key="34" vol="100" pos="13542" len="11"/>
          <note pan="0" key="46" vol="100" pos="13560" len="17"/>
          <note pan="0" key="58" vol="100" pos="13584" len="5"/>
          <note pan="0" key="34" vol="100" pos="13590" len="11"/>
          <note pan="0" key="58" vol="100" pos="13608" len="17"/>
          <note pan="0" key="46" vol="100" pos="13632" len="5"/>
          <note pan="0" key="34" vol="100" pos="13638" len="11"/>
          <note pan="0" key="46" vol="100" pos="13656" len="17"/>
          <note pan="0" key="58" vol="100" pos="13680" len="5"/>
          <note pan="0" key="34" vol="100" pos="13686" len="11"/>
          <note pan="0" key="58" vol="100" pos="13704" len="17"/>
          <note pan="0" key="51" vol="100" pos="13728" len="11"/>
          <note pan="0" key="49" vol="100" pos="13746" len="11"/>
          <note pan="0" key="51" vol="100" pos="13758" len="11"/>
          <note pan="0" key="49" vol="100" pos="13776" len="11"/>
          <note pan="0" key="46" vol="100" pos="13794" len="11"/>
          <note pan="0" key="49" vol="100" pos="13812" len="11"/>
          <note pan="0" key="34" vol="100" pos="13824" len="5"/>
          <note pan="0" key="46" vol="100" pos="13830" len="5"/>
          <note pan="0" key="34" vol="100" pos="13836" len="5"/>
          <note pan="0" key="46" vol="100" pos="13848" len="11"/>
          <note pan="0" key="34" vol="100" pos="13860" len="5"/>
          <note pan="0" key="34" vol="100" pos="13872" len="5"/>
          <note pan="0" key="46" vol="100" pos="13878" len="5"/>
          <note pan="0" key="34" vol="100" pos="13884" len="5"/>
          <note pan="0" key="46" vol="100" pos="13896" len="11"/>
          <note pan="0" key="34" vol="100" pos="13908" len="5"/>
          <note pan="0" key="34" vol="100" pos="13920" len="5"/>
          <note pan="0" key="46" vol="100" pos="13926" len="5"/>
          <note pan="0" key="34" vol="100" pos="13932" len="5"/>
          <note pan="0" key="46" vol="100" pos="13944" len="11"/>
          <note pan="0" key="34" vol="100" pos="13956" len="5"/>
          <note pan="0" key="34" vol="100" pos="13968" len="5"/>
          <note pan="0" key="46" vol="100" pos="13974" len="5"/>
          <note pan="0" key="34" vol="100" pos="13980" len="5"/>
          <note pan="0" key="46" vol="100" pos="13992" len="11"/>
          <note pan="0" key="34" vol="100" pos="14004" len="5"/>
          <note pan="0" key="34" vol="100" pos="14016" len="5"/>
          <note pan="0" key="46" vol="100" pos="14022" len="5"/>
          <note pan="0" key="34" vol="100" pos="14028" len="5"/>
          <note pan="0" key="46" vol="100" pos="14040" len="11"/>
          <note pan="0" key="34" vol="100" pos="14052" len="5"/>
          <note pan="0" key="34" vol="100" pos="14064" len="5"/>
          <note pan="0" key="46" vol="100" pos="14070" len="5"/>
          <note pan="0" key="34" vol="100" pos="14076" len="5"/>
          <note pan="0" key="46" vol="100" pos="14088" len="11"/>
          <note pan="0" key="34" vol="100" pos="14100" len="5"/>
          <note pan="0" key="34" vol="100" pos="14112" len="5"/>
          <note pan="0" key="46" vol="100" pos="14118" len="5"/>
          <note pan="0" key="34" vol="100" pos="14124" len="5"/>
          <note pan="0" key="46" vol="100" pos="14136" len="11"/>
          <note pan="0" key="34" vol="100" pos="14148" len="5"/>
          <note pan="0" key="34" vol="100" pos="14160" len="5"/>
          <note pan="0" key="46" vol="100" pos="14166" len="5"/>
          <note pan="0" key="34" vol="100" pos="14172" len="5"/>
          <note pan="0" key="46" vol="100" pos="14184" len="11"/>
          <note pan="0" key="34" vol="100" pos="14196" len="5"/>
          <note pan="0" key="30" vol="100" pos="14208" len="5"/>
          <note pan="0" key="42" vol="100" pos="14214" len="5"/>
          <note pan="0" key="30" vol="100" pos="14220" len="5"/>
          <note pan="0" key="42" vol="100" pos="14232" len="11"/>
          <note pan="0" key="30" vol="100" pos="14244" len="5"/>
          <note pan="0" key="30" vol="100" pos="14256" len="5"/>
          <note pan="0" key="42" vol="100" pos="14262" len="5"/>
          <note pan="0" key="30" vol="100" pos="14268" len="5"/>
          <note pan="0" key="42" vol="100" pos="14280" len="11"/>
          <note pan="0" key="30" vol="100" pos="14292" len="5"/>
          <note pan="0" key="30" vol="100" pos="14304" len="5"/>
          <note pan="0" key="42" vol="100" pos="14310" len="5"/>
          <note pan="0" key="30" vol="100" pos="14316" len="5"/>
          <note pan="0" key="42" vol="100" pos="14328" len="11"/>
          <note pan="0" key="30" vol="100" pos="14340" len="5"/>
          <note pan="0" key="30" vol="100" pos="14352" len="5"/>
          <note pan="0" key="42" vol="100" pos="14358" len="5"/>
          <note pan="0" key="30" vol="100" pos="14364" len="5"/>
          <note pan="0" key="42" vol="100" pos="14376" len="11"/>
          <note pan="0" key="30" vol="100" pos="14388" len="5"/>
          <note pan="0" key="32" vol="100" pos="14400" len="5"/>
          <note pan="0" key="44" vol="100" pos="14406" len="5"/>
          <note pan="0" key="32" vol="100" pos="14412" len="5"/>
          <note pan="0" key="44" vol="100" pos="14424" len="11"/>
          <note pan="0" key="32" vol="100" pos="14436" len="5"/>
          <note pan="0" key="32" vol="100" pos="14448" len="5"/>
          <note pan="0" key="44" vol="100" pos="14454" len="5"/>
          <note pan="0" key="32" vol="100" pos="14460" len="5"/>
          <note pan="0" key="44" vol="100" pos="14472" len="11"/>
          <note pan="0" key="32" vol="100" pos="14484" len="5"/>
          <note pan="0" key="29" vol="100" pos="14496" len="5"/>
          <note pan="0" key="41" vol="100" pos="14502" len="5"/>
          <note pan="0" key="29" vol="100" pos="14508" len="5"/>
          <note pan="0" key="41" vol="100" pos="14520" len="11"/>
          <note pan="0" key="29" vol="100" pos="14532" len="5"/>
          <note pan="0" key="29" vol="100" pos="14544" len="5"/>
          <note pan="0" key="41" vol="100" pos="14550" len="5"/>
          <note pan="0" key="29" vol="100" pos="14556" len="5"/>
          <note pan="0" key="41" vol="100" pos="14568" len="11"/>
          <note pan="0" key="29" vol="100" pos="14580" len="5"/>
          <note pan="0" key="34" vol="100" pos="14592" len="5"/>
          <note pan="0" key="46" vol="100" pos="14598" len="5"/>
          <note pan="0" key="34" vol="100" pos="14604" len="5"/>
          <note pan="0" key="46" vol="100" pos="14616" len="11"/>
          <note pan="0" key="34" vol="100" pos="14628" len="5"/>
          <note pan="0" key="34" vol="100" pos="14640" len="5"/>
          <note pan="0" key="46" vol="100" pos="14646" len="5"/>
          <note pan="0" key="34" vol="100" pos="14652" len="5"/>
          <note pan="0" key="46" vol="100" pos="14664" len="11"/>
          <note pan="0" key="34" vol="100" pos="14676" len="5"/>
          <note pan="0" key="34" vol="100" pos="14688" len="5"/>
          <note pan="0" key="46" vol="100" pos="14694" len="5"/>
          <note pan="0" key="34" vol="100" pos="14700" len="5"/>
          <note pan="0" key="46" vol="100" pos="14712" len="11"/>
          <note pan="0" key="34" vol="100" pos="14724" len="5"/>
          <note pan="0" key="34" vol="100" pos="14736" len="5"/>
          <note pan="0" key="46" vol="100" pos="14742" len="5"/>
          <note pan="0" key="34" vol="100" pos="14748" len="5"/>
          <note pan="0" key="46" vol="100" pos="14760" len="11"/>
          <note pan="0" key="34" vol="100" pos="14772" len="5"/>
          <note pan="0" key="34" vol="100" pos="14784" len="5"/>
          <note pan="0" key="46" vol="100" pos="14790" len="5"/>
          <note pan="0" key="34" vol="100" pos="14796" len="5"/>
          <note pan="0" key="46" vol="100" pos="14808" len="11"/>
          <note pan="0" key="34" vol="100" pos="14820" len="5"/>
          <note pan="0" key="34" vol="100" pos="14832" len="5"/>
          <note pan="0" key="46" vol="100" pos="14838" len="5"/>
          <note pan="0" key="34" vol="100" pos="14844" len="5"/>
          <note pan="0" key="46" vol="100" pos="14856" len="11"/>
          <note pan="0" key="34" vol="100" pos="14868" len="5"/>
          <note pan="0" key="34" vol="100" pos="14880" len="5"/>
          <note pan="0" key="46" vol="100" pos="14886" len="5"/>
          <note pan="0" key="34" vol="100" pos="14892" len="5"/>
          <note pan="0" key="46" vol="100" pos="14904" len="11"/>
          <note pan="0" key="34" vol="100" pos="14916" len="5"/>
          <note pan="0" key="34" vol="100" pos="14928" len="5"/>
          <note pan="0" key="46" vol="100" pos="14934" len="5"/>
          <note pan="0" key="34" vol="100" pos="14940" len="5"/>
          <note pan="0" key="46" vol="100" pos="14952" len="11"/>
          <note pan="0" key="34" vol="100" pos="14964" len="5"/>
          <note pan="0" key="30" vol="100" pos="14976" len="5"/>
          <note pan="0" key="42" vol="100" pos="14982" len="5"/>
          <note pan="0" key="30" vol="100" pos="14988" len="5"/>
          <note pan="0" key="42" vol="100" pos="15000" len="11"/>
          <note pan="0" key="30" vol="100" pos="15012" len="5"/>
          <note pan="0" key="30" vol="100" pos="15024" len="5"/>
          <note pan="0" key="42" vol="100" pos="15030" len="5"/>
          <note pan="0" key="30" vol="100" pos="15036" len="5"/>
          <note pan="0" key="42" vol="100" pos="15048" len="11"/>
          <note pan="0" key="30" vol="100" pos="15060" len="5"/>
          <note pan="0" key="30" vol="100" pos="15072" len="5"/>
          <note pan="0" key="42" vol="100" pos="15078" len="5"/>
          <note pan="0" key="30" vol="100" pos="15084" len="5"/>
          <note pan="0" key="42" vol="100" pos="15096" len="11"/>
          <note pan="0" key="30" vol="100" pos="15108" len="5"/>
          <note pan="0" key="30" vol="100" pos="15120" len="5"/>
          <note pan="0" key="42" vol="100" pos="15126" len="5"/>
          <note pan="0" key="30" vol="100" pos="15132" len="5"/>
          <note pan="0" key="42" vol="100" pos="15144" len="11"/>
          <note pan="0" key="30" vol="100" pos="15156" len="5"/>
          <note pan="0" key="32" vol="100" pos="15168" len="23"/>
          <note pan="0" key="44" vol="100" pos="15192" len="23"/>
          <note pan="0" key="56" vol="100" pos="15216" len="23"/>
          <note pan="0" key="44" vol="100" pos="15240" len="23"/>
          <note pan="0" key="41" vol="100" pos="15264" len="23"/>
          <note pan="0" key="53" vol="100" pos="15288" len="23"/>
          <note pan="0" key="57" vol="100" pos="15312" len="23"/>
          <note pan="0" key="60" vol="100" pos="15336" len="23"/>
          <note pan="0" key="34" vol="100" pos="15360" len="5"/>
          <note pan="0" key="46" vol="100" pos="15366" len="5"/>
          <note pan="0" key="34" vol="100" pos="15372" len="5"/>
          <note pan="0" key="46" vol="100" pos="15384" len="11"/>
          <note pan="0" key="34" vol="100" pos="15396" len="5"/>
          <note pan="0" key="34" vol="100" pos="15408" len="5"/>
          <note pan="0" key="46" vol="100" pos="15414" len="5"/>
          <note pan="0" key="34" vol="100" pos="15420" len="5"/>
          <note pan="0" key="46" vol="100" pos="15432" len="11"/>
          <note pan="0" key="34" vol="100" pos="15444" len="5"/>
          <note pan="0" key="34" vol="100" pos="15456" len="5"/>
          <note pan="0" key="46" vol="100" pos="15462" len="5"/>
          <note pan="0" key="34" vol="100" pos="15468" len="5"/>
          <note pan="0" key="46" vol="100" pos="15480" len="11"/>
          <note pan="0" key="34" vol="100" pos="15492" len="5"/>
          <note pan="0" key="34" vol="100" pos="15504" len="5"/>
          <note pan="0" key="46" vol="100" pos="15510" len="5"/>
          <note pan="0" key="34" vol="100" pos="15516" len="5"/>
          <note pan="0" key="46" vol="100" pos="15528" len="11"/>
          <note pan="0" key="34" vol="100" pos="15540" len="5"/>
          <note pan="0" key="34" vol="100" pos="15552" len="5"/>
          <note pan="0" key="46" vol="100" pos="15558" len="5"/>
          <note pan="0" key="34" vol="100" pos="15564" len="5"/>
          <note pan="0" key="46" vol="100" pos="15576" len="11"/>
          <note pan="0" key="34" vol="100" pos="15588" len="5"/>
          <note pan="0" key="34" vol="100" pos="15600" len="5"/>
          <note pan="0" key="46" vol="100" pos="15606" len="5"/>
          <note pan="0" key="34" vol="100" pos="15612" len="5"/>
          <note pan="0" key="46" vol="100" pos="15624" len="11"/>
          <note pan="0" key="34" vol="100" pos="15636" len="5"/>
          <note pan="0" key="34" vol="100" pos="15648" len="5"/>
          <note pan="0" key="46" vol="100" pos="15654" len="5"/>
          <note pan="0" key="34" vol="100" pos="15660" len="5"/>
          <note pan="0" key="46" vol="100" pos="15672" len="11"/>
          <note pan="0" key="34" vol="100" pos="15684" len="5"/>
          <note pan="0" key="34" vol="100" pos="15696" len="5"/>
          <note pan="0" key="46" vol="100" pos="15702" len="5"/>
          <note pan="0" key="34" vol="100" pos="15708" len="5"/>
          <note pan="0" key="46" vol="100" pos="15720" len="11"/>
          <note pan="0" key="34" vol="100" pos="15732" len="5"/>
          <note pan="0" key="30" vol="100" pos="15744" len="5"/>
          <note pan="0" key="42" vol="100" pos="15750" len="5"/>
          <note pan="0" key="30" vol="100" pos="15756" len="5"/>
          <note pan="0" key="42" vol="100" pos="15768" len="11"/>
          <note pan="0" key="30" vol="100" pos="15780" len="5"/>
          <note pan="0" key="30" vol="100" pos="15792" len="5"/>
          <note pan="0" key="42" vol="100" pos="15798" len="5"/>
          <note pan="0" key="30" vol="100" pos="15804" len="5"/>
          <note pan="0" key="42" vol="100" pos="15816" len="11"/>
          <note pan="0" key="30" vol="100" pos="15828" len="5"/>
          <note pan="0" key="30" vol="100" pos="15840" len="5"/>
          <note pan="0" key="42" vol="100" pos="15846" len="5"/>
          <note pan="0" key="30" vol="100" pos="15852" len="5"/>
          <note pan="0" key="42" vol="100" pos="15864" len="11"/>
          <note pan="0" key="30" vol="100" pos="15876" len="5"/>
          <note pan="0" key="30" vol="100" pos="15888" len="5"/>
          <note pan="0" key="42" vol="100" pos="15894" len="5"/>
          <note pan="0" key="30" vol="100" pos="15900" len="5"/>
          <note pan="0" key="42" vol="100" pos="15912" len="11"/>
          <note pan="0" key="30" vol="100" pos="15924" len="5"/>
          <note pan="0" key="32" vol="100" pos="15936" len="5"/>
          <note pan="0" key="44" vol="100" pos="15942" len="5"/>
          <note pan="0" key="32" vol="100" pos="15948" len="5"/>
          <note pan="0" key="44" vol="100" pos="15960" len="11"/>
          <note pan="0" key="32" vol="100" pos="15972" len="5"/>
          <note pan="0" key="32" vol="100" pos="15984" len="5"/>
          <note pan="0" key="44" vol="100" pos="15990" len="5"/>
          <note pan="0" key="32" vol="100" pos="15996" len="5"/>
          <note pan="0" key="44" vol="100" pos="16008" len="11"/>
          <note pan="0" key="32" vol="100" pos="16020" len="5"/>
          <note pan="0" key="29" vol="100" pos="16032" len="5"/>
          <note pan="0" key="41" vol="100" pos="16038" len="5"/>
          <note pan="0" key="29" vol="100" pos="16044" len="5"/>
          <note pan="0" key="41" vol="100" pos="16056" len="11"/>
          <note pan="0" key="29" vol="100" pos="16068" len="5"/>
          <note pan="0" key="29" vol="100" pos="16080" len="5"/>
          <note pan="0" key="41" vol="100" pos="16086" len="5"/>
          <note pan="0" key="29" vol="100" pos="16092" len="5"/>
          <note pan="0" key="41" vol="100" pos="16104" len="11"/>
          <note pan="0" key="29" vol="100" pos="16116" len="5"/>
          <note pan="0" key="34" vol="100" pos="16128" len="5"/>
          <note pan="0" key="46" vol="100" pos="16134" len="5"/>
          <note pan="0" key="34" vol="100" pos="16140" len="5"/>
          <note pan="0" key="46" vol="100" pos="16152" len="11"/>
          <note pan="0" key="34" vol="100" pos="16164" len="5"/>
          <note pan="0" key="34" vol="100" pos="16176" len="5"/>
          <note pan="0" key="46" vol="100" pos="16182" len="5"/>
          <note pan="0" key="34" vol="100" pos="16188" len="5"/>
          <note pan="0" key="46" vol="100" pos="16200" len="11"/>
          <note pan="0" key="34" vol="100" pos="16212" len="5"/>
          <note pan="0" key="34" vol="100" pos="16224" len="5"/>
          <note pan="0" key="46" vol="100" pos="16230" len="5"/>
          <note pan="0" key="34" vol="100" pos="16236" len="5"/>
          <note pan="0" key="46" vol="100" pos="16248" len="11"/>
          <note pan="0" key="34" vol="100" pos="16260" len="5"/>
          <note pan="0" key="34" vol="100" pos="16272" len="5"/>
          <note pan="0" key="46" vol="100" pos="16278" len="5"/>
          <note pan="0" key="34" vol="100" pos="16284" len="5"/>
          <note pan="0" key="46" vol="100" pos="16296" len="11"/>
          <note pan="0" key="34" vol="100" pos="16308" len="5"/>
          <note pan="0" key="34" vol="100" pos="16320" len="5"/>
          <note pan="0" key="46" vol="100" pos="16326" len="5"/>
          <note pan="0" key="34" vol="100" pos="16332" len="5"/>
          <note pan="0" key="46" vol="100" pos="16344" len="11"/>
          <note pan="0" key="34" vol="100" pos="16356" len="5"/>
          <note pan="0" key="34" vol="100" pos="16368" len="5"/>
          <note pan="0" key="46" vol="100" pos="16374" len="5"/>
          <note pan="0" key="34" vol="100" pos="16380" len="5"/>
          <note pan="0" key="46" vol="100" pos="16392" len="11"/>
          <note pan="0" key="34" vol="100" pos="16404" len="5"/>
          <note pan="0" key="34" vol="100" pos="16416" len="5"/>
          <note pan="0" key="46" vol="100" pos="16422" len="5"/>
          <note pan="0" key="34" vol="100" pos="16428" len="5"/>
          <note pan="0" key="46" vol="100" pos="16440" len="11"/>
          <note pan="0" key="34" vol="100" pos="16452" len="5"/>
          <note pan="0" key="34" vol="100" pos="16464" len="5"/>
          <note pan="0" key="46" vol="100" pos="16470" len="5"/>
          <note pan="0" key="34" vol="100" pos="16476" len="5"/>
          <note pan="0" key="46" vol="100" pos="16488" len="11"/>
          <note pan="0" key="34" vol="100" pos="16500" len="5"/>
          <note pan="0" key="30" vol="100" pos="16512" len="5"/>
          <note pan="0" key="42" vol="100" pos="16518" len="5"/>
          <note pan="0" key="30" vol="100" pos="16524" len="5"/>
          <note pan="0" key="42" vol="100" pos="16536" len="11"/>
          <note pan="0" key="30" vol="100" pos="16548" len="5"/>
          <note pan="0" key="30" vol="100" pos="16560" len="5"/>
          <note pan="0" key="42" vol="100" pos="16566" len="5"/>
          <note pan="0" key="30" vol="100" pos="16572" len="5"/>
          <note pan="0" key="42" vol="100" pos="16584" len="11"/>
          <note pan="0" key="30" vol="100" pos="16596" len="5"/>
          <note pan="0" key="30" vol="100" pos="16608" len="5"/>
          <note pan="0" key="42" vol="100" pos="16614" len="5"/>
          <note pan="0" key="30" vol="100" pos="16620" len="5"/>
          <note pan="0" key="42" vol="100" pos="16632" len="11"/>
          <note pan="0" key="30" vol="100" pos="16644" len="5"/>
          <note pan="0" key="30" vol="100" pos="16656" len="5"/>
          <note pan="0" key="42" vol="100" pos="16662" len="5"/>
          <note pan="0" key="30" vol="100" pos="16668" len="5"/>
          <note pan="0" key="42" vol="100" pos="16680" len="11"/>
          <note pan="0" key="30" vol="100" pos="16692" len="5"/>
          <note pan="0" key="32" vol="100" pos="16704" len="23"/>
          <note pan="0" key="44" vol="100" pos="16728" len="23"/>
          <note pan="0" key="56" vol="100" pos="16752" len="23"/>
          <note pan="0" key="44" vol="100" pos="16776" len="23"/>
          <note pan="0" key="41" vol="100" pos="16800" len="23"/>
          <note pan="0" key="53" vol="100" pos="16824" len="23"/>
          <note pan="0" key="57" vol="100" pos="16848" len="23"/>
          <note pan="0" key="60" vol="100" pos="16872" len="23"/>
          <note pan="0" key="42" vol="100" pos="16896" len="5"/>
          <note pan="0" key="30" vol="100" pos="16902" len="5"/>
          <note pan="0" key="42" vol="100" pos="16908" len="5"/>
          <note pan="0" key="54" vol="100" pos="16920" len="11"/>
          <note pan="0" key="42" vol="100" pos="16932" len="5"/>
          <note pan="0" key="42" vol="100" pos="16944" len="5"/>
          <note pan="0" key="30" vol="100" pos="16950" len="5"/>
          <note pan="0" key="42" vol="100" pos="16956" len="5"/>
          <note pan="0" key="54" vol="100" pos="16968" len="11"/>
          <note pan="0" key="42" vol="100" pos="16980" len="5"/>
          <note pan="0" key="42" vol="100" pos="16992" len="5"/>
          <note pan="0" key="30" vol="100" pos="16998" len="5"/>
          <note pan="0" key="42" vol="100" pos="17004" len="5"/>
          <note pan="0" key="54" vol="100" pos="17016" len="11"/>
          <note pan="0" key="42" vol="100" pos="17028" len="5"/>
          <note pan="0" key="42" vol="100" pos="17040" len="5"/>
          <note pan="0" key="30" vol="100" pos="17046" len="5"/>
          <note pan="0" key="42" vol="100" pos="17052" len="5"/>
          <note pan="0" key="54" vol="100" pos="17064" len="11"/>
          <note pan="0" key="42" vol="100" pos="17076" len="5"/>
          <note pan="0" key="44" vol="100" pos="17088" len="5"/>
          <note pan="0" key="32" vol="100" pos="17094" len="5"/>
          <note pan="0" key="44" vol="100" pos="17100" len="5"/>
          <note pan="0" key="56" vol="100" pos="17112" len="11"/>
          <note pan="0" key="44" vol="100" pos="17124" len="5"/>
          <note pan="0" key="44" vol="100" pos="17136" len="5"/>
          <note pan="0" key="32" vol="100" pos="17142" len="5"/>
          <note pan="0" key="44" vol="100" pos="17148" len="5"/>
          <note pan="0" key="56" vol="100" pos="17160" len="11"/>
          <note pan="0" key="44" vol="100" pos="17172" len="5"/>
          <note pan="0" key="44" vol="100" pos="17184" len="5"/>
          <note pan="0" key="32" vol="100" pos="17190" len="5"/>
          <note pan="0" key="44" vol="100" pos="17196" len="5"/>
          <note pan="0" key="56" vol="100" pos="17208" len="11"/>
          <note pan="0" key="44" vol="100" pos="17220" len="5"/>
          <note pan="0" key="41" vol="100" pos="17232" len="5"/>
          <note pan="0" key="29" vol="100" pos="17238" len="5"/>
          <note pan="0" key="41" vol="100" pos="17244" len="5"/>
          <note pan="0" key="53" vol="100" pos="17256" len="11"/>
          <note pan="0" key="41" vol="100" pos="17268" len="5"/>
          <note pan="0" key="46" vol="100" pos="17280" len="5"/>
          <note pan="0" key="34" vol="100" pos="17286" len="5"/>
          <note pan="0" key="46" vol="100" pos="17292" len="5"/>
          <note pan="0" key="58" vol="100" pos="17304" len="11"/>
          <note pan="0" key="46" vol="100" pos="17316" len="5"/>
          <note pan="0" key="46" vol="100" pos="17328" len="5"/>
          <note pan="0" key="34" vol="100" pos="17334" len="5"/>
          <note pan="0" key="46" vol="100" pos="17340" len="5"/>
          <note pan="0" key="58" vol="100" pos="17352" len="11"/>
          <note pan="0" key="46" vol="100" pos="17364" len="5"/>
          <note pan="0" key="46" vol="100" pos="17376" len="5"/>
          <note pan="0" key="34" vol="100" pos="17382" len="5"/>
          <note pan="0" key="46" vol="100" pos="17388" len="5"/>
          <note pan="0" key="58" vol="100" pos="17400" len="11"/>
          <note pan="0" key="46" vol="100" pos="17412" len="5"/>
          <note pan="0" key="46" vol="100" pos="17424" len="5"/>
          <note pan="0" key="34" vol="100" pos="17430" len="5"/>
          <note pan="0" key="46" vol="100" pos="17436" len="5"/>
          <note pan="0" key="58" vol="100" pos="17448" len="11"/>
          <note pan="0" key="46" vol="100" pos="17460" len="5"/>
          <note pan="0" key="46" vol="100" pos="17472" len="5"/>
          <note pan="0" key="34" vol="100" pos="17478" len="5"/>
          <note pan="0" key="46" vol="100" pos="17484" len="5"/>
          <note pan="0" key="58" vol="100" pos="17496" len="11"/>
          <note pan="0" key="46" vol="100" pos="17508" len="5"/>
          <note pan="0" key="46" vol="100" pos="17520" len="5"/>
          <note pan="0" key="34" vol="100" pos="17526" len="5"/>
          <note pan="0" key="46" vol="100" pos="17532" len="5"/>
          <note pan="0" key="58" vol="100" pos="17544" len="11"/>
          <note pan="0" key="46" vol="100" pos="17556" len="5"/>
          <note pan="0" key="41" vol="100" pos="17568" len="5"/>
          <note pan="0" key="29" vol="100" pos="17574" len="5"/>
          <note pan="0" key="41" vol="100" pos="17580" len="5"/>
          <note pan="0" key="53" vol="100" pos="17592" len="11"/>
          <note pan="0" key="41" vol="100" pos="17604" len="5"/>
          <note pan="0" key="41" vol="100" pos="17616" len="5"/>
          <note pan="0" key="29" vol="100" pos="17622" len="5"/>
          <note pan="0" key="41" vol="100" pos="17628" len="5"/>
          <note pan="0" key="53" vol="100" pos="17640" len="11"/>
          <note pan="0" key="41" vol="100" pos="17652" len="5"/>
          <note pan="0" key="42" vol="100" pos="17664" len="5"/>
          <note pan="0" key="30" vol="100" pos="17670" len="5"/>
          <note pan="0" key="42" vol="100" pos="17676" len="5"/>
          <note pan="0" key="54" vol="100" pos="17688" len="11"/>
          <note pan="0" key="42" vol="100" pos="17700" len="5"/>
          <note pan="0" key="42" vol="100" pos="17712" len="5"/>
          <note pan="0" key="30" vol="100" pos="17718" len="5"/>
          <note pan="0" key="42" vol="100" pos="17724" len="5"/>
          <note pan="0" key="54" vol="100" pos="17736" len="11"/>
          <note pan="0" key="42" vol="100" pos="17748" len="5"/>
          <note pan="0" key="42" vol="100" pos="17760" len="5"/>
          <note pan="0" key="30" vol="100" pos="17766" len="5"/>
          <note pan="0" key="42" vol="100" pos="17772" len="5"/>
          <note pan="0" key="54" vol="100" pos="17784" len="11"/>
          <note pan="0" key="42" vol="100" pos="17796" len="5"/>
          <note pan="0" key="42" vol="100" pos="17808" len="5"/>
          <note pan="0" key="30" vol="100" pos="17814" len="5"/>
          <note pan="0" key="42" vol="100" pos="17820" len="5"/>
          <note pan="0" key="54" vol="100" pos="17832" len="11"/>
          <note pan="0" key="42" vol="100" pos="17844" len="5"/>
          <note pan="0" key="44" vol="100" pos="17856" len="5"/>
          <note pan="0" key="32" vol="100" pos="17862" len="5"/>
          <note pan="0" key="44" vol="100" pos="17868" len="5"/>
          <note pan="0" key="56" vol="100" pos="17880" len="11"/>
          <note pan="0" key="44" vol="100" pos="17892" len="5"/>
          <note pan="0" key="44" vol="100" pos="17904" len="5"/>
          <note pan="0" key="32" vol="100" pos="17910" len="5"/>
          <note pan="0" key="44" vol="100" pos="17916" len="5"/>
          <note pan="0" key="56" vol="100" pos="17928" len="11"/>
          <note pan="0" key="44" vol="100" pos="17940" len="5"/>
          <note pan="0" key="45" vol="100" pos="17952" len="5"/>
          <note pan="0" key="33" vol="100" pos="17958" len="5"/>
          <note pan="0" key="45" vol="100" pos="17964" len="5"/>
          <note pan="0" key="57" vol="100" pos="17976" len="11"/>
          <note pan="0" key="45" vol="100" pos="17988" len="5"/>
          <note pan="0" key="45" vol="100" pos="18000" len="5"/>
          <note pan="0" key="33" vol="100" pos="18006" len="5"/>
          <note pan="0" key="45" vol="100" pos="18012" len="5"/>
          <note pan="0" key="57" vol="100" pos="18024" len="11"/>
          <note pan="0" key="45" vol="100" pos="18036" len="5"/>
          <note pan="0" key="46" vol="100" pos="18048" len="5"/>
          <note pan="0" key="34" vol="100" pos="18054" len="5"/>
          <note pan="0" key="46" vol="100" pos="18060" len="5"/>
          <note pan="0" key="58" vol="100" pos="18072" len="11"/>
          <note pan="0" key="46" vol="100" pos="18084" len="5"/>
          <note pan="0" key="46" vol="100" pos="18096" len="5"/>
          <note pan="0" key="34" vol="100" pos="18102" len="5"/>
          <note pan="0" key="46" vol="100" pos="18108" len="5"/>
          <note pan="0" key="58" vol="100" pos="18120" len="11"/>
          <note pan="0" key="46" vol="100" pos="18132" len="5"/>
          <note pan="0" key="46" vol="100" pos="18144" len="5"/>
          <note pan="0" key="34" vol="100" pos="18150" len="5"/>
          <note pan="0" key="46" vol="100" pos="18156" len="5"/>
          <note pan="0" key="58" vol="100" pos="18168" len="11"/>
          <note pan="0" key="46" vol="100" pos="18180" len="5"/>
          <note pan="0" key="46" vol="100" pos="18192" len="5"/>
          <note pan="0" key="34" vol="100" pos="18198" len="5"/>
          <note pan="0" key="46" vol="100" pos="18204" len="5"/>
          <note pan="0" key="58" vol="100" pos="18216" len="11"/>
          <note pan="0" key="46" vol="100" pos="18228" len="5"/>
          <note pan="0" key="44" vol="100" pos="18240" len="5"/>
          <note pan="0" key="32" vol="100" pos="18246" len="5"/>
          <note pan="0" key="44" vol="100" pos="18252" len="5"/>
          <note pan="0" key="56" vol="100" pos="18264" len="11"/>
          <note pan="0" key="44" vol="100" pos="18276" len="5"/>
          <note pan="0" key="44" vol="100" pos="18288" len="5"/>
          <note pan="0" key="32" vol="100" pos="18294" len="5"/>
          <note pan="0" key="44" vol="100" pos="18300" len="5"/>
          <note pan="0" key="56" vol="100" pos="18312" len="11"/>
          <note pan="0" key="44" vol="100" pos="18324" len="5"/>
          <note pan="0" key="49" vol="100" pos="18336" len="5"/>
          <note pan="0" key="37" vol="100" pos="18342" len="5"/>
          <note pan="0" key="49" vol="100" pos="18348" len="5"/>
          <note pan="0" key="61" vol="100" pos="18360" len="11"/>
          <note pan="0" key="49" vol="100" pos="18372" len="5"/>
          <note pan="0" key="49" vol="100" pos="18384" len="5"/>
          <note pan="0" key="37" vol="100" pos="18390" len="5"/>
          <note pan="0" key="49" vol="100" pos="18396" len="5"/>
          <note pan="0" key="61" vol="100" pos="18408" len="11"/>
          <note pan="0" key="49" vol="100" pos="18420" len="5"/>
          <note pan="0" key="42" vol="100" pos="18432" len="5"/>
          <note pan="0" key="30" vol="100" pos="18438" len="5"/>
          <note pan="0" key="42" vol="100" pos="18444" len="5"/>
          <note pan="0" key="54" vol="100" pos="18456" len="11"/>
          <note pan="0" key="42" vol="100" pos="18468" len="5"/>
          <note pan="0" key="42" vol="100" pos="18480" len="5"/>
          <note pan="0" key="30" vol="100" pos="18486" len="5"/>
          <note pan="0" key="42" vol="100" pos="18492" len="5"/>
          <note pan="0" key="54" vol="100" pos="18504" len="11"/>
          <note pan="0" key="42" vol="100" pos="18516" len="5"/>
          <note pan="0" key="42" vol="100" pos="18528" len="5"/>
          <note pan="0" key="30" vol="100" pos="18534" len="5"/>
          <note pan="0" key="42" vol="100" pos="18540" len="5"/>
          <note pan="0" key="54" vol="100" pos="18552" len="11"/>
          <note pan="0" key="42" vol="100" pos="18564" len="5"/>
          <note pan="0" key="42" vol="100" pos="18576" len="5"/>
          <note pan="0" key="30" vol="100" pos="18582" len="5"/>
          <note pan="0" key="42" vol="100" pos="18588" len="5"/>
          <note pan="0" key="54" vol="100" pos="18600" len="11"/>
          <note pan="0" key="42" vol="100" pos="18612" len="5"/>
          <note pan="0" key="44" vol="100" pos="18624" len="5"/>
          <note pan="0" key="32" vol="100" pos="18630" len="5"/>
          <note pan="0" key="44" vol="100" pos="18636" len="5"/>
          <note pan="0" key="56" vol="100" pos="18648" len="11"/>
          <note pan="0" key="44" vol="100" pos="18660" len="5"/>
          <note pan="0" key="44" vol="100" pos="18672" len="5"/>
          <note pan="0" key="32" vol="100" pos="18678" len="5"/>
          <note pan="0" key="44" vol="100" pos="18684" len="5"/>
          <note pan="0" key="56" vol="100" pos="18696" len="11"/>
          <note pan="0" key="44" vol="100" pos="18708" len="5"/>
          <note pan="0" key="44" vol="100" pos="18720" len="5"/>
          <note pan="0" key="32" vol="100" pos="18726" len="5"/>
          <note pan="0" key="44" vol="100" pos="18732" len="5"/>
          <note pan="0" key="56" vol="100" pos="18744" len="11"/>
          <note pan="0" key="44" vol="100" pos="18756" len="5"/>
          <note pan="0" key="44" vol="100" pos="18768" len="5"/>
          <note pan="0" key="32" vol="100" pos="18774" len="5"/>
          <note pan="0" key="44" vol="100" pos="18780" len="5"/>
          <note pan="0" key="56" vol="100" pos="18792" len="11"/>
          <note pan="0" key="44" vol="100" pos="18804" len="5"/>
          <note pan="0" key="46" vol="100" pos="18816" len="5"/>
          <note pan="0" key="34" vol="100" pos="18822" len="5"/>
          <note pan="0" key="46" vol="100" pos="18828" len="5"/>
          <note pan="0" key="58" vol="100" pos="18840" len="11"/>
          <note pan="0" key="46" vol="100" pos="18852" len="5"/>
          <note pan="0" key="46" vol="100" pos="18864" len="5"/>
          <note pan="0" key="34" vol="100" pos="18870" len="5"/>
          <note pan="0" key="46" vol="100" pos="18876" len="5"/>
          <note pan="0" key="58" vol="100" pos="18888" len="11"/>
          <note pan="0" key="46" vol="100" pos="18900" len="5"/>
          <note pan="0" key="46" vol="100" pos="18912" len="5"/>
          <note pan="0" key="34" vol="100" pos="18918" len="5"/>
          <note pan="0" key="46" vol="100" pos="18924" len="5"/>
          <note pan="0" key="58" vol="100" pos="18936" len="11"/>
          <note pan="0" key="46" vol="100" pos="18948" len="5"/>
          <note pan="0" key="46" vol="100" pos="18960" len="5"/>
          <note pan="0" key="34" vol="100" pos="18966" len="5"/>
          <note pan="0" key="46" vol="100" pos="18972" len="5"/>
          <note pan="0" key="58" vol="100" pos="18984" len="11"/>
          <note pan="0" key="46" vol="100" pos="18996" len="5"/>
          <note pan="0" key="46" vol="100" pos="19008" len="5"/>
          <note pan="0" key="34" vol="100" pos="19014" len="5"/>
          <note pan="0" key="46" vol="100" pos="19020" len="5"/>
          <note pan="0" key="58" vol="100" pos="19032" len="11"/>
          <note pan="0" key="46" vol="100" pos="19044" len="5"/>
          <note pan="0" key="46" vol="100" pos="19056" len="5"/>
          <note pan="0" key="34" vol="100" pos="19062" len="5"/>
          <note pan="0" key="46" vol="100" pos="19068" len="5"/>
          <note pan="0" key="58" vol="100" pos="19080" len="11"/>
          <note pan="0" key="46" vol="100" pos="19092" len="5"/>
          <note pan="0" key="41" vol="100" pos="19104" len="5"/>
          <note pan="0" key="29" vol="100" pos="19110" len="5"/>
          <note pan="0" key="41" vol="100" pos="19116" len="5"/>
          <note pan="0" key="53" vol="100" pos="19128" len="11"/>
          <note pan="0" key="41" vol="100" pos="19140" len="5"/>
          <note pan="0" key="41" vol="100" pos="19152" len="5"/>
          <note pan="0" key="29" vol="100" pos="19158" len="5"/>
          <note pan="0" key="41" vol="100" pos="19164" len="5"/>
          <note pan="0" key="53" vol="100" pos="19176" len="11"/>
          <note pan="0" key="41" vol="100" pos="19188" len="5"/>
          <note pan="0" key="42" vol="100" pos="19200" len="23"/>
          <note pan="0" key="54" vol="100" pos="19224" len="23"/>
          <note pan="0" key="49" vol="100" pos="19248" len="23"/>
          <note pan="0" key="54" vol="100" pos="19272" len="23"/>
          <note pan="0" key="42" vol="100" pos="19296" len="23"/>
          <note pan="0" key="54" vol="100" pos="19320" len="23"/>
          <note pan="0" key="49" vol="100" pos="19344" len="23"/>
          <note pan="0" key="54" vol="100" pos="19368" len="23"/>
          <note pan="0" key="44" vol="100" pos="19392" len="23"/>
          <note pan="0" key="56" vol="100" pos="19416" len="23"/>
          <note pan="0" key="51" vol="100" pos="19440" len="23"/>
          <note pan="0" key="56" vol="100" pos="19464" len="23"/>
          <note pan="0" key="41" vol="100" pos="19488" len="23"/>
          <note pan="0" key="53" vol="100" pos="19512" len="23"/>
          <note pan="0" key="48" vol="100" pos="19536" len="23"/>
          <note pan="0" key="53" vol="100" pos="19560" len="23"/>
          <note pan="0" key="46" vol="100" pos="19584" len="23"/>
          <note pan="0" key="58" vol="100" pos="19608" len="23"/>
          <note pan="0" key="53" vol="100" pos="19632" len="17"/>
          <note pan="0" key="58" vol="100" pos="19656" len="17"/>
          <note pan="0" key="46" vol="100" pos="19680" len="11"/>
          <note pan="0" key="58" vol="100" pos="19704" len="11"/>
          <note pan="0" key="53" vol="100" pos="19728" len="5"/>
          <note pan="0" key="53" vol="100" pos="19740" len="5"/>
          <note pan="0" key="58" vol="100" pos="19752" len="5"/>
          <note pan="0" key="58" vol="100" pos="19764" len="5"/>
          <note pan="0" key="46" vol="100" pos="19776" len="5"/>
          <note pan="0" key="46" vol="100" pos="19788" len="5"/>
          <note pan="0" key="58" vol="100" pos="19800" len="5"/>
          <note pan="0" key="58" vol="100" pos="19812" len="5"/>
          <note pan="0" key="53" vol="100" pos="19824" len="5"/>
          <note pan="0" key="53" vol="100" pos="19836" len="5"/>
          <note pan="0" key="58" vol="100" pos="19848" len="5"/>
          <note pan="0" key="58" vol="100" pos="19860" len="5"/>
          <note pan="0" key="46" vol="100" pos="19872" len="5"/>
          <note pan="0" key="46" vol="100" pos="19884" len="5"/>
          <note pan="0" key="58" vol="100" pos="19896" len="5"/>
          <note pan="0" key="58" vol="100" pos="19908" len="5"/>
          <note pan="0" key="53" vol="100" pos="19920" len="5"/>
          <note pan="0" key="53" vol="100" pos="19932" len="5"/>
          <note pan="0" key="58" vol="100" pos="19944" len="5"/>
          <note pan="0" key="58" vol="100" pos="19956" len="5"/>
          <note pan="0" key="59" vol="100" pos="19968" len="5"/>
          <note pan="0" key="50" vol="100" pos="19974" len="5"/>
          <note pan="0" key="43" vol="100" pos="19980" len="5"/>
          <note pan="0" key="59" vol="100" pos="19986" len="5"/>
          <note pan="0" key="50" vol="100" pos="19992" len="5"/>
          <note pan="0" key="43" vol="100" pos="19998" len="5"/>
          <note pan="0" key="59" vol="100" pos="20004" len="5"/>
          <note pan="0" key="50" vol="100" pos="20010" len="5"/>
          <note pan="0" key="43" vol="100" pos="20016" len="5"/>
          <note pan="0" key="59" vol="100" pos="20022" len="5"/>
          <note pan="0" key="50" vol="100" pos="20028" len="5"/>
          <note pan="0" key="43" vol="100" pos="20034" len="5"/>
          <note pan="0" key="59" vol="100" pos="20040" len="5"/>
          <note pan="0" key="50" vol="100" pos="20046" len="5"/>
          <note pan="0" key="43" vol="100" pos="20052" len="5"/>
          <note pan="0" key="59" vol="100" pos="20058" len="5"/>
          <note pan="0" key="50" vol="100" pos="20064" len="5"/>
          <note pan="0" key="43" vol="100" pos="20070" len="5"/>
          <note pan="0" key="59" vol="100" pos="20076" len="5"/>
          <note pan="0" key="50" vol="100" pos="20082" len="5"/>
          <note pan="0" key="43" vol="100" pos="20088" len="5"/>
          <note pan="0" key="59" vol="100" pos="20094" len="5"/>
          <note pan="0" key="50" vol="100" pos="20100" len="5"/>
          <note pan="0" key="43" vol="100" pos="20106" len="5"/>
          <note pan="0" key="59" vol="100" pos="20112" len="5"/>
          <note pan="0" key="50" vol="100" pos="20118" len="5"/>
          <note pan="0" key="43" vol="100" pos="20124" len="5"/>
          <note pan="0" key="59" vol="100" pos="20130" len="5"/>
          <note pan="0" key="50" vol="100" pos="20136" len="5"/>
          <note pan="0" key="43" vol="100" pos="20142" len="5"/>
          <note pan="0" key="59" vol="100" pos="20148" len="5"/>
          <note pan="0" key="50" vol="100" pos="20154" len="5"/>
          <note pan="0" key="61" vol="100" pos="20160" len="5"/>
          <note pan="0" key="52" vol="100" pos="20166" len="5"/>
          <note pan="0" key="45" vol="100" pos="20172" len="5"/>
          <note pan="0" key="61" vol="100" pos="20178" len="5"/>
          <note pan="0" key="52" vol="100" pos="20184" len="5"/>
          <note pan="0" key="45" vol="100" pos="20190" len="5"/>
          <note pan="0" key="61" vol="100" pos="20196" len="5"/>
          <note pan="0" key="52" vol="100" pos="20202" len="5"/>
          <note pan="0" key="45" vol="100" pos="20208" len="5"/>
          <note pan="0" key="61" vol="100" pos="20214" len="5"/>
          <note pan="0" key="52" vol="100" pos="20220" len="5"/>
          <note pan="0" key="45" vol="100" pos="20226" len="5"/>
          <note pan="0" key="61" vol="100" pos="20232" len="5"/>
          <note pan="0" key="52" vol="100" pos="20238" len="5"/>
          <note pan="0" key="45" vol="100" pos="20244" len="5"/>
          <note pan="0" key="61" vol="100" pos="20250" len="5"/>
          <note pan="0" key="52" vol="100" pos="20256" len="5"/>
          <note pan="0" key="45" vol="100" pos="20262" len="5"/>
          <note pan="0" key="61" vol="100" pos="20268" len="5"/>
          <note pan="0" key="52" vol="100" pos="20274" len="5"/>
          <note pan="0" key="45" vol="100" pos="20280" len="5"/>
          <note pan="0" key="61" vol="100" pos="20286" len="5"/>
          <note pan="0" key="52" vol="100" pos="20292" len="5"/>
          <note pan="0" key="45" vol="100" pos="20298" len="5"/>
          <note pan="0" key="61" vol="100" pos="20304" len="5"/>
          <note pan="0" key="52" vol="100" pos="20310" len="5"/>
          <note pan="0" key="45" vol="100" pos="20316" len="5"/>
          <note pan="0" key="61" vol="100" pos="20322" len="5"/>
          <note pan="0" key="52" vol="100" pos="20328" len="5"/>
          <note pan="0" key="45" vol="100" pos="20334" len="5"/>
          <note pan="0" key="61" vol="100" pos="20340" len="5"/>
          <note pan="0" key="52" vol="100" pos="20346" len="5"/>
          <note pan="0" key="62" vol="100" pos="20352" len="5"/>
          <note pan="0" key="54" vol="100" pos="20358" len="5"/>
          <note pan="0" key="47" vol="100" pos="20364" len="5"/>
          <note pan="0" key="62" vol="100" pos="20370" len="5"/>
          <note pan="0" key="54" vol="100" pos="20376" len="5"/>
          <note pan="0" key="47" vol="100" pos="20382" len="5"/>
          <note pan="0" key="62" vol="100" pos="20388" len="5"/>
          <note pan="0" key="54" vol="100" pos="20394" len="5"/>
          <note pan="0" key="47" vol="100" pos="20400" len="5"/>
          <note pan="0" key="62" vol="100" pos="20406" len="5"/>
          <note pan="0" key="54" vol="100" pos="20412" len="5"/>
          <note pan="0" key="47" vol="100" pos="20418" len="5"/>
          <note pan="0" key="62" vol="100" pos="20424" len="5"/>
          <note pan="0" key="54" vol="100" pos="20430" len="5"/>
          <note pan="0" key="47" vol="100" pos="20436" len="5"/>
          <note pan="0" key="62" vol="100" pos="20442" len="5"/>
          <note pan="0" key="54" vol="100" pos="20448" len="5"/>
          <note pan="0" key="47" vol="100" pos="20454" len="5"/>
          <note pan="0" key="62" vol="100" pos="20460" len="5"/>
          <note pan="0" key="54" vol="100" pos="20466" len="5"/>
          <note pan="0" key="47" vol="100" pos="20472" len="5"/>
          <note pan="0" key="62" vol="100" pos="20478" len="5"/>
          <note pan="0" key="54" vol="100" pos="20484" len="5"/>
          <note pan="0" key="47" vol="100" pos="20490" len="5"/>
          <note pan="0" key="62" vol="100" pos="20496" len="5"/>
          <note pan="0" key="54" vol="100" pos="20502" len="5"/>
          <note pan="0" key="47" vol="100" pos="20508" len="5"/>
          <note pan="0" key="62" vol="100" pos="20514" len="5"/>
          <note pan="0" key="54" vol="100" pos="20520" len="5"/>
          <note pan="0" key="47" vol="100" pos="20526" len="5"/>
          <note pan="0" key="62" vol="100" pos="20532" len="5"/>
          <note pan="0" key="54" vol="100" pos="20538" len="5"/>
          <note pan="0" key="57" vol="100" pos="20544" len="5"/>
          <note pan="0" key="49" vol="100" pos="20550" len="5"/>
          <note pan="0" key="66" vol="100" pos="20556" len="5"/>
          <note pan="0" key="57" vol="100" pos="20562" len="5"/>
          <note pan="0" key="49" vol="100" pos="20568" len="5"/>
          <note pan="0" key="66" vol="100" pos="20574" len="5"/>
          <note pan="0" key="57" vol="100" pos="20580" len="5"/>
          <note pan="0" key="49" vol="100" pos="20586" len="5"/>
          <note pan="0" key="66" vol="100" pos="20592" len="5"/>
          <note pan="0" key="57" vol="100" pos="20598" len="5"/>
          <note pan="0" key="49" vol="100" pos="20604" len="5"/>
          <note pan="0" key="66" vol="100" pos="20610" len="5"/>
          <note pan="0" key="57" vol="100" pos="20616" len="5"/>
          <note pan="0" key="49" vol="100" pos="20622" len="5"/>
          <note pan="0" key="66" vol="100" pos="20628" len="5"/>
          <note pan="0" key="57" vol="100" pos="20634" len="5"/>
          <note pan="0" key="49" vol="100" pos="20640" len="5"/>
          <note pan="0" key="66" vol="100" pos="20646" len="5"/>
          <note pan="0" key="57" vol="100" pos="20652" len="5"/>
          <note pan="0" key="49" vol="100" pos="20658" len="5"/>
          <note pan="0" key="66" vol="100" pos="20664" len="5"/>
          <note pan="0" key="57" vol="100" pos="20670" len="5"/>
          <note pan="0" key="49" vol="100" pos="20676" len="5"/>
          <note pan="0" key="66" vol="100" pos="20682" len="5"/>
          <note pan="0" key="57" vol="100" pos="20688" len="5"/>
          <note pan="0" key="49" vol="100" pos="20694" len="5"/>
          <note pan="0" key="66" vol="100" pos="20700" len="5"/>
          <note pan="0" key="57" vol="100" pos="20706" len="5"/>
          <note pan="0" key="49" vol="100" pos="20712" len="5"/>
          <note pan="0" key="66" vol="100" pos="20718" len="5"/>
          <note pan="0" key="57" vol="100" pos="20724" len="5"/>
          <note pan="0" key="49" vol="100" pos="20730" len="5"/>
          <note pan="0" key="67" vol="100" pos="20736" len="5"/>
          <note pan="0" key="59" vol="100" pos="20742" len="5"/>
          <note pan="0" key="50" vol="100" pos="20748" len="5"/>
          <note pan="0" key="67" vol="100" pos="20754" len="5"/>
          <note pan="0" key="59" vol="100" pos="20760" len="5"/>
          <note pan="0" key="50" vol="100" pos="20766" len="5"/>
          <note pan="0" key="67" vol="100" pos="20772" len="5"/>
          <note pan="0" key="59" vol="100" pos="20778" len="5"/>
          <note pan="0" key="50" vol="100" pos="20784" len="5"/>
          <note pan="0" key="67" vol="100" pos="20790" len="5"/>
          <note pan="0" key="59" vol="100" pos="20796" len="5"/>
          <note pan="0" key="50" vol="100" pos="20802" len="5"/>
          <note pan="0" key="67" vol="100" pos="20808" len="5"/>
          <note pan="0" key="59" vol="100" pos="20814" len="5"/>
          <note pan="0" key="50" vol="100" pos="20820" len="5"/>
          <note pan="0" key="67" vol="100" pos="20826" len="5"/>
          <note pan="0" key="59" vol="100" pos="20832" len="5"/>
          <note pan="0" key="50" vol="100" pos="20838" len="5"/>
          <note pan="0" key="67" vol="100" pos="20844" len="5"/>
          <note pan="0" key="59" vol="100" pos="20850" len="5"/>
          <note pan="0" key="50" vol="100" pos="20856" len="5"/>
          <note pan="0" key="67" vol="100" pos="20862" len="5"/>
          <note pan="0" key="59" vol="100" pos="20868" len="5"/>
          <note pan="0" key="50" vol="100" pos="20874" len="5"/>
          <note pan="0" key="67" vol="100" pos="20880" len="5"/>
          <note pan="0" key="59" vol="100" pos="20886" len="5"/>
          <note pan="0" key="50" vol="100" pos="20892" len="5"/>
          <note pan="0" key="67" vol="100" pos="20898" len="5"/>
          <note pan="0" key="59" vol="100" pos="20904" len="5"/>
          <note pan="0" key="50" vol="100" pos="20910" len="5"/>
          <note pan="0" key="67" vol="100" pos="20916" len="5"/>
          <note pan="0" key="59" vol="100" pos="20922" len="5"/>
          <note pan="0" key="69" vol="100" pos="20928" len="5"/>
          <note pan="0" key="61" vol="100" pos="20934" len="5"/>
          <note pan="0" key="52" vol="100" pos="20940" len="5"/>
          <note pan="0" key="69" vol="100" pos="20946" len="5"/>
          <note pan="0" key="61" vol="100" pos="20952" len="5"/>
          <note pan="0" key="52" vol="100" pos="20958" len="5"/>
          <note pan="0" key="69" vol="100" pos="20964" len="5"/>
          <note pan="0" key="61" vol="100" pos="20970" len="5"/>
          <note pan="0" key="52" vol="100" pos="20976" len="5"/>
          <note pan="0" key="69" vol="100" pos="20982" len="5"/>
          <note pan="0" key="61" vol="100" pos="20988" len="5"/>
          <note pan="0" key="52" vol="100" pos="20994" len="5"/>
          <note pan="0" key="69" vol="100" pos="21000" len="5"/>
          <note pan="0" key="61" vol="100" pos="21006" len="5"/>
          <note pan="0" key="52" vol="100" pos="21012" len="5"/>
          <note pan="0" key="69" vol="100" pos="21018" len="5"/>
          <note pan="0" key="61" vol="100" pos="21024" len="5"/>
          <note pan="0" key="52" vol="100" pos="21030" len="5"/>
          <note pan="0" key="69" vol="100" pos="21036" len="5"/>
          <note pan="0" key="61" vol="100" pos="21042" len="5"/>
          <note pan="0" key="52" vol="100" pos="21048" len="5"/>
          <note pan="0" key="69" vol="100" pos="21054" len="5"/>
          <note pan="0" key="61" vol="100" pos="21060" len="5"/>
          <note pan="0" key="52" vol="100" pos="21066" len="5"/>
          <note pan="0" key="69" vol="100" pos="21072" len="5"/>
          <note pan="0" key="61" vol="100" pos="21078" len="5"/>
          <note pan="0" key="52" vol="100" pos="21084" len="5"/>
          <note pan="0" key="69" vol="100" pos="21090" len="5"/>
          <note pan="0" key="61" vol="100" pos="21096" len="5"/>
          <note pan="0" key="52" vol="100" pos="21102" len="5"/>
          <note pan="0" key="69" vol="100" pos="21108" len="5"/>
          <note pan="0" key="61" vol="100" pos="21114" len="5"/>
          <note pan="0" key="71" vol="100" pos="21120" len="5"/>
          <note pan="0" key="62" vol="100" pos="21126" len="5"/>
          <note pan="0" key="54" vol="100" pos="21132" len="5"/>
          <note pan="0" key="71" vol="100" pos="21138" len="5"/>
          <note pan="0" key="62" vol="100" pos="21144" len="5"/>
          <note pan="0" key="54" vol="100" pos="21150" len="5"/>
          <note pan="0" key="71" vol="100" pos="21156" len="5"/>
          <note pan="0" key="62" vol="100" pos="21162" len="5"/>
          <note pan="0" key="54" vol="100" pos="21168" len="5"/>
          <note pan="0" key="71" vol="100" pos="21174" len="5"/>
          <note pan="0" key="62" vol="100" pos="21180" len="5"/>
          <note pan="0" key="54" vol="100" pos="21186" len="5"/>
          <note pan="0" key="71" vol="100" pos="21192" len="5"/>
          <note pan="0" key="62" vol="100" pos="21198" len="5"/>
          <note pan="0" key="54" vol="100" pos="21204" len="5"/>
          <note pan="0" key="71" vol="100" pos="21210" len="5"/>
          <note pan="0" key="62" vol="100" pos="21216" len="5"/>
          <note pan="0" key="54" vol="100" pos="21222" len="5"/>
          <note pan="0" key="71" vol="100" pos="21228" len="5"/>
          <note pan="0" key="62" vol="100" pos="21234" len="5"/>
          <note pan="0" key="54" vol="100" pos="21240" len="5"/>
          <note pan="0" key="71" vol="100" pos="21246" len="5"/>
          <note pan="0" key="62" vol="100" pos="21252" len="5"/>
          <note pan="0" key="54" vol="100" pos="21258" len="5"/>
          <note pan="0" key="71" vol="100" pos="21264" len="5"/>
          <note pan="0" key="62" vol="100" pos="21270" len="5"/>
          <note pan="0" key="54" vol="100" pos="21276" len="5"/>
          <note pan="0" key="71" vol="100" pos="21282" len="5"/>
          <note pan="0" key="62" vol="100" pos="21288" len="5"/>
          <note pan="0" key="54" vol="100" pos="21294" len="5"/>
          <note pan="0" key="71" vol="100" pos="21300" len="5"/>
          <note pan="0" key="62" vol="100" pos="21306" len="5"/>
          <note pan="0" key="73" vol="100" pos="21312" len="5"/>
          <note pan="0" key="66" vol="100" pos="21318" len="5"/>
          <note pan="0" key="57" vol="100" pos="21324" len="5"/>
          <note pan="0" key="73" vol="100" pos="21330" len="5"/>
          <note pan="0" key="66" vol="100" pos="21336" len="5"/>
          <note pan="0" key="57" vol="100" pos="21342" len="5"/>
          <note pan="0" key="73" vol="100" pos="21348" len="5"/>
          <note pan="0" key="66" vol="100" pos="21354" len="5"/>
          <note pan="0" key="57" vol="100" pos="21360" len="5"/>
          <note pan="0" key="73" vol="100" pos="21366" len="5"/>
          <note pan="0" key="66" vol="100" pos="21372" len="5"/>
          <note pan="0" key="57" vol="100" pos="21378" len="5"/>
          <note pan="0" key="73" vol="100" pos="21384" len="5"/>
          <note pan="0" key="66" vol="100" pos="21390" len="5"/>
          <note pan="0" key="57" vol="100" pos="21396" len="5"/>
          <note pan="0" key="73" vol="100" pos="21402" len="5"/>
          <note pan="0" key="69" vol="100" pos="21408" len="5"/>
          <note pan="0" key="61" vol="100" pos="21414" len="5"/>
          <note pan="0" key="52" vol="100" pos="21420" len="5"/>
          <note pan="0" key="69" vol="100" pos="21426" len="5"/>
          <note pan="0" key="61" vol="100" pos="21432" len="5"/>
          <note pan="0" key="52" vol="100" pos="21438" len="5"/>
          <note pan="0" key="69" vol="100" pos="21444" len="5"/>
          <note pan="0" key="61" vol="100" pos="21450" len="5"/>
          <note pan="0" key="52" vol="100" pos="21456" len="5"/>
          <note pan="0" key="69" vol="100" pos="21462" len="5"/>
          <note pan="0" key="61" vol="100" pos="21468" len="5"/>
          <note pan="0" key="52" vol="100" pos="21474" len="5"/>
          <note pan="0" key="69" vol="100" pos="21480" len="5"/>
          <note pan="0" key="61" vol="100" pos="21486" len="5"/>
          <note pan="0" key="52" vol="100" pos="21492" len="5"/>
          <note pan="0" key="69" vol="100" pos="21498" len="5"/>
          <note pan="0" key="59" vol="100" pos="21504" len="5"/>
          <note pan="0" key="50" vol="100" pos="21510" len="5"/>
          <note pan="0" key="43" vol="100" pos="21516" len="5"/>
          <note pan="0" key="59" vol="100" pos="21522" len="5"/>
          <note pan="0" key="50" vol="100" pos="21528" len="5"/>
          <note pan="0" key="43" vol="100" pos="21534" len="5"/>
          <note pan="0" key="59" vol="100" pos="21540" len="5"/>
          <note pan="0" key="50" vol="100" pos="21546" len="5"/>
          <note pan="0" key="43" vol="100" pos="21552" len="5"/>
          <note pan="0" key="59" vol="100" pos="21558" len="5"/>
          <note pan="0" key="50" vol="100" pos="21564" len="5"/>
          <note pan="0" key="43" vol="100" pos="21570" len="5"/>
          <note pan="0" key="59" vol="100" pos="21576" len="5"/>
          <note pan="0" key="50" vol="100" pos="21582" len="5"/>
          <note pan="0" key="43" vol="100" pos="21588" len="5"/>
          <note pan="0" key="59" vol="100" pos="21594" len="5"/>
          <note pan="0" key="50" vol="100" pos="21600" len="5"/>
          <note pan="0" key="43" vol="100" pos="21606" len="5"/>
          <note pan="0" key="59" vol="100" pos="21612" len="5"/>
          <note pan="0" key="50" vol="100" pos="21618" len="5"/>
          <note pan="0" key="43" vol="100" pos="21624" len="5"/>
          <note pan="0" key="59" vol="100" pos="21630" len="5"/>
          <note pan="0" key="50" vol="100" pos="21636" len="5"/>
          <note pan="0" key="43" vol="100" pos="21642" len="5"/>
          <note pan="0" key="59" vol="100" pos="21648" len="5"/>
          <note pan="0" key="50" vol="100" pos="21654" len="5"/>
          <note pan="0" key="43" vol="100" pos="21660" len="5"/>
          <note pan="0" key="59" vol="100" pos="21666" len="5"/>
          <note pan="0" key="50" vol="100" pos="21672" len="5"/>
          <note pan="0" key="43" vol="100" pos="21678" len="5"/>
          <note pan="0" key="59" vol="100" pos="21684" len="5"/>
          <note pan="0" key="50" vol="100" pos="21690" len="5"/>
          <note pan="0" key="61" vol="100" pos="21696" len="5"/>
          <note pan="0" key="52" vol="100" pos="21702" len="5"/>
          <note pan="0" key="45" vol="100" pos="21708" len="5"/>
          <note pan="0" key="61" vol="100" pos="21714" len="5"/>
          <note pan="0" key="52" vol="100" pos="21720" len="5"/>
          <note pan="0" key="45" vol="100" pos="21726" len="5"/>
          <note pan="0" key="61" vol="100" pos="21732" len="5"/>
          <note pan="0" key="52" vol="100" pos="21738" len="5"/>
          <note pan="0" key="45" vol="100" pos="21744" len="5"/>
          <note pan="0" key="61" vol="100" pos="21750" len="5"/>
          <note pan="0" key="52" vol="100" pos="21756" len="5"/>
          <note pan="0" key="45" vol="100" pos="21762" len="5"/>
          <note pan="0" key="61" vol="100" pos="21768" len="5"/>
          <note pan="0" key="52" vol="100" pos="21774" len="5"/>
          <note pan="0" key="45" vol="100" pos="21780" len="5"/>
          <note pan="0" key="61" vol="100" pos="21786" len="5"/>
          <note pan="0" key="52" vol="100" pos="21792" len="5"/>
          <note pan="0" key="45" vol="100" pos="21798" len="5"/>
          <note pan="0" key="61" vol="100" pos="21804" len="5"/>
          <note pan="0" key="52" vol="100" pos="21810" len="5"/>
          <note pan="0" key="45" vol="100" pos="21816" len="5"/>
          <note pan="0" key="61" vol="100" pos="21822" len="5"/>
          <note pan="0" key="52" vol="100" pos="21828" len="5"/>
          <note pan="0" key="45" vol="100" pos="21834" len="5"/>
          <note pan="0" key="61" vol="100" pos="21840" len="5"/>
          <note pan="0" key="52" vol="100" pos="21846" len="5"/>
          <note pan="0" key="45" vol="100" pos="21852" len="5"/>
          <note pan="0" key="61" vol="100" pos="21858" len="5"/>
          <note pan="0" key="52" vol="100" pos="21864" len="5"/>
          <note pan="0" key="45" vol="100" pos="21870" len="5"/>
          <note pan="0" key="61" vol="100" pos="21876" len="5"/>
          <note pan="0" key="52" vol="100" pos="21882" len="5"/>
          <note pan="0" key="62" vol="100" pos="21888" len="5"/>
          <note pan="0" key="54" vol="100" pos="21894" len="5"/>
          <note pan="0" key="47" vol="100" pos="21900" len="5"/>
          <note pan="0" key="62" vol="100" pos="21906" len="5"/>
          <note pan="0" key="54" vol="100" pos="21912" len="5"/>
          <note pan="0" key="47" vol="100" pos="21918" len="5"/>
          <note pan="0" key="62" vol="100" pos="21924" len="5"/>
          <note pan="0" key="54" vol="100" pos="21930" len="5"/>
          <note pan="0" key="47" vol="100" pos="21936" len="5"/>
          <note pan="0" key="62" vol="100" pos="21942" len="5"/>
          <note pan="0" key="54" vol="100" pos="21948" len="5"/>
          <note pan="0" key="47" vol="100" pos="21954" len="5"/>
          <note pan="0" key="62" vol="100" pos="21960" len="5"/>
          <note pan="0" key="54" vol="100" pos="21966" len="5"/>
          <note pan="0" key="47" vol="100" pos="21972" len="5"/>
          <note pan="0" key="62" vol="100" pos="21978" len="5"/>
          <note pan="0" key="54" vol="100" pos="21984" len="5"/>
          <note pan="0" key="47" vol="100" pos="21990" len="5"/>
          <note pan="0" key="62" vol="100" pos="21996" len="5"/>
          <note pan="0" key="54" vol="100" pos="22002" len="5"/>
          <note pan="0" key="47" vol="100" pos="22008" len="5"/>
          <note pan="0" key="62" vol="100" pos="22014" len="5"/>
          <note pan="0" key="54" vol="100" pos="22020" len="5"/>
          <note pan="0" key="47" vol="100" pos="22026" len="5"/>
          <note pan="0" key="62" vol="100" pos="22032" len="5"/>
          <note pan="0" key="54" vol="100" pos="22038" len="5"/>
          <note pan="0" key="47" vol="100" pos="22044" len="5"/>
          <note pan="0" key="62" vol="100" pos="22050" len="5"/>
          <note pan="0" key="54" vol="100" pos="22056" len="5"/>
          <note pan="0" key="47" vol="100" pos="22062" len="5"/>
          <note pan="0" key="62" vol="100" pos="22068" len="5"/>
          <note pan="0" key="54" vol="100" pos="22074" len="5"/>
          <note pan="0" key="57" vol="100" pos="22080" len="5"/>
          <note pan="0" key="49" vol="100" pos="22086" len="5"/>
          <note pan="0" key="66" vol="100" pos="22092" len="5"/>
          <note pan="0" key="57" vol="100" pos="22098" len="5"/>
          <note pan="0" key="49" vol="100" pos="22104" len="5"/>
          <note pan="0" key="66" vol="100" pos="22110" len="5"/>
          <note pan="0" key="57" vol="100" pos="22116" len="5"/>
          <note pan="0" key="49" vol="100" pos="22122" len="5"/>
          <note pan="0" key="66" vol="100" pos="22128" len="5"/>
          <note pan="0" key="57" vol="100" pos="22134" len="5"/>
          <note pan="0" key="49" vol="100" pos="22140" len="5"/>
          <note pan="0" key="66" vol="100" pos="22146" len="5"/>
          <note pan="0" key="57" vol="100" pos="22152" len="5"/>
          <note pan="0" key="49" vol="100" pos="22158" len="5"/>
          <note pan="0" key="66" vol="100" pos="22164" len="5"/>
          <note pan="0" key="57" vol="100" pos="22170" len="5"/>
          <note pan="0" key="49" vol="100" pos="22176" len="5"/>
          <note pan="0" key="66" vol="100" pos="22182" len="5"/>
          <note pan="0" key="57" vol="100" pos="22188" len="5"/>
          <note pan="0" key="49" vol="100" pos="22194" len="5"/>
          <note pan="0" key="66" vol="100" pos="22200" len="5"/>
          <note pan="0" key="57" vol="100" pos="22206" len="5"/>
          <note pan="0" key="49" vol="100" pos="22212" len="5"/>
          <note pan="0" key="66" vol="100" pos="22218" len="5"/>
          <note pan="0" key="57" vol="100" pos="22224" len="5"/>
          <note pan="0" key="49" vol="100" pos="22230" len="5"/>
          <note pan="0" key="66" vol="100" pos="22236" len="5"/>
          <note pan="0" key="57" vol="100" pos="22242" len="5"/>
          <note pan="0" key="49" vol="100" pos="22248" len="5"/>
          <note pan="0" key="66" vol="100" pos="22254" len="5"/>
          <note pan="0" key="57" vol="100" pos="22260" len="5"/>
          <note pan="0" key="49" vol="100" pos="22266" len="5"/>
          <note pan="0" key="67" vol="100" pos="22272" len="5"/>
          <note pan="0" key="59" vol="100" pos="22278" len="5"/>
          <note pan="0" key="50" vol="100" pos="22284" len="5"/>
          <note pan="0" key="67" vol="100" pos="22290" len="5"/>
          <note pan="0" key="59" vol="100" pos="22296" len="5"/>
          <note pan="0" key="50" vol="100" pos="22302" len="5"/>
          <note pan="0" key="67" vol="100" pos="22308" len="5"/>
          <note pan="0" key="59" vol="100" pos="22314" len="5"/>
          <note pan="0" key="50" vol="100" pos="22320" len="5"/>
          <note pan="0" key="67" vol="100" pos="22326" len="5"/>
          <note pan="0" key="59" vol="100" pos="22332" len="5"/>
          <note pan="0" key="50" vol="100" pos="22338" len="5"/>
          <note pan="0" key="67" vol="100" pos="22344" len="5"/>
          <note pan="0" key="59" vol="100" pos="22350" len="5"/>
          <note pan="0" key="50" vol="100" pos="22356" len="5"/>
          <note pan="0" key="67" vol="100" pos="22362" len="5"/>
          <note pan="0" key="59" vol="100" pos="22368" len="5"/>
          <note pan="0" key="50" vol="100" pos="22374" len="5"/>
          <note pan="0" key="67" vol="100" pos="22380" len="5"/>
          <note pan="0" key="59" vol="100" pos="22386" len="5"/>
          <note pan="0" key="50" vol="100" pos="22392" len="5"/>
          <note pan="0" key="67" vol="100" pos="22398" len="5"/>
          <note pan="0" key="59" vol="100" pos="22404" len="5"/>
          <note pan="0" key="50" vol="100" pos="22410" len="5"/>
          <note pan="0" key="67" vol="100" pos="22416" len="5"/>
          <note pan="0" key="59" vol="100" pos="22422" len="5"/>
          <note pan="0" key="50" vol="100" pos="22428" len="5"/>
          <note pan="0" key="67" vol="100" pos="22434" len="5"/>
          <note pan="0" key="59" vol="100" pos="22440" len="5"/>
          <note pan="0" key="50" vol="100" pos="22446" len="5"/>
          <note pan="0" key="67" vol="100" pos="22452" len="5"/>
          <note pan="0" key="59" vol="100" pos="22458" len="5"/>
          <note pan="0" key="69" vol="100" pos="22464" len="5"/>
          <note pan="0" key="61" vol="100" pos="22470" len="5"/>
          <note pan="0" key="52" vol="100" pos="22476" len="5"/>
          <note pan="0" key="69" vol="100" pos="22482" len="5"/>
          <note pan="0" key="61" vol="100" pos="22488" len="5"/>
          <note pan="0" key="52" vol="100" pos="22494" len="5"/>
          <note pan="0" key="69" vol="100" pos="22500" len="5"/>
          <note pan="0" key="61" vol="100" pos="22506" len="5"/>
          <note pan="0" key="52" vol="100" pos="22512" len="5"/>
          <note pan="0" key="69" vol="100" pos="22518" len="5"/>
          <note pan="0" key="61" vol="100" pos="22524" len="5"/>
          <note pan="0" key="52" vol="100" pos="22530" len="5"/>
          <note pan="0" key="69" vol="100" pos="22536" len="5"/>
          <note pan="0" key="61" vol="100" pos="22542" len="5"/>
          <note pan="0" key="52" vol="100" pos="22548" len="5"/>
          <note pan="0" key="69" vol="100" pos="22554" len="5"/>
          <note pan="0" key="61" vol="100" pos="22560" len="5"/>
          <note pan="0" key="52" vol="100" pos="22566" len="5"/>
          <note pan="0" key="69" vol="100" pos="22572" len="5"/>
          <note pan="0" key="61" vol="100" pos="22578" len="5"/>
          <note pan="0" key="52" vol="100" pos="22584" len="5"/>
          <note pan="0" key="69" vol="100" pos="22590" len="5"/>
          <note pan="0" key="61" vol="100" pos="22596" len="5"/>
          <note pan="0" key="52" vol="100" pos="22602" len="5"/>
          <note pan="0" key="69" vol="100" pos="22608" len="5"/>
          <note pan="0" key="61" vol="100" pos="22614" len="5"/>
          <note pan="0" key="52" vol="100" pos="22620" len="5"/>
          <note pan="0" key="69" vol="100" pos="22626" len="5"/>
          <note pan="0" key="61" vol="100" pos="22632" len="5"/>
          <note pan="0" key="52" vol="100" pos="22638" len="5"/>
          <note pan="0" key="69" vol="100" pos="22644" len="5"/>
          <note pan="0" key="61" vol="100" pos="22650" len="5"/>
          <note pan="0" key="71" vol="100" pos="22656" len="5"/>
          <note pan="0" key="62" vol="100" pos="22662" len="5"/>
          <note pan="0" key="54" vol="100" pos="22668" len="5"/>
          <note pan="0" key="71" vol="100" pos="22674" len="5"/>
          <note pan="0" key="62" vol="100" pos="22680" len="5"/>
          <note pan="0" key="54" vol="100" pos="22686" len="5"/>
          <note pan="0" key="71" vol="100" pos="22692" len="5"/>
          <note pan="0" key="62" vol="100" pos="22698" len="5"/>
          <note pan="0" key="54" vol="100" pos="22704" len="5"/>
          <note pan="0" key="71" vol="100" pos="22710" len="5"/>
          <note pan="0" key="62" vol="100" pos="22716" len="5"/>
          <note pan="0" key="54" vol="100" pos="22722" len="5"/>
          <note pan="0" key="71" vol="100" pos="22728" len="5"/>
          <note pan="0" key="62" vol="100" pos="22734" len="5"/>
          <note pan="0" key="54" vol="100" pos="22740" len="5"/>
          <note pan="0" key="71" vol="100" pos="22746" len="5"/>
          <note pan="0" key="62" vol="100" pos="22752" len="5"/>
          <note pan="0" key="54" vol="100" pos="22758" len="5"/>
          <note pan="0" key="71" vol="100" pos="22764" len="5"/>
          <note pan="0" key="62" vol="100" pos="22770" len="5"/>
          <note pan="0" key="54" vol="100" pos="22776" len="5"/>
          <note pan="0" key="71" vol="100" pos="22782" len="5"/>
          <note pan="0" key="62" vol="100" pos="22788" len="5"/>
          <note pan="0" key="54" vol="100" pos="22794" len="5"/>
          <note pan="0" key="71" vol="100" pos="22800" len="5"/>
          <note pan="0" key="62" vol="100" pos="22806" len="5"/>
          <note pan="0" key="54" vol="100" pos="22812" len="5"/>
          <note pan="0" key="71" vol="100" pos="22818" len="5"/>
          <note pan="0" key="62" vol="100" pos="22824" len="5"/>
          <note pan="0" key="54" vol="100" pos="22830" len="5"/>
          <note pan="0" key="71" vol="100" pos="22836" len="5"/>
          <note pan="0" key="62" vol="100" pos="22842" len="5"/>
          <note pan="0" key="59" vol="100" pos="22848" len="29"/>
          <note pan="0" key="54" vol="100" pos="22878" len="5"/>
          <note pan="0" key="50" vol="100" pos="22884" len="5"/>
          <note pan="0" key="42" vol="100" pos="22890" len="5"/>
          <note pan="0" key="47" vol="100" pos="22896" len="29"/>
          <note pan="0" key="42" vol="100" pos="22926" len="5"/>
          <note pan="0" key="38" vol="100" pos="22932" len="5"/>
          <note pan="0" key="35" vol="100" pos="22938" len="5"/>
          <note pan="0" key="47" vol="100" pos="22944" len="5"/>
          <note pan="0" key="35" vol="100" pos="22950" len="65"/>
          <note pan="0" key="47" vol="100" pos="23016" len="5"/>
          <note pan="0" key="35" vol="100" pos="23022" len="5"/>
          <note pan="0" key="47" vol="100" pos="23040" len="5"/>
          <note pan="0" key="35" vol="100" pos="23046" len="5"/>
          <note pan="0" key="45" vol="100" pos="23076" len="5"/>
          <note pan="0" key="47" vol="100" pos="23082" len="5"/>
          <note pan="0" key="45" vol="100" pos="23112" len="5"/>
          <note pan="0" key="47" vol="100" pos="23118" len="5"/>
          <note pan="0" key="45" vol="100" pos="23136" len="5"/>
          <note pan="0" key="47" vol="100" pos="23142" len="5"/>
          <note pan="0" key="45" vol="100" pos="23172" len="5"/>
          <note pan="0" key="47" vol="100" pos="23178" len="5"/>
          <note pan="0" key="45" vol="100" pos="23208" len="5"/>
          <note pan="0" key="47" vol="100" pos="23214" len="5"/>
          <note pan="0" key="45" vol="100" pos="23232" len="5"/>
          <note pan="0" key="47" vol="100" pos="23238" len="5"/>
          <note pan="0" key="45" vol="100" pos="23268" len="5"/>
          <note pan="0" key="47" vol="100" pos="23274" len="5"/>
          <note pan="0" key="45" vol="100" pos="23304" len="5"/>
          <note pan="0" key="47" vol="100" pos="23310" len="5"/>
          <note pan="0" key="45" vol="100" pos="23328" len="5"/>
          <note pan="0" key="47" vol="100" pos="23334" len="5"/>
          <note pan="0" key="45" vol="100" pos="23364" len="5"/>
          <note pan="0" key="47" vol="100" pos="23370" len="5"/>
          <note pan="0" key="45" vol="100" pos="23400" len="5"/>
          <note pan="0" key="47" vol="100" pos="23406" len="5"/>
          <note pan="0" key="45" vol="100" pos="23424" len="5"/>
          <note pan="0" key="47" vol="100" pos="23430" len="5"/>
          <note pan="0" key="45" vol="100" pos="23460" len="5"/>
          <note pan="0" key="47" vol="100" pos="23466" len="5"/>
          <note pan="0" key="45" vol="100" pos="23496" len="5"/>
          <note pan="0" key="47" vol="100" pos="23502" len="5"/>
          <note pan="0" key="45" vol="100" pos="23520" len="5"/>
          <note pan="0" key="47" vol="100" pos="23526" len="5"/>
          <note pan="0" key="45" vol="100" pos="23556" len="5"/>
          <note pan="0" key="47" vol="100" pos="23562" len="5"/>
          <note pan="0" key="45" vol="100" pos="23592" len="5"/>
          <note pan="0" key="47" vol="100" pos="23598" len="5"/>
          <note pan="0" key="45" vol="100" pos="23616" len="5"/>
          <note pan="0" key="47" vol="100" pos="23622" len="5"/>
          <note pan="0" key="45" vol="100" pos="23652" len="5"/>
          <note pan="0" key="47" vol="100" pos="23658" len="5"/>
          <note pan="0" key="45" vol="100" pos="23688" len="5"/>
          <note pan="0" key="47" vol="100" pos="23694" len="5"/>
          <note pan="0" key="45" vol="100" pos="23712" len="5"/>
          <note pan="0" key="47" vol="100" pos="23718" len="5"/>
          <note pan="0" key="45" vol="100" pos="23748" len="5"/>
          <note pan="0" key="47" vol="100" pos="23754" len="5"/>
          <note pan="0" key="45" vol="100" pos="23784" len="5"/>
          <note pan="0" key="47" vol="100" pos="23790" len="5"/>
        </pattern>
      </track>
      <track muted="0" type="0" name="Ch3">
        <instrumenttrack pan="100" fxch="0" pitch="0" basenote="57" vol="25">
          <instrument name="tripleoscillator">
            <tripleoscillator phoffset2="0" userwavefile0="" finer0="0" userwavefile1="" finer1="0" userwavefile2="" finer2="0" coarse0="0" coarse1="0" coarse2="0" finel0="0" finel1="0" modalgo1="2" modalgo2="2" finel2="0" pan0="0" modalgo3="2" pan1="0" stphdetun0="0" pan2="0" stphdetun1="0" wavetype0="3" stphdetun2="0" wavetype1="0" wavetype2="0" vol0="99" vol1="0" phoffset0="0" phoffset1="0" vol2="0"/>
          </instrument>
          <eldata fres="0.5" ftype="0" fcut="14000" fwet="0">
            <elvol lspd_denominator="4" pdel="0" userwavefile="" dec="0.5" lamt="0" syncmode="0" latt="0" rel="0.1" sus="0.5" amt="0" x100="0" att="0" lpdel="0" hold="0.5" lshp="0" lspd="0.1" ctlenvamt="0" lspd_numerator="4"/>
            <elcut lspd_denominator="4" pdel="0" userwavefile="" dec="0.5" lamt="0" syncmode="0" latt="0" rel="0.1" sus="0.5" amt="0" x100="0" att="0" lpdel="0" hold="0.5" lshp="0" lspd="0.1" ctlenvamt="0" lspd_numerator="4"/>
            <elres lspd_denominator="4" pdel="0" userwavefile="" dec="0.5" lamt="0" syncmode="0" latt="0" rel="0.1" sus="0.5" amt="0" x100="0" att="0" lpdel="0" hold="0.5" lshp="0" lspd="0.1" ctlenvamt="0" lspd_numerator="4"/>
          </eldata>
          <chordcreator chord="0" chordrange="1" chord-enabled="0"/>
          <arpeggiator arptime="100" arprange="1" arptime_denominator="4" syncmode="0" arpmode="0" arp-enabled="0" arp="0" arptime_numerator="4" arpdir="0" arpgate="100"/>
          <midiport inputcontroller="0" fixedoutputvelocity="-1" inputchannel="0" outputcontroller="0" writable="0" outputchannel="1" fixedinputvelocity="-1" fixedoutputnote="-1" outputprogram="1" readable="0"/>
          <fxchain numofeffects="0" enabled="0"/>
        </instrumenttrack>
        <pattern steps="16" muted="0" type="1" name="Ch3" pos="0" len="192" frozen="0">
          <note pan="0" key="58" vol="100" pos="0" len="5"/>
          <note pan="0" key="46" vol="100" pos="6" len="5"/>
        </pattern>
        <pattern steps="16" muted="0" type="1" name="Ch3" pos="192" len="384" frozen="0">
          <note pan="0" key="58" vol="100" pos="168" len="5"/>
          <note pan="0" key="46" vol="100" pos="174" len="5"/>
          <note pan="0" key="58" vol="100" pos="192" len="5"/>
          <note pan="0" key="46" vol="100" pos="198" len="5"/>
        </pattern>
        <pattern steps="16" muted="0" type="1" name="Ch3" pos="768" len="192" frozen="0">
          <note pan="0" key="58" vol="100" pos="0" len="5"/>
          <note pan="0" key="46" vol="100" pos="6" len="5"/>
        </pattern>
        <pattern steps="16" muted="0" type="1" name="" pos="960" len="22848" frozen="0">
          <note pan="0" key="46" vol="100" pos="144" len="5"/>
          <note pan="0" key="41" vol="100" pos="150" len="5"/>
          <note pan="0" key="46" vol="100" pos="168" len="5"/>
          <note pan="0" key="41" vol="100" pos="174" len="5"/>
          <note pan="0" key="46" vol="100" pos="192" len="5"/>
          <note pan="0" key="41" vol="100" pos="198" len="5"/>
          <note pan="0" key="46" vol="100" pos="384" len="5"/>
          <note pan="0" key="41" vol="100" pos="390" len="5"/>
          <note pan="0" key="46" vol="100" pos="432" len="5"/>
          <note pan="0" key="41" vol="100" pos="438" len="5"/>
          <note pan="0" key="41" vol="100" pos="480" len="5"/>
          <note pan="0" key="41" vol="100" pos="492" len="5"/>
          <note pan="0" key="41" vol="100" pos="504" len="5"/>
          <note pan="0" key="41" vol="100" pos="516" len="5"/>
          <note pan="0" key="53" vol="100" pos="528" len="23"/>
          <note pan="0" key="53" vol="100" pos="576" len="11"/>
          <note pan="0" key="41" vol="100" pos="588" len="5"/>
          <note pan="0" key="29" vol="100" pos="594" len="5"/>
          <note pan="0" key="53" vol="100" pos="600" len="5"/>
          <note pan="0" key="29" vol="100" pos="606" len="5"/>
          <note pan="0" key="65" vol="100" pos="612" len="11"/>
          <note pan="0" key="41" vol="100" pos="624" len="5"/>
          <note pan="0" key="29" vol="100" pos="630" len="5"/>
          <note pan="0" key="65" vol="100" pos="636" len="5"/>
          <note pan="0" key="29" vol="100" pos="642" len="5"/>
          <note pan="0" key="63" vol="100" pos="648" len="5"/>
          <note pan="0" key="27" vol="100" pos="654" len="5"/>
          <note pan="0" key="65" vol="100" pos="660" len="5"/>
          <note pan="0" key="29" vol="100" pos="666" len="5"/>
          <note pan="0" key="53" vol="100" pos="672" len="11"/>
          <note pan="0" key="41" vol="100" pos="684" len="5"/>
          <note pan="0" key="29" vol="100" pos="690" len="5"/>
          <note pan="0" key="53" vol="100" pos="696" len="5"/>
          <note pan="0" key="29" vol="100" pos="702" len="5"/>
          <note pan="0" key="65" vol="100" pos="708" len="11"/>
          <note pan="0" key="41" vol="100" pos="720" len="5"/>
          <note pan="0" key="29" vol="100" pos="726" len="5"/>
          <note pan="0" key="65" vol="100" pos="732" len="5"/>
          <note pan="0" key="29" vol="100" pos="738" len="5"/>
          <note pan="0" key="63" vol="100" pos="744" len="5"/>
          <note pan="0" key="27" vol="100" pos="750" len="5"/>
          <note pan="0" key="65" vol="100" pos="756" len="5"/>
          <note pan="0" key="29" vol="100" pos="762" len="5"/>
          <note pan="0" key="53" vol="100" pos="768" len="11"/>
          <note pan="0" key="41" vol="100" pos="780" len="5"/>
          <note pan="0" key="29" vol="100" pos="786" len="5"/>
          <note pan="0" key="53" vol="100" pos="792" len="5"/>
          <note pan="0" key="29" vol="100" pos="798" len="5"/>
          <note pan="0" key="65" vol="100" pos="804" len="11"/>
          <note pan="0" key="41" vol="100" pos="816" len="5"/>
          <note pan="0" key="29" vol="100" pos="822" len="5"/>
          <note pan="0" key="65" vol="100" pos="828" len="5"/>
          <note pan="0" key="29" vol="100" pos="834" len="5"/>
          <note pan="0" key="63" vol="100" pos="840" len="5"/>
          <note pan="0" key="27" vol="100" pos="846" len="5"/>
          <note pan="0" key="65" vol="100" pos="852" len="5"/>
          <note pan="0" key="29" vol="100" pos="858" len="5"/>
          <note pan="0" key="56" vol="100" pos="864" len="11"/>
          <note pan="0" key="37" vol="100" pos="876" len="5"/>
          <note pan="0" key="49" vol="100" pos="882" len="5"/>
          <note pan="0" key="65" vol="100" pos="888" len="5"/>
          <note pan="0" key="49" vol="100" pos="894" len="5"/>
          <note pan="0" key="68" vol="100" pos="900" len="5"/>
          <note pan="0" key="49" vol="100" pos="906" len="5"/>
          <note pan="0" key="58" vol="100" pos="912" len="11"/>
          <note pan="0" key="39" vol="100" pos="924" len="5"/>
          <note pan="0" key="51" vol="100" pos="930" len="5"/>
          <note pan="0" key="68" vol="100" pos="936" len="5"/>
          <note pan="0" key="51" vol="100" pos="942" len="5"/>
          <note pan="0" key="70" vol="100" pos="948" len="5"/>
          <note pan="0" key="51" vol="100" pos="954" len="5"/>
          <note pan="0" key="53" vol="100" pos="960" len="11"/>
          <note pan="0" key="41" vol="100" pos="972" len="5"/>
          <note pan="0" key="29" vol="100" pos="978" len="5"/>
          <note pan="0" key="53" vol="100" pos="984" len="5"/>
          <note pan="0" key="29" vol="100" pos="990" len="5"/>
          <note pan="0" key="65" vol="100" pos="996" len="11"/>
          <note pan="0" key="41" vol="100" pos="1008" len="5"/>
          <note pan="0" key="29" vol="100" pos="1014" len="5"/>
          <note pan="0" key="65" vol="100" pos="1020" len="5"/>
          <note pan="0" key="29" vol="100" pos="1026" len="5"/>
          <note pan="0" key="63" vol="100" pos="1032" len="5"/>
          <note pan="0" key="27" vol="100" pos="1038" len="5"/>
          <note pan="0" key="65" vol="100" pos="1044" len="5"/>
          <note pan="0" key="29" vol="100" pos="1050" len="5"/>
          <note pan="0" key="53" vol="100" pos="1056" len="11"/>
          <note pan="0" key="41" vol="100" pos="1068" len="5"/>
          <note pan="0" key="29" vol="100" pos="1074" len="5"/>
          <note pan="0" key="53" vol="100" pos="1080" len="5"/>
          <note pan="0" key="29" vol="100" pos="1086" len="5"/>
          <note pan="0" key="65" vol="100" pos="1092" len="11"/>
          <note pan="0" key="41" vol="100" pos="1104" len="5"/>
          <note pan="0" key="29" vol="100" pos="1110" len="5"/>
          <note pan="0" key="65" vol="100" pos="1116" len="5"/>
          <note pan="0" key="29" vol="100" pos="1122" len="5"/>
          <note pan="0" key="63" vol="100" pos="1128" len="5"/>
          <note pan="0" key="27" vol="100" pos="1134" len="5"/>
          <note pan="0" key="65" vol="100" pos="1140" len="5"/>
          <note pan="0" key="29" vol="100" pos="1146" len="5"/>
          <note pan="0" key="53" vol="100" pos="1152" len="11"/>
          <note pan="0" key="41" vol="100" pos="1164" len="5"/>
          <note pan="0" key="29" vol="100" pos="1170" len="5"/>
          <note pan="0" key="53" vol="100" pos="1176" len="5"/>
          <note pan="0" key="29" vol="100" pos="1182" len="5"/>
          <note pan="0" key="65" vol="100" pos="1188" len="11"/>
          <note pan="0" key="41" vol="100" pos="1200" len="5"/>
          <note pan="0" key="29" vol="100" pos="1206" len="5"/>
          <note pan="0" key="65" vol="100" pos="1212" len="5"/>
          <note pan="0" key="29" vol="100" pos="1218" len="5"/>
          <note pan="0" key="63" vol="100" pos="1224" len="5"/>
          <note pan="0" key="27" vol="100" pos="1230" len="5"/>
          <note pan="0" key="65" vol="100" pos="1236" len="5"/>
          <note pan="0" key="29" vol="100" pos="1242" len="5"/>
          <note pan="0" key="58" vol="100" pos="1248" len="11"/>
          <note pan="0" key="37" vol="100" pos="1260" len="5"/>
          <note pan="0" key="49" vol="100" pos="1266" len="5"/>
          <note pan="0" key="68" vol="100" pos="1272" len="5"/>
          <note pan="0" key="49" vol="100" pos="1278" len="5"/>
          <note pan="0" key="70" vol="100" pos="1284" len="5"/>
          <note pan="0" key="49" vol="100" pos="1290" len="5"/>
          <note pan="0" key="56" vol="100" pos="1296" len="11"/>
          <note pan="0" key="39" vol="100" pos="1308" len="5"/>
          <note pan="0" key="51" vol="100" pos="1314" len="5"/>
          <note pan="0" key="65" vol="100" pos="1320" len="5"/>
          <note pan="0" key="51" vol="100" pos="1326" len="5"/>
          <note pan="0" key="68" vol="100" pos="1332" len="5"/>
          <note pan="0" key="51" vol="100" pos="1338" len="5"/>
          <note pan="0" key="53" vol="100" pos="1344" len="11"/>
          <note pan="0" key="41" vol="100" pos="1356" len="5"/>
          <note pan="0" key="29" vol="100" pos="1362" len="5"/>
          <note pan="0" key="53" vol="100" pos="1368" len="5"/>
          <note pan="0" key="29" vol="100" pos="1374" len="5"/>
          <note pan="0" key="65" vol="100" pos="1380" len="11"/>
          <note pan="0" key="41" vol="100" pos="1392" len="5"/>
          <note pan="0" key="29" vol="100" pos="1398" len="5"/>
          <note pan="0" key="65" vol="100" pos="1404" len="5"/>
          <note pan="0" key="29" vol="100" pos="1410" len="5"/>
          <note pan="0" key="63" vol="100" pos="1416" len="5"/>
          <note pan="0" key="27" vol="100" pos="1422" len="5"/>
          <note pan="0" key="65" vol="100" pos="1428" len="5"/>
          <note pan="0" key="29" vol="100" pos="1434" len="5"/>
          <note pan="0" key="53" vol="100" pos="1440" len="11"/>
          <note pan="0" key="41" vol="100" pos="1452" len="5"/>
          <note pan="0" key="29" vol="100" pos="1458" len="5"/>
          <note pan="0" key="53" vol="100" pos="1464" len="5"/>
          <note pan="0" key="29" vol="100" pos="1470" len="5"/>
          <note pan="0" key="65" vol="100" pos="1476" len="11"/>
          <note pan="0" key="41" vol="100" pos="1488" len="5"/>
          <note pan="0" key="29" vol="100" pos="1494" len="5"/>
          <note pan="0" key="65" vol="100" pos="1500" len="5"/>
          <note pan="0" key="29" vol="100" pos="1506" len="5"/>
          <note pan="0" key="63" vol="100" pos="1512" len="5"/>
          <note pan="0" key="27" vol="100" pos="1518" len="5"/>
          <note pan="0" key="65" vol="100" pos="1524" len="5"/>
          <note pan="0" key="29" vol="100" pos="1530" len="5"/>
          <note pan="0" key="53" vol="100" pos="1536" len="11"/>
          <note pan="0" key="41" vol="100" pos="1548" len="5"/>
          <note pan="0" key="29" vol="100" pos="1554" len="5"/>
          <note pan="0" key="53" vol="100" pos="1560" len="5"/>
          <note pan="0" key="29" vol="100" pos="1566" len="5"/>
          <note pan="0" key="65" vol="100" pos="1572" len="11"/>
          <note pan="0" key="41" vol="100" pos="1584" len="5"/>
          <note pan="0" key="29" vol="100" pos="1590" len="5"/>
          <note pan="0" key="65" vol="100" pos="1596" len="5"/>
          <note pan="0" key="29" vol="100" pos="1602" len="5"/>
          <note pan="0" key="63" vol="100" pos="1608" len="5"/>
          <note pan="0" key="27" vol="100" pos="1614" len="5"/>
          <note pan="0" key="65" vol="100" pos="1620" len="5"/>
          <note pan="0" key="29" vol="100" pos="1626" len="5"/>
          <note pan="0" key="56" vol="100" pos="1632" len="11"/>
          <note pan="0" key="37" vol="100" pos="1644" len="5"/>
          <note pan="0" key="49" vol="100" pos="1650" len="5"/>
          <note pan="0" key="65" vol="100" pos="1656" len="5"/>
          <note pan="0" key="49" vol="100" pos="1662" len="5"/>
          <note pan="0" key="68" vol="100" pos="1668" len="5"/>
          <note pan="0" key="49" vol="100" pos="1674" len="5"/>
          <note pan="0" key="58" vol="100" pos="1680" len="11"/>
          <note pan="0" key="39" vol="100" pos="1692" len="5"/>
          <note pan="0" key="51" vol="100" pos="1698" len="5"/>
          <note pan="0" key="68" vol="100" pos="1704" len="5"/>
          <note pan="0" key="51" vol="100" pos="1710" len="5"/>
          <note pan="0" key="70" vol="100" pos="1716" len="5"/>
          <note pan="0" key="51" vol="100" pos="1722" len="5"/>
          <note pan="0" key="53" vol="100" pos="1728" len="11"/>
          <note pan="0" key="41" vol="100" pos="1740" len="5"/>
          <note pan="0" key="29" vol="100" pos="1746" len="5"/>
          <note pan="0" key="53" vol="100" pos="1752" len="5"/>
          <note pan="0" key="29" vol="100" pos="1758" len="5"/>
          <note pan="0" key="65" vol="100" pos="1764" len="11"/>
          <note pan="0" key="41" vol="100" pos="1776" len="5"/>
          <note pan="0" key="29" vol="100" pos="1782" len="5"/>
          <note pan="0" key="65" vol="100" pos="1788" len="5"/>
          <note pan="0" key="29" vol="100" pos="1794" len="5"/>
          <note pan="0" key="63" vol="100" pos="1800" len="5"/>
          <note pan="0" key="27" vol="100" pos="1806" len="5"/>
          <note pan="0" key="65" vol="100" pos="1812" len="5"/>
          <note pan="0" key="29" vol="100" pos="1818" len="5"/>
          <note pan="0" key="53" vol="100" pos="1824" len="11"/>
          <note pan="0" key="41" vol="100" pos="1836" len="5"/>
          <note pan="0" key="29" vol="100" pos="1842" len="5"/>
          <note pan="0" key="53" vol="100" pos="1848" len="5"/>
          <note pan="0" key="29" vol="100" pos="1854" len="5"/>
          <note pan="0" key="65" vol="100" pos="1860" len="11"/>
          <note pan="0" key="41" vol="100" pos="1872" len="5"/>
          <note pan="0" key="29" vol="100" pos="1878" len="5"/>
          <note pan="0" key="65" vol="100" pos="1884" len="5"/>
          <note pan="0" key="29" vol="100" pos="1890" len="5"/>
          <note pan="0" key="63" vol="100" pos="1896" len="5"/>
          <note pan="0" key="27" vol="100" pos="1902" len="5"/>
          <note pan="0" key="65" vol="100" pos="1908" len="5"/>
          <note pan="0" key="29" vol="100" pos="1914" len="5"/>
          <note pan="0" key="53" vol="100" pos="1920" len="11"/>
          <note pan="0" key="41" vol="100" pos="1932" len="5"/>
          <note pan="0" key="29" vol="100" pos="1938" len="5"/>
          <note pan="0" key="53" vol="100" pos="1944" len="5"/>
          <note pan="0" key="29" vol="100" pos="1950" len="5"/>
          <note pan="0" key="65" vol="100" pos="1956" len="11"/>
          <note pan="0" key="41" vol="100" pos="1968" len="5"/>
          <note pan="0" key="29" vol="100" pos="1974" len="5"/>
          <note pan="0" key="65" vol="100" pos="1980" len="5"/>
          <note pan="0" key="29" vol="100" pos="1986" len="5"/>
          <note pan="0" key="63" vol="100" pos="1992" len="5"/>
          <note pan="0" key="27" vol="100" pos="1998" len="5"/>
          <note pan="0" key="65" vol="100" pos="2004" len="5"/>
          <note pan="0" key="29" vol="100" pos="2010" len="5"/>
          <note pan="0" key="46" vol="100" pos="2016" len="11"/>
          <note pan="0" key="44" vol="100" pos="2034" len="11"/>
          <note pan="0" key="46" vol="100" pos="2046" len="11"/>
          <note pan="0" key="44" vol="100" pos="2064" len="11"/>
          <note pan="0" key="41" vol="100" pos="2082" len="11"/>
          <note pan="0" key="44" vol="100" pos="2100" len="11"/>
          <note pan="0" key="70" vol="100" pos="2112" len="5"/>
          <note pan="0" key="58" vol="100" pos="2118" len="17"/>
          <note pan="0" key="72" vol="100" pos="2136" len="5"/>
          <note pan="0" key="60" vol="100" pos="2142" len="17"/>
          <note pan="0" key="73" vol="100" pos="2160" len="5"/>
          <note pan="0" key="61" vol="100" pos="2166" len="17"/>
          <note pan="0" key="75" vol="100" pos="2184" len="5"/>
          <note pan="0" key="63" vol="100" pos="2190" len="17"/>
          <note pan="0" key="77" vol="100" pos="2208" len="5"/>
          <note pan="0" key="65" vol="100" pos="2214" len="23"/>
          <note pan="0" key="58" vol="100" pos="2238" len="5"/>
          <note pan="0" key="53" vol="100" pos="2244" len="5"/>
          <note pan="0" key="46" vol="100" pos="2250" len="5"/>
          <note pan="0" key="82" vol="100" pos="2256" len="5"/>
          <note pan="0" key="70" vol="100" pos="2262" len="17"/>
          <note pan="0" key="80" vol="100" pos="2280" len="5"/>
          <note pan="0" key="68" vol="100" pos="2286" len="17"/>
          <note pan="0" key="77" vol="100" pos="2304" len="5"/>
          <note pan="0" key="65" vol="100" pos="2310" len="41"/>
          <note pan="0" key="70" vol="100" pos="2352" len="5"/>
          <note pan="0" key="58" vol="100" pos="2358" len="41"/>
          <note pan="0" key="77" vol="100" pos="2400" len="5"/>
          <note pan="0" key="65" vol="100" pos="2406" len="17"/>
          <note pan="0" key="75" vol="100" pos="2424" len="5"/>
          <note pan="0" key="65" vol="100" pos="2430" len="5"/>
          <note pan="0" key="63" vol="100" pos="2436" len="11"/>
          <note pan="0" key="73" vol="100" pos="2448" len="5"/>
          <note pan="0" key="61" vol="100" pos="2454" len="17"/>
          <note pan="0" key="72" vol="100" pos="2472" len="5"/>
          <note pan="0" key="60" vol="100" pos="2478" len="17"/>
          <note pan="0" key="70" vol="100" pos="2496" len="5"/>
          <note pan="0" key="58" vol="100" pos="2502" len="17"/>
          <note pan="0" key="72" vol="100" pos="2520" len="5"/>
          <note pan="0" key="60" vol="100" pos="2526" len="17"/>
          <note pan="0" key="73" vol="100" pos="2544" len="5"/>
          <note pan="0" key="61" vol="100" pos="2550" len="17"/>
          <note pan="0" key="75" vol="100" pos="2568" len="5"/>
          <note pan="0" key="63" vol="100" pos="2574" len="17"/>
          <note pan="0" key="77" vol="100" pos="2592" len="5"/>
          <note pan="0" key="65" vol="100" pos="2598" len="23"/>
          <note pan="0" key="61" vol="100" pos="2622" len="5"/>
          <note pan="0" key="58" vol="100" pos="2628" len="5"/>
          <note pan="0" key="54" vol="100" pos="2634" len="5"/>
          <note pan="0" key="75" vol="100" pos="2640" len="5"/>
          <note pan="0" key="63" vol="100" pos="2646" len="17"/>
          <note pan="0" key="73" vol="100" pos="2664" len="5"/>
          <note pan="0" key="61" vol="100" pos="2670" len="17"/>
          <note pan="0" key="72" vol="100" pos="2688" len="5"/>
          <note pan="0" key="60" vol="100" pos="2694" len="17"/>
          <note pan="0" key="70" vol="100" pos="2712" len="5"/>
          <note pan="0" key="61" vol="100" pos="2718" len="5"/>
          <note pan="0" key="60" vol="100" pos="2724" len="5"/>
          <note pan="0" key="58" vol="100" pos="2730" len="5"/>
          <note pan="0" key="72" vol="100" pos="2736" len="5"/>
          <note pan="0" key="60" vol="100" pos="2742" len="17"/>
          <note pan="0" key="73" vol="100" pos="2760" len="5"/>
          <note pan="0" key="61" vol="100" pos="2766" len="17"/>
          <note pan="0" key="72" vol="100" pos="2784" len="5"/>
          <note pan="0" key="60" vol="100" pos="2790" len="17"/>
          <note pan="0" key="70" vol="100" pos="2808" len="5"/>
          <note pan="0" key="58" vol="100" pos="2814" len="17"/>
          <note pan="0" key="69" vol="100" pos="2832" len="5"/>
          <note pan="0" key="57" vol="100" pos="2838" len="17"/>
          <note pan="0" key="72" vol="100" pos="2856" len="5"/>
          <note pan="0" key="60" vol="100" pos="2862" len="17"/>
          <note pan="0" key="70" vol="100" pos="2880" len="5"/>
          <note pan="0" key="58" vol="100" pos="2886" len="17"/>
          <note pan="0" key="72" vol="100" pos="2904" len="5"/>
          <note pan="0" key="60" vol="100" pos="2910" len="17"/>
          <note pan="0" key="73" vol="100" pos="2928" len="5"/>
          <note pan="0" key="61" vol="100" pos="2934" len="17"/>
          <note pan="0" key="75" vol="100" pos="2952" len="5"/>
          <note pan="0" key="63" vol="100" pos="2958" len="17"/>
          <note pan="0" key="77" vol="100" pos="2976" len="5"/>
          <note pan="0" key="65" vol="100" pos="2982" len="23"/>
          <note pan="0" key="58" vol="100" pos="3006" len="5"/>
          <note pan="0" key="53" vol="100" pos="3012" len="5"/>
          <note pan="0" key="46" vol="100" pos="3018" len="5"/>
          <note pan="0" key="82" vol="100" pos="3024" len="5"/>
          <note pan="0" key="70" vol="100" pos="3030" len="17"/>
          <note pan="0" key="80" vol="100" pos="3048" len="5"/>
          <note pan="0" key="68" vol="100" pos="3054" len="17"/>
          <note pan="0" key="77" vol="100" pos="3072" len="5"/>
          <note pan="0" key="65" vol="100" pos="3078" len="41"/>
          <note pan="0" key="70" vol="100" pos="3120" len="5"/>
          <note pan="0" key="58" vol="100" pos="3126" len="41"/>
          <note pan="0" key="77" vol="100" pos="3168" len="5"/>
          <note pan="0" key="65" vol="100" pos="3174" len="17"/>
          <note pan="0" key="75" vol="100" pos="3192" len="5"/>
          <note pan="0" key="65" vol="100" pos="3198" len="5"/>
          <note pan="0" key="63" vol="100" pos="3204" len="11"/>
          <note pan="0" key="73" vol="100" pos="3216" len="5"/>
          <note pan="0" key="61" vol="100" pos="3222" len="17"/>
          <note pan="0" key="72" vol="100" pos="3240" len="5"/>
          <note pan="0" key="60" vol="100" pos="3246" len="17"/>
          <note pan="0" key="70" vol="100" pos="3264" len="5"/>
          <note pan="0" key="58" vol="100" pos="3270" len="17"/>
          <note pan="0" key="72" vol="100" pos="3288" len="5"/>
          <note pan="0" key="60" vol="100" pos="3294" len="17"/>
          <note pan="0" key="73" vol="100" pos="3312" len="5"/>
          <note pan="0" key="61" vol="100" pos="3318" len="17"/>
          <note pan="0" key="75" vol="100" pos="3336" len="5"/>
          <note pan="0" key="63" vol="100" pos="3342" len="17"/>
          <note pan="0" key="77" vol="100" pos="3360" len="5"/>
          <note pan="0" key="65" vol="100" pos="3366" len="23"/>
          <note pan="0" key="61" vol="100" pos="3390" len="5"/>
          <note pan="0" key="58" vol="100" pos="3396" len="5"/>
          <note pan="0" key="54" vol="100" pos="3402" len="5"/>
          <note pan="0" key="75" vol="100" pos="3408" len="5"/>
          <note pan="0" key="63" vol="100" pos="3414" len="17"/>
          <note pan="0" key="73" vol="100" pos="3432" len="5"/>
          <note pan="0" key="61" vol="100" pos="3438" len="17"/>
          <note pan="0" key="68" vol="100" pos="3456" len="5"/>
          <note pan="0" key="56" vol="100" pos="3462" len="41"/>
          <note pan="0" key="70" vol="100" pos="3504" len="5"/>
          <note pan="0" key="58" vol="100" pos="3510" len="41"/>
          <note pan="0" key="72" vol="100" pos="3552" len="5"/>
          <note pan="0" key="60" vol="100" pos="3558" len="41"/>
          <note pan="0" key="73" vol="100" pos="3600" len="5"/>
          <note pan="0" key="61" vol="100" pos="3606" len="41"/>
          <note pan="0" key="65" vol="100" pos="3648" len="5"/>
          <note pan="0" key="53" vol="100" pos="3654" len="17"/>
          <note pan="0" key="68" vol="100" pos="3672" len="5"/>
          <note pan="0" key="56" vol="100" pos="3678" len="17"/>
          <note pan="0" key="70" vol="100" pos="3696" len="5"/>
          <note pan="0" key="58" vol="100" pos="3702" len="17"/>
          <note pan="0" key="72" vol="100" pos="3720" len="5"/>
          <note pan="0" key="60" vol="100" pos="3726" len="17"/>
          <note pan="0" key="70" vol="100" pos="3744" len="5"/>
          <note pan="0" key="58" vol="100" pos="3750" len="23"/>
          <note pan="0" key="53" vol="100" pos="3774" len="5"/>
          <note pan="0" key="49" vol="100" pos="3780" len="5"/>
          <note pan="0" key="46" vol="100" pos="3786" len="5"/>
          <note pan="0" key="77" vol="100" pos="3792" len="5"/>
          <note pan="0" key="65" vol="100" pos="3798" len="17"/>
          <note pan="0" key="75" vol="100" pos="3816" len="5"/>
          <note pan="0" key="63" vol="100" pos="3822" len="17"/>
          <note pan="0" key="73" vol="100" pos="3840" len="5"/>
          <note pan="0" key="61" vol="100" pos="3846" len="17"/>
          <note pan="0" key="60" vol="100" pos="3864" len="23"/>
          <note pan="0" key="65" vol="100" pos="3888" len="5"/>
          <note pan="0" key="53" vol="100" pos="3894" len="41"/>
          <note pan="0" key="70" vol="100" pos="3936" len="5"/>
          <note pan="0" key="58" vol="100" pos="3942" len="17"/>
          <note pan="0" key="68" vol="100" pos="3960" len="5"/>
          <note pan="0" key="58" vol="100" pos="3966" len="5"/>
          <note pan="0" key="56" vol="100" pos="3972" len="11"/>
          <note pan="0" key="65" vol="100" pos="3984" len="5"/>
          <note pan="0" key="53" vol="100" pos="3990" len="17"/>
          <note pan="0" key="68" vol="100" pos="4008" len="5"/>
          <note pan="0" key="56" vol="100" pos="4014" len="17"/>
          <note pan="0" key="66" vol="100" pos="4032" len="5"/>
          <note pan="0" key="54" vol="100" pos="4038" len="17"/>
          <note pan="0" key="68" vol="100" pos="4056" len="5"/>
          <note pan="0" key="56" vol="100" pos="4062" len="17"/>
          <note pan="0" key="70" vol="100" pos="4080" len="5"/>
          <note pan="0" key="58" vol="100" pos="4086" len="17"/>
          <note pan="0" key="72" vol="100" pos="4104" len="5"/>
          <note pan="0" key="60" vol="100" pos="4110" len="17"/>
          <note pan="0" key="70" vol="100" pos="4128" len="5"/>
          <note pan="0" key="58" vol="100" pos="4134" len="23"/>
          <note pan="0" key="58" vol="100" pos="4158" len="5"/>
          <note pan="0" key="54" vol="100" pos="4164" len="5"/>
          <note pan="0" key="49" vol="100" pos="4170" len="5"/>
          <note pan="0" key="72" vol="100" pos="4176" len="5"/>
          <note pan="0" key="60" vol="100" pos="4182" len="17"/>
          <note pan="0" key="70" vol="100" pos="4200" len="5"/>
          <note pan="0" key="58" vol="100" pos="4206" len="17"/>
          <note pan="0" key="68" vol="100" pos="4224" len="5"/>
          <note pan="0" key="56" vol="100" pos="4230" len="17"/>
          <note pan="0" key="61" vol="100" pos="4248" len="5"/>
          <note pan="0" key="58" vol="100" pos="4254" len="5"/>
          <note pan="0" key="56" vol="100" pos="4260" len="5"/>
          <note pan="0" key="51" vol="100" pos="4266" len="5"/>
          <note pan="0" key="68" vol="100" pos="4272" len="5"/>
          <note pan="0" key="56" vol="100" pos="4278" len="17"/>
          <note pan="0" key="70" vol="100" pos="4296" len="5"/>
          <note pan="0" key="58" vol="100" pos="4302" len="17"/>
          <note pan="0" key="68" vol="100" pos="4320" len="5"/>
          <note pan="0" key="56" vol="100" pos="4326" len="17"/>
          <note pan="0" key="66" vol="100" pos="4344" len="5"/>
          <note pan="0" key="54" vol="100" pos="4350" len="17"/>
          <note pan="0" key="65" vol="100" pos="4368" len="5"/>
          <note pan="0" key="53" vol="100" pos="4374" len="17"/>
          <note pan="0" key="69" vol="100" pos="4392" len="5"/>
          <note pan="0" key="57" vol="100" pos="4398" len="17"/>
          <note pan="0" key="65" vol="100" pos="4416" len="5"/>
          <note pan="0" key="53" vol="100" pos="4422" len="17"/>
          <note pan="0" key="68" vol="100" pos="4440" len="5"/>
          <note pan="0" key="56" vol="100" pos="4446" len="17"/>
          <note pan="0" key="70" vol="100" pos="4464" len="5"/>
          <note pan="0" key="58" vol="100" pos="4470" len="17"/>
          <note pan="0" key="72" vol="100" pos="4488" len="5"/>
          <note pan="0" key="60" vol="100" pos="4494" len="17"/>
          <note pan="0" key="70" vol="100" pos="4512" len="5"/>
          <note pan="0" key="58" vol="100" pos="4518" len="41"/>
          <note pan="0" key="77" vol="100" pos="4560" len="5"/>
          <note pan="0" key="65" vol="100" pos="4566" len="17"/>
          <note pan="0" key="75" vol="100" pos="4584" len="5"/>
          <note pan="0" key="63" vol="100" pos="4590" len="17"/>
          <note pan="0" key="73" vol="100" pos="4608" len="5"/>
          <note pan="0" key="61" vol="100" pos="4614" len="17"/>
          <note pan="0" key="60" vol="100" pos="4632" len="23"/>
          <note pan="0" key="65" vol="100" pos="4656" len="5"/>
          <note pan="0" key="53" vol="100" pos="4662" len="41"/>
          <note pan="0" key="70" vol="100" pos="4704" len="5"/>
          <note pan="0" key="58" vol="100" pos="4710" len="17"/>
          <note pan="0" key="68" vol="100" pos="4728" len="5"/>
          <note pan="0" key="58" vol="100" pos="4734" len="5"/>
          <note pan="0" key="56" vol="100" pos="4740" len="11"/>
          <note pan="0" key="65" vol="100" pos="4752" len="5"/>
          <note pan="0" key="53" vol="100" pos="4758" len="17"/>
          <note pan="0" key="68" vol="100" pos="4776" len="5"/>
          <note pan="0" key="56" vol="100" pos="4782" len="17"/>
          <note pan="0" key="66" vol="100" pos="4800" len="5"/>
          <note pan="0" key="54" vol="100" pos="4806" len="17"/>
          <note pan="0" key="68" vol="100" pos="4824" len="5"/>
          <note pan="0" key="56" vol="100" pos="4830" len="17"/>
          <note pan="0" key="70" vol="100" pos="4848" len="5"/>
          <note pan="0" key="58" vol="100" pos="4854" len="17"/>
          <note pan="0" key="72" vol="100" pos="4872" len="5"/>
          <note pan="0" key="60" vol="100" pos="4878" len="17"/>
          <note pan="0" key="70" vol="100" pos="4896" len="5"/>
          <note pan="0" key="58" vol="100" pos="4902" len="23"/>
          <note pan="0" key="58" vol="100" pos="4926" len="5"/>
          <note pan="0" key="54" vol="100" pos="4932" len="5"/>
          <note pan="0" key="49" vol="100" pos="4938" len="5"/>
          <note pan="0" key="72" vol="100" pos="4944" len="5"/>
          <note pan="0" key="60" vol="100" pos="4950" len="17"/>
          <note pan="0" key="70" vol="100" pos="4968" len="5"/>
          <note pan="0" key="58" vol="100" pos="4974" len="17"/>
          <note pan="0" key="56" vol="100" pos="4992" len="5"/>
          <note pan="0" key="75" vol="100" pos="4998" len="5"/>
          <note pan="0" key="63" vol="100" pos="5004" len="5"/>
          <note pan="0" key="68" vol="100" pos="5010" len="5"/>
          <note pan="0" key="51" vol="100" pos="5016" len="5"/>
          <note pan="0" key="72" vol="100" pos="5022" len="5"/>
          <note pan="0" key="56" vol="100" pos="5028" len="5"/>
          <note pan="0" key="68" vol="100" pos="5034" len="5"/>
          <note pan="0" key="56" vol="100" pos="5040" len="5"/>
          <note pan="0" key="75" vol="100" pos="5046" len="5"/>
          <note pan="0" key="63" vol="100" pos="5052" len="5"/>
          <note pan="0" key="68" vol="100" pos="5058" len="5"/>
          <note pan="0" key="51" vol="100" pos="5064" len="5"/>
          <note pan="0" key="72" vol="100" pos="5070" len="5"/>
          <note pan="0" key="56" vol="100" pos="5076" len="5"/>
          <note pan="0" key="68" vol="100" pos="5082" len="5"/>
          <note pan="0" key="57" vol="100" pos="5088" len="5"/>
          <note pan="0" key="77" vol="100" pos="5094" len="5"/>
          <note pan="0" key="65" vol="100" pos="5100" len="5"/>
          <note pan="0" key="69" vol="100" pos="5106" len="5"/>
          <note pan="0" key="53" vol="100" pos="5112" len="5"/>
          <note pan="0" key="75" vol="100" pos="5118" len="5"/>
          <note pan="0" key="57" vol="100" pos="5124" len="5"/>
          <note pan="0" key="69" vol="100" pos="5130" len="5"/>
          <note pan="0" key="57" vol="100" pos="5136" len="5"/>
          <note pan="0" key="77" vol="100" pos="5142" len="5"/>
          <note pan="0" key="65" vol="100" pos="5148" len="5"/>
          <note pan="0" key="69" vol="100" pos="5154" len="5"/>
          <note pan="0" key="53" vol="100" pos="5160" len="5"/>
          <note pan="0" key="75" vol="100" pos="5166" len="5"/>
          <note pan="0" key="57" vol="100" pos="5172" len="5"/>
          <note pan="0" key="69" vol="100" pos="5178" len="5"/>
          <note pan="0" key="77" vol="100" pos="5184" len="23"/>
          <note pan="0" key="77" vol="100" pos="5208" len="23"/>
          <note pan="0" key="73" vol="100" pos="5232" len="23"/>
          <note pan="0" key="72" vol="100" pos="5256" len="23"/>
          <note pan="0" key="73" vol="100" pos="5280" len="47"/>
          <note pan="0" key="72" vol="100" pos="5328" len="23"/>
          <note pan="0" key="73" vol="100" pos="5352" len="23"/>
          <note pan="0" key="75" vol="100" pos="5376" len="23"/>
          <note pan="0" key="75" vol="100" pos="5400" len="23"/>
          <note pan="0" key="72" vol="100" pos="5424" len="23"/>
          <note pan="0" key="70" vol="100" pos="5448" len="23"/>
          <note pan="0" key="72" vol="100" pos="5472" len="47"/>
          <note pan="0" key="65" vol="100" pos="5520" len="23"/>
          <note pan="0" key="70" vol="100" pos="5544" len="23"/>
          <note pan="0" key="68" vol="100" pos="5568" len="23"/>
          <note pan="0" key="65" vol="100" pos="5592" len="23"/>
          <note pan="0" key="63" vol="100" pos="5616" len="23"/>
          <note pan="0" key="60" vol="100" pos="5640" len="23"/>
          <note pan="0" key="61" vol="100" pos="5664" len="41"/>
          <note pan="0" key="61" vol="100" pos="5712" len="23"/>
          <note pan="0" key="65" vol="100" pos="5736" len="23"/>
          <note pan="0" key="63" vol="100" pos="5760" len="23"/>
          <note pan="0" key="65" vol="100" pos="5784" len="23"/>
          <note pan="0" key="68" vol="100" pos="5808" len="23"/>
          <note pan="0" key="70" vol="100" pos="5832" len="23"/>
          <note pan="0" key="61" vol="100" pos="5856" len="47"/>
          <note pan="0" key="70" vol="100" pos="5904" len="23"/>
          <note pan="0" key="68" vol="100" pos="5928" len="23"/>
          <note pan="0" key="78" vol="100" pos="5952" len="5"/>
          <note pan="0" key="66" vol="100" pos="5958" len="5"/>
          <note pan="0" key="78" vol="100" pos="5964" len="11"/>
          <note pan="0" key="73" vol="100" pos="5976" len="5"/>
          <note pan="0" key="66" vol="100" pos="5982" len="5"/>
          <note pan="0" key="73" vol="100" pos="5988" len="11"/>
          <note pan="0" key="78" vol="100" pos="6000" len="5"/>
          <note pan="0" key="66" vol="100" pos="6006" len="5"/>
          <note pan="0" key="78" vol="100" pos="6012" len="11"/>
          <note pan="0" key="73" vol="100" pos="6024" len="5"/>
          <note pan="0" key="66" vol="100" pos="6030" len="5"/>
          <note pan="0" key="73" vol="100" pos="6036" len="11"/>
          <note pan="0" key="78" vol="100" pos="6048" len="5"/>
          <note pan="0" key="66" vol="100" pos="6054" len="5"/>
          <note pan="0" key="78" vol="100" pos="6060" len="11"/>
          <note pan="0" key="73" vol="100" pos="6072" len="5"/>
          <note pan="0" key="66" vol="100" pos="6078" len="5"/>
          <note pan="0" key="73" vol="100" pos="6084" len="11"/>
          <note pan="0" key="78" vol="100" pos="6096" len="5"/>
          <note pan="0" key="70" vol="100" pos="6102" len="5"/>
          <note pan="0" key="73" vol="100" pos="6108" len="5"/>
          <note pan="0" key="78" vol="100" pos="6114" len="5"/>
          <note pan="0" key="73" vol="100" pos="6120" len="5"/>
          <note pan="0" key="70" vol="100" pos="6126" len="5"/>
          <note pan="0" key="73" vol="100" pos="6132" len="5"/>
          <note pan="0" key="78" vol="100" pos="6138" len="5"/>
          <note pan="0" key="80" vol="100" pos="6144" len="11"/>
          <note pan="0" key="75" vol="100" pos="6156" len="11"/>
          <note pan="0" key="72" vol="100" pos="6168" len="11"/>
          <note pan="0" key="75" vol="100" pos="6180" len="11"/>
          <note pan="0" key="80" vol="100" pos="6192" len="11"/>
          <note pan="0" key="75" vol="100" pos="6204" len="11"/>
          <note pan="0" key="72" vol="100" pos="6216" len="11"/>
          <note pan="0" key="75" vol="100" pos="6228" len="11"/>
          <note pan="0" key="81" vol="100" pos="6240" len="11"/>
          <note pan="0" key="75" vol="100" pos="6252" len="11"/>
          <note pan="0" key="72" vol="100" pos="6264" len="11"/>
          <note pan="0" key="75" vol="100" pos="6276" len="11"/>
          <note pan="0" key="81" vol="100" pos="6288" len="11"/>
          <note pan="0" key="77" vol="100" pos="6300" len="11"/>
          <note pan="0" key="81" vol="100" pos="6312" len="11"/>
          <note pan="0" key="84" vol="100" pos="6324" len="11"/>
          <note pan="0" key="85" vol="100" pos="6336" len="11"/>
          <note pan="0" key="84" vol="100" pos="6348" len="11"/>
          <note pan="0" key="82" vol="100" pos="6360" len="11"/>
          <note pan="0" key="80" vol="100" pos="6372" len="11"/>
          <note pan="0" key="77" vol="100" pos="6384" len="11"/>
          <note pan="0" key="75" vol="100" pos="6396" len="11"/>
          <note pan="0" key="73" vol="100" pos="6408" len="11"/>
          <note pan="0" key="80" vol="100" pos="6420" len="11"/>
          <note pan="0" key="77" vol="100" pos="6432" len="11"/>
          <note pan="0" key="75" vol="100" pos="6444" len="11"/>
          <note pan="0" key="73" vol="100" pos="6456" len="11"/>
          <note pan="0" key="70" vol="100" pos="6468" len="11"/>
          <note pan="0" key="72" vol="100" pos="6480" len="11"/>
          <note pan="0" key="73" vol="100" pos="6492" len="11"/>
          <note pan="0" key="72" vol="100" pos="6504" len="11"/>
          <note pan="0" key="68" vol="100" pos="6516" len="11"/>
          <note pan="0" key="70" vol="100" pos="6528" len="11"/>
          <note pan="0" key="65" vol="100" pos="6540" len="11"/>
          <note pan="0" key="72" vol="100" pos="6552" len="11"/>
          <note pan="0" key="65" vol="100" pos="6564" len="11"/>
          <note pan="0" key="73" vol="100" pos="6576" len="11"/>
          <note pan="0" key="65" vol="100" pos="6588" len="11"/>
          <note pan="0" key="75" vol="100" pos="6600" len="11"/>
          <note pan="0" key="65" vol="100" pos="6612" len="11"/>
          <note pan="0" key="77" vol="100" pos="6624" len="11"/>
          <note pan="0" key="72" vol="100" pos="6636" len="11"/>
          <note pan="0" key="73" vol="100" pos="6648" len="11"/>
          <note pan="0" key="72" vol="100" pos="6660" len="11"/>
          <note pan="0" key="68" vol="100" pos="6672" len="11"/>
          <note pan="0" key="63" vol="100" pos="6684" len="11"/>
          <note pan="0" key="61" vol="100" pos="6696" len="11"/>
          <note pan="0" key="60" vol="100" pos="6708" len="11"/>
          <note pan="0" key="42" vol="100" pos="6720" len="5"/>
          <note pan="0" key="49" vol="100" pos="6732" len="5"/>
          <note pan="0" key="54" vol="100" pos="6744" len="5"/>
          <note pan="0" key="49" vol="100" pos="6756" len="5"/>
          <note pan="0" key="42" vol="100" pos="6768" len="5"/>
          <note pan="0" key="49" vol="100" pos="6780" len="5"/>
          <note pan="0" key="54" vol="100" pos="6792" len="5"/>
          <note pan="0" key="49" vol="100" pos="6804" len="5"/>
          <note pan="0" key="42" vol="100" pos="6816" len="5"/>
          <note pan="0" key="49" vol="100" pos="6828" len="5"/>
          <note pan="0" key="54" vol="100" pos="6840" len="5"/>
          <note pan="0" key="49" vol="100" pos="6852" len="5"/>
          <note pan="0" key="42" vol="100" pos="6864" len="5"/>
          <note pan="0" key="49" vol="100" pos="6876" len="5"/>
          <note pan="0" key="54" vol="100" pos="6888" len="5"/>
          <note pan="0" key="49" vol="100" pos="6900" len="5"/>
          <note pan="0" key="44" vol="100" pos="6912" len="5"/>
          <note pan="0" key="51" vol="100" pos="6924" len="5"/>
          <note pan="0" key="56" vol="100" pos="6936" len="5"/>
          <note pan="0" key="51" vol="100" pos="6948" len="5"/>
          <note pan="0" key="44" vol="100" pos="6960" len="5"/>
          <note pan="0" key="51" vol="100" pos="6972" len="5"/>
          <note pan="0" key="56" vol="100" pos="6984" len="5"/>
          <note pan="0" key="51" vol="100" pos="6996" len="5"/>
          <note pan="0" key="44" vol="100" pos="7008" len="5"/>
          <note pan="0" key="51" vol="100" pos="7020" len="5"/>
          <note pan="0" key="56" vol="100" pos="7032" len="5"/>
          <note pan="0" key="51" vol="100" pos="7044" len="5"/>
          <note pan="0" key="45" vol="100" pos="7056" len="5"/>
          <note pan="0" key="53" vol="100" pos="7068" len="5"/>
          <note pan="0" key="57" vol="100" pos="7080" len="5"/>
          <note pan="0" key="53" vol="100" pos="7092" len="5"/>
          <note pan="0" key="46" vol="100" pos="7104" len="5"/>
          <note pan="0" key="53" vol="100" pos="7116" len="5"/>
          <note pan="0" key="58" vol="100" pos="7128" len="5"/>
          <note pan="0" key="53" vol="100" pos="7140" len="5"/>
          <note pan="0" key="46" vol="100" pos="7152" len="5"/>
          <note pan="0" key="53" vol="100" pos="7164" len="5"/>
          <note pan="0" key="58" vol="100" pos="7176" len="5"/>
          <note pan="0" key="53" vol="100" pos="7188" len="5"/>
          <note pan="0" key="46" vol="100" pos="7200" len="5"/>
          <note pan="0" key="53" vol="100" pos="7212" len="5"/>
          <note pan="0" key="58" vol="100" pos="7224" len="5"/>
          <note pan="0" key="53" vol="100" pos="7236" len="5"/>
          <note pan="0" key="46" vol="100" pos="7248" len="5"/>
          <note pan="0" key="53" vol="100" pos="7260" len="5"/>
          <note pan="0" key="58" vol="100" pos="7272" len="5"/>
          <note pan="0" key="53" vol="100" pos="7284" len="5"/>
          <note pan="0" key="46" vol="100" pos="7296" len="5"/>
          <note pan="0" key="51" vol="100" pos="7308" len="5"/>
          <note pan="0" key="56" vol="100" pos="7320" len="5"/>
          <note pan="0" key="51" vol="100" pos="7332" len="5"/>
          <note pan="0" key="46" vol="100" pos="7344" len="5"/>
          <note pan="0" key="51" vol="100" pos="7356" len="5"/>
          <note pan="0" key="56" vol="100" pos="7368" len="5"/>
          <note pan="0" key="51" vol="100" pos="7380" len="5"/>
          <note pan="0" key="49" vol="100" pos="7392" len="5"/>
          <note pan="0" key="56" vol="100" pos="7404" len="5"/>
          <note pan="0" key="61" vol="100" pos="7416" len="5"/>
          <note pan="0" key="56" vol="100" pos="7428" len="11"/>
          <note pan="0" key="61" vol="100" pos="7440" len="11"/>
          <note pan="0" key="60" vol="100" pos="7452" len="11"/>
          <note pan="0" key="56" vol="100" pos="7464" len="11"/>
          <note pan="0" key="51" vol="100" pos="7476" len="11"/>
          <note pan="0" key="77" vol="100" pos="7488" len="23"/>
          <note pan="0" key="77" vol="100" pos="7512" len="23"/>
          <note pan="0" key="73" vol="100" pos="7536" len="23"/>
          <note pan="0" key="72" vol="100" pos="7560" len="23"/>
          <note pan="0" key="73" vol="100" pos="7584" len="47"/>
          <note pan="0" key="72" vol="100" pos="7632" len="23"/>
          <note pan="0" key="73" vol="100" pos="7656" len="23"/>
          <note pan="0" key="75" vol="100" pos="7680" len="23"/>
          <note pan="0" key="75" vol="100" pos="7704" len="23"/>
          <note pan="0" key="72" vol="100" pos="7728" len="23"/>
          <note pan="0" key="70" vol="100" pos="7752" len="23"/>
          <note pan="0" key="72" vol="100" pos="7776" len="47"/>
          <note pan="0" key="77" vol="100" pos="7824" len="23"/>
          <note pan="0" key="80" vol="100" pos="7848" len="23"/>
          <note pan="0" key="82" vol="100" pos="7872" len="23"/>
          <note pan="0" key="80" vol="100" pos="7896" len="23"/>
          <note pan="0" key="77" vol="100" pos="7920" len="23"/>
          <note pan="0" key="75" vol="100" pos="7944" len="23"/>
          <note pan="0" key="73" vol="100" pos="7968" len="47"/>
          <note pan="0" key="72" vol="100" pos="8016" len="23"/>
          <note pan="0" key="73" vol="100" pos="8040" len="23"/>
          <note pan="0" key="72" vol="100" pos="8064" len="23"/>
          <note pan="0" key="68" vol="100" pos="8088" len="23"/>
          <note pan="0" key="63" vol="100" pos="8112" len="23"/>
          <note pan="0" key="60" vol="100" pos="8136" len="23"/>
          <note pan="0" key="61" vol="100" pos="8160" len="53"/>
          <note pan="0" key="61" vol="100" pos="8220" len="5"/>
          <note pan="0" key="61" vol="100" pos="8232" len="5"/>
          <note pan="0" key="61" vol="100" pos="8244" len="5"/>
          <note pan="0" key="75" vol="100" pos="8256" len="5"/>
          <note pan="0" key="63" vol="100" pos="8262" len="17"/>
          <note pan="0" key="77" vol="100" pos="8280" len="5"/>
          <note pan="0" key="65" vol="100" pos="8286" len="17"/>
          <note pan="0" key="73" vol="100" pos="8304" len="5"/>
          <note pan="0" key="61" vol="100" pos="8310" len="17"/>
          <note pan="0" key="72" vol="100" pos="8328" len="5"/>
          <note pan="0" key="60" vol="100" pos="8334" len="17"/>
          <note pan="0" key="73" vol="100" pos="8352" len="5"/>
          <note pan="0" key="61" vol="100" pos="8358" len="41"/>
          <note pan="0" key="72" vol="100" pos="8400" len="5"/>
          <note pan="0" key="60" vol="100" pos="8406" len="17"/>
          <note pan="0" key="73" vol="100" pos="8424" len="5"/>
          <note pan="0" key="61" vol="100" pos="8430" len="17"/>
          <note pan="0" key="75" vol="100" pos="8448" len="5"/>
          <note pan="0" key="63" vol="100" pos="8454" len="17"/>
          <note pan="0" key="77" vol="100" pos="8472" len="5"/>
          <note pan="0" key="65" vol="100" pos="8478" len="17"/>
          <note pan="0" key="72" vol="100" pos="8496" len="5"/>
          <note pan="0" key="60" vol="100" pos="8502" len="17"/>
          <note pan="0" key="70" vol="100" pos="8520" len="5"/>
          <note pan="0" key="58" vol="100" pos="8526" len="17"/>
          <note pan="0" key="72" vol="100" pos="8544" len="5"/>
          <note pan="0" key="60" vol="100" pos="8550" len="41"/>
          <note pan="0" key="65" vol="100" pos="8592" len="5"/>
          <note pan="0" key="53" vol="100" pos="8598" len="17"/>
          <note pan="0" key="70" vol="100" pos="8616" len="5"/>
          <note pan="0" key="58" vol="100" pos="8622" len="17"/>
          <note pan="0" key="68" vol="100" pos="8640" len="5"/>
          <note pan="0" key="56" vol="100" pos="8646" len="17"/>
          <note pan="0" key="65" vol="100" pos="8664" len="5"/>
          <note pan="0" key="53" vol="100" pos="8670" len="17"/>
          <note pan="0" key="63" vol="100" pos="8688" len="5"/>
          <note pan="0" key="51" vol="100" pos="8694" len="17"/>
          <note pan="0" key="60" vol="100" pos="8712" len="5"/>
          <note pan="0" key="48" vol="100" pos="8718" len="17"/>
          <note pan="0" key="61" vol="100" pos="8736" len="5"/>
          <note pan="0" key="49" vol="100" pos="8742" len="41"/>
          <note pan="0" key="61" vol="100" pos="8784" len="5"/>
          <note pan="0" key="49" vol="100" pos="8790" len="17"/>
          <note pan="0" key="65" vol="100" pos="8808" len="5"/>
          <note pan="0" key="53" vol="100" pos="8814" len="17"/>
          <note pan="0" key="63" vol="100" pos="8832" len="5"/>
          <note pan="0" key="51" vol="100" pos="8838" len="17"/>
          <note pan="0" key="65" vol="100" pos="8856" len="5"/>
          <note pan="0" key="53" vol="100" pos="8862" len="17"/>
          <note pan="0" key="68" vol="100" pos="8880" len="5"/>
          <note pan="0" key="56" vol="100" pos="8886" len="17"/>
          <note pan="0" key="70" vol="100" pos="8904" len="5"/>
          <note pan="0" key="58" vol="100" pos="8910" len="17"/>
          <note pan="0" key="61" vol="100" pos="8928" len="5"/>
          <note pan="0" key="49" vol="100" pos="8934" len="41"/>
          <note pan="0" key="70" vol="100" pos="8976" len="5"/>
          <note pan="0" key="58" vol="100" pos="8982" len="17"/>
          <note pan="0" key="68" vol="100" pos="9000" len="5"/>
          <note pan="0" key="56" vol="100" pos="9006" len="17"/>
          <note pan="0" key="66" vol="100" pos="9024" len="5"/>
          <note pan="0" key="54" vol="100" pos="9030" len="17"/>
          <note pan="0" key="73" vol="100" pos="9048" len="5"/>
          <note pan="0" key="61" vol="100" pos="9054" len="17"/>
          <note pan="0" key="66" vol="100" pos="9072" len="5"/>
          <note pan="0" key="54" vol="100" pos="9078" len="17"/>
          <note pan="0" key="73" vol="100" pos="9096" len="5"/>
          <note pan="0" key="61" vol="100" pos="9102" len="17"/>
          <note pan="0" key="66" vol="100" pos="9120" len="5"/>
          <note pan="0" key="54" vol="100" pos="9126" len="41"/>
          <note pan="0" key="66" vol="100" pos="9168" len="5"/>
          <note pan="0" key="54" vol="100" pos="9174" len="17"/>
          <note pan="0" key="73" vol="100" pos="9192" len="5"/>
          <note pan="0" key="61" vol="100" pos="9198" len="17"/>
          <note pan="0" key="68" vol="100" pos="9216" len="5"/>
          <note pan="0" key="56" vol="100" pos="9222" len="17"/>
          <note pan="0" key="75" vol="100" pos="9240" len="5"/>
          <note pan="0" key="63" vol="100" pos="9246" len="17"/>
          <note pan="0" key="68" vol="100" pos="9264" len="5"/>
          <note pan="0" key="56" vol="100" pos="9270" len="17"/>
          <note pan="0" key="75" vol="100" pos="9288" len="5"/>
          <note pan="0" key="63" vol="100" pos="9294" len="17"/>
          <note pan="0" key="65" vol="100" pos="9312" len="5"/>
          <note pan="0" key="53" vol="100" pos="9318" len="41"/>
          <note pan="0" key="65" vol="100" pos="9360" len="5"/>
          <note pan="0" key="53" vol="100" pos="9366" len="17"/>
          <note pan="0" key="73" vol="100" pos="9384" len="5"/>
          <note pan="0" key="61" vol="100" pos="9390" len="17"/>
          <note pan="0" key="72" vol="100" pos="9408" len="5"/>
          <note pan="0" key="60" vol="100" pos="9414" len="17"/>
          <note pan="0" key="70" vol="100" pos="9432" len="5"/>
          <note pan="0" key="58" vol="100" pos="9438" len="17"/>
          <note pan="0" key="68" vol="100" pos="9456" len="5"/>
          <note pan="0" key="56" vol="100" pos="9462" len="17"/>
          <note pan="0" key="63" vol="100" pos="9480" len="5"/>
          <note pan="0" key="51" vol="100" pos="9486" len="17"/>
          <note pan="0" key="65" vol="100" pos="9504" len="5"/>
          <note pan="0" key="53" vol="100" pos="9510" len="41"/>
          <note pan="0" key="63" vol="100" pos="9552" len="5"/>
          <note pan="0" key="51" vol="100" pos="9558" len="17"/>
          <note pan="0" key="65" vol="100" pos="9576" len="5"/>
          <note pan="0" key="53" vol="100" pos="9582" len="17"/>
          <note pan="0" key="63" vol="100" pos="9600" len="5"/>
          <note pan="0" key="51" vol="100" pos="9606" len="17"/>
          <note pan="0" key="61" vol="100" pos="9624" len="5"/>
          <note pan="0" key="49" vol="100" pos="9630" len="17"/>
          <note pan="0" key="60" vol="100" pos="9648" len="5"/>
          <note pan="0" key="48" vol="100" pos="9654" len="17"/>
          <note pan="0" key="56" vol="100" pos="9672" len="5"/>
          <note pan="0" key="44" vol="100" pos="9678" len="17"/>
          <note pan="0" key="58" vol="100" pos="9696" len="5"/>
          <note pan="0" key="46" vol="100" pos="9702" len="41"/>
          <note pan="0" key="70" vol="100" pos="9744" len="5"/>
          <note pan="0" key="58" vol="100" pos="9750" len="17"/>
          <note pan="0" key="68" vol="100" pos="9768" len="5"/>
          <note pan="0" key="56" vol="100" pos="9774" len="17"/>
          <note pan="0" key="68" vol="100" pos="9792" len="5"/>
          <note pan="0" key="56" vol="100" pos="9798" len="17"/>
          <note pan="0" key="70" vol="100" pos="9816" len="5"/>
          <note pan="0" key="58" vol="100" pos="9822" len="17"/>
          <note pan="0" key="65" vol="100" pos="9840" len="5"/>
          <note pan="0" key="53" vol="100" pos="9846" len="17"/>
          <note pan="0" key="63" vol="100" pos="9864" len="5"/>
          <note pan="0" key="51" vol="100" pos="9870" len="17"/>
          <note pan="0" key="65" vol="100" pos="9888" len="5"/>
          <note pan="0" key="53" vol="100" pos="9894" len="41"/>
          <note pan="0" key="63" vol="100" pos="9936" len="5"/>
          <note pan="0" key="51" vol="100" pos="9942" len="17"/>
          <note pan="0" key="65" vol="100" pos="9960" len="5"/>
          <note pan="0" key="53" vol="100" pos="9966" len="17"/>
          <note pan="0" key="68" vol="100" pos="9984" len="5"/>
          <note pan="0" key="56" vol="100" pos="9990" len="17"/>
          <note pan="0" key="70" vol="100" pos="10008" len="5"/>
          <note pan="0" key="58" vol="100" pos="10014" len="17"/>
          <note pan="0" key="65" vol="100" pos="10032" len="5"/>
          <note pan="0" key="53" vol="100" pos="10038" len="17"/>
          <note pan="0" key="63" vol="100" pos="10056" len="5"/>
          <note pan="0" key="51" vol="100" pos="10062" len="17"/>
          <note pan="0" key="65" vol="100" pos="10080" len="5"/>
          <note pan="0" key="53" vol="100" pos="10086" len="41"/>
          <note pan="0" key="58" vol="100" pos="10128" len="5"/>
          <note pan="0" key="46" vol="100" pos="10134" len="17"/>
          <note pan="0" key="65" vol="100" pos="10152" len="5"/>
          <note pan="0" key="53" vol="100" pos="10158" len="17"/>
          <note pan="0" key="63" vol="100" pos="10176" len="5"/>
          <note pan="0" key="51" vol="100" pos="10182" len="17"/>
          <note pan="0" key="61" vol="100" pos="10200" len="5"/>
          <note pan="0" key="49" vol="100" pos="10206" len="17"/>
          <note pan="0" key="60" vol="100" pos="10224" len="5"/>
          <note pan="0" key="48" vol="100" pos="10230" len="17"/>
          <note pan="0" key="56" vol="100" pos="10248" len="5"/>
          <note pan="0" key="44" vol="100" pos="10254" len="17"/>
          <note pan="0" key="58" vol="100" pos="10272" len="5"/>
          <note pan="0" key="46" vol="100" pos="10278" len="41"/>
          <note pan="0" key="58" vol="100" pos="10320" len="5"/>
          <note pan="0" key="46" vol="100" pos="10326" len="17"/>
          <note pan="0" key="61" vol="100" pos="10344" len="5"/>
          <note pan="0" key="49" vol="100" pos="10350" len="17"/>
          <note pan="0" key="60" vol="100" pos="10368" len="5"/>
          <note pan="0" key="48" vol="100" pos="10374" len="17"/>
          <note pan="0" key="61" vol="100" pos="10392" len="5"/>
          <note pan="0" key="49" vol="100" pos="10398" len="17"/>
          <note pan="0" key="63" vol="100" pos="10416" len="5"/>
          <note pan="0" key="51" vol="100" pos="10422" len="17"/>
          <note pan="0" key="65" vol="100" pos="10440" len="5"/>
          <note pan="0" key="53" vol="100" pos="10446" len="17"/>
          <note pan="0" key="58" vol="100" pos="10464" len="5"/>
          <note pan="0" key="46" vol="100" pos="10470" len="41"/>
          <note pan="0" key="65" vol="100" pos="10512" len="5"/>
          <note pan="0" key="53" vol="100" pos="10518" len="17"/>
          <note pan="0" key="68" vol="100" pos="10536" len="5"/>
          <note pan="0" key="56" vol="100" pos="10542" len="17"/>
          <note pan="0" key="68" vol="100" pos="10560" len="5"/>
          <note pan="0" key="56" vol="100" pos="10566" len="17"/>
          <note pan="0" key="70" vol="100" pos="10584" len="5"/>
          <note pan="0" key="58" vol="100" pos="10590" len="17"/>
          <note pan="0" key="65" vol="100" pos="10608" len="5"/>
          <note pan="0" key="53" vol="100" pos="10614" len="17"/>
          <note pan="0" key="63" vol="100" pos="10632" len="5"/>
          <note pan="0" key="51" vol="100" pos="10638" len="17"/>
          <note pan="0" key="65" vol="100" pos="10656" len="5"/>
          <note pan="0" key="53" vol="100" pos="10662" len="41"/>
          <note pan="0" key="63" vol="100" pos="10704" len="5"/>
          <note pan="0" key="51" vol="100" pos="10710" len="17"/>
          <note pan="0" key="65" vol="100" pos="10728" len="5"/>
          <note pan="0" key="53" vol="100" pos="10734" len="17"/>
          <note pan="0" key="68" vol="100" pos="10752" len="5"/>
          <note pan="0" key="56" vol="100" pos="10758" len="17"/>
          <note pan="0" key="70" vol="100" pos="10776" len="5"/>
          <note pan="0" key="58" vol="100" pos="10782" len="17"/>
          <note pan="0" key="65" vol="100" pos="10800" len="5"/>
          <note pan="0" key="53" vol="100" pos="10806" len="17"/>
          <note pan="0" key="63" vol="100" pos="10824" len="5"/>
          <note pan="0" key="51" vol="100" pos="10830" len="17"/>
          <note pan="0" key="65" vol="100" pos="10848" len="5"/>
          <note pan="0" key="53" vol="100" pos="10854" len="41"/>
          <note pan="0" key="70" vol="100" pos="10896" len="5"/>
          <note pan="0" key="58" vol="100" pos="10902" len="17"/>
          <note pan="0" key="72" vol="100" pos="10920" len="5"/>
          <note pan="0" key="60" vol="100" pos="10926" len="17"/>
          <note pan="0" key="73" vol="100" pos="10944" len="5"/>
          <note pan="0" key="61" vol="100" pos="10950" len="17"/>
          <note pan="0" key="72" vol="100" pos="10968" len="5"/>
          <note pan="0" key="60" vol="100" pos="10974" len="17"/>
          <note pan="0" key="70" vol="100" pos="10992" len="5"/>
          <note pan="0" key="58" vol="100" pos="10998" len="17"/>
          <note pan="0" key="68" vol="100" pos="11016" len="5"/>
          <note pan="0" key="56" vol="100" pos="11022" len="17"/>
          <note pan="0" key="65" vol="100" pos="11040" len="5"/>
          <note pan="0" key="53" vol="100" pos="11046" len="41"/>
          <note pan="0" key="63" vol="100" pos="11088" len="5"/>
          <note pan="0" key="51" vol="100" pos="11094" len="17"/>
          <note pan="0" key="65" vol="100" pos="11112" len="5"/>
          <note pan="0" key="53" vol="100" pos="11118" len="17"/>
          <note pan="0" key="63" vol="100" pos="11136" len="5"/>
          <note pan="0" key="51" vol="100" pos="11142" len="17"/>
          <note pan="0" key="61" vol="100" pos="11160" len="5"/>
          <note pan="0" key="49" vol="100" pos="11166" len="17"/>
          <note pan="0" key="60" vol="100" pos="11184" len="5"/>
          <note pan="0" key="48" vol="100" pos="11190" len="17"/>
          <note pan="0" key="56" vol="100" pos="11208" len="5"/>
          <note pan="0" key="44" vol="100" pos="11214" len="17"/>
          <note pan="0" key="63" vol="100" pos="11232" len="47"/>
          <note pan="0" key="61" vol="100" pos="11280" len="17"/>
          <note pan="0" key="61" vol="100" pos="11304" len="5"/>
          <note pan="0" key="61" vol="100" pos="11316" len="5"/>
          <note pan="0" key="53" vol="100" pos="11328" len="11"/>
          <note pan="0" key="41" vol="100" pos="11340" len="5"/>
          <note pan="0" key="29" vol="100" pos="11346" len="5"/>
          <note pan="0" key="53" vol="100" pos="11352" len="5"/>
          <note pan="0" key="29" vol="100" pos="11358" len="5"/>
          <note pan="0" key="65" vol="100" pos="11364" len="11"/>
          <note pan="0" key="41" vol="100" pos="11376" len="5"/>
          <note pan="0" key="29" vol="100" pos="11382" len="5"/>
          <note pan="0" key="65" vol="100" pos="11388" len="5"/>
          <note pan="0" key="29" vol="100" pos="11394" len="5"/>
          <note pan="0" key="63" vol="100" pos="11400" len="5"/>
          <note pan="0" key="27" vol="100" pos="11406" len="5"/>
          <note pan="0" key="65" vol="100" pos="11412" len="5"/>
          <note pan="0" key="29" vol="100" pos="11418" len="5"/>
          <note pan="0" key="53" vol="100" pos="11424" len="11"/>
          <note pan="0" key="41" vol="100" pos="11436" len="5"/>
          <note pan="0" key="29" vol="100" pos="11442" len="5"/>
          <note pan="0" key="53" vol="100" pos="11448" len="5"/>
          <note pan="0" key="29" vol="100" pos="11454" len="5"/>
          <note pan="0" key="65" vol="100" pos="11460" len="11"/>
          <note pan="0" key="41" vol="100" pos="11472" len="5"/>
          <note pan="0" key="29" vol="100" pos="11478" len="5"/>
          <note pan="0" key="65" vol="100" pos="11484" len="5"/>
          <note pan="0" key="29" vol="100" pos="11490" len="5"/>
          <note pan="0" key="63" vol="100" pos="11496" len="5"/>
          <note pan="0" key="27" vol="100" pos="11502" len="5"/>
          <note pan="0" key="65" vol="100" pos="11508" len="5"/>
          <note pan="0" key="29" vol="100" pos="11514" len="5"/>
          <note pan="0" key="53" vol="100" pos="11520" len="11"/>
          <note pan="0" key="41" vol="100" pos="11532" len="5"/>
          <note pan="0" key="29" vol="100" pos="11538" len="5"/>
          <note pan="0" key="53" vol="100" pos="11544" len="5"/>
          <note pan="0" key="29" vol="100" pos="11550" len="5"/>
          <note pan="0" key="65" vol="100" pos="11556" len="11"/>
          <note pan="0" key="41" vol="100" pos="11568" len="5"/>
          <note pan="0" key="29" vol="100" pos="11574" len="5"/>
          <note pan="0" key="65" vol="100" pos="11580" len="5"/>
          <note pan="0" key="29" vol="100" pos="11586" len="5"/>
          <note pan="0" key="63" vol="100" pos="11592" len="5"/>
          <note pan="0" key="27" vol="100" pos="11598" len="5"/>
          <note pan="0" key="65" vol="100" pos="11604" len="5"/>
          <note pan="0" key="29" vol="100" pos="11610" len="5"/>
          <note pan="0" key="56" vol="100" pos="11616" len="11"/>
          <note pan="0" key="37" vol="100" pos="11628" len="5"/>
          <note pan="0" key="49" vol="100" pos="11634" len="5"/>
          <note pan="0" key="65" vol="100" pos="11640" len="5"/>
          <note pan="0" key="49" vol="100" pos="11646" len="5"/>
          <note pan="0" key="68" vol="100" pos="11652" len="5"/>
          <note pan="0" key="49" vol="100" pos="11658" len="5"/>
          <note pan="0" key="58" vol="100" pos="11664" len="11"/>
          <note pan="0" key="39" vol="100" pos="11676" len="5"/>
          <note pan="0" key="51" vol="100" pos="11682" len="5"/>
          <note pan="0" key="68" vol="100" pos="11688" len="5"/>
          <note pan="0" key="51" vol="100" pos="11694" len="5"/>
          <note pan="0" key="70" vol="100" pos="11700" len="5"/>
          <note pan="0" key="51" vol="100" pos="11706" len="5"/>
          <note pan="0" key="53" vol="100" pos="11712" len="11"/>
          <note pan="0" key="41" vol="100" pos="11724" len="5"/>
          <note pan="0" key="29" vol="100" pos="11730" len="5"/>
          <note pan="0" key="53" vol="100" pos="11736" len="5"/>
          <note pan="0" key="29" vol="100" pos="11742" len="5"/>
          <note pan="0" key="65" vol="100" pos="11748" len="11"/>
          <note pan="0" key="41" vol="100" pos="11760" len="5"/>
          <note pan="0" key="29" vol="100" pos="11766" len="5"/>
          <note pan="0" key="65" vol="100" pos="11772" len="5"/>
          <note pan="0" key="29" vol="100" pos="11778" len="5"/>
          <note pan="0" key="63" vol="100" pos="11784" len="5"/>
          <note pan="0" key="27" vol="100" pos="11790" len="5"/>
          <note pan="0" key="65" vol="100" pos="11796" len="5"/>
          <note pan="0" key="29" vol="100" pos="11802" len="5"/>
          <note pan="0" key="53" vol="100" pos="11808" len="11"/>
          <note pan="0" key="41" vol="100" pos="11820" len="5"/>
          <note pan="0" key="29" vol="100" pos="11826" len="5"/>
          <note pan="0" key="53" vol="100" pos="11832" len="5"/>
          <note pan="0" key="29" vol="100" pos="11838" len="5"/>
          <note pan="0" key="65" vol="100" pos="11844" len="11"/>
          <note pan="0" key="41" vol="100" pos="11856" len="5"/>
          <note pan="0" key="29" vol="100" pos="11862" len="5"/>
          <note pan="0" key="65" vol="100" pos="11868" len="5"/>
          <note pan="0" key="29" vol="100" pos="11874" len="5"/>
          <note pan="0" key="63" vol="100" pos="11880" len="5"/>
          <note pan="0" key="27" vol="100" pos="11886" len="5"/>
          <note pan="0" key="65" vol="100" pos="11892" len="5"/>
          <note pan="0" key="29" vol="100" pos="11898" len="5"/>
          <note pan="0" key="53" vol="100" pos="11904" len="11"/>
          <note pan="0" key="41" vol="100" pos="11916" len="5"/>
          <note pan="0" key="29" vol="100" pos="11922" len="5"/>
          <note pan="0" key="53" vol="100" pos="11928" len="5"/>
          <note pan="0" key="29" vol="100" pos="11934" len="5"/>
          <note pan="0" key="65" vol="100" pos="11940" len="11"/>
          <note pan="0" key="41" vol="100" pos="11952" len="5"/>
          <note pan="0" key="29" vol="100" pos="11958" len="5"/>
          <note pan="0" key="65" vol="100" pos="11964" len="5"/>
          <note pan="0" key="29" vol="100" pos="11970" len="5"/>
          <note pan="0" key="63" vol="100" pos="11976" len="5"/>
          <note pan="0" key="27" vol="100" pos="11982" len="5"/>
          <note pan="0" key="65" vol="100" pos="11988" len="5"/>
          <note pan="0" key="29" vol="100" pos="11994" len="5"/>
          <note pan="0" key="58" vol="100" pos="12000" len="11"/>
          <note pan="0" key="37" vol="100" pos="12012" len="5"/>
          <note pan="0" key="49" vol="100" pos="12018" len="5"/>
          <note pan="0" key="68" vol="100" pos="12024" len="5"/>
          <note pan="0" key="49" vol="100" pos="12030" len="5"/>
          <note pan="0" key="70" vol="100" pos="12036" len="5"/>
          <note pan="0" key="49" vol="100" pos="12042" len="5"/>
          <note pan="0" key="56" vol="100" pos="12048" len="11"/>
          <note pan="0" key="39" vol="100" pos="12060" len="5"/>
          <note pan="0" key="51" vol="100" pos="12066" len="5"/>
          <note pan="0" key="65" vol="100" pos="12072" len="5"/>
          <note pan="0" key="51" vol="100" pos="12078" len="5"/>
          <note pan="0" key="68" vol="100" pos="12084" len="5"/>
          <note pan="0" key="51" vol="100" pos="12090" len="5"/>
          <note pan="0" key="53" vol="100" pos="12096" len="11"/>
          <note pan="0" key="41" vol="100" pos="12108" len="5"/>
          <note pan="0" key="29" vol="100" pos="12114" len="5"/>
          <note pan="0" key="53" vol="100" pos="12120" len="5"/>
          <note pan="0" key="29" vol="100" pos="12126" len="5"/>
          <note pan="0" key="65" vol="100" pos="12132" len="11"/>
          <note pan="0" key="41" vol="100" pos="12144" len="5"/>
          <note pan="0" key="29" vol="100" pos="12150" len="5"/>
          <note pan="0" key="65" vol="100" pos="12156" len="5"/>
          <note pan="0" key="29" vol="100" pos="12162" len="5"/>
          <note pan="0" key="63" vol="100" pos="12168" len="5"/>
          <note pan="0" key="27" vol="100" pos="12174" len="5"/>
          <note pan="0" key="65" vol="100" pos="12180" len="5"/>
          <note pan="0" key="29" vol="100" pos="12186" len="5"/>
          <note pan="0" key="53" vol="100" pos="12192" len="11"/>
          <note pan="0" key="41" vol="100" pos="12204" len="5"/>
          <note pan="0" key="29" vol="100" pos="12210" len="5"/>
          <note pan="0" key="53" vol="100" pos="12216" len="5"/>
          <note pan="0" key="29" vol="100" pos="12222" len="5"/>
          <note pan="0" key="65" vol="100" pos="12228" len="11"/>
          <note pan="0" key="41" vol="100" pos="12240" len="5"/>
          <note pan="0" key="29" vol="100" pos="12246" len="5"/>
          <note pan="0" key="65" vol="100" pos="12252" len="5"/>
          <note pan="0" key="29" vol="100" pos="12258" len="5"/>
          <note pan="0" key="63" vol="100" pos="12264" len="5"/>
          <note pan="0" key="27" vol="100" pos="12270" len="5"/>
          <note pan="0" key="65" vol="100" pos="12276" len="5"/>
          <note pan="0" key="29" vol="100" pos="12282" len="5"/>
          <note pan="0" key="53" vol="100" pos="12288" len="11"/>
          <note pan="0" key="41" vol="100" pos="12300" len="5"/>
          <note pan="0" key="29" vol="100" pos="12306" len="5"/>
          <note pan="0" key="53" vol="100" pos="12312" len="5"/>
          <note pan="0" key="29" vol="100" pos="12318" len="5"/>
          <note pan="0" key="65" vol="100" pos="12324" len="11"/>
          <note pan="0" key="41" vol="100" pos="12336" len="5"/>
          <note pan="0" key="29" vol="100" pos="12342" len="5"/>
          <note pan="0" key="65" vol="100" pos="12348" len="5"/>
          <note pan="0" key="29" vol="100" pos="12354" len="5"/>
          <note pan="0" key="63" vol="100" pos="12360" len="5"/>
          <note pan="0" key="27" vol="100" pos="12366" len="5"/>
          <note pan="0" key="65" vol="100" pos="12372" len="5"/>
          <note pan="0" key="29" vol="100" pos="12378" len="5"/>
          <note pan="0" key="56" vol="100" pos="12384" len="11"/>
          <note pan="0" key="37" vol="100" pos="12396" len="5"/>
          <note pan="0" key="49" vol="100" pos="12402" len="5"/>
          <note pan="0" key="65" vol="100" pos="12408" len="5"/>
          <note pan="0" key="49" vol="100" pos="12414" len="5"/>
          <note pan="0" key="68" vol="100" pos="12420" len="5"/>
          <note pan="0" key="49" vol="100" pos="12426" len="5"/>
          <note pan="0" key="58" vol="100" pos="12432" len="11"/>
          <note pan="0" key="39" vol="100" pos="12444" len="5"/>
          <note pan="0" key="51" vol="100" pos="12450" len="5"/>
          <note pan="0" key="68" vol="100" pos="12456" len="5"/>
          <note pan="0" key="51" vol="100" pos="12462" len="5"/>
          <note pan="0" key="70" vol="100" pos="12468" len="5"/>
          <note pan="0" key="51" vol="100" pos="12474" len="5"/>
          <note pan="0" key="53" vol="100" pos="12480" len="11"/>
          <note pan="0" key="41" vol="100" pos="12492" len="5"/>
          <note pan="0" key="29" vol="100" pos="12498" len="5"/>
          <note pan="0" key="53" vol="100" pos="12504" len="5"/>
          <note pan="0" key="29" vol="100" pos="12510" len="5"/>
          <note pan="0" key="65" vol="100" pos="12516" len="11"/>
          <note pan="0" key="41" vol="100" pos="12528" len="5"/>
          <note pan="0" key="29" vol="100" pos="12534" len="5"/>
          <note pan="0" key="65" vol="100" pos="12540" len="5"/>
          <note pan="0" key="29" vol="100" pos="12546" len="5"/>
          <note pan="0" key="63" vol="100" pos="12552" len="5"/>
          <note pan="0" key="27" vol="100" pos="12558" len="5"/>
          <note pan="0" key="65" vol="100" pos="12564" len="5"/>
          <note pan="0" key="29" vol="100" pos="12570" len="5"/>
          <note pan="0" key="53" vol="100" pos="12576" len="11"/>
          <note pan="0" key="41" vol="100" pos="12588" len="5"/>
          <note pan="0" key="29" vol="100" pos="12594" len="5"/>
          <note pan="0" key="53" vol="100" pos="12600" len="5"/>
          <note pan="0" key="29" vol="100" pos="12606" len="5"/>
          <note pan="0" key="65" vol="100" pos="12612" len="11"/>
          <note pan="0" key="41" vol="100" pos="12624" len="5"/>
          <note pan="0" key="29" vol="100" pos="12630" len="5"/>
          <note pan="0" key="65" vol="100" pos="12636" len="5"/>
          <note pan="0" key="29" vol="100" pos="12642" len="5"/>
          <note pan="0" key="63" vol="100" pos="12648" len="5"/>
          <note pan="0" key="27" vol="100" pos="12654" len="5"/>
          <note pan="0" key="65" vol="100" pos="12660" len="5"/>
          <note pan="0" key="29" vol="100" pos="12666" len="5"/>
          <note pan="0" key="53" vol="100" pos="12672" len="11"/>
          <note pan="0" key="41" vol="100" pos="12684" len="5"/>
          <note pan="0" key="29" vol="100" pos="12690" len="5"/>
          <note pan="0" key="53" vol="100" pos="12696" len="5"/>
          <note pan="0" key="29" vol="100" pos="12702" len="5"/>
          <note pan="0" key="65" vol="100" pos="12708" len="11"/>
          <note pan="0" key="41" vol="100" pos="12720" len="5"/>
          <note pan="0" key="29" vol="100" pos="12726" len="5"/>
          <note pan="0" key="65" vol="100" pos="12732" len="5"/>
          <note pan="0" key="29" vol="100" pos="12738" len="5"/>
          <note pan="0" key="63" vol="100" pos="12744" len="5"/>
          <note pan="0" key="27" vol="100" pos="12750" len="5"/>
          <note pan="0" key="65" vol="100" pos="12756" len="5"/>
          <note pan="0" key="29" vol="100" pos="12762" len="5"/>
          <note pan="0" key="58" vol="100" pos="12768" len="11"/>
          <note pan="0" key="56" vol="100" pos="12786" len="11"/>
          <note pan="0" key="58" vol="100" pos="12798" len="11"/>
          <note pan="0" key="56" vol="100" pos="12816" len="11"/>
          <note pan="0" key="53" vol="100" pos="12834" len="11"/>
          <note pan="0" key="56" vol="100" pos="12852" len="11"/>
          <note pan="0" key="70" vol="100" pos="12864" len="5"/>
          <note pan="0" key="58" vol="100" pos="12870" len="17"/>
          <note pan="0" key="72" vol="100" pos="12888" len="5"/>
          <note pan="0" key="60" vol="100" pos="12894" len="17"/>
          <note pan="0" key="73" vol="100" pos="12912" len="5"/>
          <note pan="0" key="61" vol="100" pos="12918" len="17"/>
          <note pan="0" key="75" vol="100" pos="12936" len="5"/>
          <note pan="0" key="63" vol="100" pos="12942" len="17"/>
          <note pan="0" key="77" vol="100" pos="12960" len="5"/>
          <note pan="0" key="65" vol="100" pos="12966" len="23"/>
          <note pan="0" key="58" vol="100" pos="12990" len="5"/>
          <note pan="0" key="53" vol="100" pos="12996" len="5"/>
          <note pan="0" key="46" vol="100" pos="13002" len="5"/>
          <note pan="0" key="82" vol="100" pos="13008" len="5"/>
          <note pan="0" key="70" vol="100" pos="13014" len="17"/>
          <note pan="0" key="80" vol="100" pos="13032" len="5"/>
          <note pan="0" key="68" vol="100" pos="13038" len="17"/>
          <note pan="0" key="77" vol="100" pos="13056" len="5"/>
          <note pan="0" key="65" vol="100" pos="13062" len="41"/>
          <note pan="0" key="70" vol="100" pos="13104" len="5"/>
          <note pan="0" key="58" vol="100" pos="13110" len="41"/>
          <note pan="0" key="77" vol="100" pos="13152" len="5"/>
          <note pan="0" key="65" vol="100" pos="13158" len="17"/>
          <note pan="0" key="75" vol="100" pos="13176" len="5"/>
          <note pan="0" key="65" vol="100" pos="13182" len="5"/>
          <note pan="0" key="63" vol="100" pos="13188" len="11"/>
          <note pan="0" key="73" vol="100" pos="13200" len="5"/>
          <note pan="0" key="61" vol="100" pos="13206" len="17"/>
          <note pan="0" key="72" vol="100" pos="13224" len="5"/>
          <note pan="0" key="60" vol="100" pos="13230" len="17"/>
          <note pan="0" key="70" vol="100" pos="13248" len="5"/>
          <note pan="0" key="58" vol="100" pos="13254" len="17"/>
          <note pan="0" key="72" vol="100" pos="13272" len="5"/>
          <note pan="0" key="60" vol="100" pos="13278" len="17"/>
          <note pan="0" key="73" vol="100" pos="13296" len="5"/>
          <note pan="0" key="61" vol="100" pos="13302" len="17"/>
          <note pan="0" key="75" vol="100" pos="13320" len="5"/>
          <note pan="0" key="63" vol="100" pos="13326" len="17"/>
          <note pan="0" key="77" vol="100" pos="13344" len="5"/>
          <note pan="0" key="65" vol="100" pos="13350" len="23"/>
          <note pan="0" key="61" vol="100" pos="13374" len="5"/>
          <note pan="0" key="58" vol="100" pos="13380" len="5"/>
          <note pan="0" key="54" vol="100" pos="13386" len="5"/>
          <note pan="0" key="75" vol="100" pos="13392" len="5"/>
          <note pan="0" key="63" vol="100" pos="13398" len="17"/>
          <note pan="0" key="73" vol="100" pos="13416" len="5"/>
          <note pan="0" key="61" vol="100" pos="13422" len="17"/>
          <note pan="0" key="72" vol="100" pos="13440" len="5"/>
          <note pan="0" key="60" vol="100" pos="13446" len="17"/>
          <note pan="0" key="70" vol="100" pos="13464" len="5"/>
          <note pan="0" key="61" vol="100" pos="13470" len="5"/>
          <note pan="0" key="60" vol="100" pos="13476" len="5"/>
          <note pan="0" key="58" vol="100" pos="13482" len="5"/>
          <note pan="0" key="72" vol="100" pos="13488" len="5"/>
          <note pan="0" key="60" vol="100" pos="13494" len="17"/>
          <note pan="0" key="73" vol="100" pos="13512" len="5"/>
          <note pan="0" key="61" vol="100" pos="13518" len="17"/>
          <note pan="0" key="72" vol="100" pos="13536" len="5"/>
          <note pan="0" key="60" vol="100" pos="13542" len="17"/>
          <note pan="0" key="70" vol="100" pos="13560" len="5"/>
          <note pan="0" key="58" vol="100" pos="13566" len="17"/>
          <note pan="0" key="69" vol="100" pos="13584" len="5"/>
          <note pan="0" key="57" vol="100" pos="13590" len="17"/>
          <note pan="0" key="72" vol="100" pos="13608" len="5"/>
          <note pan="0" key="60" vol="100" pos="13614" len="17"/>
          <note pan="0" key="70" vol="100" pos="13632" len="5"/>
          <note pan="0" key="58" vol="100" pos="13638" len="17"/>
          <note pan="0" key="72" vol="100" pos="13656" len="5"/>
          <note pan="0" key="60" vol="100" pos="13662" len="17"/>
          <note pan="0" key="73" vol="100" pos="13680" len="5"/>
          <note pan="0" key="61" vol="100" pos="13686" len="17"/>
          <note pan="0" key="75" vol="100" pos="13704" len="5"/>
          <note pan="0" key="63" vol="100" pos="13710" len="17"/>
          <note pan="0" key="77" vol="100" pos="13728" len="5"/>
          <note pan="0" key="65" vol="100" pos="13734" len="23"/>
          <note pan="0" key="58" vol="100" pos="13758" len="5"/>
          <note pan="0" key="53" vol="100" pos="13764" len="5"/>
          <note pan="0" key="46" vol="100" pos="13770" len="5"/>
          <note pan="0" key="82" vol="100" pos="13776" len="5"/>
          <note pan="0" key="70" vol="100" pos="13782" len="17"/>
          <note pan="0" key="80" vol="100" pos="13800" len="5"/>
          <note pan="0" key="68" vol="100" pos="13806" len="17"/>
          <note pan="0" key="77" vol="100" pos="13824" len="5"/>
          <note pan="0" key="65" vol="100" pos="13830" len="41"/>
          <note pan="0" key="70" vol="100" pos="13872" len="5"/>
          <note pan="0" key="58" vol="100" pos="13878" len="41"/>
          <note pan="0" key="77" vol="100" pos="13920" len="5"/>
          <note pan="0" key="65" vol="100" pos="13926" len="17"/>
          <note pan="0" key="75" vol="100" pos="13944" len="5"/>
          <note pan="0" key="65" vol="100" pos="13950" len="5"/>
          <note pan="0" key="63" vol="100" pos="13956" len="11"/>
          <note pan="0" key="73" vol="100" pos="13968" len="5"/>
          <note pan="0" key="61" vol="100" pos="13974" len="17"/>
          <note pan="0" key="72" vol="100" pos="13992" len="5"/>
          <note pan="0" key="60" vol="100" pos="13998" len="17"/>
          <note pan="0" key="70" vol="100" pos="14016" len="5"/>
          <note pan="0" key="58" vol="100" pos="14022" len="17"/>
          <note pan="0" key="72" vol="100" pos="14040" len="5"/>
          <note pan="0" key="60" vol="100" pos="14046" len="17"/>
          <note pan="0" key="73" vol="100" pos="14064" len="5"/>
          <note pan="0" key="61" vol="100" pos="14070" len="17"/>
          <note pan="0" key="75" vol="100" pos="14088" len="5"/>
          <note pan="0" key="63" vol="100" pos="14094" len="17"/>
          <note pan="0" key="77" vol="100" pos="14112" len="5"/>
          <note pan="0" key="65" vol="100" pos="14118" len="23"/>
          <note pan="0" key="61" vol="100" pos="14142" len="5"/>
          <note pan="0" key="58" vol="100" pos="14148" len="5"/>
          <note pan="0" key="54" vol="100" pos="14154" len="5"/>
          <note pan="0" key="75" vol="100" pos="14160" len="5"/>
          <note pan="0" key="63" vol="100" pos="14166" len="17"/>
          <note pan="0" key="73" vol="100" pos="14184" len="5"/>
          <note pan="0" key="61" vol="100" pos="14190" len="17"/>
          <note pan="0" key="68" vol="100" pos="14208" len="5"/>
          <note pan="0" key="56" vol="100" pos="14214" len="41"/>
          <note pan="0" key="70" vol="100" pos="14256" len="5"/>
          <note pan="0" key="58" vol="100" pos="14262" len="41"/>
          <note pan="0" key="72" vol="100" pos="14304" len="5"/>
          <note pan="0" key="60" vol="100" pos="14310" len="41"/>
          <note pan="0" key="73" vol="100" pos="14352" len="5"/>
          <note pan="0" key="61" vol="100" pos="14358" len="41"/>
          <note pan="0" key="65" vol="100" pos="14400" len="5"/>
          <note pan="0" key="53" vol="100" pos="14406" len="17"/>
          <note pan="0" key="68" vol="100" pos="14424" len="5"/>
          <note pan="0" key="56" vol="100" pos="14430" len="17"/>
          <note pan="0" key="70" vol="100" pos="14448" len="5"/>
          <note pan="0" key="58" vol="100" pos="14454" len="17"/>
          <note pan="0" key="72" vol="100" pos="14472" len="5"/>
          <note pan="0" key="60" vol="100" pos="14478" len="17"/>
          <note pan="0" key="70" vol="100" pos="14496" len="5"/>
          <note pan="0" key="58" vol="100" pos="14502" len="23"/>
          <note pan="0" key="53" vol="100" pos="14526" len="5"/>
          <note pan="0" key="49" vol="100" pos="14532" len="5"/>
          <note pan="0" key="46" vol="100" pos="14538" len="5"/>
          <note pan="0" key="77" vol="100" pos="14544" len="5"/>
          <note pan="0" key="65" vol="100" pos="14550" len="17"/>
          <note pan="0" key="75" vol="100" pos="14568" len="5"/>
          <note pan="0" key="63" vol="100" pos="14574" len="17"/>
          <note pan="0" key="73" vol="100" pos="14592" len="5"/>
          <note pan="0" key="61" vol="100" pos="14598" len="17"/>
          <note pan="0" key="60" vol="100" pos="14616" len="23"/>
          <note pan="0" key="65" vol="100" pos="14640" len="5"/>
          <note pan="0" key="53" vol="100" pos="14646" len="41"/>
          <note pan="0" key="70" vol="100" pos="14688" len="5"/>
          <note pan="0" key="58" vol="100" pos="14694" len="17"/>
          <note pan="0" key="68" vol="100" pos="14712" len="5"/>
          <note pan="0" key="58" vol="100" pos="14718" len="5"/>
          <note pan="0" key="56" vol="100" pos="14724" len="11"/>
          <note pan="0" key="65" vol="100" pos="14736" len="5"/>
          <note pan="0" key="53" vol="100" pos="14742" len="17"/>
          <note pan="0" key="68" vol="100" pos="14760" len="5"/>
          <note pan="0" key="56" vol="100" pos="14766" len="17"/>
          <note pan="0" key="66" vol="100" pos="14784" len="5"/>
          <note pan="0" key="54" vol="100" pos="14790" len="17"/>
          <note pan="0" key="68" vol="100" pos="14808" len="5"/>
          <note pan="0" key="56" vol="100" pos="14814" len="17"/>
          <note pan="0" key="70" vol="100" pos="14832" len="5"/>
          <note pan="0" key="58" vol="100" pos="14838" len="17"/>
          <note pan="0" key="72" vol="100" pos="14856" len="5"/>
          <note pan="0" key="60" vol="100" pos="14862" len="17"/>
          <note pan="0" key="70" vol="100" pos="14880" len="5"/>
          <note pan="0" key="58" vol="100" pos="14886" len="23"/>
          <note pan="0" key="58" vol="100" pos="14910" len="5"/>
          <note pan="0" key="54" vol="100" pos="14916" len="5"/>
          <note pan="0" key="49" vol="100" pos="14922" len="5"/>
          <note pan="0" key="72" vol="100" pos="14928" len="5"/>
          <note pan="0" key="60" vol="100" pos="14934" len="17"/>
          <note pan="0" key="70" vol="100" pos="14952" len="5"/>
          <note pan="0" key="58" vol="100" pos="14958" len="17"/>
          <note pan="0" key="68" vol="100" pos="14976" len="5"/>
          <note pan="0" key="56" vol="100" pos="14982" len="17"/>
          <note pan="0" key="61" vol="100" pos="15000" len="5"/>
          <note pan="0" key="58" vol="100" pos="15006" len="5"/>
          <note pan="0" key="56" vol="100" pos="15012" len="5"/>
          <note pan="0" key="51" vol="100" pos="15018" len="5"/>
          <note pan="0" key="68" vol="100" pos="15024" len="5"/>
          <note pan="0" key="56" vol="100" pos="15030" len="17"/>
          <note pan="0" key="70" vol="100" pos="15048" len="5"/>
          <note pan="0" key="58" vol="100" pos="15054" len="17"/>
          <note pan="0" key="68" vol="100" pos="15072" len="5"/>
          <note pan="0" key="56" vol="100" pos="15078" len="17"/>
          <note pan="0" key="66" vol="100" pos="15096" len="5"/>
          <note pan="0" key="54" vol="100" pos="15102" len="17"/>
          <note pan="0" key="65" vol="100" pos="15120" len="5"/>
          <note pan="0" key="53" vol="100" pos="15126" len="17"/>
          <note pan="0" key="69" vol="100" pos="15144" len="5"/>
          <note pan="0" key="57" vol="100" pos="15150" len="17"/>
          <note pan="0" key="65" vol="100" pos="15168" len="5"/>
          <note pan="0" key="53" vol="100" pos="15174" len="17"/>
          <note pan="0" key="68" vol="100" pos="15192" len="5"/>
          <note pan="0" key="56" vol="100" pos="15198" len="17"/>
          <note pan="0" key="70" vol="100" pos="15216" len="5"/>
          <note pan="0" key="58" vol="100" pos="15222" len="17"/>
          <note pan="0" key="72" vol="100" pos="15240" len="5"/>
          <note pan="0" key="60" vol="100" pos="15246" len="17"/>
          <note pan="0" key="70" vol="100" pos="15264" len="5"/>
          <note pan="0" key="58" vol="100" pos="15270" len="41"/>
          <note pan="0" key="77" vol="100" pos="15312" len="5"/>
          <note pan="0" key="65" vol="100" pos="15318" len="17"/>
          <note pan="0" key="75" vol="100" pos="15336" len="5"/>
          <note pan="0" key="63" vol="100" pos="15342" len="17"/>
          <note pan="0" key="73" vol="100" pos="15360" len="5"/>
          <note pan="0" key="61" vol="100" pos="15366" len="17"/>
          <note pan="0" key="60" vol="100" pos="15384" len="23"/>
          <note pan="0" key="65" vol="100" pos="15408" len="5"/>
          <note pan="0" key="53" vol="100" pos="15414" len="41"/>
          <note pan="0" key="70" vol="100" pos="15456" len="5"/>
          <note pan="0" key="58" vol="100" pos="15462" len="17"/>
          <note pan="0" key="68" vol="100" pos="15480" len="5"/>
          <note pan="0" key="58" vol="100" pos="15486" len="5"/>
          <note pan="0" key="56" vol="100" pos="15492" len="11"/>
          <note pan="0" key="65" vol="100" pos="15504" len="5"/>
          <note pan="0" key="53" vol="100" pos="15510" len="17"/>
          <note pan="0" key="68" vol="100" pos="15528" len="5"/>
          <note pan="0" key="56" vol="100" pos="15534" len="17"/>
          <note pan="0" key="66" vol="100" pos="15552" len="5"/>
          <note pan="0" key="54" vol="100" pos="15558" len="17"/>
          <note pan="0" key="68" vol="100" pos="15576" len="5"/>
          <note pan="0" key="56" vol="100" pos="15582" len="17"/>
          <note pan="0" key="70" vol="100" pos="15600" len="5"/>
          <note pan="0" key="58" vol="100" pos="15606" len="17"/>
          <note pan="0" key="72" vol="100" pos="15624" len="5"/>
          <note pan="0" key="60" vol="100" pos="15630" len="17"/>
          <note pan="0" key="70" vol="100" pos="15648" len="5"/>
          <note pan="0" key="58" vol="100" pos="15654" len="23"/>
          <note pan="0" key="58" vol="100" pos="15678" len="5"/>
          <note pan="0" key="54" vol="100" pos="15684" len="5"/>
          <note pan="0" key="49" vol="100" pos="15690" len="5"/>
          <note pan="0" key="72" vol="100" pos="15696" len="5"/>
          <note pan="0" key="60" vol="100" pos="15702" len="17"/>
          <note pan="0" key="70" vol="100" pos="15720" len="5"/>
          <note pan="0" key="58" vol="100" pos="15726" len="17"/>
          <note pan="0" key="56" vol="100" pos="15744" len="5"/>
          <note pan="0" key="75" vol="100" pos="15750" len="5"/>
          <note pan="0" key="63" vol="100" pos="15756" len="5"/>
          <note pan="0" key="68" vol="100" pos="15762" len="5"/>
          <note pan="0" key="51" vol="100" pos="15768" len="5"/>
          <note pan="0" key="72" vol="100" pos="15774" len="5"/>
          <note pan="0" key="56" vol="100" pos="15780" len="5"/>
          <note pan="0" key="68" vol="100" pos="15786" len="5"/>
          <note pan="0" key="56" vol="100" pos="15792" len="5"/>
          <note pan="0" key="75" vol="100" pos="15798" len="5"/>
          <note pan="0" key="63" vol="100" pos="15804" len="5"/>
          <note pan="0" key="68" vol="100" pos="15810" len="5"/>
          <note pan="0" key="51" vol="100" pos="15816" len="5"/>
          <note pan="0" key="72" vol="100" pos="15822" len="5"/>
          <note pan="0" key="56" vol="100" pos="15828" len="5"/>
          <note pan="0" key="68" vol="100" pos="15834" len="5"/>
          <note pan="0" key="57" vol="100" pos="15840" len="5"/>
          <note pan="0" key="77" vol="100" pos="15846" len="5"/>
          <note pan="0" key="65" vol="100" pos="15852" len="5"/>
          <note pan="0" key="69" vol="100" pos="15858" len="5"/>
          <note pan="0" key="53" vol="100" pos="15864" len="5"/>
          <note pan="0" key="75" vol="100" pos="15870" len="5"/>
          <note pan="0" key="57" vol="100" pos="15876" len="5"/>
          <note pan="0" key="69" vol="100" pos="15882" len="5"/>
          <note pan="0" key="57" vol="100" pos="15888" len="5"/>
          <note pan="0" key="77" vol="100" pos="15894" len="5"/>
          <note pan="0" key="65" vol="100" pos="15900" len="5"/>
          <note pan="0" key="69" vol="100" pos="15906" len="5"/>
          <note pan="0" key="53" vol="100" pos="15912" len="5"/>
          <note pan="0" key="75" vol="100" pos="15918" len="5"/>
          <note pan="0" key="57" vol="100" pos="15924" len="5"/>
          <note pan="0" key="69" vol="100" pos="15930" len="5"/>
          <note pan="0" key="77" vol="100" pos="15936" len="23"/>
          <note pan="0" key="77" vol="100" pos="15960" len="23"/>
          <note pan="0" key="73" vol="100" pos="15984" len="23"/>
          <note pan="0" key="72" vol="100" pos="16008" len="23"/>
          <note pan="0" key="73" vol="100" pos="16032" len="47"/>
          <note pan="0" key="72" vol="100" pos="16080" len="23"/>
          <note pan="0" key="73" vol="100" pos="16104" len="23"/>
          <note pan="0" key="75" vol="100" pos="16128" len="23"/>
          <note pan="0" key="75" vol="100" pos="16152" len="23"/>
          <note pan="0" key="72" vol="100" pos="16176" len="23"/>
          <note pan="0" key="70" vol="100" pos="16200" len="23"/>
          <note pan="0" key="72" vol="100" pos="16224" len="47"/>
          <note pan="0" key="65" vol="100" pos="16272" len="23"/>
          <note pan="0" key="70" vol="100" pos="16296" len="23"/>
          <note pan="0" key="68" vol="100" pos="16320" len="23"/>
          <note pan="0" key="65" vol="100" pos="16344" len="23"/>
          <note pan="0" key="63" vol="100" pos="16368" len="23"/>
          <note pan="0" key="60" vol="100" pos="16392" len="23"/>
          <note pan="0" key="61" vol="100" pos="16416" len="41"/>
          <note pan="0" key="61" vol="100" pos="16464" len="23"/>
          <note pan="0" key="65" vol="100" pos="16488" len="23"/>
          <note pan="0" key="63" vol="100" pos="16512" len="23"/>
          <note pan="0" key="65" vol="100" pos="16536" len="23"/>
          <note pan="0" key="68" vol="100" pos="16560" len="23"/>
          <note pan="0" key="70" vol="100" pos="16584" len="23"/>
          <note pan="0" key="61" vol="100" pos="16608" len="47"/>
          <note pan="0" key="70" vol="100" pos="16656" len="23"/>
          <note pan="0" key="68" vol="100" pos="16680" len="23"/>
          <note pan="0" key="78" vol="100" pos="16704" len="5"/>
          <note pan="0" key="66" vol="100" pos="16710" len="5"/>
          <note pan="0" key="78" vol="100" pos="16716" len="11"/>
          <note pan="0" key="73" vol="100" pos="16728" len="5"/>
          <note pan="0" key="66" vol="100" pos="16734" len="5"/>
          <note pan="0" key="73" vol="100" pos="16740" len="11"/>
          <note pan="0" key="78" vol="100" pos="16752" len="5"/>
          <note pan="0" key="66" vol="100" pos="16758" len="5"/>
          <note pan="0" key="78" vol="100" pos="16764" len="11"/>
          <note pan="0" key="73" vol="100" pos="16776" len="5"/>
          <note pan="0" key="66" vol="100" pos="16782" len="5"/>
          <note pan="0" key="73" vol="100" pos="16788" len="11"/>
          <note pan="0" key="78" vol="100" pos="16800" len="5"/>
          <note pan="0" key="66" vol="100" pos="16806" len="5"/>
          <note pan="0" key="78" vol="100" pos="16812" len="11"/>
          <note pan="0" key="73" vol="100" pos="16824" len="5"/>
          <note pan="0" key="66" vol="100" pos="16830" len="5"/>
          <note pan="0" key="73" vol="100" pos="16836" len="11"/>
          <note pan="0" key="78" vol="100" pos="16848" len="5"/>
          <note pan="0" key="70" vol="100" pos="16854" len="5"/>
          <note pan="0" key="73" vol="100" pos="16860" len="5"/>
          <note pan="0" key="78" vol="100" pos="16866" len="5"/>
          <note pan="0" key="73" vol="100" pos="16872" len="5"/>
          <note pan="0" key="70" vol="100" pos="16878" len="5"/>
          <note pan="0" key="73" vol="100" pos="16884" len="5"/>
          <note pan="0" key="78" vol="100" pos="16890" len="5"/>
          <note pan="0" key="80" vol="100" pos="16896" len="11"/>
          <note pan="0" key="75" vol="100" pos="16908" len="11"/>
          <note pan="0" key="72" vol="100" pos="16920" len="11"/>
          <note pan="0" key="75" vol="100" pos="16932" len="11"/>
          <note pan="0" key="80" vol="100" pos="16944" len="11"/>
          <note pan="0" key="75" vol="100" pos="16956" len="11"/>
          <note pan="0" key="72" vol="100" pos="16968" len="11"/>
          <note pan="0" key="75" vol="100" pos="16980" len="11"/>
          <note pan="0" key="81" vol="100" pos="16992" len="11"/>
          <note pan="0" key="75" vol="100" pos="17004" len="11"/>
          <note pan="0" key="72" vol="100" pos="17016" len="11"/>
          <note pan="0" key="75" vol="100" pos="17028" len="11"/>
          <note pan="0" key="81" vol="100" pos="17040" len="11"/>
          <note pan="0" key="77" vol="100" pos="17052" len="11"/>
          <note pan="0" key="81" vol="100" pos="17064" len="11"/>
          <note pan="0" key="84" vol="100" pos="17076" len="11"/>
          <note pan="0" key="85" vol="100" pos="17088" len="11"/>
          <note pan="0" key="84" vol="100" pos="17100" len="11"/>
          <note pan="0" key="82" vol="100" pos="17112" len="11"/>
          <note pan="0" key="80" vol="100" pos="17124" len="11"/>
          <note pan="0" key="77" vol="100" pos="17136" len="11"/>
          <note pan="0" key="75" vol="100" pos="17148" len="11"/>
          <note pan="0" key="73" vol="100" pos="17160" len="11"/>
          <note pan="0" key="80" vol="100" pos="17172" len="11"/>
          <note pan="0" key="77" vol="100" pos="17184" len="11"/>
          <note pan="0" key="75" vol="100" pos="17196" len="11"/>
          <note pan="0" key="73" vol="100" pos="17208" len="11"/>
          <note pan="0" key="70" vol="100" pos="17220" len="11"/>
          <note pan="0" key="72" vol="100" pos="17232" len="11"/>
          <note pan="0" key="73" vol="100" pos="17244" len="11"/>
          <note pan="0" key="72" vol="100" pos="17256" len="11"/>
          <note pan="0" key="68" vol="100" pos="17268" len="11"/>
          <note pan="0" key="70" vol="100" pos="17280" len="11"/>
          <note pan="0" key="65" vol="100" pos="17292" len="11"/>
          <note pan="0" key="72" vol="100" pos="17304" len="11"/>
          <note pan="0" key="65" vol="100" pos="17316" len="11"/>
          <note pan="0" key="73" vol="100" pos="17328" len="11"/>
          <note pan="0" key="65" vol="100" pos="17340" len="11"/>
          <note pan="0" key="75" vol="100" pos="17352" len="11"/>
          <note pan="0" key="65" vol="100" pos="17364" len="11"/>
          <note pan="0" key="77" vol="100" pos="17376" len="11"/>
          <note pan="0" key="72" vol="100" pos="17388" len="11"/>
          <note pan="0" key="73" vol="100" pos="17400" len="11"/>
          <note pan="0" key="72" vol="100" pos="17412" len="11"/>
          <note pan="0" key="68" vol="100" pos="17424" len="11"/>
          <note pan="0" key="63" vol="100" pos="17436" len="11"/>
          <note pan="0" key="61" vol="100" pos="17448" len="11"/>
          <note pan="0" key="60" vol="100" pos="17460" len="11"/>
          <note pan="0" key="42" vol="100" pos="17472" len="5"/>
          <note pan="0" key="49" vol="100" pos="17484" len="5"/>
          <note pan="0" key="54" vol="100" pos="17496" len="5"/>
          <note pan="0" key="49" vol="100" pos="17508" len="5"/>
          <note pan="0" key="42" vol="100" pos="17520" len="5"/>
          <note pan="0" key="49" vol="100" pos="17532" len="5"/>
          <note pan="0" key="54" vol="100" pos="17544" len="5"/>
          <note pan="0" key="49" vol="100" pos="17556" len="5"/>
          <note pan="0" key="42" vol="100" pos="17568" len="5"/>
          <note pan="0" key="49" vol="100" pos="17580" len="5"/>
          <note pan="0" key="54" vol="100" pos="17592" len="5"/>
          <note pan="0" key="49" vol="100" pos="17604" len="5"/>
          <note pan="0" key="42" vol="100" pos="17616" len="5"/>
          <note pan="0" key="49" vol="100" pos="17628" len="5"/>
          <note pan="0" key="54" vol="100" pos="17640" len="5"/>
          <note pan="0" key="49" vol="100" pos="17652" len="5"/>
          <note pan="0" key="44" vol="100" pos="17664" len="5"/>
          <note pan="0" key="51" vol="100" pos="17676" len="5"/>
          <note pan="0" key="56" vol="100" pos="17688" len="5"/>
          <note pan="0" key="51" vol="100" pos="17700" len="5"/>
          <note pan="0" key="44" vol="100" pos="17712" len="5"/>
          <note pan="0" key="51" vol="100" pos="17724" len="5"/>
          <note pan="0" key="56" vol="100" pos="17736" len="5"/>
          <note pan="0" key="51" vol="100" pos="17748" len="5"/>
          <note pan="0" key="44" vol="100" pos="17760" len="5"/>
          <note pan="0" key="51" vol="100" pos="17772" len="5"/>
          <note pan="0" key="56" vol="100" pos="17784" len="5"/>
          <note pan="0" key="51" vol="100" pos="17796" len="5"/>
          <note pan="0" key="45" vol="100" pos="17808" len="5"/>
          <note pan="0" key="53" vol="100" pos="17820" len="5"/>
          <note pan="0" key="57" vol="100" pos="17832" len="5"/>
          <note pan="0" key="53" vol="100" pos="17844" len="5"/>
          <note pan="0" key="46" vol="100" pos="17856" len="5"/>
          <note pan="0" key="53" vol="100" pos="17868" len="5"/>
          <note pan="0" key="58" vol="100" pos="17880" len="5"/>
          <note pan="0" key="53" vol="100" pos="17892" len="5"/>
          <note pan="0" key="46" vol="100" pos="17904" len="5"/>
          <note pan="0" key="53" vol="100" pos="17916" len="5"/>
          <note pan="0" key="58" vol="100" pos="17928" len="5"/>
          <note pan="0" key="53" vol="100" pos="17940" len="5"/>
          <note pan="0" key="46" vol="100" pos="17952" len="5"/>
          <note pan="0" key="53" vol="100" pos="17964" len="5"/>
          <note pan="0" key="58" vol="100" pos="17976" len="5"/>
          <note pan="0" key="53" vol="100" pos="17988" len="5"/>
          <note pan="0" key="46" vol="100" pos="18000" len="5"/>
          <note pan="0" key="53" vol="100" pos="18012" len="5"/>
          <note pan="0" key="58" vol="100" pos="18024" len="5"/>
          <note pan="0" key="53" vol="100" pos="18036" len="5"/>
          <note pan="0" key="46" vol="100" pos="18048" len="5"/>
          <note pan="0" key="51" vol="100" pos="18060" len="5"/>
          <note pan="0" key="56" vol="100" pos="18072" len="5"/>
          <note pan="0" key="51" vol="100" pos="18084" len="5"/>
          <note pan="0" key="46" vol="100" pos="18096" len="5"/>
          <note pan="0" key="51" vol="100" pos="18108" len="5"/>
          <note pan="0" key="56" vol="100" pos="18120" len="5"/>
          <note pan="0" key="51" vol="100" pos="18132" len="5"/>
          <note pan="0" key="49" vol="100" pos="18144" len="5"/>
          <note pan="0" key="56" vol="100" pos="18156" len="5"/>
          <note pan="0" key="61" vol="100" pos="18168" len="5"/>
          <note pan="0" key="56" vol="100" pos="18180" len="11"/>
          <note pan="0" key="61" vol="100" pos="18192" len="11"/>
          <note pan="0" key="60" vol="100" pos="18204" len="11"/>
          <note pan="0" key="56" vol="100" pos="18216" len="11"/>
          <note pan="0" key="51" vol="100" pos="18228" len="11"/>
          <note pan="0" key="77" vol="100" pos="18240" len="23"/>
          <note pan="0" key="77" vol="100" pos="18264" len="23"/>
          <note pan="0" key="73" vol="100" pos="18288" len="23"/>
          <note pan="0" key="72" vol="100" pos="18312" len="23"/>
          <note pan="0" key="73" vol="100" pos="18336" len="47"/>
          <note pan="0" key="72" vol="100" pos="18384" len="23"/>
          <note pan="0" key="73" vol="100" pos="18408" len="23"/>
          <note pan="0" key="75" vol="100" pos="18432" len="23"/>
          <note pan="0" key="75" vol="100" pos="18456" len="23"/>
          <note pan="0" key="72" vol="100" pos="18480" len="23"/>
          <note pan="0" key="70" vol="100" pos="18504" len="23"/>
          <note pan="0" key="72" vol="100" pos="18528" len="47"/>
          <note pan="0" key="77" vol="100" pos="18576" len="23"/>
          <note pan="0" key="80" vol="100" pos="18600" len="23"/>
          <note pan="0" key="82" vol="100" pos="18624" len="23"/>
          <note pan="0" key="80" vol="100" pos="18648" len="23"/>
          <note pan="0" key="77" vol="100" pos="18672" len="23"/>
          <note pan="0" key="75" vol="100" pos="18696" len="23"/>
          <note pan="0" key="73" vol="100" pos="18720" len="47"/>
          <note pan="0" key="72" vol="100" pos="18768" len="23"/>
          <note pan="0" key="73" vol="100" pos="18792" len="23"/>
          <note pan="0" key="72" vol="100" pos="18816" len="23"/>
          <note pan="0" key="68" vol="100" pos="18840" len="23"/>
          <note pan="0" key="63" vol="100" pos="18864" len="23"/>
          <note pan="0" key="60" vol="100" pos="18888" len="23"/>
          <note pan="0" key="61" vol="100" pos="18912" len="53"/>
          <note pan="0" key="61" vol="100" pos="18972" len="5"/>
          <note pan="0" key="61" vol="100" pos="18984" len="5"/>
          <note pan="0" key="61" vol="100" pos="18996" len="5"/>
          <note pan="0" key="76" vol="100" pos="19008" len="5"/>
          <note pan="0" key="64" vol="100" pos="19014" len="17"/>
          <note pan="0" key="78" vol="100" pos="19032" len="5"/>
          <note pan="0" key="66" vol="100" pos="19038" len="17"/>
          <note pan="0" key="74" vol="100" pos="19056" len="5"/>
          <note pan="0" key="62" vol="100" pos="19062" len="17"/>
          <note pan="0" key="73" vol="100" pos="19080" len="5"/>
          <note pan="0" key="61" vol="100" pos="19086" len="17"/>
          <note pan="0" key="74" vol="100" pos="19104" len="5"/>
          <note pan="0" key="62" vol="100" pos="19110" len="41"/>
          <note pan="0" key="73" vol="100" pos="19152" len="5"/>
          <note pan="0" key="61" vol="100" pos="19158" len="17"/>
          <note pan="0" key="74" vol="100" pos="19176" len="5"/>
          <note pan="0" key="62" vol="100" pos="19182" len="17"/>
          <note pan="0" key="76" vol="100" pos="19200" len="5"/>
          <note pan="0" key="64" vol="100" pos="19206" len="17"/>
          <note pan="0" key="78" vol="100" pos="19224" len="5"/>
          <note pan="0" key="66" vol="100" pos="19230" len="17"/>
          <note pan="0" key="73" vol="100" pos="19248" len="5"/>
          <note pan="0" key="61" vol="100" pos="19254" len="17"/>
          <note pan="0" key="71" vol="100" pos="19272" len="5"/>
          <note pan="0" key="59" vol="100" pos="19278" len="17"/>
          <note pan="0" key="73" vol="100" pos="19296" len="5"/>
          <note pan="0" key="61" vol="100" pos="19302" len="41"/>
          <note pan="0" key="66" vol="100" pos="19344" len="5"/>
          <note pan="0" key="54" vol="100" pos="19350" len="17"/>
          <note pan="0" key="71" vol="100" pos="19368" len="5"/>
          <note pan="0" key="59" vol="100" pos="19374" len="17"/>
          <note pan="0" key="69" vol="100" pos="19392" len="5"/>
          <note pan="0" key="57" vol="100" pos="19398" len="17"/>
          <note pan="0" key="66" vol="100" pos="19416" len="5"/>
          <note pan="0" key="54" vol="100" pos="19422" len="17"/>
          <note pan="0" key="64" vol="100" pos="19440" len="5"/>
          <note pan="0" key="52" vol="100" pos="19446" len="17"/>
          <note pan="0" key="61" vol="100" pos="19464" len="5"/>
          <note pan="0" key="49" vol="100" pos="19470" len="17"/>
          <note pan="0" key="62" vol="100" pos="19488" len="5"/>
          <note pan="0" key="50" vol="100" pos="19494" len="41"/>
          <note pan="0" key="62" vol="100" pos="19536" len="5"/>
          <note pan="0" key="50" vol="100" pos="19542" len="17"/>
          <note pan="0" key="66" vol="100" pos="19560" len="5"/>
          <note pan="0" key="54" vol="100" pos="19566" len="17"/>
          <note pan="0" key="64" vol="100" pos="19584" len="5"/>
          <note pan="0" key="52" vol="100" pos="19590" len="17"/>
          <note pan="0" key="66" vol="100" pos="19608" len="5"/>
          <note pan="0" key="54" vol="100" pos="19614" len="17"/>
          <note pan="0" key="69" vol="100" pos="19632" len="5"/>
          <note pan="0" key="57" vol="100" pos="19638" len="17"/>
          <note pan="0" key="71" vol="100" pos="19656" len="5"/>
          <note pan="0" key="59" vol="100" pos="19662" len="17"/>
          <note pan="0" key="62" vol="100" pos="19680" len="5"/>
          <note pan="0" key="50" vol="100" pos="19686" len="41"/>
          <note pan="0" key="71" vol="100" pos="19728" len="5"/>
          <note pan="0" key="59" vol="100" pos="19734" len="17"/>
          <note pan="0" key="69" vol="100" pos="19752" len="5"/>
          <note pan="0" key="57" vol="100" pos="19758" len="17"/>
          <note pan="0" key="67" vol="100" pos="19776" len="5"/>
          <note pan="0" key="55" vol="100" pos="19782" len="17"/>
          <note pan="0" key="74" vol="100" pos="19800" len="5"/>
          <note pan="0" key="62" vol="100" pos="19806" len="17"/>
          <note pan="0" key="67" vol="100" pos="19824" len="5"/>
          <note pan="0" key="55" vol="100" pos="19830" len="17"/>
          <note pan="0" key="74" vol="100" pos="19848" len="5"/>
          <note pan="0" key="62" vol="100" pos="19854" len="17"/>
          <note pan="0" key="67" vol="100" pos="19872" len="5"/>
          <note pan="0" key="55" vol="100" pos="19878" len="41"/>
          <note pan="0" key="67" vol="100" pos="19920" len="5"/>
          <note pan="0" key="55" vol="100" pos="19926" len="17"/>
          <note pan="0" key="74" vol="100" pos="19944" len="5"/>
          <note pan="0" key="62" vol="100" pos="19950" len="17"/>
          <note pan="0" key="69" vol="100" pos="19968" len="5"/>
          <note pan="0" key="57" vol="100" pos="19974" len="17"/>
          <note pan="0" key="76" vol="100" pos="19992" len="5"/>
          <note pan="0" key="64" vol="100" pos="19998" len="17"/>
          <note pan="0" key="69" vol="100" pos="20016" len="5"/>
          <note pan="0" key="57" vol="100" pos="20022" len="17"/>
          <note pan="0" key="76" vol="100" pos="20040" len="5"/>
          <note pan="0" key="64" vol="100" pos="20046" len="17"/>
          <note pan="0" key="66" vol="100" pos="20064" len="5"/>
          <note pan="0" key="54" vol="100" pos="20070" len="41"/>
          <note pan="0" key="66" vol="100" pos="20112" len="5"/>
          <note pan="0" key="54" vol="100" pos="20118" len="17"/>
          <note pan="0" key="74" vol="100" pos="20136" len="5"/>
          <note pan="0" key="62" vol="100" pos="20142" len="17"/>
          <note pan="0" key="73" vol="100" pos="20160" len="5"/>
          <note pan="0" key="61" vol="100" pos="20166" len="17"/>
          <note pan="0" key="71" vol="100" pos="20184" len="5"/>
          <note pan="0" key="59" vol="100" pos="20190" len="17"/>
          <note pan="0" key="69" vol="100" pos="20208" len="5"/>
          <note pan="0" key="57" vol="100" pos="20214" len="17"/>
          <note pan="0" key="64" vol="100" pos="20232" len="5"/>
          <note pan="0" key="52" vol="100" pos="20238" len="17"/>
          <note pan="0" key="66" vol="100" pos="20256" len="5"/>
          <note pan="0" key="54" vol="100" pos="20262" len="41"/>
          <note pan="0" key="64" vol="100" pos="20304" len="5"/>
          <note pan="0" key="52" vol="100" pos="20310" len="17"/>
          <note pan="0" key="66" vol="100" pos="20328" len="5"/>
          <note pan="0" key="54" vol="100" pos="20334" len="17"/>
          <note pan="0" key="64" vol="100" pos="20352" len="5"/>
          <note pan="0" key="52" vol="100" pos="20358" len="17"/>
          <note pan="0" key="62" vol="100" pos="20376" len="5"/>
          <note pan="0" key="50" vol="100" pos="20382" len="17"/>
          <note pan="0" key="61" vol="100" pos="20400" len="5"/>
          <note pan="0" key="49" vol="100" pos="20406" len="17"/>
          <note pan="0" key="57" vol="100" pos="20424" len="5"/>
          <note pan="0" key="45" vol="100" pos="20430" len="17"/>
          <note pan="0" key="59" vol="100" pos="20448" len="5"/>
          <note pan="0" key="47" vol="100" pos="20454" len="41"/>
          <note pan="0" key="71" vol="100" pos="20496" len="5"/>
          <note pan="0" key="59" vol="100" pos="20502" len="17"/>
          <note pan="0" key="69" vol="100" pos="20520" len="5"/>
          <note pan="0" key="57" vol="100" pos="20526" len="17"/>
          <note pan="0" key="69" vol="100" pos="20544" len="5"/>
          <note pan="0" key="57" vol="100" pos="20550" len="17"/>
          <note pan="0" key="71" vol="100" pos="20568" len="5"/>
          <note pan="0" key="59" vol="100" pos="20574" len="17"/>
          <note pan="0" key="66" vol="100" pos="20592" len="5"/>
          <note pan="0" key="54" vol="100" pos="20598" len="17"/>
          <note pan="0" key="64" vol="100" pos="20616" len="5"/>
          <note pan="0" key="52" vol="100" pos="20622" len="17"/>
          <note pan="0" key="66" vol="100" pos="20640" len="5"/>
          <note pan="0" key="54" vol="100" pos="20646" len="41"/>
          <note pan="0" key="64" vol="100" pos="20688" len="5"/>
          <note pan="0" key="52" vol="100" pos="20694" len="17"/>
          <note pan="0" key="66" vol="100" pos="20712" len="5"/>
          <note pan="0" key="54" vol="100" pos="20718" len="17"/>
          <note pan="0" key="69" vol="100" pos="20736" len="5"/>
          <note pan="0" key="57" vol="100" pos="20742" len="17"/>
          <note pan="0" key="71" vol="100" pos="20760" len="5"/>
          <note pan="0" key="59" vol="100" pos="20766" len="17"/>
          <note pan="0" key="66" vol="100" pos="20784" len="5"/>
          <note pan="0" key="54" vol="100" pos="20790" len="17"/>
          <note pan="0" key="64" vol="100" pos="20808" len="5"/>
          <note pan="0" key="52" vol="100" pos="20814" len="17"/>
          <note pan="0" key="66" vol="100" pos="20832" len="5"/>
          <note pan="0" key="54" vol="100" pos="20838" len="41"/>
          <note pan="0" key="59" vol="100" pos="20880" len="5"/>
          <note pan="0" key="47" vol="100" pos="20886" len="17"/>
          <note pan="0" key="66" vol="100" pos="20904" len="5"/>
          <note pan="0" key="54" vol="100" pos="20910" len="17"/>
          <note pan="0" key="64" vol="100" pos="20928" len="5"/>
          <note pan="0" key="52" vol="100" pos="20934" len="17"/>
          <note pan="0" key="62" vol="100" pos="20952" len="5"/>
          <note pan="0" key="50" vol="100" pos="20958" len="17"/>
          <note pan="0" key="61" vol="100" pos="20976" len="5"/>
          <note pan="0" key="49" vol="100" pos="20982" len="17"/>
          <note pan="0" key="57" vol="100" pos="21000" len="5"/>
          <note pan="0" key="45" vol="100" pos="21006" len="17"/>
          <note pan="0" key="59" vol="100" pos="21024" len="5"/>
          <note pan="0" key="47" vol="100" pos="21030" len="41"/>
          <note pan="0" key="59" vol="100" pos="21072" len="5"/>
          <note pan="0" key="47" vol="100" pos="21078" len="17"/>
          <note pan="0" key="62" vol="100" pos="21096" len="5"/>
          <note pan="0" key="50" vol="100" pos="21102" len="17"/>
          <note pan="0" key="61" vol="100" pos="21120" len="5"/>
          <note pan="0" key="49" vol="100" pos="21126" len="17"/>
          <note pan="0" key="62" vol="100" pos="21144" len="5"/>
          <note pan="0" key="50" vol="100" pos="21150" len="17"/>
          <note pan="0" key="64" vol="100" pos="21168" len="5"/>
          <note pan="0" key="52" vol="100" pos="21174" len="17"/>
          <note pan="0" key="66" vol="100" pos="21192" len="5"/>
          <note pan="0" key="54" vol="100" pos="21198" len="17"/>
          <note pan="0" key="59" vol="100" pos="21216" len="5"/>
          <note pan="0" key="47" vol="100" pos="21222" len="41"/>
          <note pan="0" key="66" vol="100" pos="21264" len="5"/>
          <note pan="0" key="54" vol="100" pos="21270" len="17"/>
          <note pan="0" key="69" vol="100" pos="21288" len="5"/>
          <note pan="0" key="57" vol="100" pos="21294" len="17"/>
          <note pan="0" key="69" vol="100" pos="21312" len="5"/>
          <note pan="0" key="57" vol="100" pos="21318" len="17"/>
          <note pan="0" key="71" vol="100" pos="21336" len="5"/>
          <note pan="0" key="59" vol="100" pos="21342" len="17"/>
          <note pan="0" key="66" vol="100" pos="21360" len="5"/>
          <note pan="0" key="54" vol="100" pos="21366" len="17"/>
          <note pan="0" key="64" vol="100" pos="21384" len="5"/>
          <note pan="0" key="52" vol="100" pos="21390" len="17"/>
          <note pan="0" key="66" vol="100" pos="21408" len="5"/>
          <note pan="0" key="54" vol="100" pos="21414" len="41"/>
          <note pan="0" key="64" vol="100" pos="21456" len="5"/>
          <note pan="0" key="52" vol="100" pos="21462" len="17"/>
          <note pan="0" key="66" vol="100" pos="21480" len="5"/>
          <note pan="0" key="54" vol="100" pos="21486" len="17"/>
          <note pan="0" key="69" vol="100" pos="21504" len="5"/>
          <note pan="0" key="57" vol="100" pos="21510" len="17"/>
          <note pan="0" key="71" vol="100" pos="21528" len="5"/>
          <note pan="0" key="59" vol="100" pos="21534" len="17"/>
          <note pan="0" key="66" vol="100" pos="21552" len="5"/>
          <note pan="0" key="54" vol="100" pos="21558" len="17"/>
          <note pan="0" key="64" vol="100" pos="21576" len="5"/>
          <note pan="0" key="52" vol="100" pos="21582" len="17"/>
          <note pan="0" key="66" vol="100" pos="21600" len="5"/>
          <note pan="0" key="54" vol="100" pos="21606" len="41"/>
          <note pan="0" key="71" vol="100" pos="21648" len="5"/>
          <note pan="0" key="59" vol="100" pos="21654" len="17"/>
          <note pan="0" key="73" vol="100" pos="21672" len="5"/>
          <note pan="0" key="61" vol="100" pos="21678" len="17"/>
          <note pan="0" key="74" vol="100" pos="21696" len="5"/>
          <note pan="0" key="62" vol="100" pos="21702" len="17"/>
          <note pan="0" key="73" vol="100" pos="21720" len="5"/>
          <note pan="0" key="61" vol="100" pos="21726" len="17"/>
          <note pan="0" key="71" vol="100" pos="21744" len="5"/>
          <note pan="0" key="59" vol="100" pos="21750" len="17"/>
          <note pan="0" key="69" vol="100" pos="21768" len="5"/>
          <note pan="0" key="57" vol="100" pos="21774" len="17"/>
          <note pan="0" key="66" vol="100" pos="21792" len="5"/>
          <note pan="0" key="54" vol="100" pos="21798" len="41"/>
          <note pan="0" key="64" vol="100" pos="21840" len="5"/>
          <note pan="0" key="52" vol="100" pos="21846" len="17"/>
          <note pan="0" key="66" vol="100" pos="21864" len="5"/>
          <note pan="0" key="54" vol="100" pos="21870" len="17"/>
          <note pan="0" key="64" vol="100" pos="21888" len="5"/>
          <note pan="0" key="52" vol="100" pos="21894" len="17"/>
          <note pan="0" key="62" vol="100" pos="21912" len="5"/>
          <note pan="0" key="50" vol="100" pos="21918" len="17"/>
          <note pan="0" key="61" vol="100" pos="21936" len="5"/>
          <note pan="0" key="49" vol="100" pos="21942" len="17"/>
          <note pan="0" key="57" vol="100" pos="21960" len="5"/>
          <note pan="0" key="45" vol="100" pos="21966" len="17"/>
          <note pan="0" key="59" vol="100" pos="21984" len="5"/>
          <note pan="0" key="47" vol="100" pos="21990" len="77"/>
          <note pan="0" key="40" vol="100" pos="22116" len="5"/>
          <note pan="0" key="42" vol="100" pos="22122" len="5"/>
          <note pan="0" key="40" vol="100" pos="22152" len="5"/>
          <note pan="0" key="42" vol="100" pos="22158" len="5"/>
          <note pan="0" key="40" vol="100" pos="22176" len="5"/>
          <note pan="0" key="42" vol="100" pos="22182" len="5"/>
          <note pan="0" key="40" vol="100" pos="22212" len="5"/>
          <note pan="0" key="42" vol="100" pos="22218" len="5"/>
          <note pan="0" key="40" vol="100" pos="22248" len="5"/>
          <note pan="0" key="42" vol="100" pos="22254" len="5"/>
          <note pan="0" key="40" vol="100" pos="22272" len="5"/>
          <note pan="0" key="42" vol="100" pos="22278" len="5"/>
          <note pan="0" key="40" vol="100" pos="22308" len="5"/>
          <note pan="0" key="42" vol="100" pos="22314" len="5"/>
          <note pan="0" key="40" vol="100" pos="22344" len="5"/>
          <note pan="0" key="42" vol="100" pos="22350" len="5"/>
          <note pan="0" key="40" vol="100" pos="22368" len="5"/>
          <note pan="0" key="42" vol="100" pos="22374" len="5"/>
          <note pan="0" key="40" vol="100" pos="22404" len="5"/>
          <note pan="0" key="42" vol="100" pos="22410" len="5"/>
          <note pan="0" key="40" vol="100" pos="22440" len="5"/>
          <note pan="0" key="42" vol="100" pos="22446" len="5"/>
          <note pan="0" key="40" vol="100" pos="22464" len="5"/>
          <note pan="0" key="42" vol="100" pos="22470" len="5"/>
          <note pan="0" key="40" vol="100" pos="22500" len="5"/>
          <note pan="0" key="42" vol="100" pos="22506" len="5"/>
          <note pan="0" key="40" vol="100" pos="22536" len="5"/>
          <note pan="0" key="42" vol="100" pos="22542" len="5"/>
          <note pan="0" key="40" vol="100" pos="22560" len="5"/>
          <note pan="0" key="42" vol="100" pos="22566" len="5"/>
          <note pan="0" key="40" vol="100" pos="22596" len="5"/>
          <note pan="0" key="42" vol="100" pos="22602" len="5"/>
          <note pan="0" key="40" vol="100" pos="22632" len="5"/>
          <note pan="0" key="42" vol="100" pos="22638" len="5"/>
          <note pan="0" key="40" vol="100" pos="22656" len="5"/>
          <note pan="0" key="42" vol="100" pos="22662" len="5"/>
          <note pan="0" key="40" vol="100" pos="22692" len="5"/>
          <note pan="0" key="42" vol="100" pos="22698" len="5"/>
          <note pan="0" key="40" vol="100" pos="22728" len="5"/>
          <note pan="0" key="42" vol="100" pos="22734" len="5"/>
          <note pan="0" key="40" vol="100" pos="22752" len="5"/>
          <note pan="0" key="42" vol="100" pos="22758" len="5"/>
          <note pan="0" key="40" vol="100" pos="22788" len="5"/>
          <note pan="0" key="42" vol="100" pos="22794" len="5"/>
          <note pan="0" key="40" vol="100" pos="22824" len="5"/>
          <note pan="0" key="42" vol="100" pos="22830" len="5"/>
        </pattern>
      </track>
      <track muted="0" type="0" name="Ch4">
        <instrumenttrack pan="100" fxch="0" pitch="0" basenote="57" vol="25">
          <instrument name="tripleoscillator">
            <tripleoscillator phoffset2="0" userwavefile0="" finer0="0" userwavefile1="" finer1="0" userwavefile2="" finer2="0" coarse0="0" coarse1="0" coarse2="0" finel0="0" finel1="0" modalgo1="2" modalgo2="2" finel2="0" pan0="0" modalgo3="2" pan1="0" stphdetun0="0" pan2="0" stphdetun1="0" wavetype0="6" stphdetun2="0" wavetype1="0" wavetype2="0" vol0="200" vol1="0" phoffset0="0" phoffset1="0" vol2="0"/>
          </instrument>
          <eldata fres="0.5" ftype="0" fcut="14000" fwet="0">
            <elvol lspd_denominator="4" pdel="0" userwavefile="" dec="0.5" lamt="0" syncmode="0" latt="0" rel="0.1" sus="0.5" amt="0" x100="0" att="0" lpdel="0" hold="0.5" lshp="0" lspd="0.1" ctlenvamt="0" lspd_numerator="4"/>
            <elcut lspd_denominator="4" pdel="0" userwavefile="" dec="0.5" lamt="0" syncmode="0" latt="0" rel="0.1" sus="0.5" amt="0" x100="0" att="0" lpdel="0" hold="0.5" lshp="0" lspd="0.1" ctlenvamt="0" lspd_numerator="4"/>
            <elres lspd_denominator="4" pdel="0" userwavefile="" dec="0.5" lamt="0" syncmode="0" latt="0" rel="0.1" sus="0.5" amt="0" x100="0" att="0" lpdel="0" hold="0.5" lshp="0" lspd="0.1" ctlenvamt="0" lspd_numerator="4"/>
          </eldata>
          <chordcreator chord="0" chordrange="1" chord-enabled="0"/>
          <arpeggiator arptime="100" arprange="1" arptime_denominator="4" syncmode="0" arpmode="0" arp-enabled="0" arp="0" arptime_numerator="4" arpdir="0" arpgate="100"/>
          <midiport inputcontroller="0" fixedoutputvelocity="-1" inputchannel="0" outputcontroller="0" writable="0" outputchannel="1" fixedinputvelocity="-1" fixedoutputnote="-1" outputprogram="1" readable="0"/>
          <fxchain numofeffects="0" enabled="0"/>
        </instrumenttrack>
        <pattern steps="16" muted="0" type="1" name="Ch4" pos="0" len="23040" frozen="0">
          <note pan="0" key="48" vol="100" pos="24" len="5"/>
          <note pan="0" key="48" vol="100" pos="72" len="5"/>
          <note pan="0" key="48" vol="100" pos="120" len="5"/>
          <note pan="0" key="48" vol="100" pos="168" len="5"/>
          <note pan="0" key="48" vol="100" pos="216" len="5"/>
          <note pan="0" key="48" vol="100" pos="264" len="5"/>
          <note pan="0" key="48" vol="100" pos="312" len="5"/>
          <note pan="0" key="48" vol="100" pos="360" len="5"/>
          <note pan="0" key="48" vol="100" pos="408" len="5"/>
          <note pan="0" key="48" vol="100" pos="456" len="5"/>
          <note pan="0" key="48" vol="100" pos="504" len="5"/>
          <note pan="0" key="48" vol="100" pos="552" len="5"/>
          <note pan="0" key="48" vol="100" pos="600" len="5"/>
          <note pan="0" key="48" vol="100" pos="648" len="5"/>
          <note pan="0" key="48" vol="100" pos="696" len="5"/>
          <note pan="0" key="48" vol="100" pos="744" len="5"/>
          <note pan="0" key="48" vol="100" pos="792" len="5"/>
          <note pan="0" key="48" vol="100" pos="840" len="5"/>
          <note pan="0" key="48" vol="100" pos="888" len="5"/>
          <note pan="0" key="48" vol="100" pos="936" len="5"/>
          <note pan="0" key="48" vol="100" pos="984" len="5"/>
          <note pan="0" key="48" vol="100" pos="1032" len="5"/>
          <note pan="0" key="48" vol="100" pos="1080" len="5"/>
          <note pan="0" key="48" vol="100" pos="1128" len="5"/>
          <note pan="0" key="48" vol="100" pos="1176" len="5"/>
          <note pan="0" key="48" vol="100" pos="1224" len="5"/>
          <note pan="0" key="48" vol="100" pos="1272" len="5"/>
          <note pan="0" key="48" vol="100" pos="1320" len="5"/>
          <note pan="0" key="48" vol="100" pos="1368" len="5"/>
          <note pan="0" key="48" vol="100" pos="1416" len="5"/>
          <note pan="0" key="48" vol="100" pos="1488" len="23"/>
          <note pan="0" key="48" vol="100" pos="1536" len="5"/>
          <note pan="0" key="48" vol="100" pos="1560" len="5"/>
          <note pan="0" key="48" vol="100" pos="1608" len="5"/>
          <note pan="0" key="48" vol="100" pos="1656" len="5"/>
          <note pan="0" key="48" vol="100" pos="1704" len="5"/>
          <note pan="0" key="48" vol="100" pos="1716" len="5"/>
          <note pan="0" key="48" vol="100" pos="1728" len="5"/>
          <note pan="0" key="48" vol="100" pos="1752" len="5"/>
          <note pan="0" key="48" vol="100" pos="1800" len="5"/>
          <note pan="0" key="48" vol="100" pos="1848" len="5"/>
          <note pan="0" key="48" vol="100" pos="1896" len="17"/>
          <note pan="0" key="48" vol="100" pos="1920" len="11"/>
          <note pan="0" key="48" vol="100" pos="1944" len="5"/>
          <note pan="0" key="48" vol="100" pos="1992" len="5"/>
          <note pan="0" key="48" vol="100" pos="2040" len="5"/>
          <note pan="0" key="48" vol="100" pos="2088" len="5"/>
          <note pan="0" key="48" vol="100" pos="2100" len="5"/>
          <note pan="0" key="48" vol="100" pos="2112" len="5"/>
          <note pan="0" key="48" vol="100" pos="2136" len="5"/>
          <note pan="0" key="48" vol="100" pos="2184" len="5"/>
          <note pan="0" key="48" vol="100" pos="2208" len="5"/>
          <note pan="0" key="48" vol="100" pos="2232" len="5"/>
          <note pan="0" key="48" vol="100" pos="2244" len="5"/>
          <note pan="0" key="48" vol="100" pos="2256" len="5"/>
          <note pan="0" key="48" vol="100" pos="2280" len="5"/>
          <note pan="0" key="48" vol="100" pos="2292" len="5"/>
          <note pan="0" key="48" vol="100" pos="2304" len="5"/>
          <note pan="0" key="48" vol="100" pos="2328" len="5"/>
          <note pan="0" key="48" vol="100" pos="2376" len="5"/>
          <note pan="0" key="48" vol="100" pos="2424" len="5"/>
          <note pan="0" key="48" vol="100" pos="2472" len="5"/>
          <note pan="0" key="48" vol="100" pos="2484" len="5"/>
          <note pan="0" key="48" vol="100" pos="2496" len="5"/>
          <note pan="0" key="48" vol="100" pos="2520" len="5"/>
          <note pan="0" key="48" vol="100" pos="2568" len="5"/>
          <note pan="0" key="48" vol="100" pos="2616" len="5"/>
          <note pan="0" key="48" vol="100" pos="2664" len="17"/>
          <note pan="0" key="48" vol="100" pos="2688" len="11"/>
          <note pan="0" key="48" vol="100" pos="2712" len="5"/>
          <note pan="0" key="48" vol="100" pos="2760" len="5"/>
          <note pan="0" key="48" vol="100" pos="2808" len="5"/>
          <note pan="0" key="48" vol="100" pos="2856" len="5"/>
          <note pan="0" key="48" vol="100" pos="2868" len="5"/>
          <note pan="0" key="48" vol="100" pos="2880" len="5"/>
          <note pan="0" key="48" vol="100" pos="2904" len="5"/>
          <note pan="0" key="48" vol="100" pos="2952" len="17"/>
          <note pan="0" key="48" vol="100" pos="2976" len="11"/>
          <note pan="0" key="48" vol="100" pos="2994" len="5"/>
          <note pan="0" key="48" vol="100" pos="3006" len="11"/>
          <note pan="0" key="48" vol="100" pos="3024" len="11"/>
          <note pan="0" key="48" vol="100" pos="3042" len="11"/>
          <note pan="0" key="48" vol="100" pos="3060" len="29"/>
          <note pan="0" key="48" vol="100" pos="3096" len="5"/>
          <note pan="0" key="48" vol="100" pos="3144" len="5"/>
          <note pan="0" key="48" vol="100" pos="3192" len="5"/>
          <note pan="0" key="48" vol="100" pos="3240" len="5"/>
          <note pan="0" key="48" vol="100" pos="3252" len="5"/>
          <note pan="0" key="48" vol="100" pos="3264" len="5"/>
          <note pan="0" key="48" vol="100" pos="3288" len="5"/>
          <note pan="0" key="48" vol="100" pos="3336" len="5"/>
          <note pan="0" key="48" vol="100" pos="3384" len="5"/>
          <note pan="0" key="48" vol="100" pos="3432" len="17"/>
          <note pan="0" key="48" vol="100" pos="3456" len="11"/>
          <note pan="0" key="48" vol="100" pos="3480" len="5"/>
          <note pan="0" key="48" vol="100" pos="3528" len="5"/>
          <note pan="0" key="48" vol="100" pos="3576" len="5"/>
          <note pan="0" key="48" vol="100" pos="3624" len="5"/>
          <note pan="0" key="48" vol="100" pos="3636" len="5"/>
          <note pan="0" key="48" vol="100" pos="3648" len="5"/>
          <note pan="0" key="48" vol="100" pos="3672" len="5"/>
          <note pan="0" key="48" vol="100" pos="3720" len="5"/>
          <note pan="0" key="48" vol="100" pos="3768" len="5"/>
          <note pan="0" key="48" vol="100" pos="3792" len="5"/>
          <note pan="0" key="48" vol="100" pos="3816" len="5"/>
          <note pan="0" key="48" vol="100" pos="3828" len="5"/>
          <note pan="0" key="48" vol="100" pos="3840" len="17"/>
          <note pan="0" key="48" vol="100" pos="3864" len="5"/>
          <note pan="0" key="48" vol="100" pos="3912" len="5"/>
          <note pan="0" key="48" vol="100" pos="3960" len="5"/>
          <note pan="0" key="48" vol="100" pos="4008" len="5"/>
          <note pan="0" key="48" vol="100" pos="4020" len="5"/>
          <note pan="0" key="48" vol="100" pos="4032" len="5"/>
          <note pan="0" key="48" vol="100" pos="4056" len="5"/>
          <note pan="0" key="48" vol="100" pos="4104" len="5"/>
          <note pan="0" key="48" vol="100" pos="4152" len="5"/>
          <note pan="0" key="48" vol="100" pos="4200" len="17"/>
          <note pan="0" key="48" vol="100" pos="4224" len="11"/>
          <note pan="0" key="48" vol="100" pos="4248" len="5"/>
          <note pan="0" key="48" vol="100" pos="4296" len="5"/>
          <note pan="0" key="48" vol="100" pos="4344" len="5"/>
          <note pan="0" key="48" vol="100" pos="4392" len="5"/>
          <note pan="0" key="48" vol="100" pos="4404" len="5"/>
          <note pan="0" key="48" vol="100" pos="4416" len="5"/>
          <note pan="0" key="48" vol="100" pos="4464" len="5"/>
          <note pan="0" key="48" vol="100" pos="4512" len="5"/>
          <note pan="0" key="48" vol="100" pos="4548" len="5"/>
          <note pan="0" key="48" vol="100" pos="4560" len="5"/>
          <note pan="0" key="48" vol="100" pos="4584" len="5"/>
          <note pan="0" key="48" vol="100" pos="4608" len="5"/>
          <note pan="0" key="48" vol="100" pos="4632" len="5"/>
          <note pan="0" key="48" vol="100" pos="4680" len="5"/>
          <note pan="0" key="48" vol="100" pos="4728" len="5"/>
          <note pan="0" key="48" vol="100" pos="4776" len="5"/>
          <note pan="0" key="48" vol="100" pos="4788" len="5"/>
          <note pan="0" key="48" vol="100" pos="4800" len="5"/>
          <note pan="0" key="48" vol="100" pos="4824" len="5"/>
          <note pan="0" key="48" vol="100" pos="4872" len="5"/>
          <note pan="0" key="48" vol="100" pos="4920" len="5"/>
          <note pan="0" key="48" vol="100" pos="4968" len="17"/>
          <note pan="0" key="48" vol="100" pos="4992" len="11"/>
          <note pan="0" key="48" vol="100" pos="5016" len="5"/>
          <note pan="0" key="48" vol="100" pos="5064" len="5"/>
          <note pan="0" key="48" vol="100" pos="5112" len="5"/>
          <note pan="0" key="48" vol="100" pos="5160" len="5"/>
          <note pan="0" key="48" vol="100" pos="5172" len="5"/>
          <note pan="0" key="48" vol="100" pos="5184" len="5"/>
          <note pan="0" key="48" vol="100" pos="5208" len="5"/>
          <note pan="0" key="48" vol="100" pos="5256" len="5"/>
          <note pan="0" key="48" vol="100" pos="5304" len="5"/>
          <note pan="0" key="48" vol="100" pos="5328" len="5"/>
          <note pan="0" key="48" vol="100" pos="5352" len="5"/>
          <note pan="0" key="48" vol="100" pos="5364" len="5"/>
          <note pan="0" key="48" vol="100" pos="5376" len="17"/>
          <note pan="0" key="48" vol="100" pos="5400" len="5"/>
          <note pan="0" key="48" vol="100" pos="5448" len="5"/>
          <note pan="0" key="48" vol="100" pos="5496" len="5"/>
          <note pan="0" key="48" vol="100" pos="5544" len="5"/>
          <note pan="0" key="48" vol="100" pos="5556" len="5"/>
          <note pan="0" key="48" vol="100" pos="5568" len="5"/>
          <note pan="0" key="48" vol="100" pos="5592" len="5"/>
          <note pan="0" key="48" vol="100" pos="5640" len="5"/>
          <note pan="0" key="48" vol="100" pos="5688" len="5"/>
          <note pan="0" key="48" vol="100" pos="5736" len="17"/>
          <note pan="0" key="48" vol="100" pos="5760" len="11"/>
          <note pan="0" key="48" vol="100" pos="5784" len="5"/>
          <note pan="0" key="48" vol="100" pos="5832" len="5"/>
          <note pan="0" key="48" vol="100" pos="5880" len="5"/>
          <note pan="0" key="48" vol="100" pos="5928" len="5"/>
          <note pan="0" key="48" vol="100" pos="5940" len="5"/>
          <note pan="0" key="48" vol="100" pos="5952" len="5"/>
          <note pan="0" key="48" vol="100" pos="6000" len="5"/>
          <note pan="0" key="48" vol="100" pos="6048" len="5"/>
          <note pan="0" key="48" vol="100" pos="6084" len="5"/>
          <note pan="0" key="48" vol="100" pos="6096" len="5"/>
          <note pan="0" key="48" vol="100" pos="6120" len="5"/>
          <note pan="0" key="48" vol="100" pos="6144" len="17"/>
          <note pan="0" key="48" vol="100" pos="6168" len="5"/>
          <note pan="0" key="48" vol="100" pos="6216" len="5"/>
          <note pan="0" key="48" vol="100" pos="6264" len="5"/>
          <note pan="0" key="48" vol="100" pos="6312" len="5"/>
          <note pan="0" key="48" vol="100" pos="6324" len="5"/>
          <note pan="0" key="48" vol="100" pos="6336" len="5"/>
          <note pan="0" key="48" vol="100" pos="6360" len="5"/>
          <note pan="0" key="48" vol="100" pos="6408" len="5"/>
          <note pan="0" key="48" vol="100" pos="6456" len="5"/>
          <note pan="0" key="48" vol="100" pos="6504" len="17"/>
          <note pan="0" key="48" vol="100" pos="6528" len="17"/>
          <note pan="0" key="48" vol="100" pos="6552" len="5"/>
          <note pan="0" key="48" vol="100" pos="6600" len="5"/>
          <note pan="0" key="48" vol="100" pos="6648" len="5"/>
          <note pan="0" key="48" vol="100" pos="6696" len="5"/>
          <note pan="0" key="48" vol="100" pos="6708" len="5"/>
          <note pan="0" key="48" vol="100" pos="6720" len="5"/>
          <note pan="0" key="48" vol="100" pos="6744" len="5"/>
          <note pan="0" key="48" vol="100" pos="6792" len="5"/>
          <note pan="0" key="48" vol="100" pos="6840" len="5"/>
          <note pan="0" key="48" vol="100" pos="6864" len="5"/>
          <note pan="0" key="48" vol="100" pos="6888" len="5"/>
          <note pan="0" key="48" vol="100" pos="6900" len="5"/>
          <note pan="0" key="48" vol="100" pos="6912" len="17"/>
          <note pan="0" key="48" vol="100" pos="6936" len="5"/>
          <note pan="0" key="48" vol="100" pos="6984" len="5"/>
          <note pan="0" key="48" vol="100" pos="7032" len="5"/>
          <note pan="0" key="48" vol="100" pos="7080" len="5"/>
          <note pan="0" key="48" vol="100" pos="7092" len="5"/>
          <note pan="0" key="48" vol="100" pos="7104" len="5"/>
          <note pan="0" key="48" vol="100" pos="7128" len="5"/>
          <note pan="0" key="48" vol="100" pos="7176" len="5"/>
          <note pan="0" key="48" vol="100" pos="7224" len="5"/>
          <note pan="0" key="48" vol="100" pos="7272" len="17"/>
          <note pan="0" key="48" vol="100" pos="7296" len="17"/>
          <note pan="0" key="48" vol="100" pos="7320" len="5"/>
          <note pan="0" key="48" vol="100" pos="7368" len="5"/>
          <note pan="0" key="48" vol="100" pos="7416" len="5"/>
          <note pan="0" key="48" vol="100" pos="7464" len="5"/>
          <note pan="0" key="48" vol="100" pos="7476" len="5"/>
          <note pan="0" key="48" vol="100" pos="7488" len="5"/>
          <note pan="0" key="48" vol="100" pos="7512" len="5"/>
          <note pan="0" key="48" vol="100" pos="7560" len="5"/>
          <note pan="0" key="48" vol="100" pos="7608" len="5"/>
          <note pan="0" key="48" vol="100" pos="7632" len="5"/>
          <note pan="0" key="48" vol="100" pos="7656" len="5"/>
          <note pan="0" key="48" vol="100" pos="7668" len="5"/>
          <note pan="0" key="48" vol="100" pos="7680" len="17"/>
          <note pan="0" key="48" vol="100" pos="7704" len="5"/>
          <note pan="0" key="48" vol="100" pos="7752" len="5"/>
          <note pan="0" key="48" vol="100" pos="7800" len="5"/>
          <note pan="0" key="48" vol="100" pos="7848" len="5"/>
          <note pan="0" key="48" vol="100" pos="7860" len="5"/>
          <note pan="0" key="48" vol="100" pos="7872" len="5"/>
          <note pan="0" key="48" vol="100" pos="7896" len="5"/>
          <note pan="0" key="48" vol="100" pos="7944" len="5"/>
          <note pan="0" key="48" vol="100" pos="7992" len="5"/>
          <note pan="0" key="48" vol="100" pos="8040" len="17"/>
          <note pan="0" key="48" vol="100" pos="8064" len="17"/>
          <note pan="0" key="48" vol="100" pos="8088" len="5"/>
          <note pan="0" key="48" vol="100" pos="8136" len="5"/>
          <note pan="0" key="48" vol="100" pos="8184" len="5"/>
          <note pan="0" key="48" vol="100" pos="8232" len="5"/>
          <note pan="0" key="48" vol="100" pos="8244" len="5"/>
          <note pan="0" key="48" vol="100" pos="8256" len="5"/>
          <note pan="0" key="48" vol="100" pos="8280" len="5"/>
          <note pan="0" key="48" vol="100" pos="8328" len="5"/>
          <note pan="0" key="48" vol="100" pos="8376" len="5"/>
          <note pan="0" key="48" vol="100" pos="8400" len="5"/>
          <note pan="0" key="48" vol="100" pos="8424" len="5"/>
          <note pan="0" key="48" vol="100" pos="8436" len="5"/>
          <note pan="0" key="48" vol="100" pos="8448" len="17"/>
          <note pan="0" key="48" vol="100" pos="8472" len="5"/>
          <note pan="0" key="48" vol="100" pos="8496" len="11"/>
          <note pan="0" key="48" vol="100" pos="8520" len="5"/>
          <note pan="0" key="48" vol="100" pos="8544" len="11"/>
          <note pan="0" key="48" vol="100" pos="8568" len="5"/>
          <note pan="0" key="48" vol="100" pos="8592" len="5"/>
          <note pan="0" key="48" vol="100" pos="8604" len="5"/>
          <note pan="0" key="48" vol="100" pos="8616" len="5"/>
          <note pan="0" key="48" vol="100" pos="8628" len="5"/>
          <note pan="0" key="48" vol="100" pos="8640" len="17"/>
          <note pan="0" key="48" vol="100" pos="8664" len="5"/>
          <note pan="0" key="48" vol="100" pos="8688" len="11"/>
          <note pan="0" key="48" vol="100" pos="8712" len="5"/>
          <note pan="0" key="48" vol="100" pos="8736" len="11"/>
          <note pan="0" key="48" vol="100" pos="8760" len="5"/>
          <note pan="0" key="48" vol="100" pos="8772" len="5"/>
          <note pan="0" key="48" vol="100" pos="8784" len="5"/>
          <note pan="0" key="48" vol="100" pos="8796" len="5"/>
          <note pan="0" key="48" vol="100" pos="8808" len="5"/>
          <note pan="0" key="48" vol="100" pos="8820" len="5"/>
          <note pan="0" key="48" vol="100" pos="8832" len="17"/>
          <note pan="0" key="48" vol="100" pos="8880" len="17"/>
          <note pan="0" key="48" vol="100" pos="8928" len="17"/>
          <note pan="0" key="48" vol="100" pos="8976" len="17"/>
          <note pan="0" key="48" vol="100" pos="9000" len="5"/>
          <note pan="0" key="48" vol="100" pos="9012" len="5"/>
          <note pan="0" key="48" vol="100" pos="9024" len="17"/>
          <note pan="0" key="48" vol="100" pos="9048" len="5"/>
          <note pan="0" key="48" vol="100" pos="9060" len="5"/>
          <note pan="0" key="48" vol="100" pos="9072" len="5"/>
          <note pan="0" key="48" vol="100" pos="9084" len="5"/>
          <note pan="0" key="48" vol="100" pos="9096" len="5"/>
          <note pan="0" key="48" vol="100" pos="9108" len="5"/>
          <note pan="0" key="48" vol="100" pos="9120" len="5"/>
          <note pan="0" key="48" vol="100" pos="9132" len="5"/>
          <note pan="0" key="48" vol="100" pos="9144" len="5"/>
          <note pan="0" key="48" vol="100" pos="9156" len="5"/>
          <note pan="0" key="48" vol="100" pos="9168" len="5"/>
          <note pan="0" key="48" vol="100" pos="9180" len="5"/>
          <note pan="0" key="48" vol="100" pos="9192" len="5"/>
          <note pan="0" key="48" vol="100" pos="9204" len="5"/>
          <note pan="0" key="48" vol="100" pos="9216" len="47"/>
          <note pan="0" key="48" vol="100" pos="9288" len="5"/>
          <note pan="0" key="48" vol="100" pos="9300" len="5"/>
          <note pan="0" key="48" vol="100" pos="9312" len="23"/>
          <note pan="0" key="48" vol="100" pos="9456" len="23"/>
          <note pan="0" key="48" vol="100" pos="9504" len="5"/>
          <note pan="0" key="48" vol="100" pos="9528" len="29"/>
          <note pan="0" key="48" vol="100" pos="9576" len="5"/>
          <note pan="0" key="48" vol="100" pos="9600" len="47"/>
          <note pan="0" key="48" vol="100" pos="9672" len="5"/>
          <note pan="0" key="48" vol="100" pos="9684" len="5"/>
          <note pan="0" key="48" vol="100" pos="9696" len="23"/>
          <note pan="0" key="48" vol="100" pos="9840" len="23"/>
          <note pan="0" key="48" vol="100" pos="9888" len="5"/>
          <note pan="0" key="48" vol="100" pos="9912" len="29"/>
          <note pan="0" key="48" vol="100" pos="9960" len="5"/>
          <note pan="0" key="48" vol="100" pos="9984" len="47"/>
          <note pan="0" key="48" vol="100" pos="10056" len="5"/>
          <note pan="0" key="48" vol="100" pos="10068" len="5"/>
          <note pan="0" key="48" vol="100" pos="10080" len="23"/>
          <note pan="0" key="48" vol="100" pos="10224" len="23"/>
          <note pan="0" key="48" vol="100" pos="10272" len="5"/>
          <note pan="0" key="48" vol="100" pos="10296" len="29"/>
          <note pan="0" key="48" vol="100" pos="10344" len="5"/>
          <note pan="0" key="48" vol="100" pos="10368" len="47"/>
          <note pan="0" key="48" vol="100" pos="10440" len="5"/>
          <note pan="0" key="48" vol="100" pos="10452" len="5"/>
          <note pan="0" key="48" vol="100" pos="10464" len="23"/>
          <note pan="0" key="48" vol="100" pos="10608" len="23"/>
          <note pan="0" key="48" vol="100" pos="10656" len="5"/>
          <note pan="0" key="48" vol="100" pos="10680" len="29"/>
          <note pan="0" key="48" vol="100" pos="10728" len="5"/>
          <note pan="0" key="48" vol="100" pos="10752" len="47"/>
          <note pan="0" key="48" vol="100" pos="10824" len="5"/>
          <note pan="0" key="48" vol="100" pos="10836" len="5"/>
          <note pan="0" key="48" vol="100" pos="10848" len="23"/>
          <note pan="0" key="48" vol="100" pos="10992" len="23"/>
          <note pan="0" key="48" vol="100" pos="11040" len="5"/>
          <note pan="0" key="48" vol="100" pos="11064" len="29"/>
          <note pan="0" key="48" vol="100" pos="11112" len="5"/>
          <note pan="0" key="48" vol="100" pos="11136" len="47"/>
          <note pan="0" key="48" vol="100" pos="11208" len="5"/>
          <note pan="0" key="48" vol="100" pos="11220" len="5"/>
          <note pan="0" key="48" vol="100" pos="11232" len="23"/>
          <note pan="0" key="48" vol="100" pos="11376" len="23"/>
          <note pan="0" key="48" vol="100" pos="11424" len="5"/>
          <note pan="0" key="48" vol="100" pos="11448" len="29"/>
          <note pan="0" key="48" vol="100" pos="11496" len="5"/>
          <note pan="0" key="48" vol="100" pos="11520" len="47"/>
          <note pan="0" key="48" vol="100" pos="11592" len="5"/>
          <note pan="0" key="48" vol="100" pos="11604" len="5"/>
          <note pan="0" key="48" vol="100" pos="11616" len="23"/>
          <note pan="0" key="48" vol="100" pos="11760" len="23"/>
          <note pan="0" key="48" vol="100" pos="11808" len="5"/>
          <note pan="0" key="48" vol="100" pos="11832" len="29"/>
          <note pan="0" key="48" vol="100" pos="11880" len="5"/>
          <note pan="0" key="48" vol="100" pos="11904" len="47"/>
          <note pan="0" key="48" vol="100" pos="11976" len="5"/>
          <note pan="0" key="48" vol="100" pos="11988" len="5"/>
          <note pan="0" key="48" vol="100" pos="12000" len="23"/>
          <note pan="0" key="48" vol="100" pos="12144" len="23"/>
          <note pan="0" key="48" vol="100" pos="12192" len="41"/>
          <note pan="0" key="48" vol="100" pos="12240" len="17"/>
          <note pan="0" key="48" vol="100" pos="12264" len="5"/>
          <note pan="0" key="48" vol="100" pos="12276" len="5"/>
          <note pan="0" key="48" vol="100" pos="12288" len="5"/>
          <note pan="0" key="48" vol="100" pos="12312" len="5"/>
          <note pan="0" key="48" vol="100" pos="12360" len="5"/>
          <note pan="0" key="48" vol="100" pos="12408" len="5"/>
          <note pan="0" key="48" vol="100" pos="12456" len="5"/>
          <note pan="0" key="48" vol="100" pos="12468" len="5"/>
          <note pan="0" key="48" vol="100" pos="12480" len="5"/>
          <note pan="0" key="48" vol="100" pos="12504" len="5"/>
          <note pan="0" key="48" vol="100" pos="12552" len="5"/>
          <note pan="0" key="48" vol="100" pos="12600" len="5"/>
          <note pan="0" key="48" vol="100" pos="12648" len="17"/>
          <note pan="0" key="48" vol="100" pos="12672" len="11"/>
          <note pan="0" key="48" vol="100" pos="12696" len="5"/>
          <note pan="0" key="48" vol="100" pos="12744" len="5"/>
          <note pan="0" key="48" vol="100" pos="12792" len="5"/>
          <note pan="0" key="48" vol="100" pos="12840" len="5"/>
          <note pan="0" key="48" vol="100" pos="12852" len="5"/>
          <note pan="0" key="48" vol="100" pos="12864" len="5"/>
          <note pan="0" key="48" vol="100" pos="12888" len="5"/>
          <note pan="0" key="48" vol="100" pos="12936" len="5"/>
          <note pan="0" key="48" vol="100" pos="12960" len="5"/>
          <note pan="0" key="48" vol="100" pos="12984" len="5"/>
          <note pan="0" key="48" vol="100" pos="12996" len="5"/>
          <note pan="0" key="48" vol="100" pos="13008" len="5"/>
          <note pan="0" key="48" vol="100" pos="13032" len="5"/>
          <note pan="0" key="48" vol="100" pos="13044" len="5"/>
          <note pan="0" key="48" vol="100" pos="13056" len="5"/>
          <note pan="0" key="48" vol="100" pos="13080" len="5"/>
          <note pan="0" key="48" vol="100" pos="13128" len="5"/>
          <note pan="0" key="48" vol="100" pos="13176" len="5"/>
          <note pan="0" key="48" vol="100" pos="13224" len="5"/>
          <note pan="0" key="48" vol="100" pos="13236" len="5"/>
          <note pan="0" key="48" vol="100" pos="13248" len="5"/>
          <note pan="0" key="48" vol="100" pos="13272" len="5"/>
          <note pan="0" key="48" vol="100" pos="13320" len="5"/>
          <note pan="0" key="48" vol="100" pos="13368" len="5"/>
          <note pan="0" key="48" vol="100" pos="13416" len="17"/>
          <note pan="0" key="48" vol="100" pos="13440" len="11"/>
          <note pan="0" key="48" vol="100" pos="13464" len="5"/>
          <note pan="0" key="48" vol="100" pos="13512" len="5"/>
          <note pan="0" key="48" vol="100" pos="13560" len="5"/>
          <note pan="0" key="48" vol="100" pos="13608" len="5"/>
          <note pan="0" key="48" vol="100" pos="13620" len="5"/>
          <note pan="0" key="48" vol="100" pos="13632" len="5"/>
          <note pan="0" key="48" vol="100" pos="13656" len="5"/>
          <note pan="0" key="48" vol="100" pos="13704" len="17"/>
          <note pan="0" key="48" vol="100" pos="13728" len="11"/>
          <note pan="0" key="48" vol="100" pos="13746" len="5"/>
          <note pan="0" key="48" vol="100" pos="13758" len="11"/>
          <note pan="0" key="48" vol="100" pos="13776" len="11"/>
          <note pan="0" key="48" vol="100" pos="13794" len="11"/>
          <note pan="0" key="48" vol="100" pos="13812" len="29"/>
          <note pan="0" key="48" vol="100" pos="13848" len="5"/>
          <note pan="0" key="48" vol="100" pos="13896" len="5"/>
          <note pan="0" key="48" vol="100" pos="13944" len="5"/>
          <note pan="0" key="48" vol="100" pos="13992" len="5"/>
          <note pan="0" key="48" vol="100" pos="14004" len="5"/>
          <note pan="0" key="48" vol="100" pos="14016" len="5"/>
          <note pan="0" key="48" vol="100" pos="14040" len="5"/>
          <note pan="0" key="48" vol="100" pos="14088" len="5"/>
          <note pan="0" key="48" vol="100" pos="14136" len="5"/>
          <note pan="0" key="48" vol="100" pos="14184" len="17"/>
          <note pan="0" key="48" vol="100" pos="14208" len="11"/>
          <note pan="0" key="48" vol="100" pos="14232" len="5"/>
          <note pan="0" key="48" vol="100" pos="14280" len="5"/>
          <note pan="0" key="48" vol="100" pos="14328" len="5"/>
          <note pan="0" key="48" vol="100" pos="14376" len="5"/>
          <note pan="0" key="48" vol="100" pos="14388" len="5"/>
          <note pan="0" key="48" vol="100" pos="14400" len="5"/>
          <note pan="0" key="48" vol="100" pos="14424" len="5"/>
          <note pan="0" key="48" vol="100" pos="14472" len="5"/>
          <note pan="0" key="48" vol="100" pos="14520" len="5"/>
          <note pan="0" key="48" vol="100" pos="14544" len="5"/>
          <note pan="0" key="48" vol="100" pos="14568" len="5"/>
          <note pan="0" key="48" vol="100" pos="14580" len="5"/>
          <note pan="0" key="48" vol="100" pos="14592" len="17"/>
          <note pan="0" key="48" vol="100" pos="14616" len="5"/>
          <note pan="0" key="48" vol="100" pos="14664" len="5"/>
          <note pan="0" key="48" vol="100" pos="14712" len="5"/>
          <note pan="0" key="48" vol="100" pos="14760" len="5"/>
          <note pan="0" key="48" vol="100" pos="14772" len="5"/>
          <note pan="0" key="48" vol="100" pos="14784" len="5"/>
          <note pan="0" key="48" vol="100" pos="14808" len="5"/>
          <note pan="0" key="48" vol="100" pos="14856" len="5"/>
          <note pan="0" key="48" vol="100" pos="14904" len="5"/>
          <note pan="0" key="48" vol="100" pos="14952" len="17"/>
          <note pan="0" key="48" vol="100" pos="14976" len="11"/>
          <note pan="0" key="48" vol="100" pos="15000" len="5"/>
          <note pan="0" key="48" vol="100" pos="15048" len="5"/>
          <note pan="0" key="48" vol="100" pos="15096" len="5"/>
          <note pan="0" key="48" vol="100" pos="15144" len="5"/>
          <note pan="0" key="48" vol="100" pos="15156" len="5"/>
          <note pan="0" key="48" vol="100" pos="15168" len="5"/>
          <note pan="0" key="48" vol="100" pos="15216" len="5"/>
          <note pan="0" key="48" vol="100" pos="15264" len="5"/>
          <note pan="0" key="48" vol="100" pos="15300" len="5"/>
          <note pan="0" key="48" vol="100" pos="15312" len="5"/>
          <note pan="0" key="48" vol="100" pos="15336" len="5"/>
          <note pan="0" key="48" vol="100" pos="15360" len="5"/>
          <note pan="0" key="48" vol="100" pos="15384" len="5"/>
          <note pan="0" key="48" vol="100" pos="15432" len="5"/>
          <note pan="0" key="48" vol="100" pos="15480" len="5"/>
          <note pan="0" key="48" vol="100" pos="15528" len="5"/>
          <note pan="0" key="48" vol="100" pos="15540" len="5"/>
          <note pan="0" key="48" vol="100" pos="15552" len="5"/>
          <note pan="0" key="48" vol="100" pos="15576" len="5"/>
          <note pan="0" key="48" vol="100" pos="15624" len="5"/>
          <note pan="0" key="48" vol="100" pos="15672" len="5"/>
          <note pan="0" key="48" vol="100" pos="15720" len="17"/>
          <note pan="0" key="48" vol="100" pos="15744" len="11"/>
          <note pan="0" key="48" vol="100" pos="15768" len="5"/>
          <note pan="0" key="48" vol="100" pos="15816" len="5"/>
          <note pan="0" key="48" vol="100" pos="15864" len="5"/>
          <note pan="0" key="48" vol="100" pos="15912" len="5"/>
          <note pan="0" key="48" vol="100" pos="15924" len="5"/>
          <note pan="0" key="48" vol="100" pos="15936" len="5"/>
          <note pan="0" key="48" vol="100" pos="15960" len="5"/>
          <note pan="0" key="48" vol="100" pos="16008" len="5"/>
          <note pan="0" key="48" vol="100" pos="16056" len="5"/>
          <note pan="0" key="48" vol="100" pos="16080" len="5"/>
          <note pan="0" key="48" vol="100" pos="16104" len="5"/>
          <note pan="0" key="48" vol="100" pos="16116" len="5"/>
          <note pan="0" key="48" vol="100" pos="16128" len="17"/>
          <note pan="0" key="48" vol="100" pos="16152" len="5"/>
          <note pan="0" key="48" vol="100" pos="16200" len="5"/>
          <note pan="0" key="48" vol="100" pos="16248" len="5"/>
          <note pan="0" key="48" vol="100" pos="16296" len="5"/>
          <note pan="0" key="48" vol="100" pos="16308" len="5"/>
          <note pan="0" key="48" vol="100" pos="16320" len="5"/>
          <note pan="0" key="48" vol="100" pos="16344" len="5"/>
          <note pan="0" key="48" vol="100" pos="16392" len="5"/>
          <note pan="0" key="48" vol="100" pos="16440" len="5"/>
          <note pan="0" key="48" vol="100" pos="16488" len="17"/>
          <note pan="0" key="48" vol="100" pos="16512" len="11"/>
          <note pan="0" key="48" vol="100" pos="16536" len="5"/>
          <note pan="0" key="48" vol="100" pos="16584" len="5"/>
          <note pan="0" key="48" vol="100" pos="16632" len="5"/>
          <note pan="0" key="48" vol="100" pos="16680" len="5"/>
          <note pan="0" key="48" vol="100" pos="16692" len="5"/>
          <note pan="0" key="48" vol="100" pos="16704" len="5"/>
          <note pan="0" key="48" vol="100" pos="16752" len="5"/>
          <note pan="0" key="48" vol="100" pos="16800" len="5"/>
          <note pan="0" key="48" vol="100" pos="16836" len="5"/>
          <note pan="0" key="48" vol="100" pos="16848" len="5"/>
          <note pan="0" key="48" vol="100" pos="16872" len="5"/>
          <note pan="0" key="48" vol="100" pos="16896" len="17"/>
          <note pan="0" key="48" vol="100" pos="16920" len="5"/>
          <note pan="0" key="48" vol="100" pos="16968" len="5"/>
          <note pan="0" key="48" vol="100" pos="17016" len="5"/>
          <note pan="0" key="48" vol="100" pos="17064" len="5"/>
          <note pan="0" key="48" vol="100" pos="17076" len="5"/>
          <note pan="0" key="48" vol="100" pos="17088" len="5"/>
          <note pan="0" key="48" vol="100" pos="17112" len="5"/>
          <note pan="0" key="48" vol="100" pos="17160" len="5"/>
          <note pan="0" key="48" vol="100" pos="17208" len="5"/>
          <note pan="0" key="48" vol="100" pos="17256" len="17"/>
          <note pan="0" key="48" vol="100" pos="17280" len="17"/>
          <note pan="0" key="48" vol="100" pos="17304" len="5"/>
          <note pan="0" key="48" vol="100" pos="17352" len="5"/>
          <note pan="0" key="48" vol="100" pos="17400" len="5"/>
          <note pan="0" key="48" vol="100" pos="17448" len="5"/>
          <note pan="0" key="48" vol="100" pos="17460" len="5"/>
          <note pan="0" key="48" vol="100" pos="17472" len="5"/>
          <note pan="0" key="48" vol="100" pos="17496" len="5"/>
          <note pan="0" key="48" vol="100" pos="17544" len="5"/>
          <note pan="0" key="48" vol="100" pos="17592" len="5"/>
          <note pan="0" key="48" vol="100" pos="17616" len="5"/>
          <note pan="0" key="48" vol="100" pos="17640" len="5"/>
          <note pan="0" key="48" vol="100" pos="17652" len="5"/>
          <note pan="0" key="48" vol="100" pos="17664" len="17"/>
          <note pan="0" key="48" vol="100" pos="17688" len="5"/>
          <note pan="0" key="48" vol="100" pos="17736" len="5"/>
          <note pan="0" key="48" vol="100" pos="17784" len="5"/>
          <note pan="0" key="48" vol="100" pos="17832" len="5"/>
          <note pan="0" key="48" vol="100" pos="17844" len="5"/>
          <note pan="0" key="48" vol="100" pos="17856" len="5"/>
          <note pan="0" key="48" vol="100" pos="17880" len="5"/>
          <note pan="0" key="48" vol="100" pos="17928" len="5"/>
          <note pan="0" key="48" vol="100" pos="17976" len="5"/>
          <note pan="0" key="48" vol="100" pos="18024" len="17"/>
          <note pan="0" key="48" vol="100" pos="18048" len="17"/>
          <note pan="0" key="48" vol="100" pos="18072" len="5"/>
          <note pan="0" key="48" vol="100" pos="18120" len="5"/>
          <note pan="0" key="48" vol="100" pos="18168" len="5"/>
          <note pan="0" key="48" vol="100" pos="18216" len="5"/>
          <note pan="0" key="48" vol="100" pos="18228" len="5"/>
          <note pan="0" key="48" vol="100" pos="18240" len="5"/>
          <note pan="0" key="48" vol="100" pos="18264" len="5"/>
          <note pan="0" key="48" vol="100" pos="18312" len="5"/>
          <note pan="0" key="48" vol="100" pos="18360" len="5"/>
          <note pan="0" key="48" vol="100" pos="18384" len="5"/>
          <note pan="0" key="48" vol="100" pos="18408" len="5"/>
          <note pan="0" key="48" vol="100" pos="18420" len="5"/>
          <note pan="0" key="48" vol="100" pos="18432" len="17"/>
          <note pan="0" key="48" vol="100" pos="18456" len="5"/>
          <note pan="0" key="48" vol="100" pos="18504" len="5"/>
          <note pan="0" key="48" vol="100" pos="18552" len="5"/>
          <note pan="0" key="48" vol="100" pos="18600" len="5"/>
          <note pan="0" key="48" vol="100" pos="18612" len="5"/>
          <note pan="0" key="48" vol="100" pos="18624" len="5"/>
          <note pan="0" key="48" vol="100" pos="18648" len="5"/>
          <note pan="0" key="48" vol="100" pos="18696" len="5"/>
          <note pan="0" key="48" vol="100" pos="18744" len="5"/>
          <note pan="0" key="48" vol="100" pos="18792" len="17"/>
          <note pan="0" key="48" vol="100" pos="18816" len="17"/>
          <note pan="0" key="48" vol="100" pos="18840" len="5"/>
          <note pan="0" key="48" vol="100" pos="18888" len="5"/>
          <note pan="0" key="48" vol="100" pos="18936" len="5"/>
          <note pan="0" key="48" vol="100" pos="18984" len="5"/>
          <note pan="0" key="48" vol="100" pos="18996" len="5"/>
          <note pan="0" key="48" vol="100" pos="19008" len="5"/>
          <note pan="0" key="48" vol="100" pos="19032" len="5"/>
          <note pan="0" key="48" vol="100" pos="19080" len="5"/>
          <note pan="0" key="48" vol="100" pos="19128" len="5"/>
          <note pan="0" key="48" vol="100" pos="19152" len="5"/>
          <note pan="0" key="48" vol="100" pos="19176" len="5"/>
          <note pan="0" key="48" vol="100" pos="19188" len="5"/>
          <note pan="0" key="48" vol="100" pos="19200" len="17"/>
          <note pan="0" key="48" vol="100" pos="19224" len="5"/>
          <note pan="0" key="48" vol="100" pos="19248" len="11"/>
          <note pan="0" key="48" vol="100" pos="19272" len="5"/>
          <note pan="0" key="48" vol="100" pos="19296" len="11"/>
          <note pan="0" key="48" vol="100" pos="19320" len="5"/>
          <note pan="0" key="48" vol="100" pos="19344" len="5"/>
          <note pan="0" key="48" vol="100" pos="19356" len="5"/>
          <note pan="0" key="48" vol="100" pos="19368" len="5"/>
          <note pan="0" key="48" vol="100" pos="19380" len="5"/>
          <note pan="0" key="48" vol="100" pos="19392" len="17"/>
          <note pan="0" key="48" vol="100" pos="19416" len="5"/>
          <note pan="0" key="48" vol="100" pos="19440" len="11"/>
          <note pan="0" key="48" vol="100" pos="19464" len="5"/>
          <note pan="0" key="48" vol="100" pos="19488" len="11"/>
          <note pan="0" key="48" vol="100" pos="19512" len="5"/>
          <note pan="0" key="48" vol="100" pos="19524" len="5"/>
          <note pan="0" key="48" vol="100" pos="19536" len="5"/>
          <note pan="0" key="48" vol="100" pos="19548" len="5"/>
          <note pan="0" key="48" vol="100" pos="19560" len="5"/>
          <note pan="0" key="48" vol="100" pos="19572" len="5"/>
          <note pan="0" key="48" vol="100" pos="19584" len="17"/>
          <note pan="0" key="48" vol="100" pos="19632" len="17"/>
          <note pan="0" key="48" vol="100" pos="19680" len="17"/>
          <note pan="0" key="48" vol="100" pos="19728" len="17"/>
          <note pan="0" key="48" vol="100" pos="19752" len="5"/>
          <note pan="0" key="48" vol="100" pos="19764" len="5"/>
          <note pan="0" key="48" vol="100" pos="19776" len="17"/>
          <note pan="0" key="48" vol="100" pos="19800" len="5"/>
          <note pan="0" key="48" vol="100" pos="19812" len="5"/>
          <note pan="0" key="48" vol="100" pos="19824" len="5"/>
          <note pan="0" key="48" vol="100" pos="19836" len="5"/>
          <note pan="0" key="48" vol="100" pos="19848" len="5"/>
          <note pan="0" key="48" vol="100" pos="19860" len="5"/>
          <note pan="0" key="48" vol="100" pos="19872" len="5"/>
          <note pan="0" key="48" vol="100" pos="19884" len="5"/>
          <note pan="0" key="48" vol="100" pos="19896" len="5"/>
          <note pan="0" key="48" vol="100" pos="19908" len="5"/>
          <note pan="0" key="48" vol="100" pos="19920" len="5"/>
          <note pan="0" key="48" vol="100" pos="19932" len="5"/>
          <note pan="0" key="48" vol="100" pos="19944" len="5"/>
          <note pan="0" key="48" vol="100" pos="19956" len="5"/>
          <note pan="0" key="48" vol="100" pos="19968" len="47"/>
          <note pan="0" key="48" vol="100" pos="20040" len="5"/>
          <note pan="0" key="48" vol="100" pos="20052" len="5"/>
          <note pan="0" key="48" vol="100" pos="20064" len="23"/>
          <note pan="0" key="48" vol="100" pos="20208" len="23"/>
          <note pan="0" key="48" vol="100" pos="20256" len="5"/>
          <note pan="0" key="48" vol="100" pos="20280" len="29"/>
          <note pan="0" key="48" vol="100" pos="20328" len="5"/>
          <note pan="0" key="48" vol="100" pos="20352" len="47"/>
          <note pan="0" key="48" vol="100" pos="20424" len="5"/>
          <note pan="0" key="48" vol="100" pos="20436" len="5"/>
          <note pan="0" key="48" vol="100" pos="20448" len="23"/>
          <note pan="0" key="48" vol="100" pos="20592" len="23"/>
          <note pan="0" key="48" vol="100" pos="20640" len="5"/>
          <note pan="0" key="48" vol="100" pos="20664" len="29"/>
          <note pan="0" key="48" vol="100" pos="20712" len="5"/>
          <note pan="0" key="48" vol="100" pos="20736" len="47"/>
          <note pan="0" key="48" vol="100" pos="20808" len="5"/>
          <note pan="0" key="48" vol="100" pos="20820" len="5"/>
          <note pan="0" key="48" vol="100" pos="20832" len="23"/>
          <note pan="0" key="48" vol="100" pos="20976" len="23"/>
          <note pan="0" key="48" vol="100" pos="21024" len="5"/>
          <note pan="0" key="48" vol="100" pos="21048" len="29"/>
          <note pan="0" key="48" vol="100" pos="21096" len="5"/>
          <note pan="0" key="48" vol="100" pos="21120" len="47"/>
          <note pan="0" key="48" vol="100" pos="21192" len="5"/>
          <note pan="0" key="48" vol="100" pos="21204" len="5"/>
          <note pan="0" key="48" vol="100" pos="21216" len="23"/>
          <note pan="0" key="48" vol="100" pos="21360" len="23"/>
          <note pan="0" key="48" vol="100" pos="21408" len="5"/>
          <note pan="0" key="48" vol="100" pos="21432" len="29"/>
          <note pan="0" key="48" vol="100" pos="21480" len="5"/>
          <note pan="0" key="48" vol="100" pos="21504" len="47"/>
          <note pan="0" key="48" vol="100" pos="21576" len="5"/>
          <note pan="0" key="48" vol="100" pos="21588" len="5"/>
          <note pan="0" key="48" vol="100" pos="21600" len="23"/>
          <note pan="0" key="48" vol="100" pos="21744" len="23"/>
          <note pan="0" key="48" vol="100" pos="21792" len="5"/>
          <note pan="0" key="48" vol="100" pos="21816" len="29"/>
          <note pan="0" key="48" vol="100" pos="21864" len="5"/>
          <note pan="0" key="48" vol="100" pos="21888" len="47"/>
          <note pan="0" key="48" vol="100" pos="21960" len="5"/>
          <note pan="0" key="48" vol="100" pos="21972" len="5"/>
          <note pan="0" key="48" vol="100" pos="21984" len="23"/>
          <note pan="0" key="48" vol="100" pos="22128" len="23"/>
          <note pan="0" key="48" vol="100" pos="22176" len="5"/>
          <note pan="0" key="48" vol="100" pos="22200" len="29"/>
          <note pan="0" key="48" vol="100" pos="22248" len="5"/>
          <note pan="0" key="48" vol="100" pos="22272" len="47"/>
          <note pan="0" key="48" vol="100" pos="22344" len="5"/>
          <note pan="0" key="48" vol="100" pos="22356" len="5"/>
          <note pan="0" key="48" vol="100" pos="22368" len="23"/>
          <note pan="0" key="48" vol="100" pos="22512" len="23"/>
          <note pan="0" key="48" vol="100" pos="22560" len="5"/>
          <note pan="0" key="48" vol="100" pos="22584" len="29"/>
          <note pan="0" key="48" vol="100" pos="22632" len="5"/>
          <note pan="0" key="48" vol="100" pos="22656" len="47"/>
          <note pan="0" key="48" vol="100" pos="22728" len="5"/>
          <note pan="0" key="48" vol="100" pos="22740" len="5"/>
          <note pan="0" key="48" vol="100" pos="22752" len="23"/>
          <note pan="0" key="48" vol="100" pos="22896" len="23"/>
          <note pan="0" key="48" vol="100" pos="22944" len="83"/>
        </pattern>
      </track>
      <track muted="1" type="0" name="">
        <instrumenttrack pan="0" fxch="0" pitch="0" basenote="57" vol="100">
          <instrument name="sf2player">
            <sf2player patch="80" chorusLevel="2" chorusDepth="8" reverbOn="0" reverbRoomSize="0.2" chorusOn="0" chorusSpeed="0.3" reverbDamping="0" chorusNum="3" reverbLevel="0.9" bank="0" reverbWidth="0.5" src="" gain="1"/>
          </instrument>
          <eldata fres="0.5" ftype="0" fcut="14000" fwet="0">
            <elvol lspd_denominator="4" pdel="0" userwavefile="" dec="0.5" lamt="0" syncmode="0" latt="0" rel="0.1" sus="0.5" amt="0" x100="0" att="0" lpdel="0" hold="0.5" lshp="0" lspd="0.1" ctlenvamt="0" lspd_numerator="4"/>
            <elcut lspd_denominator="4" pdel="0" userwavefile="" dec="0.5" lamt="0" syncmode="0" latt="0" rel="0.1" sus="0.5" amt="0" x100="0" att="0" lpdel="0" hold="0.5" lshp="0" lspd="0.1" ctlenvamt="0" lspd_numerator="4"/>
            <elres lspd_denominator="4" pdel="0" userwavefile="" dec="0.5" lamt="0" syncmode="0" latt="0" rel="0.1" sus="0.5" amt="0" x100="0" att="0" lpdel="0" hold="0.5" lshp="0" lspd="0.1" ctlenvamt="0" lspd_numerator="4"/>
          </eldata>
          <chordcreator chord="0" chordrange="1" chord-enabled="0"/>
          <arpeggiator arptime="100" arprange="1" arptime_denominator="4" syncmode="0" arpmode="0" arp-enabled="0" arp="0" arptime_numerator="4" arpdir="0" arpgate="100"/>
          <midiport inputcontroller="0" fixedoutputvelocity="-1" inputchannel="0" outputcontroller="0" writable="0" outputchannel="1" fixedinputvelocity="-1" fixedoutputnote="-1" outputprogram="1" readable="0"/>
          <fxchain numofeffects="0" enabled="0"/>
        </instrumenttrack>
        <pattern steps="16" muted="0" type="1" name="" pos="0" len="192" frozen="0">
          <note pan="0" key="58" vol="100" pos="0" len="5"/>
          <note pan="0" key="46" vol="100" pos="6" len="5"/>
        </pattern>
        <pattern steps="16" muted="0" type="1" name="" pos="192" len="384" frozen="0">
          <note pan="0" key="58" vol="100" pos="168" len="5"/>
          <note pan="0" key="46" vol="100" pos="174" len="5"/>
          <note pan="0" key="58" vol="100" pos="192" len="5"/>
          <note pan="0" key="46" vol="100" pos="198" len="5"/>
        </pattern>
        <pattern steps="16" muted="0" type="1" name="" pos="768" len="192" frozen="0">
          <note pan="0" key="58" vol="100" pos="0" len="5"/>
          <note pan="0" key="46" vol="100" pos="6" len="5"/>
        </pattern>
        <pattern steps="16" muted="0" type="1" name="" pos="960" len="22848" frozen="0">
          <note pan="0" key="58" vol="100" pos="144" len="5"/>
          <note pan="0" key="46" vol="100" pos="150" len="5"/>
          <note pan="0" key="58" vol="100" pos="168" len="5"/>
          <note pan="0" key="46" vol="100" pos="174" len="5"/>
          <note pan="0" key="58" vol="100" pos="192" len="5"/>
          <note pan="0" key="46" vol="100" pos="198" len="5"/>
          <note pan="0" key="58" vol="100" pos="384" len="5"/>
          <note pan="0" key="46" vol="100" pos="390" len="5"/>
          <note pan="0" key="58" vol="100" pos="432" len="5"/>
          <note pan="0" key="46" vol="100" pos="438" len="5"/>
          <note pan="0" key="46" vol="100" pos="480" len="5"/>
          <note pan="0" key="46" vol="100" pos="492" len="5"/>
          <note pan="0" key="46" vol="100" pos="504" len="5"/>
          <note pan="0" key="46" vol="100" pos="516" len="5"/>
          <note pan="0" key="58" vol="100" pos="528" len="23"/>
          <note pan="0" key="46" vol="100" pos="576" len="11"/>
          <note pan="0" key="34" vol="100" pos="588" len="5"/>
          <note pan="0" key="22" vol="100" pos="594" len="5"/>
          <note pan="0" key="46" vol="100" pos="600" len="5"/>
          <note pan="0" key="22" vol="100" pos="606" len="5"/>
          <note pan="0" key="58" vol="100" pos="612" len="11"/>
          <note pan="0" key="34" vol="100" pos="624" len="5"/>
          <note pan="0" key="22" vol="100" pos="630" len="5"/>
          <note pan="0" key="58" vol="100" pos="636" len="5"/>
          <note pan="0" key="22" vol="100" pos="642" len="5"/>
          <note pan="0" key="56" vol="100" pos="648" len="5"/>
          <note pan="0" key="20" vol="100" pos="654" len="5"/>
          <note pan="0" key="58" vol="100" pos="660" len="5"/>
          <note pan="0" key="22" vol="100" pos="666" len="5"/>
          <note pan="0" key="46" vol="100" pos="672" len="11"/>
          <note pan="0" key="34" vol="100" pos="684" len="5"/>
          <note pan="0" key="22" vol="100" pos="690" len="5"/>
          <note pan="0" key="46" vol="100" pos="696" len="5"/>
          <note pan="0" key="22" vol="100" pos="702" len="5"/>
          <note pan="0" key="58" vol="100" pos="708" len="11"/>
          <note pan="0" key="34" vol="100" pos="720" len="5"/>
          <note pan="0" key="22" vol="100" pos="726" len="5"/>
          <note pan="0" key="58" vol="100" pos="732" len="5"/>
          <note pan="0" key="22" vol="100" pos="738" len="5"/>
          <note pan="0" key="56" vol="100" pos="744" len="5"/>
          <note pan="0" key="20" vol="100" pos="750" len="5"/>
          <note pan="0" key="58" vol="100" pos="756" len="5"/>
          <note pan="0" key="22" vol="100" pos="762" len="5"/>
          <note pan="0" key="46" vol="100" pos="768" len="11"/>
          <note pan="0" key="34" vol="100" pos="780" len="5"/>
          <note pan="0" key="22" vol="100" pos="786" len="5"/>
          <note pan="0" key="46" vol="100" pos="792" len="5"/>
          <note pan="0" key="22" vol="100" pos="798" len="5"/>
          <note pan="0" key="58" vol="100" pos="804" len="11"/>
          <note pan="0" key="34" vol="100" pos="816" len="5"/>
          <note pan="0" key="22" vol="100" pos="822" len="5"/>
          <note pan="0" key="58" vol="100" pos="828" len="5"/>
          <note pan="0" key="22" vol="100" pos="834" len="5"/>
          <note pan="0" key="56" vol="100" pos="840" len="5"/>
          <note pan="0" key="20" vol="100" pos="846" len="5"/>
          <note pan="0" key="58" vol="100" pos="852" len="5"/>
          <note pan="0" key="22" vol="100" pos="858" len="5"/>
          <note pan="0" key="49" vol="100" pos="864" len="11"/>
          <note pan="0" key="30" vol="100" pos="876" len="5"/>
          <note pan="0" key="42" vol="100" pos="882" len="5"/>
          <note pan="0" key="58" vol="100" pos="888" len="5"/>
          <note pan="0" key="42" vol="100" pos="894" len="5"/>
          <note pan="0" key="61" vol="100" pos="900" len="5"/>
          <note pan="0" key="42" vol="100" pos="906" len="5"/>
          <note pan="0" key="51" vol="100" pos="912" len="11"/>
          <note pan="0" key="32" vol="100" pos="924" len="5"/>
          <note pan="0" key="44" vol="100" pos="930" len="5"/>
          <note pan="0" key="61" vol="100" pos="936" len="5"/>
          <note pan="0" key="44" vol="100" pos="942" len="5"/>
          <note pan="0" key="63" vol="100" pos="948" len="5"/>
          <note pan="0" key="44" vol="100" pos="954" len="5"/>
          <note pan="0" key="46" vol="100" pos="960" len="11"/>
          <note pan="0" key="34" vol="100" pos="972" len="5"/>
          <note pan="0" key="22" vol="100" pos="978" len="5"/>
          <note pan="0" key="46" vol="100" pos="984" len="5"/>
          <note pan="0" key="22" vol="100" pos="990" len="5"/>
          <note pan="0" key="58" vol="100" pos="996" len="11"/>
          <note pan="0" key="34" vol="100" pos="1008" len="5"/>
          <note pan="0" key="22" vol="100" pos="1014" len="5"/>
          <note pan="0" key="58" vol="100" pos="1020" len="5"/>
          <note pan="0" key="22" vol="100" pos="1026" len="5"/>
          <note pan="0" key="56" vol="100" pos="1032" len="5"/>
          <note pan="0" key="20" vol="100" pos="1038" len="5"/>
          <note pan="0" key="58" vol="100" pos="1044" len="5"/>
          <note pan="0" key="22" vol="100" pos="1050" len="5"/>
          <note pan="0" key="46" vol="100" pos="1056" len="11"/>
          <note pan="0" key="34" vol="100" pos="1068" len="5"/>
          <note pan="0" key="22" vol="100" pos="1074" len="5"/>
          <note pan="0" key="46" vol="100" pos="1080" len="5"/>
          <note pan="0" key="22" vol="100" pos="1086" len="5"/>
          <note pan="0" key="58" vol="100" pos="1092" len="11"/>
          <note pan="0" key="34" vol="100" pos="1104" len="5"/>
          <note pan="0" key="22" vol="100" pos="1110" len="5"/>
          <note pan="0" key="58" vol="100" pos="1116" len="5"/>
          <note pan="0" key="22" vol="100" pos="1122" len="5"/>
          <note pan="0" key="56" vol="100" pos="1128" len="5"/>
          <note pan="0" key="20" vol="100" pos="1134" len="5"/>
          <note pan="0" key="58" vol="100" pos="1140" len="5"/>
          <note pan="0" key="22" vol="100" pos="1146" len="5"/>
          <note pan="0" key="46" vol="100" pos="1152" len="11"/>
          <note pan="0" key="34" vol="100" pos="1164" len="5"/>
          <note pan="0" key="22" vol="100" pos="1170" len="5"/>
          <note pan="0" key="46" vol="100" pos="1176" len="5"/>
          <note pan="0" key="22" vol="100" pos="1182" len="5"/>
          <note pan="0" key="58" vol="100" pos="1188" len="11"/>
          <note pan="0" key="34" vol="100" pos="1200" len="5"/>
          <note pan="0" key="22" vol="100" pos="1206" len="5"/>
          <note pan="0" key="58" vol="100" pos="1212" len="5"/>
          <note pan="0" key="22" vol="100" pos="1218" len="5"/>
          <note pan="0" key="56" vol="100" pos="1224" len="5"/>
          <note pan="0" key="20" vol="100" pos="1230" len="5"/>
          <note pan="0" key="58" vol="100" pos="1236" len="5"/>
          <note pan="0" key="22" vol="100" pos="1242" len="5"/>
          <note pan="0" key="51" vol="100" pos="1248" len="11"/>
          <note pan="0" key="30" vol="100" pos="1260" len="5"/>
          <note pan="0" key="42" vol="100" pos="1266" len="5"/>
          <note pan="0" key="61" vol="100" pos="1272" len="5"/>
          <note pan="0" key="42" vol="100" pos="1278" len="5"/>
          <note pan="0" key="63" vol="100" pos="1284" len="5"/>
          <note pan="0" key="42" vol="100" pos="1290" len="5"/>
          <note pan="0" key="49" vol="100" pos="1296" len="11"/>
          <note pan="0" key="32" vol="100" pos="1308" len="5"/>
          <note pan="0" key="44" vol="100" pos="1314" len="5"/>
          <note pan="0" key="58" vol="100" pos="1320" len="5"/>
          <note pan="0" key="44" vol="100" pos="1326" len="5"/>
          <note pan="0" key="61" vol="100" pos="1332" len="5"/>
          <note pan="0" key="44" vol="100" pos="1338" len="5"/>
          <note pan="0" key="46" vol="100" pos="1344" len="11"/>
          <note pan="0" key="34" vol="100" pos="1356" len="5"/>
          <note pan="0" key="22" vol="100" pos="1362" len="5"/>
          <note pan="0" key="46" vol="100" pos="1368" len="5"/>
          <note pan="0" key="22" vol="100" pos="1374" len="5"/>
          <note pan="0" key="58" vol="100" pos="1380" len="11"/>
          <note pan="0" key="34" vol="100" pos="1392" len="5"/>
          <note pan="0" key="22" vol="100" pos="1398" len="5"/>
          <note pan="0" key="58" vol="100" pos="1404" len="5"/>
          <note pan="0" key="22" vol="100" pos="1410" len="5"/>
          <note pan="0" key="56" vol="100" pos="1416" len="5"/>
          <note pan="0" key="20" vol="100" pos="1422" len="5"/>
          <note pan="0" key="58" vol="100" pos="1428" len="5"/>
          <note pan="0" key="22" vol="100" pos="1434" len="5"/>
          <note pan="0" key="46" vol="100" pos="1440" len="11"/>
          <note pan="0" key="34" vol="100" pos="1452" len="5"/>
          <note pan="0" key="22" vol="100" pos="1458" len="5"/>
          <note pan="0" key="46" vol="100" pos="1464" len="5"/>
          <note pan="0" key="22" vol="100" pos="1470" len="5"/>
          <note pan="0" key="58" vol="100" pos="1476" len="11"/>
          <note pan="0" key="34" vol="100" pos="1488" len="5"/>
          <note pan="0" key="22" vol="100" pos="1494" len="5"/>
          <note pan="0" key="58" vol="100" pos="1500" len="5"/>
          <note pan="0" key="22" vol="100" pos="1506" len="5"/>
          <note pan="0" key="56" vol="100" pos="1512" len="5"/>
          <note pan="0" key="20" vol="100" pos="1518" len="5"/>
          <note pan="0" key="58" vol="100" pos="1524" len="5"/>
          <note pan="0" key="22" vol="100" pos="1530" len="5"/>
          <note pan="0" key="46" vol="100" pos="1536" len="11"/>
          <note pan="0" key="34" vol="100" pos="1548" len="5"/>
          <note pan="0" key="22" vol="100" pos="1554" len="5"/>
          <note pan="0" key="46" vol="100" pos="1560" len="5"/>
          <note pan="0" key="22" vol="100" pos="1566" len="5"/>
          <note pan="0" key="58" vol="100" pos="1572" len="11"/>
          <note pan="0" key="34" vol="100" pos="1584" len="5"/>
          <note pan="0" key="22" vol="100" pos="1590" len="5"/>
          <note pan="0" key="58" vol="100" pos="1596" len="5"/>
          <note pan="0" key="22" vol="100" pos="1602" len="5"/>
          <note pan="0" key="56" vol="100" pos="1608" len="5"/>
          <note pan="0" key="20" vol="100" pos="1614" len="5"/>
          <note pan="0" key="58" vol="100" pos="1620" len="5"/>
          <note pan="0" key="22" vol="100" pos="1626" len="5"/>
          <note pan="0" key="49" vol="100" pos="1632" len="11"/>
          <note pan="0" key="30" vol="100" pos="1644" len="5"/>
          <note pan="0" key="42" vol="100" pos="1650" len="5"/>
          <note pan="0" key="58" vol="100" pos="1656" len="5"/>
          <note pan="0" key="42" vol="100" pos="1662" len="5"/>
          <note pan="0" key="61" vol="100" pos="1668" len="5"/>
          <note pan="0" key="42" vol="100" pos="1674" len="5"/>
          <note pan="0" key="51" vol="100" pos="1680" len="11"/>
          <note pan="0" key="32" vol="100" pos="1692" len="5"/>
          <note pan="0" key="44" vol="100" pos="1698" len="5"/>
          <note pan="0" key="61" vol="100" pos="1704" len="5"/>
          <note pan="0" key="44" vol="100" pos="1710" len="5"/>
          <note pan="0" key="63" vol="100" pos="1716" len="5"/>
          <note pan="0" key="44" vol="100" pos="1722" len="5"/>
          <note pan="0" key="46" vol="100" pos="1728" len="11"/>
          <note pan="0" key="34" vol="100" pos="1740" len="5"/>
          <note pan="0" key="22" vol="100" pos="1746" len="5"/>
          <note pan="0" key="46" vol="100" pos="1752" len="5"/>
          <note pan="0" key="22" vol="100" pos="1758" len="5"/>
          <note pan="0" key="58" vol="100" pos="1764" len="11"/>
          <note pan="0" key="34" vol="100" pos="1776" len="5"/>
          <note pan="0" key="22" vol="100" pos="1782" len="5"/>
          <note pan="0" key="58" vol="100" pos="1788" len="5"/>
          <note pan="0" key="22" vol="100" pos="1794" len="5"/>
          <note pan="0" key="56" vol="100" pos="1800" len="5"/>
          <note pan="0" key="20" vol="100" pos="1806" len="5"/>
          <note pan="0" key="58" vol="100" pos="1812" len="5"/>
          <note pan="0" key="22" vol="100" pos="1818" len="5"/>
          <note pan="0" key="46" vol="100" pos="1824" len="11"/>
          <note pan="0" key="34" vol="100" pos="1836" len="5"/>
          <note pan="0" key="22" vol="100" pos="1842" len="5"/>
          <note pan="0" key="46" vol="100" pos="1848" len="5"/>
          <note pan="0" key="22" vol="100" pos="1854" len="5"/>
          <note pan="0" key="58" vol="100" pos="1860" len="11"/>
          <note pan="0" key="34" vol="100" pos="1872" len="5"/>
          <note pan="0" key="22" vol="100" pos="1878" len="5"/>
          <note pan="0" key="58" vol="100" pos="1884" len="5"/>
          <note pan="0" key="22" vol="100" pos="1890" len="5"/>
          <note pan="0" key="56" vol="100" pos="1896" len="5"/>
          <note pan="0" key="20" vol="100" pos="1902" len="5"/>
          <note pan="0" key="58" vol="100" pos="1908" len="5"/>
          <note pan="0" key="22" vol="100" pos="1914" len="5"/>
          <note pan="0" key="46" vol="100" pos="1920" len="11"/>
          <note pan="0" key="34" vol="100" pos="1932" len="5"/>
          <note pan="0" key="22" vol="100" pos="1938" len="5"/>
          <note pan="0" key="46" vol="100" pos="1944" len="5"/>
          <note pan="0" key="22" vol="100" pos="1950" len="5"/>
          <note pan="0" key="58" vol="100" pos="1956" len="11"/>
          <note pan="0" key="34" vol="100" pos="1968" len="5"/>
          <note pan="0" key="22" vol="100" pos="1974" len="5"/>
          <note pan="0" key="58" vol="100" pos="1980" len="5"/>
          <note pan="0" key="22" vol="100" pos="1986" len="5"/>
          <note pan="0" key="56" vol="100" pos="1992" len="5"/>
          <note pan="0" key="20" vol="100" pos="1998" len="5"/>
          <note pan="0" key="58" vol="100" pos="2004" len="5"/>
          <note pan="0" key="22" vol="100" pos="2010" len="5"/>
          <note pan="0" key="63" vol="100" pos="2016" len="11"/>
          <note pan="0" key="61" vol="100" pos="2034" len="11"/>
          <note pan="0" key="63" vol="100" pos="2046" len="11"/>
          <note pan="0" key="61" vol="100" pos="2064" len="11"/>
          <note pan="0" key="58" vol="100" pos="2082" len="11"/>
          <note pan="0" key="61" vol="100" pos="2100" len="11"/>
          <note pan="0" key="70" vol="100" pos="2112" len="5"/>
          <note pan="0" key="58" vol="100" pos="2118" len="17"/>
          <note pan="0" key="72" vol="100" pos="2136" len="5"/>
          <note pan="0" key="60" vol="100" pos="2142" len="17"/>
          <note pan="0" key="73" vol="100" pos="2160" len="5"/>
          <note pan="0" key="61" vol="100" pos="2166" len="17"/>
          <note pan="0" key="75" vol="100" pos="2184" len="5"/>
          <note pan="0" key="63" vol="100" pos="2190" len="17"/>
          <note pan="0" key="77" vol="100" pos="2208" len="5"/>
          <note pan="0" key="65" vol="100" pos="2214" len="23"/>
          <note pan="0" key="58" vol="100" pos="2238" len="5"/>
          <note pan="0" key="53" vol="100" pos="2244" len="5"/>
          <note pan="0" key="46" vol="100" pos="2250" len="5"/>
          <note pan="0" key="82" vol="100" pos="2256" len="5"/>
          <note pan="0" key="70" vol="100" pos="2262" len="17"/>
          <note pan="0" key="80" vol="100" pos="2280" len="5"/>
          <note pan="0" key="68" vol="100" pos="2286" len="17"/>
          <note pan="0" key="77" vol="100" pos="2304" len="5"/>
          <note pan="0" key="65" vol="100" pos="2310" len="41"/>
          <note pan="0" key="70" vol="100" pos="2352" len="5"/>
          <note pan="0" key="58" vol="100" pos="2358" len="41"/>
          <note pan="0" key="77" vol="100" pos="2400" len="5"/>
          <note pan="0" key="65" vol="100" pos="2406" len="17"/>
          <note pan="0" key="75" vol="100" pos="2424" len="5"/>
          <note pan="0" key="65" vol="100" pos="2430" len="5"/>
          <note pan="0" key="63" vol="100" pos="2436" len="11"/>
          <note pan="0" key="73" vol="100" pos="2448" len="5"/>
          <note pan="0" key="61" vol="100" pos="2454" len="17"/>
          <note pan="0" key="72" vol="100" pos="2472" len="5"/>
          <note pan="0" key="60" vol="100" pos="2478" len="17"/>
          <note pan="0" key="70" vol="100" pos="2496" len="5"/>
          <note pan="0" key="58" vol="100" pos="2502" len="17"/>
          <note pan="0" key="72" vol="100" pos="2520" len="5"/>
          <note pan="0" key="60" vol="100" pos="2526" len="17"/>
          <note pan="0" key="73" vol="100" pos="2544" len="5"/>
          <note pan="0" key="61" vol="100" pos="2550" len="17"/>
          <note pan="0" key="75" vol="100" pos="2568" len="5"/>
          <note pan="0" key="63" vol="100" pos="2574" len="17"/>
          <note pan="0" key="77" vol="100" pos="2592" len="5"/>
          <note pan="0" key="65" vol="100" pos="2598" len="23"/>
          <note pan="0" key="61" vol="100" pos="2622" len="5"/>
          <note pan="0" key="58" vol="100" pos="2628" len="5"/>
          <note pan="0" key="54" vol="100" pos="2634" len="5"/>
          <note pan="0" key="75" vol="100" pos="2640" len="5"/>
          <note pan="0" key="63" vol="100" pos="2646" len="17"/>
          <note pan="0" key="73" vol="100" pos="2664" len="5"/>
          <note pan="0" key="61" vol="100" pos="2670" len="17"/>
          <note pan="0" key="72" vol="100" pos="2688" len="5"/>
          <note pan="0" key="60" vol="100" pos="2694" len="17"/>
          <note pan="0" key="70" vol="100" pos="2712" len="5"/>
          <note pan="0" key="61" vol="100" pos="2718" len="5"/>
          <note pan="0" key="60" vol="100" pos="2724" len="5"/>
          <note pan="0" key="58" vol="100" pos="2730" len="5"/>
          <note pan="0" key="72" vol="100" pos="2736" len="5"/>
          <note pan="0" key="60" vol="100" pos="2742" len="17"/>
          <note pan="0" key="73" vol="100" pos="2760" len="5"/>
          <note pan="0" key="61" vol="100" pos="2766" len="17"/>
          <note pan="0" key="72" vol="100" pos="2784" len="5"/>
          <note pan="0" key="60" vol="100" pos="2790" len="17"/>
          <note pan="0" key="70" vol="100" pos="2808" len="5"/>
          <note pan="0" key="58" vol="100" pos="2814" len="17"/>
          <note pan="0" key="69" vol="100" pos="2832" len="5"/>
          <note pan="0" key="57" vol="100" pos="2838" len="17"/>
          <note pan="0" key="72" vol="100" pos="2856" len="5"/>
          <note pan="0" key="60" vol="100" pos="2862" len="17"/>
          <note pan="0" key="70" vol="100" pos="2880" len="5"/>
          <note pan="0" key="58" vol="100" pos="2886" len="17"/>
          <note pan="0" key="72" vol="100" pos="2904" len="5"/>
          <note pan="0" key="60" vol="100" pos="2910" len="17"/>
          <note pan="0" key="73" vol="100" pos="2928" len="5"/>
          <note pan="0" key="61" vol="100" pos="2934" len="17"/>
          <note pan="0" key="75" vol="100" pos="2952" len="5"/>
          <note pan="0" key="63" vol="100" pos="2958" len="17"/>
          <note pan="0" key="77" vol="100" pos="2976" len="5"/>
          <note pan="0" key="65" vol="100" pos="2982" len="23"/>
          <note pan="0" key="58" vol="100" pos="3006" len="5"/>
          <note pan="0" key="53" vol="100" pos="3012" len="5"/>
          <note pan="0" key="46" vol="100" pos="3018" len="5"/>
          <note pan="0" key="82" vol="100" pos="3024" len="5"/>
          <note pan="0" key="70" vol="100" pos="3030" len="17"/>
          <note pan="0" key="80" vol="100" pos="3048" len="5"/>
          <note pan="0" key="68" vol="100" pos="3054" len="17"/>
          <note pan="0" key="77" vol="100" pos="3072" len="5"/>
          <note pan="0" key="65" vol="100" pos="3078" len="41"/>
          <note pan="0" key="70" vol="100" pos="3120" len="5"/>
          <note pan="0" key="58" vol="100" pos="3126" len="41"/>
          <note pan="0" key="77" vol="100" pos="3168" len="5"/>
          <note pan="0" key="65" vol="100" pos="3174" len="17"/>
          <note pan="0" key="75" vol="100" pos="3192" len="5"/>
          <note pan="0" key="65" vol="100" pos="3198" len="5"/>
          <note pan="0" key="63" vol="100" pos="3204" len="11"/>
          <note pan="0" key="73" vol="100" pos="3216" len="5"/>
          <note pan="0" key="61" vol="100" pos="3222" len="17"/>
          <note pan="0" key="72" vol="100" pos="3240" len="5"/>
          <note pan="0" key="60" vol="100" pos="3246" len="17"/>
          <note pan="0" key="70" vol="100" pos="3264" len="5"/>
          <note pan="0" key="58" vol="100" pos="3270" len="17"/>
          <note pan="0" key="72" vol="100" pos="3288" len="5"/>
          <note pan="0" key="60" vol="100" pos="3294" len="17"/>
          <note pan="0" key="73" vol="100" pos="3312" len="5"/>
          <note pan="0" key="61" vol="100" pos="3318" len="17"/>
          <note pan="0" key="75" vol="100" pos="3336" len="5"/>
          <note pan="0" key="63" vol="100" pos="3342" len="17"/>
          <note pan="0" key="77" vol="100" pos="3360" len="5"/>
          <note pan="0" key="65" vol="100" pos="3366" len="23"/>
          <note pan="0" key="61" vol="100" pos="3390" len="5"/>
          <note pan="0" key="58" vol="100" pos="3396" len="5"/>
          <note pan="0" key="54" vol="100" pos="3402" len="5"/>
          <note pan="0" key="75" vol="100" pos="3408" len="5"/>
          <note pan="0" key="63" vol="100" pos="3414" len="17"/>
          <note pan="0" key="73" vol="100" pos="3432" len="5"/>
          <note pan="0" key="61" vol="100" pos="3438" len="17"/>
          <note pan="0" key="72" vol="100" pos="3456" len="5"/>
          <note pan="0" key="60" vol="100" pos="3462" len="41"/>
          <note pan="0" key="73" vol="100" pos="3504" len="5"/>
          <note pan="0" key="61" vol="100" pos="3510" len="41"/>
          <note pan="0" key="75" vol="100" pos="3552" len="5"/>
          <note pan="0" key="63" vol="100" pos="3558" len="41"/>
          <note pan="0" key="77" vol="100" pos="3600" len="5"/>
          <note pan="0" key="65" vol="100" pos="3606" len="41"/>
          <note pan="0" key="70" vol="100" pos="3648" len="5"/>
          <note pan="0" key="58" vol="100" pos="3654" len="17"/>
          <note pan="0" key="72" vol="100" pos="3672" len="5"/>
          <note pan="0" key="60" vol="100" pos="3678" len="17"/>
          <note pan="0" key="73" vol="100" pos="3696" len="5"/>
          <note pan="0" key="61" vol="100" pos="3702" len="17"/>
          <note pan="0" key="75" vol="100" pos="3720" len="5"/>
          <note pan="0" key="63" vol="100" pos="3726" len="17"/>
          <note pan="0" key="77" vol="100" pos="3744" len="5"/>
          <note pan="0" key="65" vol="100" pos="3750" len="23"/>
          <note pan="0" key="58" vol="100" pos="3774" len="5"/>
          <note pan="0" key="53" vol="100" pos="3780" len="5"/>
          <note pan="0" key="49" vol="100" pos="3786" len="5"/>
          <note pan="0" key="82" vol="100" pos="3792" len="5"/>
          <note pan="0" key="70" vol="100" pos="3798" len="17"/>
          <note pan="0" key="80" vol="100" pos="3816" len="5"/>
          <note pan="0" key="68" vol="100" pos="3822" len="17"/>
          <note pan="0" key="77" vol="100" pos="3840" len="5"/>
          <note pan="0" key="65" vol="100" pos="3846" len="41"/>
          <note pan="0" key="70" vol="100" pos="3888" len="5"/>
          <note pan="0" key="58" vol="100" pos="3894" len="41"/>
          <note pan="0" key="77" vol="100" pos="3936" len="5"/>
          <note pan="0" key="65" vol="100" pos="3942" len="17"/>
          <note pan="0" key="75" vol="100" pos="3960" len="5"/>
          <note pan="0" key="65" vol="100" pos="3966" len="5"/>
          <note pan="0" key="63" vol="100" pos="3972" len="11"/>
          <note pan="0" key="73" vol="100" pos="3984" len="5"/>
          <note pan="0" key="61" vol="100" pos="3990" len="17"/>
          <note pan="0" key="72" vol="100" pos="4008" len="5"/>
          <note pan="0" key="60" vol="100" pos="4014" len="17"/>
          <note pan="0" key="70" vol="100" pos="4032" len="5"/>
          <note pan="0" key="58" vol="100" pos="4038" len="17"/>
          <note pan="0" key="72" vol="100" pos="4056" len="5"/>
          <note pan="0" key="60" vol="100" pos="4062" len="17"/>
          <note pan="0" key="73" vol="100" pos="4080" len="5"/>
          <note pan="0" key="61" vol="100" pos="4086" len="17"/>
          <note pan="0" key="75" vol="100" pos="4104" len="5"/>
          <note pan="0" key="63" vol="100" pos="4110" len="17"/>
          <note pan="0" key="77" vol="100" pos="4128" len="5"/>
          <note pan="0" key="65" vol="100" pos="4134" len="23"/>
          <note pan="0" key="61" vol="100" pos="4158" len="5"/>
          <note pan="0" key="58" vol="100" pos="4164" len="5"/>
          <note pan="0" key="54" vol="100" pos="4170" len="5"/>
          <note pan="0" key="75" vol="100" pos="4176" len="5"/>
          <note pan="0" key="63" vol="100" pos="4182" len="17"/>
          <note pan="0" key="73" vol="100" pos="4200" len="5"/>
          <note pan="0" key="61" vol="100" pos="4206" len="17"/>
          <note pan="0" key="72" vol="100" pos="4224" len="5"/>
          <note pan="0" key="60" vol="100" pos="4230" len="17"/>
          <note pan="0" key="70" vol="100" pos="4248" len="5"/>
          <note pan="0" key="61" vol="100" pos="4254" len="5"/>
          <note pan="0" key="60" vol="100" pos="4260" len="5"/>
          <note pan="0" key="58" vol="100" pos="4266" len="5"/>
          <note pan="0" key="72" vol="100" pos="4272" len="5"/>
          <note pan="0" key="60" vol="100" pos="4278" len="17"/>
          <note pan="0" key="73" vol="100" pos="4296" len="5"/>
          <note pan="0" key="61" vol="100" pos="4302" len="17"/>
          <note pan="0" key="72" vol="100" pos="4320" len="5"/>
          <note pan="0" key="60" vol="100" pos="4326" len="17"/>
          <note pan="0" key="70" vol="100" pos="4344" len="5"/>
          <note pan="0" key="58" vol="100" pos="4350" len="17"/>
          <note pan="0" key="69" vol="100" pos="4368" len="5"/>
          <note pan="0" key="57" vol="100" pos="4374" len="17"/>
          <note pan="0" key="72" vol="100" pos="4392" len="5"/>
          <note pan="0" key="60" vol="100" pos="4398" len="17"/>
          <note pan="0" key="70" vol="100" pos="4416" len="5"/>
          <note pan="0" key="58" vol="100" pos="4422" len="17"/>
          <note pan="0" key="72" vol="100" pos="4440" len="5"/>
          <note pan="0" key="60" vol="100" pos="4446" len="17"/>
          <note pan="0" key="73" vol="100" pos="4464" len="5"/>
          <note pan="0" key="61" vol="100" pos="4470" len="17"/>
          <note pan="0" key="75" vol="100" pos="4488" len="5"/>
          <note pan="0" key="63" vol="100" pos="4494" len="17"/>
          <note pan="0" key="77" vol="100" pos="4512" len="5"/>
          <note pan="0" key="65" vol="100" pos="4518" len="41"/>
          <note pan="0" key="82" vol="100" pos="4560" len="5"/>
          <note pan="0" key="70" vol="100" pos="4566" len="17"/>
          <note pan="0" key="80" vol="100" pos="4584" len="5"/>
          <note pan="0" key="68" vol="100" pos="4590" len="17"/>
          <note pan="0" key="77" vol="100" pos="4608" len="5"/>
          <note pan="0" key="65" vol="100" pos="4614" len="41"/>
          <note pan="0" key="70" vol="100" pos="4656" len="5"/>
          <note pan="0" key="58" vol="100" pos="4662" len="41"/>
          <note pan="0" key="77" vol="100" pos="4704" len="5"/>
          <note pan="0" key="65" vol="100" pos="4710" len="17"/>
          <note pan="0" key="75" vol="100" pos="4728" len="5"/>
          <note pan="0" key="65" vol="100" pos="4734" len="5"/>
          <note pan="0" key="63" vol="100" pos="4740" len="11"/>
          <note pan="0" key="73" vol="100" pos="4752" len="5"/>
          <note pan="0" key="61" vol="100" pos="4758" len="17"/>
          <note pan="0" key="72" vol="100" pos="4776" len="5"/>
          <note pan="0" key="60" vol="100" pos="4782" len="17"/>
          <note pan="0" key="70" vol="100" pos="4800" len="5"/>
          <note pan="0" key="58" vol="100" pos="4806" len="17"/>
          <note pan="0" key="72" vol="100" pos="4824" len="5"/>
          <note pan="0" key="60" vol="100" pos="4830" len="17"/>
          <note pan="0" key="73" vol="100" pos="4848" len="5"/>
          <note pan="0" key="61" vol="100" pos="4854" len="17"/>
          <note pan="0" key="75" vol="100" pos="4872" len="5"/>
          <note pan="0" key="63" vol="100" pos="4878" len="17"/>
          <note pan="0" key="77" vol="100" pos="4896" len="5"/>
          <note pan="0" key="65" vol="100" pos="4902" len="23"/>
          <note pan="0" key="61" vol="100" pos="4926" len="5"/>
          <note pan="0" key="58" vol="100" pos="4932" len="5"/>
          <note pan="0" key="54" vol="100" pos="4938" len="5"/>
          <note pan="0" key="75" vol="100" pos="4944" len="5"/>
          <note pan="0" key="63" vol="100" pos="4950" len="17"/>
          <note pan="0" key="73" vol="100" pos="4968" len="5"/>
          <note pan="0" key="61" vol="100" pos="4974" len="17"/>
          <note pan="0" key="72" vol="100" pos="4992" len="5"/>
          <note pan="0" key="60" vol="100" pos="4998" len="41"/>
          <note pan="0" key="73" vol="100" pos="5040" len="5"/>
          <note pan="0" key="61" vol="100" pos="5046" len="41"/>
          <note pan="0" key="75" vol="100" pos="5088" len="5"/>
          <note pan="0" key="63" vol="100" pos="5094" len="41"/>
          <note pan="0" key="77" vol="100" pos="5136" len="5"/>
          <note pan="0" key="65" vol="100" pos="5142" len="41"/>
          <note pan="0" key="80" vol="100" pos="5184" len="23"/>
          <note pan="0" key="82" vol="100" pos="5208" len="23"/>
          <note pan="0" key="77" vol="100" pos="5232" len="23"/>
          <note pan="0" key="75" vol="100" pos="5256" len="23"/>
          <note pan="0" key="77" vol="100" pos="5280" len="47"/>
          <note pan="0" key="75" vol="100" pos="5328" len="23"/>
          <note pan="0" key="77" vol="100" pos="5352" len="23"/>
          <note pan="0" key="80" vol="100" pos="5376" len="23"/>
          <note pan="0" key="82" vol="100" pos="5400" len="23"/>
          <note pan="0" key="77" vol="100" pos="5424" len="23"/>
          <note pan="0" key="75" vol="100" pos="5448" len="23"/>
          <note pan="0" key="77" vol="100" pos="5472" len="47"/>
          <note pan="0" key="70" vol="100" pos="5520" len="23"/>
          <note pan="0" key="77" vol="100" pos="5544" len="23"/>
          <note pan="0" key="75" vol="100" pos="5568" len="23"/>
          <note pan="0" key="73" vol="100" pos="5592" len="23"/>
          <note pan="0" key="72" vol="100" pos="5616" len="23"/>
          <note pan="0" key="68" vol="100" pos="5640" len="23"/>
          <note pan="0" key="70" vol="100" pos="5664" len="41"/>
          <note pan="0" key="70" vol="100" pos="5712" len="23"/>
          <note pan="0" key="73" vol="100" pos="5736" len="23"/>
          <note pan="0" key="72" vol="100" pos="5760" len="23"/>
          <note pan="0" key="73" vol="100" pos="5784" len="23"/>
          <note pan="0" key="75" vol="100" pos="5808" len="23"/>
          <note pan="0" key="77" vol="100" pos="5832" len="23"/>
          <note pan="0" key="70" vol="100" pos="5856" len="47"/>
          <note pan="0" key="77" vol="100" pos="5904" len="23"/>
          <note pan="0" key="80" vol="100" pos="5928" len="23"/>
          <note pan="0" key="80" vol="100" pos="5952" len="23"/>
          <note pan="0" key="82" vol="100" pos="5976" len="23"/>
          <note pan="0" key="77" vol="100" pos="6000" len="23"/>
          <note pan="0" key="75" vol="100" pos="6024" len="23"/>
          <note pan="0" key="77" vol="100" pos="6048" len="47"/>
          <note pan="0" key="75" vol="100" pos="6096" len="23"/>
          <note pan="0" key="77" vol="100" pos="6120" len="23"/>
          <note pan="0" key="80" vol="100" pos="6144" len="23"/>
          <note pan="0" key="82" vol="100" pos="6168" len="23"/>
          <note pan="0" key="77" vol="100" pos="6192" len="23"/>
          <note pan="0" key="75" vol="100" pos="6216" len="23"/>
          <note pan="0" key="77" vol="100" pos="6240" len="47"/>
          <note pan="0" key="70" vol="100" pos="6288" len="23"/>
          <note pan="0" key="77" vol="100" pos="6312" len="23"/>
          <note pan="0" key="75" vol="100" pos="6336" len="23"/>
          <note pan="0" key="73" vol="100" pos="6360" len="23"/>
          <note pan="0" key="72" vol="100" pos="6384" len="23"/>
          <note pan="0" key="68" vol="100" pos="6408" len="23"/>
          <note pan="0" key="70" vol="100" pos="6432" len="41"/>
          <note pan="0" key="70" vol="100" pos="6480" len="23"/>
          <note pan="0" key="73" vol="100" pos="6504" len="23"/>
          <note pan="0" key="72" vol="100" pos="6528" len="23"/>
          <note pan="0" key="73" vol="100" pos="6552" len="23"/>
          <note pan="0" key="75" vol="100" pos="6576" len="23"/>
          <note pan="0" key="77" vol="100" pos="6600" len="23"/>
          <note pan="0" key="70" vol="100" pos="6624" len="47"/>
          <note pan="0" key="77" vol="100" pos="6672" len="23"/>
          <note pan="0" key="80" vol="100" pos="6696" len="23"/>
          <note pan="0" key="80" vol="100" pos="6720" len="23"/>
          <note pan="0" key="82" vol="100" pos="6744" len="23"/>
          <note pan="0" key="77" vol="100" pos="6768" len="23"/>
          <note pan="0" key="75" vol="100" pos="6792" len="23"/>
          <note pan="0" key="77" vol="100" pos="6816" len="47"/>
          <note pan="0" key="75" vol="100" pos="6864" len="23"/>
          <note pan="0" key="77" vol="100" pos="6888" len="23"/>
          <note pan="0" key="80" vol="100" pos="6912" len="23"/>
          <note pan="0" key="82" vol="100" pos="6936" len="23"/>
          <note pan="0" key="77" vol="100" pos="6960" len="23"/>
          <note pan="0" key="75" vol="100" pos="6984" len="23"/>
          <note pan="0" key="77" vol="100" pos="7008" len="47"/>
          <note pan="0" key="70" vol="100" pos="7056" len="23"/>
          <note pan="0" key="77" vol="100" pos="7080" len="23"/>
          <note pan="0" key="75" vol="100" pos="7104" len="23"/>
          <note pan="0" key="73" vol="100" pos="7128" len="23"/>
          <note pan="0" key="72" vol="100" pos="7152" len="23"/>
          <note pan="0" key="68" vol="100" pos="7176" len="23"/>
          <note pan="0" key="70" vol="100" pos="7200" len="41"/>
          <note pan="0" key="70" vol="100" pos="7248" len="23"/>
          <note pan="0" key="73" vol="100" pos="7272" len="23"/>
          <note pan="0" key="72" vol="100" pos="7296" len="23"/>
          <note pan="0" key="73" vol="100" pos="7320" len="23"/>
          <note pan="0" key="75" vol="100" pos="7344" len="23"/>
          <note pan="0" key="77" vol="100" pos="7368" len="23"/>
          <note pan="0" key="70" vol="100" pos="7392" len="47"/>
          <note pan="0" key="77" vol="100" pos="7440" len="23"/>
          <note pan="0" key="80" vol="100" pos="7464" len="23"/>
          <note pan="0" key="80" vol="100" pos="7488" len="23"/>
          <note pan="0" key="82" vol="100" pos="7512" len="23"/>
          <note pan="0" key="77" vol="100" pos="7536" len="23"/>
          <note pan="0" key="75" vol="100" pos="7560" len="23"/>
          <note pan="0" key="77" vol="100" pos="7584" len="47"/>
          <note pan="0" key="75" vol="100" pos="7632" len="23"/>
          <note pan="0" key="77" vol="100" pos="7656" len="23"/>
          <note pan="0" key="80" vol="100" pos="7680" len="23"/>
          <note pan="0" key="82" vol="100" pos="7704" len="23"/>
          <note pan="0" key="77" vol="100" pos="7728" len="23"/>
          <note pan="0" key="75" vol="100" pos="7752" len="23"/>
          <note pan="0" key="77" vol="100" pos="7776" len="47"/>
          <note pan="0" key="82" vol="100" pos="7824" len="23"/>
          <note pan="0" key="84" vol="100" pos="7848" len="23"/>
          <note pan="0" key="85" vol="100" pos="7872" len="23"/>
          <note pan="0" key="84" vol="100" pos="7896" len="23"/>
          <note pan="0" key="82" vol="100" pos="7920" len="23"/>
          <note pan="0" key="80" vol="100" pos="7944" len="23"/>
          <note pan="0" key="77" vol="100" pos="7968" len="47"/>
          <note pan="0" key="75" vol="100" pos="8016" len="23"/>
          <note pan="0" key="77" vol="100" pos="8040" len="23"/>
          <note pan="0" key="75" vol="100" pos="8064" len="23"/>
          <note pan="0" key="73" vol="100" pos="8088" len="23"/>
          <note pan="0" key="72" vol="100" pos="8112" len="23"/>
          <note pan="0" key="68" vol="100" pos="8136" len="23"/>
          <note pan="0" key="70" vol="100" pos="8160" len="47"/>
          <note pan="0" key="77" vol="100" pos="8208" len="5"/>
          <note pan="0" key="65" vol="100" pos="8214" len="17"/>
          <note pan="0" key="80" vol="100" pos="8232" len="5"/>
          <note pan="0" key="68" vol="100" pos="8238" len="17"/>
          <note pan="0" key="80" vol="100" pos="8256" len="5"/>
          <note pan="0" key="68" vol="100" pos="8262" len="17"/>
          <note pan="0" key="82" vol="100" pos="8280" len="5"/>
          <note pan="0" key="70" vol="100" pos="8286" len="17"/>
          <note pan="0" key="77" vol="100" pos="8304" len="5"/>
          <note pan="0" key="65" vol="100" pos="8310" len="17"/>
          <note pan="0" key="75" vol="100" pos="8328" len="5"/>
          <note pan="0" key="63" vol="100" pos="8334" len="17"/>
          <note pan="0" key="77" vol="100" pos="8352" len="5"/>
          <note pan="0" key="65" vol="100" pos="8358" len="41"/>
          <note pan="0" key="75" vol="100" pos="8400" len="5"/>
          <note pan="0" key="63" vol="100" pos="8406" len="17"/>
          <note pan="0" key="77" vol="100" pos="8424" len="5"/>
          <note pan="0" key="65" vol="100" pos="8430" len="17"/>
          <note pan="0" key="80" vol="100" pos="8448" len="5"/>
          <note pan="0" key="68" vol="100" pos="8454" len="17"/>
          <note pan="0" key="82" vol="100" pos="8472" len="5"/>
          <note pan="0" key="70" vol="100" pos="8478" len="17"/>
          <note pan="0" key="77" vol="100" pos="8496" len="5"/>
          <note pan="0" key="65" vol="100" pos="8502" len="17"/>
          <note pan="0" key="75" vol="100" pos="8520" len="5"/>
          <note pan="0" key="63" vol="100" pos="8526" len="17"/>
          <note pan="0" key="77" vol="100" pos="8544" len="5"/>
          <note pan="0" key="65" vol="100" pos="8550" len="41"/>
          <note pan="0" key="70" vol="100" pos="8592" len="5"/>
          <note pan="0" key="58" vol="100" pos="8598" len="17"/>
          <note pan="0" key="77" vol="100" pos="8616" len="5"/>
          <note pan="0" key="65" vol="100" pos="8622" len="17"/>
          <note pan="0" key="75" vol="100" pos="8640" len="5"/>
          <note pan="0" key="63" vol="100" pos="8646" len="17"/>
          <note pan="0" key="73" vol="100" pos="8664" len="5"/>
          <note pan="0" key="61" vol="100" pos="8670" len="17"/>
          <note pan="0" key="72" vol="100" pos="8688" len="5"/>
          <note pan="0" key="60" vol="100" pos="8694" len="17"/>
          <note pan="0" key="68" vol="100" pos="8712" len="5"/>
          <note pan="0" key="56" vol="100" pos="8718" len="17"/>
          <note pan="0" key="70" vol="100" pos="8736" len="5"/>
          <note pan="0" key="58" vol="100" pos="8742" len="41"/>
          <note pan="0" key="70" vol="100" pos="8784" len="5"/>
          <note pan="0" key="58" vol="100" pos="8790" len="17"/>
          <note pan="0" key="73" vol="100" pos="8808" len="5"/>
          <note pan="0" key="61" vol="100" pos="8814" len="17"/>
          <note pan="0" key="72" vol="100" pos="8832" len="5"/>
          <note pan="0" key="60" vol="100" pos="8838" len="17"/>
          <note pan="0" key="73" vol="100" pos="8856" len="5"/>
          <note pan="0" key="61" vol="100" pos="8862" len="17"/>
          <note pan="0" key="75" vol="100" pos="8880" len="5"/>
          <note pan="0" key="63" vol="100" pos="8886" len="17"/>
          <note pan="0" key="77" vol="100" pos="8904" len="5"/>
          <note pan="0" key="65" vol="100" pos="8910" len="17"/>
          <note pan="0" key="70" vol="100" pos="8928" len="5"/>
          <note pan="0" key="58" vol="100" pos="8934" len="41"/>
          <note pan="0" key="77" vol="100" pos="8976" len="5"/>
          <note pan="0" key="65" vol="100" pos="8982" len="17"/>
          <note pan="0" key="80" vol="100" pos="9000" len="5"/>
          <note pan="0" key="68" vol="100" pos="9006" len="17"/>
          <note pan="0" key="80" vol="100" pos="9024" len="5"/>
          <note pan="0" key="68" vol="100" pos="9030" len="17"/>
          <note pan="0" key="82" vol="100" pos="9048" len="5"/>
          <note pan="0" key="70" vol="100" pos="9054" len="17"/>
          <note pan="0" key="77" vol="100" pos="9072" len="5"/>
          <note pan="0" key="65" vol="100" pos="9078" len="17"/>
          <note pan="0" key="75" vol="100" pos="9096" len="5"/>
          <note pan="0" key="63" vol="100" pos="9102" len="17"/>
          <note pan="0" key="77" vol="100" pos="9120" len="5"/>
          <note pan="0" key="65" vol="100" pos="9126" len="41"/>
          <note pan="0" key="75" vol="100" pos="9168" len="5"/>
          <note pan="0" key="63" vol="100" pos="9174" len="17"/>
          <note pan="0" key="77" vol="100" pos="9192" len="5"/>
          <note pan="0" key="65" vol="100" pos="9198" len="17"/>
          <note pan="0" key="80" vol="100" pos="9216" len="5"/>
          <note pan="0" key="68" vol="100" pos="9222" len="17"/>
          <note pan="0" key="82" vol="100" pos="9240" len="5"/>
          <note pan="0" key="70" vol="100" pos="9246" len="17"/>
          <note pan="0" key="77" vol="100" pos="9264" len="5"/>
          <note pan="0" key="65" vol="100" pos="9270" len="17"/>
          <note pan="0" key="75" vol="100" pos="9288" len="5"/>
          <note pan="0" key="63" vol="100" pos="9294" len="17"/>
          <note pan="0" key="77" vol="100" pos="9312" len="5"/>
          <note pan="0" key="65" vol="100" pos="9318" len="41"/>
          <note pan="0" key="70" vol="100" pos="9360" len="5"/>
          <note pan="0" key="58" vol="100" pos="9366" len="17"/>
          <note pan="0" key="77" vol="100" pos="9384" len="5"/>
          <note pan="0" key="65" vol="100" pos="9390" len="17"/>
          <note pan="0" key="75" vol="100" pos="9408" len="5"/>
          <note pan="0" key="63" vol="100" pos="9414" len="17"/>
          <note pan="0" key="73" vol="100" pos="9432" len="5"/>
          <note pan="0" key="61" vol="100" pos="9438" len="17"/>
          <note pan="0" key="72" vol="100" pos="9456" len="5"/>
          <note pan="0" key="60" vol="100" pos="9462" len="17"/>
          <note pan="0" key="68" vol="100" pos="9480" len="5"/>
          <note pan="0" key="56" vol="100" pos="9486" len="17"/>
          <note pan="0" key="70" vol="100" pos="9504" len="5"/>
          <note pan="0" key="58" vol="100" pos="9510" len="41"/>
          <note pan="0" key="70" vol="100" pos="9552" len="5"/>
          <note pan="0" key="58" vol="100" pos="9558" len="17"/>
          <note pan="0" key="73" vol="100" pos="9576" len="5"/>
          <note pan="0" key="61" vol="100" pos="9582" len="17"/>
          <note pan="0" key="72" vol="100" pos="9600" len="5"/>
          <note pan="0" key="60" vol="100" pos="9606" len="17"/>
          <note pan="0" key="73" vol="100" pos="9624" len="5"/>
          <note pan="0" key="61" vol="100" pos="9630" len="17"/>
          <note pan="0" key="75" vol="100" pos="9648" len="5"/>
          <note pan="0" key="63" vol="100" pos="9654" len="17"/>
          <note pan="0" key="77" vol="100" pos="9672" len="5"/>
          <note pan="0" key="65" vol="100" pos="9678" len="17"/>
          <note pan="0" key="70" vol="100" pos="9696" len="5"/>
          <note pan="0" key="58" vol="100" pos="9702" len="41"/>
          <note pan="0" key="77" vol="100" pos="9744" len="5"/>
          <note pan="0" key="65" vol="100" pos="9750" len="17"/>
          <note pan="0" key="80" vol="100" pos="9768" len="5"/>
          <note pan="0" key="68" vol="100" pos="9774" len="17"/>
          <note pan="0" key="80" vol="100" pos="9792" len="5"/>
          <note pan="0" key="68" vol="100" pos="9798" len="17"/>
          <note pan="0" key="82" vol="100" pos="9816" len="5"/>
          <note pan="0" key="70" vol="100" pos="9822" len="17"/>
          <note pan="0" key="77" vol="100" pos="9840" len="5"/>
          <note pan="0" key="65" vol="100" pos="9846" len="17"/>
          <note pan="0" key="75" vol="100" pos="9864" len="5"/>
          <note pan="0" key="63" vol="100" pos="9870" len="17"/>
          <note pan="0" key="77" vol="100" pos="9888" len="5"/>
          <note pan="0" key="65" vol="100" pos="9894" len="41"/>
          <note pan="0" key="75" vol="100" pos="9936" len="5"/>
          <note pan="0" key="63" vol="100" pos="9942" len="17"/>
          <note pan="0" key="77" vol="100" pos="9960" len="5"/>
          <note pan="0" key="65" vol="100" pos="9966" len="17"/>
          <note pan="0" key="80" vol="100" pos="9984" len="5"/>
          <note pan="0" key="68" vol="100" pos="9990" len="17"/>
          <note pan="0" key="82" vol="100" pos="10008" len="5"/>
          <note pan="0" key="70" vol="100" pos="10014" len="17"/>
          <note pan="0" key="77" vol="100" pos="10032" len="5"/>
          <note pan="0" key="65" vol="100" pos="10038" len="17"/>
          <note pan="0" key="75" vol="100" pos="10056" len="5"/>
          <note pan="0" key="63" vol="100" pos="10062" len="17"/>
          <note pan="0" key="77" vol="100" pos="10080" len="5"/>
          <note pan="0" key="65" vol="100" pos="10086" len="41"/>
          <note pan="0" key="70" vol="100" pos="10128" len="5"/>
          <note pan="0" key="58" vol="100" pos="10134" len="17"/>
          <note pan="0" key="77" vol="100" pos="10152" len="5"/>
          <note pan="0" key="65" vol="100" pos="10158" len="17"/>
          <note pan="0" key="75" vol="100" pos="10176" len="5"/>
          <note pan="0" key="63" vol="100" pos="10182" len="17"/>
          <note pan="0" key="73" vol="100" pos="10200" len="5"/>
          <note pan="0" key="61" vol="100" pos="10206" len="17"/>
          <note pan="0" key="72" vol="100" pos="10224" len="5"/>
          <note pan="0" key="60" vol="100" pos="10230" len="17"/>
          <note pan="0" key="68" vol="100" pos="10248" len="5"/>
          <note pan="0" key="56" vol="100" pos="10254" len="17"/>
          <note pan="0" key="70" vol="100" pos="10272" len="5"/>
          <note pan="0" key="58" vol="100" pos="10278" len="41"/>
          <note pan="0" key="70" vol="100" pos="10320" len="5"/>
          <note pan="0" key="58" vol="100" pos="10326" len="17"/>
          <note pan="0" key="73" vol="100" pos="10344" len="5"/>
          <note pan="0" key="61" vol="100" pos="10350" len="17"/>
          <note pan="0" key="72" vol="100" pos="10368" len="5"/>
          <note pan="0" key="60" vol="100" pos="10374" len="17"/>
          <note pan="0" key="73" vol="100" pos="10392" len="5"/>
          <note pan="0" key="61" vol="100" pos="10398" len="17"/>
          <note pan="0" key="75" vol="100" pos="10416" len="5"/>
          <note pan="0" key="63" vol="100" pos="10422" len="17"/>
          <note pan="0" key="77" vol="100" pos="10440" len="5"/>
          <note pan="0" key="65" vol="100" pos="10446" len="17"/>
          <note pan="0" key="70" vol="100" pos="10464" len="5"/>
          <note pan="0" key="58" vol="100" pos="10470" len="41"/>
          <note pan="0" key="77" vol="100" pos="10512" len="5"/>
          <note pan="0" key="65" vol="100" pos="10518" len="17"/>
          <note pan="0" key="80" vol="100" pos="10536" len="5"/>
          <note pan="0" key="68" vol="100" pos="10542" len="17"/>
          <note pan="0" key="80" vol="100" pos="10560" len="5"/>
          <note pan="0" key="68" vol="100" pos="10566" len="17"/>
          <note pan="0" key="82" vol="100" pos="10584" len="5"/>
          <note pan="0" key="70" vol="100" pos="10590" len="17"/>
          <note pan="0" key="77" vol="100" pos="10608" len="5"/>
          <note pan="0" key="65" vol="100" pos="10614" len="17"/>
          <note pan="0" key="75" vol="100" pos="10632" len="5"/>
          <note pan="0" key="63" vol="100" pos="10638" len="17"/>
          <note pan="0" key="77" vol="100" pos="10656" len="5"/>
          <note pan="0" key="65" vol="100" pos="10662" len="41"/>
          <note pan="0" key="75" vol="100" pos="10704" len="5"/>
          <note pan="0" key="63" vol="100" pos="10710" len="17"/>
          <note pan="0" key="77" vol="100" pos="10728" len="5"/>
          <note pan="0" key="65" vol="100" pos="10734" len="17"/>
          <note pan="0" key="80" vol="100" pos="10752" len="5"/>
          <note pan="0" key="68" vol="100" pos="10758" len="17"/>
          <note pan="0" key="82" vol="100" pos="10776" len="5"/>
          <note pan="0" key="70" vol="100" pos="10782" len="17"/>
          <note pan="0" key="77" vol="100" pos="10800" len="5"/>
          <note pan="0" key="65" vol="100" pos="10806" len="17"/>
          <note pan="0" key="75" vol="100" pos="10824" len="5"/>
          <note pan="0" key="63" vol="100" pos="10830" len="17"/>
          <note pan="0" key="77" vol="100" pos="10848" len="5"/>
          <note pan="0" key="65" vol="100" pos="10854" len="41"/>
          <note pan="0" key="82" vol="100" pos="10896" len="5"/>
          <note pan="0" key="70" vol="100" pos="10902" len="17"/>
          <note pan="0" key="84" vol="100" pos="10920" len="5"/>
          <note pan="0" key="72" vol="100" pos="10926" len="17"/>
          <note pan="0" key="85" vol="100" pos="10944" len="5"/>
          <note pan="0" key="73" vol="100" pos="10950" len="17"/>
          <note pan="0" key="84" vol="100" pos="10968" len="5"/>
          <note pan="0" key="72" vol="100" pos="10974" len="17"/>
          <note pan="0" key="82" vol="100" pos="10992" len="5"/>
          <note pan="0" key="70" vol="100" pos="10998" len="17"/>
          <note pan="0" key="80" vol="100" pos="11016" len="5"/>
          <note pan="0" key="68" vol="100" pos="11022" len="17"/>
          <note pan="0" key="77" vol="100" pos="11040" len="5"/>
          <note pan="0" key="65" vol="100" pos="11046" len="41"/>
          <note pan="0" key="75" vol="100" pos="11088" len="5"/>
          <note pan="0" key="63" vol="100" pos="11094" len="17"/>
          <note pan="0" key="77" vol="100" pos="11112" len="5"/>
          <note pan="0" key="65" vol="100" pos="11118" len="17"/>
          <note pan="0" key="75" vol="100" pos="11136" len="5"/>
          <note pan="0" key="63" vol="100" pos="11142" len="17"/>
          <note pan="0" key="73" vol="100" pos="11160" len="5"/>
          <note pan="0" key="61" vol="100" pos="11166" len="17"/>
          <note pan="0" key="72" vol="100" pos="11184" len="5"/>
          <note pan="0" key="60" vol="100" pos="11190" len="17"/>
          <note pan="0" key="68" vol="100" pos="11208" len="5"/>
          <note pan="0" key="56" vol="100" pos="11214" len="17"/>
          <note pan="0" key="39" vol="100" pos="11232" len="47"/>
          <note pan="0" key="37" vol="100" pos="11280" len="17"/>
          <note pan="0" key="37" vol="100" pos="11304" len="5"/>
          <note pan="0" key="37" vol="100" pos="11316" len="5"/>
          <note pan="0" key="58" vol="100" pos="11328" len="11"/>
          <note pan="0" key="46" vol="100" pos="11340" len="5"/>
          <note pan="0" key="34" vol="100" pos="11346" len="5"/>
          <note pan="0" key="58" vol="100" pos="11352" len="5"/>
          <note pan="0" key="34" vol="100" pos="11358" len="5"/>
          <note pan="0" key="70" vol="100" pos="11364" len="11"/>
          <note pan="0" key="46" vol="100" pos="11376" len="5"/>
          <note pan="0" key="34" vol="100" pos="11382" len="5"/>
          <note pan="0" key="70" vol="100" pos="11388" len="5"/>
          <note pan="0" key="34" vol="100" pos="11394" len="5"/>
          <note pan="0" key="68" vol="100" pos="11400" len="5"/>
          <note pan="0" key="32" vol="100" pos="11406" len="5"/>
          <note pan="0" key="70" vol="100" pos="11412" len="5"/>
          <note pan="0" key="34" vol="100" pos="11418" len="5"/>
          <note pan="0" key="58" vol="100" pos="11424" len="11"/>
          <note pan="0" key="46" vol="100" pos="11436" len="5"/>
          <note pan="0" key="34" vol="100" pos="11442" len="5"/>
          <note pan="0" key="58" vol="100" pos="11448" len="5"/>
          <note pan="0" key="34" vol="100" pos="11454" len="5"/>
          <note pan="0" key="70" vol="100" pos="11460" len="11"/>
          <note pan="0" key="46" vol="100" pos="11472" len="5"/>
          <note pan="0" key="34" vol="100" pos="11478" len="5"/>
          <note pan="0" key="70" vol="100" pos="11484" len="5"/>
          <note pan="0" key="34" vol="100" pos="11490" len="5"/>
          <note pan="0" key="68" vol="100" pos="11496" len="5"/>
          <note pan="0" key="32" vol="100" pos="11502" len="5"/>
          <note pan="0" key="70" vol="100" pos="11508" len="5"/>
          <note pan="0" key="34" vol="100" pos="11514" len="5"/>
          <note pan="0" key="58" vol="100" pos="11520" len="11"/>
          <note pan="0" key="46" vol="100" pos="11532" len="5"/>
          <note pan="0" key="34" vol="100" pos="11538" len="5"/>
          <note pan="0" key="58" vol="100" pos="11544" len="5"/>
          <note pan="0" key="34" vol="100" pos="11550" len="5"/>
          <note pan="0" key="70" vol="100" pos="11556" len="11"/>
          <note pan="0" key="46" vol="100" pos="11568" len="5"/>
          <note pan="0" key="34" vol="100" pos="11574" len="5"/>
          <note pan="0" key="70" vol="100" pos="11580" len="5"/>
          <note pan="0" key="34" vol="100" pos="11586" len="5"/>
          <note pan="0" key="68" vol="100" pos="11592" len="5"/>
          <note pan="0" key="32" vol="100" pos="11598" len="5"/>
          <note pan="0" key="70" vol="100" pos="11604" len="5"/>
          <note pan="0" key="34" vol="100" pos="11610" len="5"/>
          <note pan="0" key="61" vol="100" pos="11616" len="11"/>
          <note pan="0" key="42" vol="100" pos="11628" len="5"/>
          <note pan="0" key="54" vol="100" pos="11634" len="5"/>
          <note pan="0" key="70" vol="100" pos="11640" len="5"/>
          <note pan="0" key="54" vol="100" pos="11646" len="5"/>
          <note pan="0" key="73" vol="100" pos="11652" len="5"/>
          <note pan="0" key="54" vol="100" pos="11658" len="5"/>
          <note pan="0" key="63" vol="100" pos="11664" len="11"/>
          <note pan="0" key="44" vol="100" pos="11676" len="5"/>
          <note pan="0" key="56" vol="100" pos="11682" len="5"/>
          <note pan="0" key="73" vol="100" pos="11688" len="5"/>
          <note pan="0" key="56" vol="100" pos="11694" len="5"/>
          <note pan="0" key="75" vol="100" pos="11700" len="5"/>
          <note pan="0" key="56" vol="100" pos="11706" len="5"/>
          <note pan="0" key="58" vol="100" pos="11712" len="11"/>
          <note pan="0" key="46" vol="100" pos="11724" len="5"/>
          <note pan="0" key="34" vol="100" pos="11730" len="5"/>
          <note pan="0" key="58" vol="100" pos="11736" len="5"/>
          <note pan="0" key="34" vol="100" pos="11742" len="5"/>
          <note pan="0" key="70" vol="100" pos="11748" len="11"/>
          <note pan="0" key="46" vol="100" pos="11760" len="5"/>
          <note pan="0" key="34" vol="100" pos="11766" len="5"/>
          <note pan="0" key="70" vol="100" pos="11772" len="5"/>
          <note pan="0" key="34" vol="100" pos="11778" len="5"/>
          <note pan="0" key="68" vol="100" pos="11784" len="5"/>
          <note pan="0" key="32" vol="100" pos="11790" len="5"/>
          <note pan="0" key="70" vol="100" pos="11796" len="5"/>
          <note pan="0" key="34" vol="100" pos="11802" len="5"/>
          <note pan="0" key="58" vol="100" pos="11808" len="11"/>
          <note pan="0" key="46" vol="100" pos="11820" len="5"/>
          <note pan="0" key="34" vol="100" pos="11826" len="5"/>
          <note pan="0" key="58" vol="100" pos="11832" len="5"/>
          <note pan="0" key="34" vol="100" pos="11838" len="5"/>
          <note pan="0" key="70" vol="100" pos="11844" len="11"/>
          <note pan="0" key="46" vol="100" pos="11856" len="5"/>
          <note pan="0" key="34" vol="100" pos="11862" len="5"/>
          <note pan="0" key="70" vol="100" pos="11868" len="5"/>
          <note pan="0" key="34" vol="100" pos="11874" len="5"/>
          <note pan="0" key="68" vol="100" pos="11880" len="5"/>
          <note pan="0" key="32" vol="100" pos="11886" len="5"/>
          <note pan="0" key="70" vol="100" pos="11892" len="5"/>
          <note pan="0" key="34" vol="100" pos="11898" len="5"/>
          <note pan="0" key="58" vol="100" pos="11904" len="11"/>
          <note pan="0" key="46" vol="100" pos="11916" len="5"/>
          <note pan="0" key="34" vol="100" pos="11922" len="5"/>
          <note pan="0" key="58" vol="100" pos="11928" len="5"/>
          <note pan="0" key="34" vol="100" pos="11934" len="5"/>
          <note pan="0" key="70" vol="100" pos="11940" len="11"/>
          <note pan="0" key="46" vol="100" pos="11952" len="5"/>
          <note pan="0" key="34" vol="100" pos="11958" len="5"/>
          <note pan="0" key="70" vol="100" pos="11964" len="5"/>
          <note pan="0" key="34" vol="100" pos="11970" len="5"/>
          <note pan="0" key="68" vol="100" pos="11976" len="5"/>
          <note pan="0" key="32" vol="100" pos="11982" len="5"/>
          <note pan="0" key="70" vol="100" pos="11988" len="5"/>
          <note pan="0" key="34" vol="100" pos="11994" len="5"/>
          <note pan="0" key="63" vol="100" pos="12000" len="11"/>
          <note pan="0" key="42" vol="100" pos="12012" len="5"/>
          <note pan="0" key="54" vol="100" pos="12018" len="5"/>
          <note pan="0" key="73" vol="100" pos="12024" len="5"/>
          <note pan="0" key="54" vol="100" pos="12030" len="5"/>
          <note pan="0" key="75" vol="100" pos="12036" len="5"/>
          <note pan="0" key="54" vol="100" pos="12042" len="5"/>
          <note pan="0" key="61" vol="100" pos="12048" len="11"/>
          <note pan="0" key="44" vol="100" pos="12060" len="5"/>
          <note pan="0" key="56" vol="100" pos="12066" len="5"/>
          <note pan="0" key="70" vol="100" pos="12072" len="5"/>
          <note pan="0" key="56" vol="100" pos="12078" len="5"/>
          <note pan="0" key="73" vol="100" pos="12084" len="5"/>
          <note pan="0" key="56" vol="100" pos="12090" len="5"/>
          <note pan="0" key="58" vol="100" pos="12096" len="11"/>
          <note pan="0" key="46" vol="100" pos="12108" len="5"/>
          <note pan="0" key="34" vol="100" pos="12114" len="5"/>
          <note pan="0" key="58" vol="100" pos="12120" len="5"/>
          <note pan="0" key="34" vol="100" pos="12126" len="5"/>
          <note pan="0" key="70" vol="100" pos="12132" len="11"/>
          <note pan="0" key="46" vol="100" pos="12144" len="5"/>
          <note pan="0" key="34" vol="100" pos="12150" len="5"/>
          <note pan="0" key="70" vol="100" pos="12156" len="5"/>
          <note pan="0" key="34" vol="100" pos="12162" len="5"/>
          <note pan="0" key="68" vol="100" pos="12168" len="5"/>
          <note pan="0" key="32" vol="100" pos="12174" len="5"/>
          <note pan="0" key="70" vol="100" pos="12180" len="5"/>
          <note pan="0" key="34" vol="100" pos="12186" len="5"/>
          <note pan="0" key="58" vol="100" pos="12192" len="11"/>
          <note pan="0" key="46" vol="100" pos="12204" len="5"/>
          <note pan="0" key="34" vol="100" pos="12210" len="5"/>
          <note pan="0" key="58" vol="100" pos="12216" len="5"/>
          <note pan="0" key="34" vol="100" pos="12222" len="5"/>
          <note pan="0" key="70" vol="100" pos="12228" len="11"/>
          <note pan="0" key="46" vol="100" pos="12240" len="5"/>
          <note pan="0" key="34" vol="100" pos="12246" len="5"/>
          <note pan="0" key="70" vol="100" pos="12252" len="5"/>
          <note pan="0" key="34" vol="100" pos="12258" len="5"/>
          <note pan="0" key="68" vol="100" pos="12264" len="5"/>
          <note pan="0" key="32" vol="100" pos="12270" len="5"/>
          <note pan="0" key="70" vol="100" pos="12276" len="5"/>
          <note pan="0" key="34" vol="100" pos="12282" len="5"/>
          <note pan="0" key="58" vol="100" pos="12288" len="11"/>
          <note pan="0" key="46" vol="100" pos="12300" len="5"/>
          <note pan="0" key="34" vol="100" pos="12306" len="5"/>
          <note pan="0" key="58" vol="100" pos="12312" len="5"/>
          <note pan="0" key="34" vol="100" pos="12318" len="5"/>
          <note pan="0" key="70" vol="100" pos="12324" len="11"/>
          <note pan="0" key="46" vol="100" pos="12336" len="5"/>
          <note pan="0" key="34" vol="100" pos="12342" len="5"/>
          <note pan="0" key="70" vol="100" pos="12348" len="5"/>
          <note pan="0" key="34" vol="100" pos="12354" len="5"/>
          <note pan="0" key="68" vol="100" pos="12360" len="5"/>
          <note pan="0" key="32" vol="100" pos="12366" len="5"/>
          <note pan="0" key="70" vol="100" pos="12372" len="5"/>
          <note pan="0" key="34" vol="100" pos="12378" len="5"/>
          <note pan="0" key="61" vol="100" pos="12384" len="11"/>
          <note pan="0" key="42" vol="100" pos="12396" len="5"/>
          <note pan="0" key="54" vol="100" pos="12402" len="5"/>
          <note pan="0" key="70" vol="100" pos="12408" len="5"/>
          <note pan="0" key="54" vol="100" pos="12414" len="5"/>
          <note pan="0" key="73" vol="100" pos="12420" len="5"/>
          <note pan="0" key="54" vol="100" pos="12426" len="5"/>
          <note pan="0" key="63" vol="100" pos="12432" len="11"/>
          <note pan="0" key="44" vol="100" pos="12444" len="5"/>
          <note pan="0" key="56" vol="100" pos="12450" len="5"/>
          <note pan="0" key="73" vol="100" pos="12456" len="5"/>
          <note pan="0" key="56" vol="100" pos="12462" len="5"/>
          <note pan="0" key="75" vol="100" pos="12468" len="5"/>
          <note pan="0" key="56" vol="100" pos="12474" len="5"/>
          <note pan="0" key="58" vol="100" pos="12480" len="11"/>
          <note pan="0" key="46" vol="100" pos="12492" len="5"/>
          <note pan="0" key="34" vol="100" pos="12498" len="5"/>
          <note pan="0" key="58" vol="100" pos="12504" len="5"/>
          <note pan="0" key="34" vol="100" pos="12510" len="5"/>
          <note pan="0" key="70" vol="100" pos="12516" len="11"/>
          <note pan="0" key="46" vol="100" pos="12528" len="5"/>
          <note pan="0" key="34" vol="100" pos="12534" len="5"/>
          <note pan="0" key="70" vol="100" pos="12540" len="5"/>
          <note pan="0" key="34" vol="100" pos="12546" len="5"/>
          <note pan="0" key="68" vol="100" pos="12552" len="5"/>
          <note pan="0" key="32" vol="100" pos="12558" len="5"/>
          <note pan="0" key="70" vol="100" pos="12564" len="5"/>
          <note pan="0" key="34" vol="100" pos="12570" len="5"/>
          <note pan="0" key="58" vol="100" pos="12576" len="11"/>
          <note pan="0" key="46" vol="100" pos="12588" len="5"/>
          <note pan="0" key="34" vol="100" pos="12594" len="5"/>
          <note pan="0" key="58" vol="100" pos="12600" len="5"/>
          <note pan="0" key="34" vol="100" pos="12606" len="5"/>
          <note pan="0" key="70" vol="100" pos="12612" len="11"/>
          <note pan="0" key="46" vol="100" pos="12624" len="5"/>
          <note pan="0" key="34" vol="100" pos="12630" len="5"/>
          <note pan="0" key="70" vol="100" pos="12636" len="5"/>
          <note pan="0" key="34" vol="100" pos="12642" len="5"/>
          <note pan="0" key="68" vol="100" pos="12648" len="5"/>
          <note pan="0" key="32" vol="100" pos="12654" len="5"/>
          <note pan="0" key="70" vol="100" pos="12660" len="5"/>
          <note pan="0" key="34" vol="100" pos="12666" len="5"/>
          <note pan="0" key="58" vol="100" pos="12672" len="11"/>
          <note pan="0" key="46" vol="100" pos="12684" len="5"/>
          <note pan="0" key="34" vol="100" pos="12690" len="5"/>
          <note pan="0" key="58" vol="100" pos="12696" len="5"/>
          <note pan="0" key="34" vol="100" pos="12702" len="5"/>
          <note pan="0" key="70" vol="100" pos="12708" len="11"/>
          <note pan="0" key="46" vol="100" pos="12720" len="5"/>
          <note pan="0" key="34" vol="100" pos="12726" len="5"/>
          <note pan="0" key="70" vol="100" pos="12732" len="5"/>
          <note pan="0" key="34" vol="100" pos="12738" len="5"/>
          <note pan="0" key="68" vol="100" pos="12744" len="5"/>
          <note pan="0" key="32" vol="100" pos="12750" len="5"/>
          <note pan="0" key="70" vol="100" pos="12756" len="5"/>
          <note pan="0" key="34" vol="100" pos="12762" len="5"/>
          <note pan="0" key="75" vol="100" pos="12768" len="11"/>
          <note pan="0" key="73" vol="100" pos="12786" len="11"/>
          <note pan="0" key="75" vol="100" pos="12798" len="11"/>
          <note pan="0" key="73" vol="100" pos="12816" len="11"/>
          <note pan="0" key="70" vol="100" pos="12834" len="11"/>
          <note pan="0" key="73" vol="100" pos="12852" len="11"/>
          <note pan="0" key="70" vol="100" pos="12864" len="5"/>
          <note pan="0" key="58" vol="100" pos="12870" len="17"/>
          <note pan="0" key="72" vol="100" pos="12888" len="5"/>
          <note pan="0" key="60" vol="100" pos="12894" len="17"/>
          <note pan="0" key="73" vol="100" pos="12912" len="5"/>
          <note pan="0" key="61" vol="100" pos="12918" len="17"/>
          <note pan="0" key="75" vol="100" pos="12936" len="5"/>
          <note pan="0" key="63" vol="100" pos="12942" len="17"/>
          <note pan="0" key="77" vol="100" pos="12960" len="5"/>
          <note pan="0" key="65" vol="100" pos="12966" len="23"/>
          <note pan="0" key="58" vol="100" pos="12990" len="5"/>
          <note pan="0" key="53" vol="100" pos="12996" len="5"/>
          <note pan="0" key="46" vol="100" pos="13002" len="5"/>
          <note pan="0" key="82" vol="100" pos="13008" len="5"/>
          <note pan="0" key="70" vol="100" pos="13014" len="17"/>
          <note pan="0" key="80" vol="100" pos="13032" len="5"/>
          <note pan="0" key="68" vol="100" pos="13038" len="17"/>
          <note pan="0" key="77" vol="100" pos="13056" len="5"/>
          <note pan="0" key="65" vol="100" pos="13062" len="41"/>
          <note pan="0" key="70" vol="100" pos="13104" len="5"/>
          <note pan="0" key="58" vol="100" pos="13110" len="41"/>
          <note pan="0" key="77" vol="100" pos="13152" len="5"/>
          <note pan="0" key="65" vol="100" pos="13158" len="17"/>
          <note pan="0" key="75" vol="100" pos="13176" len="5"/>
          <note pan="0" key="65" vol="100" pos="13182" len="5"/>
          <note pan="0" key="63" vol="100" pos="13188" len="11"/>
          <note pan="0" key="73" vol="100" pos="13200" len="5"/>
          <note pan="0" key="61" vol="100" pos="13206" len="17"/>
          <note pan="0" key="72" vol="100" pos="13224" len="5"/>
          <note pan="0" key="60" vol="100" pos="13230" len="17"/>
          <note pan="0" key="70" vol="100" pos="13248" len="5"/>
          <note pan="0" key="58" vol="100" pos="13254" len="17"/>
          <note pan="0" key="72" vol="100" pos="13272" len="5"/>
          <note pan="0" key="60" vol="100" pos="13278" len="17"/>
          <note pan="0" key="73" vol="100" pos="13296" len="5"/>
          <note pan="0" key="61" vol="100" pos="13302" len="17"/>
          <note pan="0" key="75" vol="100" pos="13320" len="5"/>
          <note pan="0" key="63" vol="100" pos="13326" len="17"/>
          <note pan="0" key="77" vol="100" pos="13344" len="5"/>
          <note pan="0" key="65" vol="100" pos="13350" len="23"/>
          <note pan="0" key="61" vol="100" pos="13374" len="5"/>
          <note pan="0" key="58" vol="100" pos="13380" len="5"/>
          <note pan="0" key="54" vol="100" pos="13386" len="5"/>
          <note pan="0" key="75" vol="100" pos="13392" len="5"/>
          <note pan="0" key="63" vol="100" pos="13398" len="17"/>
          <note pan="0" key="73" vol="100" pos="13416" len="5"/>
          <note pan="0" key="61" vol="100" pos="13422" len="17"/>
          <note pan="0" key="72" vol="100" pos="13440" len="5"/>
          <note pan="0" key="60" vol="100" pos="13446" len="17"/>
          <note pan="0" key="70" vol="100" pos="13464" len="5"/>
          <note pan="0" key="61" vol="100" pos="13470" len="5"/>
          <note pan="0" key="60" vol="100" pos="13476" len="5"/>
          <note pan="0" key="58" vol="100" pos="13482" len="5"/>
          <note pan="0" key="72" vol="100" pos="13488" len="5"/>
          <note pan="0" key="60" vol="100" pos="13494" len="17"/>
          <note pan="0" key="73" vol="100" pos="13512" len="5"/>
          <note pan="0" key="61" vol="100" pos="13518" len="17"/>
          <note pan="0" key="72" vol="100" pos="13536" len="5"/>
          <note pan="0" key="60" vol="100" pos="13542" len="17"/>
          <note pan="0" key="70" vol="100" pos="13560" len="5"/>
          <note pan="0" key="58" vol="100" pos="13566" len="17"/>
          <note pan="0" key="69" vol="100" pos="13584" len="5"/>
          <note pan="0" key="57" vol="100" pos="13590" len="17"/>
          <note pan="0" key="72" vol="100" pos="13608" len="5"/>
          <note pan="0" key="60" vol="100" pos="13614" len="17"/>
          <note pan="0" key="70" vol="100" pos="13632" len="5"/>
          <note pan="0" key="58" vol="100" pos="13638" len="17"/>
          <note pan="0" key="72" vol="100" pos="13656" len="5"/>
          <note pan="0" key="60" vol="100" pos="13662" len="17"/>
          <note pan="0" key="73" vol="100" pos="13680" len="5"/>
          <note pan="0" key="61" vol="100" pos="13686" len="17"/>
          <note pan="0" key="75" vol="100" pos="13704" len="5"/>
          <note pan="0" key="63" vol="100" pos="13710" len="17"/>
          <note pan="0" key="77" vol="100" pos="13728" len="5"/>
          <note pan="0" key="65" vol="100" pos="13734" len="23"/>
          <note pan="0" key="58" vol="100" pos="13758" len="5"/>
          <note pan="0" key="53" vol="100" pos="13764" len="5"/>
          <note pan="0" key="46" vol="100" pos="13770" len="5"/>
          <note pan="0" key="82" vol="100" pos="13776" len="5"/>
          <note pan="0" key="70" vol="100" pos="13782" len="17"/>
          <note pan="0" key="80" vol="100" pos="13800" len="5"/>
          <note pan="0" key="68" vol="100" pos="13806" len="17"/>
          <note pan="0" key="77" vol="100" pos="13824" len="5"/>
          <note pan="0" key="65" vol="100" pos="13830" len="41"/>
          <note pan="0" key="70" vol="100" pos="13872" len="5"/>
          <note pan="0" key="58" vol="100" pos="13878" len="41"/>
          <note pan="0" key="77" vol="100" pos="13920" len="5"/>
          <note pan="0" key="65" vol="100" pos="13926" len="17"/>
          <note pan="0" key="75" vol="100" pos="13944" len="5"/>
          <note pan="0" key="65" vol="100" pos="13950" len="5"/>
          <note pan="0" key="63" vol="100" pos="13956" len="11"/>
          <note pan="0" key="73" vol="100" pos="13968" len="5"/>
          <note pan="0" key="61" vol="100" pos="13974" len="17"/>
          <note pan="0" key="72" vol="100" pos="13992" len="5"/>
          <note pan="0" key="60" vol="100" pos="13998" len="17"/>
          <note pan="0" key="70" vol="100" pos="14016" len="5"/>
          <note pan="0" key="58" vol="100" pos="14022" len="17"/>
          <note pan="0" key="72" vol="100" pos="14040" len="5"/>
          <note pan="0" key="60" vol="100" pos="14046" len="17"/>
          <note pan="0" key="73" vol="100" pos="14064" len="5"/>
          <note pan="0" key="61" vol="100" pos="14070" len="17"/>
          <note pan="0" key="75" vol="100" pos="14088" len="5"/>
          <note pan="0" key="63" vol="100" pos="14094" len="17"/>
          <note pan="0" key="77" vol="100" pos="14112" len="5"/>
          <note pan="0" key="65" vol="100" pos="14118" len="23"/>
          <note pan="0" key="61" vol="100" pos="14142" len="5"/>
          <note pan="0" key="58" vol="100" pos="14148" len="5"/>
          <note pan="0" key="54" vol="100" pos="14154" len="5"/>
          <note pan="0" key="75" vol="100" pos="14160" len="5"/>
          <note pan="0" key="63" vol="100" pos="14166" len="17"/>
          <note pan="0" key="73" vol="100" pos="14184" len="5"/>
          <note pan="0" key="61" vol="100" pos="14190" len="17"/>
          <note pan="0" key="72" vol="100" pos="14208" len="5"/>
          <note pan="0" key="60" vol="100" pos="14214" len="41"/>
          <note pan="0" key="73" vol="100" pos="14256" len="5"/>
          <note pan="0" key="61" vol="100" pos="14262" len="41"/>
          <note pan="0" key="75" vol="100" pos="14304" len="5"/>
          <note pan="0" key="63" vol="100" pos="14310" len="41"/>
          <note pan="0" key="77" vol="100" pos="14352" len="5"/>
          <note pan="0" key="65" vol="100" pos="14358" len="41"/>
          <note pan="0" key="70" vol="100" pos="14400" len="5"/>
          <note pan="0" key="58" vol="100" pos="14406" len="17"/>
          <note pan="0" key="72" vol="100" pos="14424" len="5"/>
          <note pan="0" key="60" vol="100" pos="14430" len="17"/>
          <note pan="0" key="73" vol="100" pos="14448" len="5"/>
          <note pan="0" key="61" vol="100" pos="14454" len="17"/>
          <note pan="0" key="75" vol="100" pos="14472" len="5"/>
          <note pan="0" key="63" vol="100" pos="14478" len="17"/>
          <note pan="0" key="77" vol="100" pos="14496" len="5"/>
          <note pan="0" key="65" vol="100" pos="14502" len="23"/>
          <note pan="0" key="58" vol="100" pos="14526" len="5"/>
          <note pan="0" key="53" vol="100" pos="14532" len="5"/>
          <note pan="0" key="49" vol="100" pos="14538" len="5"/>
          <note pan="0" key="82" vol="100" pos="14544" len="5"/>
          <note pan="0" key="70" vol="100" pos="14550" len="17"/>
          <note pan="0" key="80" vol="100" pos="14568" len="5"/>
          <note pan="0" key="68" vol="100" pos="14574" len="17"/>
          <note pan="0" key="77" vol="100" pos="14592" len="5"/>
          <note pan="0" key="65" vol="100" pos="14598" len="41"/>
          <note pan="0" key="70" vol="100" pos="14640" len="5"/>
          <note pan="0" key="58" vol="100" pos="14646" len="41"/>
          <note pan="0" key="77" vol="100" pos="14688" len="5"/>
          <note pan="0" key="65" vol="100" pos="14694" len="17"/>
          <note pan="0" key="75" vol="100" pos="14712" len="5"/>
          <note pan="0" key="65" vol="100" pos="14718" len="5"/>
          <note pan="0" key="63" vol="100" pos="14724" len="11"/>
          <note pan="0" key="73" vol="100" pos="14736" len="5"/>
          <note pan="0" key="61" vol="100" pos="14742" len="17"/>
          <note pan="0" key="72" vol="100" pos="14760" len="5"/>
          <note pan="0" key="60" vol="100" pos="14766" len="17"/>
          <note pan="0" key="70" vol="100" pos="14784" len="5"/>
          <note pan="0" key="58" vol="100" pos="14790" len="17"/>
          <note pan="0" key="72" vol="100" pos="14808" len="5"/>
          <note pan="0" key="60" vol="100" pos="14814" len="17"/>
          <note pan="0" key="73" vol="100" pos="14832" len="5"/>
          <note pan="0" key="61" vol="100" pos="14838" len="17"/>
          <note pan="0" key="75" vol="100" pos="14856" len="5"/>
          <note pan="0" key="63" vol="100" pos="14862" len="17"/>
          <note pan="0" key="77" vol="100" pos="14880" len="5"/>
          <note pan="0" key="65" vol="100" pos="14886" len="23"/>
          <note pan="0" key="61" vol="100" pos="14910" len="5"/>
          <note pan="0" key="58" vol="100" pos="14916" len="5"/>
          <note pan="0" key="54" vol="100" pos="14922" len="5"/>
          <note pan="0" key="75" vol="100" pos="14928" len="5"/>
          <note pan="0" key="63" vol="100" pos="14934" len="17"/>
          <note pan="0" key="73" vol="100" pos="14952" len="5"/>
          <note pan="0" key="61" vol="100" pos="14958" len="17"/>
          <note pan="0" key="72" vol="100" pos="14976" len="5"/>
          <note pan="0" key="60" vol="100" pos="14982" len="17"/>
          <note pan="0" key="70" vol="100" pos="15000" len="5"/>
          <note pan="0" key="61" vol="100" pos="15006" len="5"/>
          <note pan="0" key="60" vol="100" pos="15012" len="5"/>
          <note pan="0" key="58" vol="100" pos="15018" len="5"/>
          <note pan="0" key="72" vol="100" pos="15024" len="5"/>
          <note pan="0" key="60" vol="100" pos="15030" len="17"/>
          <note pan="0" key="73" vol="100" pos="15048" len="5"/>
          <note pan="0" key="61" vol="100" pos="15054" len="17"/>
          <note pan="0" key="72" vol="100" pos="15072" len="5"/>
          <note pan="0" key="60" vol="100" pos="15078" len="17"/>
          <note pan="0" key="70" vol="100" pos="15096" len="5"/>
          <note pan="0" key="58" vol="100" pos="15102" len="17"/>
          <note pan="0" key="69" vol="100" pos="15120" len="5"/>
          <note pan="0" key="57" vol="100" pos="15126" len="17"/>
          <note pan="0" key="72" vol="100" pos="15144" len="5"/>
          <note pan="0" key="60" vol="100" pos="15150" len="17"/>
          <note pan="0" key="70" vol="100" pos="15168" len="5"/>
          <note pan="0" key="58" vol="100" pos="15174" len="17"/>
          <note pan="0" key="72" vol="100" pos="15192" len="5"/>
          <note pan="0" key="60" vol="100" pos="15198" len="17"/>
          <note pan="0" key="73" vol="100" pos="15216" len="5"/>
          <note pan="0" key="61" vol="100" pos="15222" len="17"/>
          <note pan="0" key="75" vol="100" pos="15240" len="5"/>
          <note pan="0" key="63" vol="100" pos="15246" len="17"/>
          <note pan="0" key="77" vol="100" pos="15264" len="5"/>
          <note pan="0" key="65" vol="100" pos="15270" len="41"/>
          <note pan="0" key="82" vol="100" pos="15312" len="5"/>
          <note pan="0" key="70" vol="100" pos="15318" len="17"/>
          <note pan="0" key="80" vol="100" pos="15336" len="5"/>
          <note pan="0" key="68" vol="100" pos="15342" len="17"/>
          <note pan="0" key="77" vol="100" pos="15360" len="5"/>
          <note pan="0" key="65" vol="100" pos="15366" len="41"/>
          <note pan="0" key="70" vol="100" pos="15408" len="5"/>
          <note pan="0" key="58" vol="100" pos="15414" len="41"/>
          <note pan="0" key="77" vol="100" pos="15456" len="5"/>
          <note pan="0" key="65" vol="100" pos="15462" len="17"/>
          <note pan="0" key="75" vol="100" pos="15480" len="5"/>
          <note pan="0" key="65" vol="100" pos="15486" len="5"/>
          <note pan="0" key="63" vol="100" pos="15492" len="11"/>
          <note pan="0" key="73" vol="100" pos="15504" len="5"/>
          <note pan="0" key="61" vol="100" pos="15510" len="17"/>
          <note pan="0" key="72" vol="100" pos="15528" len="5"/>
          <note pan="0" key="60" vol="100" pos="15534" len="17"/>
          <note pan="0" key="70" vol="100" pos="15552" len="5"/>
          <note pan="0" key="58" vol="100" pos="15558" len="17"/>
          <note pan="0" key="72" vol="100" pos="15576" len="5"/>
          <note pan="0" key="60" vol="100" pos="15582" len="17"/>
          <note pan="0" key="73" vol="100" pos="15600" len="5"/>
          <note pan="0" key="61" vol="100" pos="15606" len="17"/>
          <note pan="0" key="75" vol="100" pos="15624" len="5"/>
          <note pan="0" key="63" vol="100" pos="15630" len="17"/>
          <note pan="0" key="77" vol="100" pos="15648" len="5"/>
          <note pan="0" key="65" vol="100" pos="15654" len="23"/>
          <note pan="0" key="61" vol="100" pos="15678" len="5"/>
          <note pan="0" key="58" vol="100" pos="15684" len="5"/>
          <note pan="0" key="54" vol="100" pos="15690" len="5"/>
          <note pan="0" key="75" vol="100" pos="15696" len="5"/>
          <note pan="0" key="63" vol="100" pos="15702" len="17"/>
          <note pan="0" key="73" vol="100" pos="15720" len="5"/>
          <note pan="0" key="61" vol="100" pos="15726" len="17"/>
          <note pan="0" key="72" vol="100" pos="15744" len="5"/>
          <note pan="0" key="60" vol="100" pos="15750" len="41"/>
          <note pan="0" key="73" vol="100" pos="15792" len="5"/>
          <note pan="0" key="61" vol="100" pos="15798" len="41"/>
          <note pan="0" key="75" vol="100" pos="15840" len="5"/>
          <note pan="0" key="63" vol="100" pos="15846" len="41"/>
          <note pan="0" key="77" vol="100" pos="15888" len="5"/>
          <note pan="0" key="65" vol="100" pos="15894" len="41"/>
          <note pan="0" key="80" vol="100" pos="15936" len="23"/>
          <note pan="0" key="82" vol="100" pos="15960" len="23"/>
          <note pan="0" key="77" vol="100" pos="15984" len="23"/>
          <note pan="0" key="75" vol="100" pos="16008" len="23"/>
          <note pan="0" key="77" vol="100" pos="16032" len="47"/>
          <note pan="0" key="75" vol="100" pos="16080" len="23"/>
          <note pan="0" key="77" vol="100" pos="16104" len="23"/>
          <note pan="0" key="80" vol="100" pos="16128" len="23"/>
          <note pan="0" key="82" vol="100" pos="16152" len="23"/>
          <note pan="0" key="77" vol="100" pos="16176" len="23"/>
          <note pan="0" key="75" vol="100" pos="16200" len="23"/>
          <note pan="0" key="77" vol="100" pos="16224" len="47"/>
          <note pan="0" key="70" vol="100" pos="16272" len="23"/>
          <note pan="0" key="77" vol="100" pos="16296" len="23"/>
          <note pan="0" key="75" vol="100" pos="16320" len="23"/>
          <note pan="0" key="73" vol="100" pos="16344" len="23"/>
          <note pan="0" key="72" vol="100" pos="16368" len="23"/>
          <note pan="0" key="68" vol="100" pos="16392" len="23"/>
          <note pan="0" key="70" vol="100" pos="16416" len="41"/>
          <note pan="0" key="70" vol="100" pos="16464" len="23"/>
          <note pan="0" key="73" vol="100" pos="16488" len="23"/>
          <note pan="0" key="72" vol="100" pos="16512" len="23"/>
          <note pan="0" key="73" vol="100" pos="16536" len="23"/>
          <note pan="0" key="75" vol="100" pos="16560" len="23"/>
          <note pan="0" key="77" vol="100" pos="16584" len="23"/>
          <note pan="0" key="70" vol="100" pos="16608" len="47"/>
          <note pan="0" key="77" vol="100" pos="16656" len="23"/>
          <note pan="0" key="80" vol="100" pos="16680" len="23"/>
          <note pan="0" key="80" vol="100" pos="16704" len="23"/>
          <note pan="0" key="82" vol="100" pos="16728" len="23"/>
          <note pan="0" key="77" vol="100" pos="16752" len="23"/>
          <note pan="0" key="75" vol="100" pos="16776" len="23"/>
          <note pan="0" key="77" vol="100" pos="16800" len="47"/>
          <note pan="0" key="75" vol="100" pos="16848" len="23"/>
          <note pan="0" key="77" vol="100" pos="16872" len="23"/>
          <note pan="0" key="80" vol="100" pos="16896" len="23"/>
          <note pan="0" key="82" vol="100" pos="16920" len="23"/>
          <note pan="0" key="77" vol="100" pos="16944" len="23"/>
          <note pan="0" key="75" vol="100" pos="16968" len="23"/>
          <note pan="0" key="77" vol="100" pos="16992" len="47"/>
          <note pan="0" key="70" vol="100" pos="17040" len="23"/>
          <note pan="0" key="77" vol="100" pos="17064" len="23"/>
          <note pan="0" key="75" vol="100" pos="17088" len="23"/>
          <note pan="0" key="73" vol="100" pos="17112" len="23"/>
          <note pan="0" key="72" vol="100" pos="17136" len="23"/>
          <note pan="0" key="68" vol="100" pos="17160" len="23"/>
          <note pan="0" key="70" vol="100" pos="17184" len="41"/>
          <note pan="0" key="70" vol="100" pos="17232" len="23"/>
          <note pan="0" key="73" vol="100" pos="17256" len="23"/>
          <note pan="0" key="72" vol="100" pos="17280" len="23"/>
          <note pan="0" key="73" vol="100" pos="17304" len="23"/>
          <note pan="0" key="75" vol="100" pos="17328" len="23"/>
          <note pan="0" key="77" vol="100" pos="17352" len="23"/>
          <note pan="0" key="70" vol="100" pos="17376" len="47"/>
          <note pan="0" key="77" vol="100" pos="17424" len="23"/>
          <note pan="0" key="80" vol="100" pos="17448" len="23"/>
          <note pan="0" key="80" vol="100" pos="17472" len="23"/>
          <note pan="0" key="82" vol="100" pos="17496" len="23"/>
          <note pan="0" key="77" vol="100" pos="17520" len="23"/>
          <note pan="0" key="75" vol="100" pos="17544" len="23"/>
          <note pan="0" key="77" vol="100" pos="17568" len="47"/>
          <note pan="0" key="75" vol="100" pos="17616" len="23"/>
          <note pan="0" key="77" vol="100" pos="17640" len="23"/>
          <note pan="0" key="80" vol="100" pos="17664" len="23"/>
          <note pan="0" key="82" vol="100" pos="17688" len="23"/>
          <note pan="0" key="77" vol="100" pos="17712" len="23"/>
          <note pan="0" key="75" vol="100" pos="17736" len="23"/>
          <note pan="0" key="77" vol="100" pos="17760" len="47"/>
          <note pan="0" key="70" vol="100" pos="17808" len="23"/>
          <note pan="0" key="77" vol="100" pos="17832" len="23"/>
          <note pan="0" key="75" vol="100" pos="17856" len="23"/>
          <note pan="0" key="73" vol="100" pos="17880" len="23"/>
          <note pan="0" key="72" vol="100" pos="17904" len="23"/>
          <note pan="0" key="68" vol="100" pos="17928" len="23"/>
          <note pan="0" key="70" vol="100" pos="17952" len="41"/>
          <note pan="0" key="70" vol="100" pos="18000" len="23"/>
          <note pan="0" key="73" vol="100" pos="18024" len="23"/>
          <note pan="0" key="72" vol="100" pos="18048" len="23"/>
          <note pan="0" key="73" vol="100" pos="18072" len="23"/>
          <note pan="0" key="75" vol="100" pos="18096" len="23"/>
          <note pan="0" key="77" vol="100" pos="18120" len="23"/>
          <note pan="0" key="70" vol="100" pos="18144" len="47"/>
          <note pan="0" key="77" vol="100" pos="18192" len="23"/>
          <note pan="0" key="80" vol="100" pos="18216" len="23"/>
          <note pan="0" key="80" vol="100" pos="18240" len="23"/>
          <note pan="0" key="82" vol="100" pos="18264" len="23"/>
          <note pan="0" key="77" vol="100" pos="18288" len="23"/>
          <note pan="0" key="75" vol="100" pos="18312" len="23"/>
          <note pan="0" key="77" vol="100" pos="18336" len="47"/>
          <note pan="0" key="75" vol="100" pos="18384" len="23"/>
          <note pan="0" key="77" vol="100" pos="18408" len="23"/>
          <note pan="0" key="80" vol="100" pos="18432" len="23"/>
          <note pan="0" key="82" vol="100" pos="18456" len="23"/>
          <note pan="0" key="77" vol="100" pos="18480" len="23"/>
          <note pan="0" key="75" vol="100" pos="18504" len="23"/>
          <note pan="0" key="77" vol="100" pos="18528" len="47"/>
          <note pan="0" key="82" vol="100" pos="18576" len="23"/>
          <note pan="0" key="84" vol="100" pos="18600" len="23"/>
          <note pan="0" key="85" vol="100" pos="18624" len="23"/>
          <note pan="0" key="84" vol="100" pos="18648" len="23"/>
          <note pan="0" key="82" vol="100" pos="18672" len="23"/>
          <note pan="0" key="80" vol="100" pos="18696" len="23"/>
          <note pan="0" key="77" vol="100" pos="18720" len="47"/>
          <note pan="0" key="75" vol="100" pos="18768" len="23"/>
          <note pan="0" key="77" vol="100" pos="18792" len="23"/>
          <note pan="0" key="75" vol="100" pos="18816" len="23"/>
          <note pan="0" key="73" vol="100" pos="18840" len="23"/>
          <note pan="0" key="72" vol="100" pos="18864" len="23"/>
          <note pan="0" key="68" vol="100" pos="18888" len="23"/>
          <note pan="0" key="70" vol="100" pos="18912" len="47"/>
          <note pan="0" key="78" vol="100" pos="18960" len="5"/>
          <note pan="0" key="66" vol="100" pos="18966" len="17"/>
          <note pan="0" key="81" vol="100" pos="18984" len="5"/>
          <note pan="0" key="69" vol="100" pos="18990" len="17"/>
          <note pan="0" key="81" vol="100" pos="19008" len="5"/>
          <note pan="0" key="69" vol="100" pos="19014" len="17"/>
          <note pan="0" key="83" vol="100" pos="19032" len="5"/>
          <note pan="0" key="71" vol="100" pos="19038" len="17"/>
          <note pan="0" key="78" vol="100" pos="19056" len="5"/>
          <note pan="0" key="66" vol="100" pos="19062" len="17"/>
          <note pan="0" key="76" vol="100" pos="19080" len="5"/>
          <note pan="0" key="64" vol="100" pos="19086" len="17"/>
          <note pan="0" key="78" vol="100" pos="19104" len="5"/>
          <note pan="0" key="66" vol="100" pos="19110" len="41"/>
          <note pan="0" key="76" vol="100" pos="19152" len="5"/>
          <note pan="0" key="64" vol="100" pos="19158" len="17"/>
          <note pan="0" key="78" vol="100" pos="19176" len="5"/>
          <note pan="0" key="66" vol="100" pos="19182" len="17"/>
          <note pan="0" key="81" vol="100" pos="19200" len="5"/>
          <note pan="0" key="69" vol="100" pos="19206" len="17"/>
          <note pan="0" key="83" vol="100" pos="19224" len="5"/>
          <note pan="0" key="71" vol="100" pos="19230" len="17"/>
          <note pan="0" key="78" vol="100" pos="19248" len="5"/>
          <note pan="0" key="66" vol="100" pos="19254" len="17"/>
          <note pan="0" key="76" vol="100" pos="19272" len="5"/>
          <note pan="0" key="64" vol="100" pos="19278" len="17"/>
          <note pan="0" key="78" vol="100" pos="19296" len="5"/>
          <note pan="0" key="66" vol="100" pos="19302" len="41"/>
          <note pan="0" key="71" vol="100" pos="19344" len="5"/>
          <note pan="0" key="59" vol="100" pos="19350" len="17"/>
          <note pan="0" key="78" vol="100" pos="19368" len="5"/>
          <note pan="0" key="66" vol="100" pos="19374" len="17"/>
          <note pan="0" key="76" vol="100" pos="19392" len="5"/>
          <note pan="0" key="64" vol="100" pos="19398" len="17"/>
          <note pan="0" key="74" vol="100" pos="19416" len="5"/>
          <note pan="0" key="62" vol="100" pos="19422" len="17"/>
          <note pan="0" key="73" vol="100" pos="19440" len="5"/>
          <note pan="0" key="61" vol="100" pos="19446" len="17"/>
          <note pan="0" key="69" vol="100" pos="19464" len="5"/>
          <note pan="0" key="57" vol="100" pos="19470" len="17"/>
          <note pan="0" key="71" vol="100" pos="19488" len="5"/>
          <note pan="0" key="59" vol="100" pos="19494" len="41"/>
          <note pan="0" key="71" vol="100" pos="19536" len="5"/>
          <note pan="0" key="59" vol="100" pos="19542" len="17"/>
          <note pan="0" key="74" vol="100" pos="19560" len="5"/>
          <note pan="0" key="62" vol="100" pos="19566" len="17"/>
          <note pan="0" key="73" vol="100" pos="19584" len="5"/>
          <note pan="0" key="61" vol="100" pos="19590" len="17"/>
          <note pan="0" key="74" vol="100" pos="19608" len="5"/>
          <note pan="0" key="62" vol="100" pos="19614" len="17"/>
          <note pan="0" key="76" vol="100" pos="19632" len="5"/>
          <note pan="0" key="64" vol="100" pos="19638" len="17"/>
          <note pan="0" key="78" vol="100" pos="19656" len="5"/>
          <note pan="0" key="66" vol="100" pos="19662" len="17"/>
          <note pan="0" key="71" vol="100" pos="19680" len="5"/>
          <note pan="0" key="59" vol="100" pos="19686" len="41"/>
          <note pan="0" key="78" vol="100" pos="19728" len="5"/>
          <note pan="0" key="66" vol="100" pos="19734" len="17"/>
          <note pan="0" key="81" vol="100" pos="19752" len="5"/>
          <note pan="0" key="69" vol="100" pos="19758" len="17"/>
          <note pan="0" key="81" vol="100" pos="19776" len="5"/>
          <note pan="0" key="69" vol="100" pos="19782" len="17"/>
          <note pan="0" key="83" vol="100" pos="19800" len="5"/>
          <note pan="0" key="71" vol="100" pos="19806" len="17"/>
          <note pan="0" key="78" vol="100" pos="19824" len="5"/>
          <note pan="0" key="66" vol="100" pos="19830" len="17"/>
          <note pan="0" key="76" vol="100" pos="19848" len="5"/>
          <note pan="0" key="64" vol="100" pos="19854" len="17"/>
          <note pan="0" key="78" vol="100" pos="19872" len="5"/>
          <note pan="0" key="66" vol="100" pos="19878" len="41"/>
          <note pan="0" key="76" vol="100" pos="19920" len="5"/>
          <note pan="0" key="64" vol="100" pos="19926" len="17"/>
          <note pan="0" key="78" vol="100" pos="19944" len="5"/>
          <note pan="0" key="66" vol="100" pos="19950" len="17"/>
          <note pan="0" key="81" vol="100" pos="19968" len="5"/>
          <note pan="0" key="69" vol="100" pos="19974" len="17"/>
          <note pan="0" key="83" vol="100" pos="19992" len="5"/>
          <note pan="0" key="71" vol="100" pos="19998" len="17"/>
          <note pan="0" key="78" vol="100" pos="20016" len="5"/>
          <note pan="0" key="66" vol="100" pos="20022" len="17"/>
          <note pan="0" key="76" vol="100" pos="20040" len="5"/>
          <note pan="0" key="64" vol="100" pos="20046" len="17"/>
          <note pan="0" key="78" vol="100" pos="20064" len="5"/>
          <note pan="0" key="66" vol="100" pos="20070" len="41"/>
          <note pan="0" key="71" vol="100" pos="20112" len="5"/>
          <note pan="0" key="59" vol="100" pos="20118" len="17"/>
          <note pan="0" key="78" vol="100" pos="20136" len="5"/>
          <note pan="0" key="66" vol="100" pos="20142" len="17"/>
          <note pan="0" key="76" vol="100" pos="20160" len="5"/>
          <note pan="0" key="64" vol="100" pos="20166" len="17"/>
          <note pan="0" key="74" vol="100" pos="20184" len="5"/>
          <note pan="0" key="62" vol="100" pos="20190" len="17"/>
          <note pan="0" key="73" vol="100" pos="20208" len="5"/>
          <note pan="0" key="61" vol="100" pos="20214" len="17"/>
          <note pan="0" key="69" vol="100" pos="20232" len="5"/>
          <note pan="0" key="57" vol="100" pos="20238" len="17"/>
          <note pan="0" key="71" vol="100" pos="20256" len="5"/>
          <note pan="0" key="59" vol="100" pos="20262" len="41"/>
          <note pan="0" key="71" vol="100" pos="20304" len="5"/>
          <note pan="0" key="59" vol="100" pos="20310" len="17"/>
          <note pan="0" key="74" vol="100" pos="20328" len="5"/>
          <note pan="0" key="62" vol="100" pos="20334" len="17"/>
          <note pan="0" key="73" vol="100" pos="20352" len="5"/>
          <note pan="0" key="61" vol="100" pos="20358" len="17"/>
          <note pan="0" key="74" vol="100" pos="20376" len="5"/>
          <note pan="0" key="62" vol="100" pos="20382" len="17"/>
          <note pan="0" key="76" vol="100" pos="20400" len="5"/>
          <note pan="0" key="64" vol="100" pos="20406" len="17"/>
          <note pan="0" key="78" vol="100" pos="20424" len="5"/>
          <note pan="0" key="66" vol="100" pos="20430" len="17"/>
          <note pan="0" key="71" vol="100" pos="20448" len="5"/>
          <note pan="0" key="59" vol="100" pos="20454" len="41"/>
          <note pan="0" key="78" vol="100" pos="20496" len="5"/>
          <note pan="0" key="66" vol="100" pos="20502" len="17"/>
          <note pan="0" key="81" vol="100" pos="20520" len="5"/>
          <note pan="0" key="69" vol="100" pos="20526" len="17"/>
          <note pan="0" key="81" vol="100" pos="20544" len="5"/>
          <note pan="0" key="69" vol="100" pos="20550" len="17"/>
          <note pan="0" key="83" vol="100" pos="20568" len="5"/>
          <note pan="0" key="71" vol="100" pos="20574" len="17"/>
          <note pan="0" key="78" vol="100" pos="20592" len="5"/>
          <note pan="0" key="66" vol="100" pos="20598" len="17"/>
          <note pan="0" key="76" vol="100" pos="20616" len="5"/>
          <note pan="0" key="64" vol="100" pos="20622" len="17"/>
          <note pan="0" key="78" vol="100" pos="20640" len="5"/>
          <note pan="0" key="66" vol="100" pos="20646" len="41"/>
          <note pan="0" key="76" vol="100" pos="20688" len="5"/>
          <note pan="0" key="64" vol="100" pos="20694" len="17"/>
          <note pan="0" key="78" vol="100" pos="20712" len="5"/>
          <note pan="0" key="66" vol="100" pos="20718" len="17"/>
          <note pan="0" key="81" vol="100" pos="20736" len="5"/>
          <note pan="0" key="69" vol="100" pos="20742" len="17"/>
          <note pan="0" key="83" vol="100" pos="20760" len="5"/>
          <note pan="0" key="71" vol="100" pos="20766" len="17"/>
          <note pan="0" key="78" vol="100" pos="20784" len="5"/>
          <note pan="0" key="66" vol="100" pos="20790" len="17"/>
          <note pan="0" key="76" vol="100" pos="20808" len="5"/>
          <note pan="0" key="64" vol="100" pos="20814" len="17"/>
          <note pan="0" key="78" vol="100" pos="20832" len="5"/>
          <note pan="0" key="66" vol="100" pos="20838" len="41"/>
          <note pan="0" key="71" vol="100" pos="20880" len="5"/>
          <note pan="0" key="59" vol="100" pos="20886" len="17"/>
          <note pan="0" key="78" vol="100" pos="20904" len="5"/>
          <note pan="0" key="66" vol="100" pos="20910" len="17"/>
          <note pan="0" key="76" vol="100" pos="20928" len="5"/>
          <note pan="0" key="64" vol="100" pos="20934" len="17"/>
          <note pan="0" key="74" vol="100" pos="20952" len="5"/>
          <note pan="0" key="62" vol="100" pos="20958" len="17"/>
          <note pan="0" key="73" vol="100" pos="20976" len="5"/>
          <note pan="0" key="61" vol="100" pos="20982" len="17"/>
          <note pan="0" key="69" vol="100" pos="21000" len="5"/>
          <note pan="0" key="57" vol="100" pos="21006" len="17"/>
          <note pan="0" key="71" vol="100" pos="21024" len="5"/>
          <note pan="0" key="59" vol="100" pos="21030" len="41"/>
          <note pan="0" key="71" vol="100" pos="21072" len="5"/>
          <note pan="0" key="59" vol="100" pos="21078" len="17"/>
          <note pan="0" key="74" vol="100" pos="21096" len="5"/>
          <note pan="0" key="62" vol="100" pos="21102" len="17"/>
          <note pan="0" key="73" vol="100" pos="21120" len="5"/>
          <note pan="0" key="61" vol="100" pos="21126" len="17"/>
          <note pan="0" key="74" vol="100" pos="21144" len="5"/>
          <note pan="0" key="62" vol="100" pos="21150" len="17"/>
          <note pan="0" key="76" vol="100" pos="21168" len="5"/>
          <note pan="0" key="64" vol="100" pos="21174" len="17"/>
          <note pan="0" key="78" vol="100" pos="21192" len="5"/>
          <note pan="0" key="66" vol="100" pos="21198" len="17"/>
          <note pan="0" key="71" vol="100" pos="21216" len="5"/>
          <note pan="0" key="59" vol="100" pos="21222" len="41"/>
          <note pan="0" key="78" vol="100" pos="21264" len="5"/>
          <note pan="0" key="66" vol="100" pos="21270" len="17"/>
          <note pan="0" key="81" vol="100" pos="21288" len="5"/>
          <note pan="0" key="69" vol="100" pos="21294" len="17"/>
          <note pan="0" key="81" vol="100" pos="21312" len="5"/>
          <note pan="0" key="69" vol="100" pos="21318" len="17"/>
          <note pan="0" key="83" vol="100" pos="21336" len="5"/>
          <note pan="0" key="71" vol="100" pos="21342" len="17"/>
          <note pan="0" key="78" vol="100" pos="21360" len="5"/>
          <note pan="0" key="66" vol="100" pos="21366" len="17"/>
          <note pan="0" key="76" vol="100" pos="21384" len="5"/>
          <note pan="0" key="64" vol="100" pos="21390" len="17"/>
          <note pan="0" key="78" vol="100" pos="21408" len="5"/>
          <note pan="0" key="66" vol="100" pos="21414" len="41"/>
          <note pan="0" key="76" vol="100" pos="21456" len="5"/>
          <note pan="0" key="64" vol="100" pos="21462" len="17"/>
          <note pan="0" key="78" vol="100" pos="21480" len="5"/>
          <note pan="0" key="66" vol="100" pos="21486" len="17"/>
          <note pan="0" key="81" vol="100" pos="21504" len="5"/>
          <note pan="0" key="69" vol="100" pos="21510" len="17"/>
          <note pan="0" key="83" vol="100" pos="21528" len="5"/>
          <note pan="0" key="71" vol="100" pos="21534" len="17"/>
          <note pan="0" key="78" vol="100" pos="21552" len="5"/>
          <note pan="0" key="66" vol="100" pos="21558" len="17"/>
          <note pan="0" key="76" vol="100" pos="21576" len="5"/>
          <note pan="0" key="64" vol="100" pos="21582" len="17"/>
          <note pan="0" key="78" vol="100" pos="21600" len="5"/>
          <note pan="0" key="66" vol="100" pos="21606" len="41"/>
          <note pan="0" key="83" vol="100" pos="21648" len="5"/>
          <note pan="0" key="71" vol="100" pos="21654" len="17"/>
          <note pan="0" key="85" vol="100" pos="21672" len="5"/>
          <note pan="0" key="73" vol="100" pos="21678" len="17"/>
          <note pan="0" key="86" vol="100" pos="21696" len="5"/>
          <note pan="0" key="74" vol="100" pos="21702" len="17"/>
          <note pan="0" key="85" vol="100" pos="21720" len="5"/>
          <note pan="0" key="73" vol="100" pos="21726" len="17"/>
          <note pan="0" key="83" vol="100" pos="21744" len="5"/>
          <note pan="0" key="71" vol="100" pos="21750" len="17"/>
          <note pan="0" key="81" vol="100" pos="21768" len="5"/>
          <note pan="0" key="69" vol="100" pos="21774" len="17"/>
          <note pan="0" key="78" vol="100" pos="21792" len="5"/>
          <note pan="0" key="66" vol="100" pos="21798" len="41"/>
          <note pan="0" key="76" vol="100" pos="21840" len="5"/>
          <note pan="0" key="64" vol="100" pos="21846" len="17"/>
          <note pan="0" key="78" vol="100" pos="21864" len="5"/>
          <note pan="0" key="66" vol="100" pos="21870" len="17"/>
          <note pan="0" key="76" vol="100" pos="21888" len="5"/>
          <note pan="0" key="64" vol="100" pos="21894" len="17"/>
          <note pan="0" key="74" vol="100" pos="21912" len="5"/>
          <note pan="0" key="62" vol="100" pos="21918" len="17"/>
          <note pan="0" key="73" vol="100" pos="21936" len="5"/>
          <note pan="0" key="61" vol="100" pos="21942" len="17"/>
          <note pan="0" key="69" vol="100" pos="21960" len="5"/>
          <note pan="0" key="57" vol="100" pos="21966" len="17"/>
          <note pan="0" key="71" vol="100" pos="21984" len="5"/>
          <note pan="0" key="59" vol="100" pos="21990" len="77"/>
          <note pan="0" key="47" vol="100" pos="22122" len="5"/>
          <note pan="0" key="49" vol="100" pos="22128" len="5"/>
          <note pan="0" key="47" vol="100" pos="22158" len="5"/>
          <note pan="0" key="49" vol="100" pos="22164" len="5"/>
          <note pan="0" key="47" vol="100" pos="22182" len="5"/>
          <note pan="0" key="49" vol="100" pos="22188" len="5"/>
          <note pan="0" key="47" vol="100" pos="22218" len="5"/>
          <note pan="0" key="49" vol="100" pos="22224" len="5"/>
          <note pan="0" key="47" vol="100" pos="22254" len="5"/>
          <note pan="0" key="49" vol="100" pos="22260" len="5"/>
          <note pan="0" key="47" vol="100" pos="22278" len="5"/>
          <note pan="0" key="49" vol="100" pos="22284" len="5"/>
          <note pan="0" key="47" vol="100" pos="22314" len="5"/>
          <note pan="0" key="49" vol="100" pos="22320" len="5"/>
          <note pan="0" key="47" vol="100" pos="22350" len="5"/>
          <note pan="0" key="49" vol="100" pos="22356" len="5"/>
          <note pan="0" key="47" vol="100" pos="22374" len="5"/>
          <note pan="0" key="49" vol="100" pos="22380" len="5"/>
          <note pan="0" key="47" vol="100" pos="22410" len="5"/>
          <note pan="0" key="49" vol="100" pos="22416" len="5"/>
          <note pan="0" key="47" vol="100" pos="22446" len="5"/>
          <note pan="0" key="49" vol="100" pos="22452" len="5"/>
          <note pan="0" key="47" vol="100" pos="22470" len="5"/>
          <note pan="0" key="49" vol="100" pos="22476" len="5"/>
          <note pan="0" key="47" vol="100" pos="22506" len="5"/>
          <note pan="0" key="49" vol="100" pos="22512" len="5"/>
          <note pan="0" key="47" vol="100" pos="22542" len="5"/>
          <note pan="0" key="49" vol="100" pos="22548" len="5"/>
          <note pan="0" key="47" vol="100" pos="22566" len="5"/>
          <note pan="0" key="49" vol="100" pos="22572" len="5"/>
          <note pan="0" key="47" vol="100" pos="22602" len="5"/>
          <note pan="0" key="49" vol="100" pos="22608" len="5"/>
          <note pan="0" key="47" vol="100" pos="22638" len="5"/>
          <note pan="0" key="49" vol="100" pos="22644" len="5"/>
          <note pan="0" key="47" vol="100" pos="22662" len="5"/>
          <note pan="0" key="49" vol="100" pos="22668" len="5"/>
          <note pan="0" key="47" vol="100" pos="22698" len="5"/>
          <note pan="0" key="49" vol="100" pos="22704" len="5"/>
          <note pan="0" key="47" vol="100" pos="22734" len="5"/>
          <note pan="0" key="49" vol="100" pos="22740" len="5"/>
          <note pan="0" key="47" vol="100" pos="22758" len="5"/>
          <note pan="0" key="49" vol="100" pos="22764" len="5"/>
          <note pan="0" key="47" vol="100" pos="22794" len="5"/>
          <note pan="0" key="49" vol="100" pos="22800" len="5"/>
          <note pan="0" key="47" vol="100" pos="22830" len="5"/>
          <note pan="0" key="49" vol="100" pos="22836" len="5"/>
        </pattern>
      </track>
      <track muted="1" type="0" name="">
        <instrumenttrack pan="0" fxch="0" pitch="0" basenote="57" vol="100">
          <instrument name="sf2player">
            <sf2player patch="80" chorusLevel="2" chorusDepth="8" reverbOn="0" reverbRoomSize="0.2" chorusOn="0" chorusSpeed="0.3" reverbDamping="0" chorusNum="3" reverbLevel="0.9" bank="0" reverbWidth="0.5" src="" gain="1"/>
          </instrument>
          <eldata fres="0.5" ftype="0" fcut="14000" fwet="0">
            <elvol lspd_denominator="4" pdel="0" userwavefile="" dec="0.5" lamt="0" syncmode="0" latt="0" rel="0.1" sus="0.5" amt="0" x100="0" att="0" lpdel="0" hold="0.5" lshp="0" lspd="0.1" ctlenvamt="0" lspd_numerator="4"/>
            <elcut lspd_denominator="4" pdel="0" userwavefile="" dec="0.5" lamt="0" syncmode="0" latt="0" rel="0.1" sus="0.5" amt="0" x100="0" att="0" lpdel="0" hold="0.5" lshp="0" lspd="0.1" ctlenvamt="0" lspd_numerator="4"/>
            <elres lspd_denominator="4" pdel="0" userwavefile="" dec="0.5" lamt="0" syncmode="0" latt="0" rel="0.1" sus="0.5" amt="0" x100="0" att="0" lpdel="0" hold="0.5" lshp="0" lspd="0.1" ctlenvamt="0" lspd_numerator="4"/>
          </eldata>
          <chordcreator chord="0" chordrange="1" chord-enabled="0"/>
          <arpeggiator arptime="100" arprange="1" arptime_denominator="4" syncmode="0" arpmode="0" arp-enabled="0" arp="0" arptime_numerator="4" arpdir="0" arpgate="100"/>
          <midiport inputcontroller="0" fixedoutputvelocity="-1" inputchannel="0" outputcontroller="0" writable="0" outputchannel="1" fixedinputvelocity="-1" fixedoutputnote="-1" outputprogram="1" readable="0"/>
          <fxchain numofeffects="0" enabled="0"/>
        </instrumenttrack>
        <pattern steps="16" muted="0" type="1" name="" pos="0" len="192" frozen="0">
          <note pan="0" key="46" vol="100" pos="0" len="5"/>
          <note pan="0" key="41" vol="100" pos="6" len="5"/>
        </pattern>
        <pattern steps="16" muted="0" type="1" name="" pos="192" len="384" frozen="0">
          <note pan="0" key="46" vol="100" pos="168" len="5"/>
          <note pan="0" key="41" vol="100" pos="174" len="5"/>
          <note pan="0" key="46" vol="100" pos="192" len="5"/>
          <note pan="0" key="41" vol="100" pos="198" len="5"/>
        </pattern>
        <pattern steps="16" muted="0" type="1" name="" pos="768" len="192" frozen="0">
          <note pan="0" key="46" vol="100" pos="0" len="5"/>
          <note pan="0" key="41" vol="100" pos="6" len="5"/>
        </pattern>
        <pattern steps="16" muted="0" type="1" name="" pos="960" len="22848" frozen="0">
          <note pan="0" key="46" vol="100" pos="144" len="5"/>
          <note pan="0" key="41" vol="100" pos="150" len="5"/>
          <note pan="0" key="46" vol="100" pos="168" len="5"/>
          <note pan="0" key="41" vol="100" pos="174" len="5"/>
          <note pan="0" key="46" vol="100" pos="192" len="5"/>
          <note pan="0" key="41" vol="100" pos="198" len="5"/>
          <note pan="0" key="46" vol="100" pos="384" len="5"/>
          <note pan="0" key="41" vol="100" pos="390" len="5"/>
          <note pan="0" key="46" vol="100" pos="432" len="5"/>
          <note pan="0" key="41" vol="100" pos="438" len="5"/>
          <note pan="0" key="41" vol="100" pos="480" len="5"/>
          <note pan="0" key="41" vol="100" pos="492" len="5"/>
          <note pan="0" key="41" vol="100" pos="504" len="5"/>
          <note pan="0" key="41" vol="100" pos="516" len="5"/>
          <note pan="0" key="53" vol="100" pos="528" len="23"/>
          <note pan="0" key="41" vol="100" pos="576" len="11"/>
          <note pan="0" key="29" vol="100" pos="588" len="5"/>
          <note pan="0" key="17" vol="100" pos="594" len="5"/>
          <note pan="0" key="41" vol="100" pos="600" len="5"/>
          <note pan="0" key="17" vol="100" pos="606" len="5"/>
          <note pan="0" key="53" vol="100" pos="612" len="11"/>
          <note pan="0" key="29" vol="100" pos="624" len="5"/>
          <note pan="0" key="17" vol="100" pos="630" len="5"/>
          <note pan="0" key="53" vol="100" pos="636" len="5"/>
          <note pan="0" key="17" vol="100" pos="642" len="5"/>
          <note pan="0" key="51" vol="100" pos="648" len="5"/>
          <note pan="0" key="15" vol="100" pos="654" len="5"/>
          <note pan="0" key="53" vol="100" pos="660" len="5"/>
          <note pan="0" key="17" vol="100" pos="666" len="5"/>
          <note pan="0" key="41" vol="100" pos="672" len="11"/>
          <note pan="0" key="29" vol="100" pos="684" len="5"/>
          <note pan="0" key="17" vol="100" pos="690" len="5"/>
          <note pan="0" key="41" vol="100" pos="696" len="5"/>
          <note pan="0" key="17" vol="100" pos="702" len="5"/>
          <note pan="0" key="53" vol="100" pos="708" len="11"/>
          <note pan="0" key="29" vol="100" pos="720" len="5"/>
          <note pan="0" key="17" vol="100" pos="726" len="5"/>
          <note pan="0" key="53" vol="100" pos="732" len="5"/>
          <note pan="0" key="17" vol="100" pos="738" len="5"/>
          <note pan="0" key="51" vol="100" pos="744" len="5"/>
          <note pan="0" key="15" vol="100" pos="750" len="5"/>
          <note pan="0" key="53" vol="100" pos="756" len="5"/>
          <note pan="0" key="17" vol="100" pos="762" len="5"/>
          <note pan="0" key="41" vol="100" pos="768" len="11"/>
          <note pan="0" key="29" vol="100" pos="780" len="5"/>
          <note pan="0" key="17" vol="100" pos="786" len="5"/>
          <note pan="0" key="41" vol="100" pos="792" len="5"/>
          <note pan="0" key="17" vol="100" pos="798" len="5"/>
          <note pan="0" key="53" vol="100" pos="804" len="11"/>
          <note pan="0" key="29" vol="100" pos="816" len="5"/>
          <note pan="0" key="17" vol="100" pos="822" len="5"/>
          <note pan="0" key="53" vol="100" pos="828" len="5"/>
          <note pan="0" key="17" vol="100" pos="834" len="5"/>
          <note pan="0" key="51" vol="100" pos="840" len="5"/>
          <note pan="0" key="15" vol="100" pos="846" len="5"/>
          <note pan="0" key="53" vol="100" pos="852" len="5"/>
          <note pan="0" key="17" vol="100" pos="858" len="5"/>
          <note pan="0" key="44" vol="100" pos="864" len="11"/>
          <note pan="0" key="25" vol="100" pos="876" len="5"/>
          <note pan="0" key="37" vol="100" pos="882" len="5"/>
          <note pan="0" key="53" vol="100" pos="888" len="5"/>
          <note pan="0" key="37" vol="100" pos="894" len="5"/>
          <note pan="0" key="56" vol="100" pos="900" len="5"/>
          <note pan="0" key="37" vol="100" pos="906" len="5"/>
          <note pan="0" key="46" vol="100" pos="912" len="11"/>
          <note pan="0" key="27" vol="100" pos="924" len="5"/>
          <note pan="0" key="39" vol="100" pos="930" len="5"/>
          <note pan="0" key="56" vol="100" pos="936" len="5"/>
          <note pan="0" key="39" vol="100" pos="942" len="5"/>
          <note pan="0" key="58" vol="100" pos="948" len="5"/>
          <note pan="0" key="39" vol="100" pos="954" len="5"/>
          <note pan="0" key="41" vol="100" pos="960" len="11"/>
          <note pan="0" key="29" vol="100" pos="972" len="5"/>
          <note pan="0" key="17" vol="100" pos="978" len="5"/>
          <note pan="0" key="41" vol="100" pos="984" len="5"/>
          <note pan="0" key="17" vol="100" pos="990" len="5"/>
          <note pan="0" key="53" vol="100" pos="996" len="11"/>
          <note pan="0" key="29" vol="100" pos="1008" len="5"/>
          <note pan="0" key="17" vol="100" pos="1014" len="5"/>
          <note pan="0" key="53" vol="100" pos="1020" len="5"/>
          <note pan="0" key="17" vol="100" pos="1026" len="5"/>
          <note pan="0" key="51" vol="100" pos="1032" len="5"/>
          <note pan="0" key="15" vol="100" pos="1038" len="5"/>
          <note pan="0" key="53" vol="100" pos="1044" len="5"/>
          <note pan="0" key="17" vol="100" pos="1050" len="5"/>
          <note pan="0" key="41" vol="100" pos="1056" len="11"/>
          <note pan="0" key="29" vol="100" pos="1068" len="5"/>
          <note pan="0" key="17" vol="100" pos="1074" len="5"/>
          <note pan="0" key="41" vol="100" pos="1080" len="5"/>
          <note pan="0" key="17" vol="100" pos="1086" len="5"/>
          <note pan="0" key="53" vol="100" pos="1092" len="11"/>
          <note pan="0" key="29" vol="100" pos="1104" len="5"/>
          <note pan="0" key="17" vol="100" pos="1110" len="5"/>
          <note pan="0" key="53" vol="100" pos="1116" len="5"/>
          <note pan="0" key="17" vol="100" pos="1122" len="5"/>
          <note pan="0" key="51" vol="100" pos="1128" len="5"/>
          <note pan="0" key="15" vol="100" pos="1134" len="5"/>
          <note pan="0" key="53" vol="100" pos="1140" len="5"/>
          <note pan="0" key="17" vol="100" pos="1146" len="5"/>
          <note pan="0" key="41" vol="100" pos="1152" len="11"/>
          <note pan="0" key="29" vol="100" pos="1164" len="5"/>
          <note pan="0" key="17" vol="100" pos="1170" len="5"/>
          <note pan="0" key="41" vol="100" pos="1176" len="5"/>
          <note pan="0" key="17" vol="100" pos="1182" len="5"/>
          <note pan="0" key="53" vol="100" pos="1188" len="11"/>
          <note pan="0" key="29" vol="100" pos="1200" len="5"/>
          <note pan="0" key="17" vol="100" pos="1206" len="5"/>
          <note pan="0" key="53" vol="100" pos="1212" len="5"/>
          <note pan="0" key="17" vol="100" pos="1218" len="5"/>
          <note pan="0" key="51" vol="100" pos="1224" len="5"/>
          <note pan="0" key="15" vol="100" pos="1230" len="5"/>
          <note pan="0" key="53" vol="100" pos="1236" len="5"/>
          <note pan="0" key="17" vol="100" pos="1242" len="5"/>
          <note pan="0" key="46" vol="100" pos="1248" len="11"/>
          <note pan="0" key="25" vol="100" pos="1260" len="5"/>
          <note pan="0" key="37" vol="100" pos="1266" len="5"/>
          <note pan="0" key="56" vol="100" pos="1272" len="5"/>
          <note pan="0" key="37" vol="100" pos="1278" len="5"/>
          <note pan="0" key="58" vol="100" pos="1284" len="5"/>
          <note pan="0" key="37" vol="100" pos="1290" len="5"/>
          <note pan="0" key="44" vol="100" pos="1296" len="11"/>
          <note pan="0" key="27" vol="100" pos="1308" len="5"/>
          <note pan="0" key="39" vol="100" pos="1314" len="5"/>
          <note pan="0" key="53" vol="100" pos="1320" len="5"/>
          <note pan="0" key="39" vol="100" pos="1326" len="5"/>
          <note pan="0" key="56" vol="100" pos="1332" len="5"/>
          <note pan="0" key="39" vol="100" pos="1338" len="5"/>
          <note pan="0" key="41" vol="100" pos="1344" len="11"/>
          <note pan="0" key="29" vol="100" pos="1356" len="5"/>
          <note pan="0" key="17" vol="100" pos="1362" len="5"/>
          <note pan="0" key="41" vol="100" pos="1368" len="5"/>
          <note pan="0" key="17" vol="100" pos="1374" len="5"/>
          <note pan="0" key="53" vol="100" pos="1380" len="11"/>
          <note pan="0" key="29" vol="100" pos="1392" len="5"/>
          <note pan="0" key="17" vol="100" pos="1398" len="5"/>
          <note pan="0" key="53" vol="100" pos="1404" len="5"/>
          <note pan="0" key="17" vol="100" pos="1410" len="5"/>
          <note pan="0" key="51" vol="100" pos="1416" len="5"/>
          <note pan="0" key="15" vol="100" pos="1422" len="5"/>
          <note pan="0" key="53" vol="100" pos="1428" len="5"/>
          <note pan="0" key="17" vol="100" pos="1434" len="5"/>
          <note pan="0" key="41" vol="100" pos="1440" len="11"/>
          <note pan="0" key="29" vol="100" pos="1452" len="5"/>
          <note pan="0" key="17" vol="100" pos="1458" len="5"/>
          <note pan="0" key="41" vol="100" pos="1464" len="5"/>
          <note pan="0" key="17" vol="100" pos="1470" len="5"/>
          <note pan="0" key="53" vol="100" pos="1476" len="11"/>
          <note pan="0" key="29" vol="100" pos="1488" len="5"/>
          <note pan="0" key="17" vol="100" pos="1494" len="5"/>
          <note pan="0" key="53" vol="100" pos="1500" len="5"/>
          <note pan="0" key="17" vol="100" pos="1506" len="5"/>
          <note pan="0" key="51" vol="100" pos="1512" len="5"/>
          <note pan="0" key="15" vol="100" pos="1518" len="5"/>
          <note pan="0" key="53" vol="100" pos="1524" len="5"/>
          <note pan="0" key="17" vol="100" pos="1530" len="5"/>
          <note pan="0" key="41" vol="100" pos="1536" len="11"/>
          <note pan="0" key="29" vol="100" pos="1548" len="5"/>
          <note pan="0" key="17" vol="100" pos="1554" len="5"/>
          <note pan="0" key="41" vol="100" pos="1560" len="5"/>
          <note pan="0" key="17" vol="100" pos="1566" len="5"/>
          <note pan="0" key="53" vol="100" pos="1572" len="11"/>
          <note pan="0" key="29" vol="100" pos="1584" len="5"/>
          <note pan="0" key="17" vol="100" pos="1590" len="5"/>
          <note pan="0" key="53" vol="100" pos="1596" len="5"/>
          <note pan="0" key="17" vol="100" pos="1602" len="5"/>
          <note pan="0" key="51" vol="100" pos="1608" len="5"/>
          <note pan="0" key="15" vol="100" pos="1614" len="5"/>
          <note pan="0" key="53" vol="100" pos="1620" len="5"/>
          <note pan="0" key="17" vol="100" pos="1626" len="5"/>
          <note pan="0" key="44" vol="100" pos="1632" len="11"/>
          <note pan="0" key="25" vol="100" pos="1644" len="5"/>
          <note pan="0" key="37" vol="100" pos="1650" len="5"/>
          <note pan="0" key="53" vol="100" pos="1656" len="5"/>
          <note pan="0" key="37" vol="100" pos="1662" len="5"/>
          <note pan="0" key="56" vol="100" pos="1668" len="5"/>
          <note pan="0" key="37" vol="100" pos="1674" len="5"/>
          <note pan="0" key="46" vol="100" pos="1680" len="11"/>
          <note pan="0" key="27" vol="100" pos="1692" len="5"/>
          <note pan="0" key="39" vol="100" pos="1698" len="5"/>
          <note pan="0" key="56" vol="100" pos="1704" len="5"/>
          <note pan="0" key="39" vol="100" pos="1710" len="5"/>
          <note pan="0" key="58" vol="100" pos="1716" len="5"/>
          <note pan="0" key="39" vol="100" pos="1722" len="5"/>
          <note pan="0" key="41" vol="100" pos="1728" len="11"/>
          <note pan="0" key="29" vol="100" pos="1740" len="5"/>
          <note pan="0" key="17" vol="100" pos="1746" len="5"/>
          <note pan="0" key="41" vol="100" pos="1752" len="5"/>
          <note pan="0" key="17" vol="100" pos="1758" len="5"/>
          <note pan="0" key="53" vol="100" pos="1764" len="11"/>
          <note pan="0" key="29" vol="100" pos="1776" len="5"/>
          <note pan="0" key="17" vol="100" pos="1782" len="5"/>
          <note pan="0" key="53" vol="100" pos="1788" len="5"/>
          <note pan="0" key="17" vol="100" pos="1794" len="5"/>
          <note pan="0" key="51" vol="100" pos="1800" len="5"/>
          <note pan="0" key="15" vol="100" pos="1806" len="5"/>
          <note pan="0" key="53" vol="100" pos="1812" len="5"/>
          <note pan="0" key="17" vol="100" pos="1818" len="5"/>
          <note pan="0" key="41" vol="100" pos="1824" len="11"/>
          <note pan="0" key="29" vol="100" pos="1836" len="5"/>
          <note pan="0" key="17" vol="100" pos="1842" len="5"/>
          <note pan="0" key="41" vol="100" pos="1848" len="5"/>
          <note pan="0" key="17" vol="100" pos="1854" len="5"/>
          <note pan="0" key="53" vol="100" pos="1860" len="11"/>
          <note pan="0" key="29" vol="100" pos="1872" len="5"/>
          <note pan="0" key="17" vol="100" pos="1878" len="5"/>
          <note pan="0" key="53" vol="100" pos="1884" len="5"/>
          <note pan="0" key="17" vol="100" pos="1890" len="5"/>
          <note pan="0" key="51" vol="100" pos="1896" len="5"/>
          <note pan="0" key="15" vol="100" pos="1902" len="5"/>
          <note pan="0" key="53" vol="100" pos="1908" len="5"/>
          <note pan="0" key="17" vol="100" pos="1914" len="5"/>
          <note pan="0" key="41" vol="100" pos="1920" len="11"/>
          <note pan="0" key="29" vol="100" pos="1932" len="5"/>
          <note pan="0" key="17" vol="100" pos="1938" len="5"/>
          <note pan="0" key="41" vol="100" pos="1944" len="5"/>
          <note pan="0" key="17" vol="100" pos="1950" len="5"/>
          <note pan="0" key="53" vol="100" pos="1956" len="11"/>
          <note pan="0" key="29" vol="100" pos="1968" len="5"/>
          <note pan="0" key="17" vol="100" pos="1974" len="5"/>
          <note pan="0" key="53" vol="100" pos="1980" len="5"/>
          <note pan="0" key="17" vol="100" pos="1986" len="5"/>
          <note pan="0" key="51" vol="100" pos="1992" len="5"/>
          <note pan="0" key="15" vol="100" pos="1998" len="5"/>
          <note pan="0" key="53" vol="100" pos="2004" len="5"/>
          <note pan="0" key="17" vol="100" pos="2010" len="5"/>
          <note pan="0" key="46" vol="100" pos="2016" len="11"/>
          <note pan="0" key="44" vol="100" pos="2034" len="11"/>
          <note pan="0" key="46" vol="100" pos="2046" len="11"/>
          <note pan="0" key="44" vol="100" pos="2064" len="11"/>
          <note pan="0" key="41" vol="100" pos="2082" len="11"/>
          <note pan="0" key="44" vol="100" pos="2100" len="11"/>
          <note pan="0" key="70" vol="100" pos="2112" len="5"/>
          <note pan="0" key="58" vol="100" pos="2118" len="17"/>
          <note pan="0" key="72" vol="100" pos="2136" len="5"/>
          <note pan="0" key="60" vol="100" pos="2142" len="17"/>
          <note pan="0" key="73" vol="100" pos="2160" len="5"/>
          <note pan="0" key="61" vol="100" pos="2166" len="17"/>
          <note pan="0" key="75" vol="100" pos="2184" len="5"/>
          <note pan="0" key="63" vol="100" pos="2190" len="17"/>
          <note pan="0" key="77" vol="100" pos="2208" len="5"/>
          <note pan="0" key="65" vol="100" pos="2214" len="23"/>
          <note pan="0" key="58" vol="100" pos="2238" len="5"/>
          <note pan="0" key="53" vol="100" pos="2244" len="5"/>
          <note pan="0" key="46" vol="100" pos="2250" len="5"/>
          <note pan="0" key="82" vol="100" pos="2256" len="5"/>
          <note pan="0" key="70" vol="100" pos="2262" len="17"/>
          <note pan="0" key="80" vol="100" pos="2280" len="5"/>
          <note pan="0" key="68" vol="100" pos="2286" len="17"/>
          <note pan="0" key="77" vol="100" pos="2304" len="5"/>
          <note pan="0" key="65" vol="100" pos="2310" len="41"/>
          <note pan="0" key="70" vol="100" pos="2352" len="5"/>
          <note pan="0" key="58" vol="100" pos="2358" len="41"/>
          <note pan="0" key="77" vol="100" pos="2400" len="5"/>
          <note pan="0" key="65" vol="100" pos="2406" len="17"/>
          <note pan="0" key="75" vol="100" pos="2424" len="5"/>
          <note pan="0" key="65" vol="100" pos="2430" len="5"/>
          <note pan="0" key="63" vol="100" pos="2436" len="11"/>
          <note pan="0" key="73" vol="100" pos="2448" len="5"/>
          <note pan="0" key="61" vol="100" pos="2454" len="17"/>
          <note pan="0" key="72" vol="100" pos="2472" len="5"/>
          <note pan="0" key="60" vol="100" pos="2478" len="17"/>
          <note pan="0" key="70" vol="100" pos="2496" len="5"/>
          <note pan="0" key="58" vol="100" pos="2502" len="17"/>
          <note pan="0" key="72" vol="100" pos="2520" len="5"/>
          <note pan="0" key="60" vol="100" pos="2526" len="17"/>
          <note pan="0" key="73" vol="100" pos="2544" len="5"/>
          <note pan="0" key="61" vol="100" pos="2550" len="17"/>
          <note pan="0" key="75" vol="100" pos="2568" len="5"/>
          <note pan="0" key="63" vol="100" pos="2574" len="17"/>
          <note pan="0" key="77" vol="100" pos="2592" len="5"/>
          <note pan="0" key="65" vol="100" pos="2598" len="23"/>
          <note pan="0" key="61" vol="100" pos="2622" len="5"/>
          <note pan="0" key="58" vol="100" pos="2628" len="5"/>
          <note pan="0" key="54" vol="100" pos="2634" len="5"/>
          <note pan="0" key="75" vol="100" pos="2640" len="5"/>
          <note pan="0" key="63" vol="100" pos="2646" len="17"/>
          <note pan="0" key="73" vol="100" pos="2664" len="5"/>
          <note pan="0" key="61" vol="100" pos="2670" len="17"/>
          <note pan="0" key="72" vol="100" pos="2688" len="5"/>
          <note pan="0" key="60" vol="100" pos="2694" len="17"/>
          <note pan="0" key="70" vol="100" pos="2712" len="5"/>
          <note pan="0" key="61" vol="100" pos="2718" len="5"/>
          <note pan="0" key="60" vol="100" pos="2724" len="5"/>
          <note pan="0" key="58" vol="100" pos="2730" len="5"/>
          <note pan="0" key="72" vol="100" pos="2736" len="5"/>
          <note pan="0" key="60" vol="100" pos="2742" len="17"/>
          <note pan="0" key="73" vol="100" pos="2760" len="5"/>
          <note pan="0" key="61" vol="100" pos="2766" len="17"/>
          <note pan="0" key="72" vol="100" pos="2784" len="5"/>
          <note pan="0" key="60" vol="100" pos="2790" len="17"/>
          <note pan="0" key="70" vol="100" pos="2808" len="5"/>
          <note pan="0" key="58" vol="100" pos="2814" len="17"/>
          <note pan="0" key="69" vol="100" pos="2832" len="5"/>
          <note pan="0" key="57" vol="100" pos="2838" len="17"/>
          <note pan="0" key="72" vol="100" pos="2856" len="5"/>
          <note pan="0" key="60" vol="100" pos="2862" len="17"/>
          <note pan="0" key="70" vol="100" pos="2880" len="5"/>
          <note pan="0" key="58" vol="100" pos="2886" len="17"/>
          <note pan="0" key="72" vol="100" pos="2904" len="5"/>
          <note pan="0" key="60" vol="100" pos="2910" len="17"/>
          <note pan="0" key="73" vol="100" pos="2928" len="5"/>
          <note pan="0" key="61" vol="100" pos="2934" len="17"/>
          <note pan="0" key="75" vol="100" pos="2952" len="5"/>
          <note pan="0" key="63" vol="100" pos="2958" len="17"/>
          <note pan="0" key="77" vol="100" pos="2976" len="5"/>
          <note pan="0" key="65" vol="100" pos="2982" len="23"/>
          <note pan="0" key="58" vol="100" pos="3006" len="5"/>
          <note pan="0" key="53" vol="100" pos="3012" len="5"/>
          <note pan="0" key="46" vol="100" pos="3018" len="5"/>
          <note pan="0" key="82" vol="100" pos="3024" len="5"/>
          <note pan="0" key="70" vol="100" pos="3030" len="17"/>
          <note pan="0" key="80" vol="100" pos="3048" len="5"/>
          <note pan="0" key="68" vol="100" pos="3054" len="17"/>
          <note pan="0" key="77" vol="100" pos="3072" len="5"/>
          <note pan="0" key="65" vol="100" pos="3078" len="41"/>
          <note pan="0" key="70" vol="100" pos="3120" len="5"/>
          <note pan="0" key="58" vol="100" pos="3126" len="41"/>
          <note pan="0" key="77" vol="100" pos="3168" len="5"/>
          <note pan="0" key="65" vol="100" pos="3174" len="17"/>
          <note pan="0" key="75" vol="100" pos="3192" len="5"/>
          <note pan="0" key="65" vol="100" pos="3198" len="5"/>
          <note pan="0" key="63" vol="100" pos="3204" len="11"/>
          <note pan="0" key="73" vol="100" pos="3216" len="5"/>
          <note pan="0" key="61" vol="100" pos="3222" len="17"/>
          <note pan="0" key="72" vol="100" pos="3240" len="5"/>
          <note pan="0" key="60" vol="100" pos="3246" len="17"/>
          <note pan="0" key="70" vol="100" pos="3264" len="5"/>
          <note pan="0" key="58" vol="100" pos="3270" len="17"/>
          <note pan="0" key="72" vol="100" pos="3288" len="5"/>
          <note pan="0" key="60" vol="100" pos="3294" len="17"/>
          <note pan="0" key="73" vol="100" pos="3312" len="5"/>
          <note pan="0" key="61" vol="100" pos="3318" len="17"/>
          <note pan="0" key="75" vol="100" pos="3336" len="5"/>
          <note pan="0" key="63" vol="100" pos="3342" len="17"/>
          <note pan="0" key="77" vol="100" pos="3360" len="5"/>
          <note pan="0" key="65" vol="100" pos="3366" len="23"/>
          <note pan="0" key="61" vol="100" pos="3390" len="5"/>
          <note pan="0" key="58" vol="100" pos="3396" len="5"/>
          <note pan="0" key="54" vol="100" pos="3402" len="5"/>
          <note pan="0" key="75" vol="100" pos="3408" len="5"/>
          <note pan="0" key="63" vol="100" pos="3414" len="17"/>
          <note pan="0" key="73" vol="100" pos="3432" len="5"/>
          <note pan="0" key="61" vol="100" pos="3438" len="17"/>
          <note pan="0" key="68" vol="100" pos="3456" len="5"/>
          <note pan="0" key="56" vol="100" pos="3462" len="41"/>
          <note pan="0" key="70" vol="100" pos="3504" len="5"/>
          <note pan="0" key="58" vol="100" pos="3510" len="41"/>
          <note pan="0" key="72" vol="100" pos="3552" len="5"/>
          <note pan="0" key="60" vol="100" pos="3558" len="41"/>
          <note pan="0" key="73" vol="100" pos="3600" len="5"/>
          <note pan="0" key="61" vol="100" pos="3606" len="41"/>
          <note pan="0" key="65" vol="100" pos="3648" len="5"/>
          <note pan="0" key="53" vol="100" pos="3654" len="17"/>
          <note pan="0" key="68" vol="100" pos="3672" len="5"/>
          <note pan="0" key="56" vol="100" pos="3678" len="17"/>
          <note pan="0" key="70" vol="100" pos="3696" len="5"/>
          <note pan="0" key="58" vol="100" pos="3702" len="17"/>
          <note pan="0" key="72" vol="100" pos="3720" len="5"/>
          <note pan="0" key="60" vol="100" pos="3726" len="17"/>
          <note pan="0" key="70" vol="100" pos="3744" len="5"/>
          <note pan="0" key="58" vol="100" pos="3750" len="23"/>
          <note pan="0" key="53" vol="100" pos="3774" len="5"/>
          <note pan="0" key="49" vol="100" pos="3780" len="5"/>
          <note pan="0" key="46" vol="100" pos="3786" len="5"/>
          <note pan="0" key="77" vol="100" pos="3792" len="5"/>
          <note pan="0" key="65" vol="100" pos="3798" len="17"/>
          <note pan="0" key="75" vol="100" pos="3816" len="5"/>
          <note pan="0" key="63" vol="100" pos="3822" len="17"/>
          <note pan="0" key="73" vol="100" pos="3840" len="5"/>
          <note pan="0" key="61" vol="100" pos="3846" len="17"/>
          <note pan="0" key="60" vol="100" pos="3864" len="23"/>
          <note pan="0" key="65" vol="100" pos="3888" len="5"/>
          <note pan="0" key="53" vol="100" pos="3894" len="41"/>
          <note pan="0" key="70" vol="100" pos="3936" len="5"/>
          <note pan="0" key="58" vol="100" pos="3942" len="17"/>
          <note pan="0" key="68" vol="100" pos="3960" len="5"/>
          <note pan="0" key="58" vol="100" pos="3966" len="5"/>
          <note pan="0" key="56" vol="100" pos="3972" len="11"/>
          <note pan="0" key="65" vol="100" pos="3984" len="5"/>
          <note pan="0" key="53" vol="100" pos="3990" len="17"/>
          <note pan="0" key="68" vol="100" pos="4008" len="5"/>
          <note pan="0" key="56" vol="100" pos="4014" len="17"/>
          <note pan="0" key="66" vol="100" pos="4032" len="5"/>
          <note pan="0" key="54" vol="100" pos="4038" len="17"/>
          <note pan="0" key="68" vol="100" pos="4056" len="5"/>
          <note pan="0" key="56" vol="100" pos="4062" len="17"/>
          <note pan="0" key="70" vol="100" pos="4080" len="5"/>
          <note pan="0" key="58" vol="100" pos="4086" len="17"/>
          <note pan="0" key="72" vol="100" pos="4104" len="5"/>
          <note pan="0" key="60" vol="100" pos="4110" len="17"/>
          <note pan="0" key="70" vol="100" pos="4128" len="5"/>
          <note pan="0" key="58" vol="100" pos="4134" len="23"/>
          <note pan="0" key="58" vol="100" pos="4158" len="5"/>
          <note pan="0" key="54" vol="100" pos="4164" len="5"/>
          <note pan="0" key="49" vol="100" pos="4170" len="5"/>
          <note pan="0" key="72" vol="100" pos="4176" len="5"/>
          <note pan="0" key="60" vol="100" pos="4182" len="17"/>
          <note pan="0" key="70" vol="100" pos="4200" len="5"/>
          <note pan="0" key="58" vol="100" pos="4206" len="17"/>
          <note pan="0" key="68" vol="100" pos="4224" len="5"/>
          <note pan="0" key="56" vol="100" pos="4230" len="17"/>
          <note pan="0" key="61" vol="100" pos="4248" len="5"/>
          <note pan="0" key="58" vol="100" pos="4254" len="5"/>
          <note pan="0" key="56" vol="100" pos="4260" len="5"/>
          <note pan="0" key="51" vol="100" pos="4266" len="5"/>
          <note pan="0" key="68" vol="100" pos="4272" len="5"/>
          <note pan="0" key="56" vol="100" pos="4278" len="17"/>
          <note pan="0" key="70" vol="100" pos="4296" len="5"/>
          <note pan="0" key="58" vol="100" pos="4302" len="17"/>
          <note pan="0" key="68" vol="100" pos="4320" len="5"/>
          <note pan="0" key="56" vol="100" pos="4326" len="17"/>
          <note pan="0" key="66" vol="100" pos="4344" len="5"/>
          <note pan="0" key="54" vol="100" pos="4350" len="17"/>
          <note pan="0" key="65" vol="100" pos="4368" len="5"/>
          <note pan="0" key="53" vol="100" pos="4374" len="17"/>
          <note pan="0" key="69" vol="100" pos="4392" len="5"/>
          <note pan="0" key="57" vol="100" pos="4398" len="17"/>
          <note pan="0" key="65" vol="100" pos="4416" len="5"/>
          <note pan="0" key="53" vol="100" pos="4422" len="17"/>
          <note pan="0" key="68" vol="100" pos="4440" len="5"/>
          <note pan="0" key="56" vol="100" pos="4446" len="17"/>
          <note pan="0" key="70" vol="100" pos="4464" len="5"/>
          <note pan="0" key="58" vol="100" pos="4470" len="17"/>
          <note pan="0" key="72" vol="100" pos="4488" len="5"/>
          <note pan="0" key="60" vol="100" pos="4494" len="17"/>
          <note pan="0" key="70" vol="100" pos="4512" len="5"/>
          <note pan="0" key="58" vol="100" pos="4518" len="41"/>
          <note pan="0" key="77" vol="100" pos="4560" len="5"/>
          <note pan="0" key="65" vol="100" pos="4566" len="17"/>
          <note pan="0" key="75" vol="100" pos="4584" len="5"/>
          <note pan="0" key="63" vol="100" pos="4590" len="17"/>
          <note pan="0" key="73" vol="100" pos="4608" len="5"/>
          <note pan="0" key="61" vol="100" pos="4614" len="17"/>
          <note pan="0" key="60" vol="100" pos="4632" len="23"/>
          <note pan="0" key="65" vol="100" pos="4656" len="5"/>
          <note pan="0" key="53" vol="100" pos="4662" len="41"/>
          <note pan="0" key="70" vol="100" pos="4704" len="5"/>
          <note pan="0" key="58" vol="100" pos="4710" len="17"/>
          <note pan="0" key="68" vol="100" pos="4728" len="5"/>
          <note pan="0" key="58" vol="100" pos="4734" len="5"/>
          <note pan="0" key="56" vol="100" pos="4740" len="11"/>
          <note pan="0" key="65" vol="100" pos="4752" len="5"/>
          <note pan="0" key="53" vol="100" pos="4758" len="17"/>
          <note pan="0" key="68" vol="100" pos="4776" len="5"/>
          <note pan="0" key="56" vol="100" pos="4782" len="17"/>
          <note pan="0" key="66" vol="100" pos="4800" len="5"/>
          <note pan="0" key="54" vol="100" pos="4806" len="17"/>
          <note pan="0" key="68" vol="100" pos="4824" len="5"/>
          <note pan="0" key="56" vol="100" pos="4830" len="17"/>
          <note pan="0" key="70" vol="100" pos="4848" len="5"/>
          <note pan="0" key="58" vol="100" pos="4854" len="17"/>
          <note pan="0" key="72" vol="100" pos="4872" len="5"/>
          <note pan="0" key="60" vol="100" pos="4878" len="17"/>
          <note pan="0" key="70" vol="100" pos="4896" len="5"/>
          <note pan="0" key="58" vol="100" pos="4902" len="23"/>
          <note pan="0" key="58" vol="100" pos="4926" len="5"/>
          <note pan="0" key="54" vol="100" pos="4932" len="5"/>
          <note pan="0" key="49" vol="100" pos="4938" len="5"/>
          <note pan="0" key="72" vol="100" pos="4944" len="5"/>
          <note pan="0" key="60" vol="100" pos="4950" len="17"/>
          <note pan="0" key="70" vol="100" pos="4968" len="5"/>
          <note pan="0" key="58" vol="100" pos="4974" len="17"/>
          <note pan="0" key="56" vol="100" pos="4992" len="5"/>
          <note pan="0" key="75" vol="100" pos="4998" len="5"/>
          <note pan="0" key="63" vol="100" pos="5004" len="5"/>
          <note pan="0" key="68" vol="100" pos="5010" len="5"/>
          <note pan="0" key="51" vol="100" pos="5016" len="5"/>
          <note pan="0" key="72" vol="100" pos="5022" len="5"/>
          <note pan="0" key="56" vol="100" pos="5028" len="5"/>
          <note pan="0" key="68" vol="100" pos="5034" len="5"/>
          <note pan="0" key="56" vol="100" pos="5040" len="5"/>
          <note pan="0" key="75" vol="100" pos="5046" len="5"/>
          <note pan="0" key="63" vol="100" pos="5052" len="5"/>
          <note pan="0" key="68" vol="100" pos="5058" len="5"/>
          <note pan="0" key="51" vol="100" pos="5064" len="5"/>
          <note pan="0" key="72" vol="100" pos="5070" len="5"/>
          <note pan="0" key="56" vol="100" pos="5076" len="5"/>
          <note pan="0" key="68" vol="100" pos="5082" len="5"/>
          <note pan="0" key="57" vol="100" pos="5088" len="5"/>
          <note pan="0" key="77" vol="100" pos="5094" len="5"/>
          <note pan="0" key="65" vol="100" pos="5100" len="5"/>
          <note pan="0" key="69" vol="100" pos="5106" len="5"/>
          <note pan="0" key="53" vol="100" pos="5112" len="5"/>
          <note pan="0" key="75" vol="100" pos="5118" len="5"/>
          <note pan="0" key="57" vol="100" pos="5124" len="5"/>
          <note pan="0" key="69" vol="100" pos="5130" len="5"/>
          <note pan="0" key="57" vol="100" pos="5136" len="5"/>
          <note pan="0" key="77" vol="100" pos="5142" len="5"/>
          <note pan="0" key="65" vol="100" pos="5148" len="5"/>
          <note pan="0" key="69" vol="100" pos="5154" len="5"/>
          <note pan="0" key="53" vol="100" pos="5160" len="5"/>
          <note pan="0" key="75" vol="100" pos="5166" len="5"/>
          <note pan="0" key="57" vol="100" pos="5172" len="5"/>
          <note pan="0" key="69" vol="100" pos="5178" len="5"/>
          <note pan="0" key="77" vol="100" pos="5184" len="23"/>
          <note pan="0" key="77" vol="100" pos="5208" len="23"/>
          <note pan="0" key="73" vol="100" pos="5232" len="23"/>
          <note pan="0" key="72" vol="100" pos="5256" len="23"/>
          <note pan="0" key="73" vol="100" pos="5280" len="47"/>
          <note pan="0" key="72" vol="100" pos="5328" len="23"/>
          <note pan="0" key="73" vol="100" pos="5352" len="23"/>
          <note pan="0" key="75" vol="100" pos="5376" len="23"/>
          <note pan="0" key="75" vol="100" pos="5400" len="23"/>
          <note pan="0" key="72" vol="100" pos="5424" len="23"/>
          <note pan="0" key="70" vol="100" pos="5448" len="23"/>
          <note pan="0" key="72" vol="100" pos="5472" len="47"/>
          <note pan="0" key="65" vol="100" pos="5520" len="23"/>
          <note pan="0" key="70" vol="100" pos="5544" len="23"/>
          <note pan="0" key="68" vol="100" pos="5568" len="23"/>
          <note pan="0" key="65" vol="100" pos="5592" len="23"/>
          <note pan="0" key="63" vol="100" pos="5616" len="23"/>
          <note pan="0" key="60" vol="100" pos="5640" len="23"/>
          <note pan="0" key="61" vol="100" pos="5664" len="41"/>
          <note pan="0" key="61" vol="100" pos="5712" len="23"/>
          <note pan="0" key="65" vol="100" pos="5736" len="23"/>
          <note pan="0" key="63" vol="100" pos="5760" len="23"/>
          <note pan="0" key="65" vol="100" pos="5784" len="23"/>
          <note pan="0" key="68" vol="100" pos="5808" len="23"/>
          <note pan="0" key="70" vol="100" pos="5832" len="23"/>
          <note pan="0" key="61" vol="100" pos="5856" len="47"/>
          <note pan="0" key="70" vol="100" pos="5904" len="23"/>
          <note pan="0" key="68" vol="100" pos="5928" len="23"/>
          <note pan="0" key="78" vol="100" pos="5952" len="5"/>
          <note pan="0" key="66" vol="100" pos="5958" len="5"/>
          <note pan="0" key="78" vol="100" pos="5964" len="11"/>
          <note pan="0" key="73" vol="100" pos="5976" len="5"/>
          <note pan="0" key="66" vol="100" pos="5982" len="5"/>
          <note pan="0" key="73" vol="100" pos="5988" len="11"/>
          <note pan="0" key="78" vol="100" pos="6000" len="5"/>
          <note pan="0" key="66" vol="100" pos="6006" len="5"/>
          <note pan="0" key="78" vol="100" pos="6012" len="11"/>
          <note pan="0" key="73" vol="100" pos="6024" len="5"/>
          <note pan="0" key="66" vol="100" pos="6030" len="5"/>
          <note pan="0" key="73" vol="100" pos="6036" len="11"/>
          <note pan="0" key="78" vol="100" pos="6048" len="5"/>
          <note pan="0" key="66" vol="100" pos="6054" len="5"/>
          <note pan="0" key="78" vol="100" pos="6060" len="11"/>
          <note pan="0" key="73" vol="100" pos="6072" len="5"/>
          <note pan="0" key="66" vol="100" pos="6078" len="5"/>
          <note pan="0" key="73" vol="100" pos="6084" len="11"/>
          <note pan="0" key="78" vol="100" pos="6096" len="5"/>
          <note pan="0" key="70" vol="100" pos="6102" len="5"/>
          <note pan="0" key="73" vol="100" pos="6108" len="5"/>
          <note pan="0" key="78" vol="100" pos="6114" len="5"/>
          <note pan="0" key="73" vol="100" pos="6120" len="5"/>
          <note pan="0" key="70" vol="100" pos="6126" len="5"/>
          <note pan="0" key="73" vol="100" pos="6132" len="5"/>
          <note pan="0" key="78" vol="100" pos="6138" len="5"/>
          <note pan="0" key="80" vol="100" pos="6144" len="11"/>
          <note pan="0" key="75" vol="100" pos="6156" len="11"/>
          <note pan="0" key="72" vol="100" pos="6168" len="11"/>
          <note pan="0" key="75" vol="100" pos="6180" len="11"/>
          <note pan="0" key="80" vol="100" pos="6192" len="11"/>
          <note pan="0" key="75" vol="100" pos="6204" len="11"/>
          <note pan="0" key="72" vol="100" pos="6216" len="11"/>
          <note pan="0" key="75" vol="100" pos="6228" len="11"/>
          <note pan="0" key="81" vol="100" pos="6240" len="11"/>
          <note pan="0" key="75" vol="100" pos="6252" len="11"/>
          <note pan="0" key="72" vol="100" pos="6264" len="11"/>
          <note pan="0" key="75" vol="100" pos="6276" len="11"/>
          <note pan="0" key="81" vol="100" pos="6288" len="11"/>
          <note pan="0" key="77" vol="100" pos="6300" len="11"/>
          <note pan="0" key="81" vol="100" pos="6312" len="11"/>
          <note pan="0" key="84" vol="100" pos="6324" len="11"/>
          <note pan="0" key="85" vol="100" pos="6336" len="11"/>
          <note pan="0" key="84" vol="100" pos="6348" len="11"/>
          <note pan="0" key="82" vol="100" pos="6360" len="11"/>
          <note pan="0" key="80" vol="100" pos="6372" len="11"/>
          <note pan="0" key="77" vol="100" pos="6384" len="11"/>
          <note pan="0" key="75" vol="100" pos="6396" len="11"/>
          <note pan="0" key="73" vol="100" pos="6408" len="11"/>
          <note pan="0" key="80" vol="100" pos="6420" len="11"/>
          <note pan="0" key="77" vol="100" pos="6432" len="11"/>
          <note pan="0" key="75" vol="100" pos="6444" len="11"/>
          <note pan="0" key="73" vol="100" pos="6456" len="11"/>
          <note pan="0" key="70" vol="100" pos="6468" len="11"/>
          <note pan="0" key="72" vol="100" pos="6480" len="11"/>
          <note pan="0" key="73" vol="100" pos="6492" len="11"/>
          <note pan="0" key="72" vol="100" pos="6504" len="11"/>
          <note pan="0" key="68" vol="100" pos="6516" len="11"/>
          <note pan="0" key="70" vol="100" pos="6528" len="11"/>
          <note pan="0" key="65" vol="100" pos="6540" len="11"/>
          <note pan="0" key="72" vol="100" pos="6552" len="11"/>
          <note pan="0" key="65" vol="100" pos="6564" len="11"/>
          <note pan="0" key="73" vol="100" pos="6576" len="11"/>
          <note pan="0" key="65" vol="100" pos="6588" len="11"/>
          <note pan="0" key="75" vol="100" pos="6600" len="11"/>
          <note pan="0" key="65" vol="100" pos="6612" len="11"/>
          <note pan="0" key="77" vol="100" pos="6624" len="11"/>
          <note pan="0" key="72" vol="100" pos="6636" len="11"/>
          <note pan="0" key="73" vol="100" pos="6648" len="11"/>
          <note pan="0" key="72" vol="100" pos="6660" len="11"/>
          <note pan="0" key="68" vol="100" pos="6672" len="11"/>
          <note pan="0" key="63" vol="100" pos="6684" len="11"/>
          <note pan="0" key="61" vol="100" pos="6696" len="11"/>
          <note pan="0" key="60" vol="100" pos="6708" len="11"/>
          <note pan="0" key="42" vol="100" pos="6720" len="5"/>
          <note pan="0" key="49" vol="100" pos="6732" len="5"/>
          <note pan="0" key="54" vol="100" pos="6744" len="5"/>
          <note pan="0" key="49" vol="100" pos="6756" len="5"/>
          <note pan="0" key="42" vol="100" pos="6768" len="5"/>
          <note pan="0" key="49" vol="100" pos="6780" len="5"/>
          <note pan="0" key="54" vol="100" pos="6792" len="5"/>
          <note pan="0" key="49" vol="100" pos="6804" len="5"/>
          <note pan="0" key="42" vol="100" pos="6816" len="5"/>
          <note pan="0" key="49" vol="100" pos="6828" len="5"/>
          <note pan="0" key="54" vol="100" pos="6840" len="5"/>
          <note pan="0" key="49" vol="100" pos="6852" len="5"/>
          <note pan="0" key="42" vol="100" pos="6864" len="5"/>
          <note pan="0" key="49" vol="100" pos="6876" len="5"/>
          <note pan="0" key="54" vol="100" pos="6888" len="5"/>
          <note pan="0" key="49" vol="100" pos="6900" len="5"/>
          <note pan="0" key="44" vol="100" pos="6912" len="5"/>
          <note pan="0" key="51" vol="100" pos="6924" len="5"/>
          <note pan="0" key="56" vol="100" pos="6936" len="5"/>
          <note pan="0" key="51" vol="100" pos="6948" len="5"/>
          <note pan="0" key="44" vol="100" pos="6960" len="5"/>
          <note pan="0" key="51" vol="100" pos="6972" len="5"/>
          <note pan="0" key="56" vol="100" pos="6984" len="5"/>
          <note pan="0" key="51" vol="100" pos="6996" len="5"/>
          <note pan="0" key="44" vol="100" pos="7008" len="5"/>
          <note pan="0" key="51" vol="100" pos="7020" len="5"/>
          <note pan="0" key="56" vol="100" pos="7032" len="5"/>
          <note pan="0" key="51" vol="100" pos="7044" len="5"/>
          <note pan="0" key="45" vol="100" pos="7056" len="5"/>
          <note pan="0" key="53" vol="100" pos="7068" len="5"/>
          <note pan="0" key="57" vol="100" pos="7080" len="5"/>
          <note pan="0" key="53" vol="100" pos="7092" len="5"/>
          <note pan="0" key="46" vol="100" pos="7104" len="5"/>
          <note pan="0" key="53" vol="100" pos="7116" len="5"/>
          <note pan="0" key="58" vol="100" pos="7128" len="5"/>
          <note pan="0" key="53" vol="100" pos="7140" len="5"/>
          <note pan="0" key="46" vol="100" pos="7152" len="5"/>
          <note pan="0" key="53" vol="100" pos="7164" len="5"/>
          <note pan="0" key="58" vol="100" pos="7176" len="5"/>
          <note pan="0" key="53" vol="100" pos="7188" len="5"/>
          <note pan="0" key="46" vol="100" pos="7200" len="5"/>
          <note pan="0" key="53" vol="100" pos="7212" len="5"/>
          <note pan="0" key="58" vol="100" pos="7224" len="5"/>
          <note pan="0" key="53" vol="100" pos="7236" len="5"/>
          <note pan="0" key="46" vol="100" pos="7248" len="5"/>
          <note pan="0" key="53" vol="100" pos="7260" len="5"/>
          <note pan="0" key="58" vol="100" pos="7272" len="5"/>
          <note pan="0" key="53" vol="100" pos="7284" len="5"/>
          <note pan="0" key="46" vol="100" pos="7296" len="5"/>
          <note pan="0" key="51" vol="100" pos="7308" len="5"/>
          <note pan="0" key="56" vol="100" pos="7320" len="5"/>
          <note pan="0" key="51" vol="100" pos="7332" len="5"/>
          <note pan="0" key="46" vol="100" pos="7344" len="5"/>
          <note pan="0" key="51" vol="100" pos="7356" len="5"/>
          <note pan="0" key="56" vol="100" pos="7368" len="5"/>
          <note pan="0" key="51" vol="100" pos="7380" len="5"/>
          <note pan="0" key="49" vol="100" pos="7392" len="5"/>
          <note pan="0" key="56" vol="100" pos="7404" len="5"/>
          <note pan="0" key="61" vol="100" pos="7416" len="5"/>
          <note pan="0" key="56" vol="100" pos="7428" len="11"/>
          <note pan="0" key="61" vol="100" pos="7440" len="11"/>
          <note pan="0" key="60" vol="100" pos="7452" len="11"/>
          <note pan="0" key="56" vol="100" pos="7464" len="11"/>
          <note pan="0" key="51" vol="100" pos="7476" len="11"/>
          <note pan="0" key="77" vol="100" pos="7488" len="23"/>
          <note pan="0" key="77" vol="100" pos="7512" len="23"/>
          <note pan="0" key="73" vol="100" pos="7536" len="23"/>
          <note pan="0" key="72" vol="100" pos="7560" len="23"/>
          <note pan="0" key="73" vol="100" pos="7584" len="47"/>
          <note pan="0" key="72" vol="100" pos="7632" len="23"/>
          <note pan="0" key="73" vol="100" pos="7656" len="23"/>
          <note pan="0" key="75" vol="100" pos="7680" len="23"/>
          <note pan="0" key="75" vol="100" pos="7704" len="23"/>
          <note pan="0" key="72" vol="100" pos="7728" len="23"/>
          <note pan="0" key="70" vol="100" pos="7752" len="23"/>
          <note pan="0" key="72" vol="100" pos="7776" len="47"/>
          <note pan="0" key="77" vol="100" pos="7824" len="23"/>
          <note pan="0" key="80" vol="100" pos="7848" len="23"/>
          <note pan="0" key="82" vol="100" pos="7872" len="23"/>
          <note pan="0" key="80" vol="100" pos="7896" len="23"/>
          <note pan="0" key="77" vol="100" pos="7920" len="23"/>
          <note pan="0" key="75" vol="100" pos="7944" len="23"/>
          <note pan="0" key="73" vol="100" pos="7968" len="47"/>
          <note pan="0" key="72" vol="100" pos="8016" len="23"/>
          <note pan="0" key="73" vol="100" pos="8040" len="23"/>
          <note pan="0" key="72" vol="100" pos="8064" len="23"/>
          <note pan="0" key="68" vol="100" pos="8088" len="23"/>
          <note pan="0" key="63" vol="100" pos="8112" len="23"/>
          <note pan="0" key="60" vol="100" pos="8136" len="23"/>
          <note pan="0" key="61" vol="100" pos="8160" len="53"/>
          <note pan="0" key="61" vol="100" pos="8220" len="5"/>
          <note pan="0" key="61" vol="100" pos="8232" len="5"/>
          <note pan="0" key="61" vol="100" pos="8244" len="5"/>
          <note pan="0" key="75" vol="100" pos="8256" len="5"/>
          <note pan="0" key="63" vol="100" pos="8262" len="17"/>
          <note pan="0" key="77" vol="100" pos="8280" len="5"/>
          <note pan="0" key="65" vol="100" pos="8286" len="17"/>
          <note pan="0" key="73" vol="100" pos="8304" len="5"/>
          <note pan="0" key="61" vol="100" pos="8310" len="17"/>
          <note pan="0" key="72" vol="100" pos="8328" len="5"/>
          <note pan="0" key="60" vol="100" pos="8334" len="17"/>
          <note pan="0" key="73" vol="100" pos="8352" len="5"/>
          <note pan="0" key="61" vol="100" pos="8358" len="41"/>
          <note pan="0" key="72" vol="100" pos="8400" len="5"/>
          <note pan="0" key="60" vol="100" pos="8406" len="17"/>
          <note pan="0" key="73" vol="100" pos="8424" len="5"/>
          <note pan="0" key="61" vol="100" pos="8430" len="17"/>
          <note pan="0" key="75" vol="100" pos="8448" len="5"/>
          <note pan="0" key="63" vol="100" pos="8454" len="17"/>
          <note pan="0" key="77" vol="100" pos="8472" len="5"/>
          <note pan="0" key="65" vol="100" pos="8478" len="17"/>
          <note pan="0" key="72" vol="100" pos="8496" len="5"/>
          <note pan="0" key="60" vol="100" pos="8502" len="17"/>
          <note pan="0" key="70" vol="100" pos="8520" len="5"/>
          <note pan="0" key="58" vol="100" pos="8526" len="17"/>
          <note pan="0" key="72" vol="100" pos="8544" len="5"/>
          <note pan="0" key="60" vol="100" pos="8550" len="41"/>
          <note pan="0" key="65" vol="100" pos="8592" len="5"/>
          <note pan="0" key="53" vol="100" pos="8598" len="17"/>
          <note pan="0" key="70" vol="100" pos="8616" len="5"/>
          <note pan="0" key="58" vol="100" pos="8622" len="17"/>
          <note pan="0" key="68" vol="100" pos="8640" len="5"/>
          <note pan="0" key="56" vol="100" pos="8646" len="17"/>
          <note pan="0" key="65" vol="100" pos="8664" len="5"/>
          <note pan="0" key="53" vol="100" pos="8670" len="17"/>
          <note pan="0" key="63" vol="100" pos="8688" len="5"/>
          <note pan="0" key="51" vol="100" pos="8694" len="17"/>
          <note pan="0" key="60" vol="100" pos="8712" len="5"/>
          <note pan="0" key="48" vol="100" pos="8718" len="17"/>
          <note pan="0" key="61" vol="100" pos="8736" len="5"/>
          <note pan="0" key="49" vol="100" pos="8742" len="41"/>
          <note pan="0" key="61" vol="100" pos="8784" len="5"/>
          <note pan="0" key="49" vol="100" pos="8790" len="17"/>
          <note pan="0" key="65" vol="100" pos="8808" len="5"/>
          <note pan="0" key="53" vol="100" pos="8814" len="17"/>
          <note pan="0" key="63" vol="100" pos="8832" len="5"/>
          <note pan="0" key="51" vol="100" pos="8838" len="17"/>
          <note pan="0" key="65" vol="100" pos="8856" len="5"/>
          <note pan="0" key="53" vol="100" pos="8862" len="17"/>
          <note pan="0" key="68" vol="100" pos="8880" len="5"/>
          <note pan="0" key="56" vol="100" pos="8886" len="17"/>
          <note pan="0" key="70" vol="100" pos="8904" len="5"/>
          <note pan="0" key="58" vol="100" pos="8910" len="17"/>
          <note pan="0" key="61" vol="100" pos="8928" len="5"/>
          <note pan="0" key="49" vol="100" pos="8934" len="41"/>
          <note pan="0" key="70" vol="100" pos="8976" len="5"/>
          <note pan="0" key="58" vol="100" pos="8982" len="17"/>
          <note pan="0" key="68" vol="100" pos="9000" len="5"/>
          <note pan="0" key="56" vol="100" pos="9006" len="17"/>
          <note pan="0" key="66" vol="100" pos="9024" len="5"/>
          <note pan="0" key="54" vol="100" pos="9030" len="17"/>
          <note pan="0" key="73" vol="100" pos="9048" len="5"/>
          <note pan="0" key="61" vol="100" pos="9054" len="17"/>
          <note pan="0" key="66" vol="100" pos="9072" len="5"/>
          <note pan="0" key="54" vol="100" pos="9078" len="17"/>
          <note pan="0" key="73" vol="100" pos="9096" len="5"/>
          <note pan="0" key="61" vol="100" pos="9102" len="17"/>
          <note pan="0" key="66" vol="100" pos="9120" len="5"/>
          <note pan="0" key="54" vol="100" pos="9126" len="41"/>
          <note pan="0" key="66" vol="100" pos="9168" len="5"/>
          <note pan="0" key="54" vol="100" pos="9174" len="17"/>
          <note pan="0" key="73" vol="100" pos="9192" len="5"/>
          <note pan="0" key="61" vol="100" pos="9198" len="17"/>
          <note pan="0" key="68" vol="100" pos="9216" len="5"/>
          <note pan="0" key="56" vol="100" pos="9222" len="17"/>
          <note pan="0" key="75" vol="100" pos="9240" len="5"/>
          <note pan="0" key="63" vol="100" pos="9246" len="17"/>
          <note pan="0" key="68" vol="100" pos="9264" len="5"/>
          <note pan="0" key="56" vol="100" pos="9270" len="17"/>
          <note pan="0" key="75" vol="100" pos="9288" len="5"/>
          <note pan="0" key="63" vol="100" pos="9294" len="17"/>
          <note pan="0" key="65" vol="100" pos="9312" len="5"/>
          <note pan="0" key="53" vol="100" pos="9318" len="41"/>
          <note pan="0" key="65" vol="100" pos="9360" len="5"/>
          <note pan="0" key="53" vol="100" pos="9366" len="17"/>
          <note pan="0" key="73" vol="100" pos="9384" len="5"/>
          <note pan="0" key="61" vol="100" pos="9390" len="17"/>
          <note pan="0" key="72" vol="100" pos="9408" len="5"/>
          <note pan="0" key="60" vol="100" pos="9414" len="17"/>
          <note pan="0" key="70" vol="100" pos="9432" len="5"/>
          <note pan="0" key="58" vol="100" pos="9438" len="17"/>
          <note pan="0" key="68" vol="100" pos="9456" len="5"/>
          <note pan="0" key="56" vol="100" pos="9462" len="17"/>
          <note pan="0" key="63" vol="100" pos="9480" len="5"/>
          <note pan="0" key="51" vol="100" pos="9486" len="17"/>
          <note pan="0" key="65" vol="100" pos="9504" len="5"/>
          <note pan="0" key="53" vol="100" pos="9510" len="41"/>
          <note pan="0" key="63" vol="100" pos="9552" len="5"/>
          <note pan="0" key="51" vol="100" pos="9558" len="17"/>
          <note pan="0" key="65" vol="100" pos="9576" len="5"/>
          <note pan="0" key="53" vol="100" pos="9582" len="17"/>
          <note pan="0" key="63" vol="100" pos="9600" len="5"/>
          <note pan="0" key="51" vol="100" pos="9606" len="17"/>
          <note pan="0" key="61" vol="100" pos="9624" len="5"/>
          <note pan="0" key="49" vol="100" pos="9630" len="17"/>
          <note pan="0" key="60" vol="100" pos="9648" len="5"/>
          <note pan="0" key="48" vol="100" pos="9654" len="17"/>
          <note pan="0" key="56" vol="100" pos="9672" len="5"/>
          <note pan="0" key="44" vol="100" pos="9678" len="17"/>
          <note pan="0" key="58" vol="100" pos="9696" len="5"/>
          <note pan="0" key="46" vol="100" pos="9702" len="41"/>
          <note pan="0" key="70" vol="100" pos="9744" len="5"/>
          <note pan="0" key="58" vol="100" pos="9750" len="17"/>
          <note pan="0" key="68" vol="100" pos="9768" len="5"/>
          <note pan="0" key="56" vol="100" pos="9774" len="17"/>
          <note pan="0" key="68" vol="100" pos="9792" len="5"/>
          <note pan="0" key="56" vol="100" pos="9798" len="17"/>
          <note pan="0" key="70" vol="100" pos="9816" len="5"/>
          <note pan="0" key="58" vol="100" pos="9822" len="17"/>
          <note pan="0" key="65" vol="100" pos="9840" len="5"/>
          <note pan="0" key="53" vol="100" pos="9846" len="17"/>
          <note pan="0" key="63" vol="100" pos="9864" len="5"/>
          <note pan="0" key="51" vol="100" pos="9870" len="17"/>
          <note pan="0" key="65" vol="100" pos="9888" len="5"/>
          <note pan="0" key="53" vol="100" pos="9894" len="41"/>
          <note pan="0" key="63" vol="100" pos="9936" len="5"/>
          <note pan="0" key="51" vol="100" pos="9942" len="17"/>
          <note pan="0" key="65" vol="100" pos="9960" len="5"/>
          <note pan="0" key="53" vol="100" pos="9966" len="17"/>
          <note pan="0" key="68" vol="100" pos="9984" len="5"/>
          <note pan="0" key="56" vol="100" pos="9990" len="17"/>
          <note pan="0" key="70" vol="100" pos="10008" len="5"/>
          <note pan="0" key="58" vol="100" pos="10014" len="17"/>
          <note pan="0" key="65" vol="100" pos="10032" len="5"/>
          <note pan="0" key="53" vol="100" pos="10038" len="17"/>
          <note pan="0" key="63" vol="100" pos="10056" len="5"/>
          <note pan="0" key="51" vol="100" pos="10062" len="17"/>
          <note pan="0" key="65" vol="100" pos="10080" len="5"/>
          <note pan="0" key="53" vol="100" pos="10086" len="41"/>
          <note pan="0" key="58" vol="100" pos="10128" len="5"/>
          <note pan="0" key="46" vol="100" pos="10134" len="17"/>
          <note pan="0" key="65" vol="100" pos="10152" len="5"/>
          <note pan="0" key="53" vol="100" pos="10158" len="17"/>
          <note pan="0" key="63" vol="100" pos="10176" len="5"/>
          <note pan="0" key="51" vol="100" pos="10182" len="17"/>
          <note pan="0" key="61" vol="100" pos="10200" len="5"/>
          <note pan="0" key="49" vol="100" pos="10206" len="17"/>
          <note pan="0" key="60" vol="100" pos="10224" len="5"/>
          <note pan="0" key="48" vol="100" pos="10230" len="17"/>
          <note pan="0" key="56" vol="100" pos="10248" len="5"/>
          <note pan="0" key="44" vol="100" pos="10254" len="17"/>
          <note pan="0" key="58" vol="100" pos="10272" len="5"/>
          <note pan="0" key="46" vol="100" pos="10278" len="41"/>
          <note pan="0" key="58" vol="100" pos="10320" len="5"/>
          <note pan="0" key="46" vol="100" pos="10326" len="17"/>
          <note pan="0" key="61" vol="100" pos="10344" len="5"/>
          <note pan="0" key="49" vol="100" pos="10350" len="17"/>
          <note pan="0" key="60" vol="100" pos="10368" len="5"/>
          <note pan="0" key="48" vol="100" pos="10374" len="17"/>
          <note pan="0" key="61" vol="100" pos="10392" len="5"/>
          <note pan="0" key="49" vol="100" pos="10398" len="17"/>
          <note pan="0" key="63" vol="100" pos="10416" len="5"/>
          <note pan="0" key="51" vol="100" pos="10422" len="17"/>
          <note pan="0" key="65" vol="100" pos="10440" len="5"/>
          <note pan="0" key="53" vol="100" pos="10446" len="17"/>
          <note pan="0" key="58" vol="100" pos="10464" len="5"/>
          <note pan="0" key="46" vol="100" pos="10470" len="41"/>
          <note pan="0" key="65" vol="100" pos="10512" len="5"/>
          <note pan="0" key="53" vol="100" pos="10518" len="17"/>
          <note pan="0" key="68" vol="100" pos="10536" len="5"/>
          <note pan="0" key="56" vol="100" pos="10542" len="17"/>
          <note pan="0" key="68" vol="100" pos="10560" len="5"/>
          <note pan="0" key="56" vol="100" pos="10566" len="17"/>
          <note pan="0" key="70" vol="100" pos="10584" len="5"/>
          <note pan="0" key="58" vol="100" pos="10590" len="17"/>
          <note pan="0" key="65" vol="100" pos="10608" len="5"/>
          <note pan="0" key="53" vol="100" pos="10614" len="17"/>
          <note pan="0" key="63" vol="100" pos="10632" len="5"/>
          <note pan="0" key="51" vol="100" pos="10638" len="17"/>
          <note pan="0" key="65" vol="100" pos="10656" len="5"/>
          <note pan="0" key="53" vol="100" pos="10662" len="41"/>
          <note pan="0" key="63" vol="100" pos="10704" len="5"/>
          <note pan="0" key="51" vol="100" pos="10710" len="17"/>
          <note pan="0" key="65" vol="100" pos="10728" len="5"/>
          <note pan="0" key="53" vol="100" pos="10734" len="17"/>
          <note pan="0" key="68" vol="100" pos="10752" len="5"/>
          <note pan="0" key="56" vol="100" pos="10758" len="17"/>
          <note pan="0" key="70" vol="100" pos="10776" len="5"/>
          <note pan="0" key="58" vol="100" pos="10782" len="17"/>
          <note pan="0" key="65" vol="100" pos="10800" len="5"/>
          <note pan="0" key="53" vol="100" pos="10806" len="17"/>
          <note pan="0" key="63" vol="100" pos="10824" len="5"/>
          <note pan="0" key="51" vol="100" pos="10830" len="17"/>
          <note pan="0" key="65" vol="100" pos="10848" len="5"/>
          <note pan="0" key="53" vol="100" pos="10854" len="41"/>
          <note pan="0" key="70" vol="100" pos="10896" len="5"/>
          <note pan="0" key="58" vol="100" pos="10902" len="17"/>
          <note pan="0" key="72" vol="100" pos="10920" len="5"/>
          <note pan="0" key="60" vol="100" pos="10926" len="17"/>
          <note pan="0" key="73" vol="100" pos="10944" len="5"/>
          <note pan="0" key="61" vol="100" pos="10950" len="17"/>
          <note pan="0" key="72" vol="100" pos="10968" len="5"/>
          <note pan="0" key="60" vol="100" pos="10974" len="17"/>
          <note pan="0" key="70" vol="100" pos="10992" len="5"/>
          <note pan="0" key="58" vol="100" pos="10998" len="17"/>
          <note pan="0" key="68" vol="100" pos="11016" len="5"/>
          <note pan="0" key="56" vol="100" pos="11022" len="17"/>
          <note pan="0" key="65" vol="100" pos="11040" len="5"/>
          <note pan="0" key="53" vol="100" pos="11046" len="41"/>
          <note pan="0" key="63" vol="100" pos="11088" len="5"/>
          <note pan="0" key="51" vol="100" pos="11094" len="17"/>
          <note pan="0" key="65" vol="100" pos="11112" len="5"/>
          <note pan="0" key="53" vol="100" pos="11118" len="17"/>
          <note pan="0" key="63" vol="100" pos="11136" len="5"/>
          <note pan="0" key="51" vol="100" pos="11142" len="17"/>
          <note pan="0" key="61" vol="100" pos="11160" len="5"/>
          <note pan="0" key="49" vol="100" pos="11166" len="17"/>
          <note pan="0" key="60" vol="100" pos="11184" len="5"/>
          <note pan="0" key="48" vol="100" pos="11190" len="17"/>
          <note pan="0" key="56" vol="100" pos="11208" len="5"/>
          <note pan="0" key="44" vol="100" pos="11214" len="17"/>
          <note pan="0" key="63" vol="100" pos="11232" len="47"/>
          <note pan="0" key="61" vol="100" pos="11280" len="17"/>
          <note pan="0" key="61" vol="100" pos="11304" len="5"/>
          <note pan="0" key="61" vol="100" pos="11316" len="5"/>
          <note pan="0" key="53" vol="100" pos="11328" len="11"/>
          <note pan="0" key="41" vol="100" pos="11340" len="5"/>
          <note pan="0" key="29" vol="100" pos="11346" len="5"/>
          <note pan="0" key="53" vol="100" pos="11352" len="5"/>
          <note pan="0" key="29" vol="100" pos="11358" len="5"/>
          <note pan="0" key="65" vol="100" pos="11364" len="11"/>
          <note pan="0" key="41" vol="100" pos="11376" len="5"/>
          <note pan="0" key="29" vol="100" pos="11382" len="5"/>
          <note pan="0" key="65" vol="100" pos="11388" len="5"/>
          <note pan="0" key="29" vol="100" pos="11394" len="5"/>
          <note pan="0" key="63" vol="100" pos="11400" len="5"/>
          <note pan="0" key="27" vol="100" pos="11406" len="5"/>
          <note pan="0" key="65" vol="100" pos="11412" len="5"/>
          <note pan="0" key="29" vol="100" pos="11418" len="5"/>
          <note pan="0" key="53" vol="100" pos="11424" len="11"/>
          <note pan="0" key="41" vol="100" pos="11436" len="5"/>
          <note pan="0" key="29" vol="100" pos="11442" len="5"/>
          <note pan="0" key="53" vol="100" pos="11448" len="5"/>
          <note pan="0" key="29" vol="100" pos="11454" len="5"/>
          <note pan="0" key="65" vol="100" pos="11460" len="11"/>
          <note pan="0" key="41" vol="100" pos="11472" len="5"/>
          <note pan="0" key="29" vol="100" pos="11478" len="5"/>
          <note pan="0" key="65" vol="100" pos="11484" len="5"/>
          <note pan="0" key="29" vol="100" pos="11490" len="5"/>
          <note pan="0" key="63" vol="100" pos="11496" len="5"/>
          <note pan="0" key="27" vol="100" pos="11502" len="5"/>
          <note pan="0" key="65" vol="100" pos="11508" len="5"/>
          <note pan="0" key="29" vol="100" pos="11514" len="5"/>
          <note pan="0" key="53" vol="100" pos="11520" len="11"/>
          <note pan="0" key="41" vol="100" pos="11532" len="5"/>
          <note pan="0" key="29" vol="100" pos="11538" len="5"/>
          <note pan="0" key="53" vol="100" pos="11544" len="5"/>
          <note pan="0" key="29" vol="100" pos="11550" len="5"/>
          <note pan="0" key="65" vol="100" pos="11556" len="11"/>
          <note pan="0" key="41" vol="100" pos="11568" len="5"/>
          <note pan="0" key="29" vol="100" pos="11574" len="5"/>
          <note pan="0" key="65" vol="100" pos="11580" len="5"/>
          <note pan="0" key="29" vol="100" pos="11586" len="5"/>
          <note pan="0" key="63" vol="100" pos="11592" len="5"/>
          <note pan="0" key="27" vol="100" pos="11598" len="5"/>
          <note pan="0" key="65" vol="100" pos="11604" len="5"/>
          <note pan="0" key="29" vol="100" pos="11610" len="5"/>
          <note pan="0" key="56" vol="100" pos="11616" len="11"/>
          <note pan="0" key="37" vol="100" pos="11628" len="5"/>
          <note pan="0" key="49" vol="100" pos="11634" len="5"/>
          <note pan="0" key="65" vol="100" pos="11640" len="5"/>
          <note pan="0" key="49" vol="100" pos="11646" len="5"/>
          <note pan="0" key="68" vol="100" pos="11652" len="5"/>
          <note pan="0" key="49" vol="100" pos="11658" len="5"/>
          <note pan="0" key="58" vol="100" pos="11664" len="11"/>
          <note pan="0" key="39" vol="100" pos="11676" len="5"/>
          <note pan="0" key="51" vol="100" pos="11682" len="5"/>
          <note pan="0" key="68" vol="100" pos="11688" len="5"/>
          <note pan="0" key="51" vol="100" pos="11694" len="5"/>
          <note pan="0" key="70" vol="100" pos="11700" len="5"/>
          <note pan="0" key="51" vol="100" pos="11706" len="5"/>
          <note pan="0" key="53" vol="100" pos="11712" len="11"/>
          <note pan="0" key="41" vol="100" pos="11724" len="5"/>
          <note pan="0" key="29" vol="100" pos="11730" len="5"/>
          <note pan="0" key="53" vol="100" pos="11736" len="5"/>
          <note pan="0" key="29" vol="100" pos="11742" len="5"/>
          <note pan="0" key="65" vol="100" pos="11748" len="11"/>
          <note pan="0" key="41" vol="100" pos="11760" len="5"/>
          <note pan="0" key="29" vol="100" pos="11766" len="5"/>
          <note pan="0" key="65" vol="100" pos="11772" len="5"/>
          <note pan="0" key="29" vol="100" pos="11778" len="5"/>
          <note pan="0" key="63" vol="100" pos="11784" len="5"/>
          <note pan="0" key="27" vol="100" pos="11790" len="5"/>
          <note pan="0" key="65" vol="100" pos="11796" len="5"/>
          <note pan="0" key="29" vol="100" pos="11802" len="5"/>
          <note pan="0" key="53" vol="100" pos="11808" len="11"/>
          <note pan="0" key="41" vol="100" pos="11820" len="5"/>
          <note pan="0" key="29" vol="100" pos="11826" len="5"/>
          <note pan="0" key="53" vol="100" pos="11832" len="5"/>
          <note pan="0" key="29" vol="100" pos="11838" len="5"/>
          <note pan="0" key="65" vol="100" pos="11844" len="11"/>
          <note pan="0" key="41" vol="100" pos="11856" len="5"/>
          <note pan="0" key="29" vol="100" pos="11862" len="5"/>
          <note pan="0" key="65" vol="100" pos="11868" len="5"/>
          <note pan="0" key="29" vol="100" pos="11874" len="5"/>
          <note pan="0" key="63" vol="100" pos="11880" len="5"/>
          <note pan="0" key="27" vol="100" pos="11886" len="5"/>
          <note pan="0" key="65" vol="100" pos="11892" len="5"/>
          <note pan="0" key="29" vol="100" pos="11898" len="5"/>
          <note pan="0" key="53" vol="100" pos="11904" len="11"/>
          <note pan="0" key="41" vol="100" pos="11916" len="5"/>
          <note pan="0" key="29" vol="100" pos="11922" len="5"/>
          <note pan="0" key="53" vol="100" pos="11928" len="5"/>
          <note pan="0" key="29" vol="100" pos="11934" len="5"/>
          <note pan="0" key="65" vol="100" pos="11940" len="11"/>
          <note pan="0" key="41" vol="100" pos="11952" len="5"/>
          <note pan="0" key="29" vol="100" pos="11958" len="5"/>
          <note pan="0" key="65" vol="100" pos="11964" len="5"/>
          <note pan="0" key="29" vol="100" pos="11970" len="5"/>
          <note pan="0" key="63" vol="100" pos="11976" len="5"/>
          <note pan="0" key="27" vol="100" pos="11982" len="5"/>
          <note pan="0" key="65" vol="100" pos="11988" len="5"/>
          <note pan="0" key="29" vol="100" pos="11994" len="5"/>
          <note pan="0" key="58" vol="100" pos="12000" len="11"/>
          <note pan="0" key="37" vol="100" pos="12012" len="5"/>
          <note pan="0" key="49" vol="100" pos="12018" len="5"/>
          <note pan="0" key="68" vol="100" pos="12024" len="5"/>
          <note pan="0" key="49" vol="100" pos="12030" len="5"/>
          <note pan="0" key="70" vol="100" pos="12036" len="5"/>
          <note pan="0" key="49" vol="100" pos="12042" len="5"/>
          <note pan="0" key="56" vol="100" pos="12048" len="11"/>
          <note pan="0" key="39" vol="100" pos="12060" len="5"/>
          <note pan="0" key="51" vol="100" pos="12066" len="5"/>
          <note pan="0" key="65" vol="100" pos="12072" len="5"/>
          <note pan="0" key="51" vol="100" pos="12078" len="5"/>
          <note pan="0" key="68" vol="100" pos="12084" len="5"/>
          <note pan="0" key="51" vol="100" pos="12090" len="5"/>
          <note pan="0" key="53" vol="100" pos="12096" len="11"/>
          <note pan="0" key="41" vol="100" pos="12108" len="5"/>
          <note pan="0" key="29" vol="100" pos="12114" len="5"/>
          <note pan="0" key="53" vol="100" pos="12120" len="5"/>
          <note pan="0" key="29" vol="100" pos="12126" len="5"/>
          <note pan="0" key="65" vol="100" pos="12132" len="11"/>
          <note pan="0" key="41" vol="100" pos="12144" len="5"/>
          <note pan="0" key="29" vol="100" pos="12150" len="5"/>
          <note pan="0" key="65" vol="100" pos="12156" len="5"/>
          <note pan="0" key="29" vol="100" pos="12162" len="5"/>
          <note pan="0" key="63" vol="100" pos="12168" len="5"/>
          <note pan="0" key="27" vol="100" pos="12174" len="5"/>
          <note pan="0" key="65" vol="100" pos="12180" len="5"/>
          <note pan="0" key="29" vol="100" pos="12186" len="5"/>
          <note pan="0" key="53" vol="100" pos="12192" len="11"/>
          <note pan="0" key="41" vol="100" pos="12204" len="5"/>
          <note pan="0" key="29" vol="100" pos="12210" len="5"/>
          <note pan="0" key="53" vol="100" pos="12216" len="5"/>
          <note pan="0" key="29" vol="100" pos="12222" len="5"/>
          <note pan="0" key="65" vol="100" pos="12228" len="11"/>
          <note pan="0" key="41" vol="100" pos="12240" len="5"/>
          <note pan="0" key="29" vol="100" pos="12246" len="5"/>
          <note pan="0" key="65" vol="100" pos="12252" len="5"/>
          <note pan="0" key="29" vol="100" pos="12258" len="5"/>
          <note pan="0" key="63" vol="100" pos="12264" len="5"/>
          <note pan="0" key="27" vol="100" pos="12270" len="5"/>
          <note pan="0" key="65" vol="100" pos="12276" len="5"/>
          <note pan="0" key="29" vol="100" pos="12282" len="5"/>
          <note pan="0" key="53" vol="100" pos="12288" len="11"/>
          <note pan="0" key="41" vol="100" pos="12300" len="5"/>
          <note pan="0" key="29" vol="100" pos="12306" len="5"/>
          <note pan="0" key="53" vol="100" pos="12312" len="5"/>
          <note pan="0" key="29" vol="100" pos="12318" len="5"/>
          <note pan="0" key="65" vol="100" pos="12324" len="11"/>
          <note pan="0" key="41" vol="100" pos="12336" len="5"/>
          <note pan="0" key="29" vol="100" pos="12342" len="5"/>
          <note pan="0" key="65" vol="100" pos="12348" len="5"/>
          <note pan="0" key="29" vol="100" pos="12354" len="5"/>
          <note pan="0" key="63" vol="100" pos="12360" len="5"/>
          <note pan="0" key="27" vol="100" pos="12366" len="5"/>
          <note pan="0" key="65" vol="100" pos="12372" len="5"/>
          <note pan="0" key="29" vol="100" pos="12378" len="5"/>
          <note pan="0" key="56" vol="100" pos="12384" len="11"/>
          <note pan="0" key="37" vol="100" pos="12396" len="5"/>
          <note pan="0" key="49" vol="100" pos="12402" len="5"/>
          <note pan="0" key="65" vol="100" pos="12408" len="5"/>
          <note pan="0" key="49" vol="100" pos="12414" len="5"/>
          <note pan="0" key="68" vol="100" pos="12420" len="5"/>
          <note pan="0" key="49" vol="100" pos="12426" len="5"/>
          <note pan="0" key="58" vol="100" pos="12432" len="11"/>
          <note pan="0" key="39" vol="100" pos="12444" len="5"/>
          <note pan="0" key="51" vol="100" pos="12450" len="5"/>
          <note pan="0" key="68" vol="100" pos="12456" len="5"/>
          <note pan="0" key="51" vol="100" pos="12462" len="5"/>
          <note pan="0" key="70" vol="100" pos="12468" len="5"/>
          <note pan="0" key="51" vol="100" pos="12474" len="5"/>
          <note pan="0" key="53" vol="100" pos="12480" len="11"/>
          <note pan="0" key="41" vol="100" pos="12492" len="5"/>
          <note pan="0" key="29" vol="100" pos="12498" len="5"/>
          <note pan="0" key="53" vol="100" pos="12504" len="5"/>
          <note pan="0" key="29" vol="100" pos="12510" len="5"/>
          <note pan="0" key="65" vol="100" pos="12516" len="11"/>
          <note pan="0" key="41" vol="100" pos="12528" len="5"/>
          <note pan="0" key="29" vol="100" pos="12534" len="5"/>
          <note pan="0" key="65" vol="100" pos="12540" len="5"/>
          <note pan="0" key="29" vol="100" pos="12546" len="5"/>
          <note pan="0" key="63" vol="100" pos="12552" len="5"/>
          <note pan="0" key="27" vol="100" pos="12558" len="5"/>
          <note pan="0" key="65" vol="100" pos="12564" len="5"/>
          <note pan="0" key="29" vol="100" pos="12570" len="5"/>
          <note pan="0" key="53" vol="100" pos="12576" len="11"/>
          <note pan="0" key="41" vol="100" pos="12588" len="5"/>
          <note pan="0" key="29" vol="100" pos="12594" len="5"/>
          <note pan="0" key="53" vol="100" pos="12600" len="5"/>
          <note pan="0" key="29" vol="100" pos="12606" len="5"/>
          <note pan="0" key="65" vol="100" pos="12612" len="11"/>
          <note pan="0" key="41" vol="100" pos="12624" len="5"/>
          <note pan="0" key="29" vol="100" pos="12630" len="5"/>
          <note pan="0" key="65" vol="100" pos="12636" len="5"/>
          <note pan="0" key="29" vol="100" pos="12642" len="5"/>
          <note pan="0" key="63" vol="100" pos="12648" len="5"/>
          <note pan="0" key="27" vol="100" pos="12654" len="5"/>
          <note pan="0" key="65" vol="100" pos="12660" len="5"/>
          <note pan="0" key="29" vol="100" pos="12666" len="5"/>
          <note pan="0" key="53" vol="100" pos="12672" len="11"/>
          <note pan="0" key="41" vol="100" pos="12684" len="5"/>
          <note pan="0" key="29" vol="100" pos="12690" len="5"/>
          <note pan="0" key="53" vol="100" pos="12696" len="5"/>
          <note pan="0" key="29" vol="100" pos="12702" len="5"/>
          <note pan="0" key="65" vol="100" pos="12708" len="11"/>
          <note pan="0" key="41" vol="100" pos="12720" len="5"/>
          <note pan="0" key="29" vol="100" pos="12726" len="5"/>
          <note pan="0" key="65" vol="100" pos="12732" len="5"/>
          <note pan="0" key="29" vol="100" pos="12738" len="5"/>
          <note pan="0" key="63" vol="100" pos="12744" len="5"/>
          <note pan="0" key="27" vol="100" pos="12750" len="5"/>
          <note pan="0" key="65" vol="100" pos="12756" len="5"/>
          <note pan="0" key="29" vol="100" pos="12762" len="5"/>
          <note pan="0" key="58" vol="100" pos="12768" len="11"/>
          <note pan="0" key="56" vol="100" pos="12786" len="11"/>
          <note pan="0" key="58" vol="100" pos="12798" len="11"/>
          <note pan="0" key="56" vol="100" pos="12816" len="11"/>
          <note pan="0" key="53" vol="100" pos="12834" len="11"/>
          <note pan="0" key="56" vol="100" pos="12852" len="11"/>
          <note pan="0" key="70" vol="100" pos="12864" len="5"/>
          <note pan="0" key="58" vol="100" pos="12870" len="17"/>
          <note pan="0" key="72" vol="100" pos="12888" len="5"/>
          <note pan="0" key="60" vol="100" pos="12894" len="17"/>
          <note pan="0" key="73" vol="100" pos="12912" len="5"/>
          <note pan="0" key="61" vol="100" pos="12918" len="17"/>
          <note pan="0" key="75" vol="100" pos="12936" len="5"/>
          <note pan="0" key="63" vol="100" pos="12942" len="17"/>
          <note pan="0" key="77" vol="100" pos="12960" len="5"/>
          <note pan="0" key="65" vol="100" pos="12966" len="23"/>
          <note pan="0" key="58" vol="100" pos="12990" len="5"/>
          <note pan="0" key="53" vol="100" pos="12996" len="5"/>
          <note pan="0" key="46" vol="100" pos="13002" len="5"/>
          <note pan="0" key="82" vol="100" pos="13008" len="5"/>
          <note pan="0" key="70" vol="100" pos="13014" len="17"/>
          <note pan="0" key="80" vol="100" pos="13032" len="5"/>
          <note pan="0" key="68" vol="100" pos="13038" len="17"/>
          <note pan="0" key="77" vol="100" pos="13056" len="5"/>
          <note pan="0" key="65" vol="100" pos="13062" len="41"/>
          <note pan="0" key="70" vol="100" pos="13104" len="5"/>
          <note pan="0" key="58" vol="100" pos="13110" len="41"/>
          <note pan="0" key="77" vol="100" pos="13152" len="5"/>
          <note pan="0" key="65" vol="100" pos="13158" len="17"/>
          <note pan="0" key="75" vol="100" pos="13176" len="5"/>
          <note pan="0" key="65" vol="100" pos="13182" len="5"/>
          <note pan="0" key="63" vol="100" pos="13188" len="11"/>
          <note pan="0" key="73" vol="100" pos="13200" len="5"/>
          <note pan="0" key="61" vol="100" pos="13206" len="17"/>
          <note pan="0" key="72" vol="100" pos="13224" len="5"/>
          <note pan="0" key="60" vol="100" pos="13230" len="17"/>
          <note pan="0" key="70" vol="100" pos="13248" len="5"/>
          <note pan="0" key="58" vol="100" pos="13254" len="17"/>
          <note pan="0" key="72" vol="100" pos="13272" len="5"/>
          <note pan="0" key="60" vol="100" pos="13278" len="17"/>
          <note pan="0" key="73" vol="100" pos="13296" len="5"/>
          <note pan="0" key="61" vol="100" pos="13302" len="17"/>
          <note pan="0" key="75" vol="100" pos="13320" len="5"/>
          <note pan="0" key="63" vol="100" pos="13326" len="17"/>
          <note pan="0" key="77" vol="100" pos="13344" len="5"/>
          <note pan="0" key="65" vol="100" pos="13350" len="23"/>
          <note pan="0" key="61" vol="100" pos="13374" len="5"/>
          <note pan="0" key="58" vol="100" pos="13380" len="5"/>
          <note pan="0" key="54" vol="100" pos="13386" len="5"/>
          <note pan="0" key="75" vol="100" pos="13392" len="5"/>
          <note pan="0" key="63" vol="100" pos="13398" len="17"/>
          <note pan="0" key="73" vol="100" pos="13416" len="5"/>
          <note pan="0" key="61" vol="100" pos="13422" len="17"/>
          <note pan="0" key="72" vol="100" pos="13440" len="5"/>
          <note pan="0" key="60" vol="100" pos="13446" len="17"/>
          <note pan="0" key="70" vol="100" pos="13464" len="5"/>
          <note pan="0" key="61" vol="100" pos="13470" len="5"/>
          <note pan="0" key="60" vol="100" pos="13476" len="5"/>
          <note pan="0" key="58" vol="100" pos="13482" len="5"/>
          <note pan="0" key="72" vol="100" pos="13488" len="5"/>
          <note pan="0" key="60" vol="100" pos="13494" len="17"/>
          <note pan="0" key="73" vol="100" pos="13512" len="5"/>
          <note pan="0" key="61" vol="100" pos="13518" len="17"/>
          <note pan="0" key="72" vol="100" pos="13536" len="5"/>
          <note pan="0" key="60" vol="100" pos="13542" len="17"/>
          <note pan="0" key="70" vol="100" pos="13560" len="5"/>
          <note pan="0" key="58" vol="100" pos="13566" len="17"/>
          <note pan="0" key="69" vol="100" pos="13584" len="5"/>
          <note pan="0" key="57" vol="100" pos="13590" len="17"/>
          <note pan="0" key="72" vol="100" pos="13608" len="5"/>
          <note pan="0" key="60" vol="100" pos="13614" len="17"/>
          <note pan="0" key="70" vol="100" pos="13632" len="5"/>
          <note pan="0" key="58" vol="100" pos="13638" len="17"/>
          <note pan="0" key="72" vol="100" pos="13656" len="5"/>
          <note pan="0" key="60" vol="100" pos="13662" len="17"/>
          <note pan="0" key="73" vol="100" pos="13680" len="5"/>
          <note pan="0" key="61" vol="100" pos="13686" len="17"/>
          <note pan="0" key="75" vol="100" pos="13704" len="5"/>
          <note pan="0" key="63" vol="100" pos="13710" len="17"/>
          <note pan="0" key="77" vol="100" pos="13728" len="5"/>
          <note pan="0" key="65" vol="100" pos="13734" len="23"/>
          <note pan="0" key="58" vol="100" pos="13758" len="5"/>
          <note pan="0" key="53" vol="100" pos="13764" len="5"/>
          <note pan="0" key="46" vol="100" pos="13770" len="5"/>
          <note pan="0" key="82" vol="100" pos="13776" len="5"/>
          <note pan="0" key="70" vol="100" pos="13782" len="17"/>
          <note pan="0" key="80" vol="100" pos="13800" len="5"/>
          <note pan="0" key="68" vol="100" pos="13806" len="17"/>
          <note pan="0" key="77" vol="100" pos="13824" len="5"/>
          <note pan="0" key="65" vol="100" pos="13830" len="41"/>
          <note pan="0" key="70" vol="100" pos="13872" len="5"/>
          <note pan="0" key="58" vol="100" pos="13878" len="41"/>
          <note pan="0" key="77" vol="100" pos="13920" len="5"/>
          <note pan="0" key="65" vol="100" pos="13926" len="17"/>
          <note pan="0" key="75" vol="100" pos="13944" len="5"/>
          <note pan="0" key="65" vol="100" pos="13950" len="5"/>
          <note pan="0" key="63" vol="100" pos="13956" len="11"/>
          <note pan="0" key="73" vol="100" pos="13968" len="5"/>
          <note pan="0" key="61" vol="100" pos="13974" len="17"/>
          <note pan="0" key="72" vol="100" pos="13992" len="5"/>
          <note pan="0" key="60" vol="100" pos="13998" len="17"/>
          <note pan="0" key="70" vol="100" pos="14016" len="5"/>
          <note pan="0" key="58" vol="100" pos="14022" len="17"/>
          <note pan="0" key="72" vol="100" pos="14040" len="5"/>
          <note pan="0" key="60" vol="100" pos="14046" len="17"/>
          <note pan="0" key="73" vol="100" pos="14064" len="5"/>
          <note pan="0" key="61" vol="100" pos="14070" len="17"/>
          <note pan="0" key="75" vol="100" pos="14088" len="5"/>
          <note pan="0" key="63" vol="100" pos="14094" len="17"/>
          <note pan="0" key="77" vol="100" pos="14112" len="5"/>
          <note pan="0" key="65" vol="100" pos="14118" len="23"/>
          <note pan="0" key="61" vol="100" pos="14142" len="5"/>
          <note pan="0" key="58" vol="100" pos="14148" len="5"/>
          <note pan="0" key="54" vol="100" pos="14154" len="5"/>
          <note pan="0" key="75" vol="100" pos="14160" len="5"/>
          <note pan="0" key="63" vol="100" pos="14166" len="17"/>
          <note pan="0" key="73" vol="100" pos="14184" len="5"/>
          <note pan="0" key="61" vol="100" pos="14190" len="17"/>
          <note pan="0" key="68" vol="100" pos="14208" len="5"/>
          <note pan="0" key="56" vol="100" pos="14214" len="41"/>
          <note pan="0" key="70" vol="100" pos="14256" len="5"/>
          <note pan="0" key="58" vol="100" pos="14262" len="41"/>
          <note pan="0" key="72" vol="100" pos="14304" len="5"/>
          <note pan="0" key="60" vol="100" pos="14310" len="41"/>
          <note pan="0" key="73" vol="100" pos="14352" len="5"/>
          <note pan="0" key="61" vol="100" pos="14358" len="41"/>
          <note pan="0" key="65" vol="100" pos="14400" len="5"/>
          <note pan="0" key="53" vol="100" pos="14406" len="17"/>
          <note pan="0" key="68" vol="100" pos="14424" len="5"/>
          <note pan="0" key="56" vol="100" pos="14430" len="17"/>
          <note pan="0" key="70" vol="100" pos="14448" len="5"/>
          <note pan="0" key="58" vol="100" pos="14454" len="17"/>
          <note pan="0" key="72" vol="100" pos="14472" len="5"/>
          <note pan="0" key="60" vol="100" pos="14478" len="17"/>
          <note pan="0" key="70" vol="100" pos="14496" len="5"/>
          <note pan="0" key="58" vol="100" pos="14502" len="23"/>
          <note pan="0" key="53" vol="100" pos="14526" len="5"/>
          <note pan="0" key="49" vol="100" pos="14532" len="5"/>
          <note pan="0" key="46" vol="100" pos="14538" len="5"/>
          <note pan="0" key="77" vol="100" pos="14544" len="5"/>
          <note pan="0" key="65" vol="100" pos="14550" len="17"/>
          <note pan="0" key="75" vol="100" pos="14568" len="5"/>
          <note pan="0" key="63" vol="100" pos="14574" len="17"/>
          <note pan="0" key="73" vol="100" pos="14592" len="5"/>
          <note pan="0" key="61" vol="100" pos="14598" len="17"/>
          <note pan="0" key="60" vol="100" pos="14616" len="23"/>
          <note pan="0" key="65" vol="100" pos="14640" len="5"/>
          <note pan="0" key="53" vol="100" pos="14646" len="41"/>
          <note pan="0" key="70" vol="100" pos="14688" len="5"/>
          <note pan="0" key="58" vol="100" pos="14694" len="17"/>
          <note pan="0" key="68" vol="100" pos="14712" len="5"/>
          <note pan="0" key="58" vol="100" pos="14718" len="5"/>
          <note pan="0" key="56" vol="100" pos="14724" len="11"/>
          <note pan="0" key="65" vol="100" pos="14736" len="5"/>
          <note pan="0" key="53" vol="100" pos="14742" len="17"/>
          <note pan="0" key="68" vol="100" pos="14760" len="5"/>
          <note pan="0" key="56" vol="100" pos="14766" len="17"/>
          <note pan="0" key="66" vol="100" pos="14784" len="5"/>
          <note pan="0" key="54" vol="100" pos="14790" len="17"/>
          <note pan="0" key="68" vol="100" pos="14808" len="5"/>
          <note pan="0" key="56" vol="100" pos="14814" len="17"/>
          <note pan="0" key="70" vol="100" pos="14832" len="5"/>
          <note pan="0" key="58" vol="100" pos="14838" len="17"/>
          <note pan="0" key="72" vol="100" pos="14856" len="5"/>
          <note pan="0" key="60" vol="100" pos="14862" len="17"/>
          <note pan="0" key="70" vol="100" pos="14880" len="5"/>
          <note pan="0" key="58" vol="100" pos="14886" len="23"/>
          <note pan="0" key="58" vol="100" pos="14910" len="5"/>
          <note pan="0" key="54" vol="100" pos="14916" len="5"/>
          <note pan="0" key="49" vol="100" pos="14922" len="5"/>
          <note pan="0" key="72" vol="100" pos="14928" len="5"/>
          <note pan="0" key="60" vol="100" pos="14934" len="17"/>
          <note pan="0" key="70" vol="100" pos="14952" len="5"/>
          <note pan="0" key="58" vol="100" pos="14958" len="17"/>
          <note pan="0" key="68" vol="100" pos="14976" len="5"/>
          <note pan="0" key="56" vol="100" pos="14982" len="17"/>
          <note pan="0" key="61" vol="100" pos="15000" len="5"/>
          <note pan="0" key="58" vol="100" pos="15006" len="5"/>
          <note pan="0" key="56" vol="100" pos="15012" len="5"/>
          <note pan="0" key="51" vol="100" pos="15018" len="5"/>
          <note pan="0" key="68" vol="100" pos="15024" len="5"/>
          <note pan="0" key="56" vol="100" pos="15030" len="17"/>
          <note pan="0" key="70" vol="100" pos="15048" len="5"/>
          <note pan="0" key="58" vol="100" pos="15054" len="17"/>
          <note pan="0" key="68" vol="100" pos="15072" len="5"/>
          <note pan="0" key="56" vol="100" pos="15078" len="17"/>
          <note pan="0" key="66" vol="100" pos="15096" len="5"/>
          <note pan="0" key="54" vol="100" pos="15102" len="17"/>
          <note pan="0" key="65" vol="100" pos="15120" len="5"/>
          <note pan="0" key="53" vol="100" pos="15126" len="17"/>
          <note pan="0" key="69" vol="100" pos="15144" len="5"/>
          <note pan="0" key="57" vol="100" pos="15150" len="17"/>
          <note pan="0" key="65" vol="100" pos="15168" len="5"/>
          <note pan="0" key="53" vol="100" pos="15174" len="17"/>
          <note pan="0" key="68" vol="100" pos="15192" len="5"/>
          <note pan="0" key="56" vol="100" pos="15198" len="17"/>
          <note pan="0" key="70" vol="100" pos="15216" len="5"/>
          <note pan="0" key="58" vol="100" pos="15222" len="17"/>
          <note pan="0" key="72" vol="100" pos="15240" len="5"/>
          <note pan="0" key="60" vol="100" pos="15246" len="17"/>
          <note pan="0" key="70" vol="100" pos="15264" len="5"/>
          <note pan="0" key="58" vol="100" pos="15270" len="41"/>
          <note pan="0" key="77" vol="100" pos="15312" len="5"/>
          <note pan="0" key="65" vol="100" pos="15318" len="17"/>
          <note pan="0" key="75" vol="100" pos="15336" len="5"/>
          <note pan="0" key="63" vol="100" pos="15342" len="17"/>
          <note pan="0" key="73" vol="100" pos="15360" len="5"/>
          <note pan="0" key="61" vol="100" pos="15366" len="17"/>
          <note pan="0" key="60" vol="100" pos="15384" len="23"/>
          <note pan="0" key="65" vol="100" pos="15408" len="5"/>
          <note pan="0" key="53" vol="100" pos="15414" len="41"/>
          <note pan="0" key="70" vol="100" pos="15456" len="5"/>
          <note pan="0" key="58" vol="100" pos="15462" len="17"/>
          <note pan="0" key="68" vol="100" pos="15480" len="5"/>
          <note pan="0" key="58" vol="100" pos="15486" len="5"/>
          <note pan="0" key="56" vol="100" pos="15492" len="11"/>
          <note pan="0" key="65" vol="100" pos="15504" len="5"/>
          <note pan="0" key="53" vol="100" pos="15510" len="17"/>
          <note pan="0" key="68" vol="100" pos="15528" len="5"/>
          <note pan="0" key="56" vol="100" pos="15534" len="17"/>
          <note pan="0" key="66" vol="100" pos="15552" len="5"/>
          <note pan="0" key="54" vol="100" pos="15558" len="17"/>
          <note pan="0" key="68" vol="100" pos="15576" len="5"/>
          <note pan="0" key="56" vol="100" pos="15582" len="17"/>
          <note pan="0" key="70" vol="100" pos="15600" len="5"/>
          <note pan="0" key="58" vol="100" pos="15606" len="17"/>
          <note pan="0" key="72" vol="100" pos="15624" len="5"/>
          <note pan="0" key="60" vol="100" pos="15630" len="17"/>
          <note pan="0" key="70" vol="100" pos="15648" len="5"/>
          <note pan="0" key="58" vol="100" pos="15654" len="23"/>
          <note pan="0" key="58" vol="100" pos="15678" len="5"/>
          <note pan="0" key="54" vol="100" pos="15684" len="5"/>
          <note pan="0" key="49" vol="100" pos="15690" len="5"/>
          <note pan="0" key="72" vol="100" pos="15696" len="5"/>
          <note pan="0" key="60" vol="100" pos="15702" len="17"/>
          <note pan="0" key="70" vol="100" pos="15720" len="5"/>
          <note pan="0" key="58" vol="100" pos="15726" len="17"/>
          <note pan="0" key="56" vol="100" pos="15744" len="5"/>
          <note pan="0" key="75" vol="100" pos="15750" len="5"/>
          <note pan="0" key="63" vol="100" pos="15756" len="5"/>
          <note pan="0" key="68" vol="100" pos="15762" len="5"/>
          <note pan="0" key="51" vol="100" pos="15768" len="5"/>
          <note pan="0" key="72" vol="100" pos="15774" len="5"/>
          <note pan="0" key="56" vol="100" pos="15780" len="5"/>
          <note pan="0" key="68" vol="100" pos="15786" len="5"/>
          <note pan="0" key="56" vol="100" pos="15792" len="5"/>
          <note pan="0" key="75" vol="100" pos="15798" len="5"/>
          <note pan="0" key="63" vol="100" pos="15804" len="5"/>
          <note pan="0" key="68" vol="100" pos="15810" len="5"/>
          <note pan="0" key="51" vol="100" pos="15816" len="5"/>
          <note pan="0" key="72" vol="100" pos="15822" len="5"/>
          <note pan="0" key="56" vol="100" pos="15828" len="5"/>
          <note pan="0" key="68" vol="100" pos="15834" len="5"/>
          <note pan="0" key="57" vol="100" pos="15840" len="5"/>
          <note pan="0" key="77" vol="100" pos="15846" len="5"/>
          <note pan="0" key="65" vol="100" pos="15852" len="5"/>
          <note pan="0" key="69" vol="100" pos="15858" len="5"/>
          <note pan="0" key="53" vol="100" pos="15864" len="5"/>
          <note pan="0" key="75" vol="100" pos="15870" len="5"/>
          <note pan="0" key="57" vol="100" pos="15876" len="5"/>
          <note pan="0" key="69" vol="100" pos="15882" len="5"/>
          <note pan="0" key="57" vol="100" pos="15888" len="5"/>
          <note pan="0" key="77" vol="100" pos="15894" len="5"/>
          <note pan="0" key="65" vol="100" pos="15900" len="5"/>
          <note pan="0" key="69" vol="100" pos="15906" len="5"/>
          <note pan="0" key="53" vol="100" pos="15912" len="5"/>
          <note pan="0" key="75" vol="100" pos="15918" len="5"/>
          <note pan="0" key="57" vol="100" pos="15924" len="5"/>
          <note pan="0" key="69" vol="100" pos="15930" len="5"/>
          <note pan="0" key="77" vol="100" pos="15936" len="23"/>
          <note pan="0" key="77" vol="100" pos="15960" len="23"/>
          <note pan="0" key="73" vol="100" pos="15984" len="23"/>
          <note pan="0" key="72" vol="100" pos="16008" len="23"/>
          <note pan="0" key="73" vol="100" pos="16032" len="47"/>
          <note pan="0" key="72" vol="100" pos="16080" len="23"/>
          <note pan="0" key="73" vol="100" pos="16104" len="23"/>
          <note pan="0" key="75" vol="100" pos="16128" len="23"/>
          <note pan="0" key="75" vol="100" pos="16152" len="23"/>
          <note pan="0" key="72" vol="100" pos="16176" len="23"/>
          <note pan="0" key="70" vol="100" pos="16200" len="23"/>
          <note pan="0" key="72" vol="100" pos="16224" len="47"/>
          <note pan="0" key="65" vol="100" pos="16272" len="23"/>
          <note pan="0" key="70" vol="100" pos="16296" len="23"/>
          <note pan="0" key="68" vol="100" pos="16320" len="23"/>
          <note pan="0" key="65" vol="100" pos="16344" len="23"/>
          <note pan="0" key="63" vol="100" pos="16368" len="23"/>
          <note pan="0" key="60" vol="100" pos="16392" len="23"/>
          <note pan="0" key="61" vol="100" pos="16416" len="41"/>
          <note pan="0" key="61" vol="100" pos="16464" len="23"/>
          <note pan="0" key="65" vol="100" pos="16488" len="23"/>
          <note pan="0" key="63" vol="100" pos="16512" len="23"/>
          <note pan="0" key="65" vol="100" pos="16536" len="23"/>
          <note pan="0" key="68" vol="100" pos="16560" len="23"/>
          <note pan="0" key="70" vol="100" pos="16584" len="23"/>
          <note pan="0" key="61" vol="100" pos="16608" len="47"/>
          <note pan="0" key="70" vol="100" pos="16656" len="23"/>
          <note pan="0" key="68" vol="100" pos="16680" len="23"/>
          <note pan="0" key="78" vol="100" pos="16704" len="5"/>
          <note pan="0" key="66" vol="100" pos="16710" len="5"/>
          <note pan="0" key="78" vol="100" pos="16716" len="11"/>
          <note pan="0" key="73" vol="100" pos="16728" len="5"/>
          <note pan="0" key="66" vol="100" pos="16734" len="5"/>
          <note pan="0" key="73" vol="100" pos="16740" len="11"/>
          <note pan="0" key="78" vol="100" pos="16752" len="5"/>
          <note pan="0" key="66" vol="100" pos="16758" len="5"/>
          <note pan="0" key="78" vol="100" pos="16764" len="11"/>
          <note pan="0" key="73" vol="100" pos="16776" len="5"/>
          <note pan="0" key="66" vol="100" pos="16782" len="5"/>
          <note pan="0" key="73" vol="100" pos="16788" len="11"/>
          <note pan="0" key="78" vol="100" pos="16800" len="5"/>
          <note pan="0" key="66" vol="100" pos="16806" len="5"/>
          <note pan="0" key="78" vol="100" pos="16812" len="11"/>
          <note pan="0" key="73" vol="100" pos="16824" len="5"/>
          <note pan="0" key="66" vol="100" pos="16830" len="5"/>
          <note pan="0" key="73" vol="100" pos="16836" len="11"/>
          <note pan="0" key="78" vol="100" pos="16848" len="5"/>
          <note pan="0" key="70" vol="100" pos="16854" len="5"/>
          <note pan="0" key="73" vol="100" pos="16860" len="5"/>
          <note pan="0" key="78" vol="100" pos="16866" len="5"/>
          <note pan="0" key="73" vol="100" pos="16872" len="5"/>
          <note pan="0" key="70" vol="100" pos="16878" len="5"/>
          <note pan="0" key="73" vol="100" pos="16884" len="5"/>
          <note pan="0" key="78" vol="100" pos="16890" len="5"/>
          <note pan="0" key="80" vol="100" pos="16896" len="11"/>
          <note pan="0" key="75" vol="100" pos="16908" len="11"/>
          <note pan="0" key="72" vol="100" pos="16920" len="11"/>
          <note pan="0" key="75" vol="100" pos="16932" len="11"/>
          <note pan="0" key="80" vol="100" pos="16944" len="11"/>
          <note pan="0" key="75" vol="100" pos="16956" len="11"/>
          <note pan="0" key="72" vol="100" pos="16968" len="11"/>
          <note pan="0" key="75" vol="100" pos="16980" len="11"/>
          <note pan="0" key="81" vol="100" pos="16992" len="11"/>
          <note pan="0" key="75" vol="100" pos="17004" len="11"/>
          <note pan="0" key="72" vol="100" pos="17016" len="11"/>
          <note pan="0" key="75" vol="100" pos="17028" len="11"/>
          <note pan="0" key="81" vol="100" pos="17040" len="11"/>
          <note pan="0" key="77" vol="100" pos="17052" len="11"/>
          <note pan="0" key="81" vol="100" pos="17064" len="11"/>
          <note pan="0" key="84" vol="100" pos="17076" len="11"/>
          <note pan="0" key="85" vol="100" pos="17088" len="11"/>
          <note pan="0" key="84" vol="100" pos="17100" len="11"/>
          <note pan="0" key="82" vol="100" pos="17112" len="11"/>
          <note pan="0" key="80" vol="100" pos="17124" len="11"/>
          <note pan="0" key="77" vol="100" pos="17136" len="11"/>
          <note pan="0" key="75" vol="100" pos="17148" len="11"/>
          <note pan="0" key="73" vol="100" pos="17160" len="11"/>
          <note pan="0" key="80" vol="100" pos="17172" len="11"/>
          <note pan="0" key="77" vol="100" pos="17184" len="11"/>
          <note pan="0" key="75" vol="100" pos="17196" len="11"/>
          <note pan="0" key="73" vol="100" pos="17208" len="11"/>
          <note pan="0" key="70" vol="100" pos="17220" len="11"/>
          <note pan="0" key="72" vol="100" pos="17232" len="11"/>
          <note pan="0" key="73" vol="100" pos="17244" len="11"/>
          <note pan="0" key="72" vol="100" pos="17256" len="11"/>
          <note pan="0" key="68" vol="100" pos="17268" len="11"/>
          <note pan="0" key="70" vol="100" pos="17280" len="11"/>
          <note pan="0" key="65" vol="100" pos="17292" len="11"/>
          <note pan="0" key="72" vol="100" pos="17304" len="11"/>
          <note pan="0" key="65" vol="100" pos="17316" len="11"/>
          <note pan="0" key="73" vol="100" pos="17328" len="11"/>
          <note pan="0" key="65" vol="100" pos="17340" len="11"/>
          <note pan="0" key="75" vol="100" pos="17352" len="11"/>
          <note pan="0" key="65" vol="100" pos="17364" len="11"/>
          <note pan="0" key="77" vol="100" pos="17376" len="11"/>
          <note pan="0" key="72" vol="100" pos="17388" len="11"/>
          <note pan="0" key="73" vol="100" pos="17400" len="11"/>
          <note pan="0" key="72" vol="100" pos="17412" len="11"/>
          <note pan="0" key="68" vol="100" pos="17424" len="11"/>
          <note pan="0" key="63" vol="100" pos="17436" len="11"/>
          <note pan="0" key="61" vol="100" pos="17448" len="11"/>
          <note pan="0" key="60" vol="100" pos="17460" len="11"/>
          <note pan="0" key="42" vol="100" pos="17472" len="5"/>
          <note pan="0" key="49" vol="100" pos="17484" len="5"/>
          <note pan="0" key="54" vol="100" pos="17496" len="5"/>
          <note pan="0" key="49" vol="100" pos="17508" len="5"/>
          <note pan="0" key="42" vol="100" pos="17520" len="5"/>
          <note pan="0" key="49" vol="100" pos="17532" len="5"/>
          <note pan="0" key="54" vol="100" pos="17544" len="5"/>
          <note pan="0" key="49" vol="100" pos="17556" len="5"/>
          <note pan="0" key="42" vol="100" pos="17568" len="5"/>
          <note pan="0" key="49" vol="100" pos="17580" len="5"/>
          <note pan="0" key="54" vol="100" pos="17592" len="5"/>
          <note pan="0" key="49" vol="100" pos="17604" len="5"/>
          <note pan="0" key="42" vol="100" pos="17616" len="5"/>
          <note pan="0" key="49" vol="100" pos="17628" len="5"/>
          <note pan="0" key="54" vol="100" pos="17640" len="5"/>
          <note pan="0" key="49" vol="100" pos="17652" len="5"/>
          <note pan="0" key="44" vol="100" pos="17664" len="5"/>
          <note pan="0" key="51" vol="100" pos="17676" len="5"/>
          <note pan="0" key="56" vol="100" pos="17688" len="5"/>
          <note pan="0" key="51" vol="100" pos="17700" len="5"/>
          <note pan="0" key="44" vol="100" pos="17712" len="5"/>
          <note pan="0" key="51" vol="100" pos="17724" len="5"/>
          <note pan="0" key="56" vol="100" pos="17736" len="5"/>
          <note pan="0" key="51" vol="100" pos="17748" len="5"/>
          <note pan="0" key="44" vol="100" pos="17760" len="5"/>
          <note pan="0" key="51" vol="100" pos="17772" len="5"/>
          <note pan="0" key="56" vol="100" pos="17784" len="5"/>
          <note pan="0" key="51" vol="100" pos="17796" len="5"/>
          <note pan="0" key="45" vol="100" pos="17808" len="5"/>
          <note pan="0" key="53" vol="100" pos="17820" len="5"/>
          <note pan="0" key="57" vol="100" pos="17832" len="5"/>
          <note pan="0" key="53" vol="100" pos="17844" len="5"/>
          <note pan="0" key="46" vol="100" pos="17856" len="5"/>
          <note pan="0" key="53" vol="100" pos="17868" len="5"/>
          <note pan="0" key="58" vol="100" pos="17880" len="5"/>
          <note pan="0" key="53" vol="100" pos="17892" len="5"/>
          <note pan="0" key="46" vol="100" pos="17904" len="5"/>
          <note pan="0" key="53" vol="100" pos="17916" len="5"/>
          <note pan="0" key="58" vol="100" pos="17928" len="5"/>
          <note pan="0" key="53" vol="100" pos="17940" len="5"/>
          <note pan="0" key="46" vol="100" pos="17952" len="5"/>
          <note pan="0" key="53" vol="100" pos="17964" len="5"/>
          <note pan="0" key="58" vol="100" pos="17976" len="5"/>
          <note pan="0" key="53" vol="100" pos="17988" len="5"/>
          <note pan="0" key="46" vol="100" pos="18000" len="5"/>
          <note pan="0" key="53" vol="100" pos="18012" len="5"/>
          <note pan="0" key="58" vol="100" pos="18024" len="5"/>
          <note pan="0" key="53" vol="100" pos="18036" len="5"/>
          <note pan="0" key="46" vol="100" pos="18048" len="5"/>
          <note pan="0" key="51" vol="100" pos="18060" len="5"/>
          <note pan="0" key="56" vol="100" pos="18072" len="5"/>
          <note pan="0" key="51" vol="100" pos="18084" len="5"/>
          <note pan="0" key="46" vol="100" pos="18096" len="5"/>
          <note pan="0" key="51" vol="100" pos="18108" len="5"/>
          <note pan="0" key="56" vol="100" pos="18120" len="5"/>
          <note pan="0" key="51" vol="100" pos="18132" len="5"/>
          <note pan="0" key="49" vol="100" pos="18144" len="5"/>
          <note pan="0" key="56" vol="100" pos="18156" len="5"/>
          <note pan="0" key="61" vol="100" pos="18168" len="5"/>
          <note pan="0" key="56" vol="100" pos="18180" len="11"/>
          <note pan="0" key="61" vol="100" pos="18192" len="11"/>
          <note pan="0" key="60" vol="100" pos="18204" len="11"/>
          <note pan="0" key="56" vol="100" pos="18216" len="11"/>
          <note pan="0" key="51" vol="100" pos="18228" len="11"/>
          <note pan="0" key="77" vol="100" pos="18240" len="23"/>
          <note pan="0" key="77" vol="100" pos="18264" len="23"/>
          <note pan="0" key="73" vol="100" pos="18288" len="23"/>
          <note pan="0" key="72" vol="100" pos="18312" len="23"/>
          <note pan="0" key="73" vol="100" pos="18336" len="47"/>
          <note pan="0" key="72" vol="100" pos="18384" len="23"/>
          <note pan="0" key="73" vol="100" pos="18408" len="23"/>
          <note pan="0" key="75" vol="100" pos="18432" len="23"/>
          <note pan="0" key="75" vol="100" pos="18456" len="23"/>
          <note pan="0" key="72" vol="100" pos="18480" len="23"/>
          <note pan="0" key="70" vol="100" pos="18504" len="23"/>
          <note pan="0" key="72" vol="100" pos="18528" len="47"/>
          <note pan="0" key="77" vol="100" pos="18576" len="23"/>
          <note pan="0" key="80" vol="100" pos="18600" len="23"/>
          <note pan="0" key="82" vol="100" pos="18624" len="23"/>
          <note pan="0" key="80" vol="100" pos="18648" len="23"/>
          <note pan="0" key="77" vol="100" pos="18672" len="23"/>
          <note pan="0" key="75" vol="100" pos="18696" len="23"/>
          <note pan="0" key="73" vol="100" pos="18720" len="47"/>
          <note pan="0" key="72" vol="100" pos="18768" len="23"/>
          <note pan="0" key="73" vol="100" pos="18792" len="23"/>
          <note pan="0" key="72" vol="100" pos="18816" len="23"/>
          <note pan="0" key="68" vol="100" pos="18840" len="23"/>
          <note pan="0" key="63" vol="100" pos="18864" len="23"/>
          <note pan="0" key="60" vol="100" pos="18888" len="23"/>
          <note pan="0" key="61" vol="100" pos="18912" len="53"/>
          <note pan="0" key="61" vol="100" pos="18972" len="5"/>
          <note pan="0" key="61" vol="100" pos="18984" len="5"/>
          <note pan="0" key="61" vol="100" pos="18996" len="5"/>
          <note pan="0" key="76" vol="100" pos="19008" len="5"/>
          <note pan="0" key="64" vol="100" pos="19014" len="17"/>
          <note pan="0" key="78" vol="100" pos="19032" len="5"/>
          <note pan="0" key="66" vol="100" pos="19038" len="17"/>
          <note pan="0" key="74" vol="100" pos="19056" len="5"/>
          <note pan="0" key="62" vol="100" pos="19062" len="17"/>
          <note pan="0" key="73" vol="100" pos="19080" len="5"/>
          <note pan="0" key="61" vol="100" pos="19086" len="17"/>
          <note pan="0" key="74" vol="100" pos="19104" len="5"/>
          <note pan="0" key="62" vol="100" pos="19110" len="41"/>
          <note pan="0" key="73" vol="100" pos="19152" len="5"/>
          <note pan="0" key="61" vol="100" pos="19158" len="17"/>
          <note pan="0" key="74" vol="100" pos="19176" len="5"/>
          <note pan="0" key="62" vol="100" pos="19182" len="17"/>
          <note pan="0" key="76" vol="100" pos="19200" len="5"/>
          <note pan="0" key="64" vol="100" pos="19206" len="17"/>
          <note pan="0" key="78" vol="100" pos="19224" len="5"/>
          <note pan="0" key="66" vol="100" pos="19230" len="17"/>
          <note pan="0" key="73" vol="100" pos="19248" len="5"/>
          <note pan="0" key="61" vol="100" pos="19254" len="17"/>
          <note pan="0" key="71" vol="100" pos="19272" len="5"/>
          <note pan="0" key="59" vol="100" pos="19278" len="17"/>
          <note pan="0" key="73" vol="100" pos="19296" len="5"/>
          <note pan="0" key="61" vol="100" pos="19302" len="41"/>
          <note pan="0" key="66" vol="100" pos="19344" len="5"/>
          <note pan="0" key="54" vol="100" pos="19350" len="17"/>
          <note pan="0" key="71" vol="100" pos="19368" len="5"/>
          <note pan="0" key="59" vol="100" pos="19374" len="17"/>
          <note pan="0" key="69" vol="100" pos="19392" len="5"/>
          <note pan="0" key="57" vol="100" pos="19398" len="17"/>
          <note pan="0" key="66" vol="100" pos="19416" len="5"/>
          <note pan="0" key="54" vol="100" pos="19422" len="17"/>
          <note pan="0" key="64" vol="100" pos="19440" len="5"/>
          <note pan="0" key="52" vol="100" pos="19446" len="17"/>
          <note pan="0" key="61" vol="100" pos="19464" len="5"/>
          <note pan="0" key="49" vol="100" pos="19470" len="17"/>
          <note pan="0" key="62" vol="100" pos="19488" len="5"/>
          <note pan="0" key="50" vol="100" pos="19494" len="41"/>
          <note pan="0" key="62" vol="100" pos="19536" len="5"/>
          <note pan="0" key="50" vol="100" pos="19542" len="17"/>
          <note pan="0" key="66" vol="100" pos="19560" len="5"/>
          <note pan="0" key="54" vol="100" pos="19566" len="17"/>
          <note pan="0" key="64" vol="100" pos="19584" len="5"/>
          <note pan="0" key="52" vol="100" pos="19590" len="17"/>
          <note pan="0" key="66" vol="100" pos="19608" len="5"/>
          <note pan="0" key="54" vol="100" pos="19614" len="17"/>
          <note pan="0" key="69" vol="100" pos="19632" len="5"/>
          <note pan="0" key="57" vol="100" pos="19638" len="17"/>
          <note pan="0" key="71" vol="100" pos="19656" len="5"/>
          <note pan="0" key="59" vol="100" pos="19662" len="17"/>
          <note pan="0" key="62" vol="100" pos="19680" len="5"/>
          <note pan="0" key="50" vol="100" pos="19686" len="41"/>
          <note pan="0" key="71" vol="100" pos="19728" len="5"/>
          <note pan="0" key="59" vol="100" pos="19734" len="17"/>
          <note pan="0" key="69" vol="100" pos="19752" len="5"/>
          <note pan="0" key="57" vol="100" pos="19758" len="17"/>
          <note pan="0" key="67" vol="100" pos="19776" len="5"/>
          <note pan="0" key="55" vol="100" pos="19782" len="17"/>
          <note pan="0" key="74" vol="100" pos="19800" len="5"/>
          <note pan="0" key="62" vol="100" pos="19806" len="17"/>
          <note pan="0" key="67" vol="100" pos="19824" len="5"/>
          <note pan="0" key="55" vol="100" pos="19830" len="17"/>
          <note pan="0" key="74" vol="100" pos="19848" len="5"/>
          <note pan="0" key="62" vol="100" pos="19854" len="17"/>
          <note pan="0" key="67" vol="100" pos="19872" len="5"/>
          <note pan="0" key="55" vol="100" pos="19878" len="41"/>
          <note pan="0" key="67" vol="100" pos="19920" len="5"/>
          <note pan="0" key="55" vol="100" pos="19926" len="17"/>
          <note pan="0" key="74" vol="100" pos="19944" len="5"/>
          <note pan="0" key="62" vol="100" pos="19950" len="17"/>
          <note pan="0" key="69" vol="100" pos="19968" len="5"/>
          <note pan="0" key="57" vol="100" pos="19974" len="17"/>
          <note pan="0" key="76" vol="100" pos="19992" len="5"/>
          <note pan="0" key="64" vol="100" pos="19998" len="17"/>
          <note pan="0" key="69" vol="100" pos="20016" len="5"/>
          <note pan="0" key="57" vol="100" pos="20022" len="17"/>
          <note pan="0" key="76" vol="100" pos="20040" len="5"/>
          <note pan="0" key="64" vol="100" pos="20046" len="17"/>
          <note pan="0" key="66" vol="100" pos="20064" len="5"/>
          <note pan="0" key="54" vol="100" pos="20070" len="41"/>
          <note pan="0" key="66" vol="100" pos="20112" len="5"/>
          <note pan="0" key="54" vol="100" pos="20118" len="17"/>
          <note pan="0" key="74" vol="100" pos="20136" len="5"/>
          <note pan="0" key="62" vol="100" pos="20142" len="17"/>
          <note pan="0" key="73" vol="100" pos="20160" len="5"/>
          <note pan="0" key="61" vol="100" pos="20166" len="17"/>
          <note pan="0" key="71" vol="100" pos="20184" len="5"/>
          <note pan="0" key="59" vol="100" pos="20190" len="17"/>
          <note pan="0" key="69" vol="100" pos="20208" len="5"/>
          <note pan="0" key="57" vol="100" pos="20214" len="17"/>
          <note pan="0" key="64" vol="100" pos="20232" len="5"/>
          <note pan="0" key="52" vol="100" pos="20238" len="17"/>
          <note pan="0" key="66" vol="100" pos="20256" len="5"/>
          <note pan="0" key="54" vol="100" pos="20262" len="41"/>
          <note pan="0" key="64" vol="100" pos="20304" len="5"/>
          <note pan="0" key="52" vol="100" pos="20310" len="17"/>
          <note pan="0" key="66" vol="100" pos="20328" len="5"/>
          <note pan="0" key="54" vol="100" pos="20334" len="17"/>
          <note pan="0" key="64" vol="100" pos="20352" len="5"/>
          <note pan="0" key="52" vol="100" pos="20358" len="17"/>
          <note pan="0" key="62" vol="100" pos="20376" len="5"/>
          <note pan="0" key="50" vol="100" pos="20382" len="17"/>
          <note pan="0" key="61" vol="100" pos="20400" len="5"/>
          <note pan="0" key="49" vol="100" pos="20406" len="17"/>
          <note pan="0" key="57" vol="100" pos="20424" len="5"/>
          <note pan="0" key="45" vol="100" pos="20430" len="17"/>
          <note pan="0" key="59" vol="100" pos="20448" len="5"/>
          <note pan="0" key="47" vol="100" pos="20454" len="41"/>
          <note pan="0" key="71" vol="100" pos="20496" len="5"/>
          <note pan="0" key="59" vol="100" pos="20502" len="17"/>
          <note pan="0" key="69" vol="100" pos="20520" len="5"/>
          <note pan="0" key="57" vol="100" pos="20526" len="17"/>
          <note pan="0" key="69" vol="100" pos="20544" len="5"/>
          <note pan="0" key="57" vol="100" pos="20550" len="17"/>
          <note pan="0" key="71" vol="100" pos="20568" len="5"/>
          <note pan="0" key="59" vol="100" pos="20574" len="17"/>
          <note pan="0" key="66" vol="100" pos="20592" len="5"/>
          <note pan="0" key="54" vol="100" pos="20598" len="17"/>
          <note pan="0" key="64" vol="100" pos="20616" len="5"/>
          <note pan="0" key="52" vol="100" pos="20622" len="17"/>
          <note pan="0" key="66" vol="100" pos="20640" len="5"/>
          <note pan="0" key="54" vol="100" pos="20646" len="41"/>
          <note pan="0" key="64" vol="100" pos="20688" len="5"/>
          <note pan="0" key="52" vol="100" pos="20694" len="17"/>
          <note pan="0" key="66" vol="100" pos="20712" len="5"/>
          <note pan="0" key="54" vol="100" pos="20718" len="17"/>
          <note pan="0" key="69" vol="100" pos="20736" len="5"/>
          <note pan="0" key="57" vol="100" pos="20742" len="17"/>
          <note pan="0" key="71" vol="100" pos="20760" len="5"/>
          <note pan="0" key="59" vol="100" pos="20766" len="17"/>
          <note pan="0" key="66" vol="100" pos="20784" len="5"/>
          <note pan="0" key="54" vol="100" pos="20790" len="17"/>
          <note pan="0" key="64" vol="100" pos="20808" len="5"/>
          <note pan="0" key="52" vol="100" pos="20814" len="17"/>
          <note pan="0" key="66" vol="100" pos="20832" len="5"/>
          <note pan="0" key="54" vol="100" pos="20838" len="41"/>
          <note pan="0" key="59" vol="100" pos="20880" len="5"/>
          <note pan="0" key="47" vol="100" pos="20886" len="17"/>
          <note pan="0" key="66" vol="100" pos="20904" len="5"/>
          <note pan="0" key="54" vol="100" pos="20910" len="17"/>
          <note pan="0" key="64" vol="100" pos="20928" len="5"/>
          <note pan="0" key="52" vol="100" pos="20934" len="17"/>
          <note pan="0" key="62" vol="100" pos="20952" len="5"/>
          <note pan="0" key="50" vol="100" pos="20958" len="17"/>
          <note pan="0" key="61" vol="100" pos="20976" len="5"/>
          <note pan="0" key="49" vol="100" pos="20982" len="17"/>
          <note pan="0" key="57" vol="100" pos="21000" len="5"/>
          <note pan="0" key="45" vol="100" pos="21006" len="17"/>
          <note pan="0" key="59" vol="100" pos="21024" len="5"/>
          <note pan="0" key="47" vol="100" pos="21030" len="41"/>
          <note pan="0" key="59" vol="100" pos="21072" len="5"/>
          <note pan="0" key="47" vol="100" pos="21078" len="17"/>
          <note pan="0" key="62" vol="100" pos="21096" len="5"/>
          <note pan="0" key="50" vol="100" pos="21102" len="17"/>
          <note pan="0" key="61" vol="100" pos="21120" len="5"/>
          <note pan="0" key="49" vol="100" pos="21126" len="17"/>
          <note pan="0" key="62" vol="100" pos="21144" len="5"/>
          <note pan="0" key="50" vol="100" pos="21150" len="17"/>
          <note pan="0" key="64" vol="100" pos="21168" len="5"/>
          <note pan="0" key="52" vol="100" pos="21174" len="17"/>
          <note pan="0" key="66" vol="100" pos="21192" len="5"/>
          <note pan="0" key="54" vol="100" pos="21198" len="17"/>
          <note pan="0" key="59" vol="100" pos="21216" len="5"/>
          <note pan="0" key="47" vol="100" pos="21222" len="41"/>
          <note pan="0" key="66" vol="100" pos="21264" len="5"/>
          <note pan="0" key="54" vol="100" pos="21270" len="17"/>
          <note pan="0" key="69" vol="100" pos="21288" len="5"/>
          <note pan="0" key="57" vol="100" pos="21294" len="17"/>
          <note pan="0" key="69" vol="100" pos="21312" len="5"/>
          <note pan="0" key="57" vol="100" pos="21318" len="17"/>
          <note pan="0" key="71" vol="100" pos="21336" len="5"/>
          <note pan="0" key="59" vol="100" pos="21342" len="17"/>
          <note pan="0" key="66" vol="100" pos="21360" len="5"/>
          <note pan="0" key="54" vol="100" pos="21366" len="17"/>
          <note pan="0" key="64" vol="100" pos="21384" len="5"/>
          <note pan="0" key="52" vol="100" pos="21390" len="17"/>
          <note pan="0" key="66" vol="100" pos="21408" len="5"/>
          <note pan="0" key="54" vol="100" pos="21414" len="41"/>
          <note pan="0" key="64" vol="100" pos="21456" len="5"/>
          <note pan="0" key="52" vol="100" pos="21462" len="17"/>
          <note pan="0" key="66" vol="100" pos="21480" len="5"/>
          <note pan="0" key="54" vol="100" pos="21486" len="17"/>
          <note pan="0" key="69" vol="100" pos="21504" len="5"/>
          <note pan="0" key="57" vol="100" pos="21510" len="17"/>
          <note pan="0" key="71" vol="100" pos="21528" len="5"/>
          <note pan="0" key="59" vol="100" pos="21534" len="17"/>
          <note pan="0" key="66" vol="100" pos="21552" len="5"/>
          <note pan="0" key="54" vol="100" pos="21558" len="17"/>
          <note pan="0" key="64" vol="100" pos="21576" len="5"/>
          <note pan="0" key="52" vol="100" pos="21582" len="17"/>
          <note pan="0" key="66" vol="100" pos="21600" len="5"/>
          <note pan="0" key="54" vol="100" pos="21606" len="41"/>
          <note pan="0" key="71" vol="100" pos="21648" len="5"/>
          <note pan="0" key="59" vol="100" pos="21654" len="17"/>
          <note pan="0" key="73" vol="100" pos="21672" len="5"/>
          <note pan="0" key="61" vol="100" pos="21678" len="17"/>
          <note pan="0" key="74" vol="100" pos="21696" len="5"/>
          <note pan="0" key="62" vol="100" pos="21702" len="17"/>
          <note pan="0" key="73" vol="100" pos="21720" len="5"/>
          <note pan="0" key="61" vol="100" pos="21726" len="17"/>
          <note pan="0" key="71" vol="100" pos="21744" len="5"/>
          <note pan="0" key="59" vol="100" pos="21750" len="17"/>
          <note pan="0" key="69" vol="100" pos="21768" len="5"/>
          <note pan="0" key="57" vol="100" pos="21774" len="17"/>
          <note pan="0" key="66" vol="100" pos="21792" len="5"/>
          <note pan="0" key="54" vol="100" pos="21798" len="41"/>
          <note pan="0" key="64" vol="100" pos="21840" len="5"/>
          <note pan="0" key="52" vol="100" pos="21846" len="17"/>
          <note pan="0" key="66" vol="100" pos="21864" len="5"/>
          <note pan="0" key="54" vol="100" pos="21870" len="17"/>
          <note pan="0" key="64" vol="100" pos="21888" len="5"/>
          <note pan="0" key="52" vol="100" pos="21894" len="17"/>
          <note pan="0" key="62" vol="100" pos="21912" len="5"/>
          <note pan="0" key="50" vol="100" pos="21918" len="17"/>
          <note pan="0" key="61" vol="100" pos="21936" len="5"/>
          <note pan="0" key="49" vol="100" pos="21942" len="17"/>
          <note pan="0" key="57" vol="100" pos="21960" len="5"/>
          <note pan="0" key="45" vol="100" pos="21966" len="17"/>
          <note pan="0" key="59" vol="100" pos="21984" len="5"/>
          <note pan="0" key="47" vol="100" pos="21990" len="77"/>
          <note pan="0" key="40" vol="100" pos="22116" len="5"/>
          <note pan="0" key="42" vol="100" pos="22122" len="5"/>
          <note pan="0" key="40" vol="100" pos="22152" len="5"/>
          <note pan="0" key="42" vol="100" pos="22158" len="5"/>
          <note pan="0" key="40" vol="100" pos="22176" len="5"/>
          <note pan="0" key="42" vol="100" pos="22182" len="5"/>
          <note pan="0" key="40" vol="100" pos="22212" len="5"/>
          <note pan="0" key="42" vol="100" pos="22218" len="5"/>
          <note pan="0" key="40" vol="100" pos="22248" len="5"/>
          <note pan="0" key="42" vol="100" pos="22254" len="5"/>
          <note pan="0" key="40" vol="100" pos="22272" len="5"/>
          <note pan="0" key="42" vol="100" pos="22278" len="5"/>
          <note pan="0" key="40" vol="100" pos="22308" len="5"/>
          <note pan="0" key="42" vol="100" pos="22314" len="5"/>
          <note pan="0" key="40" vol="100" pos="22344" len="5"/>
          <note pan="0" key="42" vol="100" pos="22350" len="5"/>
          <note pan="0" key="40" vol="100" pos="22368" len="5"/>
          <note pan="0" key="42" vol="100" pos="22374" len="5"/>
          <note pan="0" key="40" vol="100" pos="22404" len="5"/>
          <note pan="0" key="42" vol="100" pos="22410" len="5"/>
          <note pan="0" key="40" vol="100" pos="22440" len="5"/>
          <note pan="0" key="42" vol="100" pos="22446" len="5"/>
          <note pan="0" key="40" vol="100" pos="22464" len="5"/>
          <note pan="0" key="42" vol="100" pos="22470" len="5"/>
          <note pan="0" key="40" vol="100" pos="22500" len="5"/>
          <note pan="0" key="42" vol="100" pos="22506" len="5"/>
          <note pan="0" key="40" vol="100" pos="22536" len="5"/>
          <note pan="0" key="42" vol="100" pos="22542" len="5"/>
          <note pan="0" key="40" vol="100" pos="22560" len="5"/>
          <note pan="0" key="42" vol="100" pos="22566" len="5"/>
          <note pan="0" key="40" vol="100" pos="22596" len="5"/>
          <note pan="0" key="42" vol="100" pos="22602" len="5"/>
          <note pan="0" key="40" vol="100" pos="22632" len="5"/>
          <note pan="0" key="42" vol="100" pos="22638" len="5"/>
          <note pan="0" key="40" vol="100" pos="22656" len="5"/>
          <note pan="0" key="42" vol="100" pos="22662" len="5"/>
          <note pan="0" key="40" vol="100" pos="22692" len="5"/>
          <note pan="0" key="42" vol="100" pos="22698" len="5"/>
          <note pan="0" key="40" vol="100" pos="22728" len="5"/>
          <note pan="0" key="42" vol="100" pos="22734" len="5"/>
          <note pan="0" key="40" vol="100" pos="22752" len="5"/>
          <note pan="0" key="42" vol="100" pos="22758" len="5"/>
          <note pan="0" key="40" vol="100" pos="22788" len="5"/>
          <note pan="0" key="42" vol="100" pos="22794" len="5"/>
          <note pan="0" key="40" vol="100" pos="22824" len="5"/>
          <note pan="0" key="42" vol="100" pos="22830" len="5"/>
        </pattern>
      </track>
      <track muted="1" type="0" name="">
        <instrumenttrack pan="0" fxch="0" pitch="0" basenote="57" vol="100">
          <instrument name="sf2player">
            <sf2player patch="80" chorusLevel="2" chorusDepth="8" reverbOn="0" reverbRoomSize="0.2" chorusOn="0" chorusSpeed="0.3" reverbDamping="0" chorusNum="3" reverbLevel="0.9" bank="0" reverbWidth="0.5" src="" gain="1"/>
          </instrument>
          <eldata fres="0.5" ftype="0" fcut="14000" fwet="0">
            <elvol lspd_denominator="4" pdel="0" userwavefile="" dec="0.5" lamt="0" syncmode="0" latt="0" rel="0.1" sus="0.5" amt="0" x100="0" att="0" lpdel="0" hold="0.5" lshp="0" lspd="0.1" ctlenvamt="0" lspd_numerator="4"/>
            <elcut lspd_denominator="4" pdel="0" userwavefile="" dec="0.5" lamt="0" syncmode="0" latt="0" rel="0.1" sus="0.5" amt="0" x100="0" att="0" lpdel="0" hold="0.5" lshp="0" lspd="0.1" ctlenvamt="0" lspd_numerator="4"/>
            <elres lspd_denominator="4" pdel="0" userwavefile="" dec="0.5" lamt="0" syncmode="0" latt="0" rel="0.1" sus="0.5" amt="0" x100="0" att="0" lpdel="0" hold="0.5" lshp="0" lspd="0.1" ctlenvamt="0" lspd_numerator="4"/>
          </eldata>
          <chordcreator chord="0" chordrange="1" chord-enabled="0"/>
          <arpeggiator arptime="100" arprange="1" arptime_denominator="4" syncmode="0" arpmode="0" arp-enabled="0" arp="0" arptime_numerator="4" arpdir="0" arpgate="100"/>
          <midiport inputcontroller="0" fixedoutputvelocity="-1" inputchannel="0" outputcontroller="0" writable="0" outputchannel="1" fixedinputvelocity="-1" fixedoutputnote="-1" outputprogram="1" readable="0"/>
          <fxchain numofeffects="0" enabled="0"/>
        </instrumenttrack>
        <pattern steps="16" muted="0" type="1" name="" pos="0" len="23808" frozen="0">
          <note pan="0" key="34" vol="100" pos="0" len="5"/>
          <note pan="0" key="22" vol="100" pos="6" len="5"/>
          <note pan="0" key="34" vol="100" pos="48" len="5"/>
          <note pan="0" key="22" vol="100" pos="54" len="5"/>
          <note pan="0" key="34" vol="100" pos="96" len="5"/>
          <note pan="0" key="22" vol="100" pos="102" len="5"/>
          <note pan="0" key="34" vol="100" pos="144" len="5"/>
          <note pan="0" key="22" vol="100" pos="150" len="5"/>
          <note pan="0" key="34" vol="100" pos="156" len="5"/>
          <note pan="0" key="22" vol="100" pos="162" len="5"/>
          <note pan="0" key="34" vol="100" pos="168" len="5"/>
          <note pan="0" key="22" vol="100" pos="174" len="5"/>
          <note pan="0" key="34" vol="100" pos="180" len="5"/>
          <note pan="0" key="22" vol="100" pos="186" len="5"/>
          <note pan="0" key="34" vol="100" pos="192" len="5"/>
          <note pan="0" key="22" vol="100" pos="198" len="5"/>
          <note pan="0" key="34" vol="100" pos="240" len="5"/>
          <note pan="0" key="22" vol="100" pos="246" len="5"/>
          <note pan="0" key="34" vol="100" pos="288" len="5"/>
          <note pan="0" key="22" vol="100" pos="294" len="5"/>
          <note pan="0" key="34" vol="100" pos="336" len="5"/>
          <note pan="0" key="22" vol="100" pos="342" len="5"/>
          <note pan="0" key="34" vol="100" pos="360" len="5"/>
          <note pan="0" key="22" vol="100" pos="366" len="5"/>
          <note pan="0" key="34" vol="100" pos="384" len="5"/>
          <note pan="0" key="22" vol="100" pos="390" len="5"/>
          <note pan="0" key="34" vol="100" pos="432" len="5"/>
          <note pan="0" key="22" vol="100" pos="438" len="5"/>
          <note pan="0" key="34" vol="100" pos="480" len="5"/>
          <note pan="0" key="22" vol="100" pos="486" len="5"/>
          <note pan="0" key="34" vol="100" pos="528" len="5"/>
          <note pan="0" key="22" vol="100" pos="534" len="5"/>
          <note pan="0" key="34" vol="100" pos="540" len="5"/>
          <note pan="0" key="22" vol="100" pos="546" len="5"/>
          <note pan="0" key="34" vol="100" pos="552" len="5"/>
          <note pan="0" key="22" vol="100" pos="558" len="5"/>
          <note pan="0" key="34" vol="100" pos="564" len="5"/>
          <note pan="0" key="22" vol="100" pos="570" len="5"/>
          <note pan="0" key="34" vol="100" pos="576" len="5"/>
          <note pan="0" key="22" vol="100" pos="582" len="5"/>
          <note pan="0" key="34" vol="100" pos="624" len="5"/>
          <note pan="0" key="22" vol="100" pos="630" len="5"/>
          <note pan="0" key="34" vol="100" pos="672" len="5"/>
          <note pan="0" key="22" vol="100" pos="678" len="5"/>
          <note pan="0" key="34" vol="100" pos="720" len="5"/>
          <note pan="0" key="22" vol="100" pos="726" len="5"/>
          <note pan="0" key="34" vol="100" pos="744" len="5"/>
          <note pan="0" key="22" vol="100" pos="750" len="5"/>
          <note pan="0" key="34" vol="100" pos="768" len="5"/>
          <note pan="0" key="22" vol="100" pos="774" len="5"/>
          <note pan="0" key="34" vol="100" pos="816" len="5"/>
          <note pan="0" key="22" vol="100" pos="822" len="5"/>
          <note pan="0" key="34" vol="100" pos="864" len="5"/>
          <note pan="0" key="22" vol="100" pos="870" len="5"/>
          <note pan="0" key="34" vol="100" pos="912" len="5"/>
          <note pan="0" key="22" vol="100" pos="918" len="5"/>
          <note pan="0" key="34" vol="100" pos="924" len="5"/>
          <note pan="0" key="22" vol="100" pos="930" len="5"/>
          <note pan="0" key="34" vol="100" pos="936" len="5"/>
          <note pan="0" key="22" vol="100" pos="942" len="5"/>
          <note pan="0" key="34" vol="100" pos="948" len="5"/>
          <note pan="0" key="22" vol="100" pos="954" len="5"/>
          <note pan="0" key="34" vol="100" pos="960" len="5"/>
          <note pan="0" key="22" vol="100" pos="966" len="5"/>
          <note pan="0" key="34" vol="100" pos="1008" len="5"/>
          <note pan="0" key="22" vol="100" pos="1014" len="5"/>
          <note pan="0" key="34" vol="100" pos="1056" len="5"/>
          <note pan="0" key="22" vol="100" pos="1062" len="5"/>
          <note pan="0" key="34" vol="100" pos="1104" len="5"/>
          <note pan="0" key="22" vol="100" pos="1110" len="5"/>
          <note pan="0" key="34" vol="100" pos="1128" len="5"/>
          <note pan="0" key="22" vol="100" pos="1134" len="5"/>
          <note pan="0" key="34" vol="100" pos="1152" len="5"/>
          <note pan="0" key="22" vol="100" pos="1158" len="5"/>
          <note pan="0" key="34" vol="100" pos="1200" len="5"/>
          <note pan="0" key="22" vol="100" pos="1206" len="5"/>
          <note pan="0" key="34" vol="100" pos="1248" len="5"/>
          <note pan="0" key="22" vol="100" pos="1254" len="5"/>
          <note pan="0" key="34" vol="100" pos="1296" len="5"/>
          <note pan="0" key="22" vol="100" pos="1302" len="5"/>
          <note pan="0" key="34" vol="100" pos="1308" len="5"/>
          <note pan="0" key="22" vol="100" pos="1314" len="5"/>
          <note pan="0" key="34" vol="100" pos="1320" len="5"/>
          <note pan="0" key="22" vol="100" pos="1326" len="5"/>
          <note pan="0" key="34" vol="100" pos="1332" len="5"/>
          <note pan="0" key="22" vol="100" pos="1338" len="5"/>
          <note pan="0" key="34" vol="100" pos="1344" len="5"/>
          <note pan="0" key="22" vol="100" pos="1350" len="5"/>
          <note pan="0" key="34" vol="100" pos="1392" len="5"/>
          <note pan="0" key="22" vol="100" pos="1398" len="5"/>
          <note pan="0" key="34" vol="100" pos="1440" len="5"/>
          <note pan="0" key="22" vol="100" pos="1446" len="5"/>
          <note pan="0" key="34" vol="100" pos="1488" len="5"/>
          <note pan="0" key="22" vol="100" pos="1494" len="5"/>
          <note pan="0" key="34" vol="100" pos="1536" len="5"/>
          <note pan="0" key="10" vol="100" pos="1542" len="11"/>
          <note pan="0" key="34" vol="100" pos="1560" len="17"/>
          <note pan="0" key="46" vol="100" pos="1584" len="5"/>
          <note pan="0" key="10" vol="100" pos="1590" len="11"/>
          <note pan="0" key="46" vol="100" pos="1608" len="17"/>
          <note pan="0" key="34" vol="100" pos="1632" len="5"/>
          <note pan="0" key="10" vol="100" pos="1638" len="11"/>
          <note pan="0" key="34" vol="100" pos="1656" len="17"/>
          <note pan="0" key="46" vol="100" pos="1680" len="5"/>
          <note pan="0" key="10" vol="100" pos="1686" len="11"/>
          <note pan="0" key="46" vol="100" pos="1704" len="17"/>
          <note pan="0" key="34" vol="100" pos="1728" len="5"/>
          <note pan="0" key="10" vol="100" pos="1734" len="11"/>
          <note pan="0" key="34" vol="100" pos="1752" len="17"/>
          <note pan="0" key="46" vol="100" pos="1776" len="5"/>
          <note pan="0" key="10" vol="100" pos="1782" len="11"/>
          <note pan="0" key="46" vol="100" pos="1800" len="17"/>
          <note pan="0" key="30" vol="100" pos="1824" len="5"/>
          <note pan="0" key="6" vol="100" pos="1830" len="11"/>
          <note pan="0" key="30" vol="100" pos="1848" len="17"/>
          <note pan="0" key="44" vol="100" pos="1872" len="5"/>
          <note pan="0" key="8" vol="100" pos="1878" len="11"/>
          <note pan="0" key="32" vol="100" pos="1896" len="17"/>
          <note pan="0" key="34" vol="100" pos="1920" len="5"/>
          <note pan="0" key="10" vol="100" pos="1926" len="11"/>
          <note pan="0" key="34" vol="100" pos="1944" len="17"/>
          <note pan="0" key="46" vol="100" pos="1968" len="5"/>
          <note pan="0" key="10" vol="100" pos="1974" len="11"/>
          <note pan="0" key="46" vol="100" pos="1992" len="17"/>
          <note pan="0" key="34" vol="100" pos="2016" len="5"/>
          <note pan="0" key="10" vol="100" pos="2022" len="11"/>
          <note pan="0" key="34" vol="100" pos="2040" len="17"/>
          <note pan="0" key="46" vol="100" pos="2064" len="5"/>
          <note pan="0" key="10" vol="100" pos="2070" len="11"/>
          <note pan="0" key="46" vol="100" pos="2088" len="17"/>
          <note pan="0" key="34" vol="100" pos="2112" len="5"/>
          <note pan="0" key="10" vol="100" pos="2118" len="11"/>
          <note pan="0" key="34" vol="100" pos="2136" len="17"/>
          <note pan="0" key="46" vol="100" pos="2160" len="5"/>
          <note pan="0" key="10" vol="100" pos="2166" len="11"/>
          <note pan="0" key="46" vol="100" pos="2184" len="17"/>
          <note pan="0" key="30" vol="100" pos="2208" len="5"/>
          <note pan="0" key="6" vol="100" pos="2214" len="11"/>
          <note pan="0" key="30" vol="100" pos="2232" len="17"/>
          <note pan="0" key="44" vol="100" pos="2256" len="5"/>
          <note pan="0" key="8" vol="100" pos="2262" len="11"/>
          <note pan="0" key="32" vol="100" pos="2280" len="17"/>
          <note pan="0" key="34" vol="100" pos="2304" len="5"/>
          <note pan="0" key="10" vol="100" pos="2310" len="11"/>
          <note pan="0" key="34" vol="100" pos="2328" len="17"/>
          <note pan="0" key="46" vol="100" pos="2352" len="5"/>
          <note pan="0" key="10" vol="100" pos="2358" len="11"/>
          <note pan="0" key="46" vol="100" pos="2376" len="17"/>
          <note pan="0" key="34" vol="100" pos="2400" len="5"/>
          <note pan="0" key="10" vol="100" pos="2406" len="11"/>
          <note pan="0" key="34" vol="100" pos="2424" len="17"/>
          <note pan="0" key="46" vol="100" pos="2448" len="5"/>
          <note pan="0" key="10" vol="100" pos="2454" len="11"/>
          <note pan="0" key="46" vol="100" pos="2472" len="17"/>
          <note pan="0" key="34" vol="100" pos="2496" len="5"/>
          <note pan="0" key="10" vol="100" pos="2502" len="11"/>
          <note pan="0" key="34" vol="100" pos="2520" len="17"/>
          <note pan="0" key="46" vol="100" pos="2544" len="5"/>
          <note pan="0" key="10" vol="100" pos="2550" len="11"/>
          <note pan="0" key="46" vol="100" pos="2568" len="17"/>
          <note pan="0" key="30" vol="100" pos="2592" len="5"/>
          <note pan="0" key="6" vol="100" pos="2598" len="11"/>
          <note pan="0" key="30" vol="100" pos="2616" len="17"/>
          <note pan="0" key="44" vol="100" pos="2640" len="5"/>
          <note pan="0" key="8" vol="100" pos="2646" len="11"/>
          <note pan="0" key="32" vol="100" pos="2664" len="17"/>
          <note pan="0" key="34" vol="100" pos="2688" len="5"/>
          <note pan="0" key="10" vol="100" pos="2694" len="11"/>
          <note pan="0" key="34" vol="100" pos="2712" len="17"/>
          <note pan="0" key="46" vol="100" pos="2736" len="5"/>
          <note pan="0" key="10" vol="100" pos="2742" len="11"/>
          <note pan="0" key="46" vol="100" pos="2760" len="17"/>
          <note pan="0" key="34" vol="100" pos="2784" len="5"/>
          <note pan="0" key="10" vol="100" pos="2790" len="11"/>
          <note pan="0" key="34" vol="100" pos="2808" len="17"/>
          <note pan="0" key="46" vol="100" pos="2832" len="5"/>
          <note pan="0" key="10" vol="100" pos="2838" len="11"/>
          <note pan="0" key="46" vol="100" pos="2856" len="17"/>
          <note pan="0" key="34" vol="100" pos="2880" len="5"/>
          <note pan="0" key="10" vol="100" pos="2886" len="11"/>
          <note pan="0" key="34" vol="100" pos="2904" len="17"/>
          <note pan="0" key="46" vol="100" pos="2928" len="5"/>
          <note pan="0" key="10" vol="100" pos="2934" len="11"/>
          <note pan="0" key="46" vol="100" pos="2952" len="17"/>
          <note pan="0" key="39" vol="100" pos="2976" len="11"/>
          <note pan="0" key="37" vol="100" pos="2994" len="11"/>
          <note pan="0" key="39" vol="100" pos="3006" len="11"/>
          <note pan="0" key="37" vol="100" pos="3024" len="11"/>
          <note pan="0" key="34" vol="100" pos="3042" len="11"/>
          <note pan="0" key="37" vol="100" pos="3060" len="11"/>
          <note pan="0" key="22" vol="100" pos="3072" len="5"/>
          <note pan="0" key="10" vol="100" pos="3078" len="5"/>
          <note pan="0" key="22" vol="100" pos="3084" len="5"/>
          <note pan="0" key="34" vol="100" pos="3096" len="11"/>
          <note pan="0" key="22" vol="100" pos="3108" len="5"/>
          <note pan="0" key="22" vol="100" pos="3120" len="5"/>
          <note pan="0" key="10" vol="100" pos="3126" len="5"/>
          <note pan="0" key="22" vol="100" pos="3132" len="5"/>
          <note pan="0" key="34" vol="100" pos="3144" len="11"/>
          <note pan="0" key="22" vol="100" pos="3156" len="5"/>
          <note pan="0" key="22" vol="100" pos="3168" len="5"/>
          <note pan="0" key="10" vol="100" pos="3174" len="5"/>
          <note pan="0" key="22" vol="100" pos="3180" len="5"/>
          <note pan="0" key="34" vol="100" pos="3192" len="11"/>
          <note pan="0" key="22" vol="100" pos="3204" len="5"/>
          <note pan="0" key="22" vol="100" pos="3216" len="5"/>
          <note pan="0" key="10" vol="100" pos="3222" len="5"/>
          <note pan="0" key="22" vol="100" pos="3228" len="5"/>
          <note pan="0" key="34" vol="100" pos="3240" len="11"/>
          <note pan="0" key="22" vol="100" pos="3252" len="5"/>
          <note pan="0" key="22" vol="100" pos="3264" len="5"/>
          <note pan="0" key="10" vol="100" pos="3270" len="5"/>
          <note pan="0" key="22" vol="100" pos="3276" len="5"/>
          <note pan="0" key="34" vol="100" pos="3288" len="11"/>
          <note pan="0" key="22" vol="100" pos="3300" len="5"/>
          <note pan="0" key="22" vol="100" pos="3312" len="5"/>
          <note pan="0" key="10" vol="100" pos="3318" len="5"/>
          <note pan="0" key="22" vol="100" pos="3324" len="5"/>
          <note pan="0" key="34" vol="100" pos="3336" len="11"/>
          <note pan="0" key="22" vol="100" pos="3348" len="5"/>
          <note pan="0" key="22" vol="100" pos="3360" len="5"/>
          <note pan="0" key="10" vol="100" pos="3366" len="5"/>
          <note pan="0" key="22" vol="100" pos="3372" len="5"/>
          <note pan="0" key="34" vol="100" pos="3384" len="11"/>
          <note pan="0" key="22" vol="100" pos="3396" len="5"/>
          <note pan="0" key="22" vol="100" pos="3408" len="5"/>
          <note pan="0" key="10" vol="100" pos="3414" len="5"/>
          <note pan="0" key="22" vol="100" pos="3420" len="5"/>
          <note pan="0" key="34" vol="100" pos="3432" len="11"/>
          <note pan="0" key="22" vol="100" pos="3444" len="5"/>
          <note pan="0" key="18" vol="100" pos="3456" len="5"/>
          <note pan="0" key="6" vol="100" pos="3462" len="5"/>
          <note pan="0" key="18" vol="100" pos="3468" len="5"/>
          <note pan="0" key="30" vol="100" pos="3480" len="11"/>
          <note pan="0" key="18" vol="100" pos="3492" len="5"/>
          <note pan="0" key="18" vol="100" pos="3504" len="5"/>
          <note pan="0" key="6" vol="100" pos="3510" len="5"/>
          <note pan="0" key="18" vol="100" pos="3516" len="5"/>
          <note pan="0" key="30" vol="100" pos="3528" len="11"/>
          <note pan="0" key="18" vol="100" pos="3540" len="5"/>
          <note pan="0" key="18" vol="100" pos="3552" len="5"/>
          <note pan="0" key="6" vol="100" pos="3558" len="5"/>
          <note pan="0" key="18" vol="100" pos="3564" len="5"/>
          <note pan="0" key="30" vol="100" pos="3576" len="11"/>
          <note pan="0" key="18" vol="100" pos="3588" len="5"/>
          <note pan="0" key="18" vol="100" pos="3600" len="5"/>
          <note pan="0" key="6" vol="100" pos="3606" len="5"/>
          <note pan="0" key="18" vol="100" pos="3612" len="5"/>
          <note pan="0" key="30" vol="100" pos="3624" len="11"/>
          <note pan="0" key="18" vol="100" pos="3636" len="5"/>
          <note pan="0" key="20" vol="100" pos="3648" len="5"/>
          <note pan="0" key="8" vol="100" pos="3654" len="5"/>
          <note pan="0" key="20" vol="100" pos="3660" len="5"/>
          <note pan="0" key="32" vol="100" pos="3672" len="11"/>
          <note pan="0" key="20" vol="100" pos="3684" len="5"/>
          <note pan="0" key="20" vol="100" pos="3696" len="5"/>
          <note pan="0" key="8" vol="100" pos="3702" len="5"/>
          <note pan="0" key="20" vol="100" pos="3708" len="5"/>
          <note pan="0" key="32" vol="100" pos="3720" len="11"/>
          <note pan="0" key="20" vol="100" pos="3732" len="5"/>
          <note pan="0" key="17" vol="100" pos="3744" len="5"/>
          <note pan="0" key="5" vol="100" pos="3750" len="5"/>
          <note pan="0" key="17" vol="100" pos="3756" len="5"/>
          <note pan="0" key="29" vol="100" pos="3768" len="11"/>
          <note pan="0" key="17" vol="100" pos="3780" len="5"/>
          <note pan="0" key="17" vol="100" pos="3792" len="5"/>
          <note pan="0" key="5" vol="100" pos="3798" len="5"/>
          <note pan="0" key="17" vol="100" pos="3804" len="5"/>
          <note pan="0" key="29" vol="100" pos="3816" len="11"/>
          <note pan="0" key="17" vol="100" pos="3828" len="5"/>
          <note pan="0" key="22" vol="100" pos="3840" len="5"/>
          <note pan="0" key="10" vol="100" pos="3846" len="5"/>
          <note pan="0" key="22" vol="100" pos="3852" len="5"/>
          <note pan="0" key="34" vol="100" pos="3864" len="11"/>
          <note pan="0" key="22" vol="100" pos="3876" len="5"/>
          <note pan="0" key="22" vol="100" pos="3888" len="5"/>
          <note pan="0" key="10" vol="100" pos="3894" len="5"/>
          <note pan="0" key="22" vol="100" pos="3900" len="5"/>
          <note pan="0" key="34" vol="100" pos="3912" len="11"/>
          <note pan="0" key="22" vol="100" pos="3924" len="5"/>
          <note pan="0" key="22" vol="100" pos="3936" len="5"/>
          <note pan="0" key="10" vol="100" pos="3942" len="5"/>
          <note pan="0" key="22" vol="100" pos="3948" len="5"/>
          <note pan="0" key="34" vol="100" pos="3960" len="11"/>
          <note pan="0" key="22" vol="100" pos="3972" len="5"/>
          <note pan="0" key="22" vol="100" pos="3984" len="5"/>
          <note pan="0" key="10" vol="100" pos="3990" len="5"/>
          <note pan="0" key="22" vol="100" pos="3996" len="5"/>
          <note pan="0" key="34" vol="100" pos="4008" len="11"/>
          <note pan="0" key="22" vol="100" pos="4020" len="5"/>
          <note pan="0" key="22" vol="100" pos="4032" len="5"/>
          <note pan="0" key="10" vol="100" pos="4038" len="5"/>
          <note pan="0" key="22" vol="100" pos="4044" len="5"/>
          <note pan="0" key="34" vol="100" pos="4056" len="11"/>
          <note pan="0" key="22" vol="100" pos="4068" len="5"/>
          <note pan="0" key="22" vol="100" pos="4080" len="5"/>
          <note pan="0" key="10" vol="100" pos="4086" len="5"/>
          <note pan="0" key="22" vol="100" pos="4092" len="5"/>
          <note pan="0" key="34" vol="100" pos="4104" len="11"/>
          <note pan="0" key="22" vol="100" pos="4116" len="5"/>
          <note pan="0" key="22" vol="100" pos="4128" len="5"/>
          <note pan="0" key="10" vol="100" pos="4134" len="5"/>
          <note pan="0" key="22" vol="100" pos="4140" len="5"/>
          <note pan="0" key="34" vol="100" pos="4152" len="11"/>
          <note pan="0" key="22" vol="100" pos="4164" len="5"/>
          <note pan="0" key="22" vol="100" pos="4176" len="5"/>
          <note pan="0" key="10" vol="100" pos="4182" len="5"/>
          <note pan="0" key="22" vol="100" pos="4188" len="5"/>
          <note pan="0" key="34" vol="100" pos="4200" len="11"/>
          <note pan="0" key="22" vol="100" pos="4212" len="5"/>
          <note pan="0" key="18" vol="100" pos="4224" len="5"/>
          <note pan="0" key="6" vol="100" pos="4230" len="5"/>
          <note pan="0" key="18" vol="100" pos="4236" len="5"/>
          <note pan="0" key="30" vol="100" pos="4248" len="11"/>
          <note pan="0" key="18" vol="100" pos="4260" len="5"/>
          <note pan="0" key="18" vol="100" pos="4272" len="5"/>
          <note pan="0" key="6" vol="100" pos="4278" len="5"/>
          <note pan="0" key="18" vol="100" pos="4284" len="5"/>
          <note pan="0" key="30" vol="100" pos="4296" len="11"/>
          <note pan="0" key="18" vol="100" pos="4308" len="5"/>
          <note pan="0" key="18" vol="100" pos="4320" len="5"/>
          <note pan="0" key="6" vol="100" pos="4326" len="5"/>
          <note pan="0" key="18" vol="100" pos="4332" len="5"/>
          <note pan="0" key="30" vol="100" pos="4344" len="11"/>
          <note pan="0" key="18" vol="100" pos="4356" len="5"/>
          <note pan="0" key="18" vol="100" pos="4368" len="5"/>
          <note pan="0" key="6" vol="100" pos="4374" len="5"/>
          <note pan="0" key="18" vol="100" pos="4380" len="5"/>
          <note pan="0" key="30" vol="100" pos="4392" len="11"/>
          <note pan="0" key="18" vol="100" pos="4404" len="5"/>
          <note pan="0" key="20" vol="100" pos="4416" len="23"/>
          <note pan="0" key="32" vol="100" pos="4440" len="23"/>
          <note pan="0" key="44" vol="100" pos="4464" len="23"/>
          <note pan="0" key="32" vol="100" pos="4488" len="23"/>
          <note pan="0" key="29" vol="100" pos="4512" len="23"/>
          <note pan="0" key="41" vol="100" pos="4536" len="23"/>
          <note pan="0" key="45" vol="100" pos="4560" len="23"/>
          <note pan="0" key="48" vol="100" pos="4584" len="23"/>
          <note pan="0" key="22" vol="100" pos="4608" len="5"/>
          <note pan="0" key="10" vol="100" pos="4614" len="5"/>
          <note pan="0" key="22" vol="100" pos="4620" len="5"/>
          <note pan="0" key="34" vol="100" pos="4632" len="11"/>
          <note pan="0" key="22" vol="100" pos="4644" len="5"/>
          <note pan="0" key="22" vol="100" pos="4656" len="5"/>
          <note pan="0" key="10" vol="100" pos="4662" len="5"/>
          <note pan="0" key="22" vol="100" pos="4668" len="5"/>
          <note pan="0" key="34" vol="100" pos="4680" len="11"/>
          <note pan="0" key="22" vol="100" pos="4692" len="5"/>
          <note pan="0" key="22" vol="100" pos="4704" len="5"/>
          <note pan="0" key="10" vol="100" pos="4710" len="5"/>
          <note pan="0" key="22" vol="100" pos="4716" len="5"/>
          <note pan="0" key="34" vol="100" pos="4728" len="11"/>
          <note pan="0" key="22" vol="100" pos="4740" len="5"/>
          <note pan="0" key="22" vol="100" pos="4752" len="5"/>
          <note pan="0" key="10" vol="100" pos="4758" len="5"/>
          <note pan="0" key="22" vol="100" pos="4764" len="5"/>
          <note pan="0" key="34" vol="100" pos="4776" len="11"/>
          <note pan="0" key="22" vol="100" pos="4788" len="5"/>
          <note pan="0" key="22" vol="100" pos="4800" len="5"/>
          <note pan="0" key="10" vol="100" pos="4806" len="5"/>
          <note pan="0" key="22" vol="100" pos="4812" len="5"/>
          <note pan="0" key="34" vol="100" pos="4824" len="11"/>
          <note pan="0" key="22" vol="100" pos="4836" len="5"/>
          <note pan="0" key="22" vol="100" pos="4848" len="5"/>
          <note pan="0" key="10" vol="100" pos="4854" len="5"/>
          <note pan="0" key="22" vol="100" pos="4860" len="5"/>
          <note pan="0" key="34" vol="100" pos="4872" len="11"/>
          <note pan="0" key="22" vol="100" pos="4884" len="5"/>
          <note pan="0" key="22" vol="100" pos="4896" len="5"/>
          <note pan="0" key="10" vol="100" pos="4902" len="5"/>
          <note pan="0" key="22" vol="100" pos="4908" len="5"/>
          <note pan="0" key="34" vol="100" pos="4920" len="11"/>
          <note pan="0" key="22" vol="100" pos="4932" len="5"/>
          <note pan="0" key="22" vol="100" pos="4944" len="5"/>
          <note pan="0" key="10" vol="100" pos="4950" len="5"/>
          <note pan="0" key="22" vol="100" pos="4956" len="5"/>
          <note pan="0" key="34" vol="100" pos="4968" len="11"/>
          <note pan="0" key="22" vol="100" pos="4980" len="5"/>
          <note pan="0" key="18" vol="100" pos="4992" len="5"/>
          <note pan="0" key="6" vol="100" pos="4998" len="5"/>
          <note pan="0" key="18" vol="100" pos="5004" len="5"/>
          <note pan="0" key="30" vol="100" pos="5016" len="11"/>
          <note pan="0" key="18" vol="100" pos="5028" len="5"/>
          <note pan="0" key="18" vol="100" pos="5040" len="5"/>
          <note pan="0" key="6" vol="100" pos="5046" len="5"/>
          <note pan="0" key="18" vol="100" pos="5052" len="5"/>
          <note pan="0" key="30" vol="100" pos="5064" len="11"/>
          <note pan="0" key="18" vol="100" pos="5076" len="5"/>
          <note pan="0" key="18" vol="100" pos="5088" len="5"/>
          <note pan="0" key="6" vol="100" pos="5094" len="5"/>
          <note pan="0" key="18" vol="100" pos="5100" len="5"/>
          <note pan="0" key="30" vol="100" pos="5112" len="11"/>
          <note pan="0" key="18" vol="100" pos="5124" len="5"/>
          <note pan="0" key="18" vol="100" pos="5136" len="5"/>
          <note pan="0" key="6" vol="100" pos="5142" len="5"/>
          <note pan="0" key="18" vol="100" pos="5148" len="5"/>
          <note pan="0" key="30" vol="100" pos="5160" len="11"/>
          <note pan="0" key="18" vol="100" pos="5172" len="5"/>
          <note pan="0" key="20" vol="100" pos="5184" len="5"/>
          <note pan="0" key="8" vol="100" pos="5190" len="5"/>
          <note pan="0" key="20" vol="100" pos="5196" len="5"/>
          <note pan="0" key="32" vol="100" pos="5208" len="11"/>
          <note pan="0" key="20" vol="100" pos="5220" len="5"/>
          <note pan="0" key="20" vol="100" pos="5232" len="5"/>
          <note pan="0" key="8" vol="100" pos="5238" len="5"/>
          <note pan="0" key="20" vol="100" pos="5244" len="5"/>
          <note pan="0" key="32" vol="100" pos="5256" len="11"/>
          <note pan="0" key="20" vol="100" pos="5268" len="5"/>
          <note pan="0" key="17" vol="100" pos="5280" len="5"/>
          <note pan="0" key="5" vol="100" pos="5286" len="5"/>
          <note pan="0" key="17" vol="100" pos="5292" len="5"/>
          <note pan="0" key="29" vol="100" pos="5304" len="11"/>
          <note pan="0" key="17" vol="100" pos="5316" len="5"/>
          <note pan="0" key="17" vol="100" pos="5328" len="5"/>
          <note pan="0" key="5" vol="100" pos="5334" len="5"/>
          <note pan="0" key="17" vol="100" pos="5340" len="5"/>
          <note pan="0" key="29" vol="100" pos="5352" len="11"/>
          <note pan="0" key="17" vol="100" pos="5364" len="5"/>
          <note pan="0" key="22" vol="100" pos="5376" len="5"/>
          <note pan="0" key="10" vol="100" pos="5382" len="5"/>
          <note pan="0" key="22" vol="100" pos="5388" len="5"/>
          <note pan="0" key="34" vol="100" pos="5400" len="11"/>
          <note pan="0" key="22" vol="100" pos="5412" len="5"/>
          <note pan="0" key="22" vol="100" pos="5424" len="5"/>
          <note pan="0" key="10" vol="100" pos="5430" len="5"/>
          <note pan="0" key="22" vol="100" pos="5436" len="5"/>
          <note pan="0" key="34" vol="100" pos="5448" len="11"/>
          <note pan="0" key="22" vol="100" pos="5460" len="5"/>
          <note pan="0" key="22" vol="100" pos="5472" len="5"/>
          <note pan="0" key="10" vol="100" pos="5478" len="5"/>
          <note pan="0" key="22" vol="100" pos="5484" len="5"/>
          <note pan="0" key="34" vol="100" pos="5496" len="11"/>
          <note pan="0" key="22" vol="100" pos="5508" len="5"/>
          <note pan="0" key="22" vol="100" pos="5520" len="5"/>
          <note pan="0" key="10" vol="100" pos="5526" len="5"/>
          <note pan="0" key="22" vol="100" pos="5532" len="5"/>
          <note pan="0" key="34" vol="100" pos="5544" len="11"/>
          <note pan="0" key="22" vol="100" pos="5556" len="5"/>
          <note pan="0" key="22" vol="100" pos="5568" len="5"/>
          <note pan="0" key="10" vol="100" pos="5574" len="5"/>
          <note pan="0" key="22" vol="100" pos="5580" len="5"/>
          <note pan="0" key="34" vol="100" pos="5592" len="11"/>
          <note pan="0" key="22" vol="100" pos="5604" len="5"/>
          <note pan="0" key="22" vol="100" pos="5616" len="5"/>
          <note pan="0" key="10" vol="100" pos="5622" len="5"/>
          <note pan="0" key="22" vol="100" pos="5628" len="5"/>
          <note pan="0" key="34" vol="100" pos="5640" len="11"/>
          <note pan="0" key="22" vol="100" pos="5652" len="5"/>
          <note pan="0" key="22" vol="100" pos="5664" len="5"/>
          <note pan="0" key="10" vol="100" pos="5670" len="5"/>
          <note pan="0" key="22" vol="100" pos="5676" len="5"/>
          <note pan="0" key="34" vol="100" pos="5688" len="11"/>
          <note pan="0" key="22" vol="100" pos="5700" len="5"/>
          <note pan="0" key="22" vol="100" pos="5712" len="5"/>
          <note pan="0" key="10" vol="100" pos="5718" len="5"/>
          <note pan="0" key="22" vol="100" pos="5724" len="5"/>
          <note pan="0" key="34" vol="100" pos="5736" len="11"/>
          <note pan="0" key="22" vol="100" pos="5748" len="5"/>
          <note pan="0" key="18" vol="100" pos="5760" len="5"/>
          <note pan="0" key="6" vol="100" pos="5766" len="5"/>
          <note pan="0" key="18" vol="100" pos="5772" len="5"/>
          <note pan="0" key="30" vol="100" pos="5784" len="11"/>
          <note pan="0" key="18" vol="100" pos="5796" len="5"/>
          <note pan="0" key="18" vol="100" pos="5808" len="5"/>
          <note pan="0" key="6" vol="100" pos="5814" len="5"/>
          <note pan="0" key="18" vol="100" pos="5820" len="5"/>
          <note pan="0" key="30" vol="100" pos="5832" len="11"/>
          <note pan="0" key="18" vol="100" pos="5844" len="5"/>
          <note pan="0" key="18" vol="100" pos="5856" len="5"/>
          <note pan="0" key="6" vol="100" pos="5862" len="5"/>
          <note pan="0" key="18" vol="100" pos="5868" len="5"/>
          <note pan="0" key="30" vol="100" pos="5880" len="11"/>
          <note pan="0" key="18" vol="100" pos="5892" len="5"/>
          <note pan="0" key="18" vol="100" pos="5904" len="5"/>
          <note pan="0" key="6" vol="100" pos="5910" len="5"/>
          <note pan="0" key="18" vol="100" pos="5916" len="5"/>
          <note pan="0" key="30" vol="100" pos="5928" len="11"/>
          <note pan="0" key="18" vol="100" pos="5940" len="5"/>
          <note pan="0" key="20" vol="100" pos="5952" len="23"/>
          <note pan="0" key="32" vol="100" pos="5976" len="23"/>
          <note pan="0" key="44" vol="100" pos="6000" len="23"/>
          <note pan="0" key="32" vol="100" pos="6024" len="23"/>
          <note pan="0" key="29" vol="100" pos="6048" len="23"/>
          <note pan="0" key="41" vol="100" pos="6072" len="23"/>
          <note pan="0" key="45" vol="100" pos="6096" len="23"/>
          <note pan="0" key="48" vol="100" pos="6120" len="23"/>
          <note pan="0" key="30" vol="100" pos="6144" len="5"/>
          <note pan="0" key="18" vol="100" pos="6150" len="5"/>
          <note pan="0" key="30" vol="100" pos="6156" len="5"/>
          <note pan="0" key="42" vol="100" pos="6168" len="11"/>
          <note pan="0" key="30" vol="100" pos="6180" len="5"/>
          <note pan="0" key="30" vol="100" pos="6192" len="5"/>
          <note pan="0" key="18" vol="100" pos="6198" len="5"/>
          <note pan="0" key="30" vol="100" pos="6204" len="5"/>
          <note pan="0" key="42" vol="100" pos="6216" len="11"/>
          <note pan="0" key="30" vol="100" pos="6228" len="5"/>
          <note pan="0" key="30" vol="100" pos="6240" len="5"/>
          <note pan="0" key="18" vol="100" pos="6246" len="5"/>
          <note pan="0" key="30" vol="100" pos="6252" len="5"/>
          <note pan="0" key="42" vol="100" pos="6264" len="11"/>
          <note pan="0" key="30" vol="100" pos="6276" len="5"/>
          <note pan="0" key="30" vol="100" pos="6288" len="5"/>
          <note pan="0" key="18" vol="100" pos="6294" len="5"/>
          <note pan="0" key="30" vol="100" pos="6300" len="5"/>
          <note pan="0" key="42" vol="100" pos="6312" len="11"/>
          <note pan="0" key="30" vol="100" pos="6324" len="5"/>
          <note pan="0" key="32" vol="100" pos="6336" len="5"/>
          <note pan="0" key="20" vol="100" pos="6342" len="5"/>
          <note pan="0" key="32" vol="100" pos="6348" len="5"/>
          <note pan="0" key="44" vol="100" pos="6360" len="11"/>
          <note pan="0" key="32" vol="100" pos="6372" len="5"/>
          <note pan="0" key="32" vol="100" pos="6384" len="5"/>
          <note pan="0" key="20" vol="100" pos="6390" len="5"/>
          <note pan="0" key="32" vol="100" pos="6396" len="5"/>
          <note pan="0" key="44" vol="100" pos="6408" len="11"/>
          <note pan="0" key="32" vol="100" pos="6420" len="5"/>
          <note pan="0" key="32" vol="100" pos="6432" len="5"/>
          <note pan="0" key="20" vol="100" pos="6438" len="5"/>
          <note pan="0" key="32" vol="100" pos="6444" len="5"/>
          <note pan="0" key="44" vol="100" pos="6456" len="11"/>
          <note pan="0" key="32" vol="100" pos="6468" len="5"/>
          <note pan="0" key="29" vol="100" pos="6480" len="5"/>
          <note pan="0" key="17" vol="100" pos="6486" len="5"/>
          <note pan="0" key="29" vol="100" pos="6492" len="5"/>
          <note pan="0" key="41" vol="100" pos="6504" len="11"/>
          <note pan="0" key="29" vol="100" pos="6516" len="5"/>
          <note pan="0" key="34" vol="100" pos="6528" len="5"/>
          <note pan="0" key="22" vol="100" pos="6534" len="5"/>
          <note pan="0" key="34" vol="100" pos="6540" len="5"/>
          <note pan="0" key="46" vol="100" pos="6552" len="11"/>
          <note pan="0" key="34" vol="100" pos="6564" len="5"/>
          <note pan="0" key="34" vol="100" pos="6576" len="5"/>
          <note pan="0" key="22" vol="100" pos="6582" len="5"/>
          <note pan="0" key="34" vol="100" pos="6588" len="5"/>
          <note pan="0" key="46" vol="100" pos="6600" len="11"/>
          <note pan="0" key="34" vol="100" pos="6612" len="5"/>
          <note pan="0" key="34" vol="100" pos="6624" len="5"/>
          <note pan="0" key="22" vol="100" pos="6630" len="5"/>
          <note pan="0" key="34" vol="100" pos="6636" len="5"/>
          <note pan="0" key="46" vol="100" pos="6648" len="11"/>
          <note pan="0" key="34" vol="100" pos="6660" len="5"/>
          <note pan="0" key="34" vol="100" pos="6672" len="5"/>
          <note pan="0" key="22" vol="100" pos="6678" len="5"/>
          <note pan="0" key="34" vol="100" pos="6684" len="5"/>
          <note pan="0" key="46" vol="100" pos="6696" len="11"/>
          <note pan="0" key="34" vol="100" pos="6708" len="5"/>
          <note pan="0" key="34" vol="100" pos="6720" len="5"/>
          <note pan="0" key="22" vol="100" pos="6726" len="5"/>
          <note pan="0" key="34" vol="100" pos="6732" len="5"/>
          <note pan="0" key="46" vol="100" pos="6744" len="11"/>
          <note pan="0" key="34" vol="100" pos="6756" len="5"/>
          <note pan="0" key="34" vol="100" pos="6768" len="5"/>
          <note pan="0" key="22" vol="100" pos="6774" len="5"/>
          <note pan="0" key="34" vol="100" pos="6780" len="5"/>
          <note pan="0" key="46" vol="100" pos="6792" len="11"/>
          <note pan="0" key="34" vol="100" pos="6804" len="5"/>
          <note pan="0" key="29" vol="100" pos="6816" len="5"/>
          <note pan="0" key="17" vol="100" pos="6822" len="5"/>
          <note pan="0" key="29" vol="100" pos="6828" len="5"/>
          <note pan="0" key="41" vol="100" pos="6840" len="11"/>
          <note pan="0" key="29" vol="100" pos="6852" len="5"/>
          <note pan="0" key="29" vol="100" pos="6864" len="5"/>
          <note pan="0" key="17" vol="100" pos="6870" len="5"/>
          <note pan="0" key="29" vol="100" pos="6876" len="5"/>
          <note pan="0" key="41" vol="100" pos="6888" len="11"/>
          <note pan="0" key="29" vol="100" pos="6900" len="5"/>
          <note pan="0" key="30" vol="100" pos="6912" len="5"/>
          <note pan="0" key="18" vol="100" pos="6918" len="5"/>
          <note pan="0" key="30" vol="100" pos="6924" len="5"/>
          <note pan="0" key="42" vol="100" pos="6936" len="11"/>
          <note pan="0" key="30" vol="100" pos="6948" len="5"/>
          <note pan="0" key="30" vol="100" pos="6960" len="5"/>
          <note pan="0" key="18" vol="100" pos="6966" len="5"/>
          <note pan="0" key="30" vol="100" pos="6972" len="5"/>
          <note pan="0" key="42" vol="100" pos="6984" len="11"/>
          <note pan="0" key="30" vol="100" pos="6996" len="5"/>
          <note pan="0" key="30" vol="100" pos="7008" len="5"/>
          <note pan="0" key="18" vol="100" pos="7014" len="5"/>
          <note pan="0" key="30" vol="100" pos="7020" len="5"/>
          <note pan="0" key="42" vol="100" pos="7032" len="11"/>
          <note pan="0" key="30" vol="100" pos="7044" len="5"/>
          <note pan="0" key="30" vol="100" pos="7056" len="5"/>
          <note pan="0" key="18" vol="100" pos="7062" len="5"/>
          <note pan="0" key="30" vol="100" pos="7068" len="5"/>
          <note pan="0" key="42" vol="100" pos="7080" len="11"/>
          <note pan="0" key="30" vol="100" pos="7092" len="5"/>
          <note pan="0" key="32" vol="100" pos="7104" len="5"/>
          <note pan="0" key="20" vol="100" pos="7110" len="5"/>
          <note pan="0" key="32" vol="100" pos="7116" len="5"/>
          <note pan="0" key="44" vol="100" pos="7128" len="11"/>
          <note pan="0" key="32" vol="100" pos="7140" len="5"/>
          <note pan="0" key="32" vol="100" pos="7152" len="5"/>
          <note pan="0" key="20" vol="100" pos="7158" len="5"/>
          <note pan="0" key="32" vol="100" pos="7164" len="5"/>
          <note pan="0" key="44" vol="100" pos="7176" len="11"/>
          <note pan="0" key="32" vol="100" pos="7188" len="5"/>
          <note pan="0" key="33" vol="100" pos="7200" len="5"/>
          <note pan="0" key="21" vol="100" pos="7206" len="5"/>
          <note pan="0" key="33" vol="100" pos="7212" len="5"/>
          <note pan="0" key="45" vol="100" pos="7224" len="11"/>
          <note pan="0" key="33" vol="100" pos="7236" len="5"/>
          <note pan="0" key="33" vol="100" pos="7248" len="5"/>
          <note pan="0" key="21" vol="100" pos="7254" len="5"/>
          <note pan="0" key="33" vol="100" pos="7260" len="5"/>
          <note pan="0" key="45" vol="100" pos="7272" len="11"/>
          <note pan="0" key="33" vol="100" pos="7284" len="5"/>
          <note pan="0" key="34" vol="100" pos="7296" len="5"/>
          <note pan="0" key="22" vol="100" pos="7302" len="5"/>
          <note pan="0" key="34" vol="100" pos="7308" len="5"/>
          <note pan="0" key="46" vol="100" pos="7320" len="11"/>
          <note pan="0" key="34" vol="100" pos="7332" len="5"/>
          <note pan="0" key="34" vol="100" pos="7344" len="5"/>
          <note pan="0" key="22" vol="100" pos="7350" len="5"/>
          <note pan="0" key="34" vol="100" pos="7356" len="5"/>
          <note pan="0" key="46" vol="100" pos="7368" len="11"/>
          <note pan="0" key="34" vol="100" pos="7380" len="5"/>
          <note pan="0" key="34" vol="100" pos="7392" len="5"/>
          <note pan="0" key="22" vol="100" pos="7398" len="5"/>
          <note pan="0" key="34" vol="100" pos="7404" len="5"/>
          <note pan="0" key="46" vol="100" pos="7416" len="11"/>
          <note pan="0" key="34" vol="100" pos="7428" len="5"/>
          <note pan="0" key="34" vol="100" pos="7440" len="5"/>
          <note pan="0" key="22" vol="100" pos="7446" len="5"/>
          <note pan="0" key="34" vol="100" pos="7452" len="5"/>
          <note pan="0" key="46" vol="100" pos="7464" len="11"/>
          <note pan="0" key="34" vol="100" pos="7476" len="5"/>
          <note pan="0" key="32" vol="100" pos="7488" len="5"/>
          <note pan="0" key="20" vol="100" pos="7494" len="5"/>
          <note pan="0" key="32" vol="100" pos="7500" len="5"/>
          <note pan="0" key="44" vol="100" pos="7512" len="11"/>
          <note pan="0" key="32" vol="100" pos="7524" len="5"/>
          <note pan="0" key="32" vol="100" pos="7536" len="5"/>
          <note pan="0" key="20" vol="100" pos="7542" len="5"/>
          <note pan="0" key="32" vol="100" pos="7548" len="5"/>
          <note pan="0" key="44" vol="100" pos="7560" len="11"/>
          <note pan="0" key="32" vol="100" pos="7572" len="5"/>
          <note pan="0" key="37" vol="100" pos="7584" len="5"/>
          <note pan="0" key="25" vol="100" pos="7590" len="5"/>
          <note pan="0" key="37" vol="100" pos="7596" len="5"/>
          <note pan="0" key="49" vol="100" pos="7608" len="11"/>
          <note pan="0" key="37" vol="100" pos="7620" len="5"/>
          <note pan="0" key="37" vol="100" pos="7632" len="5"/>
          <note pan="0" key="25" vol="100" pos="7638" len="5"/>
          <note pan="0" key="37" vol="100" pos="7644" len="5"/>
          <note pan="0" key="49" vol="100" pos="7656" len="11"/>
          <note pan="0" key="37" vol="100" pos="7668" len="5"/>
          <note pan="0" key="30" vol="100" pos="7680" len="5"/>
          <note pan="0" key="18" vol="100" pos="7686" len="5"/>
          <note pan="0" key="30" vol="100" pos="7692" len="5"/>
          <note pan="0" key="42" vol="100" pos="7704" len="11"/>
          <note pan="0" key="30" vol="100" pos="7716" len="5"/>
          <note pan="0" key="30" vol="100" pos="7728" len="5"/>
          <note pan="0" key="18" vol="100" pos="7734" len="5"/>
          <note pan="0" key="30" vol="100" pos="7740" len="5"/>
          <note pan="0" key="42" vol="100" pos="7752" len="11"/>
          <note pan="0" key="30" vol="100" pos="7764" len="5"/>
          <note pan="0" key="30" vol="100" pos="7776" len="5"/>
          <note pan="0" key="18" vol="100" pos="7782" len="5"/>
          <note pan="0" key="30" vol="100" pos="7788" len="5"/>
          <note pan="0" key="42" vol="100" pos="7800" len="11"/>
          <note pan="0" key="30" vol="100" pos="7812" len="5"/>
          <note pan="0" key="30" vol="100" pos="7824" len="5"/>
          <note pan="0" key="18" vol="100" pos="7830" len="5"/>
          <note pan="0" key="30" vol="100" pos="7836" len="5"/>
          <note pan="0" key="42" vol="100" pos="7848" len="11"/>
          <note pan="0" key="30" vol="100" pos="7860" len="5"/>
          <note pan="0" key="32" vol="100" pos="7872" len="5"/>
          <note pan="0" key="20" vol="100" pos="7878" len="5"/>
          <note pan="0" key="32" vol="100" pos="7884" len="5"/>
          <note pan="0" key="44" vol="100" pos="7896" len="11"/>
          <note pan="0" key="32" vol="100" pos="7908" len="5"/>
          <note pan="0" key="32" vol="100" pos="7920" len="5"/>
          <note pan="0" key="20" vol="100" pos="7926" len="5"/>
          <note pan="0" key="32" vol="100" pos="7932" len="5"/>
          <note pan="0" key="44" vol="100" pos="7944" len="11"/>
          <note pan="0" key="32" vol="100" pos="7956" len="5"/>
          <note pan="0" key="32" vol="100" pos="7968" len="5"/>
          <note pan="0" key="20" vol="100" pos="7974" len="5"/>
          <note pan="0" key="32" vol="100" pos="7980" len="5"/>
          <note pan="0" key="44" vol="100" pos="7992" len="11"/>
          <note pan="0" key="32" vol="100" pos="8004" len="5"/>
          <note pan="0" key="32" vol="100" pos="8016" len="5"/>
          <note pan="0" key="20" vol="100" pos="8022" len="5"/>
          <note pan="0" key="32" vol="100" pos="8028" len="5"/>
          <note pan="0" key="44" vol="100" pos="8040" len="11"/>
          <note pan="0" key="32" vol="100" pos="8052" len="5"/>
          <note pan="0" key="34" vol="100" pos="8064" len="5"/>
          <note pan="0" key="22" vol="100" pos="8070" len="5"/>
          <note pan="0" key="34" vol="100" pos="8076" len="5"/>
          <note pan="0" key="46" vol="100" pos="8088" len="11"/>
          <note pan="0" key="34" vol="100" pos="8100" len="5"/>
          <note pan="0" key="34" vol="100" pos="8112" len="5"/>
          <note pan="0" key="22" vol="100" pos="8118" len="5"/>
          <note pan="0" key="34" vol="100" pos="8124" len="5"/>
          <note pan="0" key="46" vol="100" pos="8136" len="11"/>
          <note pan="0" key="34" vol="100" pos="8148" len="5"/>
          <note pan="0" key="34" vol="100" pos="8160" len="5"/>
          <note pan="0" key="22" vol="100" pos="8166" len="5"/>
          <note pan="0" key="34" vol="100" pos="8172" len="5"/>
          <note pan="0" key="46" vol="100" pos="8184" len="11"/>
          <note pan="0" key="34" vol="100" pos="8196" len="5"/>
          <note pan="0" key="34" vol="100" pos="8208" len="5"/>
          <note pan="0" key="22" vol="100" pos="8214" len="5"/>
          <note pan="0" key="34" vol="100" pos="8220" len="5"/>
          <note pan="0" key="46" vol="100" pos="8232" len="11"/>
          <note pan="0" key="34" vol="100" pos="8244" len="5"/>
          <note pan="0" key="34" vol="100" pos="8256" len="5"/>
          <note pan="0" key="22" vol="100" pos="8262" len="5"/>
          <note pan="0" key="34" vol="100" pos="8268" len="5"/>
          <note pan="0" key="46" vol="100" pos="8280" len="11"/>
          <note pan="0" key="34" vol="100" pos="8292" len="5"/>
          <note pan="0" key="34" vol="100" pos="8304" len="5"/>
          <note pan="0" key="22" vol="100" pos="8310" len="5"/>
          <note pan="0" key="34" vol="100" pos="8316" len="5"/>
          <note pan="0" key="46" vol="100" pos="8328" len="11"/>
          <note pan="0" key="34" vol="100" pos="8340" len="5"/>
          <note pan="0" key="29" vol="100" pos="8352" len="5"/>
          <note pan="0" key="17" vol="100" pos="8358" len="5"/>
          <note pan="0" key="29" vol="100" pos="8364" len="5"/>
          <note pan="0" key="41" vol="100" pos="8376" len="11"/>
          <note pan="0" key="29" vol="100" pos="8388" len="5"/>
          <note pan="0" key="29" vol="100" pos="8400" len="5"/>
          <note pan="0" key="17" vol="100" pos="8406" len="5"/>
          <note pan="0" key="29" vol="100" pos="8412" len="5"/>
          <note pan="0" key="41" vol="100" pos="8424" len="11"/>
          <note pan="0" key="29" vol="100" pos="8436" len="5"/>
          <note pan="0" key="30" vol="100" pos="8448" len="23"/>
          <note pan="0" key="42" vol="100" pos="8472" len="23"/>
          <note pan="0" key="37" vol="100" pos="8496" len="23"/>
          <note pan="0" key="42" vol="100" pos="8520" len="23"/>
          <note pan="0" key="30" vol="100" pos="8544" len="23"/>
          <note pan="0" key="42" vol="100" pos="8568" len="23"/>
          <note pan="0" key="37" vol="100" pos="8592" len="23"/>
          <note pan="0" key="42" vol="100" pos="8616" len="23"/>
          <note pan="0" key="32" vol="100" pos="8640" len="23"/>
          <note pan="0" key="44" vol="100" pos="8664" len="23"/>
          <note pan="0" key="39" vol="100" pos="8688" len="23"/>
          <note pan="0" key="44" vol="100" pos="8712" len="23"/>
          <note pan="0" key="29" vol="100" pos="8736" len="23"/>
          <note pan="0" key="41" vol="100" pos="8760" len="23"/>
          <note pan="0" key="36" vol="100" pos="8784" len="23"/>
          <note pan="0" key="41" vol="100" pos="8808" len="23"/>
          <note pan="0" key="34" vol="100" pos="8832" len="23"/>
          <note pan="0" key="46" vol="100" pos="8856" len="23"/>
          <note pan="0" key="41" vol="100" pos="8880" len="17"/>
          <note pan="0" key="46" vol="100" pos="8904" len="17"/>
          <note pan="0" key="34" vol="100" pos="8928" len="11"/>
          <note pan="0" key="46" vol="100" pos="8952" len="11"/>
          <note pan="0" key="41" vol="100" pos="8976" len="5"/>
          <note pan="0" key="41" vol="100" pos="8988" len="5"/>
          <note pan="0" key="46" vol="100" pos="9000" len="5"/>
          <note pan="0" key="46" vol="100" pos="9012" len="5"/>
          <note pan="0" key="34" vol="100" pos="9024" len="5"/>
          <note pan="0" key="34" vol="100" pos="9036" len="5"/>
          <note pan="0" key="46" vol="100" pos="9048" len="5"/>
          <note pan="0" key="46" vol="100" pos="9060" len="5"/>
          <note pan="0" key="41" vol="100" pos="9072" len="5"/>
          <note pan="0" key="41" vol="100" pos="9084" len="5"/>
          <note pan="0" key="46" vol="100" pos="9096" len="5"/>
          <note pan="0" key="46" vol="100" pos="9108" len="5"/>
          <note pan="0" key="34" vol="100" pos="9120" len="5"/>
          <note pan="0" key="34" vol="100" pos="9132" len="5"/>
          <note pan="0" key="46" vol="100" pos="9144" len="5"/>
          <note pan="0" key="46" vol="100" pos="9156" len="5"/>
          <note pan="0" key="41" vol="100" pos="9168" len="5"/>
          <note pan="0" key="41" vol="100" pos="9180" len="5"/>
          <note pan="0" key="46" vol="100" pos="9192" len="5"/>
          <note pan="0" key="46" vol="100" pos="9204" len="5"/>
          <note pan="0" key="46" vol="100" pos="9216" len="5"/>
          <note pan="0" key="37" vol="100" pos="9222" len="5"/>
          <note pan="0" key="30" vol="100" pos="9228" len="5"/>
          <note pan="0" key="46" vol="100" pos="9234" len="5"/>
          <note pan="0" key="37" vol="100" pos="9240" len="5"/>
          <note pan="0" key="30" vol="100" pos="9246" len="5"/>
          <note pan="0" key="46" vol="100" pos="9252" len="5"/>
          <note pan="0" key="37" vol="100" pos="9258" len="5"/>
          <note pan="0" key="30" vol="100" pos="9264" len="5"/>
          <note pan="0" key="46" vol="100" pos="9270" len="5"/>
          <note pan="0" key="37" vol="100" pos="9276" len="5"/>
          <note pan="0" key="30" vol="100" pos="9282" len="5"/>
          <note pan="0" key="46" vol="100" pos="9288" len="5"/>
          <note pan="0" key="37" vol="100" pos="9294" len="5"/>
          <note pan="0" key="30" vol="100" pos="9300" len="5"/>
          <note pan="0" key="46" vol="100" pos="9306" len="5"/>
          <note pan="0" key="37" vol="100" pos="9312" len="5"/>
          <note pan="0" key="30" vol="100" pos="9318" len="5"/>
          <note pan="0" key="46" vol="100" pos="9324" len="5"/>
          <note pan="0" key="37" vol="100" pos="9330" len="5"/>
          <note pan="0" key="30" vol="100" pos="9336" len="5"/>
          <note pan="0" key="46" vol="100" pos="9342" len="5"/>
          <note pan="0" key="37" vol="100" pos="9348" len="5"/>
          <note pan="0" key="30" vol="100" pos="9354" len="5"/>
          <note pan="0" key="46" vol="100" pos="9360" len="5"/>
          <note pan="0" key="37" vol="100" pos="9366" len="5"/>
          <note pan="0" key="30" vol="100" pos="9372" len="5"/>
          <note pan="0" key="46" vol="100" pos="9378" len="5"/>
          <note pan="0" key="37" vol="100" pos="9384" len="5"/>
          <note pan="0" key="30" vol="100" pos="9390" len="5"/>
          <note pan="0" key="46" vol="100" pos="9396" len="5"/>
          <note pan="0" key="37" vol="100" pos="9402" len="5"/>
          <note pan="0" key="48" vol="100" pos="9408" len="5"/>
          <note pan="0" key="39" vol="100" pos="9414" len="5"/>
          <note pan="0" key="32" vol="100" pos="9420" len="5"/>
          <note pan="0" key="48" vol="100" pos="9426" len="5"/>
          <note pan="0" key="39" vol="100" pos="9432" len="5"/>
          <note pan="0" key="32" vol="100" pos="9438" len="5"/>
          <note pan="0" key="48" vol="100" pos="9444" len="5"/>
          <note pan="0" key="39" vol="100" pos="9450" len="5"/>
          <note pan="0" key="32" vol="100" pos="9456" len="5"/>
          <note pan="0" key="48" vol="100" pos="9462" len="5"/>
          <note pan="0" key="39" vol="100" pos="9468" len="5"/>
          <note pan="0" key="32" vol="100" pos="9474" len="5"/>
          <note pan="0" key="48" vol="100" pos="9480" len="5"/>
          <note pan="0" key="39" vol="100" pos="9486" len="5"/>
          <note pan="0" key="32" vol="100" pos="9492" len="5"/>
          <note pan="0" key="48" vol="100" pos="9498" len="5"/>
          <note pan="0" key="39" vol="100" pos="9504" len="5"/>
          <note pan="0" key="32" vol="100" pos="9510" len="5"/>
          <note pan="0" key="48" vol="100" pos="9516" len="5"/>
          <note pan="0" key="39" vol="100" pos="9522" len="5"/>
          <note pan="0" key="32" vol="100" pos="9528" len="5"/>
          <note pan="0" key="48" vol="100" pos="9534" len="5"/>
          <note pan="0" key="39" vol="100" pos="9540" len="5"/>
          <note pan="0" key="32" vol="100" pos="9546" len="5"/>
          <note pan="0" key="48" vol="100" pos="9552" len="5"/>
          <note pan="0" key="39" vol="100" pos="9558" len="5"/>
          <note pan="0" key="32" vol="100" pos="9564" len="5"/>
          <note pan="0" key="48" vol="100" pos="9570" len="5"/>
          <note pan="0" key="39" vol="100" pos="9576" len="5"/>
          <note pan="0" key="32" vol="100" pos="9582" len="5"/>
          <note pan="0" key="48" vol="100" pos="9588" len="5"/>
          <note pan="0" key="39" vol="100" pos="9594" len="5"/>
          <note pan="0" key="49" vol="100" pos="9600" len="5"/>
          <note pan="0" key="41" vol="100" pos="9606" len="5"/>
          <note pan="0" key="34" vol="100" pos="9612" len="5"/>
          <note pan="0" key="49" vol="100" pos="9618" len="5"/>
          <note pan="0" key="41" vol="100" pos="9624" len="5"/>
          <note pan="0" key="34" vol="100" pos="9630" len="5"/>
          <note pan="0" key="49" vol="100" pos="9636" len="5"/>
          <note pan="0" key="41" vol="100" pos="9642" len="5"/>
          <note pan="0" key="34" vol="100" pos="9648" len="5"/>
          <note pan="0" key="49" vol="100" pos="9654" len="5"/>
          <note pan="0" key="41" vol="100" pos="9660" len="5"/>
          <note pan="0" key="34" vol="100" pos="9666" len="5"/>
          <note pan="0" key="49" vol="100" pos="9672" len="5"/>
          <note pan="0" key="41" vol="100" pos="9678" len="5"/>
          <note pan="0" key="34" vol="100" pos="9684" len="5"/>
          <note pan="0" key="49" vol="100" pos="9690" len="5"/>
          <note pan="0" key="41" vol="100" pos="9696" len="5"/>
          <note pan="0" key="34" vol="100" pos="9702" len="5"/>
          <note pan="0" key="49" vol="100" pos="9708" len="5"/>
          <note pan="0" key="41" vol="100" pos="9714" len="5"/>
          <note pan="0" key="34" vol="100" pos="9720" len="5"/>
          <note pan="0" key="49" vol="100" pos="9726" len="5"/>
          <note pan="0" key="41" vol="100" pos="9732" len="5"/>
          <note pan="0" key="34" vol="100" pos="9738" len="5"/>
          <note pan="0" key="49" vol="100" pos="9744" len="5"/>
          <note pan="0" key="41" vol="100" pos="9750" len="5"/>
          <note pan="0" key="34" vol="100" pos="9756" len="5"/>
          <note pan="0" key="49" vol="100" pos="9762" len="5"/>
          <note pan="0" key="41" vol="100" pos="9768" len="5"/>
          <note pan="0" key="34" vol="100" pos="9774" len="5"/>
          <note pan="0" key="49" vol="100" pos="9780" len="5"/>
          <note pan="0" key="41" vol="100" pos="9786" len="5"/>
          <note pan="0" key="44" vol="100" pos="9792" len="5"/>
          <note pan="0" key="36" vol="100" pos="9798" len="5"/>
          <note pan="0" key="53" vol="100" pos="9804" len="5"/>
          <note pan="0" key="44" vol="100" pos="9810" len="5"/>
          <note pan="0" key="36" vol="100" pos="9816" len="5"/>
          <note pan="0" key="53" vol="100" pos="9822" len="5"/>
          <note pan="0" key="44" vol="100" pos="9828" len="5"/>
          <note pan="0" key="36" vol="100" pos="9834" len="5"/>
          <note pan="0" key="53" vol="100" pos="9840" len="5"/>
          <note pan="0" key="44" vol="100" pos="9846" len="5"/>
          <note pan="0" key="36" vol="100" pos="9852" len="5"/>
          <note pan="0" key="53" vol="100" pos="9858" len="5"/>
          <note pan="0" key="44" vol="100" pos="9864" len="5"/>
          <note pan="0" key="36" vol="100" pos="9870" len="5"/>
          <note pan="0" key="53" vol="100" pos="9876" len="5"/>
          <note pan="0" key="44" vol="100" pos="9882" len="5"/>
          <note pan="0" key="36" vol="100" pos="9888" len="5"/>
          <note pan="0" key="53" vol="100" pos="9894" len="5"/>
          <note pan="0" key="44" vol="100" pos="9900" len="5"/>
          <note pan="0" key="36" vol="100" pos="9906" len="5"/>
          <note pan="0" key="53" vol="100" pos="9912" len="5"/>
          <note pan="0" key="44" vol="100" pos="9918" len="5"/>
          <note pan="0" key="36" vol="100" pos="9924" len="5"/>
          <note pan="0" key="53" vol="100" pos="9930" len="5"/>
          <note pan="0" key="44" vol="100" pos="9936" len="5"/>
          <note pan="0" key="36" vol="100" pos="9942" len="5"/>
          <note pan="0" key="53" vol="100" pos="9948" len="5"/>
          <note pan="0" key="44" vol="100" pos="9954" len="5"/>
          <note pan="0" key="36" vol="100" pos="9960" len="5"/>
          <note pan="0" key="53" vol="100" pos="9966" len="5"/>
          <note pan="0" key="44" vol="100" pos="9972" len="5"/>
          <note pan="0" key="36" vol="100" pos="9978" len="5"/>
          <note pan="0" key="54" vol="100" pos="9984" len="5"/>
          <note pan="0" key="46" vol="100" pos="9990" len="5"/>
          <note pan="0" key="37" vol="100" pos="9996" len="5"/>
          <note pan="0" key="54" vol="100" pos="10002" len="5"/>
          <note pan="0" key="46" vol="100" pos="10008" len="5"/>
          <note pan="0" key="37" vol="100" pos="10014" len="5"/>
          <note pan="0" key="54" vol="100" pos="10020" len="5"/>
          <note pan="0" key="46" vol="100" pos="10026" len="5"/>
          <note pan="0" key="37" vol="100" pos="10032" len="5"/>
          <note pan="0" key="54" vol="100" pos="10038" len="5"/>
          <note pan="0" key="46" vol="100" pos="10044" len="5"/>
          <note pan="0" key="37" vol="100" pos="10050" len="5"/>
          <note pan="0" key="54" vol="100" pos="10056" len="5"/>
          <note pan="0" key="46" vol="100" pos="10062" len="5"/>
          <note pan="0" key="37" vol="100" pos="10068" len="5"/>
          <note pan="0" key="54" vol="100" pos="10074" len="5"/>
          <note pan="0" key="46" vol="100" pos="10080" len="5"/>
          <note pan="0" key="37" vol="100" pos="10086" len="5"/>
          <note pan="0" key="54" vol="100" pos="10092" len="5"/>
          <note pan="0" key="46" vol="100" pos="10098" len="5"/>
          <note pan="0" key="37" vol="100" pos="10104" len="5"/>
          <note pan="0" key="54" vol="100" pos="10110" len="5"/>
          <note pan="0" key="46" vol="100" pos="10116" len="5"/>
          <note pan="0" key="37" vol="100" pos="10122" len="5"/>
          <note pan="0" key="54" vol="100" pos="10128" len="5"/>
          <note pan="0" key="46" vol="100" pos="10134" len="5"/>
          <note pan="0" key="37" vol="100" pos="10140" len="5"/>
          <note pan="0" key="54" vol="100" pos="10146" len="5"/>
          <note pan="0" key="46" vol="100" pos="10152" len="5"/>
          <note pan="0" key="37" vol="100" pos="10158" len="5"/>
          <note pan="0" key="54" vol="100" pos="10164" len="5"/>
          <note pan="0" key="46" vol="100" pos="10170" len="5"/>
          <note pan="0" key="56" vol="100" pos="10176" len="5"/>
          <note pan="0" key="48" vol="100" pos="10182" len="5"/>
          <note pan="0" key="39" vol="100" pos="10188" len="5"/>
          <note pan="0" key="56" vol="100" pos="10194" len="5"/>
          <note pan="0" key="48" vol="100" pos="10200" len="5"/>
          <note pan="0" key="39" vol="100" pos="10206" len="5"/>
          <note pan="0" key="56" vol="100" pos="10212" len="5"/>
          <note pan="0" key="48" vol="100" pos="10218" len="5"/>
          <note pan="0" key="39" vol="100" pos="10224" len="5"/>
          <note pan="0" key="56" vol="100" pos="10230" len="5"/>
          <note pan="0" key="48" vol="100" pos="10236" len="5"/>
          <note pan="0" key="39" vol="100" pos="10242" len="5"/>
          <note pan="0" key="56" vol="100" pos="10248" len="5"/>
          <note pan="0" key="48" vol="100" pos="10254" len="5"/>
          <note pan="0" key="39" vol="100" pos="10260" len="5"/>
          <note pan="0" key="56" vol="100" pos="10266" len="5"/>
          <note pan="0" key="48" vol="100" pos="10272" len="5"/>
          <note pan="0" key="39" vol="100" pos="10278" len="5"/>
          <note pan="0" key="56" vol="100" pos="10284" len="5"/>
          <note pan="0" key="48" vol="100" pos="10290" len="5"/>
          <note pan="0" key="39" vol="100" pos="10296" len="5"/>
          <note pan="0" key="56" vol="100" pos="10302" len="5"/>
          <note pan="0" key="48" vol="100" pos="10308" len="5"/>
          <note pan="0" key="39" vol="100" pos="10314" len="5"/>
          <note pan="0" key="56" vol="100" pos="10320" len="5"/>
          <note pan="0" key="48" vol="100" pos="10326" len="5"/>
          <note pan="0" key="39" vol="100" pos="10332" len="5"/>
          <note pan="0" key="56" vol="100" pos="10338" len="5"/>
          <note pan="0" key="48" vol="100" pos="10344" len="5"/>
          <note pan="0" key="39" vol="100" pos="10350" len="5"/>
          <note pan="0" key="56" vol="100" pos="10356" len="5"/>
          <note pan="0" key="48" vol="100" pos="10362" len="5"/>
          <note pan="0" key="58" vol="100" pos="10368" len="5"/>
          <note pan="0" key="49" vol="100" pos="10374" len="5"/>
          <note pan="0" key="41" vol="100" pos="10380" len="5"/>
          <note pan="0" key="58" vol="100" pos="10386" len="5"/>
          <note pan="0" key="49" vol="100" pos="10392" len="5"/>
          <note pan="0" key="41" vol="100" pos="10398" len="5"/>
          <note pan="0" key="58" vol="100" pos="10404" len="5"/>
          <note pan="0" key="49" vol="100" pos="10410" len="5"/>
          <note pan="0" key="41" vol="100" pos="10416" len="5"/>
          <note pan="0" key="58" vol="100" pos="10422" len="5"/>
          <note pan="0" key="49" vol="100" pos="10428" len="5"/>
          <note pan="0" key="41" vol="100" pos="10434" len="5"/>
          <note pan="0" key="58" vol="100" pos="10440" len="5"/>
          <note pan="0" key="49" vol="100" pos="10446" len="5"/>
          <note pan="0" key="41" vol="100" pos="10452" len="5"/>
          <note pan="0" key="58" vol="100" pos="10458" len="5"/>
          <note pan="0" key="49" vol="100" pos="10464" len="5"/>
          <note pan="0" key="41" vol="100" pos="10470" len="5"/>
          <note pan="0" key="58" vol="100" pos="10476" len="5"/>
          <note pan="0" key="49" vol="100" pos="10482" len="5"/>
          <note pan="0" key="41" vol="100" pos="10488" len="5"/>
          <note pan="0" key="58" vol="100" pos="10494" len="5"/>
          <note pan="0" key="49" vol="100" pos="10500" len="5"/>
          <note pan="0" key="41" vol="100" pos="10506" len="5"/>
          <note pan="0" key="58" vol="100" pos="10512" len="5"/>
          <note pan="0" key="49" vol="100" pos="10518" len="5"/>
          <note pan="0" key="41" vol="100" pos="10524" len="5"/>
          <note pan="0" key="58" vol="100" pos="10530" len="5"/>
          <note pan="0" key="49" vol="100" pos="10536" len="5"/>
          <note pan="0" key="41" vol="100" pos="10542" len="5"/>
          <note pan="0" key="58" vol="100" pos="10548" len="5"/>
          <note pan="0" key="49" vol="100" pos="10554" len="5"/>
          <note pan="0" key="60" vol="100" pos="10560" len="5"/>
          <note pan="0" key="53" vol="100" pos="10566" len="5"/>
          <note pan="0" key="44" vol="100" pos="10572" len="5"/>
          <note pan="0" key="60" vol="100" pos="10578" len="5"/>
          <note pan="0" key="53" vol="100" pos="10584" len="5"/>
          <note pan="0" key="44" vol="100" pos="10590" len="5"/>
          <note pan="0" key="60" vol="100" pos="10596" len="5"/>
          <note pan="0" key="53" vol="100" pos="10602" len="5"/>
          <note pan="0" key="44" vol="100" pos="10608" len="5"/>
          <note pan="0" key="60" vol="100" pos="10614" len="5"/>
          <note pan="0" key="53" vol="100" pos="10620" len="5"/>
          <note pan="0" key="44" vol="100" pos="10626" len="5"/>
          <note pan="0" key="60" vol="100" pos="10632" len="5"/>
          <note pan="0" key="53" vol="100" pos="10638" len="5"/>
          <note pan="0" key="44" vol="100" pos="10644" len="5"/>
          <note pan="0" key="60" vol="100" pos="10650" len="5"/>
          <note pan="0" key="56" vol="100" pos="10656" len="5"/>
          <note pan="0" key="48" vol="100" pos="10662" len="5"/>
          <note pan="0" key="39" vol="100" pos="10668" len="5"/>
          <note pan="0" key="56" vol="100" pos="10674" len="5"/>
          <note pan="0" key="48" vol="100" pos="10680" len="5"/>
          <note pan="0" key="39" vol="100" pos="10686" len="5"/>
          <note pan="0" key="56" vol="100" pos="10692" len="5"/>
          <note pan="0" key="48" vol="100" pos="10698" len="5"/>
          <note pan="0" key="39" vol="100" pos="10704" len="5"/>
          <note pan="0" key="56" vol="100" pos="10710" len="5"/>
          <note pan="0" key="48" vol="100" pos="10716" len="5"/>
          <note pan="0" key="39" vol="100" pos="10722" len="5"/>
          <note pan="0" key="56" vol="100" pos="10728" len="5"/>
          <note pan="0" key="48" vol="100" pos="10734" len="5"/>
          <note pan="0" key="39" vol="100" pos="10740" len="5"/>
          <note pan="0" key="56" vol="100" pos="10746" len="5"/>
          <note pan="0" key="46" vol="100" pos="10752" len="5"/>
          <note pan="0" key="37" vol="100" pos="10758" len="5"/>
          <note pan="0" key="30" vol="100" pos="10764" len="5"/>
          <note pan="0" key="46" vol="100" pos="10770" len="5"/>
          <note pan="0" key="37" vol="100" pos="10776" len="5"/>
          <note pan="0" key="30" vol="100" pos="10782" len="5"/>
          <note pan="0" key="46" vol="100" pos="10788" len="5"/>
          <note pan="0" key="37" vol="100" pos="10794" len="5"/>
          <note pan="0" key="30" vol="100" pos="10800" len="5"/>
          <note pan="0" key="46" vol="100" pos="10806" len="5"/>
          <note pan="0" key="37" vol="100" pos="10812" len="5"/>
          <note pan="0" key="30" vol="100" pos="10818" len="5"/>
          <note pan="0" key="46" vol="100" pos="10824" len="5"/>
          <note pan="0" key="37" vol="100" pos="10830" len="5"/>
          <note pan="0" key="30" vol="100" pos="10836" len="5"/>
          <note pan="0" key="46" vol="100" pos="10842" len="5"/>
          <note pan="0" key="37" vol="100" pos="10848" len="5"/>
          <note pan="0" key="30" vol="100" pos="10854" len="5"/>
          <note pan="0" key="46" vol="100" pos="10860" len="5"/>
          <note pan="0" key="37" vol="100" pos="10866" len="5"/>
          <note pan="0" key="30" vol="100" pos="10872" len="5"/>
          <note pan="0" key="46" vol="100" pos="10878" len="5"/>
          <note pan="0" key="37" vol="100" pos="10884" len="5"/>
          <note pan="0" key="30" vol="100" pos="10890" len="5"/>
          <note pan="0" key="46" vol="100" pos="10896" len="5"/>
          <note pan="0" key="37" vol="100" pos="10902" len="5"/>
          <note pan="0" key="30" vol="100" pos="10908" len="5"/>
          <note pan="0" key="46" vol="100" pos="10914" len="5"/>
          <note pan="0" key="37" vol="100" pos="10920" len="5"/>
          <note pan="0" key="30" vol="100" pos="10926" len="5"/>
          <note pan="0" key="46" vol="100" pos="10932" len="5"/>
          <note pan="0" key="37" vol="100" pos="10938" len="5"/>
          <note pan="0" key="48" vol="100" pos="10944" len="5"/>
          <note pan="0" key="39" vol="100" pos="10950" len="5"/>
          <note pan="0" key="32" vol="100" pos="10956" len="5"/>
          <note pan="0" key="48" vol="100" pos="10962" len="5"/>
          <note pan="0" key="39" vol="100" pos="10968" len="5"/>
          <note pan="0" key="32" vol="100" pos="10974" len="5"/>
          <note pan="0" key="48" vol="100" pos="10980" len="5"/>
          <note pan="0" key="39" vol="100" pos="10986" len="5"/>
          <note pan="0" key="32" vol="100" pos="10992" len="5"/>
          <note pan="0" key="48" vol="100" pos="10998" len="5"/>
          <note pan="0" key="39" vol="100" pos="11004" len="5"/>
          <note pan="0" key="32" vol="100" pos="11010" len="5"/>
          <note pan="0" key="48" vol="100" pos="11016" len="5"/>
          <note pan="0" key="39" vol="100" pos="11022" len="5"/>
          <note pan="0" key="32" vol="100" pos="11028" len="5"/>
          <note pan="0" key="48" vol="100" pos="11034" len="5"/>
          <note pan="0" key="39" vol="100" pos="11040" len="5"/>
          <note pan="0" key="32" vol="100" pos="11046" len="5"/>
          <note pan="0" key="48" vol="100" pos="11052" len="5"/>
          <note pan="0" key="39" vol="100" pos="11058" len="5"/>
          <note pan="0" key="32" vol="100" pos="11064" len="5"/>
          <note pan="0" key="48" vol="100" pos="11070" len="5"/>
          <note pan="0" key="39" vol="100" pos="11076" len="5"/>
          <note pan="0" key="32" vol="100" pos="11082" len="5"/>
          <note pan="0" key="48" vol="100" pos="11088" len="5"/>
          <note pan="0" key="39" vol="100" pos="11094" len="5"/>
          <note pan="0" key="32" vol="100" pos="11100" len="5"/>
          <note pan="0" key="48" vol="100" pos="11106" len="5"/>
          <note pan="0" key="39" vol="100" pos="11112" len="5"/>
          <note pan="0" key="32" vol="100" pos="11118" len="5"/>
          <note pan="0" key="48" vol="100" pos="11124" len="5"/>
          <note pan="0" key="39" vol="100" pos="11130" len="5"/>
          <note pan="0" key="49" vol="100" pos="11136" len="5"/>
          <note pan="0" key="41" vol="100" pos="11142" len="5"/>
          <note pan="0" key="34" vol="100" pos="11148" len="5"/>
          <note pan="0" key="49" vol="100" pos="11154" len="5"/>
          <note pan="0" key="41" vol="100" pos="11160" len="5"/>
          <note pan="0" key="34" vol="100" pos="11166" len="5"/>
          <note pan="0" key="49" vol="100" pos="11172" len="5"/>
          <note pan="0" key="41" vol="100" pos="11178" len="5"/>
          <note pan="0" key="34" vol="100" pos="11184" len="5"/>
          <note pan="0" key="49" vol="100" pos="11190" len="5"/>
          <note pan="0" key="41" vol="100" pos="11196" len="5"/>
          <note pan="0" key="34" vol="100" pos="11202" len="5"/>
          <note pan="0" key="49" vol="100" pos="11208" len="5"/>
          <note pan="0" key="41" vol="100" pos="11214" len="5"/>
          <note pan="0" key="34" vol="100" pos="11220" len="5"/>
          <note pan="0" key="49" vol="100" pos="11226" len="5"/>
          <note pan="0" key="41" vol="100" pos="11232" len="5"/>
          <note pan="0" key="34" vol="100" pos="11238" len="5"/>
          <note pan="0" key="49" vol="100" pos="11244" len="5"/>
          <note pan="0" key="41" vol="100" pos="11250" len="5"/>
          <note pan="0" key="34" vol="100" pos="11256" len="5"/>
          <note pan="0" key="49" vol="100" pos="11262" len="5"/>
          <note pan="0" key="41" vol="100" pos="11268" len="5"/>
          <note pan="0" key="34" vol="100" pos="11274" len="5"/>
          <note pan="0" key="49" vol="100" pos="11280" len="5"/>
          <note pan="0" key="41" vol="100" pos="11286" len="5"/>
          <note pan="0" key="34" vol="100" pos="11292" len="5"/>
          <note pan="0" key="49" vol="100" pos="11298" len="5"/>
          <note pan="0" key="41" vol="100" pos="11304" len="5"/>
          <note pan="0" key="34" vol="100" pos="11310" len="5"/>
          <note pan="0" key="49" vol="100" pos="11316" len="5"/>
          <note pan="0" key="41" vol="100" pos="11322" len="5"/>
          <note pan="0" key="44" vol="100" pos="11328" len="5"/>
          <note pan="0" key="36" vol="100" pos="11334" len="5"/>
          <note pan="0" key="53" vol="100" pos="11340" len="5"/>
          <note pan="0" key="44" vol="100" pos="11346" len="5"/>
          <note pan="0" key="36" vol="100" pos="11352" len="5"/>
          <note pan="0" key="53" vol="100" pos="11358" len="5"/>
          <note pan="0" key="44" vol="100" pos="11364" len="5"/>
          <note pan="0" key="36" vol="100" pos="11370" len="5"/>
          <note pan="0" key="53" vol="100" pos="11376" len="5"/>
          <note pan="0" key="44" vol="100" pos="11382" len="5"/>
          <note pan="0" key="36" vol="100" pos="11388" len="5"/>
          <note pan="0" key="53" vol="100" pos="11394" len="5"/>
          <note pan="0" key="44" vol="100" pos="11400" len="5"/>
          <note pan="0" key="36" vol="100" pos="11406" len="5"/>
          <note pan="0" key="53" vol="100" pos="11412" len="5"/>
          <note pan="0" key="44" vol="100" pos="11418" len="5"/>
          <note pan="0" key="36" vol="100" pos="11424" len="5"/>
          <note pan="0" key="53" vol="100" pos="11430" len="5"/>
          <note pan="0" key="44" vol="100" pos="11436" len="5"/>
          <note pan="0" key="36" vol="100" pos="11442" len="5"/>
          <note pan="0" key="53" vol="100" pos="11448" len="5"/>
          <note pan="0" key="44" vol="100" pos="11454" len="5"/>
          <note pan="0" key="36" vol="100" pos="11460" len="5"/>
          <note pan="0" key="53" vol="100" pos="11466" len="5"/>
          <note pan="0" key="44" vol="100" pos="11472" len="5"/>
          <note pan="0" key="36" vol="100" pos="11478" len="5"/>
          <note pan="0" key="53" vol="100" pos="11484" len="5"/>
          <note pan="0" key="44" vol="100" pos="11490" len="5"/>
          <note pan="0" key="36" vol="100" pos="11496" len="5"/>
          <note pan="0" key="53" vol="100" pos="11502" len="5"/>
          <note pan="0" key="44" vol="100" pos="11508" len="5"/>
          <note pan="0" key="36" vol="100" pos="11514" len="5"/>
          <note pan="0" key="54" vol="100" pos="11520" len="5"/>
          <note pan="0" key="46" vol="100" pos="11526" len="5"/>
          <note pan="0" key="37" vol="100" pos="11532" len="5"/>
          <note pan="0" key="54" vol="100" pos="11538" len="5"/>
          <note pan="0" key="46" vol="100" pos="11544" len="5"/>
          <note pan="0" key="37" vol="100" pos="11550" len="5"/>
          <note pan="0" key="54" vol="100" pos="11556" len="5"/>
          <note pan="0" key="46" vol="100" pos="11562" len="5"/>
          <note pan="0" key="37" vol="100" pos="11568" len="5"/>
          <note pan="0" key="54" vol="100" pos="11574" len="5"/>
          <note pan="0" key="46" vol="100" pos="11580" len="5"/>
          <note pan="0" key="37" vol="100" pos="11586" len="5"/>
          <note pan="0" key="54" vol="100" pos="11592" len="5"/>
          <note pan="0" key="46" vol="100" pos="11598" len="5"/>
          <note pan="0" key="37" vol="100" pos="11604" len="5"/>
          <note pan="0" key="54" vol="100" pos="11610" len="5"/>
          <note pan="0" key="46" vol="100" pos="11616" len="5"/>
          <note pan="0" key="37" vol="100" pos="11622" len="5"/>
          <note pan="0" key="54" vol="100" pos="11628" len="5"/>
          <note pan="0" key="46" vol="100" pos="11634" len="5"/>
          <note pan="0" key="37" vol="100" pos="11640" len="5"/>
          <note pan="0" key="54" vol="100" pos="11646" len="5"/>
          <note pan="0" key="46" vol="100" pos="11652" len="5"/>
          <note pan="0" key="37" vol="100" pos="11658" len="5"/>
          <note pan="0" key="54" vol="100" pos="11664" len="5"/>
          <note pan="0" key="46" vol="100" pos="11670" len="5"/>
          <note pan="0" key="37" vol="100" pos="11676" len="5"/>
          <note pan="0" key="54" vol="100" pos="11682" len="5"/>
          <note pan="0" key="46" vol="100" pos="11688" len="5"/>
          <note pan="0" key="37" vol="100" pos="11694" len="5"/>
          <note pan="0" key="54" vol="100" pos="11700" len="5"/>
          <note pan="0" key="46" vol="100" pos="11706" len="5"/>
          <note pan="0" key="56" vol="100" pos="11712" len="5"/>
          <note pan="0" key="48" vol="100" pos="11718" len="5"/>
          <note pan="0" key="39" vol="100" pos="11724" len="5"/>
          <note pan="0" key="56" vol="100" pos="11730" len="5"/>
          <note pan="0" key="48" vol="100" pos="11736" len="5"/>
          <note pan="0" key="39" vol="100" pos="11742" len="5"/>
          <note pan="0" key="56" vol="100" pos="11748" len="5"/>
          <note pan="0" key="48" vol="100" pos="11754" len="5"/>
          <note pan="0" key="39" vol="100" pos="11760" len="5"/>
          <note pan="0" key="56" vol="100" pos="11766" len="5"/>
          <note pan="0" key="48" vol="100" pos="11772" len="5"/>
          <note pan="0" key="39" vol="100" pos="11778" len="5"/>
          <note pan="0" key="56" vol="100" pos="11784" len="5"/>
          <note pan="0" key="48" vol="100" pos="11790" len="5"/>
          <note pan="0" key="39" vol="100" pos="11796" len="5"/>
          <note pan="0" key="56" vol="100" pos="11802" len="5"/>
          <note pan="0" key="48" vol="100" pos="11808" len="5"/>
          <note pan="0" key="39" vol="100" pos="11814" len="5"/>
          <note pan="0" key="56" vol="100" pos="11820" len="5"/>
          <note pan="0" key="48" vol="100" pos="11826" len="5"/>
          <note pan="0" key="39" vol="100" pos="11832" len="5"/>
          <note pan="0" key="56" vol="100" pos="11838" len="5"/>
          <note pan="0" key="48" vol="100" pos="11844" len="5"/>
          <note pan="0" key="39" vol="100" pos="11850" len="5"/>
          <note pan="0" key="56" vol="100" pos="11856" len="5"/>
          <note pan="0" key="48" vol="100" pos="11862" len="5"/>
          <note pan="0" key="39" vol="100" pos="11868" len="5"/>
          <note pan="0" key="56" vol="100" pos="11874" len="5"/>
          <note pan="0" key="48" vol="100" pos="11880" len="5"/>
          <note pan="0" key="39" vol="100" pos="11886" len="5"/>
          <note pan="0" key="56" vol="100" pos="11892" len="5"/>
          <note pan="0" key="48" vol="100" pos="11898" len="5"/>
          <note pan="0" key="58" vol="100" pos="11904" len="5"/>
          <note pan="0" key="49" vol="100" pos="11910" len="5"/>
          <note pan="0" key="41" vol="100" pos="11916" len="5"/>
          <note pan="0" key="58" vol="100" pos="11922" len="5"/>
          <note pan="0" key="49" vol="100" pos="11928" len="5"/>
          <note pan="0" key="41" vol="100" pos="11934" len="5"/>
          <note pan="0" key="58" vol="100" pos="11940" len="5"/>
          <note pan="0" key="49" vol="100" pos="11946" len="5"/>
          <note pan="0" key="41" vol="100" pos="11952" len="5"/>
          <note pan="0" key="58" vol="100" pos="11958" len="5"/>
          <note pan="0" key="49" vol="100" pos="11964" len="5"/>
          <note pan="0" key="41" vol="100" pos="11970" len="5"/>
          <note pan="0" key="58" vol="100" pos="11976" len="5"/>
          <note pan="0" key="49" vol="100" pos="11982" len="5"/>
          <note pan="0" key="41" vol="100" pos="11988" len="5"/>
          <note pan="0" key="58" vol="100" pos="11994" len="5"/>
          <note pan="0" key="49" vol="100" pos="12000" len="5"/>
          <note pan="0" key="41" vol="100" pos="12006" len="5"/>
          <note pan="0" key="58" vol="100" pos="12012" len="5"/>
          <note pan="0" key="49" vol="100" pos="12018" len="5"/>
          <note pan="0" key="41" vol="100" pos="12024" len="5"/>
          <note pan="0" key="58" vol="100" pos="12030" len="5"/>
          <note pan="0" key="49" vol="100" pos="12036" len="5"/>
          <note pan="0" key="41" vol="100" pos="12042" len="5"/>
          <note pan="0" key="58" vol="100" pos="12048" len="5"/>
          <note pan="0" key="49" vol="100" pos="12054" len="5"/>
          <note pan="0" key="41" vol="100" pos="12060" len="5"/>
          <note pan="0" key="58" vol="100" pos="12066" len="5"/>
          <note pan="0" key="49" vol="100" pos="12072" len="5"/>
          <note pan="0" key="41" vol="100" pos="12078" len="5"/>
          <note pan="0" key="58" vol="100" pos="12084" len="5"/>
          <note pan="0" key="49" vol="100" pos="12090" len="5"/>
          <note pan="0" key="46" vol="100" pos="12096" len="29"/>
          <note pan="0" key="41" vol="100" pos="12126" len="5"/>
          <note pan="0" key="37" vol="100" pos="12132" len="5"/>
          <note pan="0" key="29" vol="100" pos="12138" len="5"/>
          <note pan="0" key="34" vol="100" pos="12144" len="29"/>
          <note pan="0" key="29" vol="100" pos="12174" len="5"/>
          <note pan="0" key="25" vol="100" pos="12180" len="5"/>
          <note pan="0" key="22" vol="100" pos="12186" len="5"/>
          <note pan="0" key="27" vol="100" pos="12192" len="47"/>
          <note pan="0" key="29" vol="100" pos="12240" len="17"/>
          <note pan="0" key="29" vol="100" pos="12264" len="5"/>
          <note pan="0" key="29" vol="100" pos="12276" len="5"/>
          <note pan="0" key="34" vol="100" pos="12288" len="5"/>
          <note pan="0" key="10" vol="100" pos="12294" len="11"/>
          <note pan="0" key="34" vol="100" pos="12312" len="17"/>
          <note pan="0" key="46" vol="100" pos="12336" len="5"/>
          <note pan="0" key="10" vol="100" pos="12342" len="11"/>
          <note pan="0" key="46" vol="100" pos="12360" len="17"/>
          <note pan="0" key="34" vol="100" pos="12384" len="5"/>
          <note pan="0" key="10" vol="100" pos="12390" len="11"/>
          <note pan="0" key="34" vol="100" pos="12408" len="17"/>
          <note pan="0" key="46" vol="100" pos="12432" len="5"/>
          <note pan="0" key="10" vol="100" pos="12438" len="11"/>
          <note pan="0" key="46" vol="100" pos="12456" len="17"/>
          <note pan="0" key="34" vol="100" pos="12480" len="5"/>
          <note pan="0" key="10" vol="100" pos="12486" len="11"/>
          <note pan="0" key="34" vol="100" pos="12504" len="17"/>
          <note pan="0" key="46" vol="100" pos="12528" len="5"/>
          <note pan="0" key="10" vol="100" pos="12534" len="11"/>
          <note pan="0" key="46" vol="100" pos="12552" len="17"/>
          <note pan="0" key="30" vol="100" pos="12576" len="5"/>
          <note pan="0" key="6" vol="100" pos="12582" len="11"/>
          <note pan="0" key="30" vol="100" pos="12600" len="17"/>
          <note pan="0" key="44" vol="100" pos="12624" len="5"/>
          <note pan="0" key="8" vol="100" pos="12630" len="11"/>
          <note pan="0" key="32" vol="100" pos="12648" len="17"/>
          <note pan="0" key="34" vol="100" pos="12672" len="5"/>
          <note pan="0" key="10" vol="100" pos="12678" len="11"/>
          <note pan="0" key="34" vol="100" pos="12696" len="17"/>
          <note pan="0" key="46" vol="100" pos="12720" len="5"/>
          <note pan="0" key="10" vol="100" pos="12726" len="11"/>
          <note pan="0" key="46" vol="100" pos="12744" len="17"/>
          <note pan="0" key="34" vol="100" pos="12768" len="5"/>
          <note pan="0" key="10" vol="100" pos="12774" len="11"/>
          <note pan="0" key="34" vol="100" pos="12792" len="17"/>
          <note pan="0" key="46" vol="100" pos="12816" len="5"/>
          <note pan="0" key="10" vol="100" pos="12822" len="11"/>
          <note pan="0" key="46" vol="100" pos="12840" len="17"/>
          <note pan="0" key="34" vol="100" pos="12864" len="5"/>
          <note pan="0" key="10" vol="100" pos="12870" len="11"/>
          <note pan="0" key="34" vol="100" pos="12888" len="17"/>
          <note pan="0" key="46" vol="100" pos="12912" len="5"/>
          <note pan="0" key="10" vol="100" pos="12918" len="11"/>
          <note pan="0" key="46" vol="100" pos="12936" len="17"/>
          <note pan="0" key="30" vol="100" pos="12960" len="5"/>
          <note pan="0" key="6" vol="100" pos="12966" len="11"/>
          <note pan="0" key="30" vol="100" pos="12984" len="17"/>
          <note pan="0" key="44" vol="100" pos="13008" len="5"/>
          <note pan="0" key="8" vol="100" pos="13014" len="11"/>
          <note pan="0" key="32" vol="100" pos="13032" len="17"/>
          <note pan="0" key="34" vol="100" pos="13056" len="5"/>
          <note pan="0" key="10" vol="100" pos="13062" len="11"/>
          <note pan="0" key="34" vol="100" pos="13080" len="17"/>
          <note pan="0" key="46" vol="100" pos="13104" len="5"/>
          <note pan="0" key="10" vol="100" pos="13110" len="11"/>
          <note pan="0" key="46" vol="100" pos="13128" len="17"/>
          <note pan="0" key="34" vol="100" pos="13152" len="5"/>
          <note pan="0" key="10" vol="100" pos="13158" len="11"/>
          <note pan="0" key="34" vol="100" pos="13176" len="17"/>
          <note pan="0" key="46" vol="100" pos="13200" len="5"/>
          <note pan="0" key="10" vol="100" pos="13206" len="11"/>
          <note pan="0" key="46" vol="100" pos="13224" len="17"/>
          <note pan="0" key="34" vol="100" pos="13248" len="5"/>
          <note pan="0" key="10" vol="100" pos="13254" len="11"/>
          <note pan="0" key="34" vol="100" pos="13272" len="17"/>
          <note pan="0" key="46" vol="100" pos="13296" len="5"/>
          <note pan="0" key="10" vol="100" pos="13302" len="11"/>
          <note pan="0" key="46" vol="100" pos="13320" len="17"/>
          <note pan="0" key="30" vol="100" pos="13344" len="5"/>
          <note pan="0" key="6" vol="100" pos="13350" len="11"/>
          <note pan="0" key="30" vol="100" pos="13368" len="17"/>
          <note pan="0" key="44" vol="100" pos="13392" len="5"/>
          <note pan="0" key="8" vol="100" pos="13398" len="11"/>
          <note pan="0" key="32" vol="100" pos="13416" len="17"/>
          <note pan="0" key="34" vol="100" pos="13440" len="5"/>
          <note pan="0" key="10" vol="100" pos="13446" len="11"/>
          <note pan="0" key="34" vol="100" pos="13464" len="17"/>
          <note pan="0" key="46" vol="100" pos="13488" len="5"/>
          <note pan="0" key="10" vol="100" pos="13494" len="11"/>
          <note pan="0" key="46" vol="100" pos="13512" len="17"/>
          <note pan="0" key="34" vol="100" pos="13536" len="5"/>
          <note pan="0" key="10" vol="100" pos="13542" len="11"/>
          <note pan="0" key="34" vol="100" pos="13560" len="17"/>
          <note pan="0" key="46" vol="100" pos="13584" len="5"/>
          <note pan="0" key="10" vol="100" pos="13590" len="11"/>
          <note pan="0" key="46" vol="100" pos="13608" len="17"/>
          <note pan="0" key="34" vol="100" pos="13632" len="5"/>
          <note pan="0" key="10" vol="100" pos="13638" len="11"/>
          <note pan="0" key="34" vol="100" pos="13656" len="17"/>
          <note pan="0" key="46" vol="100" pos="13680" len="5"/>
          <note pan="0" key="10" vol="100" pos="13686" len="11"/>
          <note pan="0" key="46" vol="100" pos="13704" len="17"/>
          <note pan="0" key="39" vol="100" pos="13728" len="11"/>
          <note pan="0" key="37" vol="100" pos="13746" len="11"/>
          <note pan="0" key="39" vol="100" pos="13758" len="11"/>
          <note pan="0" key="37" vol="100" pos="13776" len="11"/>
          <note pan="0" key="34" vol="100" pos="13794" len="11"/>
          <note pan="0" key="37" vol="100" pos="13812" len="11"/>
          <note pan="0" key="22" vol="100" pos="13824" len="5"/>
          <note pan="0" key="10" vol="100" pos="13830" len="5"/>
          <note pan="0" key="22" vol="100" pos="13836" len="5"/>
          <note pan="0" key="34" vol="100" pos="13848" len="11"/>
          <note pan="0" key="22" vol="100" pos="13860" len="5"/>
          <note pan="0" key="22" vol="100" pos="13872" len="5"/>
          <note pan="0" key="10" vol="100" pos="13878" len="5"/>
          <note pan="0" key="22" vol="100" pos="13884" len="5"/>
          <note pan="0" key="34" vol="100" pos="13896" len="11"/>
          <note pan="0" key="22" vol="100" pos="13908" len="5"/>
          <note pan="0" key="22" vol="100" pos="13920" len="5"/>
          <note pan="0" key="10" vol="100" pos="13926" len="5"/>
          <note pan="0" key="22" vol="100" pos="13932" len="5"/>
          <note pan="0" key="34" vol="100" pos="13944" len="11"/>
          <note pan="0" key="22" vol="100" pos="13956" len="5"/>
          <note pan="0" key="22" vol="100" pos="13968" len="5"/>
          <note pan="0" key="10" vol="100" pos="13974" len="5"/>
          <note pan="0" key="22" vol="100" pos="13980" len="5"/>
          <note pan="0" key="34" vol="100" pos="13992" len="11"/>
          <note pan="0" key="22" vol="100" pos="14004" len="5"/>
          <note pan="0" key="22" vol="100" pos="14016" len="5"/>
          <note pan="0" key="10" vol="100" pos="14022" len="5"/>
          <note pan="0" key="22" vol="100" pos="14028" len="5"/>
          <note pan="0" key="34" vol="100" pos="14040" len="11"/>
          <note pan="0" key="22" vol="100" pos="14052" len="5"/>
          <note pan="0" key="22" vol="100" pos="14064" len="5"/>
          <note pan="0" key="10" vol="100" pos="14070" len="5"/>
          <note pan="0" key="22" vol="100" pos="14076" len="5"/>
          <note pan="0" key="34" vol="100" pos="14088" len="11"/>
          <note pan="0" key="22" vol="100" pos="14100" len="5"/>
          <note pan="0" key="22" vol="100" pos="14112" len="5"/>
          <note pan="0" key="10" vol="100" pos="14118" len="5"/>
          <note pan="0" key="22" vol="100" pos="14124" len="5"/>
          <note pan="0" key="34" vol="100" pos="14136" len="11"/>
          <note pan="0" key="22" vol="100" pos="14148" len="5"/>
          <note pan="0" key="22" vol="100" pos="14160" len="5"/>
          <note pan="0" key="10" vol="100" pos="14166" len="5"/>
          <note pan="0" key="22" vol="100" pos="14172" len="5"/>
          <note pan="0" key="34" vol="100" pos="14184" len="11"/>
          <note pan="0" key="22" vol="100" pos="14196" len="5"/>
          <note pan="0" key="18" vol="100" pos="14208" len="5"/>
          <note pan="0" key="6" vol="100" pos="14214" len="5"/>
          <note pan="0" key="18" vol="100" pos="14220" len="5"/>
          <note pan="0" key="30" vol="100" pos="14232" len="11"/>
          <note pan="0" key="18" vol="100" pos="14244" len="5"/>
          <note pan="0" key="18" vol="100" pos="14256" len="5"/>
          <note pan="0" key="6" vol="100" pos="14262" len="5"/>
          <note pan="0" key="18" vol="100" pos="14268" len="5"/>
          <note pan="0" key="30" vol="100" pos="14280" len="11"/>
          <note pan="0" key="18" vol="100" pos="14292" len="5"/>
          <note pan="0" key="18" vol="100" pos="14304" len="5"/>
          <note pan="0" key="6" vol="100" pos="14310" len="5"/>
          <note pan="0" key="18" vol="100" pos="14316" len="5"/>
          <note pan="0" key="30" vol="100" pos="14328" len="11"/>
          <note pan="0" key="18" vol="100" pos="14340" len="5"/>
          <note pan="0" key="18" vol="100" pos="14352" len="5"/>
          <note pan="0" key="6" vol="100" pos="14358" len="5"/>
          <note pan="0" key="18" vol="100" pos="14364" len="5"/>
          <note pan="0" key="30" vol="100" pos="14376" len="11"/>
          <note pan="0" key="18" vol="100" pos="14388" len="5"/>
          <note pan="0" key="20" vol="100" pos="14400" len="5"/>
          <note pan="0" key="8" vol="100" pos="14406" len="5"/>
          <note pan="0" key="20" vol="100" pos="14412" len="5"/>
          <note pan="0" key="32" vol="100" pos="14424" len="11"/>
          <note pan="0" key="20" vol="100" pos="14436" len="5"/>
          <note pan="0" key="20" vol="100" pos="14448" len="5"/>
          <note pan="0" key="8" vol="100" pos="14454" len="5"/>
          <note pan="0" key="20" vol="100" pos="14460" len="5"/>
          <note pan="0" key="32" vol="100" pos="14472" len="11"/>
          <note pan="0" key="20" vol="100" pos="14484" len="5"/>
          <note pan="0" key="17" vol="100" pos="14496" len="5"/>
          <note pan="0" key="5" vol="100" pos="14502" len="5"/>
          <note pan="0" key="17" vol="100" pos="14508" len="5"/>
          <note pan="0" key="29" vol="100" pos="14520" len="11"/>
          <note pan="0" key="17" vol="100" pos="14532" len="5"/>
          <note pan="0" key="17" vol="100" pos="14544" len="5"/>
          <note pan="0" key="5" vol="100" pos="14550" len="5"/>
          <note pan="0" key="17" vol="100" pos="14556" len="5"/>
          <note pan="0" key="29" vol="100" pos="14568" len="11"/>
          <note pan="0" key="17" vol="100" pos="14580" len="5"/>
          <note pan="0" key="22" vol="100" pos="14592" len="5"/>
          <note pan="0" key="10" vol="100" pos="14598" len="5"/>
          <note pan="0" key="22" vol="100" pos="14604" len="5"/>
          <note pan="0" key="34" vol="100" pos="14616" len="11"/>
          <note pan="0" key="22" vol="100" pos="14628" len="5"/>
          <note pan="0" key="22" vol="100" pos="14640" len="5"/>
          <note pan="0" key="10" vol="100" pos="14646" len="5"/>
          <note pan="0" key="22" vol="100" pos="14652" len="5"/>
          <note pan="0" key="34" vol="100" pos="14664" len="11"/>
          <note pan="0" key="22" vol="100" pos="14676" len="5"/>
          <note pan="0" key="22" vol="100" pos="14688" len="5"/>
          <note pan="0" key="10" vol="100" pos="14694" len="5"/>
          <note pan="0" key="22" vol="100" pos="14700" len="5"/>
          <note pan="0" key="34" vol="100" pos="14712" len="11"/>
          <note pan="0" key="22" vol="100" pos="14724" len="5"/>
          <note pan="0" key="22" vol="100" pos="14736" len="5"/>
          <note pan="0" key="10" vol="100" pos="14742" len="5"/>
          <note pan="0" key="22" vol="100" pos="14748" len="5"/>
          <note pan="0" key="34" vol="100" pos="14760" len="11"/>
          <note pan="0" key="22" vol="100" pos="14772" len="5"/>
          <note pan="0" key="22" vol="100" pos="14784" len="5"/>
          <note pan="0" key="10" vol="100" pos="14790" len="5"/>
          <note pan="0" key="22" vol="100" pos="14796" len="5"/>
          <note pan="0" key="34" vol="100" pos="14808" len="11"/>
          <note pan="0" key="22" vol="100" pos="14820" len="5"/>
          <note pan="0" key="22" vol="100" pos="14832" len="5"/>
          <note pan="0" key="10" vol="100" pos="14838" len="5"/>
          <note pan="0" key="22" vol="100" pos="14844" len="5"/>
          <note pan="0" key="34" vol="100" pos="14856" len="11"/>
          <note pan="0" key="22" vol="100" pos="14868" len="5"/>
          <note pan="0" key="22" vol="100" pos="14880" len="5"/>
          <note pan="0" key="10" vol="100" pos="14886" len="5"/>
          <note pan="0" key="22" vol="100" pos="14892" len="5"/>
          <note pan="0" key="34" vol="100" pos="14904" len="11"/>
          <note pan="0" key="22" vol="100" pos="14916" len="5"/>
          <note pan="0" key="22" vol="100" pos="14928" len="5"/>
          <note pan="0" key="10" vol="100" pos="14934" len="5"/>
          <note pan="0" key="22" vol="100" pos="14940" len="5"/>
          <note pan="0" key="34" vol="100" pos="14952" len="11"/>
          <note pan="0" key="22" vol="100" pos="14964" len="5"/>
          <note pan="0" key="18" vol="100" pos="14976" len="5"/>
          <note pan="0" key="6" vol="100" pos="14982" len="5"/>
          <note pan="0" key="18" vol="100" pos="14988" len="5"/>
          <note pan="0" key="30" vol="100" pos="15000" len="11"/>
          <note pan="0" key="18" vol="100" pos="15012" len="5"/>
          <note pan="0" key="18" vol="100" pos="15024" len="5"/>
          <note pan="0" key="6" vol="100" pos="15030" len="5"/>
          <note pan="0" key="18" vol="100" pos="15036" len="5"/>
          <note pan="0" key="30" vol="100" pos="15048" len="11"/>
          <note pan="0" key="18" vol="100" pos="15060" len="5"/>
          <note pan="0" key="18" vol="100" pos="15072" len="5"/>
          <note pan="0" key="6" vol="100" pos="15078" len="5"/>
          <note pan="0" key="18" vol="100" pos="15084" len="5"/>
          <note pan="0" key="30" vol="100" pos="15096" len="11"/>
          <note pan="0" key="18" vol="100" pos="15108" len="5"/>
          <note pan="0" key="18" vol="100" pos="15120" len="5"/>
          <note pan="0" key="6" vol="100" pos="15126" len="5"/>
          <note pan="0" key="18" vol="100" pos="15132" len="5"/>
          <note pan="0" key="30" vol="100" pos="15144" len="11"/>
          <note pan="0" key="18" vol="100" pos="15156" len="5"/>
          <note pan="0" key="20" vol="100" pos="15168" len="23"/>
          <note pan="0" key="32" vol="100" pos="15192" len="23"/>
          <note pan="0" key="44" vol="100" pos="15216" len="23"/>
          <note pan="0" key="32" vol="100" pos="15240" len="23"/>
          <note pan="0" key="29" vol="100" pos="15264" len="23"/>
          <note pan="0" key="41" vol="100" pos="15288" len="23"/>
          <note pan="0" key="45" vol="100" pos="15312" len="23"/>
          <note pan="0" key="48" vol="100" pos="15336" len="23"/>
          <note pan="0" key="22" vol="100" pos="15360" len="5"/>
          <note pan="0" key="10" vol="100" pos="15366" len="5"/>
          <note pan="0" key="22" vol="100" pos="15372" len="5"/>
          <note pan="0" key="34" vol="100" pos="15384" len="11"/>
          <note pan="0" key="22" vol="100" pos="15396" len="5"/>
          <note pan="0" key="22" vol="100" pos="15408" len="5"/>
          <note pan="0" key="10" vol="100" pos="15414" len="5"/>
          <note pan="0" key="22" vol="100" pos="15420" len="5"/>
          <note pan="0" key="34" vol="100" pos="15432" len="11"/>
          <note pan="0" key="22" vol="100" pos="15444" len="5"/>
          <note pan="0" key="22" vol="100" pos="15456" len="5"/>
          <note pan="0" key="10" vol="100" pos="15462" len="5"/>
          <note pan="0" key="22" vol="100" pos="15468" len="5"/>
          <note pan="0" key="34" vol="100" pos="15480" len="11"/>
          <note pan="0" key="22" vol="100" pos="15492" len="5"/>
          <note pan="0" key="22" vol="100" pos="15504" len="5"/>
          <note pan="0" key="10" vol="100" pos="15510" len="5"/>
          <note pan="0" key="22" vol="100" pos="15516" len="5"/>
          <note pan="0" key="34" vol="100" pos="15528" len="11"/>
          <note pan="0" key="22" vol="100" pos="15540" len="5"/>
          <note pan="0" key="22" vol="100" pos="15552" len="5"/>
          <note pan="0" key="10" vol="100" pos="15558" len="5"/>
          <note pan="0" key="22" vol="100" pos="15564" len="5"/>
          <note pan="0" key="34" vol="100" pos="15576" len="11"/>
          <note pan="0" key="22" vol="100" pos="15588" len="5"/>
          <note pan="0" key="22" vol="100" pos="15600" len="5"/>
          <note pan="0" key="10" vol="100" pos="15606" len="5"/>
          <note pan="0" key="22" vol="100" pos="15612" len="5"/>
          <note pan="0" key="34" vol="100" pos="15624" len="11"/>
          <note pan="0" key="22" vol="100" pos="15636" len="5"/>
          <note pan="0" key="22" vol="100" pos="15648" len="5"/>
          <note pan="0" key="10" vol="100" pos="15654" len="5"/>
          <note pan="0" key="22" vol="100" pos="15660" len="5"/>
          <note pan="0" key="34" vol="100" pos="15672" len="11"/>
          <note pan="0" key="22" vol="100" pos="15684" len="5"/>
          <note pan="0" key="22" vol="100" pos="15696" len="5"/>
          <note pan="0" key="10" vol="100" pos="15702" len="5"/>
          <note pan="0" key="22" vol="100" pos="15708" len="5"/>
          <note pan="0" key="34" vol="100" pos="15720" len="11"/>
          <note pan="0" key="22" vol="100" pos="15732" len="5"/>
          <note pan="0" key="18" vol="100" pos="15744" len="5"/>
          <note pan="0" key="6" vol="100" pos="15750" len="5"/>
          <note pan="0" key="18" vol="100" pos="15756" len="5"/>
          <note pan="0" key="30" vol="100" pos="15768" len="11"/>
          <note pan="0" key="18" vol="100" pos="15780" len="5"/>
          <note pan="0" key="18" vol="100" pos="15792" len="5"/>
          <note pan="0" key="6" vol="100" pos="15798" len="5"/>
          <note pan="0" key="18" vol="100" pos="15804" len="5"/>
          <note pan="0" key="30" vol="100" pos="15816" len="11"/>
          <note pan="0" key="18" vol="100" pos="15828" len="5"/>
          <note pan="0" key="18" vol="100" pos="15840" len="5"/>
          <note pan="0" key="6" vol="100" pos="15846" len="5"/>
          <note pan="0" key="18" vol="100" pos="15852" len="5"/>
          <note pan="0" key="30" vol="100" pos="15864" len="11"/>
          <note pan="0" key="18" vol="100" pos="15876" len="5"/>
          <note pan="0" key="18" vol="100" pos="15888" len="5"/>
          <note pan="0" key="6" vol="100" pos="15894" len="5"/>
          <note pan="0" key="18" vol="100" pos="15900" len="5"/>
          <note pan="0" key="30" vol="100" pos="15912" len="11"/>
          <note pan="0" key="18" vol="100" pos="15924" len="5"/>
          <note pan="0" key="20" vol="100" pos="15936" len="5"/>
          <note pan="0" key="8" vol="100" pos="15942" len="5"/>
          <note pan="0" key="20" vol="100" pos="15948" len="5"/>
          <note pan="0" key="32" vol="100" pos="15960" len="11"/>
          <note pan="0" key="20" vol="100" pos="15972" len="5"/>
          <note pan="0" key="20" vol="100" pos="15984" len="5"/>
          <note pan="0" key="8" vol="100" pos="15990" len="5"/>
          <note pan="0" key="20" vol="100" pos="15996" len="5"/>
          <note pan="0" key="32" vol="100" pos="16008" len="11"/>
          <note pan="0" key="20" vol="100" pos="16020" len="5"/>
          <note pan="0" key="17" vol="100" pos="16032" len="5"/>
          <note pan="0" key="5" vol="100" pos="16038" len="5"/>
          <note pan="0" key="17" vol="100" pos="16044" len="5"/>
          <note pan="0" key="29" vol="100" pos="16056" len="11"/>
          <note pan="0" key="17" vol="100" pos="16068" len="5"/>
          <note pan="0" key="17" vol="100" pos="16080" len="5"/>
          <note pan="0" key="5" vol="100" pos="16086" len="5"/>
          <note pan="0" key="17" vol="100" pos="16092" len="5"/>
          <note pan="0" key="29" vol="100" pos="16104" len="11"/>
          <note pan="0" key="17" vol="100" pos="16116" len="5"/>
          <note pan="0" key="22" vol="100" pos="16128" len="5"/>
          <note pan="0" key="10" vol="100" pos="16134" len="5"/>
          <note pan="0" key="22" vol="100" pos="16140" len="5"/>
          <note pan="0" key="34" vol="100" pos="16152" len="11"/>
          <note pan="0" key="22" vol="100" pos="16164" len="5"/>
          <note pan="0" key="22" vol="100" pos="16176" len="5"/>
          <note pan="0" key="10" vol="100" pos="16182" len="5"/>
          <note pan="0" key="22" vol="100" pos="16188" len="5"/>
          <note pan="0" key="34" vol="100" pos="16200" len="11"/>
          <note pan="0" key="22" vol="100" pos="16212" len="5"/>
          <note pan="0" key="22" vol="100" pos="16224" len="5"/>
          <note pan="0" key="10" vol="100" pos="16230" len="5"/>
          <note pan="0" key="22" vol="100" pos="16236" len="5"/>
          <note pan="0" key="34" vol="100" pos="16248" len="11"/>
          <note pan="0" key="22" vol="100" pos="16260" len="5"/>
          <note pan="0" key="22" vol="100" pos="16272" len="5"/>
          <note pan="0" key="10" vol="100" pos="16278" len="5"/>
          <note pan="0" key="22" vol="100" pos="16284" len="5"/>
          <note pan="0" key="34" vol="100" pos="16296" len="11"/>
          <note pan="0" key="22" vol="100" pos="16308" len="5"/>
          <note pan="0" key="22" vol="100" pos="16320" len="5"/>
          <note pan="0" key="10" vol="100" pos="16326" len="5"/>
          <note pan="0" key="22" vol="100" pos="16332" len="5"/>
          <note pan="0" key="34" vol="100" pos="16344" len="11"/>
          <note pan="0" key="22" vol="100" pos="16356" len="5"/>
          <note pan="0" key="22" vol="100" pos="16368" len="5"/>
          <note pan="0" key="10" vol="100" pos="16374" len="5"/>
          <note pan="0" key="22" vol="100" pos="16380" len="5"/>
          <note pan="0" key="34" vol="100" pos="16392" len="11"/>
          <note pan="0" key="22" vol="100" pos="16404" len="5"/>
          <note pan="0" key="22" vol="100" pos="16416" len="5"/>
          <note pan="0" key="10" vol="100" pos="16422" len="5"/>
          <note pan="0" key="22" vol="100" pos="16428" len="5"/>
          <note pan="0" key="34" vol="100" pos="16440" len="11"/>
          <note pan="0" key="22" vol="100" pos="16452" len="5"/>
          <note pan="0" key="22" vol="100" pos="16464" len="5"/>
          <note pan="0" key="10" vol="100" pos="16470" len="5"/>
          <note pan="0" key="22" vol="100" pos="16476" len="5"/>
          <note pan="0" key="34" vol="100" pos="16488" len="11"/>
          <note pan="0" key="22" vol="100" pos="16500" len="5"/>
          <note pan="0" key="18" vol="100" pos="16512" len="5"/>
          <note pan="0" key="6" vol="100" pos="16518" len="5"/>
          <note pan="0" key="18" vol="100" pos="16524" len="5"/>
          <note pan="0" key="30" vol="100" pos="16536" len="11"/>
          <note pan="0" key="18" vol="100" pos="16548" len="5"/>
          <note pan="0" key="18" vol="100" pos="16560" len="5"/>
          <note pan="0" key="6" vol="100" pos="16566" len="5"/>
          <note pan="0" key="18" vol="100" pos="16572" len="5"/>
          <note pan="0" key="30" vol="100" pos="16584" len="11"/>
          <note pan="0" key="18" vol="100" pos="16596" len="5"/>
          <note pan="0" key="18" vol="100" pos="16608" len="5"/>
          <note pan="0" key="6" vol="100" pos="16614" len="5"/>
          <note pan="0" key="18" vol="100" pos="16620" len="5"/>
          <note pan="0" key="30" vol="100" pos="16632" len="11"/>
          <note pan="0" key="18" vol="100" pos="16644" len="5"/>
          <note pan="0" key="18" vol="100" pos="16656" len="5"/>
          <note pan="0" key="6" vol="100" pos="16662" len="5"/>
          <note pan="0" key="18" vol="100" pos="16668" len="5"/>
          <note pan="0" key="30" vol="100" pos="16680" len="11"/>
          <note pan="0" key="18" vol="100" pos="16692" len="5"/>
          <note pan="0" key="20" vol="100" pos="16704" len="23"/>
          <note pan="0" key="32" vol="100" pos="16728" len="23"/>
          <note pan="0" key="44" vol="100" pos="16752" len="23"/>
          <note pan="0" key="32" vol="100" pos="16776" len="23"/>
          <note pan="0" key="29" vol="100" pos="16800" len="23"/>
          <note pan="0" key="41" vol="100" pos="16824" len="23"/>
          <note pan="0" key="45" vol="100" pos="16848" len="23"/>
          <note pan="0" key="48" vol="100" pos="16872" len="23"/>
          <note pan="0" key="30" vol="100" pos="16896" len="5"/>
          <note pan="0" key="18" vol="100" pos="16902" len="5"/>
          <note pan="0" key="30" vol="100" pos="16908" len="5"/>
          <note pan="0" key="42" vol="100" pos="16920" len="11"/>
          <note pan="0" key="30" vol="100" pos="16932" len="5"/>
          <note pan="0" key="30" vol="100" pos="16944" len="5"/>
          <note pan="0" key="18" vol="100" pos="16950" len="5"/>
          <note pan="0" key="30" vol="100" pos="16956" len="5"/>
          <note pan="0" key="42" vol="100" pos="16968" len="11"/>
          <note pan="0" key="30" vol="100" pos="16980" len="5"/>
          <note pan="0" key="30" vol="100" pos="16992" len="5"/>
          <note pan="0" key="18" vol="100" pos="16998" len="5"/>
          <note pan="0" key="30" vol="100" pos="17004" len="5"/>
          <note pan="0" key="42" vol="100" pos="17016" len="11"/>
          <note pan="0" key="30" vol="100" pos="17028" len="5"/>
          <note pan="0" key="30" vol="100" pos="17040" len="5"/>
          <note pan="0" key="18" vol="100" pos="17046" len="5"/>
          <note pan="0" key="30" vol="100" pos="17052" len="5"/>
          <note pan="0" key="42" vol="100" pos="17064" len="11"/>
          <note pan="0" key="30" vol="100" pos="17076" len="5"/>
          <note pan="0" key="32" vol="100" pos="17088" len="5"/>
          <note pan="0" key="20" vol="100" pos="17094" len="5"/>
          <note pan="0" key="32" vol="100" pos="17100" len="5"/>
          <note pan="0" key="44" vol="100" pos="17112" len="11"/>
          <note pan="0" key="32" vol="100" pos="17124" len="5"/>
          <note pan="0" key="32" vol="100" pos="17136" len="5"/>
          <note pan="0" key="20" vol="100" pos="17142" len="5"/>
          <note pan="0" key="32" vol="100" pos="17148" len="5"/>
          <note pan="0" key="44" vol="100" pos="17160" len="11"/>
          <note pan="0" key="32" vol="100" pos="17172" len="5"/>
          <note pan="0" key="32" vol="100" pos="17184" len="5"/>
          <note pan="0" key="20" vol="100" pos="17190" len="5"/>
          <note pan="0" key="32" vol="100" pos="17196" len="5"/>
          <note pan="0" key="44" vol="100" pos="17208" len="11"/>
          <note pan="0" key="32" vol="100" pos="17220" len="5"/>
          <note pan="0" key="29" vol="100" pos="17232" len="5"/>
          <note pan="0" key="17" vol="100" pos="17238" len="5"/>
          <note pan="0" key="29" vol="100" pos="17244" len="5"/>
          <note pan="0" key="41" vol="100" pos="17256" len="11"/>
          <note pan="0" key="29" vol="100" pos="17268" len="5"/>
          <note pan="0" key="34" vol="100" pos="17280" len="5"/>
          <note pan="0" key="22" vol="100" pos="17286" len="5"/>
          <note pan="0" key="34" vol="100" pos="17292" len="5"/>
          <note pan="0" key="46" vol="100" pos="17304" len="11"/>
          <note pan="0" key="34" vol="100" pos="17316" len="5"/>
          <note pan="0" key="34" vol="100" pos="17328" len="5"/>
          <note pan="0" key="22" vol="100" pos="17334" len="5"/>
          <note pan="0" key="34" vol="100" pos="17340" len="5"/>
          <note pan="0" key="46" vol="100" pos="17352" len="11"/>
          <note pan="0" key="34" vol="100" pos="17364" len="5"/>
          <note pan="0" key="34" vol="100" pos="17376" len="5"/>
          <note pan="0" key="22" vol="100" pos="17382" len="5"/>
          <note pan="0" key="34" vol="100" pos="17388" len="5"/>
          <note pan="0" key="46" vol="100" pos="17400" len="11"/>
          <note pan="0" key="34" vol="100" pos="17412" len="5"/>
          <note pan="0" key="34" vol="100" pos="17424" len="5"/>
          <note pan="0" key="22" vol="100" pos="17430" len="5"/>
          <note pan="0" key="34" vol="100" pos="17436" len="5"/>
          <note pan="0" key="46" vol="100" pos="17448" len="11"/>
          <note pan="0" key="34" vol="100" pos="17460" len="5"/>
          <note pan="0" key="34" vol="100" pos="17472" len="5"/>
          <note pan="0" key="22" vol="100" pos="17478" len="5"/>
          <note pan="0" key="34" vol="100" pos="17484" len="5"/>
          <note pan="0" key="46" vol="100" pos="17496" len="11"/>
          <note pan="0" key="34" vol="100" pos="17508" len="5"/>
          <note pan="0" key="34" vol="100" pos="17520" len="5"/>
          <note pan="0" key="22" vol="100" pos="17526" len="5"/>
          <note pan="0" key="34" vol="100" pos="17532" len="5"/>
          <note pan="0" key="46" vol="100" pos="17544" len="11"/>
          <note pan="0" key="34" vol="100" pos="17556" len="5"/>
          <note pan="0" key="29" vol="100" pos="17568" len="5"/>
          <note pan="0" key="17" vol="100" pos="17574" len="5"/>
          <note pan="0" key="29" vol="100" pos="17580" len="5"/>
          <note pan="0" key="41" vol="100" pos="17592" len="11"/>
          <note pan="0" key="29" vol="100" pos="17604" len="5"/>
          <note pan="0" key="29" vol="100" pos="17616" len="5"/>
          <note pan="0" key="17" vol="100" pos="17622" len="5"/>
          <note pan="0" key="29" vol="100" pos="17628" len="5"/>
          <note pan="0" key="41" vol="100" pos="17640" len="11"/>
          <note pan="0" key="29" vol="100" pos="17652" len="5"/>
          <note pan="0" key="30" vol="100" pos="17664" len="5"/>
          <note pan="0" key="18" vol="100" pos="17670" len="5"/>
          <note pan="0" key="30" vol="100" pos="17676" len="5"/>
          <note pan="0" key="42" vol="100" pos="17688" len="11"/>
          <note pan="0" key="30" vol="100" pos="17700" len="5"/>
          <note pan="0" key="30" vol="100" pos="17712" len="5"/>
          <note pan="0" key="18" vol="100" pos="17718" len="5"/>
          <note pan="0" key="30" vol="100" pos="17724" len="5"/>
          <note pan="0" key="42" vol="100" pos="17736" len="11"/>
          <note pan="0" key="30" vol="100" pos="17748" len="5"/>
          <note pan="0" key="30" vol="100" pos="17760" len="5"/>
          <note pan="0" key="18" vol="100" pos="17766" len="5"/>
          <note pan="0" key="30" vol="100" pos="17772" len="5"/>
          <note pan="0" key="42" vol="100" pos="17784" len="11"/>
          <note pan="0" key="30" vol="100" pos="17796" len="5"/>
          <note pan="0" key="30" vol="100" pos="17808" len="5"/>
          <note pan="0" key="18" vol="100" pos="17814" len="5"/>
          <note pan="0" key="30" vol="100" pos="17820" len="5"/>
          <note pan="0" key="42" vol="100" pos="17832" len="11"/>
          <note pan="0" key="30" vol="100" pos="17844" len="5"/>
          <note pan="0" key="32" vol="100" pos="17856" len="5"/>
          <note pan="0" key="20" vol="100" pos="17862" len="5"/>
          <note pan="0" key="32" vol="100" pos="17868" len="5"/>
          <note pan="0" key="44" vol="100" pos="17880" len="11"/>
          <note pan="0" key="32" vol="100" pos="17892" len="5"/>
          <note pan="0" key="32" vol="100" pos="17904" len="5"/>
          <note pan="0" key="20" vol="100" pos="17910" len="5"/>
          <note pan="0" key="32" vol="100" pos="17916" len="5"/>
          <note pan="0" key="44" vol="100" pos="17928" len="11"/>
          <note pan="0" key="32" vol="100" pos="17940" len="5"/>
          <note pan="0" key="33" vol="100" pos="17952" len="5"/>
          <note pan="0" key="21" vol="100" pos="17958" len="5"/>
          <note pan="0" key="33" vol="100" pos="17964" len="5"/>
          <note pan="0" key="45" vol="100" pos="17976" len="11"/>
          <note pan="0" key="33" vol="100" pos="17988" len="5"/>
          <note pan="0" key="33" vol="100" pos="18000" len="5"/>
          <note pan="0" key="21" vol="100" pos="18006" len="5"/>
          <note pan="0" key="33" vol="100" pos="18012" len="5"/>
          <note pan="0" key="45" vol="100" pos="18024" len="11"/>
          <note pan="0" key="33" vol="100" pos="18036" len="5"/>
          <note pan="0" key="34" vol="100" pos="18048" len="5"/>
          <note pan="0" key="22" vol="100" pos="18054" len="5"/>
          <note pan="0" key="34" vol="100" pos="18060" len="5"/>
          <note pan="0" key="46" vol="100" pos="18072" len="11"/>
          <note pan="0" key="34" vol="100" pos="18084" len="5"/>
          <note pan="0" key="34" vol="100" pos="18096" len="5"/>
          <note pan="0" key="22" vol="100" pos="18102" len="5"/>
          <note pan="0" key="34" vol="100" pos="18108" len="5"/>
          <note pan="0" key="46" vol="100" pos="18120" len="11"/>
          <note pan="0" key="34" vol="100" pos="18132" len="5"/>
          <note pan="0" key="34" vol="100" pos="18144" len="5"/>
          <note pan="0" key="22" vol="100" pos="18150" len="5"/>
          <note pan="0" key="34" vol="100" pos="18156" len="5"/>
          <note pan="0" key="46" vol="100" pos="18168" len="11"/>
          <note pan="0" key="34" vol="100" pos="18180" len="5"/>
          <note pan="0" key="34" vol="100" pos="18192" len="5"/>
          <note pan="0" key="22" vol="100" pos="18198" len="5"/>
          <note pan="0" key="34" vol="100" pos="18204" len="5"/>
          <note pan="0" key="46" vol="100" pos="18216" len="11"/>
          <note pan="0" key="34" vol="100" pos="18228" len="5"/>
          <note pan="0" key="32" vol="100" pos="18240" len="5"/>
          <note pan="0" key="20" vol="100" pos="18246" len="5"/>
          <note pan="0" key="32" vol="100" pos="18252" len="5"/>
          <note pan="0" key="44" vol="100" pos="18264" len="11"/>
          <note pan="0" key="32" vol="100" pos="18276" len="5"/>
          <note pan="0" key="32" vol="100" pos="18288" len="5"/>
          <note pan="0" key="20" vol="100" pos="18294" len="5"/>
          <note pan="0" key="32" vol="100" pos="18300" len="5"/>
          <note pan="0" key="44" vol="100" pos="18312" len="11"/>
          <note pan="0" key="32" vol="100" pos="18324" len="5"/>
          <note pan="0" key="37" vol="100" pos="18336" len="5"/>
          <note pan="0" key="25" vol="100" pos="18342" len="5"/>
          <note pan="0" key="37" vol="100" pos="18348" len="5"/>
          <note pan="0" key="49" vol="100" pos="18360" len="11"/>
          <note pan="0" key="37" vol="100" pos="18372" len="5"/>
          <note pan="0" key="37" vol="100" pos="18384" len="5"/>
          <note pan="0" key="25" vol="100" pos="18390" len="5"/>
          <note pan="0" key="37" vol="100" pos="18396" len="5"/>
          <note pan="0" key="49" vol="100" pos="18408" len="11"/>
          <note pan="0" key="37" vol="100" pos="18420" len="5"/>
          <note pan="0" key="30" vol="100" pos="18432" len="5"/>
          <note pan="0" key="18" vol="100" pos="18438" len="5"/>
          <note pan="0" key="30" vol="100" pos="18444" len="5"/>
          <note pan="0" key="42" vol="100" pos="18456" len="11"/>
          <note pan="0" key="30" vol="100" pos="18468" len="5"/>
          <note pan="0" key="30" vol="100" pos="18480" len="5"/>
          <note pan="0" key="18" vol="100" pos="18486" len="5"/>
          <note pan="0" key="30" vol="100" pos="18492" len="5"/>
          <note pan="0" key="42" vol="100" pos="18504" len="11"/>
          <note pan="0" key="30" vol="100" pos="18516" len="5"/>
          <note pan="0" key="30" vol="100" pos="18528" len="5"/>
          <note pan="0" key="18" vol="100" pos="18534" len="5"/>
          <note pan="0" key="30" vol="100" pos="18540" len="5"/>
          <note pan="0" key="42" vol="100" pos="18552" len="11"/>
          <note pan="0" key="30" vol="100" pos="18564" len="5"/>
          <note pan="0" key="30" vol="100" pos="18576" len="5"/>
          <note pan="0" key="18" vol="100" pos="18582" len="5"/>
          <note pan="0" key="30" vol="100" pos="18588" len="5"/>
          <note pan="0" key="42" vol="100" pos="18600" len="11"/>
          <note pan="0" key="30" vol="100" pos="18612" len="5"/>
          <note pan="0" key="32" vol="100" pos="18624" len="5"/>
          <note pan="0" key="20" vol="100" pos="18630" len="5"/>
          <note pan="0" key="32" vol="100" pos="18636" len="5"/>
          <note pan="0" key="44" vol="100" pos="18648" len="11"/>
          <note pan="0" key="32" vol="100" pos="18660" len="5"/>
          <note pan="0" key="32" vol="100" pos="18672" len="5"/>
          <note pan="0" key="20" vol="100" pos="18678" len="5"/>
          <note pan="0" key="32" vol="100" pos="18684" len="5"/>
          <note pan="0" key="44" vol="100" pos="18696" len="11"/>
          <note pan="0" key="32" vol="100" pos="18708" len="5"/>
          <note pan="0" key="32" vol="100" pos="18720" len="5"/>
          <note pan="0" key="20" vol="100" pos="18726" len="5"/>
          <note pan="0" key="32" vol="100" pos="18732" len="5"/>
          <note pan="0" key="44" vol="100" pos="18744" len="11"/>
          <note pan="0" key="32" vol="100" pos="18756" len="5"/>
          <note pan="0" key="32" vol="100" pos="18768" len="5"/>
          <note pan="0" key="20" vol="100" pos="18774" len="5"/>
          <note pan="0" key="32" vol="100" pos="18780" len="5"/>
          <note pan="0" key="44" vol="100" pos="18792" len="11"/>
          <note pan="0" key="32" vol="100" pos="18804" len="5"/>
          <note pan="0" key="34" vol="100" pos="18816" len="5"/>
          <note pan="0" key="22" vol="100" pos="18822" len="5"/>
          <note pan="0" key="34" vol="100" pos="18828" len="5"/>
          <note pan="0" key="46" vol="100" pos="18840" len="11"/>
          <note pan="0" key="34" vol="100" pos="18852" len="5"/>
          <note pan="0" key="34" vol="100" pos="18864" len="5"/>
          <note pan="0" key="22" vol="100" pos="18870" len="5"/>
          <note pan="0" key="34" vol="100" pos="18876" len="5"/>
          <note pan="0" key="46" vol="100" pos="18888" len="11"/>
          <note pan="0" key="34" vol="100" pos="18900" len="5"/>
          <note pan="0" key="34" vol="100" pos="18912" len="5"/>
          <note pan="0" key="22" vol="100" pos="18918" len="5"/>
          <note pan="0" key="34" vol="100" pos="18924" len="5"/>
          <note pan="0" key="46" vol="100" pos="18936" len="11"/>
          <note pan="0" key="34" vol="100" pos="18948" len="5"/>
          <note pan="0" key="34" vol="100" pos="18960" len="5"/>
          <note pan="0" key="22" vol="100" pos="18966" len="5"/>
          <note pan="0" key="34" vol="100" pos="18972" len="5"/>
          <note pan="0" key="46" vol="100" pos="18984" len="11"/>
          <note pan="0" key="34" vol="100" pos="18996" len="5"/>
          <note pan="0" key="34" vol="100" pos="19008" len="5"/>
          <note pan="0" key="22" vol="100" pos="19014" len="5"/>
          <note pan="0" key="34" vol="100" pos="19020" len="5"/>
          <note pan="0" key="46" vol="100" pos="19032" len="11"/>
          <note pan="0" key="34" vol="100" pos="19044" len="5"/>
          <note pan="0" key="34" vol="100" pos="19056" len="5"/>
          <note pan="0" key="22" vol="100" pos="19062" len="5"/>
          <note pan="0" key="34" vol="100" pos="19068" len="5"/>
          <note pan="0" key="46" vol="100" pos="19080" len="11"/>
          <note pan="0" key="34" vol="100" pos="19092" len="5"/>
          <note pan="0" key="29" vol="100" pos="19104" len="5"/>
          <note pan="0" key="17" vol="100" pos="19110" len="5"/>
          <note pan="0" key="29" vol="100" pos="19116" len="5"/>
          <note pan="0" key="41" vol="100" pos="19128" len="11"/>
          <note pan="0" key="29" vol="100" pos="19140" len="5"/>
          <note pan="0" key="29" vol="100" pos="19152" len="5"/>
          <note pan="0" key="17" vol="100" pos="19158" len="5"/>
          <note pan="0" key="29" vol="100" pos="19164" len="5"/>
          <note pan="0" key="41" vol="100" pos="19176" len="11"/>
          <note pan="0" key="29" vol="100" pos="19188" len="5"/>
          <note pan="0" key="30" vol="100" pos="19200" len="23"/>
          <note pan="0" key="42" vol="100" pos="19224" len="23"/>
          <note pan="0" key="37" vol="100" pos="19248" len="23"/>
          <note pan="0" key="42" vol="100" pos="19272" len="23"/>
          <note pan="0" key="30" vol="100" pos="19296" len="23"/>
          <note pan="0" key="42" vol="100" pos="19320" len="23"/>
          <note pan="0" key="37" vol="100" pos="19344" len="23"/>
          <note pan="0" key="42" vol="100" pos="19368" len="23"/>
          <note pan="0" key="32" vol="100" pos="19392" len="23"/>
          <note pan="0" key="44" vol="100" pos="19416" len="23"/>
          <note pan="0" key="39" vol="100" pos="19440" len="23"/>
          <note pan="0" key="44" vol="100" pos="19464" len="23"/>
          <note pan="0" key="29" vol="100" pos="19488" len="23"/>
          <note pan="0" key="41" vol="100" pos="19512" len="23"/>
          <note pan="0" key="36" vol="100" pos="19536" len="23"/>
          <note pan="0" key="41" vol="100" pos="19560" len="23"/>
          <note pan="0" key="34" vol="100" pos="19584" len="23"/>
          <note pan="0" key="46" vol="100" pos="19608" len="23"/>
          <note pan="0" key="41" vol="100" pos="19632" len="17"/>
          <note pan="0" key="46" vol="100" pos="19656" len="17"/>
          <note pan="0" key="34" vol="100" pos="19680" len="11"/>
          <note pan="0" key="46" vol="100" pos="19704" len="11"/>
          <note pan="0" key="41" vol="100" pos="19728" len="5"/>
          <note pan="0" key="41" vol="100" pos="19740" len="5"/>
          <note pan="0" key="46" vol="100" pos="19752" len="5"/>
          <note pan="0" key="46" vol="100" pos="19764" len="5"/>
          <note pan="0" key="34" vol="100" pos="19776" len="5"/>
          <note pan="0" key="34" vol="100" pos="19788" len="5"/>
          <note pan="0" key="46" vol="100" pos="19800" len="5"/>
          <note pan="0" key="46" vol="100" pos="19812" len="5"/>
          <note pan="0" key="41" vol="100" pos="19824" len="5"/>
          <note pan="0" key="41" vol="100" pos="19836" len="5"/>
          <note pan="0" key="46" vol="100" pos="19848" len="5"/>
          <note pan="0" key="46" vol="100" pos="19860" len="5"/>
          <note pan="0" key="34" vol="100" pos="19872" len="5"/>
          <note pan="0" key="34" vol="100" pos="19884" len="5"/>
          <note pan="0" key="46" vol="100" pos="19896" len="5"/>
          <note pan="0" key="46" vol="100" pos="19908" len="5"/>
          <note pan="0" key="41" vol="100" pos="19920" len="5"/>
          <note pan="0" key="41" vol="100" pos="19932" len="5"/>
          <note pan="0" key="46" vol="100" pos="19944" len="5"/>
          <note pan="0" key="46" vol="100" pos="19956" len="5"/>
          <note pan="0" key="47" vol="100" pos="19968" len="5"/>
          <note pan="0" key="38" vol="100" pos="19974" len="5"/>
          <note pan="0" key="31" vol="100" pos="19980" len="5"/>
          <note pan="0" key="47" vol="100" pos="19986" len="5"/>
          <note pan="0" key="38" vol="100" pos="19992" len="5"/>
          <note pan="0" key="31" vol="100" pos="19998" len="5"/>
          <note pan="0" key="47" vol="100" pos="20004" len="5"/>
          <note pan="0" key="38" vol="100" pos="20010" len="5"/>
          <note pan="0" key="31" vol="100" pos="20016" len="5"/>
          <note pan="0" key="47" vol="100" pos="20022" len="5"/>
          <note pan="0" key="38" vol="100" pos="20028" len="5"/>
          <note pan="0" key="31" vol="100" pos="20034" len="5"/>
          <note pan="0" key="47" vol="100" pos="20040" len="5"/>
          <note pan="0" key="38" vol="100" pos="20046" len="5"/>
          <note pan="0" key="31" vol="100" pos="20052" len="5"/>
          <note pan="0" key="47" vol="100" pos="20058" len="5"/>
          <note pan="0" key="38" vol="100" pos="20064" len="5"/>
          <note pan="0" key="31" vol="100" pos="20070" len="5"/>
          <note pan="0" key="47" vol="100" pos="20076" len="5"/>
          <note pan="0" key="38" vol="100" pos="20082" len="5"/>
          <note pan="0" key="31" vol="100" pos="20088" len="5"/>
          <note pan="0" key="47" vol="100" pos="20094" len="5"/>
          <note pan="0" key="38" vol="100" pos="20100" len="5"/>
          <note pan="0" key="31" vol="100" pos="20106" len="5"/>
          <note pan="0" key="47" vol="100" pos="20112" len="5"/>
          <note pan="0" key="38" vol="100" pos="20118" len="5"/>
          <note pan="0" key="31" vol="100" pos="20124" len="5"/>
          <note pan="0" key="47" vol="100" pos="20130" len="5"/>
          <note pan="0" key="38" vol="100" pos="20136" len="5"/>
          <note pan="0" key="31" vol="100" pos="20142" len="5"/>
          <note pan="0" key="47" vol="100" pos="20148" len="5"/>
          <note pan="0" key="38" vol="100" pos="20154" len="5"/>
          <note pan="0" key="49" vol="100" pos="20160" len="5"/>
          <note pan="0" key="40" vol="100" pos="20166" len="5"/>
          <note pan="0" key="33" vol="100" pos="20172" len="5"/>
          <note pan="0" key="49" vol="100" pos="20178" len="5"/>
          <note pan="0" key="40" vol="100" pos="20184" len="5"/>
          <note pan="0" key="33" vol="100" pos="20190" len="5"/>
          <note pan="0" key="49" vol="100" pos="20196" len="5"/>
          <note pan="0" key="40" vol="100" pos="20202" len="5"/>
          <note pan="0" key="33" vol="100" pos="20208" len="5"/>
          <note pan="0" key="49" vol="100" pos="20214" len="5"/>
          <note pan="0" key="40" vol="100" pos="20220" len="5"/>
          <note pan="0" key="33" vol="100" pos="20226" len="5"/>
          <note pan="0" key="49" vol="100" pos="20232" len="5"/>
          <note pan="0" key="40" vol="100" pos="20238" len="5"/>
          <note pan="0" key="33" vol="100" pos="20244" len="5"/>
          <note pan="0" key="49" vol="100" pos="20250" len="5"/>
          <note pan="0" key="40" vol="100" pos="20256" len="5"/>
          <note pan="0" key="33" vol="100" pos="20262" len="5"/>
          <note pan="0" key="49" vol="100" pos="20268" len="5"/>
          <note pan="0" key="40" vol="100" pos="20274" len="5"/>
          <note pan="0" key="33" vol="100" pos="20280" len="5"/>
          <note pan="0" key="49" vol="100" pos="20286" len="5"/>
          <note pan="0" key="40" vol="100" pos="20292" len="5"/>
          <note pan="0" key="33" vol="100" pos="20298" len="5"/>
          <note pan="0" key="49" vol="100" pos="20304" len="5"/>
          <note pan="0" key="40" vol="100" pos="20310" len="5"/>
          <note pan="0" key="33" vol="100" pos="20316" len="5"/>
          <note pan="0" key="49" vol="100" pos="20322" len="5"/>
          <note pan="0" key="40" vol="100" pos="20328" len="5"/>
          <note pan="0" key="33" vol="100" pos="20334" len="5"/>
          <note pan="0" key="49" vol="100" pos="20340" len="5"/>
          <note pan="0" key="40" vol="100" pos="20346" len="5"/>
          <note pan="0" key="50" vol="100" pos="20352" len="5"/>
          <note pan="0" key="42" vol="100" pos="20358" len="5"/>
          <note pan="0" key="35" vol="100" pos="20364" len="5"/>
          <note pan="0" key="50" vol="100" pos="20370" len="5"/>
          <note pan="0" key="42" vol="100" pos="20376" len="5"/>
          <note pan="0" key="35" vol="100" pos="20382" len="5"/>
          <note pan="0" key="50" vol="100" pos="20388" len="5"/>
          <note pan="0" key="42" vol="100" pos="20394" len="5"/>
          <note pan="0" key="35" vol="100" pos="20400" len="5"/>
          <note pan="0" key="50" vol="100" pos="20406" len="5"/>
          <note pan="0" key="42" vol="100" pos="20412" len="5"/>
          <note pan="0" key="35" vol="100" pos="20418" len="5"/>
          <note pan="0" key="50" vol="100" pos="20424" len="5"/>
          <note pan="0" key="42" vol="100" pos="20430" len="5"/>
          <note pan="0" key="35" vol="100" pos="20436" len="5"/>
          <note pan="0" key="50" vol="100" pos="20442" len="5"/>
          <note pan="0" key="42" vol="100" pos="20448" len="5"/>
          <note pan="0" key="35" vol="100" pos="20454" len="5"/>
          <note pan="0" key="50" vol="100" pos="20460" len="5"/>
          <note pan="0" key="42" vol="100" pos="20466" len="5"/>
          <note pan="0" key="35" vol="100" pos="20472" len="5"/>
          <note pan="0" key="50" vol="100" pos="20478" len="5"/>
          <note pan="0" key="42" vol="100" pos="20484" len="5"/>
          <note pan="0" key="35" vol="100" pos="20490" len="5"/>
          <note pan="0" key="50" vol="100" pos="20496" len="5"/>
          <note pan="0" key="42" vol="100" pos="20502" len="5"/>
          <note pan="0" key="35" vol="100" pos="20508" len="5"/>
          <note pan="0" key="50" vol="100" pos="20514" len="5"/>
          <note pan="0" key="42" vol="100" pos="20520" len="5"/>
          <note pan="0" key="35" vol="100" pos="20526" len="5"/>
          <note pan="0" key="50" vol="100" pos="20532" len="5"/>
          <note pan="0" key="42" vol="100" pos="20538" len="5"/>
          <note pan="0" key="45" vol="100" pos="20544" len="5"/>
          <note pan="0" key="37" vol="100" pos="20550" len="5"/>
          <note pan="0" key="54" vol="100" pos="20556" len="5"/>
          <note pan="0" key="45" vol="100" pos="20562" len="5"/>
          <note pan="0" key="37" vol="100" pos="20568" len="5"/>
          <note pan="0" key="54" vol="100" pos="20574" len="5"/>
          <note pan="0" key="45" vol="100" pos="20580" len="5"/>
          <note pan="0" key="37" vol="100" pos="20586" len="5"/>
          <note pan="0" key="54" vol="100" pos="20592" len="5"/>
          <note pan="0" key="45" vol="100" pos="20598" len="5"/>
          <note pan="0" key="37" vol="100" pos="20604" len="5"/>
          <note pan="0" key="54" vol="100" pos="20610" len="5"/>
          <note pan="0" key="45" vol="100" pos="20616" len="5"/>
          <note pan="0" key="37" vol="100" pos="20622" len="5"/>
          <note pan="0" key="54" vol="100" pos="20628" len="5"/>
          <note pan="0" key="45" vol="100" pos="20634" len="5"/>
          <note pan="0" key="37" vol="100" pos="20640" len="5"/>
          <note pan="0" key="54" vol="100" pos="20646" len="5"/>
          <note pan="0" key="45" vol="100" pos="20652" len="5"/>
          <note pan="0" key="37" vol="100" pos="20658" len="5"/>
          <note pan="0" key="54" vol="100" pos="20664" len="5"/>
          <note pan="0" key="45" vol="100" pos="20670" len="5"/>
          <note pan="0" key="37" vol="100" pos="20676" len="5"/>
          <note pan="0" key="54" vol="100" pos="20682" len="5"/>
          <note pan="0" key="45" vol="100" pos="20688" len="5"/>
          <note pan="0" key="37" vol="100" pos="20694" len="5"/>
          <note pan="0" key="54" vol="100" pos="20700" len="5"/>
          <note pan="0" key="45" vol="100" pos="20706" len="5"/>
          <note pan="0" key="37" vol="100" pos="20712" len="5"/>
          <note pan="0" key="54" vol="100" pos="20718" len="5"/>
          <note pan="0" key="45" vol="100" pos="20724" len="5"/>
          <note pan="0" key="37" vol="100" pos="20730" len="5"/>
          <note pan="0" key="55" vol="100" pos="20736" len="5"/>
          <note pan="0" key="47" vol="100" pos="20742" len="5"/>
          <note pan="0" key="38" vol="100" pos="20748" len="5"/>
          <note pan="0" key="55" vol="100" pos="20754" len="5"/>
          <note pan="0" key="47" vol="100" pos="20760" len="5"/>
          <note pan="0" key="38" vol="100" pos="20766" len="5"/>
          <note pan="0" key="55" vol="100" pos="20772" len="5"/>
          <note pan="0" key="47" vol="100" pos="20778" len="5"/>
          <note pan="0" key="38" vol="100" pos="20784" len="5"/>
          <note pan="0" key="55" vol="100" pos="20790" len="5"/>
          <note pan="0" key="47" vol="100" pos="20796" len="5"/>
          <note pan="0" key="38" vol="100" pos="20802" len="5"/>
          <note pan="0" key="55" vol="100" pos="20808" len="5"/>
          <note pan="0" key="47" vol="100" pos="20814" len="5"/>
          <note pan="0" key="38" vol="100" pos="20820" len="5"/>
          <note pan="0" key="55" vol="100" pos="20826" len="5"/>
          <note pan="0" key="47" vol="100" pos="20832" len="5"/>
          <note pan="0" key="38" vol="100" pos="20838" len="5"/>
          <note pan="0" key="55" vol="100" pos="20844" len="5"/>
          <note pan="0" key="47" vol="100" pos="20850" len="5"/>
          <note pan="0" key="38" vol="100" pos="20856" len="5"/>
          <note pan="0" key="55" vol="100" pos="20862" len="5"/>
          <note pan="0" key="47" vol="100" pos="20868" len="5"/>
          <note pan="0" key="38" vol="100" pos="20874" len="5"/>
          <note pan="0" key="55" vol="100" pos="20880" len="5"/>
          <note pan="0" key="47" vol="100" pos="20886" len="5"/>
          <note pan="0" key="38" vol="100" pos="20892" len="5"/>
          <note pan="0" key="55" vol="100" pos="20898" len="5"/>
          <note pan="0" key="47" vol="100" pos="20904" len="5"/>
          <note pan="0" key="38" vol="100" pos="20910" len="5"/>
          <note pan="0" key="55" vol="100" pos="20916" len="5"/>
          <note pan="0" key="47" vol="100" pos="20922" len="5"/>
          <note pan="0" key="57" vol="100" pos="20928" len="5"/>
          <note pan="0" key="49" vol="100" pos="20934" len="5"/>
          <note pan="0" key="40" vol="100" pos="20940" len="5"/>
          <note pan="0" key="57" vol="100" pos="20946" len="5"/>
          <note pan="0" key="49" vol="100" pos="20952" len="5"/>
          <note pan="0" key="40" vol="100" pos="20958" len="5"/>
          <note pan="0" key="57" vol="100" pos="20964" len="5"/>
          <note pan="0" key="49" vol="100" pos="20970" len="5"/>
          <note pan="0" key="40" vol="100" pos="20976" len="5"/>
          <note pan="0" key="57" vol="100" pos="20982" len="5"/>
          <note pan="0" key="49" vol="100" pos="20988" len="5"/>
          <note pan="0" key="40" vol="100" pos="20994" len="5"/>
          <note pan="0" key="57" vol="100" pos="21000" len="5"/>
          <note pan="0" key="49" vol="100" pos="21006" len="5"/>
          <note pan="0" key="40" vol="100" pos="21012" len="5"/>
          <note pan="0" key="57" vol="100" pos="21018" len="5"/>
          <note pan="0" key="49" vol="100" pos="21024" len="5"/>
          <note pan="0" key="40" vol="100" pos="21030" len="5"/>
          <note pan="0" key="57" vol="100" pos="21036" len="5"/>
          <note pan="0" key="49" vol="100" pos="21042" len="5"/>
          <note pan="0" key="40" vol="100" pos="21048" len="5"/>
          <note pan="0" key="57" vol="100" pos="21054" len="5"/>
          <note pan="0" key="49" vol="100" pos="21060" len="5"/>
          <note pan="0" key="40" vol="100" pos="21066" len="5"/>
          <note pan="0" key="57" vol="100" pos="21072" len="5"/>
          <note pan="0" key="49" vol="100" pos="21078" len="5"/>
          <note pan="0" key="40" vol="100" pos="21084" len="5"/>
          <note pan="0" key="57" vol="100" pos="21090" len="5"/>
          <note pan="0" key="49" vol="100" pos="21096" len="5"/>
          <note pan="0" key="40" vol="100" pos="21102" len="5"/>
          <note pan="0" key="57" vol="100" pos="21108" len="5"/>
          <note pan="0" key="49" vol="100" pos="21114" len="5"/>
          <note pan="0" key="59" vol="100" pos="21120" len="5"/>
          <note pan="0" key="50" vol="100" pos="21126" len="5"/>
          <note pan="0" key="42" vol="100" pos="21132" len="5"/>
          <note pan="0" key="59" vol="100" pos="21138" len="5"/>
          <note pan="0" key="50" vol="100" pos="21144" len="5"/>
          <note pan="0" key="42" vol="100" pos="21150" len="5"/>
          <note pan="0" key="59" vol="100" pos="21156" len="5"/>
          <note pan="0" key="50" vol="100" pos="21162" len="5"/>
          <note pan="0" key="42" vol="100" pos="21168" len="5"/>
          <note pan="0" key="59" vol="100" pos="21174" len="5"/>
          <note pan="0" key="50" vol="100" pos="21180" len="5"/>
          <note pan="0" key="42" vol="100" pos="21186" len="5"/>
          <note pan="0" key="59" vol="100" pos="21192" len="5"/>
          <note pan="0" key="50" vol="100" pos="21198" len="5"/>
          <note pan="0" key="42" vol="100" pos="21204" len="5"/>
          <note pan="0" key="59" vol="100" pos="21210" len="5"/>
          <note pan="0" key="50" vol="100" pos="21216" len="5"/>
          <note pan="0" key="42" vol="100" pos="21222" len="5"/>
          <note pan="0" key="59" vol="100" pos="21228" len="5"/>
          <note pan="0" key="50" vol="100" pos="21234" len="5"/>
          <note pan="0" key="42" vol="100" pos="21240" len="5"/>
          <note pan="0" key="59" vol="100" pos="21246" len="5"/>
          <note pan="0" key="50" vol="100" pos="21252" len="5"/>
          <note pan="0" key="42" vol="100" pos="21258" len="5"/>
          <note pan="0" key="59" vol="100" pos="21264" len="5"/>
          <note pan="0" key="50" vol="100" pos="21270" len="5"/>
          <note pan="0" key="42" vol="100" pos="21276" len="5"/>
          <note pan="0" key="59" vol="100" pos="21282" len="5"/>
          <note pan="0" key="50" vol="100" pos="21288" len="5"/>
          <note pan="0" key="42" vol="100" pos="21294" len="5"/>
          <note pan="0" key="59" vol="100" pos="21300" len="5"/>
          <note pan="0" key="50" vol="100" pos="21306" len="5"/>
          <note pan="0" key="61" vol="100" pos="21312" len="5"/>
          <note pan="0" key="54" vol="100" pos="21318" len="5"/>
          <note pan="0" key="45" vol="100" pos="21324" len="5"/>
          <note pan="0" key="61" vol="100" pos="21330" len="5"/>
          <note pan="0" key="54" vol="100" pos="21336" len="5"/>
          <note pan="0" key="45" vol="100" pos="21342" len="5"/>
          <note pan="0" key="61" vol="100" pos="21348" len="5"/>
          <note pan="0" key="54" vol="100" pos="21354" len="5"/>
          <note pan="0" key="45" vol="100" pos="21360" len="5"/>
          <note pan="0" key="61" vol="100" pos="21366" len="5"/>
          <note pan="0" key="54" vol="100" pos="21372" len="5"/>
          <note pan="0" key="45" vol="100" pos="21378" len="5"/>
          <note pan="0" key="61" vol="100" pos="21384" len="5"/>
          <note pan="0" key="54" vol="100" pos="21390" len="5"/>
          <note pan="0" key="45" vol="100" pos="21396" len="5"/>
          <note pan="0" key="61" vol="100" pos="21402" len="5"/>
          <note pan="0" key="57" vol="100" pos="21408" len="5"/>
          <note pan="0" key="49" vol="100" pos="21414" len="5"/>
          <note pan="0" key="40" vol="100" pos="21420" len="5"/>
          <note pan="0" key="57" vol="100" pos="21426" len="5"/>
          <note pan="0" key="49" vol="100" pos="21432" len="5"/>
          <note pan="0" key="40" vol="100" pos="21438" len="5"/>
          <note pan="0" key="57" vol="100" pos="21444" len="5"/>
          <note pan="0" key="49" vol="100" pos="21450" len="5"/>
          <note pan="0" key="40" vol="100" pos="21456" len="5"/>
          <note pan="0" key="57" vol="100" pos="21462" len="5"/>
          <note pan="0" key="49" vol="100" pos="21468" len="5"/>
          <note pan="0" key="40" vol="100" pos="21474" len="5"/>
          <note pan="0" key="57" vol="100" pos="21480" len="5"/>
          <note pan="0" key="49" vol="100" pos="21486" len="5"/>
          <note pan="0" key="40" vol="100" pos="21492" len="5"/>
          <note pan="0" key="57" vol="100" pos="21498" len="5"/>
          <note pan="0" key="47" vol="100" pos="21504" len="5"/>
          <note pan="0" key="38" vol="100" pos="21510" len="5"/>
          <note pan="0" key="31" vol="100" pos="21516" len="5"/>
          <note pan="0" key="47" vol="100" pos="21522" len="5"/>
          <note pan="0" key="38" vol="100" pos="21528" len="5"/>
          <note pan="0" key="31" vol="100" pos="21534" len="5"/>
          <note pan="0" key="47" vol="100" pos="21540" len="5"/>
          <note pan="0" key="38" vol="100" pos="21546" len="5"/>
          <note pan="0" key="31" vol="100" pos="21552" len="5"/>
          <note pan="0" key="47" vol="100" pos="21558" len="5"/>
          <note pan="0" key="38" vol="100" pos="21564" len="5"/>
          <note pan="0" key="31" vol="100" pos="21570" len="5"/>
          <note pan="0" key="47" vol="100" pos="21576" len="5"/>
          <note pan="0" key="38" vol="100" pos="21582" len="5"/>
          <note pan="0" key="31" vol="100" pos="21588" len="5"/>
          <note pan="0" key="47" vol="100" pos="21594" len="5"/>
          <note pan="0" key="38" vol="100" pos="21600" len="5"/>
          <note pan="0" key="31" vol="100" pos="21606" len="5"/>
          <note pan="0" key="47" vol="100" pos="21612" len="5"/>
          <note pan="0" key="38" vol="100" pos="21618" len="5"/>
          <note pan="0" key="31" vol="100" pos="21624" len="5"/>
          <note pan="0" key="47" vol="100" pos="21630" len="5"/>
          <note pan="0" key="38" vol="100" pos="21636" len="5"/>
          <note pan="0" key="31" vol="100" pos="21642" len="5"/>
          <note pan="0" key="47" vol="100" pos="21648" len="5"/>
          <note pan="0" key="38" vol="100" pos="21654" len="5"/>
          <note pan="0" key="31" vol="100" pos="21660" len="5"/>
          <note pan="0" key="47" vol="100" pos="21666" len="5"/>
          <note pan="0" key="38" vol="100" pos="21672" len="5"/>
          <note pan="0" key="31" vol="100" pos="21678" len="5"/>
          <note pan="0" key="47" vol="100" pos="21684" len="5"/>
          <note pan="0" key="38" vol="100" pos="21690" len="5"/>
          <note pan="0" key="49" vol="100" pos="21696" len="5"/>
          <note pan="0" key="40" vol="100" pos="21702" len="5"/>
          <note pan="0" key="33" vol="100" pos="21708" len="5"/>
          <note pan="0" key="49" vol="100" pos="21714" len="5"/>
          <note pan="0" key="40" vol="100" pos="21720" len="5"/>
          <note pan="0" key="33" vol="100" pos="21726" len="5"/>
          <note pan="0" key="49" vol="100" pos="21732" len="5"/>
          <note pan="0" key="40" vol="100" pos="21738" len="5"/>
          <note pan="0" key="33" vol="100" pos="21744" len="5"/>
          <note pan="0" key="49" vol="100" pos="21750" len="5"/>
          <note pan="0" key="40" vol="100" pos="21756" len="5"/>
          <note pan="0" key="33" vol="100" pos="21762" len="5"/>
          <note pan="0" key="49" vol="100" pos="21768" len="5"/>
          <note pan="0" key="40" vol="100" pos="21774" len="5"/>
          <note pan="0" key="33" vol="100" pos="21780" len="5"/>
          <note pan="0" key="49" vol="100" pos="21786" len="5"/>
          <note pan="0" key="40" vol="100" pos="21792" len="5"/>
          <note pan="0" key="33" vol="100" pos="21798" len="5"/>
          <note pan="0" key="49" vol="100" pos="21804" len="5"/>
          <note pan="0" key="40" vol="100" pos="21810" len="5"/>
          <note pan="0" key="33" vol="100" pos="21816" len="5"/>
          <note pan="0" key="49" vol="100" pos="21822" len="5"/>
          <note pan="0" key="40" vol="100" pos="21828" len="5"/>
          <note pan="0" key="33" vol="100" pos="21834" len="5"/>
          <note pan="0" key="49" vol="100" pos="21840" len="5"/>
          <note pan="0" key="40" vol="100" pos="21846" len="5"/>
          <note pan="0" key="33" vol="100" pos="21852" len="5"/>
          <note pan="0" key="49" vol="100" pos="21858" len="5"/>
          <note pan="0" key="40" vol="100" pos="21864" len="5"/>
          <note pan="0" key="33" vol="100" pos="21870" len="5"/>
          <note pan="0" key="49" vol="100" pos="21876" len="5"/>
          <note pan="0" key="40" vol="100" pos="21882" len="5"/>
          <note pan="0" key="50" vol="100" pos="21888" len="5"/>
          <note pan="0" key="42" vol="100" pos="21894" len="5"/>
          <note pan="0" key="35" vol="100" pos="21900" len="5"/>
          <note pan="0" key="50" vol="100" pos="21906" len="5"/>
          <note pan="0" key="42" vol="100" pos="21912" len="5"/>
          <note pan="0" key="35" vol="100" pos="21918" len="5"/>
          <note pan="0" key="50" vol="100" pos="21924" len="5"/>
          <note pan="0" key="42" vol="100" pos="21930" len="5"/>
          <note pan="0" key="35" vol="100" pos="21936" len="5"/>
          <note pan="0" key="50" vol="100" pos="21942" len="5"/>
          <note pan="0" key="42" vol="100" pos="21948" len="5"/>
          <note pan="0" key="35" vol="100" pos="21954" len="5"/>
          <note pan="0" key="50" vol="100" pos="21960" len="5"/>
          <note pan="0" key="42" vol="100" pos="21966" len="5"/>
          <note pan="0" key="35" vol="100" pos="21972" len="5"/>
          <note pan="0" key="50" vol="100" pos="21978" len="5"/>
          <note pan="0" key="42" vol="100" pos="21984" len="5"/>
          <note pan="0" key="35" vol="100" pos="21990" len="5"/>
          <note pan="0" key="50" vol="100" pos="21996" len="5"/>
          <note pan="0" key="42" vol="100" pos="22002" len="5"/>
          <note pan="0" key="35" vol="100" pos="22008" len="5"/>
          <note pan="0" key="50" vol="100" pos="22014" len="5"/>
          <note pan="0" key="42" vol="100" pos="22020" len="5"/>
          <note pan="0" key="35" vol="100" pos="22026" len="5"/>
          <note pan="0" key="50" vol="100" pos="22032" len="5"/>
          <note pan="0" key="42" vol="100" pos="22038" len="5"/>
          <note pan="0" key="35" vol="100" pos="22044" len="5"/>
          <note pan="0" key="50" vol="100" pos="22050" len="5"/>
          <note pan="0" key="42" vol="100" pos="22056" len="5"/>
          <note pan="0" key="35" vol="100" pos="22062" len="5"/>
          <note pan="0" key="50" vol="100" pos="22068" len="5"/>
          <note pan="0" key="42" vol="100" pos="22074" len="5"/>
          <note pan="0" key="45" vol="100" pos="22080" len="5"/>
          <note pan="0" key="37" vol="100" pos="22086" len="5"/>
          <note pan="0" key="54" vol="100" pos="22092" len="5"/>
          <note pan="0" key="45" vol="100" pos="22098" len="5"/>
          <note pan="0" key="37" vol="100" pos="22104" len="5"/>
          <note pan="0" key="54" vol="100" pos="22110" len="5"/>
          <note pan="0" key="45" vol="100" pos="22116" len="5"/>
          <note pan="0" key="37" vol="100" pos="22122" len="5"/>
          <note pan="0" key="54" vol="100" pos="22128" len="5"/>
          <note pan="0" key="45" vol="100" pos="22134" len="5"/>
          <note pan="0" key="37" vol="100" pos="22140" len="5"/>
          <note pan="0" key="54" vol="100" pos="22146" len="5"/>
          <note pan="0" key="45" vol="100" pos="22152" len="5"/>
          <note pan="0" key="37" vol="100" pos="22158" len="5"/>
          <note pan="0" key="54" vol="100" pos="22164" len="5"/>
          <note pan="0" key="45" vol="100" pos="22170" len="5"/>
          <note pan="0" key="37" vol="100" pos="22176" len="5"/>
          <note pan="0" key="54" vol="100" pos="22182" len="5"/>
          <note pan="0" key="45" vol="100" pos="22188" len="5"/>
          <note pan="0" key="37" vol="100" pos="22194" len="5"/>
          <note pan="0" key="54" vol="100" pos="22200" len="5"/>
          <note pan="0" key="45" vol="100" pos="22206" len="5"/>
          <note pan="0" key="37" vol="100" pos="22212" len="5"/>
          <note pan="0" key="54" vol="100" pos="22218" len="5"/>
          <note pan="0" key="45" vol="100" pos="22224" len="5"/>
          <note pan="0" key="37" vol="100" pos="22230" len="5"/>
          <note pan="0" key="54" vol="100" pos="22236" len="5"/>
          <note pan="0" key="45" vol="100" pos="22242" len="5"/>
          <note pan="0" key="37" vol="100" pos="22248" len="5"/>
          <note pan="0" key="54" vol="100" pos="22254" len="5"/>
          <note pan="0" key="45" vol="100" pos="22260" len="5"/>
          <note pan="0" key="37" vol="100" pos="22266" len="5"/>
          <note pan="0" key="55" vol="100" pos="22272" len="5"/>
          <note pan="0" key="47" vol="100" pos="22278" len="5"/>
          <note pan="0" key="38" vol="100" pos="22284" len="5"/>
          <note pan="0" key="55" vol="100" pos="22290" len="5"/>
          <note pan="0" key="47" vol="100" pos="22296" len="5"/>
          <note pan="0" key="38" vol="100" pos="22302" len="5"/>
          <note pan="0" key="55" vol="100" pos="22308" len="5"/>
          <note pan="0" key="47" vol="100" pos="22314" len="5"/>
          <note pan="0" key="38" vol="100" pos="22320" len="5"/>
          <note pan="0" key="55" vol="100" pos="22326" len="5"/>
          <note pan="0" key="47" vol="100" pos="22332" len="5"/>
          <note pan="0" key="38" vol="100" pos="22338" len="5"/>
          <note pan="0" key="55" vol="100" pos="22344" len="5"/>
          <note pan="0" key="47" vol="100" pos="22350" len="5"/>
          <note pan="0" key="38" vol="100" pos="22356" len="5"/>
          <note pan="0" key="55" vol="100" pos="22362" len="5"/>
          <note pan="0" key="47" vol="100" pos="22368" len="5"/>
          <note pan="0" key="38" vol="100" pos="22374" len="5"/>
          <note pan="0" key="55" vol="100" pos="22380" len="5"/>
          <note pan="0" key="47" vol="100" pos="22386" len="5"/>
          <note pan="0" key="38" vol="100" pos="22392" len="5"/>
          <note pan="0" key="55" vol="100" pos="22398" len="5"/>
          <note pan="0" key="47" vol="100" pos="22404" len="5"/>
          <note pan="0" key="38" vol="100" pos="22410" len="5"/>
          <note pan="0" key="55" vol="100" pos="22416" len="5"/>
          <note pan="0" key="47" vol="100" pos="22422" len="5"/>
          <note pan="0" key="38" vol="100" pos="22428" len="5"/>
          <note pan="0" key="55" vol="100" pos="22434" len="5"/>
          <note pan="0" key="47" vol="100" pos="22440" len="5"/>
          <note pan="0" key="38" vol="100" pos="22446" len="5"/>
          <note pan="0" key="55" vol="100" pos="22452" len="5"/>
          <note pan="0" key="47" vol="100" pos="22458" len="5"/>
          <note pan="0" key="57" vol="100" pos="22464" len="5"/>
          <note pan="0" key="49" vol="100" pos="22470" len="5"/>
          <note pan="0" key="40" vol="100" pos="22476" len="5"/>
          <note pan="0" key="57" vol="100" pos="22482" len="5"/>
          <note pan="0" key="49" vol="100" pos="22488" len="5"/>
          <note pan="0" key="40" vol="100" pos="22494" len="5"/>
          <note pan="0" key="57" vol="100" pos="22500" len="5"/>
          <note pan="0" key="49" vol="100" pos="22506" len="5"/>
          <note pan="0" key="40" vol="100" pos="22512" len="5"/>
          <note pan="0" key="57" vol="100" pos="22518" len="5"/>
          <note pan="0" key="49" vol="100" pos="22524" len="5"/>
          <note pan="0" key="40" vol="100" pos="22530" len="5"/>
          <note pan="0" key="57" vol="100" pos="22536" len="5"/>
          <note pan="0" key="49" vol="100" pos="22542" len="5"/>
          <note pan="0" key="40" vol="100" pos="22548" len="5"/>
          <note pan="0" key="57" vol="100" pos="22554" len="5"/>
          <note pan="0" key="49" vol="100" pos="22560" len="5"/>
          <note pan="0" key="40" vol="100" pos="22566" len="5"/>
          <note pan="0" key="57" vol="100" pos="22572" len="5"/>
          <note pan="0" key="49" vol="100" pos="22578" len="5"/>
          <note pan="0" key="40" vol="100" pos="22584" len="5"/>
          <note pan="0" key="57" vol="100" pos="22590" len="5"/>
          <note pan="0" key="49" vol="100" pos="22596" len="5"/>
          <note pan="0" key="40" vol="100" pos="22602" len="5"/>
          <note pan="0" key="57" vol="100" pos="22608" len="5"/>
          <note pan="0" key="49" vol="100" pos="22614" len="5"/>
          <note pan="0" key="40" vol="100" pos="22620" len="5"/>
          <note pan="0" key="57" vol="100" pos="22626" len="5"/>
          <note pan="0" key="49" vol="100" pos="22632" len="5"/>
          <note pan="0" key="40" vol="100" pos="22638" len="5"/>
          <note pan="0" key="57" vol="100" pos="22644" len="5"/>
          <note pan="0" key="49" vol="100" pos="22650" len="5"/>
          <note pan="0" key="59" vol="100" pos="22656" len="5"/>
          <note pan="0" key="50" vol="100" pos="22662" len="5"/>
          <note pan="0" key="42" vol="100" pos="22668" len="5"/>
          <note pan="0" key="59" vol="100" pos="22674" len="5"/>
          <note pan="0" key="50" vol="100" pos="22680" len="5"/>
          <note pan="0" key="42" vol="100" pos="22686" len="5"/>
          <note pan="0" key="59" vol="100" pos="22692" len="5"/>
          <note pan="0" key="50" vol="100" pos="22698" len="5"/>
          <note pan="0" key="42" vol="100" pos="22704" len="5"/>
          <note pan="0" key="59" vol="100" pos="22710" len="5"/>
          <note pan="0" key="50" vol="100" pos="22716" len="5"/>
          <note pan="0" key="42" vol="100" pos="22722" len="5"/>
          <note pan="0" key="59" vol="100" pos="22728" len="5"/>
          <note pan="0" key="50" vol="100" pos="22734" len="5"/>
          <note pan="0" key="42" vol="100" pos="22740" len="5"/>
          <note pan="0" key="59" vol="100" pos="22746" len="5"/>
          <note pan="0" key="50" vol="100" pos="22752" len="5"/>
          <note pan="0" key="42" vol="100" pos="22758" len="5"/>
          <note pan="0" key="59" vol="100" pos="22764" len="5"/>
          <note pan="0" key="50" vol="100" pos="22770" len="5"/>
          <note pan="0" key="42" vol="100" pos="22776" len="5"/>
          <note pan="0" key="59" vol="100" pos="22782" len="5"/>
          <note pan="0" key="50" vol="100" pos="22788" len="5"/>
          <note pan="0" key="42" vol="100" pos="22794" len="5"/>
          <note pan="0" key="59" vol="100" pos="22800" len="5"/>
          <note pan="0" key="50" vol="100" pos="22806" len="5"/>
          <note pan="0" key="42" vol="100" pos="22812" len="5"/>
          <note pan="0" key="59" vol="100" pos="22818" len="5"/>
          <note pan="0" key="50" vol="100" pos="22824" len="5"/>
          <note pan="0" key="42" vol="100" pos="22830" len="5"/>
          <note pan="0" key="59" vol="100" pos="22836" len="5"/>
          <note pan="0" key="50" vol="100" pos="22842" len="5"/>
          <note pan="0" key="47" vol="100" pos="22848" len="29"/>
          <note pan="0" key="42" vol="100" pos="22878" len="5"/>
          <note pan="0" key="38" vol="100" pos="22884" len="5"/>
          <note pan="0" key="30" vol="100" pos="22890" len="5"/>
          <note pan="0" key="35" vol="100" pos="22896" len="29"/>
          <note pan="0" key="30" vol="100" pos="22926" len="5"/>
          <note pan="0" key="26" vol="100" pos="22932" len="5"/>
          <note pan="0" key="23" vol="100" pos="22938" len="5"/>
          <note pan="0" key="35" vol="100" pos="22944" len="5"/>
          <note pan="0" key="23" vol="100" pos="22950" len="65"/>
          <note pan="0" key="35" vol="100" pos="23016" len="5"/>
          <note pan="0" key="23" vol="100" pos="23022" len="5"/>
          <note pan="0" key="35" vol="100" pos="23040" len="5"/>
          <note pan="0" key="23" vol="100" pos="23046" len="5"/>
          <note pan="0" key="33" vol="100" pos="23076" len="5"/>
          <note pan="0" key="35" vol="100" pos="23082" len="5"/>
          <note pan="0" key="33" vol="100" pos="23112" len="5"/>
          <note pan="0" key="35" vol="100" pos="23118" len="5"/>
          <note pan="0" key="33" vol="100" pos="23136" len="5"/>
          <note pan="0" key="35" vol="100" pos="23142" len="5"/>
          <note pan="0" key="33" vol="100" pos="23172" len="5"/>
          <note pan="0" key="35" vol="100" pos="23178" len="5"/>
          <note pan="0" key="33" vol="100" pos="23208" len="5"/>
          <note pan="0" key="35" vol="100" pos="23214" len="5"/>
          <note pan="0" key="33" vol="100" pos="23232" len="5"/>
          <note pan="0" key="35" vol="100" pos="23238" len="5"/>
          <note pan="0" key="33" vol="100" pos="23268" len="5"/>
          <note pan="0" key="35" vol="100" pos="23274" len="5"/>
          <note pan="0" key="33" vol="100" pos="23304" len="5"/>
          <note pan="0" key="35" vol="100" pos="23310" len="5"/>
          <note pan="0" key="33" vol="100" pos="23328" len="5"/>
          <note pan="0" key="35" vol="100" pos="23334" len="5"/>
          <note pan="0" key="33" vol="100" pos="23364" len="5"/>
          <note pan="0" key="35" vol="100" pos="23370" len="5"/>
          <note pan="0" key="33" vol="100" pos="23400" len="5"/>
          <note pan="0" key="35" vol="100" pos="23406" len="5"/>
          <note pan="0" key="33" vol="100" pos="23424" len="5"/>
          <note pan="0" key="35" vol="100" pos="23430" len="5"/>
          <note pan="0" key="33" vol="100" pos="23460" len="5"/>
          <note pan="0" key="35" vol="100" pos="23466" len="5"/>
          <note pan="0" key="33" vol="100" pos="23496" len="5"/>
          <note pan="0" key="35" vol="100" pos="23502" len="5"/>
          <note pan="0" key="33" vol="100" pos="23520" len="5"/>
          <note pan="0" key="35" vol="100" pos="23526" len="5"/>
          <note pan="0" key="33" vol="100" pos="23556" len="5"/>
          <note pan="0" key="35" vol="100" pos="23562" len="5"/>
          <note pan="0" key="33" vol="100" pos="23592" len="5"/>
          <note pan="0" key="35" vol="100" pos="23598" len="5"/>
          <note pan="0" key="33" vol="100" pos="23616" len="5"/>
          <note pan="0" key="35" vol="100" pos="23622" len="5"/>
          <note pan="0" key="33" vol="100" pos="23652" len="5"/>
          <note pan="0" key="35" vol="100" pos="23658" len="5"/>
          <note pan="0" key="33" vol="100" pos="23688" len="5"/>
          <note pan="0" key="35" vol="100" pos="23694" len="5"/>
          <note pan="0" key="33" vol="100" pos="23712" len="5"/>
          <note pan="0" key="35" vol="100" pos="23718" len="5"/>
          <note pan="0" key="33" vol="100" pos="23748" len="5"/>
          <note pan="0" key="35" vol="100" pos="23754" len="5"/>
          <note pan="0" key="33" vol="100" pos="23784" len="5"/>
          <note pan="0" key="35" vol="100" pos="23790" len="5"/>
        </pattern>
      </track>
      <track muted="1" type="0" name="">
        <instrumenttrack pan="0" fxch="0" pitch="0" basenote="57" vol="100">
          <instrument name="sf2player">
            <sf2player patch="118" chorusLevel="2" chorusDepth="8" reverbOn="0" reverbRoomSize="0.2" chorusOn="0" chorusSpeed="0.3" reverbDamping="0" chorusNum="3" reverbLevel="0.9" bank="0" reverbWidth="0.5" src="" gain="1"/>
          </instrument>
          <eldata fres="0.5" ftype="0" fcut="14000" fwet="0">
            <elvol lspd_denominator="4" pdel="0" userwavefile="" dec="0.5" lamt="0" syncmode="0" latt="0" rel="0.1" sus="0.5" amt="0" x100="0" att="0" lpdel="0" hold="0.5" lshp="0" lspd="0.1" ctlenvamt="0" lspd_numerator="4"/>
            <elcut lspd_denominator="4" pdel="0" userwavefile="" dec="0.5" lamt="0" syncmode="0" latt="0" rel="0.1" sus="0.5" amt="0" x100="0" att="0" lpdel="0" hold="0.5" lshp="0" lspd="0.1" ctlenvamt="0" lspd_numerator="4"/>
            <elres lspd_denominator="4" pdel="0" userwavefile="" dec="0.5" lamt="0" syncmode="0" latt="0" rel="0.1" sus="0.5" amt="0" x100="0" att="0" lpdel="0" hold="0.5" lshp="0" lspd="0.1" ctlenvamt="0" lspd_numerator="4"/>
          </eldata>
          <chordcreator chord="0" chordrange="1" chord-enabled="0"/>
          <arpeggiator arptime="100" arprange="1" arptime_denominator="4" syncmode="0" arpmode="0" arp-enabled="0" arp="0" arptime_numerator="4" arpdir="0" arpgate="100"/>
          <midiport inputcontroller="0" fixedoutputvelocity="-1" inputchannel="0" outputcontroller="0" writable="0" outputchannel="1" fixedinputvelocity="-1" fixedoutputnote="-1" outputprogram="1" readable="0"/>
          <fxchain numofeffects="0" enabled="0"/>
        </instrumenttrack>
        <pattern steps="16" muted="0" type="1" name="" pos="0" len="23040" frozen="0">
          <note pan="0" key="48" vol="100" pos="24" len="5"/>
          <note pan="0" key="48" vol="100" pos="72" len="5"/>
          <note pan="0" key="48" vol="100" pos="120" len="5"/>
          <note pan="0" key="48" vol="100" pos="168" len="5"/>
          <note pan="0" key="48" vol="100" pos="216" len="5"/>
          <note pan="0" key="48" vol="100" pos="264" len="5"/>
          <note pan="0" key="48" vol="100" pos="312" len="5"/>
          <note pan="0" key="48" vol="100" pos="360" len="5"/>
          <note pan="0" key="48" vol="100" pos="408" len="5"/>
          <note pan="0" key="48" vol="100" pos="456" len="5"/>
          <note pan="0" key="48" vol="100" pos="504" len="5"/>
          <note pan="0" key="48" vol="100" pos="552" len="5"/>
          <note pan="0" key="48" vol="100" pos="600" len="5"/>
          <note pan="0" key="48" vol="100" pos="648" len="5"/>
          <note pan="0" key="48" vol="100" pos="696" len="5"/>
          <note pan="0" key="48" vol="100" pos="744" len="5"/>
          <note pan="0" key="48" vol="100" pos="792" len="5"/>
          <note pan="0" key="48" vol="100" pos="840" len="5"/>
          <note pan="0" key="48" vol="100" pos="888" len="5"/>
          <note pan="0" key="48" vol="100" pos="936" len="5"/>
          <note pan="0" key="48" vol="100" pos="984" len="5"/>
          <note pan="0" key="48" vol="100" pos="1032" len="5"/>
          <note pan="0" key="48" vol="100" pos="1080" len="5"/>
          <note pan="0" key="48" vol="100" pos="1128" len="5"/>
          <note pan="0" key="48" vol="100" pos="1176" len="5"/>
          <note pan="0" key="48" vol="100" pos="1224" len="5"/>
          <note pan="0" key="48" vol="100" pos="1272" len="5"/>
          <note pan="0" key="48" vol="100" pos="1320" len="5"/>
          <note pan="0" key="48" vol="100" pos="1368" len="5"/>
          <note pan="0" key="48" vol="100" pos="1416" len="5"/>
          <note pan="0" key="48" vol="100" pos="1488" len="23"/>
          <note pan="0" key="48" vol="100" pos="1536" len="5"/>
          <note pan="0" key="48" vol="100" pos="1560" len="5"/>
          <note pan="0" key="48" vol="100" pos="1608" len="5"/>
          <note pan="0" key="48" vol="100" pos="1656" len="5"/>
          <note pan="0" key="48" vol="100" pos="1704" len="5"/>
          <note pan="0" key="48" vol="100" pos="1716" len="5"/>
          <note pan="0" key="48" vol="100" pos="1728" len="5"/>
          <note pan="0" key="48" vol="100" pos="1752" len="5"/>
          <note pan="0" key="48" vol="100" pos="1800" len="5"/>
          <note pan="0" key="48" vol="100" pos="1848" len="5"/>
          <note pan="0" key="48" vol="100" pos="1896" len="17"/>
          <note pan="0" key="48" vol="100" pos="1920" len="11"/>
          <note pan="0" key="48" vol="100" pos="1944" len="5"/>
          <note pan="0" key="48" vol="100" pos="1992" len="5"/>
          <note pan="0" key="48" vol="100" pos="2040" len="5"/>
          <note pan="0" key="48" vol="100" pos="2088" len="5"/>
          <note pan="0" key="48" vol="100" pos="2100" len="5"/>
          <note pan="0" key="48" vol="100" pos="2112" len="5"/>
          <note pan="0" key="48" vol="100" pos="2136" len="5"/>
          <note pan="0" key="48" vol="100" pos="2184" len="5"/>
          <note pan="0" key="48" vol="100" pos="2208" len="5"/>
          <note pan="0" key="48" vol="100" pos="2232" len="5"/>
          <note pan="0" key="48" vol="100" pos="2244" len="5"/>
          <note pan="0" key="48" vol="100" pos="2256" len="5"/>
          <note pan="0" key="48" vol="100" pos="2280" len="5"/>
          <note pan="0" key="48" vol="100" pos="2292" len="5"/>
          <note pan="0" key="48" vol="100" pos="2304" len="5"/>
          <note pan="0" key="48" vol="100" pos="2328" len="5"/>
          <note pan="0" key="48" vol="100" pos="2376" len="5"/>
          <note pan="0" key="48" vol="100" pos="2424" len="5"/>
          <note pan="0" key="48" vol="100" pos="2472" len="5"/>
          <note pan="0" key="48" vol="100" pos="2484" len="5"/>
          <note pan="0" key="48" vol="100" pos="2496" len="5"/>
          <note pan="0" key="48" vol="100" pos="2520" len="5"/>
          <note pan="0" key="48" vol="100" pos="2568" len="5"/>
          <note pan="0" key="48" vol="100" pos="2616" len="5"/>
          <note pan="0" key="48" vol="100" pos="2664" len="17"/>
          <note pan="0" key="48" vol="100" pos="2688" len="11"/>
          <note pan="0" key="48" vol="100" pos="2712" len="5"/>
          <note pan="0" key="48" vol="100" pos="2760" len="5"/>
          <note pan="0" key="48" vol="100" pos="2808" len="5"/>
          <note pan="0" key="48" vol="100" pos="2856" len="5"/>
          <note pan="0" key="48" vol="100" pos="2868" len="5"/>
          <note pan="0" key="48" vol="100" pos="2880" len="5"/>
          <note pan="0" key="48" vol="100" pos="2904" len="5"/>
          <note pan="0" key="48" vol="100" pos="2952" len="17"/>
          <note pan="0" key="48" vol="100" pos="2976" len="11"/>
          <note pan="0" key="48" vol="100" pos="2994" len="5"/>
          <note pan="0" key="48" vol="100" pos="3006" len="11"/>
          <note pan="0" key="48" vol="100" pos="3024" len="11"/>
          <note pan="0" key="48" vol="100" pos="3042" len="11"/>
          <note pan="0" key="48" vol="100" pos="3060" len="29"/>
          <note pan="0" key="48" vol="100" pos="3096" len="5"/>
          <note pan="0" key="48" vol="100" pos="3144" len="5"/>
          <note pan="0" key="48" vol="100" pos="3192" len="5"/>
          <note pan="0" key="48" vol="100" pos="3240" len="5"/>
          <note pan="0" key="48" vol="100" pos="3252" len="5"/>
          <note pan="0" key="48" vol="100" pos="3264" len="5"/>
          <note pan="0" key="48" vol="100" pos="3288" len="5"/>
          <note pan="0" key="48" vol="100" pos="3336" len="5"/>
          <note pan="0" key="48" vol="100" pos="3384" len="5"/>
          <note pan="0" key="48" vol="100" pos="3432" len="17"/>
          <note pan="0" key="48" vol="100" pos="3456" len="11"/>
          <note pan="0" key="48" vol="100" pos="3480" len="5"/>
          <note pan="0" key="48" vol="100" pos="3528" len="5"/>
          <note pan="0" key="48" vol="100" pos="3576" len="5"/>
          <note pan="0" key="48" vol="100" pos="3624" len="5"/>
          <note pan="0" key="48" vol="100" pos="3636" len="5"/>
          <note pan="0" key="48" vol="100" pos="3648" len="5"/>
          <note pan="0" key="48" vol="100" pos="3672" len="5"/>
          <note pan="0" key="48" vol="100" pos="3720" len="5"/>
          <note pan="0" key="48" vol="100" pos="3768" len="5"/>
          <note pan="0" key="48" vol="100" pos="3792" len="5"/>
          <note pan="0" key="48" vol="100" pos="3816" len="5"/>
          <note pan="0" key="48" vol="100" pos="3828" len="5"/>
          <note pan="0" key="48" vol="100" pos="3840" len="17"/>
          <note pan="0" key="48" vol="100" pos="3864" len="5"/>
          <note pan="0" key="48" vol="100" pos="3912" len="5"/>
          <note pan="0" key="48" vol="100" pos="3960" len="5"/>
          <note pan="0" key="48" vol="100" pos="4008" len="5"/>
          <note pan="0" key="48" vol="100" pos="4020" len="5"/>
          <note pan="0" key="48" vol="100" pos="4032" len="5"/>
          <note pan="0" key="48" vol="100" pos="4056" len="5"/>
          <note pan="0" key="48" vol="100" pos="4104" len="5"/>
          <note pan="0" key="48" vol="100" pos="4152" len="5"/>
          <note pan="0" key="48" vol="100" pos="4200" len="17"/>
          <note pan="0" key="48" vol="100" pos="4224" len="11"/>
          <note pan="0" key="48" vol="100" pos="4248" len="5"/>
          <note pan="0" key="48" vol="100" pos="4296" len="5"/>
          <note pan="0" key="48" vol="100" pos="4344" len="5"/>
          <note pan="0" key="48" vol="100" pos="4392" len="5"/>
          <note pan="0" key="48" vol="100" pos="4404" len="5"/>
          <note pan="0" key="48" vol="100" pos="4416" len="5"/>
          <note pan="0" key="48" vol="100" pos="4464" len="5"/>
          <note pan="0" key="48" vol="100" pos="4512" len="5"/>
          <note pan="0" key="48" vol="100" pos="4548" len="5"/>
          <note pan="0" key="48" vol="100" pos="4560" len="5"/>
          <note pan="0" key="48" vol="100" pos="4584" len="5"/>
          <note pan="0" key="48" vol="100" pos="4608" len="5"/>
          <note pan="0" key="48" vol="100" pos="4632" len="5"/>
          <note pan="0" key="48" vol="100" pos="4680" len="5"/>
          <note pan="0" key="48" vol="100" pos="4728" len="5"/>
          <note pan="0" key="48" vol="100" pos="4776" len="5"/>
          <note pan="0" key="48" vol="100" pos="4788" len="5"/>
          <note pan="0" key="48" vol="100" pos="4800" len="5"/>
          <note pan="0" key="48" vol="100" pos="4824" len="5"/>
          <note pan="0" key="48" vol="100" pos="4872" len="5"/>
          <note pan="0" key="48" vol="100" pos="4920" len="5"/>
          <note pan="0" key="48" vol="100" pos="4968" len="17"/>
          <note pan="0" key="48" vol="100" pos="4992" len="11"/>
          <note pan="0" key="48" vol="100" pos="5016" len="5"/>
          <note pan="0" key="48" vol="100" pos="5064" len="5"/>
          <note pan="0" key="48" vol="100" pos="5112" len="5"/>
          <note pan="0" key="48" vol="100" pos="5160" len="5"/>
          <note pan="0" key="48" vol="100" pos="5172" len="5"/>
          <note pan="0" key="48" vol="100" pos="5184" len="5"/>
          <note pan="0" key="48" vol="100" pos="5208" len="5"/>
          <note pan="0" key="48" vol="100" pos="5256" len="5"/>
          <note pan="0" key="48" vol="100" pos="5304" len="5"/>
          <note pan="0" key="48" vol="100" pos="5328" len="5"/>
          <note pan="0" key="48" vol="100" pos="5352" len="5"/>
          <note pan="0" key="48" vol="100" pos="5364" len="5"/>
          <note pan="0" key="48" vol="100" pos="5376" len="17"/>
          <note pan="0" key="48" vol="100" pos="5400" len="5"/>
          <note pan="0" key="48" vol="100" pos="5448" len="5"/>
          <note pan="0" key="48" vol="100" pos="5496" len="5"/>
          <note pan="0" key="48" vol="100" pos="5544" len="5"/>
          <note pan="0" key="48" vol="100" pos="5556" len="5"/>
          <note pan="0" key="48" vol="100" pos="5568" len="5"/>
          <note pan="0" key="48" vol="100" pos="5592" len="5"/>
          <note pan="0" key="48" vol="100" pos="5640" len="5"/>
          <note pan="0" key="48" vol="100" pos="5688" len="5"/>
          <note pan="0" key="48" vol="100" pos="5736" len="17"/>
          <note pan="0" key="48" vol="100" pos="5760" len="11"/>
          <note pan="0" key="48" vol="100" pos="5784" len="5"/>
          <note pan="0" key="48" vol="100" pos="5832" len="5"/>
          <note pan="0" key="48" vol="100" pos="5880" len="5"/>
          <note pan="0" key="48" vol="100" pos="5928" len="5"/>
          <note pan="0" key="48" vol="100" pos="5940" len="5"/>
          <note pan="0" key="48" vol="100" pos="5952" len="5"/>
          <note pan="0" key="48" vol="100" pos="6000" len="5"/>
          <note pan="0" key="48" vol="100" pos="6048" len="5"/>
          <note pan="0" key="48" vol="100" pos="6084" len="5"/>
          <note pan="0" key="48" vol="100" pos="6096" len="5"/>
          <note pan="0" key="48" vol="100" pos="6120" len="5"/>
          <note pan="0" key="48" vol="100" pos="6144" len="17"/>
          <note pan="0" key="48" vol="100" pos="6168" len="5"/>
          <note pan="0" key="48" vol="100" pos="6216" len="5"/>
          <note pan="0" key="48" vol="100" pos="6264" len="5"/>
          <note pan="0" key="48" vol="100" pos="6312" len="5"/>
          <note pan="0" key="48" vol="100" pos="6324" len="5"/>
          <note pan="0" key="48" vol="100" pos="6336" len="5"/>
          <note pan="0" key="48" vol="100" pos="6360" len="5"/>
          <note pan="0" key="48" vol="100" pos="6408" len="5"/>
          <note pan="0" key="48" vol="100" pos="6456" len="5"/>
          <note pan="0" key="48" vol="100" pos="6504" len="17"/>
          <note pan="0" key="48" vol="100" pos="6528" len="17"/>
          <note pan="0" key="48" vol="100" pos="6552" len="5"/>
          <note pan="0" key="48" vol="100" pos="6600" len="5"/>
          <note pan="0" key="48" vol="100" pos="6648" len="5"/>
          <note pan="0" key="48" vol="100" pos="6696" len="5"/>
          <note pan="0" key="48" vol="100" pos="6708" len="5"/>
          <note pan="0" key="48" vol="100" pos="6720" len="5"/>
          <note pan="0" key="48" vol="100" pos="6744" len="5"/>
          <note pan="0" key="48" vol="100" pos="6792" len="5"/>
          <note pan="0" key="48" vol="100" pos="6840" len="5"/>
          <note pan="0" key="48" vol="100" pos="6864" len="5"/>
          <note pan="0" key="48" vol="100" pos="6888" len="5"/>
          <note pan="0" key="48" vol="100" pos="6900" len="5"/>
          <note pan="0" key="48" vol="100" pos="6912" len="17"/>
          <note pan="0" key="48" vol="100" pos="6936" len="5"/>
          <note pan="0" key="48" vol="100" pos="6984" len="5"/>
          <note pan="0" key="48" vol="100" pos="7032" len="5"/>
          <note pan="0" key="48" vol="100" pos="7080" len="5"/>
          <note pan="0" key="48" vol="100" pos="7092" len="5"/>
          <note pan="0" key="48" vol="100" pos="7104" len="5"/>
          <note pan="0" key="48" vol="100" pos="7128" len="5"/>
          <note pan="0" key="48" vol="100" pos="7176" len="5"/>
          <note pan="0" key="48" vol="100" pos="7224" len="5"/>
          <note pan="0" key="48" vol="100" pos="7272" len="17"/>
          <note pan="0" key="48" vol="100" pos="7296" len="17"/>
          <note pan="0" key="48" vol="100" pos="7320" len="5"/>
          <note pan="0" key="48" vol="100" pos="7368" len="5"/>
          <note pan="0" key="48" vol="100" pos="7416" len="5"/>
          <note pan="0" key="48" vol="100" pos="7464" len="5"/>
          <note pan="0" key="48" vol="100" pos="7476" len="5"/>
          <note pan="0" key="48" vol="100" pos="7488" len="5"/>
          <note pan="0" key="48" vol="100" pos="7512" len="5"/>
          <note pan="0" key="48" vol="100" pos="7560" len="5"/>
          <note pan="0" key="48" vol="100" pos="7608" len="5"/>
          <note pan="0" key="48" vol="100" pos="7632" len="5"/>
          <note pan="0" key="48" vol="100" pos="7656" len="5"/>
          <note pan="0" key="48" vol="100" pos="7668" len="5"/>
          <note pan="0" key="48" vol="100" pos="7680" len="17"/>
          <note pan="0" key="48" vol="100" pos="7704" len="5"/>
          <note pan="0" key="48" vol="100" pos="7752" len="5"/>
          <note pan="0" key="48" vol="100" pos="7800" len="5"/>
          <note pan="0" key="48" vol="100" pos="7848" len="5"/>
          <note pan="0" key="48" vol="100" pos="7860" len="5"/>
          <note pan="0" key="48" vol="100" pos="7872" len="5"/>
          <note pan="0" key="48" vol="100" pos="7896" len="5"/>
          <note pan="0" key="48" vol="100" pos="7944" len="5"/>
          <note pan="0" key="48" vol="100" pos="7992" len="5"/>
          <note pan="0" key="48" vol="100" pos="8040" len="17"/>
          <note pan="0" key="48" vol="100" pos="8064" len="17"/>
          <note pan="0" key="48" vol="100" pos="8088" len="5"/>
          <note pan="0" key="48" vol="100" pos="8136" len="5"/>
          <note pan="0" key="48" vol="100" pos="8184" len="5"/>
          <note pan="0" key="48" vol="100" pos="8232" len="5"/>
          <note pan="0" key="48" vol="100" pos="8244" len="5"/>
          <note pan="0" key="48" vol="100" pos="8256" len="5"/>
          <note pan="0" key="48" vol="100" pos="8280" len="5"/>
          <note pan="0" key="48" vol="100" pos="8328" len="5"/>
          <note pan="0" key="48" vol="100" pos="8376" len="5"/>
          <note pan="0" key="48" vol="100" pos="8400" len="5"/>
          <note pan="0" key="48" vol="100" pos="8424" len="5"/>
          <note pan="0" key="48" vol="100" pos="8436" len="5"/>
          <note pan="0" key="48" vol="100" pos="8448" len="17"/>
          <note pan="0" key="48" vol="100" pos="8472" len="5"/>
          <note pan="0" key="48" vol="100" pos="8496" len="11"/>
          <note pan="0" key="48" vol="100" pos="8520" len="5"/>
          <note pan="0" key="48" vol="100" pos="8544" len="11"/>
          <note pan="0" key="48" vol="100" pos="8568" len="5"/>
          <note pan="0" key="48" vol="100" pos="8592" len="5"/>
          <note pan="0" key="48" vol="100" pos="8604" len="5"/>
          <note pan="0" key="48" vol="100" pos="8616" len="5"/>
          <note pan="0" key="48" vol="100" pos="8628" len="5"/>
          <note pan="0" key="48" vol="100" pos="8640" len="17"/>
          <note pan="0" key="48" vol="100" pos="8664" len="5"/>
          <note pan="0" key="48" vol="100" pos="8688" len="11"/>
          <note pan="0" key="48" vol="100" pos="8712" len="5"/>
          <note pan="0" key="48" vol="100" pos="8736" len="11"/>
          <note pan="0" key="48" vol="100" pos="8760" len="5"/>
          <note pan="0" key="48" vol="100" pos="8772" len="5"/>
          <note pan="0" key="48" vol="100" pos="8784" len="5"/>
          <note pan="0" key="48" vol="100" pos="8796" len="5"/>
          <note pan="0" key="48" vol="100" pos="8808" len="5"/>
          <note pan="0" key="48" vol="100" pos="8820" len="5"/>
          <note pan="0" key="48" vol="100" pos="8832" len="17"/>
          <note pan="0" key="48" vol="100" pos="8880" len="17"/>
          <note pan="0" key="48" vol="100" pos="8928" len="17"/>
          <note pan="0" key="48" vol="100" pos="8976" len="17"/>
          <note pan="0" key="48" vol="100" pos="9000" len="5"/>
          <note pan="0" key="48" vol="100" pos="9012" len="5"/>
          <note pan="0" key="48" vol="100" pos="9024" len="17"/>
          <note pan="0" key="48" vol="100" pos="9048" len="5"/>
          <note pan="0" key="48" vol="100" pos="9060" len="5"/>
          <note pan="0" key="48" vol="100" pos="9072" len="5"/>
          <note pan="0" key="48" vol="100" pos="9084" len="5"/>
          <note pan="0" key="48" vol="100" pos="9096" len="5"/>
          <note pan="0" key="48" vol="100" pos="9108" len="5"/>
          <note pan="0" key="48" vol="100" pos="9120" len="5"/>
          <note pan="0" key="48" vol="100" pos="9132" len="5"/>
          <note pan="0" key="48" vol="100" pos="9144" len="5"/>
          <note pan="0" key="48" vol="100" pos="9156" len="5"/>
          <note pan="0" key="48" vol="100" pos="9168" len="5"/>
          <note pan="0" key="48" vol="100" pos="9180" len="5"/>
          <note pan="0" key="48" vol="100" pos="9192" len="5"/>
          <note pan="0" key="48" vol="100" pos="9204" len="5"/>
          <note pan="0" key="48" vol="100" pos="9216" len="47"/>
          <note pan="0" key="48" vol="100" pos="9288" len="5"/>
          <note pan="0" key="48" vol="100" pos="9300" len="5"/>
          <note pan="0" key="48" vol="100" pos="9312" len="23"/>
          <note pan="0" key="48" vol="100" pos="9456" len="23"/>
          <note pan="0" key="48" vol="100" pos="9504" len="5"/>
          <note pan="0" key="48" vol="100" pos="9528" len="29"/>
          <note pan="0" key="48" vol="100" pos="9576" len="5"/>
          <note pan="0" key="48" vol="100" pos="9600" len="47"/>
          <note pan="0" key="48" vol="100" pos="9672" len="5"/>
          <note pan="0" key="48" vol="100" pos="9684" len="5"/>
          <note pan="0" key="48" vol="100" pos="9696" len="23"/>
          <note pan="0" key="48" vol="100" pos="9840" len="23"/>
          <note pan="0" key="48" vol="100" pos="9888" len="5"/>
          <note pan="0" key="48" vol="100" pos="9912" len="29"/>
          <note pan="0" key="48" vol="100" pos="9960" len="5"/>
          <note pan="0" key="48" vol="100" pos="9984" len="47"/>
          <note pan="0" key="48" vol="100" pos="10056" len="5"/>
          <note pan="0" key="48" vol="100" pos="10068" len="5"/>
          <note pan="0" key="48" vol="100" pos="10080" len="23"/>
          <note pan="0" key="48" vol="100" pos="10224" len="23"/>
          <note pan="0" key="48" vol="100" pos="10272" len="5"/>
          <note pan="0" key="48" vol="100" pos="10296" len="29"/>
          <note pan="0" key="48" vol="100" pos="10344" len="5"/>
          <note pan="0" key="48" vol="100" pos="10368" len="47"/>
          <note pan="0" key="48" vol="100" pos="10440" len="5"/>
          <note pan="0" key="48" vol="100" pos="10452" len="5"/>
          <note pan="0" key="48" vol="100" pos="10464" len="23"/>
          <note pan="0" key="48" vol="100" pos="10608" len="23"/>
          <note pan="0" key="48" vol="100" pos="10656" len="5"/>
          <note pan="0" key="48" vol="100" pos="10680" len="29"/>
          <note pan="0" key="48" vol="100" pos="10728" len="5"/>
          <note pan="0" key="48" vol="100" pos="10752" len="47"/>
          <note pan="0" key="48" vol="100" pos="10824" len="5"/>
          <note pan="0" key="48" vol="100" pos="10836" len="5"/>
          <note pan="0" key="48" vol="100" pos="10848" len="23"/>
          <note pan="0" key="48" vol="100" pos="10992" len="23"/>
          <note pan="0" key="48" vol="100" pos="11040" len="5"/>
          <note pan="0" key="48" vol="100" pos="11064" len="29"/>
          <note pan="0" key="48" vol="100" pos="11112" len="5"/>
          <note pan="0" key="48" vol="100" pos="11136" len="47"/>
          <note pan="0" key="48" vol="100" pos="11208" len="5"/>
          <note pan="0" key="48" vol="100" pos="11220" len="5"/>
          <note pan="0" key="48" vol="100" pos="11232" len="23"/>
          <note pan="0" key="48" vol="100" pos="11376" len="23"/>
          <note pan="0" key="48" vol="100" pos="11424" len="5"/>
          <note pan="0" key="48" vol="100" pos="11448" len="29"/>
          <note pan="0" key="48" vol="100" pos="11496" len="5"/>
          <note pan="0" key="48" vol="100" pos="11520" len="47"/>
          <note pan="0" key="48" vol="100" pos="11592" len="5"/>
          <note pan="0" key="48" vol="100" pos="11604" len="5"/>
          <note pan="0" key="48" vol="100" pos="11616" len="23"/>
          <note pan="0" key="48" vol="100" pos="11760" len="23"/>
          <note pan="0" key="48" vol="100" pos="11808" len="5"/>
          <note pan="0" key="48" vol="100" pos="11832" len="29"/>
          <note pan="0" key="48" vol="100" pos="11880" len="5"/>
          <note pan="0" key="48" vol="100" pos="11904" len="47"/>
          <note pan="0" key="48" vol="100" pos="11976" len="5"/>
          <note pan="0" key="48" vol="100" pos="11988" len="5"/>
          <note pan="0" key="48" vol="100" pos="12000" len="23"/>
          <note pan="0" key="48" vol="100" pos="12144" len="23"/>
          <note pan="0" key="48" vol="100" pos="12192" len="41"/>
          <note pan="0" key="48" vol="100" pos="12240" len="17"/>
          <note pan="0" key="48" vol="100" pos="12264" len="5"/>
          <note pan="0" key="48" vol="100" pos="12276" len="5"/>
          <note pan="0" key="48" vol="100" pos="12288" len="5"/>
          <note pan="0" key="48" vol="100" pos="12312" len="5"/>
          <note pan="0" key="48" vol="100" pos="12360" len="5"/>
          <note pan="0" key="48" vol="100" pos="12408" len="5"/>
          <note pan="0" key="48" vol="100" pos="12456" len="5"/>
          <note pan="0" key="48" vol="100" pos="12468" len="5"/>
          <note pan="0" key="48" vol="100" pos="12480" len="5"/>
          <note pan="0" key="48" vol="100" pos="12504" len="5"/>
          <note pan="0" key="48" vol="100" pos="12552" len="5"/>
          <note pan="0" key="48" vol="100" pos="12600" len="5"/>
          <note pan="0" key="48" vol="100" pos="12648" len="17"/>
          <note pan="0" key="48" vol="100" pos="12672" len="11"/>
          <note pan="0" key="48" vol="100" pos="12696" len="5"/>
          <note pan="0" key="48" vol="100" pos="12744" len="5"/>
          <note pan="0" key="48" vol="100" pos="12792" len="5"/>
          <note pan="0" key="48" vol="100" pos="12840" len="5"/>
          <note pan="0" key="48" vol="100" pos="12852" len="5"/>
          <note pan="0" key="48" vol="100" pos="12864" len="5"/>
          <note pan="0" key="48" vol="100" pos="12888" len="5"/>
          <note pan="0" key="48" vol="100" pos="12936" len="5"/>
          <note pan="0" key="48" vol="100" pos="12960" len="5"/>
          <note pan="0" key="48" vol="100" pos="12984" len="5"/>
          <note pan="0" key="48" vol="100" pos="12996" len="5"/>
          <note pan="0" key="48" vol="100" pos="13008" len="5"/>
          <note pan="0" key="48" vol="100" pos="13032" len="5"/>
          <note pan="0" key="48" vol="100" pos="13044" len="5"/>
          <note pan="0" key="48" vol="100" pos="13056" len="5"/>
          <note pan="0" key="48" vol="100" pos="13080" len="5"/>
          <note pan="0" key="48" vol="100" pos="13128" len="5"/>
          <note pan="0" key="48" vol="100" pos="13176" len="5"/>
          <note pan="0" key="48" vol="100" pos="13224" len="5"/>
          <note pan="0" key="48" vol="100" pos="13236" len="5"/>
          <note pan="0" key="48" vol="100" pos="13248" len="5"/>
          <note pan="0" key="48" vol="100" pos="13272" len="5"/>
          <note pan="0" key="48" vol="100" pos="13320" len="5"/>
          <note pan="0" key="48" vol="100" pos="13368" len="5"/>
          <note pan="0" key="48" vol="100" pos="13416" len="17"/>
          <note pan="0" key="48" vol="100" pos="13440" len="11"/>
          <note pan="0" key="48" vol="100" pos="13464" len="5"/>
          <note pan="0" key="48" vol="100" pos="13512" len="5"/>
          <note pan="0" key="48" vol="100" pos="13560" len="5"/>
          <note pan="0" key="48" vol="100" pos="13608" len="5"/>
          <note pan="0" key="48" vol="100" pos="13620" len="5"/>
          <note pan="0" key="48" vol="100" pos="13632" len="5"/>
          <note pan="0" key="48" vol="100" pos="13656" len="5"/>
          <note pan="0" key="48" vol="100" pos="13704" len="17"/>
          <note pan="0" key="48" vol="100" pos="13728" len="11"/>
          <note pan="0" key="48" vol="100" pos="13746" len="5"/>
          <note pan="0" key="48" vol="100" pos="13758" len="11"/>
          <note pan="0" key="48" vol="100" pos="13776" len="11"/>
          <note pan="0" key="48" vol="100" pos="13794" len="11"/>
          <note pan="0" key="48" vol="100" pos="13812" len="29"/>
          <note pan="0" key="48" vol="100" pos="13848" len="5"/>
          <note pan="0" key="48" vol="100" pos="13896" len="5"/>
          <note pan="0" key="48" vol="100" pos="13944" len="5"/>
          <note pan="0" key="48" vol="100" pos="13992" len="5"/>
          <note pan="0" key="48" vol="100" pos="14004" len="5"/>
          <note pan="0" key="48" vol="100" pos="14016" len="5"/>
          <note pan="0" key="48" vol="100" pos="14040" len="5"/>
          <note pan="0" key="48" vol="100" pos="14088" len="5"/>
          <note pan="0" key="48" vol="100" pos="14136" len="5"/>
          <note pan="0" key="48" vol="100" pos="14184" len="17"/>
          <note pan="0" key="48" vol="100" pos="14208" len="11"/>
          <note pan="0" key="48" vol="100" pos="14232" len="5"/>
          <note pan="0" key="48" vol="100" pos="14280" len="5"/>
          <note pan="0" key="48" vol="100" pos="14328" len="5"/>
          <note pan="0" key="48" vol="100" pos="14376" len="5"/>
          <note pan="0" key="48" vol="100" pos="14388" len="5"/>
          <note pan="0" key="48" vol="100" pos="14400" len="5"/>
          <note pan="0" key="48" vol="100" pos="14424" len="5"/>
          <note pan="0" key="48" vol="100" pos="14472" len="5"/>
          <note pan="0" key="48" vol="100" pos="14520" len="5"/>
          <note pan="0" key="48" vol="100" pos="14544" len="5"/>
          <note pan="0" key="48" vol="100" pos="14568" len="5"/>
          <note pan="0" key="48" vol="100" pos="14580" len="5"/>
          <note pan="0" key="48" vol="100" pos="14592" len="17"/>
          <note pan="0" key="48" vol="100" pos="14616" len="5"/>
          <note pan="0" key="48" vol="100" pos="14664" len="5"/>
          <note pan="0" key="48" vol="100" pos="14712" len="5"/>
          <note pan="0" key="48" vol="100" pos="14760" len="5"/>
          <note pan="0" key="48" vol="100" pos="14772" len="5"/>
          <note pan="0" key="48" vol="100" pos="14784" len="5"/>
          <note pan="0" key="48" vol="100" pos="14808" len="5"/>
          <note pan="0" key="48" vol="100" pos="14856" len="5"/>
          <note pan="0" key="48" vol="100" pos="14904" len="5"/>
          <note pan="0" key="48" vol="100" pos="14952" len="17"/>
          <note pan="0" key="48" vol="100" pos="14976" len="11"/>
          <note pan="0" key="48" vol="100" pos="15000" len="5"/>
          <note pan="0" key="48" vol="100" pos="15048" len="5"/>
          <note pan="0" key="48" vol="100" pos="15096" len="5"/>
          <note pan="0" key="48" vol="100" pos="15144" len="5"/>
          <note pan="0" key="48" vol="100" pos="15156" len="5"/>
          <note pan="0" key="48" vol="100" pos="15168" len="5"/>
          <note pan="0" key="48" vol="100" pos="15216" len="5"/>
          <note pan="0" key="48" vol="100" pos="15264" len="5"/>
          <note pan="0" key="48" vol="100" pos="15300" len="5"/>
          <note pan="0" key="48" vol="100" pos="15312" len="5"/>
          <note pan="0" key="48" vol="100" pos="15336" len="5"/>
          <note pan="0" key="48" vol="100" pos="15360" len="5"/>
          <note pan="0" key="48" vol="100" pos="15384" len="5"/>
          <note pan="0" key="48" vol="100" pos="15432" len="5"/>
          <note pan="0" key="48" vol="100" pos="15480" len="5"/>
          <note pan="0" key="48" vol="100" pos="15528" len="5"/>
          <note pan="0" key="48" vol="100" pos="15540" len="5"/>
          <note pan="0" key="48" vol="100" pos="15552" len="5"/>
          <note pan="0" key="48" vol="100" pos="15576" len="5"/>
          <note pan="0" key="48" vol="100" pos="15624" len="5"/>
          <note pan="0" key="48" vol="100" pos="15672" len="5"/>
          <note pan="0" key="48" vol="100" pos="15720" len="17"/>
          <note pan="0" key="48" vol="100" pos="15744" len="11"/>
          <note pan="0" key="48" vol="100" pos="15768" len="5"/>
          <note pan="0" key="48" vol="100" pos="15816" len="5"/>
          <note pan="0" key="48" vol="100" pos="15864" len="5"/>
          <note pan="0" key="48" vol="100" pos="15912" len="5"/>
          <note pan="0" key="48" vol="100" pos="15924" len="5"/>
          <note pan="0" key="48" vol="100" pos="15936" len="5"/>
          <note pan="0" key="48" vol="100" pos="15960" len="5"/>
          <note pan="0" key="48" vol="100" pos="16008" len="5"/>
          <note pan="0" key="48" vol="100" pos="16056" len="5"/>
          <note pan="0" key="48" vol="100" pos="16080" len="5"/>
          <note pan="0" key="48" vol="100" pos="16104" len="5"/>
          <note pan="0" key="48" vol="100" pos="16116" len="5"/>
          <note pan="0" key="48" vol="100" pos="16128" len="17"/>
          <note pan="0" key="48" vol="100" pos="16152" len="5"/>
          <note pan="0" key="48" vol="100" pos="16200" len="5"/>
          <note pan="0" key="48" vol="100" pos="16248" len="5"/>
          <note pan="0" key="48" vol="100" pos="16296" len="5"/>
          <note pan="0" key="48" vol="100" pos="16308" len="5"/>
          <note pan="0" key="48" vol="100" pos="16320" len="5"/>
          <note pan="0" key="48" vol="100" pos="16344" len="5"/>
          <note pan="0" key="48" vol="100" pos="16392" len="5"/>
          <note pan="0" key="48" vol="100" pos="16440" len="5"/>
          <note pan="0" key="48" vol="100" pos="16488" len="17"/>
          <note pan="0" key="48" vol="100" pos="16512" len="11"/>
          <note pan="0" key="48" vol="100" pos="16536" len="5"/>
          <note pan="0" key="48" vol="100" pos="16584" len="5"/>
          <note pan="0" key="48" vol="100" pos="16632" len="5"/>
          <note pan="0" key="48" vol="100" pos="16680" len="5"/>
          <note pan="0" key="48" vol="100" pos="16692" len="5"/>
          <note pan="0" key="48" vol="100" pos="16704" len="5"/>
          <note pan="0" key="48" vol="100" pos="16752" len="5"/>
          <note pan="0" key="48" vol="100" pos="16800" len="5"/>
          <note pan="0" key="48" vol="100" pos="16836" len="5"/>
          <note pan="0" key="48" vol="100" pos="16848" len="5"/>
          <note pan="0" key="48" vol="100" pos="16872" len="5"/>
          <note pan="0" key="48" vol="100" pos="16896" len="17"/>
          <note pan="0" key="48" vol="100" pos="16920" len="5"/>
          <note pan="0" key="48" vol="100" pos="16968" len="5"/>
          <note pan="0" key="48" vol="100" pos="17016" len="5"/>
          <note pan="0" key="48" vol="100" pos="17064" len="5"/>
          <note pan="0" key="48" vol="100" pos="17076" len="5"/>
          <note pan="0" key="48" vol="100" pos="17088" len="5"/>
          <note pan="0" key="48" vol="100" pos="17112" len="5"/>
          <note pan="0" key="48" vol="100" pos="17160" len="5"/>
          <note pan="0" key="48" vol="100" pos="17208" len="5"/>
          <note pan="0" key="48" vol="100" pos="17256" len="17"/>
          <note pan="0" key="48" vol="100" pos="17280" len="17"/>
          <note pan="0" key="48" vol="100" pos="17304" len="5"/>
          <note pan="0" key="48" vol="100" pos="17352" len="5"/>
          <note pan="0" key="48" vol="100" pos="17400" len="5"/>
          <note pan="0" key="48" vol="100" pos="17448" len="5"/>
          <note pan="0" key="48" vol="100" pos="17460" len="5"/>
          <note pan="0" key="48" vol="100" pos="17472" len="5"/>
          <note pan="0" key="48" vol="100" pos="17496" len="5"/>
          <note pan="0" key="48" vol="100" pos="17544" len="5"/>
          <note pan="0" key="48" vol="100" pos="17592" len="5"/>
          <note pan="0" key="48" vol="100" pos="17616" len="5"/>
          <note pan="0" key="48" vol="100" pos="17640" len="5"/>
          <note pan="0" key="48" vol="100" pos="17652" len="5"/>
          <note pan="0" key="48" vol="100" pos="17664" len="17"/>
          <note pan="0" key="48" vol="100" pos="17688" len="5"/>
          <note pan="0" key="48" vol="100" pos="17736" len="5"/>
          <note pan="0" key="48" vol="100" pos="17784" len="5"/>
          <note pan="0" key="48" vol="100" pos="17832" len="5"/>
          <note pan="0" key="48" vol="100" pos="17844" len="5"/>
          <note pan="0" key="48" vol="100" pos="17856" len="5"/>
          <note pan="0" key="48" vol="100" pos="17880" len="5"/>
          <note pan="0" key="48" vol="100" pos="17928" len="5"/>
          <note pan="0" key="48" vol="100" pos="17976" len="5"/>
          <note pan="0" key="48" vol="100" pos="18024" len="17"/>
          <note pan="0" key="48" vol="100" pos="18048" len="17"/>
          <note pan="0" key="48" vol="100" pos="18072" len="5"/>
          <note pan="0" key="48" vol="100" pos="18120" len="5"/>
          <note pan="0" key="48" vol="100" pos="18168" len="5"/>
          <note pan="0" key="48" vol="100" pos="18216" len="5"/>
          <note pan="0" key="48" vol="100" pos="18228" len="5"/>
          <note pan="0" key="48" vol="100" pos="18240" len="5"/>
          <note pan="0" key="48" vol="100" pos="18264" len="5"/>
          <note pan="0" key="48" vol="100" pos="18312" len="5"/>
          <note pan="0" key="48" vol="100" pos="18360" len="5"/>
          <note pan="0" key="48" vol="100" pos="18384" len="5"/>
          <note pan="0" key="48" vol="100" pos="18408" len="5"/>
          <note pan="0" key="48" vol="100" pos="18420" len="5"/>
          <note pan="0" key="48" vol="100" pos="18432" len="17"/>
          <note pan="0" key="48" vol="100" pos="18456" len="5"/>
          <note pan="0" key="48" vol="100" pos="18504" len="5"/>
          <note pan="0" key="48" vol="100" pos="18552" len="5"/>
          <note pan="0" key="48" vol="100" pos="18600" len="5"/>
          <note pan="0" key="48" vol="100" pos="18612" len="5"/>
          <note pan="0" key="48" vol="100" pos="18624" len="5"/>
          <note pan="0" key="48" vol="100" pos="18648" len="5"/>
          <note pan="0" key="48" vol="100" pos="18696" len="5"/>
          <note pan="0" key="48" vol="100" pos="18744" len="5"/>
          <note pan="0" key="48" vol="100" pos="18792" len="17"/>
          <note pan="0" key="48" vol="100" pos="18816" len="17"/>
          <note pan="0" key="48" vol="100" pos="18840" len="5"/>
          <note pan="0" key="48" vol="100" pos="18888" len="5"/>
          <note pan="0" key="48" vol="100" pos="18936" len="5"/>
          <note pan="0" key="48" vol="100" pos="18984" len="5"/>
          <note pan="0" key="48" vol="100" pos="18996" len="5"/>
          <note pan="0" key="48" vol="100" pos="19008" len="5"/>
          <note pan="0" key="48" vol="100" pos="19032" len="5"/>
          <note pan="0" key="48" vol="100" pos="19080" len="5"/>
          <note pan="0" key="48" vol="100" pos="19128" len="5"/>
          <note pan="0" key="48" vol="100" pos="19152" len="5"/>
          <note pan="0" key="48" vol="100" pos="19176" len="5"/>
          <note pan="0" key="48" vol="100" pos="19188" len="5"/>
          <note pan="0" key="48" vol="100" pos="19200" len="17"/>
          <note pan="0" key="48" vol="100" pos="19224" len="5"/>
          <note pan="0" key="48" vol="100" pos="19248" len="11"/>
          <note pan="0" key="48" vol="100" pos="19272" len="5"/>
          <note pan="0" key="48" vol="100" pos="19296" len="11"/>
          <note pan="0" key="48" vol="100" pos="19320" len="5"/>
          <note pan="0" key="48" vol="100" pos="19344" len="5"/>
          <note pan="0" key="48" vol="100" pos="19356" len="5"/>
          <note pan="0" key="48" vol="100" pos="19368" len="5"/>
          <note pan="0" key="48" vol="100" pos="19380" len="5"/>
          <note pan="0" key="48" vol="100" pos="19392" len="17"/>
          <note pan="0" key="48" vol="100" pos="19416" len="5"/>
          <note pan="0" key="48" vol="100" pos="19440" len="11"/>
          <note pan="0" key="48" vol="100" pos="19464" len="5"/>
          <note pan="0" key="48" vol="100" pos="19488" len="11"/>
          <note pan="0" key="48" vol="100" pos="19512" len="5"/>
          <note pan="0" key="48" vol="100" pos="19524" len="5"/>
          <note pan="0" key="48" vol="100" pos="19536" len="5"/>
          <note pan="0" key="48" vol="100" pos="19548" len="5"/>
          <note pan="0" key="48" vol="100" pos="19560" len="5"/>
          <note pan="0" key="48" vol="100" pos="19572" len="5"/>
          <note pan="0" key="48" vol="100" pos="19584" len="17"/>
          <note pan="0" key="48" vol="100" pos="19632" len="17"/>
          <note pan="0" key="48" vol="100" pos="19680" len="17"/>
          <note pan="0" key="48" vol="100" pos="19728" len="17"/>
          <note pan="0" key="48" vol="100" pos="19752" len="5"/>
          <note pan="0" key="48" vol="100" pos="19764" len="5"/>
          <note pan="0" key="48" vol="100" pos="19776" len="17"/>
          <note pan="0" key="48" vol="100" pos="19800" len="5"/>
          <note pan="0" key="48" vol="100" pos="19812" len="5"/>
          <note pan="0" key="48" vol="100" pos="19824" len="5"/>
          <note pan="0" key="48" vol="100" pos="19836" len="5"/>
          <note pan="0" key="48" vol="100" pos="19848" len="5"/>
          <note pan="0" key="48" vol="100" pos="19860" len="5"/>
          <note pan="0" key="48" vol="100" pos="19872" len="5"/>
          <note pan="0" key="48" vol="100" pos="19884" len="5"/>
          <note pan="0" key="48" vol="100" pos="19896" len="5"/>
          <note pan="0" key="48" vol="100" pos="19908" len="5"/>
          <note pan="0" key="48" vol="100" pos="19920" len="5"/>
          <note pan="0" key="48" vol="100" pos="19932" len="5"/>
          <note pan="0" key="48" vol="100" pos="19944" len="5"/>
          <note pan="0" key="48" vol="100" pos="19956" len="5"/>
          <note pan="0" key="48" vol="100" pos="19968" len="47"/>
          <note pan="0" key="48" vol="100" pos="20040" len="5"/>
          <note pan="0" key="48" vol="100" pos="20052" len="5"/>
          <note pan="0" key="48" vol="100" pos="20064" len="23"/>
          <note pan="0" key="48" vol="100" pos="20208" len="23"/>
          <note pan="0" key="48" vol="100" pos="20256" len="5"/>
          <note pan="0" key="48" vol="100" pos="20280" len="29"/>
          <note pan="0" key="48" vol="100" pos="20328" len="5"/>
          <note pan="0" key="48" vol="100" pos="20352" len="47"/>
          <note pan="0" key="48" vol="100" pos="20424" len="5"/>
          <note pan="0" key="48" vol="100" pos="20436" len="5"/>
          <note pan="0" key="48" vol="100" pos="20448" len="23"/>
          <note pan="0" key="48" vol="100" pos="20592" len="23"/>
          <note pan="0" key="48" vol="100" pos="20640" len="5"/>
          <note pan="0" key="48" vol="100" pos="20664" len="29"/>
          <note pan="0" key="48" vol="100" pos="20712" len="5"/>
          <note pan="0" key="48" vol="100" pos="20736" len="47"/>
          <note pan="0" key="48" vol="100" pos="20808" len="5"/>
          <note pan="0" key="48" vol="100" pos="20820" len="5"/>
          <note pan="0" key="48" vol="100" pos="20832" len="23"/>
          <note pan="0" key="48" vol="100" pos="20976" len="23"/>
          <note pan="0" key="48" vol="100" pos="21024" len="5"/>
          <note pan="0" key="48" vol="100" pos="21048" len="29"/>
          <note pan="0" key="48" vol="100" pos="21096" len="5"/>
          <note pan="0" key="48" vol="100" pos="21120" len="47"/>
          <note pan="0" key="48" vol="100" pos="21192" len="5"/>
          <note pan="0" key="48" vol="100" pos="21204" len="5"/>
          <note pan="0" key="48" vol="100" pos="21216" len="23"/>
          <note pan="0" key="48" vol="100" pos="21360" len="23"/>
          <note pan="0" key="48" vol="100" pos="21408" len="5"/>
          <note pan="0" key="48" vol="100" pos="21432" len="29"/>
          <note pan="0" key="48" vol="100" pos="21480" len="5"/>
          <note pan="0" key="48" vol="100" pos="21504" len="47"/>
          <note pan="0" key="48" vol="100" pos="21576" len="5"/>
          <note pan="0" key="48" vol="100" pos="21588" len="5"/>
          <note pan="0" key="48" vol="100" pos="21600" len="23"/>
          <note pan="0" key="48" vol="100" pos="21744" len="23"/>
          <note pan="0" key="48" vol="100" pos="21792" len="5"/>
          <note pan="0" key="48" vol="100" pos="21816" len="29"/>
          <note pan="0" key="48" vol="100" pos="21864" len="5"/>
          <note pan="0" key="48" vol="100" pos="21888" len="47"/>
          <note pan="0" key="48" vol="100" pos="21960" len="5"/>
          <note pan="0" key="48" vol="100" pos="21972" len="5"/>
          <note pan="0" key="48" vol="100" pos="21984" len="23"/>
          <note pan="0" key="48" vol="100" pos="22128" len="23"/>
          <note pan="0" key="48" vol="100" pos="22176" len="5"/>
          <note pan="0" key="48" vol="100" pos="22200" len="29"/>
          <note pan="0" key="48" vol="100" pos="22248" len="5"/>
          <note pan="0" key="48" vol="100" pos="22272" len="47"/>
          <note pan="0" key="48" vol="100" pos="22344" len="5"/>
          <note pan="0" key="48" vol="100" pos="22356" len="5"/>
          <note pan="0" key="48" vol="100" pos="22368" len="23"/>
          <note pan="0" key="48" vol="100" pos="22512" len="23"/>
          <note pan="0" key="48" vol="100" pos="22560" len="5"/>
          <note pan="0" key="48" vol="100" pos="22584" len="29"/>
          <note pan="0" key="48" vol="100" pos="22632" len="5"/>
          <note pan="0" key="48" vol="100" pos="22656" len="47"/>
          <note pan="0" key="48" vol="100" pos="22728" len="5"/>
          <note pan="0" key="48" vol="100" pos="22740" len="5"/>
          <note pan="0" key="48" vol="100" pos="22752" len="23"/>
          <note pan="0" key="48" vol="100" pos="22896" len="23"/>
          <note pan="0" key="48" vol="100" pos="22944" len="83"/>
        </pattern>
      </track>
    </trackcontainer>
    <track muted="0" type="6" name="Automation track">
      <automationtrack/>
      <automationpattern name="Numerator" pos="0" len="192">
        <time value="4" pos="0"/>
        <object id="3597656"/>
      </automationpattern>
      <automationpattern name="Denominator" pos="0" len="192">
        <time value="4" pos="0"/>
        <object id="1142032"/>
      </automationpattern>
      <automationpattern name="Tempo" pos="0" len="192">
        <time value="138" pos="0"/>
        <object id="7345865"/>
      </automationpattern>
      <automationpattern name="Master volume" pos="0" len="192"/>
      <automationpattern name="Master pitch" pos="0" len="192"/>
    </track>
    <fxmixer width="864" x="5" y="310" maximized="0" height="278" visible="0" minimized="0">
      <fxchannel num="0" muted="0" volume="1" name="Master">
        <fxchain numofeffects="0" enabled="0"/>
      </fxchannel>
      <fxchannel num="1" muted="0" volume="1" name="FX 1">
        <fxchain numofeffects="0" enabled="0"/>
      </fxchannel>
      <fxchannel num="2" muted="0" volume="1" name="FX 2">
        <fxchain numofeffects="0" enabled="0"/>
      </fxchannel>
      <fxchannel num="3" muted="0" volume="1" name="FX 3">
        <fxchain numofeffects="0" enabled="0"/>
      </fxchannel>
      <fxchannel num="4" muted="0" volume="1" name="FX 4">
        <fxchain numofeffects="0" enabled="0"/>
      </fxchannel>
      <fxchannel num="5" muted="0" volume="1" name="FX 5">
        <fxchain numofeffects="0" enabled="0"/>
      </fxchannel>
      <fxchannel num="6" muted="0" volume="1" name="FX 6">
        <fxchain numofeffects="0" enabled="0"/>
      </fxchannel>
      <fxchannel num="7" muted="0" volume="1" name="FX 7">
        <fxchain numofeffects="0" enabled="0"/>
      </fxchannel>
      <fxchannel num="8" muted="0" volume="1" name="FX 8">
        <fxchain numofeffects="0" enabled="0"/>
      </fxchannel>
      <fxchannel num="9" muted="0" volume="1" name="FX 9">
        <fxchain numofeffects="0" enabled="0"/>
      </fxchannel>
      <fxchannel num="10" muted="0" volume="1" name="FX 10">
        <fxchain numofeffects="0" enabled="0"/>
      </fxchannel>
      <fxchannel num="11" muted="0" volume="1" name="FX 11">
        <fxchain numofeffects="0" enabled="0"/>
      </fxchannel>
      <fxchannel num="12" muted="0" volume="1" name="FX 12">
        <fxchain numofeffects="0" enabled="0"/>
      </fxchannel>
      <fxchannel num="13" muted="0" volume="1" name="FX 13">
        <fxchain numofeffects="0" enabled="0"/>
      </fxchannel>
      <fxchannel num="14" muted="0" volume="1" name="FX 14">
        <fxchain numofeffects="0" enabled="0"/>
      </fxchannel>
      <fxchannel num="15" muted="0" volume="1" name="FX 15">
        <fxchain numofeffects="0" enabled="0"/>
      </fxchannel>
      <fxchannel num="16" muted="0" volume="1" name="FX 16">
        <fxchain numofeffects="0" enabled="0"/>
      </fxchannel>
      <fxchannel num="17" muted="0" volume="1" name="FX 17">
        <fxchain numofeffects="0" enabled="0"/>
      </fxchannel>
      <fxchannel num="18" muted="0" volume="1" name="FX 18">
        <fxchain numofeffects="0" enabled="0"/>
      </fxchannel>
      <fxchannel num="19" muted="0" volume="1" name="FX 19">
        <fxchain numofeffects="0" enabled="0"/>
      </fxchannel>
      <fxchannel num="20" muted="0" volume="1" name="FX 20">
        <fxchain numofeffects="0" enabled="0"/>
      </fxchannel>
      <fxchannel num="21" muted="0" volume="1" name="FX 21">
        <fxchain numofeffects="0" enabled="0"/>
      </fxchannel>
      <fxchannel num="22" muted="0" volume="1" name="FX 22">
        <fxchain numofeffects="0" enabled="0"/>
      </fxchannel>
      <fxchannel num="23" muted="0" volume="1" name="FX 23">
        <fxchain numofeffects="0" enabled="0"/>
      </fxchannel>
      <fxchannel num="24" muted="0" volume="1" name="FX 24">
        <fxchain numofeffects="0" enabled="0"/>
      </fxchannel>
      <fxchannel num="25" muted="0" volume="1" name="FX 25">
        <fxchain numofeffects="0" enabled="0"/>
      </fxchannel>
      <fxchannel num="26" muted="0" volume="1" name="FX 26">
        <fxchain numofeffects="0" enabled="0"/>
      </fxchannel>
      <fxchannel num="27" muted="0" volume="1" name="FX 27">
        <fxchain numofeffects="0" enabled="0"/>
      </fxchannel>
      <fxchannel num="28" muted="0" volume="1" name="FX 28">
        <fxchain numofeffects="0" enabled="0"/>
      </fxchannel>
      <fxchannel num="29" muted="0" volume="1" name="FX 29">
        <fxchain numofeffects="0" enabled="0"/>
      </fxchannel>
      <fxchannel num="30" muted="0" volume="1" name="FX 30">
        <fxchain numofeffects="0" enabled="0"/>
      </fxchannel>
      <fxchannel num="31" muted="0" volume="1" name="FX 31">
        <fxchain numofeffects="0" enabled="0"/>
      </fxchannel>
      <fxchannel num="32" muted="0" volume="1" name="FX 32">
        <fxchain numofeffects="0" enabled="0"/>
      </fxchannel>
      <fxchannel num="33" muted="0" volume="1" name="FX 33">
        <fxchain numofeffects="0" enabled="0"/>
      </fxchannel>
      <fxchannel num="34" muted="0" volume="1" name="FX 34">
        <fxchain numofeffects="0" enabled="0"/>
      </fxchannel>
      <fxchannel num="35" muted="0" volume="1" name="FX 35">
        <fxchain numofeffects="0" enabled="0"/>
      </fxchannel>
      <fxchannel num="36" muted="0" volume="1" name="FX 36">
        <fxchain numofeffects="0" enabled="0"/>
      </fxchannel>
      <fxchannel num="37" muted="0" volume="1" name="FX 37">
        <fxchain numofeffects="0" enabled="0"/>
      </fxchannel>
      <fxchannel num="38" muted="0" volume="1" name="FX 38">
        <fxchain numofeffects="0" enabled="0"/>
      </fxchannel>
      <fxchannel num="39" muted="0" volume="1" name="FX 39">
        <fxchain numofeffects="0" enabled="0"/>
      </fxchannel>
      <fxchannel num="40" muted="0" volume="1" name="FX 40">
        <fxchain numofeffects="0" enabled="0"/>
      </fxchannel>
      <fxchannel num="41" muted="0" volume="1" name="FX 41">
        <fxchain numofeffects="0" enabled="0"/>
      </fxchannel>
      <fxchannel num="42" muted="0" volume="1" name="FX 42">
        <fxchain numofeffects="0" enabled="0"/>
      </fxchannel>
      <fxchannel num="43" muted="0" volume="1" name="FX 43">
        <fxchain numofeffects="0" enabled="0"/>
      </fxchannel>
      <fxchannel num="44" muted="0" volume="1" name="FX 44">
        <fxchain numofeffects="0" enabled="0"/>
      </fxchannel>
      <fxchannel num="45" muted="0" volume="1" name="FX 45">
        <fxchain numofeffects="0" enabled="0"/>
      </fxchannel>
      <fxchannel num="46" muted="0" volume="1" name="FX 46">
        <fxchain numofeffects="0" enabled="0"/>
      </fxchannel>
      <fxchannel num="47" muted="0" volume="1" name="FX 47">
        <fxchain numofeffects="0" enabled="0"/>
      </fxchannel>
      <fxchannel num="48" muted="0" volume="1" name="FX 48">
        <fxchain numofeffects="0" enabled="0"/>
      </fxchannel>
      <fxchannel num="49" muted="0" volume="1" name="FX 49">
        <fxchain numofeffects="0" enabled="0"/>
      </fxchannel>
      <fxchannel num="50" muted="0" volume="1" name="FX 50">
        <fxchain numofeffects="0" enabled="0"/>
      </fxchannel>
      <fxchannel num="51" muted="0" volume="1" name="FX 51">
        <fxchain numofeffects="0" enabled="0"/>
      </fxchannel>
      <fxchannel num="52" muted="0" volume="1" name="FX 52">
        <fxchain numofeffects="0" enabled="0"/>
      </fxchannel>
      <fxchannel num="53" muted="0" volume="1" name="FX 53">
        <fxchain numofeffects="0" enabled="0"/>
      </fxchannel>
      <fxchannel num="54" muted="0" volume="1" name="FX 54">
        <fxchain numofeffects="0" enabled="0"/>
      </fxchannel>
      <fxchannel num="55" muted="0" volume="1" name="FX 55">
        <fxchain numofeffects="0" enabled="0"/>
      </fxchannel>
      <fxchannel num="56" muted="0" volume="1" name="FX 56">
        <fxchain numofeffects="0" enabled="0"/>
      </fxchannel>
      <fxchannel num="57" muted="0" volume="1" name="FX 57">
        <fxchain numofeffects="0" enabled="0"/>
      </fxchannel>
      <fxchannel num="58" muted="0" volume="1" name="FX 58">
        <fxchain numofeffects="0" enabled="0"/>
      </fxchannel>
      <fxchannel num="59" muted="0" volume="1" name="FX 59">
        <fxchain numofeffects="0" enabled="0"/>
      </fxchannel>
      <fxchannel num="60" muted="0" volume="1" name="FX 60">
        <fxchain numofeffects="0" enabled="0"/>
      </fxchannel>
      <fxchannel num="61" muted="0" volume="1" name="FX 61">
        <fxchain numofeffects="0" enabled="0"/>
      </fxchannel>
      <fxchannel num="62" muted="0" volume="1" name="FX 62">
        <fxchain numofeffects="0" enabled="0"/>
      </fxchannel>
      <fxchannel num="63" muted="0" volume="1" name="FX 63">
        <fxchain numofeffects="0" enabled="0"/>
      </fxchannel>
      <fxchannel num="64" muted="0" volume="1" name="FX 64">
        <fxchain numofeffects="0" enabled="0"/>
      </fxchannel>
    </fxmixer>
    <ControllerRackView width="258" x="880" y="310" maximized="0" height="172" visible="0" minimized="0"/>
    <pianoroll width="1650" x="0" y="0" maximized="1" height="908" visible="0" minimized="0"/>
    <automationeditor width="742" x="350" y="131" maximized="0" height="480" visible="0" minimized="0"/>
    <projectnotes width="400" x="700" y="10" maximized="0" height="300" visible="0" minimized="0"><![CDATA[<!DOCTYPE HTML PUBLIC "-//W3C//DTD HTML 4.0//EN" "http://www.w3.org/TR/REC-html40/strict.dtd">
<html><head><meta name="qrichtext" content="1" /><style type="text/css">
p, li { white-space: pre-wrap; }
</style></head><body style=" font-family:'MS Shell Dlg 2'; font-size:8.25pt; font-weight:400; font-style:normal;">
<p style=" margin-top:0px; margin-bottom:0px; margin-left:0px; margin-right:0px; -qt-block-indent:0; text-indent:0px;"><span style=" font-size:8pt; color:#e0e0e0;">Put down your project notes here.</span></p></body></html>]]></projectnotes>
    <timeline lp1pos="192" lp0pos="0" lpstate="0"/>
    <controllers/>
  </song>
</multimedia-project>
